  0
SECTION
  2
HEADER
  9
$ACADVER
  1
AC1009
  9
$EXTMIN
 10
0.0
 20
0.0
 30
0.0
  9
$EXTMAX
 10
1000.0
 20
1000.0
 30
0.0
  9
$FILLMODE
 70
 0
  9
$SPLFRAME
 70
 1
  0
ENDSEC
  0
SECTION
  2
TABLES
  0
TABLE
  2
LAYER
 70
1
  0
LAYER
  2
0
 70
     0
 62
     7
  6
CONTINUOUS
  0
ENDTAB
  0
ENDSEC
  0
SECTION
  2
ENTITIES
  0
LINE
  8
0
 62
     4
 10
1.14567
 20
1.07872
 30
0.0
 11
1.11957
 21
1.08404
 31
0.0
  0
LINE
  8
0
 62
     4
 10
1.11957
 20
1.08404
 30
0.0
 11
1.09831
 21
1.09836
 31
0.0
  0
LINE
  8
0
 62
     4
 10
1.09831
 20
1.09836
 30
0.0
 11
1.08393
 21
1.11963
 31
0.0
  0
LINE
  8
0
 62
     4
 10
1.08393
 20
1.11963
 30
0.0
 11
1.07872
 21
1.14567
 31
0.0
  0
LINE
  8
0
 62
     4
 10
1.07872
 20
1.14567
 30
0.0
 11
1.08393
 21
1.17171
 31
0.0
  0
LINE
  8
0
 62
     4
 10
1.08393
 20
1.17171
 30
0.0
 11
1.09831
 21
1.19298
 31
0.0
  0
LINE
  8
0
 62
     4
 10
1.09831
 20
1.19298
 30
0.0
 11
1.11957
 21
1.20736
 31
0.0
  0
LINE
  8
0
 62
     4
 10
1.11957
 20
1.20736
 30
0.0
 11
1.14567
 21
1.21257
 31
0.0
  0
LINE
  8
0
 62
     4
 10
1.14567
 20
1.21257
 30
0.0
 11
1.17166
 21
1.20736
 31
0.0
  0
LINE
  8
0
 62
     4
 10
1.17166
 20
1.20736
 30
0.0
 11
1.19293
 21
1.19298
 31
0.0
  0
LINE
  8
0
 62
     4
 10
1.19293
 20
1.19298
 30
0.0
 11
1.2073
 21
1.17171
 31
0.0
  0
LINE
  8
0
 62
     4
 10
1.2073
 20
1.17171
 30
0.0
 11
1.21257
 21
1.14567
 31
0.0
  0
LINE
  8
0
 62
     4
 10
1.21257
 20
1.14567
 30
0.0
 11
1.2073
 21
1.11963
 31
0.0
  0
LINE
  8
0
 62
     4
 10
1.2073
 20
1.11963
 30
0.0
 11
1.19293
 21
1.09836
 31
0.0
  0
LINE
  8
0
 62
     4
 10
1.19293
 20
1.09836
 30
0.0
 11
1.17166
 21
1.08404
 31
0.0
  0
LINE
  8
0
 62
     4
 10
1.17166
 20
1.08404
 30
0.0
 11
1.14567
 21
1.07872
 31
0.0
  0
LINE
  8
0
 62
     4
 10
0.342503
 20
1.07872
 30
0.0
 11
0.316461
 21
1.08404
 31
0.0
  0
LINE
  8
0
 62
     4
 10
0.316461
 20
1.08404
 30
0.0
 11
0.295193
 21
1.09836
 31
0.0
  0
LINE
  8
0
 62
     4
 10
0.295193
 20
1.09836
 30
0.0
 11
0.280817
 21
1.11963
 31
0.0
  0
LINE
  8
0
 62
     4
 10
0.280817
 20
1.11963
 30
0.0
 11
0.275608
 21
1.14567
 31
0.0
  0
LINE
  8
0
 62
     4
 10
0.275608
 20
1.14567
 30
0.0
 11
0.280817
 21
1.17171
 31
0.0
  0
LINE
  8
0
 62
     4
 10
0.280817
 20
1.17171
 30
0.0
 11
0.295193
 21
1.19298
 31
0.0
  0
LINE
  8
0
 62
     4
 10
0.295193
 20
1.19298
 30
0.0
 11
0.316461
 21
1.20736
 31
0.0
  0
LINE
  8
0
 62
     4
 10
0.316461
 20
1.20736
 30
0.0
 11
0.342503
 21
1.21257
 31
0.0
  0
LINE
  8
0
 62
     4
 10
0.342503
 20
1.21257
 30
0.0
 11
0.368544
 21
1.20736
 31
0.0
  0
LINE
  8
0
 62
     4
 10
0.368544
 20
1.20736
 30
0.0
 11
0.389811
 21
1.19298
 31
0.0
  0
LINE
  8
0
 62
     4
 10
0.389811
 20
1.19298
 30
0.0
 11
0.404189
 21
1.17171
 31
0.0
  0
LINE
  8
0
 62
     4
 10
0.404189
 20
1.17171
 30
0.0
 11
0.409451
 21
1.14567
 31
0.0
  0
LINE
  8
0
 62
     4
 10
0.409451
 20
1.14567
 30
0.0
 11
0.404189
 21
1.11963
 31
0.0
  0
LINE
  8
0
 62
     4
 10
0.404189
 20
1.11963
 30
0.0
 11
0.389811
 21
1.09836
 31
0.0
  0
LINE
  8
0
 62
     4
 10
0.389811
 20
1.09836
 30
0.0
 11
0.368544
 21
1.08404
 31
0.0
  0
LINE
  8
0
 62
     4
 10
0.368544
 20
1.08404
 30
0.0
 11
0.342503
 21
1.07872
 31
0.0
  0
LINE
  8
0
 62
     4
 10
1.30311
 20
1.01378
 30
0.0
 11
1.30311
 21
1.27756
 31
0.0
  0
LINE
  8
0
 62
     4
 10
1.30311
 20
1.27756
 30
0.0
 11
1.31103
 21
1.27756
 31
0.0
  0
LINE
  8
0
 62
     4
 10
1.31103
 20
1.27756
 30
0.0
 11
1.31103
 21
1.28743
 31
0.0
  0
LINE
  8
0
 62
     4
 10
1.31103
 20
1.28743
 30
0.0
 11
1.28738
 21
1.31103
 31
0.0
  0
LINE
  8
0
 62
     4
 10
1.28738
 20
1.31103
 30
0.0
 11
0.580675
 21
1.31103
 31
0.0
  0
LINE
  8
0
 62
     4
 10
0.580675
 20
1.31103
 30
0.0
 11
0.580675
 21
1.30317
 31
0.0
  0
LINE
  8
0
 62
     4
 10
0.580675
 20
1.30317
 30
0.0
 11
0.104329
 21
1.30317
 31
0.0
  0
LINE
  8
0
 62
     4
 10
0.104329
 20
1.30317
 30
0.0
 11
0.104329
 21
1.31103
 31
0.0
  0
LINE
  8
0
 62
     4
 10
0.104329
 20
1.31103
 30
0.0
 11
0.0236003
 21
1.31103
 31
0.0
  0
LINE
  8
0
 62
     4
 10
0.0236003
 20
1.31103
 30
0.0
 11
0
 21
1.28743
 31
0.0
  0
LINE
  8
0
 62
     4
 10
0
 20
1.28743
 30
0.0
 11
0
 21
0.0236544
 31
0.0
  0
LINE
  8
0
 62
     4
 10
0
 20
0.0236544
 30
0.0
 11
0.0236003
 21
-0
 31
0.0
  0
LINE
  8
0
 62
     4
 10
0.0236003
 20
-0
 30
0.0
 11
1.28738
 21
-0
 31
0.0
  0
LINE
  8
0
 62
     4
 10
1.28738
 20
-0
 30
0.0
 11
1.31103
 21
0.0236544
 31
0.0
  0
LINE
  8
0
 62
     4
 10
1.31103
 20
0.0236544
 30
0.0
 11
1.31103
 21
1.01378
 31
0.0
  0
LINE
  8
0
 62
     4
 10
1.31103
 20
1.01378
 30
0.0
 11
1.30311
 21
1.01378
 31
0.0
  0
ENDSEC
  0
EOF
