solid OpenSCAD_Model
  facet normal -0.936519 -0.350618 0
    outer loop
      vertex -0.3 0.589 2.4
      vertex -0.224 0.386 2.4
      vertex -0.3 0.589 3
    endloop
  endfacet
  facet normal -0.936519 -0.350618 0
    outer loop
      vertex -0.3 0.589 3
      vertex -0.224 0.386 2.4
      vertex -0.224 0.386 3
    endloop
  endfacet
  facet normal 0 0 -1
    outer loop
      vertex -0.3 0.589 2.4
      vertex -0.3 1.3 2.4
      vertex -0.224 0.386 2.4
    endloop
  endfacet
  facet normal 0 0 -1
    outer loop
      vertex -0.224 0.386 2.4
      vertex -0.3 1.3 2.4
      vertex 0.31 1.3 2.4
    endloop
  endfacet
  facet normal 0 0 -1
    outer loop
      vertex -0.224 0.386 2.4
      vertex 0.31 1.3 2.4
      vertex 0.31 0.716 2.4
    endloop
  endfacet
  facet normal 0 0 -1
    outer loop
      vertex -0.224 0.386 2.4
      vertex 0.31 0.716 2.4
      vertex 0.716 0.31 2.4
    endloop
  endfacet
  facet normal 0 0 -1
    outer loop
      vertex 0.716 0.31 2.4
      vertex 9.047 0.31 2.4
      vertex 9.047 -0.3 2.4
    endloop
  endfacet
  facet normal 0 0 -1
    outer loop
      vertex 0.716 0.31 2.4
      vertex 9.047 -0.3 2.4
      vertex 0.589 -0.3 2.4
    endloop
  endfacet
  facet normal 0 0 -1
    outer loop
      vertex 0.716 0.31 2.4
      vertex 0.589 -0.3 2.4
      vertex -0.224 0.386 2.4
    endloop
  endfacet
  facet normal 0 0 -1
    outer loop
      vertex -0.224 0.386 2.4
      vertex 0.589 -0.3 2.4
      vertex 0.386 -0.224 2.4
    endloop
  endfacet
  facet normal -1 0 0
    outer loop
      vertex -0.3 0.589 2.4
      vertex -0.3 0.589 3
      vertex -0.3 1.3 2.4
    endloop
  endfacet
  facet normal -1 0 0
    outer loop
      vertex -0.3 1.3 2.4
      vertex -0.3 0.589 3
      vertex -0.3 1.3 3
    endloop
  endfacet
  facet normal -1 0 0
    outer loop
      vertex -0.3 1.3 3
      vertex -0.3 6.304 3
      vertex -0.3 1.3 2.4
    endloop
  endfacet
  facet normal -1 0 0
    outer loop
      vertex -0.3 1.3 2.4
      vertex -0.3 6.304 3
      vertex -0.3 16.312 3
    endloop
  endfacet
  facet normal -1 0 0
    outer loop
      vertex -0.3 16.312 3
      vertex -0.3 21.29 3
      vertex -0.3 1.3 2.4
    endloop
  endfacet
  facet normal -1 0 0
    outer loop
      vertex -0.3 1.3 2.4
      vertex -0.3 21.29 3
      vertex -0.3 31.298 3
    endloop
  endfacet
  facet normal -1 0 0
    outer loop
      vertex -0.3 31.298 3
      vertex -0.3 32.695 3
      vertex -0.3 1.3 2.4
    endloop
  endfacet
  facet normal -1 0 0
    outer loop
      vertex -0.3 31.298 2.4
      vertex -0.3 32.695 3
      vertex -0.3 32.695 0
    endloop
  endfacet
  facet normal -1 0 0
    outer loop
      vertex -0.3 31.298 2.4
      vertex -0.3 32.695 0
      vertex -0.3 31.298 0
    endloop
  endfacet
  facet normal -1 0 0
    outer loop
      vertex -0.3 1.3 2.4
      vertex -0.3 32.695 3
      vertex -0.3 6.304 2.4
    endloop
  endfacet
  facet normal -1 0 0
    outer loop
      vertex -0.3 32.695 3
      vertex -0.3 31.298 2.4
      vertex -0.3 21.29 2.4
    endloop
  endfacet
  facet normal -1 0 0
    outer loop
      vertex -0.3 6.304 0
      vertex -0.3 1.3 2.4
      vertex -0.3 6.304 2.4
    endloop
  endfacet
  facet normal -1 0 0
    outer loop
      vertex -0.3 32.695 3
      vertex -0.3 21.29 2.4
      vertex -0.3 16.312 2.4
    endloop
  endfacet
  facet normal -1 0 0
    outer loop
      vertex -0.3 21.29 0
      vertex -0.3 16.312 2.4
      vertex -0.3 21.29 2.4
    endloop
  endfacet
  facet normal -1 0 0
    outer loop
      vertex -0.3 32.695 3
      vertex -0.3 16.312 2.4
      vertex -0.3 6.304 2.4
    endloop
  endfacet
  facet normal -1 0 0
    outer loop
      vertex -0.3 16.312 2.4
      vertex -0.3 21.29 0
      vertex -0.3 16.312 0
    endloop
  endfacet
  facet normal -1 0 0
    outer loop
      vertex -0.3 1.3 2.4
      vertex -0.3 6.304 0
      vertex -0.3 1.3 0
    endloop
  endfacet
  facet normal 0 0 1
    outer loop
      vertex -0.3 1.3 3
      vertex -0.3 0.589 3
      vertex -0.224 0.386 3
    endloop
  endfacet
  facet normal 0 0 1
    outer loop
      vertex 0.589 -0.3 3
      vertex -0.3 1.3 3
      vertex 0.386 -0.224 3
    endloop
  endfacet
  facet normal 0 0 1
    outer loop
      vertex 0.386 -0.224 3
      vertex -0.3 1.3 3
      vertex -0.224 0.386 3
    endloop
  endfacet
  facet normal 0 0 1
    outer loop
      vertex 0.716 0.31 3
      vertex -0.3 1.3 3
      vertex 0.589 -0.3 3
    endloop
  endfacet
  facet normal 0 0 1
    outer loop
      vertex 9.047 -0.3 3
      vertex 0.716 0.31 3
      vertex 0.589 -0.3 3
    endloop
  endfacet
  facet normal 0 0 1
    outer loop
      vertex 0.31 0.716 3
      vertex -0.3 1.3 3
      vertex 0.716 0.31 3
    endloop
  endfacet
  facet normal 0 0 1
    outer loop
      vertex 0.31 0.716 3
      vertex 0.31 1.3 3
      vertex -0.3 1.3 3
    endloop
  endfacet
  facet normal 0 0 1
    outer loop
      vertex 9.047 0.31 3
      vertex 0.716 0.31 3
      vertex 9.047 -0.3 3
    endloop
  endfacet
  facet normal -0.707107 -0.707107 0
    outer loop
      vertex -0.224 0.386 3
      vertex -0.224 0.386 2.4
      vertex 0.386 -0.224 2.4
    endloop
  endfacet
  facet normal -0.707107 -0.707107 0
    outer loop
      vertex 0.386 -0.224 3
      vertex -0.224 0.386 3
      vertex 0.386 -0.224 2.4
    endloop
  endfacet
  facet normal -0.350618 -0.936519 0
    outer loop
      vertex 0.386 -0.224 3
      vertex 0.386 -0.224 2.4
      vertex 0.589 -0.3 2.4
    endloop
  endfacet
  facet normal -0.350618 -0.936519 0
    outer loop
      vertex 0.589 -0.3 3
      vertex 0.386 -0.224 3
      vertex 0.589 -0.3 2.4
    endloop
  endfacet
  facet normal 0 -1 0
    outer loop
      vertex 24.059 -0.3 2.4
      vertex 29.037 -0.3 2.4
      vertex 0.589 -0.3 3
    endloop
  endfacet
  facet normal 0 -1 0
    outer loop
      vertex 0.589 -0.3 3
      vertex 0.589 -0.3 2.4
      vertex 9.047 -0.3 2.4
    endloop
  endfacet
  facet normal 0 -1 0
    outer loop
      vertex 14.051 -0.3 2.4
      vertex 0.589 -0.3 3
      vertex 9.047 -0.3 2.4
    endloop
  endfacet
  facet normal 0 -1 0
    outer loop
      vertex 9.047 -0.3 0
      vertex 14.051 -0.3 0
      vertex 9.047 -0.3 2.4
    endloop
  endfacet
  facet normal 0 -1 0
    outer loop
      vertex 14.051 -0.3 0
      vertex 14.051 -0.3 2.4
      vertex 9.047 -0.3 2.4
    endloop
  endfacet
  facet normal 0 -1 0
    outer loop
      vertex 14.051 -0.3 2.4
      vertex 24.059 -0.3 2.4
      vertex 0.589 -0.3 3
    endloop
  endfacet
  facet normal 0 -1 0
    outer loop
      vertex 24.059 -0.3 0
      vertex 29.037 -0.3 0
      vertex 24.059 -0.3 2.4
    endloop
  endfacet
  facet normal 0 -1 0
    outer loop
      vertex 29.037 -0.3 0
      vertex 29.037 -0.3 2.4
      vertex 24.059 -0.3 2.4
    endloop
  endfacet
  facet normal 0 -1 0
    outer loop
      vertex 29.037 -0.3 2.4
      vertex 32.695 -0.3 2.4
      vertex 0.589 -0.3 3
    endloop
  endfacet
  facet normal 0 -1 0
    outer loop
      vertex 32.695 -0.3 2.4
      vertex 29.037 -0.3 3
      vertex 24.059 -0.3 3
    endloop
  endfacet
  facet normal 0 -1 0
    outer loop
      vertex 32.695 -0.3 2.4
      vertex 32.695 -0.3 3
      vertex 29.037 -0.3 3
    endloop
  endfacet
  facet normal 0 -1 0
    outer loop
      vertex 32.695 -0.3 2.4
      vertex 24.059 -0.3 3
      vertex 14.051 -0.3 3
    endloop
  endfacet
  facet normal 0 -1 0
    outer loop
      vertex 32.695 -0.3 2.4
      vertex 14.051 -0.3 3
      vertex 9.047 -0.3 3
    endloop
  endfacet
  facet normal 0 -1 0
    outer loop
      vertex 32.695 -0.3 2.4
      vertex 9.047 -0.3 3
      vertex 0.589 -0.3 3
    endloop
  endfacet
  facet normal -1 0 0
    outer loop
      vertex 9.047 -0.3 0
      vertex 9.047 -0.3 2.4
      vertex 9.047 0 0
    endloop
  endfacet
  facet normal -1 0 0
    outer loop
      vertex 9.047 0 1.2
      vertex 9.047 -0.3 2.4
      vertex 9.047 0.31 2.4
    endloop
  endfacet
  facet normal -1 0 0
    outer loop
      vertex 9.047 0 0
      vertex 9.047 -0.3 2.4
      vertex 9.047 0 1.2
    endloop
  endfacet
  facet normal -1 0 0
    outer loop
      vertex 9.047 0 1.2
      vertex 9.047 0.31 2.4
      vertex 9.047 0.31 1.2
    endloop
  endfacet
  facet normal 0 1 0
    outer loop
      vertex 0.716 0.31 2.4
      vertex 0.716 0.31 3
      vertex 9.047 0.31 2.4
    endloop
  endfacet
  facet normal 0 1 0
    outer loop
      vertex 9.047 0.31 2.4
      vertex 0.716 0.31 3
      vertex 9.047 0.31 3
    endloop
  endfacet
  facet normal 0 1 0
    outer loop
      vertex 9.047 0.31 3
      vertex 14.051 0.31 3
      vertex 9.047 0.31 2.4
    endloop
  endfacet
  facet normal 0 1 0
    outer loop
      vertex 9.047 0.31 2.4
      vertex 14.051 0.31 3
      vertex 24.059 0.31 3
    endloop
  endfacet
  facet normal 0 1 0
    outer loop
      vertex 24.059 0.31 3
      vertex 29.037 0.31 3
      vertex 9.047 0.31 2.4
    endloop
  endfacet
  facet normal 0 1 0
    outer loop
      vertex 9.047 0.31 2.4
      vertex 29.037 0.31 3
      vertex 32.568 0.31 3
    endloop
  endfacet
  facet normal 0 1 0
    outer loop
      vertex 29.037 0.31 2.4
      vertex 32.568 0.31 3
      vertex 32.568 0.31 2.4
    endloop
  endfacet
  facet normal 0 1 0
    outer loop
      vertex 9.047 0.31 2.4
      vertex 32.568 0.31 3
      vertex 14.051 0.31 2.4
    endloop
  endfacet
  facet normal 0 1 0
    outer loop
      vertex 24.059 0.31 2.4
      vertex 29.037 0.31 1.2
      vertex 24.059 0.31 1.2
    endloop
  endfacet
  facet normal 0 1 0
    outer loop
      vertex 29.037 0.31 2.4
      vertex 29.037 0.31 1.2
      vertex 24.059 0.31 2.4
    endloop
  endfacet
  facet normal 0 1 0
    outer loop
      vertex 29.037 0.31 2.4
      vertex 24.059 0.31 2.4
      vertex 32.568 0.31 3
    endloop
  endfacet
  facet normal 0 1 0
    outer loop
      vertex 14.051 0.31 1.2
      vertex 9.047 0.31 2.4
      vertex 14.051 0.31 2.4
    endloop
  endfacet
  facet normal 0 1 0
    outer loop
      vertex 24.059 0.31 2.4
      vertex 14.051 0.31 2.4
      vertex 32.568 0.31 3
    endloop
  endfacet
  facet normal 0 1 0
    outer loop
      vertex 9.047 0.31 2.4
      vertex 14.051 0.31 1.2
      vertex 9.047 0.31 1.2
    endloop
  endfacet
  facet normal 0.707107 0.707107 0
    outer loop
      vertex 0.31 0.716 2.4
      vertex 0.31 0.716 3
      vertex 0.716 0.31 2.4
    endloop
  endfacet
  facet normal 0.707107 0.707107 0
    outer loop
      vertex 0.716 0.31 2.4
      vertex 0.31 0.716 3
      vertex 0.716 0.31 3
    endloop
  endfacet
  facet normal 1 0 0
    outer loop
      vertex 0.31 6.304 2.4
      vertex 0.31 16.312 2.4
      vertex 0.31 0.716 3
    endloop
  endfacet
  facet normal 1 0 0
    outer loop
      vertex 0.31 0.716 3
      vertex 0.31 0.716 2.4
      vertex 0.31 1.3 2.4
    endloop
  endfacet
  facet normal 1 0 0
    outer loop
      vertex 0.31 6.304 1.2
      vertex 0.31 0.716 3
      vertex 0.31 1.3 2.4
    endloop
  endfacet
  facet normal 1 0 0
    outer loop
      vertex 0.31 1.3 1.2
      vertex 0.31 6.304 1.2
      vertex 0.31 1.3 2.4
    endloop
  endfacet
  facet normal 1 0 0
    outer loop
      vertex 0.31 6.304 1.2
      vertex 0.31 6.304 2.4
      vertex 0.31 0.716 3
    endloop
  endfacet
  facet normal 1 0 0
    outer loop
      vertex 0.31 16.312 2.4
      vertex 0.31 21.29 2.4
      vertex 0.31 0.716 3
    endloop
  endfacet
  facet normal 1 0 0
    outer loop
      vertex 0.31 16.312 1.2
      vertex 0.31 21.29 1.2
      vertex 0.31 16.312 2.4
    endloop
  endfacet
  facet normal 1 0 0
    outer loop
      vertex 0.31 21.29 1.2
      vertex 0.31 21.29 2.4
      vertex 0.31 16.312 2.4
    endloop
  endfacet
  facet normal 1 0 0
    outer loop
      vertex 0.31 21.29 2.4
      vertex 0.31 31.298 2.4
      vertex 0.31 0.716 3
    endloop
  endfacet
  facet normal 1 0 0
    outer loop
      vertex 0.31 31.298 1.2
      vertex 0.31 32.568 1.2
      vertex 0.31 31.298 2.4
    endloop
  endfacet
  facet normal 1 0 0
    outer loop
      vertex 0.31 32.568 1.2
      vertex 0.31 32.568 3
      vertex 0.31 31.298 2.4
    endloop
  endfacet
  facet normal 1 0 0
    outer loop
      vertex 0.31 31.298 2.4
      vertex 0.31 31.298 3
      vertex 0.31 21.29 3
    endloop
  endfacet
  facet normal 1 0 0
    outer loop
      vertex 0.31 31.298 2.4
      vertex 0.31 32.568 3
      vertex 0.31 31.298 3
    endloop
  endfacet
  facet normal 1 0 0
    outer loop
      vertex 0.31 31.298 2.4
      vertex 0.31 21.29 3
      vertex 0.31 16.312 3
    endloop
  endfacet
  facet normal 1 0 0
    outer loop
      vertex 0.31 31.298 2.4
      vertex 0.31 16.312 3
      vertex 0.31 6.304 3
    endloop
  endfacet
  facet normal 1 0 0
    outer loop
      vertex 0.31 31.298 2.4
      vertex 0.31 6.304 3
      vertex 0.31 1.3 3
    endloop
  endfacet
  facet normal 1 0 0
    outer loop
      vertex 0.31 31.298 2.4
      vertex 0.31 1.3 3
      vertex 0.31 0.716 3
    endloop
  endfacet
  facet normal 0 -1 0
    outer loop
      vertex -0.3 1.3 2.4
      vertex -0.3 1.3 0
      vertex 0 1.3 0
    endloop
  endfacet
  facet normal 0 -1 0
    outer loop
      vertex 0.31 1.3 1.2
      vertex -0.3 1.3 2.4
      vertex 0 1.3 1.2
    endloop
  endfacet
  facet normal 0 -1 0
    outer loop
      vertex 0 1.3 1.2
      vertex -0.3 1.3 2.4
      vertex 0 1.3 0
    endloop
  endfacet
  facet normal 0 -1 0
    outer loop
      vertex 0.31 1.3 2.4
      vertex -0.3 1.3 2.4
      vertex 0.31 1.3 1.2
    endloop
  endfacet
  facet normal 0 0 -1
    outer loop
      vertex -0.3 1.3 0
      vertex -0.3 6.304 0
      vertex 0 1.3 0
    endloop
  endfacet
  facet normal 0 0 -1
    outer loop
      vertex 0 1.3 0
      vertex -0.3 6.304 0
      vertex 0 6.304 0
    endloop
  endfacet
  facet normal 0 0 -1
    outer loop
      vertex 0 6.304 0
      vertex 0.386 33.507 0
      vertex 0 1.3 0
    endloop
  endfacet
  facet normal 0 0 -1
    outer loop
      vertex 0 16.312 0
      vertex -0.3 16.312 0
      vertex -0.3 21.29 0
    endloop
  endfacet
  facet normal 0 0 -1
    outer loop
      vertex 0 16.312 0
      vertex -0.3 21.29 0
      vertex 0 21.29 0
    endloop
  endfacet
  facet normal 0 0 -1
    outer loop
      vertex 0 16.312 0
      vertex 0.386 33.507 0
      vertex 0 6.304 0
    endloop
  endfacet
  facet normal 0 0 -1
    outer loop
      vertex 0 21.29 0
      vertex 0.386 33.507 0
      vertex 0 16.312 0
    endloop
  endfacet
  facet normal 0 0 -1
    outer loop
      vertex 0 31.298 0
      vertex -0.3 31.298 0
      vertex -0.3 32.695 0
    endloop
  endfacet
  facet normal 0 0 -1
    outer loop
      vertex 0 31.298 0
      vertex -0.3 32.695 0
      vertex -0.224 32.923 0
    endloop
  endfacet
  facet normal 0 0 -1
    outer loop
      vertex 0 31.298 0
      vertex -0.224 32.923 0
      vertex 0.386 33.507 0
    endloop
  endfacet
  facet normal 0 0 -1
    outer loop
      vertex 0 31.298 0
      vertex 0.386 33.507 0
      vertex 0 21.29 0
    endloop
  endfacet
  facet normal 0 0 -1
    outer loop
      vertex 0 1.3 0
      vertex 0.386 33.507 0
      vertex 0.589 33.609 0
    endloop
  endfacet
  facet normal 0 0 -1
    outer loop
      vertex 0 1.3 0
      vertex 0.589 33.609 0
      vertex 2.646 33.609 0
    endloop
  endfacet
  facet normal 0 0 -1
    outer loop
      vertex 0 1.3 0
      vertex 2.646 33.609 0
      vertex 2.646 33.096 0
    endloop
  endfacet
  facet normal 0 0 -1
    outer loop
      vertex 9.373 30.658 0
      vertex 2.646 33.096 0
      vertex 14.757 33.096 0
    endloop
  endfacet
  facet normal 0 0 -1
    outer loop
      vertex 14.757 33.096 0
      vertex 14.757 33.299 0
      vertex 14.762 33.299 0
    endloop
  endfacet
  facet normal 0 0 -1
    outer loop
      vertex 14.757 33.096 0
      vertex 19.69 33.609 0
      vertex 0 1.3 0
    endloop
  endfacet
  facet normal 0 0 -1
    outer loop
      vertex 14.762 33.299 0
      vertex 14.762 33.609 0
      vertex 19.69 33.609 0
    endloop
  endfacet
  facet normal 0 0 -1
    outer loop
      vertex 14.762 33.299 0
      vertex 19.69 33.609 0
      vertex 14.757 33.096 0
    endloop
  endfacet
  facet normal 0 0 -1
    outer loop
      vertex 0 1.3 0
      vertex 19.69 33.609 0
      vertex 19.69 33.299 0
    endloop
  endfacet
  facet normal 0 0 -1
    outer loop
      vertex 0 1.3 0
      vertex 19.69 33.299 0
      vertex 29.697 33.299 0
    endloop
  endfacet
  facet normal 0 0 -1
    outer loop
      vertex 29.697 33.299 0
      vertex 29.697 33.609 0
      vertex 32.695 33.609 0
    endloop
  endfacet
  facet normal 0 0 -1
    outer loop
      vertex 29.769 30.658 0
      vertex 32.695 33.609 0
      vertex 32.974 33.431 0
    endloop
  endfacet
  facet normal 0 0 -1
    outer loop
      vertex 33.096 32.441 0
      vertex 32.974 33.431 0
      vertex 33.457 32.441 0
    endloop
  endfacet
  facet normal 0 0 -1
    outer loop
      vertex 30.302 30.302 0
      vertex 32.974 33.431 0
      vertex 33.096 32.441 0
    endloop
  endfacet
  facet normal 0 0 -1
    outer loop
      vertex 33.299 11.105 0
      vertex 0 1.3 0
      vertex 33.299 21.112 0
    endloop
  endfacet
  facet normal 0 0 -1
    outer loop
      vertex 0 1.3 0
      vertex 33.096 25.76 0
      vertex 33.609 25.76 0
    endloop
  endfacet
  facet normal 0 0 -1
    outer loop
      vertex 33.299 21.112 0
      vertex 33.609 25.76 0
      vertex 33.609 21.112 0
    endloop
  endfacet
  facet normal 0 0 -1
    outer loop
      vertex 0 1.3 0
      vertex 33.609 25.76 0
      vertex 33.299 21.112 0
    endloop
  endfacet
  facet normal 0 0 -1
    outer loop
      vertex 33.299 0.61 0
      vertex 0 1.3 0
      vertex 33.299 6.101 0
    endloop
  endfacet
  facet normal 0 0 -1
    outer loop
      vertex 0 1.3 0
      vertex 33.299 11.105 0
      vertex 33.609 11.105 0
    endloop
  endfacet
  facet normal 0 0 -1
    outer loop
      vertex 33.299 6.101 0
      vertex 33.609 11.105 0
      vertex 33.609 6.101 0
    endloop
  endfacet
  facet normal 0 0 -1
    outer loop
      vertex 0 1.3 0
      vertex 33.609 11.105 0
      vertex 33.299 6.101 0
    endloop
  endfacet
  facet normal 0 0 -1
    outer loop
      vertex 24.059 0 0
      vertex 29.037 -0.3 0
      vertex 24.059 -0.3 0
    endloop
  endfacet
  facet normal 0 0 -1
    outer loop
      vertex 33.096 25.76 0
      vertex 30.302 27.889 0
      vertex 30.658 28.448 0
    endloop
  endfacet
  facet normal 0 0 -1
    outer loop
      vertex 33.096 25.76 0
      vertex 30.658 28.448 0
      vertex 30.81 29.108 0
    endloop
  endfacet
  facet normal 0 0 -1
    outer loop
      vertex 33.096 25.76 0
      vertex 30.81 29.108 0
      vertex 30.658 29.769 0
    endloop
  endfacet
  facet normal 0 0 -1
    outer loop
      vertex 29.037 0 0
      vertex 29.037 -0.3 0
      vertex 24.059 0 0
    endloop
  endfacet
  facet normal 0 0 -1
    outer loop
      vertex 33.096 25.76 0
      vertex 30.658 29.769 0
      vertex 33.096 32.441 0
    endloop
  endfacet
  facet normal 0 0 -1
    outer loop
      vertex 14.051 -0.3 0
      vertex 9.047 -0.3 0
      vertex 9.047 0 0
    endloop
  endfacet
  facet normal 0 0 -1
    outer loop
      vertex 0 1.3 0
      vertex 2.646 33.096 0
      vertex 7.01 29.108 0
    endloop
  endfacet
  facet normal 0 0 -1
    outer loop
      vertex 0 1.3 0
      vertex 7.01 29.108 0
      vertex 7.137 28.448 0
    endloop
  endfacet
  facet normal 0 0 -1
    outer loop
      vertex 0 1.3 0
      vertex 7.137 28.448 0
      vertex 7.493 27.889 0
    endloop
  endfacet
  facet normal 0 0 -1
    outer loop
      vertex 0 1.3 0
      vertex 7.493 27.889 0
      vertex 8.026 27.534 0
    endloop
  endfacet
  facet normal 0 0 -1
    outer loop
      vertex 0 1.3 0
      vertex 8.026 27.534 0
      vertex 8.712 27.407 0
    endloop
  endfacet
  facet normal 0 0 -1
    outer loop
      vertex 0 1.3 0
      vertex 8.712 27.407 0
      vertex 9.373 27.534 0
    endloop
  endfacet
  facet normal 0 0 -1
    outer loop
      vertex 0 1.3 0
      vertex 9.373 27.534 0
      vertex 9.906 27.889 0
    endloop
  endfacet
  facet normal 0 0 -1
    outer loop
      vertex 0 1.3 0
      vertex 9.906 27.889 0
      vertex 14.757 33.096 0
    endloop
  endfacet
  facet normal 0 0 -1
    outer loop
      vertex 9.906 27.889 0
      vertex 10.262 28.448 0
      vertex 14.757 33.096 0
    endloop
  endfacet
  facet normal 0 0 -1
    outer loop
      vertex 10.262 29.769 0
      vertex 14.757 33.096 0
      vertex 10.389 29.108 0
    endloop
  endfacet
  facet normal 0 0 -1
    outer loop
      vertex 9.906 30.302 0
      vertex 14.757 33.096 0
      vertex 10.262 29.769 0
    endloop
  endfacet
  facet normal 0 0 -1
    outer loop
      vertex 9.373 30.658 0
      vertex 14.757 33.096 0
      vertex 9.906 30.302 0
    endloop
  endfacet
  facet normal 0 0 -1
    outer loop
      vertex 8.712 30.81 0
      vertex 2.646 33.096 0
      vertex 9.373 30.658 0
    endloop
  endfacet
  facet normal 0 0 -1
    outer loop
      vertex 27.534 28.448 0
      vertex 0 1.3 0
      vertex 27.407 29.108 0
    endloop
  endfacet
  facet normal 0 0 -1
    outer loop
      vertex 8.026 30.658 0
      vertex 2.646 33.096 0
      vertex 8.712 30.81 0
    endloop
  endfacet
  facet normal 0 0 -1
    outer loop
      vertex 7.493 30.302 0
      vertex 2.646 33.096 0
      vertex 8.026 30.658 0
    endloop
  endfacet
  facet normal 0 0 -1
    outer loop
      vertex 7.137 29.769 0
      vertex 2.646 33.096 0
      vertex 7.493 30.302 0
    endloop
  endfacet
  facet normal 0 0 -1
    outer loop
      vertex 7.01 29.108 0
      vertex 2.646 33.096 0
      vertex 7.137 29.769 0
    endloop
  endfacet
  facet normal 0 0 -1
    outer loop
      vertex 27.889 30.302 0
      vertex 29.697 33.299 0
      vertex 28.448 30.658 0
    endloop
  endfacet
  facet normal 0 0 -1
    outer loop
      vertex 27.534 29.769 0
      vertex 27.407 29.108 0
      vertex 0 1.3 0
    endloop
  endfacet
  facet normal 0 0 -1
    outer loop
      vertex 27.889 27.889 0
      vertex 0 1.3 0
      vertex 27.534 28.448 0
    endloop
  endfacet
  facet normal 0 0 -1
    outer loop
      vertex 28.448 27.534 0
      vertex 0 1.3 0
      vertex 27.889 27.889 0
    endloop
  endfacet
  facet normal 0 0 -1
    outer loop
      vertex 0 1.3 0
      vertex 28.448 27.534 0
      vertex 33.096 25.76 0
    endloop
  endfacet
  facet normal 0 0 -1
    outer loop
      vertex 28.448 27.534 0
      vertex 29.108 27.407 0
      vertex 33.096 25.76 0
    endloop
  endfacet
  facet normal 0 0 -1
    outer loop
      vertex 29.108 27.407 0
      vertex 29.769 27.534 0
      vertex 33.096 25.76 0
    endloop
  endfacet
  facet normal 0 0 -1
    outer loop
      vertex 29.769 27.534 0
      vertex 30.302 27.889 0
      vertex 33.096 25.76 0
    endloop
  endfacet
  facet normal 0 0 -1
    outer loop
      vertex 30.302 30.302 0
      vertex 33.096 32.441 0
      vertex 30.658 29.769 0
    endloop
  endfacet
  facet normal 0 0 -1
    outer loop
      vertex 29.769 30.658 0
      vertex 32.974 33.431 0
      vertex 30.302 30.302 0
    endloop
  endfacet
  facet normal 0 0 -1
    outer loop
      vertex 29.108 30.81 0
      vertex 32.695 33.609 0
      vertex 29.769 30.658 0
    endloop
  endfacet
  facet normal 0 0 -1
    outer loop
      vertex 29.697 33.299 0
      vertex 32.695 33.609 0
      vertex 29.108 30.81 0
    endloop
  endfacet
  facet normal 0 0 -1
    outer loop
      vertex 29.697 33.299 0
      vertex 29.108 30.81 0
      vertex 28.448 30.658 0
    endloop
  endfacet
  facet normal 0 0 -1
    outer loop
      vertex 29.697 33.299 0
      vertex 27.889 30.302 0
      vertex 0 1.3 0
    endloop
  endfacet
  facet normal 0 0 -1
    outer loop
      vertex 27.889 30.302 0
      vertex 27.534 29.769 0
      vertex 0 1.3 0
    endloop
  endfacet
  facet normal 0 0 -1
    outer loop
      vertex 0 1.3 0
      vertex 33.299 0.61 0
      vertex 32.69 0 0
    endloop
  endfacet
  facet normal 0 0 -1
    outer loop
      vertex 0 1.3 0
      vertex 32.69 0 0
      vertex 29.037 0 0
    endloop
  endfacet
  facet normal 0 0 -1
    outer loop
      vertex 0 1.3 0
      vertex 29.037 0 0
      vertex 24.059 0 0
    endloop
  endfacet
  facet normal 0 0 -1
    outer loop
      vertex 14.051 0 0
      vertex 0 1.3 0
      vertex 24.059 0 0
    endloop
  endfacet
  facet normal 0 0 -1
    outer loop
      vertex 0.61 0 0
      vertex 0 1.3 0
      vertex 9.047 0 0
    endloop
  endfacet
  facet normal 0 0 -1
    outer loop
      vertex 0 1.3 0
      vertex 14.051 0 0
      vertex 14.051 -0.3 0
    endloop
  endfacet
  facet normal 0 0 -1
    outer loop
      vertex 0 1.3 0
      vertex 14.051 -0.3 0
      vertex 9.047 0 0
    endloop
  endfacet
  facet normal 0 0 -1
    outer loop
      vertex 10.389 29.108 0
      vertex 14.757 33.096 0
      vertex 10.262 28.448 0
    endloop
  endfacet
  facet normal 0 0 -1
    outer loop
      vertex 0 1.3 0
      vertex 0.61 0 0
      vertex 0 0.61 0
    endloop
  endfacet
  facet normal 0 1 0
    outer loop
      vertex -0.3 6.304 0
      vertex -0.3 6.304 2.4
      vertex 0 6.304 0
    endloop
  endfacet
  facet normal 0 1 0
    outer loop
      vertex 0 6.304 1.2
      vertex -0.3 6.304 2.4
      vertex 0.31 6.304 2.4
    endloop
  endfacet
  facet normal 0 1 0
    outer loop
      vertex 0 6.304 0
      vertex -0.3 6.304 2.4
      vertex 0 6.304 1.2
    endloop
  endfacet
  facet normal 0 1 0
    outer loop
      vertex 0 6.304 1.2
      vertex 0.31 6.304 2.4
      vertex 0.31 6.304 1.2
    endloop
  endfacet
  facet normal 0 0 -1
    outer loop
      vertex -0.3 6.304 2.4
      vertex -0.3 16.312 2.4
      vertex 0.31 6.304 2.4
    endloop
  endfacet
  facet normal 0 0 -1
    outer loop
      vertex 0.31 6.304 2.4
      vertex -0.3 16.312 2.4
      vertex 0.31 16.312 2.4
    endloop
  endfacet
  facet normal 0 -1 0
    outer loop
      vertex -0.3 16.312 2.4
      vertex -0.3 16.312 0
      vertex 0 16.312 0
    endloop
  endfacet
  facet normal 0 -1 0
    outer loop
      vertex 0.31 16.312 1.2
      vertex -0.3 16.312 2.4
      vertex 0 16.312 1.2
    endloop
  endfacet
  facet normal 0 -1 0
    outer loop
      vertex 0 16.312 1.2
      vertex -0.3 16.312 2.4
      vertex 0 16.312 0
    endloop
  endfacet
  facet normal 0 -1 0
    outer loop
      vertex 0.31 16.312 2.4
      vertex -0.3 16.312 2.4
      vertex 0.31 16.312 1.2
    endloop
  endfacet
  facet normal 0 1 0
    outer loop
      vertex -0.3 21.29 0
      vertex -0.3 21.29 2.4
      vertex 0 21.29 0
    endloop
  endfacet
  facet normal 0 1 0
    outer loop
      vertex 0 21.29 1.2
      vertex -0.3 21.29 2.4
      vertex 0.31 21.29 2.4
    endloop
  endfacet
  facet normal 0 1 0
    outer loop
      vertex 0 21.29 0
      vertex -0.3 21.29 2.4
      vertex 0 21.29 1.2
    endloop
  endfacet
  facet normal 0 1 0
    outer loop
      vertex 0 21.29 1.2
      vertex 0.31 21.29 2.4
      vertex 0.31 21.29 1.2
    endloop
  endfacet
  facet normal 0 0 -1
    outer loop
      vertex -0.3 21.29 2.4
      vertex -0.3 31.298 2.4
      vertex 0.31 21.29 2.4
    endloop
  endfacet
  facet normal 0 0 -1
    outer loop
      vertex 0.31 21.29 2.4
      vertex -0.3 31.298 2.4
      vertex 0.31 31.298 2.4
    endloop
  endfacet
  facet normal 0 -1 0
    outer loop
      vertex -0.3 31.298 2.4
      vertex -0.3 31.298 0
      vertex 0 31.298 0
    endloop
  endfacet
  facet normal 0 -1 0
    outer loop
      vertex 0.31 31.298 1.2
      vertex -0.3 31.298 2.4
      vertex 0 31.298 1.2
    endloop
  endfacet
  facet normal 0 -1 0
    outer loop
      vertex 0 31.298 1.2
      vertex -0.3 31.298 2.4
      vertex 0 31.298 0
    endloop
  endfacet
  facet normal 0 -1 0
    outer loop
      vertex 0.31 31.298 2.4
      vertex -0.3 31.298 2.4
      vertex 0.31 31.298 1.2
    endloop
  endfacet
  facet normal -0.948683 0.316228 0
    outer loop
      vertex -0.3 32.695 0
      vertex -0.3 32.695 3
      vertex -0.224 32.923 0
    endloop
  endfacet
  facet normal -0.948683 0.316228 0
    outer loop
      vertex -0.224 32.923 0
      vertex -0.3 32.695 3
      vertex -0.224 32.923 3
    endloop
  endfacet
  facet normal 0 0 1
    outer loop
      vertex -0.3 32.695 3
      vertex -0.3 31.298 3
      vertex 0.31 31.298 3
    endloop
  endfacet
  facet normal 0 0 1
    outer loop
      vertex 0.716 32.999 3
      vertex -0.3 32.695 3
      vertex 0.31 32.568 3
    endloop
  endfacet
  facet normal 0 0 1
    outer loop
      vertex 0.31 32.568 3
      vertex -0.3 32.695 3
      vertex 0.31 31.298 3
    endloop
  endfacet
  facet normal 0 0 1
    outer loop
      vertex 2.646 33.609 3
      vertex -0.3 32.695 3
      vertex 0.716 32.999 3
    endloop
  endfacet
  facet normal 0 0 1
    outer loop
      vertex 2.646 33.609 3
      vertex 0.716 32.999 3
      vertex 2.646 32.999 3
    endloop
  endfacet
  facet normal 0 0 1
    outer loop
      vertex 0.589 33.609 3
      vertex -0.3 32.695 3
      vertex 2.646 33.609 3
    endloop
  endfacet
  facet normal 0 0 1
    outer loop
      vertex 0.386 33.507 3
      vertex -0.3 32.695 3
      vertex 0.589 33.609 3
    endloop
  endfacet
  facet normal 0 0 1
    outer loop
      vertex -0.224 32.923 3
      vertex -0.3 32.695 3
      vertex 0.386 33.507 3
    endloop
  endfacet
  facet normal 0 0 1
    outer loop
      vertex -0.3 31.298 3
      vertex -0.3 21.29 3
      vertex 0.31 21.29 3
    endloop
  endfacet
  facet normal 0 0 1
    outer loop
      vertex 0.31 31.298 3
      vertex -0.3 31.298 3
      vertex 0.31 21.29 3
    endloop
  endfacet
  facet normal 0 0 1
    outer loop
      vertex -0.3 21.29 3
      vertex -0.3 16.312 3
      vertex 0.31 16.312 3
    endloop
  endfacet
  facet normal 0 0 1
    outer loop
      vertex 0.31 21.29 3
      vertex -0.3 21.29 3
      vertex 0.31 16.312 3
    endloop
  endfacet
  facet normal 0 0 1
    outer loop
      vertex -0.3 16.312 3
      vertex -0.3 6.304 3
      vertex 0.31 6.304 3
    endloop
  endfacet
  facet normal 0 0 1
    outer loop
      vertex 0.31 16.312 3
      vertex -0.3 16.312 3
      vertex 0.31 6.304 3
    endloop
  endfacet
  facet normal 0 0 1
    outer loop
      vertex -0.3 6.304 3
      vertex -0.3 1.3 3
      vertex 0.31 1.3 3
    endloop
  endfacet
  facet normal 0 0 1
    outer loop
      vertex 0.31 6.304 3
      vertex -0.3 6.304 3
      vertex 0.31 1.3 3
    endloop
  endfacet
  facet normal 0 0 1
    outer loop
      vertex 9.047 0.31 3
      vertex 9.047 -0.3 3
      vertex 14.051 -0.3 3
    endloop
  endfacet
  facet normal 0 0 1
    outer loop
      vertex 14.051 0.31 3
      vertex 9.047 0.31 3
      vertex 14.051 -0.3 3
    endloop
  endfacet
  facet normal 0 0 1
    outer loop
      vertex 14.051 0.31 3
      vertex 14.051 -0.3 3
      vertex 24.059 -0.3 3
    endloop
  endfacet
  facet normal 0 0 1
    outer loop
      vertex 24.059 0.31 3
      vertex 14.051 0.31 3
      vertex 24.059 -0.3 3
    endloop
  endfacet
  facet normal 0 0 1
    outer loop
      vertex 24.059 0.31 3
      vertex 24.059 -0.3 3
      vertex 29.037 -0.3 3
    endloop
  endfacet
  facet normal 0 0 1
    outer loop
      vertex 29.037 0.31 3
      vertex 24.059 0.31 3
      vertex 29.037 -0.3 3
    endloop
  endfacet
  facet normal 0 0 1
    outer loop
      vertex 29.037 0.31 3
      vertex 29.037 -0.3 3
      vertex 32.695 -0.3 3
    endloop
  endfacet
  facet normal 0 0 1
    outer loop
      vertex 32.568 0.31 3
      vertex 29.037 0.31 3
      vertex 32.923 -0.224 3
    endloop
  endfacet
  facet normal 0 0 1
    outer loop
      vertex 32.923 -0.224 3
      vertex 29.037 0.31 3
      vertex 32.695 -0.3 3
    endloop
  endfacet
  facet normal 0 0 1
    outer loop
      vertex 32.999 0.716 3
      vertex 33.507 0.386 3
      vertex 33.609 0.589 3
    endloop
  endfacet
  facet normal 0 0 1
    outer loop
      vertex 33.609 6.101 3
      vertex 32.999 0.716 3
      vertex 33.609 0.589 3
    endloop
  endfacet
  facet normal 0 0 1
    outer loop
      vertex 33.507 0.386 3
      vertex 32.568 0.31 3
      vertex 32.923 -0.224 3
    endloop
  endfacet
  facet normal 0 0 1
    outer loop
      vertex 32.999 6.101 3
      vertex 32.999 0.716 3
      vertex 33.609 6.101 3
    endloop
  endfacet
  facet normal 0 0 1
    outer loop
      vertex 32.999 0.716 3
      vertex 32.568 0.31 3
      vertex 33.507 0.386 3
    endloop
  endfacet
  facet normal 0.316228 -0.948683 0
    outer loop
      vertex 32.695 -0.3 3
      vertex 32.695 -0.3 2.4
      vertex 32.923 -0.224 2.4
    endloop
  endfacet
  facet normal 0.316228 -0.948683 0
    outer loop
      vertex 32.923 -0.224 3
      vertex 32.695 -0.3 3
      vertex 32.923 -0.224 2.4
    endloop
  endfacet
  facet normal 0 0 -1
    outer loop
      vertex 29.037 -0.3 2.4
      vertex 29.037 0.31 2.4
      vertex 32.695 -0.3 2.4
    endloop
  endfacet
  facet normal 0 0 -1
    outer loop
      vertex 32.695 -0.3 2.4
      vertex 29.037 0.31 2.4
      vertex 32.568 0.31 2.4
    endloop
  endfacet
  facet normal 0 0 -1
    outer loop
      vertex 32.695 -0.3 2.4
      vertex 32.568 0.31 2.4
      vertex 32.999 0.716 2.4
    endloop
  endfacet
  facet normal 0 0 -1
    outer loop
      vertex 32.999 0.716 2.4
      vertex 32.999 6.101 2.4
      vertex 33.609 6.101 2.4
    endloop
  endfacet
  facet normal 0 0 -1
    outer loop
      vertex 32.999 0.716 2.4
      vertex 33.609 6.101 2.4
      vertex 33.609 0.589 2.4
    endloop
  endfacet
  facet normal 0 0 -1
    outer loop
      vertex 32.999 0.716 2.4
      vertex 33.609 0.589 2.4
      vertex 32.695 -0.3 2.4
    endloop
  endfacet
  facet normal 0 0 -1
    outer loop
      vertex 32.695 -0.3 2.4
      vertex 33.609 0.589 2.4
      vertex 33.507 0.386 2.4
    endloop
  endfacet
  facet normal 0 0 -1
    outer loop
      vertex 32.695 -0.3 2.4
      vertex 33.507 0.386 2.4
      vertex 32.923 -0.224 2.4
    endloop
  endfacet
  facet normal 1 0 0
    outer loop
      vertex 29.037 -0.3 2.4
      vertex 29.037 -0.3 0
      vertex 29.037 0 0
    endloop
  endfacet
  facet normal 1 0 0
    outer loop
      vertex 29.037 0.31 1.2
      vertex 29.037 -0.3 2.4
      vertex 29.037 0 1.2
    endloop
  endfacet
  facet normal 1 0 0
    outer loop
      vertex 29.037 0 1.2
      vertex 29.037 -0.3 2.4
      vertex 29.037 0 0
    endloop
  endfacet
  facet normal 1 0 0
    outer loop
      vertex 29.037 0.31 2.4
      vertex 29.037 -0.3 2.4
      vertex 29.037 0.31 1.2
    endloop
  endfacet
  facet normal -1 0 0
    outer loop
      vertex 24.059 -0.3 0
      vertex 24.059 -0.3 2.4
      vertex 24.059 0 0
    endloop
  endfacet
  facet normal -1 0 0
    outer loop
      vertex 24.059 0 1.2
      vertex 24.059 -0.3 2.4
      vertex 24.059 0.31 2.4
    endloop
  endfacet
  facet normal -1 0 0
    outer loop
      vertex 24.059 0 0
      vertex 24.059 -0.3 2.4
      vertex 24.059 0 1.2
    endloop
  endfacet
  facet normal -1 0 0
    outer loop
      vertex 24.059 0 1.2
      vertex 24.059 0.31 2.4
      vertex 24.059 0.31 1.2
    endloop
  endfacet
  facet normal 0 0 -1
    outer loop
      vertex 14.051 -0.3 2.4
      vertex 14.051 0.31 2.4
      vertex 24.059 -0.3 2.4
    endloop
  endfacet
  facet normal 0 0 -1
    outer loop
      vertex 24.059 -0.3 2.4
      vertex 14.051 0.31 2.4
      vertex 24.059 0.31 2.4
    endloop
  endfacet
  facet normal 1 0 0
    outer loop
      vertex 14.051 -0.3 2.4
      vertex 14.051 -0.3 0
      vertex 14.051 0 0
    endloop
  endfacet
  facet normal 1 0 0
    outer loop
      vertex 14.051 0.31 1.2
      vertex 14.051 -0.3 2.4
      vertex 14.051 0 1.2
    endloop
  endfacet
  facet normal 1 0 0
    outer loop
      vertex 14.051 0 1.2
      vertex 14.051 -0.3 2.4
      vertex 14.051 0 0
    endloop
  endfacet
  facet normal 1 0 0
    outer loop
      vertex 14.051 0.31 2.4
      vertex 14.051 -0.3 2.4
      vertex 14.051 0.31 1.2
    endloop
  endfacet
  facet normal 0 -1 0
    outer loop
      vertex 0.61 0 1.2
      vertex 0.61 0 0
      vertex 9.047 0 0
    endloop
  endfacet
  facet normal 0 -1 0
    outer loop
      vertex 9.047 0 1.2
      vertex 0.61 0 1.2
      vertex 9.047 0 0
    endloop
  endfacet
  facet normal 0 0 1
    outer loop
      vertex 0 1.3 1.2
      vertex 0 0.61 1.2
      vertex 0.61 0 1.2
    endloop
  endfacet
  facet normal 0 0 1
    outer loop
      vertex 9.047 0.31 1.2
      vertex 0 1.3 1.2
      vertex 9.047 0 1.2
    endloop
  endfacet
  facet normal 0 0 1
    outer loop
      vertex 9.047 0 1.2
      vertex 0 1.3 1.2
      vertex 0.61 0 1.2
    endloop
  endfacet
  facet normal 0 0 1
    outer loop
      vertex 14.051 0.31 1.2
      vertex 0 1.3 1.2
      vertex 9.047 0.31 1.2
    endloop
  endfacet
  facet normal 0 0 1
    outer loop
      vertex 24.059 0 1.2
      vertex 0 1.3 1.2
      vertex 14.051 0.31 1.2
    endloop
  endfacet
  facet normal 0 0 1
    outer loop
      vertex 24.059 0 1.2
      vertex 14.051 0.31 1.2
      vertex 14.051 0 1.2
    endloop
  endfacet
  facet normal 0 0 1
    outer loop
      vertex 24.059 0.31 1.2
      vertex 0 1.3 1.2
      vertex 24.059 0 1.2
    endloop
  endfacet
  facet normal 0 0 1
    outer loop
      vertex 29.037 0.31 1.2
      vertex 0 1.3 1.2
      vertex 24.059 0.31 1.2
    endloop
  endfacet
  facet normal 0 0 1
    outer loop
      vertex 33.299 0.61 1.2
      vertex 0 1.3 1.2
      vertex 29.037 0.31 1.2
    endloop
  endfacet
  facet normal 0 0 1
    outer loop
      vertex 32.69 0 1.2
      vertex 29.037 0.31 1.2
      vertex 29.037 0 1.2
    endloop
  endfacet
  facet normal 0 0 1
    outer loop
      vertex 33.299 0.61 1.2
      vertex 29.037 0.31 1.2
      vertex 32.69 0 1.2
    endloop
  endfacet
  facet normal 0 0 1
    outer loop
      vertex 0.31 1.3 1.2
      vertex 0 1.3 1.2
      vertex 33.299 0.61 1.2
    endloop
  endfacet
  facet normal 0 0 1
    outer loop
      vertex 8.712 30.81 1.2
      vertex 9.373 30.658 1.2
      vertex 14.757 33.096 1.2
    endloop
  endfacet
  facet normal 0 0 1
    outer loop
      vertex 33.299 21.112 1.2
      vertex 32.999 11.105 1.2
      vertex 33.299 11.105 1.2
    endloop
  endfacet
  facet normal 0 0 1
    outer loop
      vertex 33.096 32.441 1.2
      vertex 32.999 25.76 1.2
      vertex 33.096 25.76 1.2
    endloop
  endfacet
  facet normal 0 0 1
    outer loop
      vertex 0.31 6.304 1.2
      vertex 29.697 33.299 1.2
      vertex 19.69 32.999 1.2
    endloop
  endfacet
  facet normal 0 0 1
    outer loop
      vertex 19.69 33.299 1.2
      vertex 19.69 32.999 1.2
      vertex 29.697 33.299 1.2
    endloop
  endfacet
  facet normal 0 0 1
    outer loop
      vertex 14.757 33.299 1.2
      vertex 14.757 33.096 1.2
      vertex 14.762 33.299 1.2
    endloop
  endfacet
  facet normal 0 0 1
    outer loop
      vertex 0.31 6.304 1.2
      vertex 19.69 32.999 1.2
      vertex 14.762 32.999 1.2
    endloop
  endfacet
  facet normal 0 0 1
    outer loop
      vertex 14.762 33.299 1.2
      vertex 14.757 33.096 1.2
      vertex 14.762 32.999 1.2
    endloop
  endfacet
  facet normal 0 0 1
    outer loop
      vertex 0.31 6.304 1.2
      vertex 7.493 27.889 1.2
      vertex 7.137 28.448 1.2
    endloop
  endfacet
  facet normal 0 0 1
    outer loop
      vertex 0.31 16.312 1.2
      vertex 0 16.312 1.2
      vertex 0 6.304 1.2
    endloop
  endfacet
  facet normal 0 0 1
    outer loop
      vertex 0.31 6.304 1.2
      vertex 7.137 28.448 1.2
      vertex 2.646 32.999 1.2
    endloop
  endfacet
  facet normal 0 0 1
    outer loop
      vertex 0 21.29 1.2
      vertex 0.31 21.29 1.2
      vertex 0.31 31.298 1.2
    endloop
  endfacet
  facet normal 0 0 1
    outer loop
      vertex 0.31 32.568 1.2
      vertex 0.31 31.298 1.2
      vertex 0.716 32.999 1.2
    endloop
  endfacet
  facet normal 0 0 1
    outer loop
      vertex 0.31 6.304 1.2
      vertex 8.712 27.407 1.2
      vertex 8.026 27.534 1.2
    endloop
  endfacet
  facet normal 0 0 1
    outer loop
      vertex 0.31 16.312 1.2
      vertex 0.31 6.304 1.2
      vertex 0.716 32.999 1.2
    endloop
  endfacet
  facet normal 0 0 1
    outer loop
      vertex 0.31 31.298 1.2
      vertex 0.31 21.29 1.2
      vertex 0.716 32.999 1.2
    endloop
  endfacet
  facet normal 0 0 1
    outer loop
      vertex 0.31 21.29 1.2
      vertex 0.31 16.312 1.2
      vertex 0.716 32.999 1.2
    endloop
  endfacet
  facet normal 0 0 1
    outer loop
      vertex 0 6.304 1.2
      vertex 0.31 6.304 1.2
      vertex 0.31 16.312 1.2
    endloop
  endfacet
  facet normal 0 0 1
    outer loop
      vertex 33.299 6.101 1.2
      vertex 0.31 1.3 1.2
      vertex 33.299 0.61 1.2
    endloop
  endfacet
  facet normal 0 0 1
    outer loop
      vertex 2.646 32.999 1.2
      vertex 7.137 28.448 1.2
      vertex 7.01 29.108 1.2
    endloop
  endfacet
  facet normal 0 0 1
    outer loop
      vertex 0.31 31.298 1.2
      vertex 0 31.298 1.2
      vertex 0 21.29 1.2
    endloop
  endfacet
  facet normal 0 0 1
    outer loop
      vertex 2.646 32.999 1.2
      vertex 7.01 29.108 1.2
      vertex 7.137 29.769 1.2
    endloop
  endfacet
  facet normal 0 0 1
    outer loop
      vertex 0.31 6.304 1.2
      vertex 8.026 27.534 1.2
      vertex 7.493 27.889 1.2
    endloop
  endfacet
  facet normal 0 0 1
    outer loop
      vertex 2.646 32.999 1.2
      vertex 7.137 29.769 1.2
      vertex 7.493 30.302 1.2
    endloop
  endfacet
  facet normal 0 0 1
    outer loop
      vertex 2.646 32.999 1.2
      vertex 7.493 30.302 1.2
      vertex 8.026 30.658 1.2
    endloop
  endfacet
  facet normal 0 0 1
    outer loop
      vertex 2.646 32.999 1.2
      vertex 0.716 32.999 1.2
      vertex 0.31 6.304 1.2
    endloop
  endfacet
  facet normal 0 0 1
    outer loop
      vertex 0.31 6.304 1.2
      vertex 9.373 27.534 1.2
      vertex 8.712 27.407 1.2
    endloop
  endfacet
  facet normal 0 0 1
    outer loop
      vertex 0.31 6.304 1.2
      vertex 9.906 27.889 1.2
      vertex 9.373 27.534 1.2
    endloop
  endfacet
  facet normal 0 0 1
    outer loop
      vertex 0.31 6.304 1.2
      vertex 10.262 28.448 1.2
      vertex 9.906 27.889 1.2
    endloop
  endfacet
  facet normal 0 0 1
    outer loop
      vertex 0.31 6.304 1.2
      vertex 14.757 33.096 1.2
      vertex 10.262 28.448 1.2
    endloop
  endfacet
  facet normal 0 0 1
    outer loop
      vertex 0.31 6.304 1.2
      vertex 14.762 32.999 1.2
      vertex 14.757 33.096 1.2
    endloop
  endfacet
  facet normal 0 0 1
    outer loop
      vertex 30.302 30.302 1.2
      vertex 33.096 32.441 1.2
      vertex 32.796 32.441 1.2
    endloop
  endfacet
  facet normal 0 0 1
    outer loop
      vertex 28.448 30.658 1.2
      vertex 29.108 30.81 1.2
      vertex 29.697 32.999 1.2
    endloop
  endfacet
  facet normal 0 0 1
    outer loop
      vertex 30.302 30.302 1.2
      vertex 30.658 29.769 1.2
      vertex 33.096 32.441 1.2
    endloop
  endfacet
  facet normal 0 0 1
    outer loop
      vertex 29.769 30.658 1.2
      vertex 30.302 30.302 1.2
      vertex 32.517 32.999 1.2
    endloop
  endfacet
  facet normal 0 0 1
    outer loop
      vertex 29.697 32.999 1.2
      vertex 29.108 30.81 1.2
      vertex 32.517 32.999 1.2
    endloop
  endfacet
  facet normal 0 0 1
    outer loop
      vertex 29.108 30.81 1.2
      vertex 29.769 30.658 1.2
      vertex 32.517 32.999 1.2
    endloop
  endfacet
  facet normal 0 0 1
    outer loop
      vertex 32.517 32.999 1.2
      vertex 30.302 30.302 1.2
      vertex 32.796 32.441 1.2
    endloop
  endfacet
  facet normal 0 0 1
    outer loop
      vertex 33.096 32.441 1.2
      vertex 30.658 29.769 1.2
      vertex 32.999 25.76 1.2
    endloop
  endfacet
  facet normal 0 0 1
    outer loop
      vertex 30.658 29.769 1.2
      vertex 30.81 29.108 1.2
      vertex 32.999 25.76 1.2
    endloop
  endfacet
  facet normal 0 0 1
    outer loop
      vertex 30.81 29.108 1.2
      vertex 30.658 28.448 1.2
      vertex 32.999 25.76 1.2
    endloop
  endfacet
  facet normal 0 0 1
    outer loop
      vertex 30.658 28.448 1.2
      vertex 30.302 27.889 1.2
      vertex 32.999 25.76 1.2
    endloop
  endfacet
  facet normal 0 0 1
    outer loop
      vertex 14.757 33.096 1.2
      vertex 10.389 29.108 1.2
      vertex 10.262 28.448 1.2
    endloop
  endfacet
  facet normal 0 0 1
    outer loop
      vertex 14.757 33.096 1.2
      vertex 10.262 29.769 1.2
      vertex 10.389 29.108 1.2
    endloop
  endfacet
  facet normal 0 0 1
    outer loop
      vertex 27.889 27.889 1.2
      vertex 27.534 28.448 1.2
      vertex 0.31 6.304 1.2
    endloop
  endfacet
  facet normal 0 0 1
    outer loop
      vertex 9.906 30.302 1.2
      vertex 10.262 29.769 1.2
      vertex 14.757 33.096 1.2
    endloop
  endfacet
  facet normal 0 0 1
    outer loop
      vertex 9.373 30.658 1.2
      vertex 9.906 30.302 1.2
      vertex 14.757 33.096 1.2
    endloop
  endfacet
  facet normal 0 0 1
    outer loop
      vertex 27.889 30.302 1.2
      vertex 28.448 30.658 1.2
      vertex 29.697 32.999 1.2
    endloop
  endfacet
  facet normal 0 0 1
    outer loop
      vertex 14.757 33.096 1.2
      vertex 8.026 30.658 1.2
      vertex 8.712 30.81 1.2
    endloop
  endfacet
  facet normal 0 0 1
    outer loop
      vertex 14.757 33.096 1.2
      vertex 2.646 32.999 1.2
      vertex 8.026 30.658 1.2
    endloop
  endfacet
  facet normal 0 0 1
    outer loop
      vertex 14.757 33.096 1.2
      vertex 2.646 33.096 1.2
      vertex 2.646 32.999 1.2
    endloop
  endfacet
  facet normal 0 0 1
    outer loop
      vertex 0.31 6.304 1.2
      vertex 29.697 32.999 1.2
      vertex 29.697 33.299 1.2
    endloop
  endfacet
  facet normal 0 0 1
    outer loop
      vertex 0.31 6.304 1.2
      vertex 27.889 30.302 1.2
      vertex 29.697 32.999 1.2
    endloop
  endfacet
  facet normal 0 0 1
    outer loop
      vertex 0.31 6.304 1.2
      vertex 27.534 29.769 1.2
      vertex 27.889 30.302 1.2
    endloop
  endfacet
  facet normal 0 0 1
    outer loop
      vertex 0.31 6.304 1.2
      vertex 27.407 29.108 1.2
      vertex 27.534 29.769 1.2
    endloop
  endfacet
  facet normal 0 0 1
    outer loop
      vertex 0.31 6.304 1.2
      vertex 27.534 28.448 1.2
      vertex 27.407 29.108 1.2
    endloop
  endfacet
  facet normal 0 0 1
    outer loop
      vertex 29.769 27.534 1.2
      vertex 29.108 27.407 1.2
      vertex 0.31 6.304 1.2
    endloop
  endfacet
  facet normal 0 0 1
    outer loop
      vertex 28.448 27.534 1.2
      vertex 27.889 27.889 1.2
      vertex 0.31 6.304 1.2
    endloop
  endfacet
  facet normal 0 0 1
    outer loop
      vertex 29.108 27.407 1.2
      vertex 28.448 27.534 1.2
      vertex 0.31 6.304 1.2
    endloop
  endfacet
  facet normal 0 0 1
    outer loop
      vertex 0.31 6.304 1.2
      vertex 30.302 27.889 1.2
      vertex 29.769 27.534 1.2
    endloop
  endfacet
  facet normal 0 0 1
    outer loop
      vertex 0.31 6.304 1.2
      vertex 32.999 25.76 1.2
      vertex 30.302 27.889 1.2
    endloop
  endfacet
  facet normal 0 0 1
    outer loop
      vertex 0.31 6.304 1.2
      vertex 32.999 21.112 1.2
      vertex 32.999 25.76 1.2
    endloop
  endfacet
  facet normal 0 0 1
    outer loop
      vertex 0.31 6.304 1.2
      vertex 33.299 21.112 1.2
      vertex 32.999 21.112 1.2
    endloop
  endfacet
  facet normal 0 0 1
    outer loop
      vertex 0.31 6.304 1.2
      vertex 32.999 11.105 1.2
      vertex 33.299 21.112 1.2
    endloop
  endfacet
  facet normal 0 0 1
    outer loop
      vertex 0.31 6.304 1.2
      vertex 32.999 6.101 1.2
      vertex 32.999 11.105 1.2
    endloop
  endfacet
  facet normal 0 0 1
    outer loop
      vertex 32.999 6.101 1.2
      vertex 0.31 1.3 1.2
      vertex 33.299 6.101 1.2
    endloop
  endfacet
  facet normal 0 0 1
    outer loop
      vertex 0.31 6.304 1.2
      vertex 0.31 1.3 1.2
      vertex 32.999 6.101 1.2
    endloop
  endfacet
  facet normal -0.685681 0.727902 0
    outer loop
      vertex 32.568 0.31 2.4
      vertex 32.568 0.31 3
      vertex 32.999 0.716 2.4
    endloop
  endfacet
  facet normal -0.685681 0.727902 0
    outer loop
      vertex 32.999 0.716 2.4
      vertex 32.568 0.31 3
      vertex 32.999 0.716 3
    endloop
  endfacet
  facet normal 0.727902 -0.685681 0
    outer loop
      vertex 0.31 32.568 3
      vertex 0.31 32.568 1.2
      vertex 0.716 32.999 1.2
    endloop
  endfacet
  facet normal 0.727902 -0.685681 0
    outer loop
      vertex 0.716 32.999 3
      vertex 0.31 32.568 3
      vertex 0.716 32.999 1.2
    endloop
  endfacet
  facet normal -1 0 0
    outer loop
      vertex 0 0.61 0
      vertex 0 0.61 1.2
      vertex 0 1.3 0
    endloop
  endfacet
  facet normal -1 0 0
    outer loop
      vertex 0 1.3 0
      vertex 0 0.61 1.2
      vertex 0 1.3 1.2
    endloop
  endfacet
  facet normal -0.707107 -0.707107 0
    outer loop
      vertex 0 0.61 1.2
      vertex 0 0.61 0
      vertex 0.61 0 0
    endloop
  endfacet
  facet normal -0.707107 -0.707107 0
    outer loop
      vertex 0.61 0 1.2
      vertex 0 0.61 1.2
      vertex 0.61 0 0
    endloop
  endfacet
  facet normal 0 -1 0
    outer loop
      vertex 14.051 0 1.2
      vertex 14.051 0 0
      vertex 24.059 0 0
    endloop
  endfacet
  facet normal 0 -1 0
    outer loop
      vertex 24.059 0 1.2
      vertex 14.051 0 1.2
      vertex 24.059 0 0
    endloop
  endfacet
  facet normal 0 -1 0
    outer loop
      vertex 29.037 0 1.2
      vertex 29.037 0 0
      vertex 32.69 0 0
    endloop
  endfacet
  facet normal 0 -1 0
    outer loop
      vertex 32.69 0 1.2
      vertex 29.037 0 1.2
      vertex 32.69 0 0
    endloop
  endfacet
  facet normal 0.707687 -0.706526 0
    outer loop
      vertex 32.69 0 1.2
      vertex 32.69 0 0
      vertex 33.299 0.61 0
    endloop
  endfacet
  facet normal 0.707687 -0.706526 0
    outer loop
      vertex 33.299 0.61 1.2
      vertex 32.69 0 1.2
      vertex 33.299 0.61 0
    endloop
  endfacet
  facet normal 1 0 0
    outer loop
      vertex 33.299 0.61 1.2
      vertex 33.299 0.61 0
      vertex 33.299 6.101 0
    endloop
  endfacet
  facet normal 1 0 0
    outer loop
      vertex 33.299 6.101 1.2
      vertex 33.299 0.61 1.2
      vertex 33.299 6.101 0
    endloop
  endfacet
  facet normal 0 -1 0
    outer loop
      vertex 32.999 6.101 2.4
      vertex 32.999 6.101 1.2
      vertex 33.299 6.101 1.2
    endloop
  endfacet
  facet normal 0 -1 0
    outer loop
      vertex 33.609 6.101 0
      vertex 32.999 6.101 2.4
      vertex 33.299 6.101 1.2
    endloop
  endfacet
  facet normal 0 -1 0
    outer loop
      vertex 33.299 6.101 0
      vertex 33.609 6.101 0
      vertex 33.299 6.101 1.2
    endloop
  endfacet
  facet normal 0 -1 0
    outer loop
      vertex 33.609 6.101 0
      vertex 33.609 6.101 2.4
      vertex 32.999 6.101 2.4
    endloop
  endfacet
  facet normal 1 0 0
    outer loop
      vertex 33.609 0.589 3
      vertex 33.609 0.589 2.4
      vertex 33.609 6.101 2.4
    endloop
  endfacet
  facet normal 1 0 0
    outer loop
      vertex 33.609 11.105 2.4
      vertex 33.609 0.589 3
      vertex 33.609 6.101 2.4
    endloop
  endfacet
  facet normal 1 0 0
    outer loop
      vertex 33.609 6.101 0
      vertex 33.609 11.105 0
      vertex 33.609 6.101 2.4
    endloop
  endfacet
  facet normal 1 0 0
    outer loop
      vertex 33.609 11.105 0
      vertex 33.609 11.105 2.4
      vertex 33.609 6.101 2.4
    endloop
  endfacet
  facet normal 1 0 0
    outer loop
      vertex 33.609 11.105 2.4
      vertex 33.609 21.112 2.4
      vertex 33.609 0.589 3
    endloop
  endfacet
  facet normal 1 0 0
    outer loop
      vertex 33.609 21.112 0
      vertex 33.609 25.76 0
      vertex 33.609 21.112 2.4
    endloop
  endfacet
  facet normal 1 0 0
    outer loop
      vertex 33.609 25.76 0
      vertex 33.609 25.76 3
      vertex 33.609 21.112 2.4
    endloop
  endfacet
  facet normal 1 0 0
    outer loop
      vertex 33.609 21.112 2.4
      vertex 33.609 21.112 3
      vertex 33.609 11.105 3
    endloop
  endfacet
  facet normal 1 0 0
    outer loop
      vertex 33.609 21.112 2.4
      vertex 33.609 25.76 3
      vertex 33.609 21.112 3
    endloop
  endfacet
  facet normal 1 0 0
    outer loop
      vertex 33.609 21.112 2.4
      vertex 33.609 11.105 3
      vertex 33.609 6.101 3
    endloop
  endfacet
  facet normal 1 0 0
    outer loop
      vertex 33.609 21.112 2.4
      vertex 33.609 6.101 3
      vertex 33.609 0.589 3
    endloop
  endfacet
  facet normal 0 1 0
    outer loop
      vertex 32.999 11.105 1.2
      vertex 32.999 11.105 2.4
      vertex 33.299 11.105 1.2
    endloop
  endfacet
  facet normal 0 1 0
    outer loop
      vertex 33.299 11.105 1.2
      vertex 32.999 11.105 2.4
      vertex 33.609 11.105 2.4
    endloop
  endfacet
  facet normal 0 1 0
    outer loop
      vertex 33.299 11.105 1.2
      vertex 33.609 11.105 2.4
      vertex 33.609 11.105 0
    endloop
  endfacet
  facet normal 0 1 0
    outer loop
      vertex 33.299 11.105 1.2
      vertex 33.609 11.105 0
      vertex 33.299 11.105 0
    endloop
  endfacet
  facet normal 1 0 0
    outer loop
      vertex 33.299 11.105 1.2
      vertex 33.299 11.105 0
      vertex 33.299 21.112 0
    endloop
  endfacet
  facet normal 1 0 0
    outer loop
      vertex 33.299 21.112 1.2
      vertex 33.299 11.105 1.2
      vertex 33.299 21.112 0
    endloop
  endfacet
  facet normal 0 -1 0
    outer loop
      vertex 32.999 21.112 2.4
      vertex 32.999 21.112 1.2
      vertex 33.299 21.112 1.2
    endloop
  endfacet
  facet normal 0 -1 0
    outer loop
      vertex 33.609 21.112 0
      vertex 32.999 21.112 2.4
      vertex 33.299 21.112 1.2
    endloop
  endfacet
  facet normal 0 -1 0
    outer loop
      vertex 33.299 21.112 0
      vertex 33.609 21.112 0
      vertex 33.299 21.112 1.2
    endloop
  endfacet
  facet normal 0 -1 0
    outer loop
      vertex 33.609 21.112 0
      vertex 33.609 21.112 2.4
      vertex 32.999 21.112 2.4
    endloop
  endfacet
  facet normal 0 1 0
    outer loop
      vertex 32.999 25.76 1.2
      vertex 32.999 25.76 3
      vertex 33.096 25.76 1.2
    endloop
  endfacet
  facet normal 0 1 0
    outer loop
      vertex 33.096 25.76 1.2
      vertex 32.999 25.76 3
      vertex 33.609 25.76 3
    endloop
  endfacet
  facet normal 0 1 0
    outer loop
      vertex 33.096 25.76 1.2
      vertex 33.609 25.76 3
      vertex 33.609 25.76 0
    endloop
  endfacet
  facet normal 0 1 0
    outer loop
      vertex 33.096 25.76 1.2
      vertex 33.609 25.76 0
      vertex 33.096 25.76 0
    endloop
  endfacet
  facet normal 1 0 0
    outer loop
      vertex 33.096 25.76 1.2
      vertex 33.096 25.76 0
      vertex 33.096 32.441 0
    endloop
  endfacet
  facet normal 1 0 0
    outer loop
      vertex 33.096 32.441 1.2
      vertex 33.096 25.76 1.2
      vertex 33.096 32.441 0
    endloop
  endfacet
  facet normal 0 -1 0
    outer loop
      vertex 32.796 32.441 3
      vertex 32.796 32.441 1.2
      vertex 33.096 32.441 1.2
    endloop
  endfacet
  facet normal 0 -1 0
    outer loop
      vertex 33.457 32.441 0
      vertex 32.796 32.441 3
      vertex 33.096 32.441 1.2
    endloop
  endfacet
  facet normal 0 -1 0
    outer loop
      vertex 33.096 32.441 0
      vertex 33.457 32.441 0
      vertex 33.096 32.441 1.2
    endloop
  endfacet
  facet normal 0 -1 0
    outer loop
      vertex 33.457 32.441 0
      vertex 33.457 32.441 3
      vertex 32.796 32.441 3
    endloop
  endfacet
  facet normal 0.898742 0.438477 0
    outer loop
      vertex 33.457 32.441 0
      vertex 32.974 33.431 0
      vertex 32.974 33.431 3
    endloop
  endfacet
  facet normal 0.898742 0.438477 0
    outer loop
      vertex 33.457 32.441 3
      vertex 33.457 32.441 0
      vertex 32.974 33.431 3
    endloop
  endfacet
  facet normal 0.537853 0.843039 0
    outer loop
      vertex 32.695 33.609 0
      vertex 32.695 33.609 3
      vertex 32.974 33.431 0
    endloop
  endfacet
  facet normal 0.537853 0.843039 0
    outer loop
      vertex 32.974 33.431 0
      vertex 32.695 33.609 3
      vertex 32.974 33.431 3
    endloop
  endfacet
  facet normal 0 1 0
    outer loop
      vertex 14.762 33.609 0
      vertex 14.762 33.609 3
      vertex 19.69 33.609 0
    endloop
  endfacet
  facet normal 0 1 0
    outer loop
      vertex 19.69 33.609 0
      vertex 14.762 33.609 3
      vertex 19.69 33.609 2.4
    endloop
  endfacet
  facet normal 0 1 0
    outer loop
      vertex 19.69 33.609 2.4
      vertex 29.697 33.609 3
      vertex 29.697 33.609 2.4
    endloop
  endfacet
  facet normal 0 1 0
    outer loop
      vertex 29.697 33.609 0
      vertex 32.695 33.609 3
      vertex 32.695 33.609 0
    endloop
  endfacet
  facet normal 0 1 0
    outer loop
      vertex 29.697 33.609 3
      vertex 32.695 33.609 3
      vertex 29.697 33.609 2.4
    endloop
  endfacet
  facet normal 0 1 0
    outer loop
      vertex 19.69 33.609 3
      vertex 29.697 33.609 3
      vertex 19.69 33.609 2.4
    endloop
  endfacet
  facet normal 0 1 0
    outer loop
      vertex 19.69 33.609 3
      vertex 19.69 33.609 2.4
      vertex 14.762 33.609 3
    endloop
  endfacet
  facet normal 0 1 0
    outer loop
      vertex 29.697 33.609 2.4
      vertex 32.695 33.609 3
      vertex 29.697 33.609 0
    endloop
  endfacet
  facet normal -1 0 0
    outer loop
      vertex 29.697 32.999 1.2
      vertex 29.697 32.999 2.4
      vertex 29.697 33.299 1.2
    endloop
  endfacet
  facet normal -1 0 0
    outer loop
      vertex 29.697 33.299 1.2
      vertex 29.697 32.999 2.4
      vertex 29.697 33.609 2.4
    endloop
  endfacet
  facet normal -1 0 0
    outer loop
      vertex 29.697 33.299 1.2
      vertex 29.697 33.609 2.4
      vertex 29.697 33.609 0
    endloop
  endfacet
  facet normal -1 0 0
    outer loop
      vertex 29.697 33.299 1.2
      vertex 29.697 33.609 0
      vertex 29.697 33.299 0
    endloop
  endfacet
  facet normal 0 1 0
    outer loop
      vertex 19.69 33.299 0
      vertex 19.69 33.299 1.2
      vertex 29.697 33.299 0
    endloop
  endfacet
  facet normal 0 1 0
    outer loop
      vertex 29.697 33.299 0
      vertex 19.69 33.299 1.2
      vertex 29.697 33.299 1.2
    endloop
  endfacet
  facet normal 1 0 0
    outer loop
      vertex 19.69 32.999 2.4
      vertex 19.69 32.999 1.2
      vertex 19.69 33.299 1.2
    endloop
  endfacet
  facet normal 1 0 0
    outer loop
      vertex 19.69 33.609 0
      vertex 19.69 32.999 2.4
      vertex 19.69 33.299 1.2
    endloop
  endfacet
  facet normal 1 0 0
    outer loop
      vertex 19.69 33.299 0
      vertex 19.69 33.609 0
      vertex 19.69 33.299 1.2
    endloop
  endfacet
  facet normal 1 0 0
    outer loop
      vertex 19.69 33.609 0
      vertex 19.69 33.609 2.4
      vertex 19.69 32.999 2.4
    endloop
  endfacet
  facet normal -1 0 0
    outer loop
      vertex 14.762 32.999 1.2
      vertex 14.762 32.999 3
      vertex 14.762 33.299 1.2
    endloop
  endfacet
  facet normal -1 0 0
    outer loop
      vertex 14.762 33.299 1.2
      vertex 14.762 32.999 3
      vertex 14.762 33.609 3
    endloop
  endfacet
  facet normal -1 0 0
    outer loop
      vertex 14.762 33.299 1.2
      vertex 14.762 33.609 3
      vertex 14.762 33.609 0
    endloop
  endfacet
  facet normal -1 0 0
    outer loop
      vertex 14.762 33.299 1.2
      vertex 14.762 33.609 0
      vertex 14.762 33.299 0
    endloop
  endfacet
  facet normal 0 1 0
    outer loop
      vertex 14.757 33.299 0
      vertex 14.757 33.299 1.2
      vertex 14.762 33.299 0
    endloop
  endfacet
  facet normal 0 1 0
    outer loop
      vertex 14.762 33.299 0
      vertex 14.757 33.299 1.2
      vertex 14.762 33.299 1.2
    endloop
  endfacet
  facet normal -1 0 0
    outer loop
      vertex 14.757 33.096 0
      vertex 14.757 33.096 1.2
      vertex 14.757 33.299 0
    endloop
  endfacet
  facet normal -1 0 0
    outer loop
      vertex 14.757 33.299 0
      vertex 14.757 33.096 1.2
      vertex 14.757 33.299 1.2
    endloop
  endfacet
  facet normal 0 1 0
    outer loop
      vertex 2.646 33.096 0
      vertex 2.646 33.096 1.2
      vertex 14.757 33.096 0
    endloop
  endfacet
  facet normal 0 1 0
    outer loop
      vertex 14.757 33.096 0
      vertex 2.646 33.096 1.2
      vertex 14.757 33.096 1.2
    endloop
  endfacet
  facet normal 1 0 0
    outer loop
      vertex 2.646 32.999 3
      vertex 2.646 32.999 1.2
      vertex 2.646 33.096 1.2
    endloop
  endfacet
  facet normal 1 0 0
    outer loop
      vertex 2.646 33.609 0
      vertex 2.646 32.999 3
      vertex 2.646 33.096 1.2
    endloop
  endfacet
  facet normal 1 0 0
    outer loop
      vertex 2.646 33.096 0
      vertex 2.646 33.609 0
      vertex 2.646 33.096 1.2
    endloop
  endfacet
  facet normal 1 0 0
    outer loop
      vertex 2.646 33.609 0
      vertex 2.646 33.609 3
      vertex 2.646 32.999 3
    endloop
  endfacet
  facet normal 0 1 0
    outer loop
      vertex 0.589 33.609 0
      vertex 0.589 33.609 3
      vertex 2.646 33.609 0
    endloop
  endfacet
  facet normal 0 1 0
    outer loop
      vertex 2.646 33.609 0
      vertex 0.589 33.609 3
      vertex 2.646 33.609 3
    endloop
  endfacet
  facet normal -0.448973 0.893545 0
    outer loop
      vertex 0.386 33.507 0
      vertex 0.386 33.507 3
      vertex 0.589 33.609 0
    endloop
  endfacet
  facet normal -0.448973 0.893545 0
    outer loop
      vertex 0.589 33.609 0
      vertex 0.386 33.507 3
      vertex 0.589 33.609 3
    endloop
  endfacet
  facet normal -0.691545 0.722333 0
    outer loop
      vertex -0.224 32.923 0
      vertex -0.224 32.923 3
      vertex 0.386 33.507 0
    endloop
  endfacet
  facet normal -0.691545 0.722333 0
    outer loop
      vertex 0.386 33.507 0
      vertex -0.224 32.923 3
      vertex 0.386 33.507 3
    endloop
  endfacet
  facet normal -1 0 0
    outer loop
      vertex 0 21.29 0
      vertex 0 21.29 1.2
      vertex 0 31.298 0
    endloop
  endfacet
  facet normal -1 0 0
    outer loop
      vertex 0 31.298 0
      vertex 0 21.29 1.2
      vertex 0 31.298 1.2
    endloop
  endfacet
  facet normal -1 0 0
    outer loop
      vertex 0 6.304 0
      vertex 0 6.304 1.2
      vertex 0 16.312 0
    endloop
  endfacet
  facet normal -1 0 0
    outer loop
      vertex 0 16.312 0
      vertex 0 6.304 1.2
      vertex 0 16.312 1.2
    endloop
  endfacet
  facet normal 0.981985 0.188958 0
    outer loop
      vertex 7.137 28.448 0
      vertex 7.01 29.108 0
      vertex 7.01 29.108 1.2
    endloop
  endfacet
  facet normal 0.981985 0.188958 0
    outer loop
      vertex 7.137 28.448 1.2
      vertex 7.137 28.448 0
      vertex 7.01 29.108 1.2
    endloop
  endfacet
  facet normal 0.982038 -0.188682 0
    outer loop
      vertex 7.01 29.108 1.2
      vertex 7.01 29.108 0
      vertex 7.137 29.769 0
    endloop
  endfacet
  facet normal 0.982038 -0.188682 0
    outer loop
      vertex 7.137 29.769 1.2
      vertex 7.01 29.108 1.2
      vertex 7.137 29.769 0
    endloop
  endfacet
  facet normal 0.83157 -0.55542 0
    outer loop
      vertex 7.137 29.769 1.2
      vertex 7.137 29.769 0
      vertex 7.493 30.302 0
    endloop
  endfacet
  facet normal 0.83157 -0.55542 0
    outer loop
      vertex 7.493 30.302 1.2
      vertex 7.137 29.769 1.2
      vertex 7.493 30.302 0
    endloop
  endfacet
  facet normal 0.55542 -0.83157 0
    outer loop
      vertex 7.493 30.302 1.2
      vertex 7.493 30.302 0
      vertex 8.026 30.658 0
    endloop
  endfacet
  facet normal 0.55542 -0.83157 0
    outer loop
      vertex 8.026 30.658 1.2
      vertex 7.493 30.302 1.2
      vertex 8.026 30.658 0
    endloop
  endfacet
  facet normal 0.216328 -0.976321 0
    outer loop
      vertex 8.026 30.658 1.2
      vertex 8.026 30.658 0
      vertex 8.712 30.81 0
    endloop
  endfacet
  facet normal 0.216328 -0.976321 0
    outer loop
      vertex 8.712 30.81 1.2
      vertex 8.026 30.658 1.2
      vertex 8.712 30.81 0
    endloop
  endfacet
  facet normal -0.224106 -0.974565 0
    outer loop
      vertex 8.712 30.81 1.2
      vertex 8.712 30.81 0
      vertex 9.373 30.658 0
    endloop
  endfacet
  facet normal -0.224106 -0.974565 0
    outer loop
      vertex 9.373 30.658 1.2
      vertex 8.712 30.81 1.2
      vertex 9.373 30.658 0
    endloop
  endfacet
  facet normal -0.55542 -0.83157 0
    outer loop
      vertex 9.373 30.658 1.2
      vertex 9.373 30.658 0
      vertex 9.906 30.302 0
    endloop
  endfacet
  facet normal -0.55542 -0.83157 0
    outer loop
      vertex 9.906 30.302 1.2
      vertex 9.373 30.658 1.2
      vertex 9.906 30.302 0
    endloop
  endfacet
  facet normal -0.83157 -0.55542 0
    outer loop
      vertex 9.906 30.302 0
      vertex 10.262 29.769 0
      vertex 9.906 30.302 1.2
    endloop
  endfacet
  facet normal -0.83157 -0.55542 0
    outer loop
      vertex 9.906 30.302 1.2
      vertex 10.262 29.769 0
      vertex 10.262 29.769 1.2
    endloop
  endfacet
  facet normal -0.982038 -0.188682 0
    outer loop
      vertex 10.262 29.769 0
      vertex 10.389 29.108 0
      vertex 10.262 29.769 1.2
    endloop
  endfacet
  facet normal -0.982038 -0.188682 0
    outer loop
      vertex 10.262 29.769 1.2
      vertex 10.389 29.108 0
      vertex 10.389 29.108 1.2
    endloop
  endfacet
  facet normal -0.981985 0.188958 0
    outer loop
      vertex 10.262 28.448 0
      vertex 10.262 28.448 1.2
      vertex 10.389 29.108 0
    endloop
  endfacet
  facet normal -0.981985 0.188958 0
    outer loop
      vertex 10.389 29.108 0
      vertex 10.262 28.448 1.2
      vertex 10.389 29.108 1.2
    endloop
  endfacet
  facet normal -0.843475 0.537168 0
    outer loop
      vertex 9.906 27.889 0
      vertex 9.906 27.889 1.2
      vertex 10.262 28.448 0
    endloop
  endfacet
  facet normal -0.843475 0.537168 0
    outer loop
      vertex 10.262 28.448 0
      vertex 9.906 27.889 1.2
      vertex 10.262 28.448 1.2
    endloop
  endfacet
  facet normal -0.55434 0.83229 0
    outer loop
      vertex 9.373 27.534 0
      vertex 9.373 27.534 1.2
      vertex 9.906 27.889 0
    endloop
  endfacet
  facet normal -0.55434 0.83229 0
    outer loop
      vertex 9.906 27.889 0
      vertex 9.373 27.534 1.2
      vertex 9.906 27.889 1.2
    endloop
  endfacet
  facet normal -0.188682 0.982038 0
    outer loop
      vertex 8.712 27.407 0
      vertex 8.712 27.407 1.2
      vertex 9.373 27.534 0
    endloop
  endfacet
  facet normal -0.188682 0.982038 0
    outer loop
      vertex 9.373 27.534 0
      vertex 8.712 27.407 1.2
      vertex 9.373 27.534 1.2
    endloop
  endfacet
  facet normal 0.182038 0.983292 0
    outer loop
      vertex 8.026 27.534 0
      vertex 8.026 27.534 1.2
      vertex 8.712 27.407 0
    endloop
  endfacet
  facet normal 0.182038 0.983292 0
    outer loop
      vertex 8.712 27.407 0
      vertex 8.026 27.534 1.2
      vertex 8.712 27.407 1.2
    endloop
  endfacet
  facet normal 0.55434 0.83229 0
    outer loop
      vertex 7.493 27.889 0
      vertex 7.493 27.889 1.2
      vertex 8.026 27.534 0
    endloop
  endfacet
  facet normal 0.55434 0.83229 0
    outer loop
      vertex 8.026 27.534 0
      vertex 7.493 27.889 1.2
      vertex 8.026 27.534 1.2
    endloop
  endfacet
  facet normal 0.843475 0.537168 0
    outer loop
      vertex 7.493 27.889 0
      vertex 7.137 28.448 0
      vertex 7.137 28.448 1.2
    endloop
  endfacet
  facet normal 0.843475 0.537168 0
    outer loop
      vertex 7.493 27.889 1.2
      vertex 7.493 27.889 0
      vertex 7.137 28.448 1.2
    endloop
  endfacet
  facet normal 0.981985 0.188958 0
    outer loop
      vertex 27.534 28.448 0
      vertex 27.407 29.108 0
      vertex 27.407 29.108 1.2
    endloop
  endfacet
  facet normal 0.981985 0.188958 0
    outer loop
      vertex 27.534 28.448 1.2
      vertex 27.534 28.448 0
      vertex 27.407 29.108 1.2
    endloop
  endfacet
  facet normal 0.982038 -0.188682 0
    outer loop
      vertex 27.407 29.108 1.2
      vertex 27.407 29.108 0
      vertex 27.534 29.769 0
    endloop
  endfacet
  facet normal 0.982038 -0.188682 0
    outer loop
      vertex 27.534 29.769 1.2
      vertex 27.407 29.108 1.2
      vertex 27.534 29.769 0
    endloop
  endfacet
  facet normal 0.83229 -0.55434 0
    outer loop
      vertex 27.534 29.769 1.2
      vertex 27.534 29.769 0
      vertex 27.889 30.302 0
    endloop
  endfacet
  facet normal 0.83229 -0.55434 0
    outer loop
      vertex 27.889 30.302 1.2
      vertex 27.534 29.769 1.2
      vertex 27.889 30.302 0
    endloop
  endfacet
  facet normal 0.537168 -0.843475 0
    outer loop
      vertex 27.889 30.302 1.2
      vertex 27.889 30.302 0
      vertex 28.448 30.658 0
    endloop
  endfacet
  facet normal 0.537168 -0.843475 0
    outer loop
      vertex 28.448 30.658 1.2
      vertex 27.889 30.302 1.2
      vertex 28.448 30.658 0
    endloop
  endfacet
  facet normal 0.224428 -0.974491 0
    outer loop
      vertex 28.448 30.658 1.2
      vertex 28.448 30.658 0
      vertex 29.108 30.81 0
    endloop
  endfacet
  facet normal 0.224428 -0.974491 0
    outer loop
      vertex 29.108 30.81 1.2
      vertex 28.448 30.658 1.2
      vertex 29.108 30.81 0
    endloop
  endfacet
  facet normal -0.224106 -0.974565 0
    outer loop
      vertex 29.108 30.81 1.2
      vertex 29.108 30.81 0
      vertex 29.769 30.658 0
    endloop
  endfacet
  facet normal -0.224106 -0.974565 0
    outer loop
      vertex 29.769 30.658 1.2
      vertex 29.108 30.81 1.2
      vertex 29.769 30.658 0
    endloop
  endfacet
  facet normal -0.55542 -0.83157 0
    outer loop
      vertex 29.769 30.658 1.2
      vertex 29.769 30.658 0
      vertex 30.302 30.302 0
    endloop
  endfacet
  facet normal -0.55542 -0.83157 0
    outer loop
      vertex 30.302 30.302 1.2
      vertex 29.769 30.658 1.2
      vertex 30.302 30.302 0
    endloop
  endfacet
  facet normal -0.83157 -0.55542 0
    outer loop
      vertex 30.302 30.302 0
      vertex 30.658 29.769 0
      vertex 30.302 30.302 1.2
    endloop
  endfacet
  facet normal -0.83157 -0.55542 0
    outer loop
      vertex 30.302 30.302 1.2
      vertex 30.658 29.769 0
      vertex 30.658 29.769 1.2
    endloop
  endfacet
  facet normal -0.974565 -0.224106 0
    outer loop
      vertex 30.658 29.769 0
      vertex 30.81 29.108 0
      vertex 30.658 29.769 1.2
    endloop
  endfacet
  facet normal -0.974565 -0.224106 0
    outer loop
      vertex 30.658 29.769 1.2
      vertex 30.81 29.108 0
      vertex 30.81 29.108 1.2
    endloop
  endfacet
  facet normal -0.974491 0.224428 0
    outer loop
      vertex 30.658 28.448 0
      vertex 30.658 28.448 1.2
      vertex 30.81 29.108 0
    endloop
  endfacet
  facet normal -0.974491 0.224428 0
    outer loop
      vertex 30.81 29.108 0
      vertex 30.658 28.448 1.2
      vertex 30.81 29.108 1.2
    endloop
  endfacet
  facet normal -0.843475 0.537168 0
    outer loop
      vertex 30.302 27.889 0
      vertex 30.302 27.889 1.2
      vertex 30.658 28.448 0
    endloop
  endfacet
  facet normal -0.843475 0.537168 0
    outer loop
      vertex 30.658 28.448 0
      vertex 30.302 27.889 1.2
      vertex 30.658 28.448 1.2
    endloop
  endfacet
  facet normal -0.55434 0.83229 0
    outer loop
      vertex 29.769 27.534 0
      vertex 29.769 27.534 1.2
      vertex 30.302 27.889 0
    endloop
  endfacet
  facet normal -0.55434 0.83229 0
    outer loop
      vertex 30.302 27.889 0
      vertex 29.769 27.534 1.2
      vertex 30.302 27.889 1.2
    endloop
  endfacet
  facet normal -0.188682 0.982038 0
    outer loop
      vertex 29.108 27.407 0
      vertex 29.108 27.407 1.2
      vertex 29.769 27.534 0
    endloop
  endfacet
  facet normal -0.188682 0.982038 0
    outer loop
      vertex 29.769 27.534 0
      vertex 29.108 27.407 1.2
      vertex 29.769 27.534 1.2
    endloop
  endfacet
  facet normal 0.188958 0.981985 0
    outer loop
      vertex 28.448 27.534 0
      vertex 28.448 27.534 1.2
      vertex 29.108 27.407 0
    endloop
  endfacet
  facet normal 0.188958 0.981985 0
    outer loop
      vertex 29.108 27.407 0
      vertex 28.448 27.534 1.2
      vertex 29.108 27.407 1.2
    endloop
  endfacet
  facet normal 0.536094 0.844159 0
    outer loop
      vertex 27.889 27.889 0
      vertex 27.889 27.889 1.2
      vertex 28.448 27.534 0
    endloop
  endfacet
  facet normal 0.536094 0.844159 0
    outer loop
      vertex 28.448 27.534 0
      vertex 27.889 27.889 1.2
      vertex 28.448 27.534 1.2
    endloop
  endfacet
  facet normal 0.844159 0.536094 0
    outer loop
      vertex 27.889 27.889 0
      vertex 27.534 28.448 0
      vertex 27.534 28.448 1.2
    endloop
  endfacet
  facet normal 0.844159 0.536094 0
    outer loop
      vertex 27.889 27.889 1.2
      vertex 27.889 27.889 0
      vertex 27.534 28.448 1.2
    endloop
  endfacet
  facet normal 0 -1 0
    outer loop
      vertex 0.716 32.999 3
      vertex 0.716 32.999 1.2
      vertex 2.646 32.999 1.2
    endloop
  endfacet
  facet normal 0 -1 0
    outer loop
      vertex 2.646 32.999 3
      vertex 0.716 32.999 3
      vertex 2.646 32.999 1.2
    endloop
  endfacet
  facet normal -1 0 0
    outer loop
      vertex 32.999 0.716 2.4
      vertex 32.999 0.716 3
      vertex 32.999 6.101 2.4
    endloop
  endfacet
  facet normal -1 0 0
    outer loop
      vertex 32.999 6.101 2.4
      vertex 32.999 0.716 3
      vertex 32.999 6.101 3
    endloop
  endfacet
  facet normal -1 0 0
    outer loop
      vertex 32.999 6.101 3
      vertex 32.999 11.105 3
      vertex 32.999 6.101 2.4
    endloop
  endfacet
  facet normal -1 0 0
    outer loop
      vertex 32.999 6.101 2.4
      vertex 32.999 11.105 3
      vertex 32.999 21.112 3
    endloop
  endfacet
  facet normal -1 0 0
    outer loop
      vertex 32.999 21.112 3
      vertex 32.999 25.76 3
      vertex 32.999 6.101 2.4
    endloop
  endfacet
  facet normal -1 0 0
    outer loop
      vertex 32.999 21.112 2.4
      vertex 32.999 25.76 3
      vertex 32.999 25.76 1.2
    endloop
  endfacet
  facet normal -1 0 0
    outer loop
      vertex 32.999 21.112 2.4
      vertex 32.999 25.76 1.2
      vertex 32.999 21.112 1.2
    endloop
  endfacet
  facet normal -1 0 0
    outer loop
      vertex 32.999 6.101 2.4
      vertex 32.999 25.76 3
      vertex 32.999 11.105 2.4
    endloop
  endfacet
  facet normal -1 0 0
    outer loop
      vertex 32.999 11.105 1.2
      vertex 32.999 6.101 2.4
      vertex 32.999 11.105 2.4
    endloop
  endfacet
  facet normal -1 0 0
    outer loop
      vertex 32.999 25.76 3
      vertex 32.999 21.112 2.4
      vertex 32.999 11.105 2.4
    endloop
  endfacet
  facet normal -1 0 0
    outer loop
      vertex 32.999 6.101 2.4
      vertex 32.999 11.105 1.2
      vertex 32.999 6.101 1.2
    endloop
  endfacet
  facet normal 0.893545 -0.448973 0
    outer loop
      vertex 33.507 0.386 3
      vertex 33.507 0.386 2.4
      vertex 33.609 0.589 2.4
    endloop
  endfacet
  facet normal 0.893545 -0.448973 0
    outer loop
      vertex 33.609 0.589 3
      vertex 33.507 0.386 3
      vertex 33.609 0.589 2.4
    endloop
  endfacet
  facet normal 0.722333 -0.691545 0
    outer loop
      vertex 32.923 -0.224 3
      vertex 32.923 -0.224 2.4
      vertex 33.507 0.386 2.4
    endloop
  endfacet
  facet normal 0.722333 -0.691545 0
    outer loop
      vertex 33.507 0.386 3
      vertex 32.923 -0.224 3
      vertex 33.507 0.386 2.4
    endloop
  endfacet
  facet normal 0 -1 0
    outer loop
      vertex 14.762 32.999 3
      vertex 14.762 32.999 1.2
      vertex 19.69 32.999 1.2
    endloop
  endfacet
  facet normal 0 -1 0
    outer loop
      vertex 29.697 32.999 2.4
      vertex 14.762 32.999 3
      vertex 19.69 32.999 2.4
    endloop
  endfacet
  facet normal 0 -1 0
    outer loop
      vertex 19.69 32.999 2.4
      vertex 14.762 32.999 3
      vertex 19.69 32.999 1.2
    endloop
  endfacet
  facet normal 0 -1 0
    outer loop
      vertex 19.69 32.999 3
      vertex 14.762 32.999 3
      vertex 29.697 32.999 2.4
    endloop
  endfacet
  facet normal 0 -1 0
    outer loop
      vertex 32.517 32.999 1.2
      vertex 29.697 32.999 2.4
      vertex 29.697 32.999 1.2
    endloop
  endfacet
  facet normal 0 -1 0
    outer loop
      vertex 32.517 32.999 3
      vertex 29.697 32.999 2.4
      vertex 32.517 32.999 1.2
    endloop
  endfacet
  facet normal 0 -1 0
    outer loop
      vertex 32.517 32.999 3
      vertex 29.697 32.999 3
      vertex 29.697 32.999 2.4
    endloop
  endfacet
  facet normal 0 -1 0
    outer loop
      vertex 29.697 32.999 3
      vertex 19.69 32.999 3
      vertex 29.697 32.999 2.4
    endloop
  endfacet
  facet normal -0.894427 -0.447214 0
    outer loop
      vertex 32.517 32.999 1.2
      vertex 32.796 32.441 1.2
      vertex 32.517 32.999 3
    endloop
  endfacet
  facet normal -0.894427 -0.447214 0
    outer loop
      vertex 32.517 32.999 3
      vertex 32.796 32.441 1.2
      vertex 32.796 32.441 3
    endloop
  endfacet
  facet normal 0 0 1
    outer loop
      vertex 32.999 11.105 3
      vertex 32.999 6.101 3
      vertex 33.609 6.101 3
    endloop
  endfacet
  facet normal 0 0 1
    outer loop
      vertex 33.609 11.105 3
      vertex 32.999 11.105 3
      vertex 33.609 6.101 3
    endloop
  endfacet
  facet normal 0 0 1
    outer loop
      vertex 32.999 21.112 3
      vertex 32.999 11.105 3
      vertex 33.609 11.105 3
    endloop
  endfacet
  facet normal 0 0 1
    outer loop
      vertex 33.609 21.112 3
      vertex 32.999 21.112 3
      vertex 33.609 11.105 3
    endloop
  endfacet
  facet normal 0 0 1
    outer loop
      vertex 32.999 25.76 3
      vertex 32.999 21.112 3
      vertex 33.609 21.112 3
    endloop
  endfacet
  facet normal 0 0 1
    outer loop
      vertex 33.609 25.76 3
      vertex 32.999 25.76 3
      vertex 33.609 21.112 3
    endloop
  endfacet
  facet normal 0 0 -1
    outer loop
      vertex 32.999 11.105 2.4
      vertex 32.999 21.112 2.4
      vertex 33.609 11.105 2.4
    endloop
  endfacet
  facet normal 0 0 -1
    outer loop
      vertex 33.609 11.105 2.4
      vertex 32.999 21.112 2.4
      vertex 33.609 21.112 2.4
    endloop
  endfacet
  facet normal 0 0 1
    outer loop
      vertex 29.697 33.609 3
      vertex 29.697 32.999 3
      vertex 32.517 32.999 3
    endloop
  endfacet
  facet normal 0 0 1
    outer loop
      vertex 32.974 33.431 3
      vertex 29.697 33.609 3
      vertex 32.517 32.999 3
    endloop
  endfacet
  facet normal 0 0 1
    outer loop
      vertex 32.796 32.441 3
      vertex 33.457 32.441 3
      vertex 32.517 32.999 3
    endloop
  endfacet
  facet normal 0 0 1
    outer loop
      vertex 33.457 32.441 3
      vertex 32.974 33.431 3
      vertex 32.517 32.999 3
    endloop
  endfacet
  facet normal 0 0 1
    outer loop
      vertex 32.974 33.431 3
      vertex 32.695 33.609 3
      vertex 29.697 33.609 3
    endloop
  endfacet
  facet normal 0 0 -1
    outer loop
      vertex 19.69 32.999 2.4
      vertex 19.69 33.609 2.4
      vertex 29.697 32.999 2.4
    endloop
  endfacet
  facet normal 0 0 -1
    outer loop
      vertex 29.697 32.999 2.4
      vertex 19.69 33.609 2.4
      vertex 29.697 33.609 2.4
    endloop
  endfacet
  facet normal 0 0 1
    outer loop
      vertex 19.69 33.609 3
      vertex 19.69 32.999 3
      vertex 29.697 32.999 3
    endloop
  endfacet
  facet normal 0 0 1
    outer loop
      vertex 29.697 33.609 3
      vertex 19.69 33.609 3
      vertex 29.697 32.999 3
    endloop
  endfacet
  facet normal 0 0 1
    outer loop
      vertex 14.762 33.609 3
      vertex 14.762 32.999 3
      vertex 19.69 32.999 3
    endloop
  endfacet
  facet normal 0 0 1
    outer loop
      vertex 19.69 33.609 3
      vertex 14.762 33.609 3
      vertex 19.69 32.999 3
    endloop
  endfacet
endsolid OpenSCAD_Model
