  0
SECTION
  2
HEADER
  9
$ACADVER
  1
AC1009
  9
$EXTMIN
 10
0.0
 20
0.0
 30
0.0
  9
$EXTMAX
 10
1000.0
 20
1000.0
 30
0.0
  9
$FILLMODE
 70
 0
  9
$SPLFRAME
 70
 1
  0
ENDSEC
  0
SECTION
  2
TABLES
  0
TABLE
  2
LAYER
 70
1
  0
LAYER
  2
0
 70
     0
 62
     7
  6
CONTINUOUS
  0
ENDTAB
  0
ENDSEC
  0
SECTION
  2
ENTITIES
  0
LINE
  8
0
 62
     160
 10
0.368056
 20
-0
 30
0.0
 11
0.564888
 21
-0
 31
0.0
  0
LINE
  8
0
 62
     160
 10
0.564888
 20
-0
 30
0.0
 11
0.564888
 21
0.0236003
 31
0.0
  0
LINE
  8
0
 62
     160
 10
0.564888
 20
0.0236003
 30
0.0
 11
0.368056
 21
0.0236003
 31
0.0
  0
LINE
  8
0
 62
     160
 10
0.368056
 20
0.0236003
 30
0.0
 11
0.368056
 21
-0
 31
0.0
  0
LINE
  8
0
 62
     160
 10
0.592503
 20
1.31103
 30
0.0
 11
0.787381
 21
1.31103
 31
0.0
  0
LINE
  8
0
 62
     160
 10
0.787381
 20
1.31103
 30
0.0
 11
0.787381
 21
1.33469
 31
0.0
  0
LINE
  8
0
 62
     160
 10
0.787381
 20
1.33469
 30
0.0
 11
0.592503
 21
1.33469
 31
0.0
  0
LINE
  8
0
 62
     160
 10
0.592503
 20
1.33469
 30
0.0
 11
0.592503
 21
1.31103
 31
0.0
  0
LINE
  8
0
 62
     160
 10
0
 20
0.653646
 30
0.0
 11
0.0236003
 21
0.653646
 31
0.0
  0
LINE
  8
0
 62
     160
 10
0.0236003
 20
0.653646
 30
0.0
 11
0.0236003
 21
0.850478
 31
0.0
  0
LINE
  8
0
 62
     160
 10
0.0236003
 20
0.850478
 30
0.0
 11
0
 21
0.850478
 31
0.0
  0
LINE
  8
0
 62
     160
 10
0
 20
0.850478
 30
0.0
 11
0
 21
0.653646
 31
0.0
  0
LINE
  8
0
 62
     160
 10
0
 20
0.0630968
 30
0.0
 11
0.0236003
 21
0.0630968
 31
0.0
  0
LINE
  8
0
 62
     160
 10
0.0236003
 20
0.0630968
 30
0.0
 11
0.0236003
 21
0.259928
 31
0.0
  0
LINE
  8
0
 62
     160
 10
0.0236003
 20
0.259928
 30
0.0
 11
0
 21
0.259928
 31
0.0
  0
LINE
  8
0
 62
     160
 10
0
 20
0.259928
 30
0.0
 11
0
 21
0.0630968
 31
0.0
  0
LINE
  8
0
 62
     160
 10
0.116157
 20
1.33469
 30
0.0
 11
0.0354275
 21
1.33469
 31
0.0
  0
LINE
  8
0
 62
     160
 10
0.0354275
 20
1.33469
 30
0.0
 11
0.0270725
 21
1.33122
 31
0.0
  0
LINE
  8
0
 62
     160
 10
0.0270725
 20
1.33122
 30
0.0
 11
0.00347222
 21
1.30756
 31
0.0
  0
LINE
  8
0
 62
     160
 10
0.00347222
 20
1.30756
 30
0.0
 11
0
 21
1.29921
 31
0.0
  0
LINE
  8
0
 62
     160
 10
0
 20
1.29921
 30
0.0
 11
0
 21
1.24419
 31
0.0
  0
LINE
  8
0
 62
     160
 10
0
 20
1.24419
 30
0.0
 11
0.0236003
 21
1.24419
 31
0.0
  0
LINE
  8
0
 62
     160
 10
0.0236003
 20
1.24419
 30
0.0
 11
0.0236003
 21
1.29432
 31
0.0
  0
LINE
  8
0
 62
     160
 10
0.0236003
 20
1.29432
 30
0.0
 11
0.0403103
 21
1.31103
 31
0.0
  0
LINE
  8
0
 62
     160
 10
0.0403103
 20
1.31103
 30
0.0
 11
0.116157
 21
1.31103
 31
0.0
  0
LINE
  8
0
 62
     160
 10
0.116157
 20
1.31103
 30
0.0
 11
0.116157
 21
1.33469
 31
0.0
  0
LINE
  8
0
 62
     160
 10
0.958604
 20
-0
 30
0.0
 11
1.15549
 21
-0
 31
0.0
  0
LINE
  8
0
 62
     160
 10
1.15549
 20
-0
 30
0.0
 11
1.15549
 21
0.0236003
 31
0.0
  0
LINE
  8
0
 62
     160
 10
1.15549
 20
0.0236003
 30
0.0
 11
0.958604
 21
0.0236003
 31
0.0
  0
LINE
  8
0
 62
     160
 10
0.958604
 20
0.0236003
 30
0.0
 11
0.958604
 21
-0
 31
0.0
  0
LINE
  8
0
 62
     160
 10
1.31103
 20
0.252007
 30
0.0
 11
1.33464
 21
0.252007
 31
0.0
  0
LINE
  8
0
 62
     160
 10
1.33464
 20
0.252007
 30
0.0
 11
1.33464
 21
0.448839
 31
0.0
  0
LINE
  8
0
 62
     160
 10
1.33464
 20
0.448839
 30
0.0
 11
1.31103
 21
0.448839
 31
0.0
  0
LINE
  8
0
 62
     160
 10
1.31103
 20
0.448839
 30
0.0
 11
1.31103
 21
0.252007
 31
0.0
  0
LINE
  8
0
 62
     160
 10
1.31103
 20
1.02561
 30
0.0
 11
1.31103
 21
0.842557
 31
0.0
  0
LINE
  8
0
 62
     160
 10
1.31103
 20
0.842557
 30
0.0
 11
1.33464
 21
0.842557
 31
0.0
  0
LINE
  8
0
 62
     160
 10
1.33464
 20
0.842557
 30
0.0
 11
1.33464
 21
1.02561
 31
0.0
  0
LINE
  8
0
 62
     160
 10
1.33464
 20
1.02561
 30
0.0
 11
1.31103
 21
1.02561
 31
0.0
  0
LINE
  8
0
 62
     160
 10
1.30273
 20
1.28939
 30
0.0
 11
1.32916
 21
1.28939
 31
0.0
  0
LINE
  8
0
 62
     160
 10
1.32916
 20
1.28939
 30
0.0
 11
1.30979
 21
1.32813
 31
0.0
  0
LINE
  8
0
 62
     160
 10
1.30979
 20
1.32813
 30
0.0
 11
1.29921
 21
1.33469
 31
0.0
  0
LINE
  8
0
 62
     160
 10
1.29921
 20
1.33469
 30
0.0
 11
1.1811
 21
1.33469
 31
0.0
  0
LINE
  8
0
 62
     160
 10
1.1811
 20
1.33469
 30
0.0
 11
1.1811
 21
1.31103
 31
0.0
  0
LINE
  8
0
 62
     160
 10
1.1811
 20
1.31103
 30
0.0
 11
1.29194
 21
1.31103
 31
0.0
  0
LINE
  8
0
 62
     160
 10
1.29194
 20
1.31103
 30
0.0
 11
1.30273
 21
1.28939
 31
0.0
  0
ENDSEC
  0
EOF
