solid OpenSCAD_Model
  facet normal -1 0 0
    outer loop
      vertex 0 4.5 1.4
      vertex 0 5.1 0
      vertex 0 0.6 1.4
    endloop
  endfacet
  facet normal -1 0 0
    outer loop
      vertex 0 0 0
      vertex 0 0 2.6
      vertex 0 0.6 1.4
    endloop
  endfacet
  facet normal -1 0 0
    outer loop
      vertex 0 0 0
      vertex 0 0.6 1.4
      vertex 0 5.1 0
    endloop
  endfacet
  facet normal -1 0 0
    outer loop
      vertex 0 5.1 0
      vertex 0 4.5 1.4
      vertex 0 4.5 2.6
    endloop
  endfacet
  facet normal -1 0 0
    outer loop
      vertex 0 5.1 0
      vertex 0 4.5 2.6
      vertex 0 5.1 2.6
    endloop
  endfacet
  facet normal -1 0 0
    outer loop
      vertex 0 0.6 1.4
      vertex 0 0 2.6
      vertex 0 0.6 2.6
    endloop
  endfacet
  facet normal 0 -1 0
    outer loop
      vertex 0 0 2.6
      vertex 0 0 0
      vertex 12.3 0 0
    endloop
  endfacet
  facet normal 0 -1 0
    outer loop
      vertex 12.3 0 2.6
      vertex 0 0 2.6
      vertex 12.3 0 0
    endloop
  endfacet
  facet normal 0 0 -1
    outer loop
      vertex 0 0 0
      vertex 0 5.1 0
      vertex 12.3 0 0
    endloop
  endfacet
  facet normal 0 0 -1
    outer loop
      vertex 12.3 0 0
      vertex 0 5.1 0
      vertex 12.3 5.1 0
    endloop
  endfacet
  facet normal 0 1 0
    outer loop
      vertex 0 5.1 0
      vertex 0 5.1 2.6
      vertex 12.3 5.1 0
    endloop
  endfacet
  facet normal 0 1 0
    outer loop
      vertex 12.3 5.1 0
      vertex 0 5.1 2.6
      vertex 12.3 5.1 2.6
    endloop
  endfacet
  facet normal 0 0 1
    outer loop
      vertex 0 5.1 2.6
      vertex 0 4.5 2.6
      vertex 12.3 4.5 2.6
    endloop
  endfacet
  facet normal 0 0 1
    outer loop
      vertex 12.3 5.1 2.6
      vertex 0 5.1 2.6
      vertex 12.3 4.5 2.6
    endloop
  endfacet
  facet normal 0 -1 0
    outer loop
      vertex 0 4.5 2.6
      vertex 0 4.5 1.4
      vertex 12.3 4.5 1.4
    endloop
  endfacet
  facet normal 0 -1 0
    outer loop
      vertex 12.3 4.5 2.6
      vertex 0 4.5 2.6
      vertex 12.3 4.5 1.4
    endloop
  endfacet
  facet normal 0 0 1
    outer loop
      vertex 0 4.5 1.4
      vertex 0 0.6 1.4
      vertex 12.3 0.6 1.4
    endloop
  endfacet
  facet normal 0 0 1
    outer loop
      vertex 12.3 4.5 1.4
      vertex 0 4.5 1.4
      vertex 12.3 0.6 1.4
    endloop
  endfacet
  facet normal 0 1 0
    outer loop
      vertex 0 0.6 1.4
      vertex 0 0.6 2.6
      vertex 12.3 0.6 1.4
    endloop
  endfacet
  facet normal 0 1 0
    outer loop
      vertex 12.3 0.6 1.4
      vertex 0 0.6 2.6
      vertex 12.3 0.6 2.6
    endloop
  endfacet
  facet normal 0 0 1
    outer loop
      vertex 0 0.6 2.6
      vertex 0 0 2.6
      vertex 12.3 0 2.6
    endloop
  endfacet
  facet normal 0 0 1
    outer loop
      vertex 12.3 0.6 2.6
      vertex 0 0.6 2.6
      vertex 12.3 0 2.6
    endloop
  endfacet
  facet normal 1 0 0
    outer loop
      vertex 12.3 0.6 1.4
      vertex 12.3 0 0
      vertex 12.3 5.1 0
    endloop
  endfacet
  facet normal 1 0 0
    outer loop
      vertex 12.3 0.6 1.4
      vertex 12.3 0.6 2.6
      vertex 12.3 0 2.6
    endloop
  endfacet
  facet normal 1 0 0
    outer loop
      vertex 12.3 5.1 2.6
      vertex 12.3 4.5 2.6
      vertex 12.3 5.1 0
    endloop
  endfacet
  facet normal 1 0 0
    outer loop
      vertex 12.3 4.5 2.6
      vertex 12.3 4.5 1.4
      vertex 12.3 5.1 0
    endloop
  endfacet
  facet normal 1 0 0
    outer loop
      vertex 12.3 0 2.6
      vertex 12.3 0 0
      vertex 12.3 0.6 1.4
    endloop
  endfacet
  facet normal 1 0 0
    outer loop
      vertex 12.3 4.5 1.4
      vertex 12.3 0.6 1.4
      vertex 12.3 5.1 0
    endloop
  endfacet
endsolid OpenSCAD_Model
