solid OpenSCAD_Model
  facet normal -1 0 0
    outer loop
      vertex 0 5.1 1.4
      vertex 0 5.7 0
      vertex 0 0.6 1.4
    endloop
  endfacet
  facet normal -1 0 0
    outer loop
      vertex 0 0 0
      vertex 0 0 2.6
      vertex 0 0.6 1.4
    endloop
  endfacet
  facet normal -1 0 0
    outer loop
      vertex 0 0 0
      vertex 0 0.6 1.4
      vertex 0 5.7 0
    endloop
  endfacet
  facet normal -1 0 0
    outer loop
      vertex 0 5.7 0
      vertex 0 5.1 1.4
      vertex 0 5.1 2.6
    endloop
  endfacet
  facet normal -1 0 0
    outer loop
      vertex 0 5.7 0
      vertex 0 5.1 2.6
      vertex 0 5.7 2.6
    endloop
  endfacet
  facet normal -1 0 0
    outer loop
      vertex 0 0.6 1.4
      vertex 0 0 2.6
      vertex 0 0.6 2.6
    endloop
  endfacet
  facet normal 0 -1 0
    outer loop
      vertex 0 0 2.6
      vertex 0 0 0
      vertex 12.3 0 2.181
    endloop
  endfacet
  facet normal 0 -1 0
    outer loop
      vertex 12.3 0 4.781
      vertex 0 0 2.6
      vertex 12.3 0 2.181
    endloop
  endfacet
  facet normal 0.174594 0 -0.984641
    outer loop
      vertex 0 0 0
      vertex 0 5.7 0
      vertex 12.3 0 2.181
    endloop
  endfacet
  facet normal 0.174594 0 -0.984641
    outer loop
      vertex 12.3 0 2.181
      vertex 0 5.7 0
      vertex 12.3 5.7 2.181
    endloop
  endfacet
  facet normal 0 1 0
    outer loop
      vertex 0 5.7 0
      vertex 0 5.7 2.6
      vertex 12.3 5.7 2.181
    endloop
  endfacet
  facet normal 0 1 0
    outer loop
      vertex 12.3 5.7 2.181
      vertex 0 5.7 2.6
      vertex 12.3 5.7 4.781
    endloop
  endfacet
  facet normal -0.174594 0 0.984641
    outer loop
      vertex 0 5.7 2.6
      vertex 0 5.1 2.6
      vertex 12.3 5.1 4.781
    endloop
  endfacet
  facet normal -0.174594 0 0.984641
    outer loop
      vertex 12.3 5.7 4.781
      vertex 0 5.7 2.6
      vertex 12.3 5.1 4.781
    endloop
  endfacet
  facet normal 0 -1 0
    outer loop
      vertex 0 5.1 2.6
      vertex 0 5.1 1.4
      vertex 12.3 5.1 3.581
    endloop
  endfacet
  facet normal 0 -1 0
    outer loop
      vertex 12.3 5.1 4.781
      vertex 0 5.1 2.6
      vertex 12.3 5.1 3.581
    endloop
  endfacet
  facet normal -0.174594 0 0.984641
    outer loop
      vertex 0 5.1 1.4
      vertex 0 0.6 1.4
      vertex 12.3 0.6 3.581
    endloop
  endfacet
  facet normal -0.174594 0 0.984641
    outer loop
      vertex 12.3 5.1 3.581
      vertex 0 5.1 1.4
      vertex 12.3 0.6 3.581
    endloop
  endfacet
  facet normal 0 1 0
    outer loop
      vertex 0 0.6 1.4
      vertex 0 0.6 2.6
      vertex 12.3 0.6 3.581
    endloop
  endfacet
  facet normal 0 1 0
    outer loop
      vertex 12.3 0.6 3.581
      vertex 0 0.6 2.6
      vertex 12.3 0.6 4.781
    endloop
  endfacet
  facet normal -0.174594 0 0.984641
    outer loop
      vertex 0 0.6 2.6
      vertex 0 0 2.6
      vertex 12.3 0 4.781
    endloop
  endfacet
  facet normal -0.174594 0 0.984641
    outer loop
      vertex 12.3 0.6 4.781
      vertex 0 0.6 2.6
      vertex 12.3 0 4.781
    endloop
  endfacet
  facet normal 1 0 0
    outer loop
      vertex 12.3 0.6 3.581
      vertex 12.3 0 2.181
      vertex 12.3 5.7 2.181
    endloop
  endfacet
  facet normal 1 0 0
    outer loop
      vertex 12.3 0.6 3.581
      vertex 12.3 0.6 4.781
      vertex 12.3 0 4.781
    endloop
  endfacet
  facet normal 1 0 0
    outer loop
      vertex 12.3 5.7 4.781
      vertex 12.3 5.1 4.781
      vertex 12.3 5.7 2.181
    endloop
  endfacet
  facet normal 1 0 0
    outer loop
      vertex 12.3 5.1 4.781
      vertex 12.3 5.1 3.581
      vertex 12.3 5.7 2.181
    endloop
  endfacet
  facet normal 1 0 0
    outer loop
      vertex 12.3 0 4.781
      vertex 12.3 0 2.181
      vertex 12.3 0.6 3.581
    endloop
  endfacet
  facet normal 1 0 0
    outer loop
      vertex 12.3 5.1 3.581
      vertex 12.3 0.6 3.581
      vertex 12.3 5.7 2.181
    endloop
  endfacet
endsolid OpenSCAD_Model
