solid OpenSCAD_Model
  facet normal -1 0 0
    outer loop
      vertex 0 11.1 1.4
      vertex 0 11.7 0
      vertex 0 0.6 1.4
    endloop
  endfacet
  facet normal -1 0 0
    outer loop
      vertex 0 0 0
      vertex 0 0 2.6
      vertex 0 0.6 1.4
    endloop
  endfacet
  facet normal -1 0 0
    outer loop
      vertex 0 0 0
      vertex 0 0.6 1.4
      vertex 0 11.7 0
    endloop
  endfacet
  facet normal -1 0 0
    outer loop
      vertex 0 11.7 0
      vertex 0 11.1 1.4
      vertex 0 11.1 2.6
    endloop
  endfacet
  facet normal -1 0 0
    outer loop
      vertex 0 11.7 0
      vertex 0 11.1 2.6
      vertex 0 11.7 2.6
    endloop
  endfacet
  facet normal -1 0 0
    outer loop
      vertex 0 0.6 1.4
      vertex 0 0 2.6
      vertex 0 0.6 2.6
    endloop
  endfacet
  facet normal 0 -1 0
    outer loop
      vertex 0 0 2.6
      vertex 0 0 0
      vertex 11.7 0 2.061
    endloop
  endfacet
  facet normal 0 -1 0
    outer loop
      vertex 11.7 0 4.661
      vertex 0 0 2.6
      vertex 11.7 0 2.061
    endloop
  endfacet
  facet normal 0.173483 0 -0.984837
    outer loop
      vertex 0 0 0
      vertex 0 11.7 0
      vertex 11.7 0 2.061
    endloop
  endfacet
  facet normal 0.173483 0 -0.984837
    outer loop
      vertex 11.7 6.85 2.061
      vertex 0 11.7 0
      vertex 11.7 11.7 2.061
    endloop
  endfacet
  facet normal 0.173483 0 -0.984837
    outer loop
      vertex 11.7 4.85 2.061
      vertex 0 11.7 0
      vertex 11.7 6.85 2.061
    endloop
  endfacet
  facet normal 0.173483 0 -0.984837
    outer loop
      vertex 11.7 0 2.061
      vertex 0 11.7 0
      vertex 11.7 4.85 2.061
    endloop
  endfacet
  facet normal 0 1 0
    outer loop
      vertex 0 11.7 0
      vertex 0 11.7 2.6
      vertex 11.7 11.7 2.061
    endloop
  endfacet
  facet normal 0 1 0
    outer loop
      vertex 11.7 11.7 2.061
      vertex 0 11.7 2.6
      vertex 11.7 11.7 4.661
    endloop
  endfacet
  facet normal -0.173483 0 0.984837
    outer loop
      vertex 0 11.7 2.6
      vertex 0 11.1 2.6
      vertex 11.7 11.1 4.661
    endloop
  endfacet
  facet normal -0.173483 0 0.984837
    outer loop
      vertex 11.7 11.7 4.661
      vertex 0 11.7 2.6
      vertex 11.7 11.1 4.661
    endloop
  endfacet
  facet normal 0 -1 0
    outer loop
      vertex 0 11.1 2.6
      vertex 0 11.1 1.4
      vertex 11.7 11.1 3.461
    endloop
  endfacet
  facet normal 0 -1 0
    outer loop
      vertex 11.7 11.1 4.661
      vertex 0 11.1 2.6
      vertex 11.7 11.1 3.461
    endloop
  endfacet
  facet normal -0.173483 0 0.984837
    outer loop
      vertex 0 11.1 1.4
      vertex 0 0.6 1.4
      vertex 11.7 0.6 3.461
    endloop
  endfacet
  facet normal -0.173483 0 0.984837
    outer loop
      vertex 11.7 11.1 3.461
      vertex 0 11.1 1.4
      vertex 11.7 0.6 3.461
    endloop
  endfacet
  facet normal 0 1 0
    outer loop
      vertex 0 0.6 1.4
      vertex 0 0.6 2.6
      vertex 11.7 0.6 3.461
    endloop
  endfacet
  facet normal 0 1 0
    outer loop
      vertex 11.7 0.6 3.461
      vertex 0 0.6 2.6
      vertex 11.7 0.6 4.661
    endloop
  endfacet
  facet normal -0.173483 0 0.984837
    outer loop
      vertex 0 0.6 2.6
      vertex 0 0 2.6
      vertex 11.7 0 4.661
    endloop
  endfacet
  facet normal -0.173483 0 0.984837
    outer loop
      vertex 11.7 0.6 4.661
      vertex 0 0.6 2.6
      vertex 11.7 0 4.661
    endloop
  endfacet
  facet normal 1 0 0
    outer loop
      vertex 11.7 0.6 3.461
      vertex 11.7 0 2.061
      vertex 11.7 4.85 2.061
    endloop
  endfacet
  facet normal 1 0 0
    outer loop
      vertex 11.7 11.7 2.061
      vertex 11.7 6.85 3.461
      vertex 11.7 6.85 2.061
    endloop
  endfacet
  facet normal 1 0 0
    outer loop
      vertex 11.7 11.1 3.461
      vertex 11.7 6.85 3.461
      vertex 11.7 11.7 2.061
    endloop
  endfacet
  facet normal 1 0 0
    outer loop
      vertex 11.7 11.7 4.661
      vertex 11.7 11.1 3.461
      vertex 11.7 11.7 2.061
    endloop
  endfacet
  facet normal 1 0 0
    outer loop
      vertex 11.7 0.6 3.461
      vertex 11.7 0.6 4.661
      vertex 11.7 0 4.661
    endloop
  endfacet
  facet normal 1 0 0
    outer loop
      vertex 11.7 0 4.661
      vertex 11.7 0 2.061
      vertex 11.7 0.6 3.461
    endloop
  endfacet
  facet normal 1 0 0
    outer loop
      vertex 11.7 11.1 4.661
      vertex 11.7 11.1 3.461
      vertex 11.7 11.7 4.661
    endloop
  endfacet
  facet normal 1 0 0
    outer loop
      vertex 11.7 11.1 3.461
      vertex 11.7 4.85 3.461
      vertex 11.7 6.85 3.461
    endloop
  endfacet
  facet normal 1 0 0
    outer loop
      vertex 11.7 4.85 3.461
      vertex 11.7 0.6 3.461
      vertex 11.7 4.85 2.061
    endloop
  endfacet
  facet normal 1 0 0
    outer loop
      vertex 11.7 11.1 3.461
      vertex 11.7 0.6 3.461
      vertex 11.7 4.85 3.461
    endloop
  endfacet
  facet normal 0 -1 0
    outer loop
      vertex 11.7 4.85 3.461
      vertex 11.7 4.85 2.061
      vertex 14.5988 4.85 3.461
    endloop
  endfacet
  facet normal 0 -1 0
    outer loop
      vertex 14.5988 4.85 3.461
      vertex 11.7 4.85 2.061
      vertex 14.5988 4.85 2.061
    endloop
  endfacet
  facet normal 0 1 0
    outer loop
      vertex 14.5988 6.85 2.061
      vertex 11.7 6.85 2.061
      vertex 11.7 6.85 3.461
    endloop
  endfacet
  facet normal 0 1 0
    outer loop
      vertex 14.5988 6.85 2.061
      vertex 11.7 6.85 3.461
      vertex 14.5988 6.85 3.461
    endloop
  endfacet
  facet normal 0 0 1
    outer loop
      vertex 14.6393 4.78934 3.461
      vertex 15.126 4.46418 3.461
      vertex 14.5988 4.85 3.461
    endloop
  endfacet
  facet normal 0 0 1
    outer loop
      vertex 11.7 6.85 3.461
      vertex 11.7 4.85 3.461
      vertex 14.5988 4.85 3.461
    endloop
  endfacet
  facet normal 0 0 1
    outer loop
      vertex 15.7 4.35 3.461
      vertex 11.7 6.85 3.461
      vertex 14.5988 4.85 3.461
    endloop
  endfacet
  facet normal 0 0 1
    outer loop
      vertex 15.126 4.46418 3.461
      vertex 15.7 4.35 3.461
      vertex 14.5988 4.85 3.461
    endloop
  endfacet
  facet normal 0 0 1
    outer loop
      vertex 15.7 4.35 3.461
      vertex 16.274 4.46418 3.461
      vertex 11.7 6.85 3.461
    endloop
  endfacet
  facet normal 0 0 1
    outer loop
      vertex 16.274 4.46418 3.461
      vertex 16.7607 4.78934 3.461
      vertex 11.7 6.85 3.461
    endloop
  endfacet
  facet normal 0 0 1
    outer loop
      vertex 16.7607 4.78934 3.461
      vertex 17.0858 5.27597 3.461
      vertex 11.7 6.85 3.461
    endloop
  endfacet
  facet normal 0 0 1
    outer loop
      vertex 17.0858 5.27597 3.461
      vertex 17.2 5.85 3.461
      vertex 11.7 6.85 3.461
    endloop
  endfacet
  facet normal 0 0 1
    outer loop
      vertex 17.2 5.85 3.461
      vertex 17.0858 6.42403 3.461
      vertex 11.7 6.85 3.461
    endloop
  endfacet
  facet normal 0 0 1
    outer loop
      vertex 14.6393 6.91066 3.461
      vertex 14.5988 6.85 3.461
      vertex 16.7607 6.91066 3.461
    endloop
  endfacet
  facet normal 0 0 1
    outer loop
      vertex 16.274 7.23582 3.461
      vertex 15.7 7.35 3.461
      vertex 15.126 7.23582 3.461
    endloop
  endfacet
  facet normal 0 0 1
    outer loop
      vertex 16.7607 6.91066 3.461
      vertex 16.274 7.23582 3.461
      vertex 14.6393 6.91066 3.461
    endloop
  endfacet
  facet normal 0 0 1
    outer loop
      vertex 17.0858 6.42403 3.461
      vertex 14.5988 6.85 3.461
      vertex 11.7 6.85 3.461
    endloop
  endfacet
  facet normal 0 0 1
    outer loop
      vertex 17.0858 6.42403 3.461
      vertex 16.7607 6.91066 3.461
      vertex 14.5988 6.85 3.461
    endloop
  endfacet
  facet normal 0 0 1
    outer loop
      vertex 15.126 7.23582 3.461
      vertex 14.6393 6.91066 3.461
      vertex 16.274 7.23582 3.461
    endloop
  endfacet
  facet normal -0.83147 -0.55557 0
    outer loop
      vertex 14.5988 4.85 2.061
      vertex 14.6393 4.78934 2.061
      vertex 14.5988 4.85 3.461
    endloop
  endfacet
  facet normal -0.83147 -0.55557 0
    outer loop
      vertex 14.5988 4.85 3.461
      vertex 14.6393 4.78934 2.061
      vertex 14.6393 4.78934 3.461
    endloop
  endfacet
  facet normal 0 0 -1
    outer loop
      vertex 11.7 4.85 2.061
      vertex 11.7 6.85 2.061
      vertex 14.5988 4.85 2.061
    endloop
  endfacet
  facet normal 0 0 -1
    outer loop
      vertex 14.5988 4.85 2.061
      vertex 11.7 6.85 2.061
      vertex 14.5988 6.85 2.061
    endloop
  endfacet
  facet normal 0 0 -1
    outer loop
      vertex 14.5988 4.85 2.061
      vertex 14.5988 6.85 2.061
      vertex 14.6393 6.91066 2.061
    endloop
  endfacet
  facet normal 0 0 -1
    outer loop
      vertex 14.5988 4.85 2.061
      vertex 14.6393 6.91066 2.061
      vertex 15.126 7.23582 2.061
    endloop
  endfacet
  facet normal 0 0 -1
    outer loop
      vertex 14.5988 4.85 2.061
      vertex 15.126 7.23582 2.061
      vertex 15.7 7.35 2.061
    endloop
  endfacet
  facet normal 0 0 -1
    outer loop
      vertex 14.5988 4.85 2.061
      vertex 15.7 7.35 2.061
      vertex 16.274 7.23582 2.061
    endloop
  endfacet
  facet normal 0 0 -1
    outer loop
      vertex 14.5988 4.85 2.061
      vertex 16.274 7.23582 2.061
      vertex 16.7607 6.91066 2.061
    endloop
  endfacet
  facet normal 0 0 -1
    outer loop
      vertex 14.5988 4.85 2.061
      vertex 16.7607 6.91066 2.061
      vertex 17.0858 6.42403 2.061
    endloop
  endfacet
  facet normal 0 0 -1
    outer loop
      vertex 14.5988 4.85 2.061
      vertex 17.0858 6.42403 2.061
      vertex 17.2 5.85 2.061
    endloop
  endfacet
  facet normal 0 0 -1
    outer loop
      vertex 14.5988 4.85 2.061
      vertex 17.2 5.85 2.061
      vertex 17.0858 5.27597 2.061
    endloop
  endfacet
  facet normal 0 0 -1
    outer loop
      vertex 14.5988 4.85 2.061
      vertex 17.0858 5.27597 2.061
      vertex 16.7607 4.78934 2.061
    endloop
  endfacet
  facet normal 0 0 -1
    outer loop
      vertex 14.6393 4.78934 2.061
      vertex 16.274 4.46418 2.061
      vertex 15.126 4.46418 2.061
    endloop
  endfacet
  facet normal 0 0 -1
    outer loop
      vertex 16.274 4.46418 2.061
      vertex 15.7 4.35 2.061
      vertex 15.126 4.46418 2.061
    endloop
  endfacet
  facet normal 0 0 -1
    outer loop
      vertex 16.7607 4.78934 2.061
      vertex 16.274 4.46418 2.061
      vertex 14.6393 4.78934 2.061
    endloop
  endfacet
  facet normal 0 0 -1
    outer loop
      vertex 14.5988 4.85 2.061
      vertex 16.7607 4.78934 2.061
      vertex 14.6393 4.78934 2.061
    endloop
  endfacet
  facet normal -0.83147 0.55557 0
    outer loop
      vertex 14.5988 6.85 2.061
      vertex 14.5988 6.85 3.461
      vertex 14.6393 6.91066 2.061
    endloop
  endfacet
  facet normal -0.83147 0.55557 0
    outer loop
      vertex 14.6393 6.91066 2.061
      vertex 14.5988 6.85 3.461
      vertex 14.6393 6.91066 3.461
    endloop
  endfacet
  facet normal -0.55557 0.83147 0
    outer loop
      vertex 14.6393 6.91066 2.061
      vertex 14.6393 6.91066 3.461
      vertex 15.126 7.23582 2.061
    endloop
  endfacet
  facet normal -0.55557 0.83147 0
    outer loop
      vertex 15.126 7.23582 2.061
      vertex 14.6393 6.91066 3.461
      vertex 15.126 7.23582 3.461
    endloop
  endfacet
  facet normal -0.19509 0.980785 0
    outer loop
      vertex 15.126 7.23582 2.061
      vertex 15.126 7.23582 3.461
      vertex 15.7 7.35 2.061
    endloop
  endfacet
  facet normal -0.19509 0.980785 0
    outer loop
      vertex 15.7 7.35 2.061
      vertex 15.126 7.23582 3.461
      vertex 15.7 7.35 3.461
    endloop
  endfacet
  facet normal 0.19509 0.980785 0
    outer loop
      vertex 15.7 7.35 2.061
      vertex 15.7 7.35 3.461
      vertex 16.274 7.23582 2.061
    endloop
  endfacet
  facet normal 0.19509 0.980785 0
    outer loop
      vertex 16.274 7.23582 2.061
      vertex 15.7 7.35 3.461
      vertex 16.274 7.23582 3.461
    endloop
  endfacet
  facet normal 0.55557 0.83147 0
    outer loop
      vertex 16.274 7.23582 2.061
      vertex 16.274 7.23582 3.461
      vertex 16.7607 6.91066 2.061
    endloop
  endfacet
  facet normal 0.55557 0.83147 0
    outer loop
      vertex 16.7607 6.91066 2.061
      vertex 16.274 7.23582 3.461
      vertex 16.7607 6.91066 3.461
    endloop
  endfacet
  facet normal 0.83147 0.55557 0
    outer loop
      vertex 17.0858 6.42403 2.061
      vertex 16.7607 6.91066 2.061
      vertex 16.7607 6.91066 3.461
    endloop
  endfacet
  facet normal 0.83147 0.55557 0
    outer loop
      vertex 17.0858 6.42403 3.461
      vertex 17.0858 6.42403 2.061
      vertex 16.7607 6.91066 3.461
    endloop
  endfacet
  facet normal 0.980785 0.19509 0
    outer loop
      vertex 17.2 5.85 2.061
      vertex 17.0858 6.42403 2.061
      vertex 17.0858 6.42403 3.461
    endloop
  endfacet
  facet normal 0.980785 0.19509 0
    outer loop
      vertex 17.2 5.85 3.461
      vertex 17.2 5.85 2.061
      vertex 17.0858 6.42403 3.461
    endloop
  endfacet
  facet normal 0.980785 -0.19509 0
    outer loop
      vertex 17.0858 5.27597 3.461
      vertex 17.0858 5.27597 2.061
      vertex 17.2 5.85 2.061
    endloop
  endfacet
  facet normal 0.980785 -0.19509 0
    outer loop
      vertex 17.2 5.85 3.461
      vertex 17.0858 5.27597 3.461
      vertex 17.2 5.85 2.061
    endloop
  endfacet
  facet normal 0.83147 -0.55557 0
    outer loop
      vertex 16.7607 4.78934 3.461
      vertex 16.7607 4.78934 2.061
      vertex 17.0858 5.27597 2.061
    endloop
  endfacet
  facet normal 0.83147 -0.55557 0
    outer loop
      vertex 17.0858 5.27597 3.461
      vertex 16.7607 4.78934 3.461
      vertex 17.0858 5.27597 2.061
    endloop
  endfacet
  facet normal 0.55557 -0.83147 0
    outer loop
      vertex 16.274 4.46418 3.461
      vertex 16.274 4.46418 2.061
      vertex 16.7607 4.78934 2.061
    endloop
  endfacet
  facet normal 0.55557 -0.83147 0
    outer loop
      vertex 16.7607 4.78934 3.461
      vertex 16.274 4.46418 3.461
      vertex 16.7607 4.78934 2.061
    endloop
  endfacet
  facet normal 0.19509 -0.980785 0
    outer loop
      vertex 15.7 4.35 3.461
      vertex 15.7 4.35 2.061
      vertex 16.274 4.46418 2.061
    endloop
  endfacet
  facet normal 0.19509 -0.980785 0
    outer loop
      vertex 16.274 4.46418 3.461
      vertex 15.7 4.35 3.461
      vertex 16.274 4.46418 2.061
    endloop
  endfacet
  facet normal -0.19509 -0.980785 0
    outer loop
      vertex 15.126 4.46418 3.461
      vertex 15.126 4.46418 2.061
      vertex 15.7 4.35 2.061
    endloop
  endfacet
  facet normal -0.19509 -0.980785 0
    outer loop
      vertex 15.7 4.35 3.461
      vertex 15.126 4.46418 3.461
      vertex 15.7 4.35 2.061
    endloop
  endfacet
  facet normal -0.55557 -0.83147 0
    outer loop
      vertex 14.6393 4.78934 3.461
      vertex 14.6393 4.78934 2.061
      vertex 15.126 4.46418 2.061
    endloop
  endfacet
  facet normal -0.55557 -0.83147 0
    outer loop
      vertex 15.126 4.46418 3.461
      vertex 14.6393 4.78934 3.461
      vertex 15.126 4.46418 2.061
    endloop
  endfacet
endsolid OpenSCAD_Model
