  0
SECTION
  2
HEADER
  9
$ACADVER
  1
AC1009
  9
$EXTMIN
 10
0.0
 20
0.0
 30
0.0
  9
$EXTMAX
 10
1000.0
 20
1000.0
 30
0.0
  9
$FILLMODE
 70
 0
  9
$SPLFRAME
 70
 1
  0
ENDSEC
  0
SECTION
  2
TABLES
  0
TABLE
  2
LAYER
 70
1
  0
LAYER
  2
0
 70
     0
 62
     7
  6
CONTINUOUS
  0
ENDTAB
  0
ENDSEC
  0
SECTION
  2
ENTITIES
  0
LINE
  8
0
 62
     4
 10
4.45671
 20
0.51964
 30
0.0
 11
4.45671
 21
0.342503
 31
0.0
  0
LINE
  8
0
 62
     4
 10
4.45671
 20
0.342503
 30
0.0
 11
4.49214
 21
0.307075
 31
0.0
  0
LINE
  8
0
 62
     4
 10
4.49214
 20
0.307075
 30
0.0
 11
5.22439
 21
0.307075
 31
0.0
  0
LINE
  8
0
 62
     4
 10
5.22439
 20
0.307075
 30
0.0
 11
5.24804
 21
0.330675
 31
0.0
  0
LINE
  8
0
 62
     4
 10
5.24804
 20
0.330675
 30
0.0
 11
5.24804
 21
0.377929
 31
0.0
  0
LINE
  8
0
 62
     4
 10
5.24804
 20
0.377929
 30
0.0
 11
5.27165
 21
0.413357
 31
0.0
  0
LINE
  8
0
 62
     4
 10
5.27165
 20
0.413357
 30
0.0
 11
5.27165
 21
0.531467
 31
0.0
  0
LINE
  8
0
 62
     4
 10
5.27165
 20
0.531467
 30
0.0
 11
5.24804
 21
0.555122
 31
0.0
  0
LINE
  8
0
 62
     4
 10
5.24804
 20
0.555122
 30
0.0
 11
4.49214
 21
0.555122
 31
0.0
  0
LINE
  8
0
 62
     4
 10
4.49214
 20
0.555122
 30
0.0
 11
4.45671
 21
0.51964
 31
0.0
  0
LINE
  8
0
 62
     4
 10
3.44092
 20
0.448785
 30
0.0
 11
3.44092
 21
0.330675
 31
0.0
  0
LINE
  8
0
 62
     4
 10
3.44092
 20
0.330675
 30
0.0
 11
3.46457
 21
0.307075
 31
0.0
  0
LINE
  8
0
 62
     4
 10
3.46457
 20
0.307075
 30
0.0
 11
3.93701
 21
0.307075
 31
0.0
  0
LINE
  8
0
 62
     4
 10
3.93701
 20
0.307075
 30
0.0
 11
3.97244
 21
0.342503
 31
0.0
  0
LINE
  8
0
 62
     4
 10
3.97244
 20
0.342503
 30
0.0
 11
3.97244
 21
0.484213
 31
0.0
  0
LINE
  8
0
 62
     4
 10
3.97244
 20
0.484213
 30
0.0
 11
3.93701
 21
0.555122
 31
0.0
  0
LINE
  8
0
 62
     4
 10
3.93701
 20
0.555122
 30
0.0
 11
3.51183
 21
0.555122
 31
0.0
  0
LINE
  8
0
 62
     4
 10
3.51183
 20
0.555122
 30
0.0
 11
3.48817
 21
0.531467
 31
0.0
  0
LINE
  8
0
 62
     4
 10
3.48817
 20
0.531467
 30
0.0
 11
3.48817
 21
0.496039
 31
0.0
  0
LINE
  8
0
 62
     4
 10
3.48817
 20
0.496039
 30
0.0
 11
3.44092
 21
0.448785
 31
0.0
  0
LINE
  8
0
 62
     4
 10
6.25196
 20
1.4114
 30
0.0
 11
6.2251
 21
1.41683
 31
0.0
  0
LINE
  8
0
 62
     4
 10
6.2251
 20
1.41683
 30
0.0
 11
6.20324
 21
1.43164
 31
0.0
  0
LINE
  8
0
 62
     4
 10
6.20324
 20
1.43164
 30
0.0
 11
6.18842
 21
1.4535
 31
0.0
  0
LINE
  8
0
 62
     4
 10
6.18842
 20
1.4535
 30
0.0
 11
6.18306
 21
1.48031
 31
0.0
  0
LINE
  8
0
 62
     4
 10
6.18306
 20
1.48031
 30
0.0
 11
6.18842
 21
1.50717
 31
0.0
  0
LINE
  8
0
 62
     4
 10
6.18842
 20
1.50717
 30
0.0
 11
6.20324
 21
1.52903
 31
0.0
  0
LINE
  8
0
 62
     4
 10
6.20324
 20
1.52903
 30
0.0
 11
6.2251
 21
1.54383
 31
0.0
  0
LINE
  8
0
 62
     4
 10
6.2251
 20
1.54383
 30
0.0
 11
6.25196
 21
1.54921
 31
0.0
  0
LINE
  8
0
 62
     4
 10
6.25196
 20
1.54921
 30
0.0
 11
6.27875
 21
1.54383
 31
0.0
  0
LINE
  8
0
 62
     4
 10
6.27875
 20
1.54383
 30
0.0
 11
6.30067
 21
1.52903
 31
0.0
  0
LINE
  8
0
 62
     4
 10
6.30067
 20
1.52903
 30
0.0
 11
6.31543
 21
1.50717
 31
0.0
  0
LINE
  8
0
 62
     4
 10
6.31543
 20
1.50717
 30
0.0
 11
6.32086
 21
1.48031
 31
0.0
  0
LINE
  8
0
 62
     4
 10
6.32086
 20
1.48031
 30
0.0
 11
6.31543
 21
1.4535
 31
0.0
  0
LINE
  8
0
 62
     4
 10
6.31543
 20
1.4535
 30
0.0
 11
6.30067
 21
1.43164
 31
0.0
  0
LINE
  8
0
 62
     4
 10
6.30067
 20
1.43164
 30
0.0
 11
6.27875
 21
1.41683
 31
0.0
  0
LINE
  8
0
 62
     4
 10
6.27875
 20
1.41683
 30
0.0
 11
6.25196
 21
1.4114
 31
0.0
  0
LINE
  8
0
 62
     4
 10
6.42914
 20
1.65354
 30
0.0
 11
6.37007
 21
1.68896
 31
0.0
  0
LINE
  8
0
 62
     4
 10
6.37007
 20
1.68896
 30
0.0
 11
6.13385
 21
1.68896
 31
0.0
  0
LINE
  8
0
 62
     4
 10
6.13385
 20
1.68896
 30
0.0
 11
6.07482
 21
1.65354
 31
0.0
  0
LINE
  8
0
 62
     4
 10
6.07482
 20
1.65354
 30
0.0
 11
6.03939
 21
1.59446
 31
0.0
  0
LINE
  8
0
 62
     4
 10
6.03939
 20
1.59446
 30
0.0
 11
6.03939
 21
1.37006
 31
0.0
  0
LINE
  8
0
 62
     4
 10
6.03939
 20
1.37006
 30
0.0
 11
6.06299
 21
1.32281
 31
0.0
  0
LINE
  8
0
 62
     4
 10
6.06299
 20
1.32281
 30
0.0
 11
6.1575
 21
1.26378
 31
0.0
  0
LINE
  8
0
 62
     4
 10
6.1575
 20
1.26378
 30
0.0
 11
6.37007
 21
1.26378
 31
0.0
  0
LINE
  8
0
 62
     4
 10
6.37007
 20
1.26378
 30
0.0
 11
6.42914
 21
1.29921
 31
0.0
  0
LINE
  8
0
 62
     4
 10
6.42914
 20
1.29921
 30
0.0
 11
6.46457
 21
1.37006
 31
0.0
  0
LINE
  8
0
 62
     4
 10
6.46457
 20
1.37006
 30
0.0
 11
6.46457
 21
1.59446
 31
0.0
  0
LINE
  8
0
 62
     4
 10
6.46457
 20
1.59446
 30
0.0
 11
6.42914
 21
1.65354
 31
0.0
  0
LINE
  8
0
 62
     4
 10
0
 20
0.153537
 30
0.0
 11
0
 21
0.104329
 31
0.0
  0
LINE
  8
0
 62
     4
 10
0
 20
0.104329
 30
0.0
 11
0.283149
 21
0.104329
 31
0.0
  0
LINE
  8
0
 62
     4
 10
0.283149
 20
0.104329
 30
0.0
 11
0.283149
 21
0.0492079
 31
0.0
  0
LINE
  8
0
 62
     4
 10
0.283149
 20
0.0492079
 30
0.0
 11
0
 21
0.0492079
 31
0.0
  0
LINE
  8
0
 62
     4
 10
0
 20
0.0492079
 30
0.0
 11
0
 21
-0
 31
0.0
  0
LINE
  8
0
 62
     4
 10
0
 20
-0
 30
0.0
 11
6.74804
 21
-0
 31
0.0
  0
LINE
  8
0
 62
     4
 10
6.74804
 20
-0
 30
0.0
 11
6.74804
 21
0.153537
 31
0.0
  0
LINE
  8
0
 62
     4
 10
6.74804
 20
0.153537
 30
0.0
 11
0
 21
0.153537
 31
0.0
  0
LINE
  8
0
 62
     4
 10
2.93306
 20
0.555122
 30
0.0
 11
2.36615
 21
0.555122
 31
0.0
  0
LINE
  8
0
 62
     4
 10
2.36615
 20
0.555122
 30
0.0
 11
2.3425
 21
0.543294
 31
0.0
  0
LINE
  8
0
 62
     4
 10
2.3425
 20
0.543294
 30
0.0
 11
2.31299
 21
0.474338
 31
0.0
  0
LINE
  8
0
 62
     4
 10
2.31299
 20
0.474338
 30
0.0
 11
2.31299
 21
0.470432
 31
0.0
  0
LINE
  8
0
 62
     4
 10
2.31299
 20
0.470432
 30
0.0
 11
2.41808
 21
0.470432
 31
0.0
  0
LINE
  8
0
 62
     4
 10
2.41808
 20
0.470432
 30
0.0
 11
2.43886
 21
0.484864
 31
0.0
  0
LINE
  8
0
 62
     4
 10
2.43886
 20
0.484864
 30
0.0
 11
2.46457
 21
0.490126
 31
0.0
  0
LINE
  8
0
 62
     4
 10
2.46457
 20
0.490126
 30
0.0
 11
2.48981
 21
0.485026
 31
0.0
  0
LINE
  8
0
 62
     4
 10
2.48981
 20
0.485026
 30
0.0
 11
2.51047
 21
0.471138
 31
0.0
  0
LINE
  8
0
 62
     4
 10
2.51047
 20
0.471138
 30
0.0
 11
2.52436
 21
0.450467
 31
0.0
  0
LINE
  8
0
 62
     4
 10
2.52436
 20
0.450467
 30
0.0
 11
2.52951
 21
0.425185
 31
0.0
  0
LINE
  8
0
 62
     4
 10
2.52951
 20
0.425185
 30
0.0
 11
2.52436
 21
0.399957
 31
0.0
  0
LINE
  8
0
 62
     4
 10
2.52436
 20
0.399957
 30
0.0
 11
2.51047
 21
0.379286
 31
0.0
  0
LINE
  8
0
 62
     4
 10
2.51047
 20
0.379286
 30
0.0
 11
2.48981
 21
0.365397
 31
0.0
  0
LINE
  8
0
 62
     4
 10
2.48981
 20
0.365397
 30
0.0
 11
2.46457
 21
0.360243
 31
0.0
  0
LINE
  8
0
 62
     4
 10
2.46457
 20
0.360243
 30
0.0
 11
2.43886
 21
0.36556
 31
0.0
  0
LINE
  8
0
 62
     4
 10
2.43886
 20
0.36556
 30
0.0
 11
2.41808
 21
0.379883
 31
0.0
  0
LINE
  8
0
 62
     4
 10
2.41808
 20
0.379883
 30
0.0
 11
2.31299
 21
0.379883
 31
0.0
  0
LINE
  8
0
 62
     4
 10
2.31299
 20
0.379883
 30
0.0
 11
2.31299
 21
0.324815
 31
0.0
  0
LINE
  8
0
 62
     4
 10
2.31299
 20
0.324815
 30
0.0
 11
2.33072
 21
0.307075
 31
0.0
  0
LINE
  8
0
 62
     4
 10
2.33072
 20
0.307075
 30
0.0
 11
2.90944
 21
0.307075
 31
0.0
  0
LINE
  8
0
 62
     4
 10
2.90944
 20
0.307075
 30
0.0
 11
2.93306
 21
0.330675
 31
0.0
  0
LINE
  8
0
 62
     4
 10
2.93306
 20
0.330675
 30
0.0
 11
2.93306
 21
0.377929
 31
0.0
  0
LINE
  8
0
 62
     4
 10
2.93306
 20
0.377929
 30
0.0
 11
2.95671
 21
0.413357
 31
0.0
  0
LINE
  8
0
 62
     4
 10
2.95671
 20
0.413357
 30
0.0
 11
2.95671
 21
0.531467
 31
0.0
  0
LINE
  8
0
 62
     4
 10
2.95671
 20
0.531467
 30
0.0
 11
2.93306
 21
0.555122
 31
0.0
  0
ENDSEC
  0
EOF
