  0
SECTION
  2
HEADER
  9
$ACADVER
  1
AC1009
  9
$EXTMIN
 10
0.0
 20
0.0
 30
0.0
  9
$EXTMAX
 10
1000.0
 20
1000.0
 30
0.0
  9
$FILLMODE
 70
 0
  9
$SPLFRAME
 70
 1
  0
ENDSEC
  0
SECTION
  2
TABLES
  0
TABLE
  2
LAYER
 70
1
  0
LAYER
  2
0
 70
     0
 62
     7
  6
CONTINUOUS
  0
ENDTAB
  0
ENDSEC
  0
SECTION
  2
ENTITIES
  0
LINE
  8
0
 62
     160
 10
5.22439
 20
0.307075
 30
0.0
 11
5.22428
 21
0.307075
 31
0.0
  0
LINE
  8
0
 62
     160
 10
5.22428
 20
0.307075
 30
0.0
 11
4.48019
 21
0.318847
 31
0.0
  0
LINE
  8
0
 62
     160
 10
4.48019
 20
0.318847
 30
0.0
 11
4.48042
 21
0.334636
 31
0.0
  0
LINE
  8
0
 62
     160
 10
4.48042
 20
0.334636
 30
0.0
 11
5.22119
 21
0.322862
 31
0.0
  0
LINE
  8
0
 62
     160
 10
5.22119
 20
0.322862
 30
0.0
 11
5.24013
 21
0.341797
 31
0.0
  0
LINE
  8
0
 62
     160
 10
5.24013
 20
0.341797
 30
0.0
 11
5.24013
 21
0.385796
 31
0.0
  0
LINE
  8
0
 62
     160
 10
5.24013
 20
0.385796
 30
0.0
 11
5.24149
 21
0.390192
 31
0.0
  0
LINE
  8
0
 62
     160
 10
5.24149
 20
0.390192
 30
0.0
 11
5.26378
 21
0.423611
 31
0.0
  0
LINE
  8
0
 62
     160
 10
5.26378
 20
0.423611
 30
0.0
 11
5.26378
 21
0.536079
 31
0.0
  0
LINE
  8
0
 62
     160
 10
5.26378
 20
0.536079
 30
0.0
 11
5.24479
 21
0.555122
 31
0.0
  0
LINE
  8
0
 62
     160
 10
5.24479
 20
0.555122
 30
0.0
 11
4.49539
 21
0.555122
 31
0.0
  0
LINE
  8
0
 62
     160
 10
4.49539
 20
0.555122
 30
0.0
 11
4.47407
 21
0.5338
 31
0.0
  0
LINE
  8
0
 62
     160
 10
4.47407
 20
0.5338
 30
0.0
 11
4.46294
 21
0.544922
 31
0.0
  0
LINE
  8
0
 62
     160
 10
4.46294
 20
0.544922
 30
0.0
 11
4.48654
 21
0.568522
 31
0.0
  0
LINE
  8
0
 62
     160
 10
4.48654
 20
0.568522
 30
0.0
 11
4.49214
 21
0.570856
 31
0.0
  0
LINE
  8
0
 62
     160
 10
4.49214
 20
0.570856
 30
0.0
 11
5.24804
 21
0.570856
 31
0.0
  0
LINE
  8
0
 62
     160
 10
5.24804
 20
0.570856
 30
0.0
 11
5.25358
 21
0.568522
 31
0.0
  0
LINE
  8
0
 62
     160
 10
5.25358
 20
0.568522
 30
0.0
 11
5.27724
 21
0.544922
 31
0.0
  0
LINE
  8
0
 62
     160
 10
5.27724
 20
0.544922
 30
0.0
 11
5.27951
 21
0.539333
 31
0.0
  0
LINE
  8
0
 62
     160
 10
5.27951
 20
0.539333
 30
0.0
 11
5.27951
 21
0.421224
 31
0.0
  0
LINE
  8
0
 62
     160
 10
5.27951
 20
0.421224
 30
0.0
 11
5.27821
 21
0.416883
 31
0.0
  0
LINE
  8
0
 62
     160
 10
5.27821
 20
0.416883
 30
0.0
 11
5.25592
 21
0.38341
 31
0.0
  0
LINE
  8
0
 62
     160
 10
5.25592
 20
0.38341
 30
0.0
 11
5.25592
 21
0.338542
 31
0.0
  0
LINE
  8
0
 62
     160
 10
5.25592
 20
0.338542
 30
0.0
 11
5.25358
 21
0.333008
 31
0.0
  0
LINE
  8
0
 62
     160
 10
5.25358
 20
0.333008
 30
0.0
 11
5.22999
 21
0.309353
 31
0.0
  0
LINE
  8
0
 62
     160
 10
5.22999
 20
0.309353
 30
0.0
 11
5.22439
 21
0.307075
 31
0.0
  0
LINE
  8
0
 62
     160
 10
3.49474
 20
0.523167
 30
0.0
 11
3.48161
 21
0.531901
 31
0.0
  0
LINE
  8
0
 62
     160
 10
3.48161
 20
0.531901
 30
0.0
 11
3.50526
 21
0.567329
 31
0.0
  0
LINE
  8
0
 62
     160
 10
3.50526
 20
0.567329
 30
0.0
 11
3.51183
 21
0.570856
 31
0.0
  0
LINE
  8
0
 62
     160
 10
3.51183
 20
0.570856
 30
0.0
 11
3.93701
 21
0.570856
 31
0.0
  0
LINE
  8
0
 62
     160
 10
3.93701
 20
0.570856
 30
0.0
 11
3.94401
 21
0.566515
 31
0.0
  0
LINE
  8
0
 62
     160
 10
3.94401
 20
0.566515
 30
0.0
 11
3.95583
 21
0.54286
 31
0.0
  0
LINE
  8
0
 62
     160
 10
3.95583
 20
0.54286
 30
0.0
 11
3.94179
 21
0.535807
 31
0.0
  0
LINE
  8
0
 62
     160
 10
3.94179
 20
0.535807
 30
0.0
 11
3.93213
 21
0.555122
 31
0.0
  0
LINE
  8
0
 62
     160
 10
3.93213
 20
0.555122
 30
0.0
 11
3.516
 21
0.555122
 31
0.0
  0
LINE
  8
0
 62
     160
 10
3.516
 20
0.555122
 30
0.0
 11
3.49474
 21
0.523167
 31
0.0
  0
LINE
  8
0
 62
     160
 10
3.90349
 20
0.307346
 30
0.0
 11
3.89963
 21
0.322592
 31
0.0
  0
LINE
  8
0
 62
     160
 10
3.89963
 20
0.322592
 30
0.0
 11
3.94689
 21
0.334364
 31
0.0
  0
LINE
  8
0
 62
     160
 10
3.94689
 20
0.334364
 30
0.0
 11
3.95074
 21
0.319119
 31
0.0
  0
LINE
  8
0
 62
     160
 10
3.95074
 20
0.319119
 30
0.0
 11
3.90349
 21
0.307346
 31
0.0
  0
LINE
  8
0
 62
     160
 10
2.90944
 20
0.307075
 30
0.0
 11
2.35433
 21
0.307075
 31
0.0
  0
LINE
  8
0
 62
     160
 10
2.35433
 20
0.307075
 30
0.0
 11
2.35433
 21
0.322808
 31
0.0
  0
LINE
  8
0
 62
     160
 10
2.35433
 20
0.322808
 30
0.0
 11
2.90619
 21
0.322808
 31
0.0
  0
LINE
  8
0
 62
     160
 10
2.90619
 20
0.322808
 30
0.0
 11
2.92751
 21
0.344129
 31
0.0
  0
LINE
  8
0
 62
     160
 10
2.92751
 20
0.344129
 30
0.0
 11
2.93864
 21
0.333008
 31
0.0
  0
LINE
  8
0
 62
     160
 10
2.93864
 20
0.333008
 30
0.0
 11
2.91499
 21
0.309353
 31
0.0
  0
LINE
  8
0
 62
     160
 10
2.91499
 20
0.309353
 30
0.0
 11
2.90944
 21
0.307075
 31
0.0
  0
LINE
  8
0
 62
     160
 10
2.95014
 20
0.523167
 30
0.0
 11
2.92893
 21
0.555012
 31
0.0
  0
LINE
  8
0
 62
     160
 10
2.92893
 20
0.555012
 30
0.0
 11
2.3425
 21
0.555122
 31
0.0
  0
LINE
  8
0
 62
     160
 10
2.3425
 20
0.555122
 30
0.0
 11
2.34218
 21
0.570856
 31
0.0
  0
LINE
  8
0
 62
     160
 10
2.34218
 20
0.570856
 30
0.0
 11
2.93289
 21
0.570856
 31
0.0
  0
LINE
  8
0
 62
     160
 10
2.93289
 20
0.570856
 30
0.0
 11
2.93961
 21
0.567329
 31
0.0
  0
LINE
  8
0
 62
     160
 10
2.93961
 20
0.567329
 30
0.0
 11
2.96326
 21
0.531901
 31
0.0
  0
LINE
  8
0
 62
     160
 10
2.96326
 20
0.531901
 30
0.0
 11
2.95014
 21
0.523167
 31
0.0
  0
LINE
  8
0
 62
     160
 10
6.43614
 20
1.30355
 30
0.0
 11
6.4221
 21
1.3106
 31
0.0
  0
LINE
  8
0
 62
     160
 10
6.4221
 20
1.3106
 30
0.0
 11
6.45665
 21
1.37978
 31
0.0
  0
LINE
  8
0
 62
     160
 10
6.45665
 20
1.37978
 30
0.0
 11
6.45665
 21
1.60015
 31
0.0
  0
LINE
  8
0
 62
     160
 10
6.45665
 20
1.60015
 30
0.0
 11
6.42339
 21
1.65565
 31
0.0
  0
LINE
  8
0
 62
     160
 10
6.42339
 20
1.65565
 30
0.0
 11
6.36789
 21
1.68896
 31
0.0
  0
LINE
  8
0
 62
     160
 10
6.36789
 20
1.68896
 30
0.0
 11
6.13601
 21
1.68896
 31
0.0
  0
LINE
  8
0
 62
     160
 10
6.13601
 20
1.68896
 30
0.0
 11
6.09858
 21
1.66644
 31
0.0
  0
LINE
  8
0
 62
     160
 10
6.09858
 20
1.66644
 30
0.0
 11
6.09044
 21
1.67996
 31
0.0
  0
LINE
  8
0
 62
     160
 10
6.09044
 20
1.67996
 30
0.0
 11
6.12978
 21
1.70356
 31
0.0
  0
LINE
  8
0
 62
     160
 10
6.12978
 20
1.70356
 30
0.0
 11
6.13385
 21
1.70469
 31
0.0
  0
LINE
  8
0
 62
     160
 10
6.13385
 20
1.70469
 30
0.0
 11
6.37007
 21
1.70469
 31
0.0
  0
LINE
  8
0
 62
     160
 10
6.37007
 20
1.70469
 30
0.0
 11
6.37414
 21
1.70361
 31
0.0
  0
LINE
  8
0
 62
     160
 10
6.37414
 20
1.70361
 30
0.0
 11
6.43317
 21
1.66813
 31
0.0
  0
LINE
  8
0
 62
     160
 10
6.43317
 20
1.66813
 30
0.0
 11
6.43587
 21
1.66547
 31
0.0
  0
LINE
  8
0
 62
     160
 10
6.43587
 20
1.66547
 30
0.0
 11
6.47131
 21
1.60639
 31
0.0
  0
LINE
  8
0
 62
     160
 10
6.47131
 20
1.60639
 30
0.0
 11
6.47244
 21
1.60232
 31
0.0
  0
LINE
  8
0
 62
     160
 10
6.47244
 20
1.60232
 30
0.0
 11
6.47244
 21
1.37793
 31
0.0
  0
LINE
  8
0
 62
     160
 10
6.47244
 20
1.37793
 30
0.0
 11
6.47157
 21
1.3744
 31
0.0
  0
LINE
  8
0
 62
     160
 10
6.47157
 20
1.3744
 30
0.0
 11
6.43614
 21
1.30355
 31
0.0
  0
LINE
  8
0
 62
     160
 10
6.07482
 20
0.153537
 30
0.0
 11
3.90158
 21
0.153537
 31
0.0
  0
LINE
  8
0
 62
     160
 10
3.90158
 20
0.153537
 30
0.0
 11
3.90158
 21
0.169271
 31
0.0
  0
LINE
  8
0
 62
     160
 10
3.90158
 20
0.169271
 30
0.0
 11
6.07482
 21
0.169271
 31
0.0
  0
LINE
  8
0
 62
     160
 10
6.07482
 20
0.169271
 30
0.0
 11
6.07482
 21
0.153537
 31
0.0
  0
LINE
  8
0
 62
     160
 10
6.74804
 20
-0
 30
0.0
 11
4.32676
 21
-0
 31
0.0
  0
LINE
  8
0
 62
     160
 10
4.32676
 20
-0
 30
0.0
 11
4.32676
 21
0.0157335
 31
0.0
  0
LINE
  8
0
 62
     160
 10
4.32676
 20
0.0157335
 30
0.0
 11
6.74013
 21
0.0157335
 31
0.0
  0
LINE
  8
0
 62
     160
 10
6.74013
 20
0.0157335
 30
0.0
 11
6.74013
 21
0.153537
 31
0.0
  0
LINE
  8
0
 62
     160
 10
6.74013
 20
0.153537
 30
0.0
 11
6.42914
 21
0.153537
 31
0.0
  0
LINE
  8
0
 62
     160
 10
6.42914
 20
0.153537
 30
0.0
 11
6.42914
 21
0.169271
 31
0.0
  0
LINE
  8
0
 62
     160
 10
6.42914
 20
0.169271
 30
0.0
 11
6.74804
 21
0.169271
 31
0.0
  0
LINE
  8
0
 62
     160
 10
6.74804
 20
0.169271
 30
0.0
 11
6.75592
 21
0.161404
 31
0.0
  0
LINE
  8
0
 62
     160
 10
6.75592
 20
0.161404
 30
0.0
 11
6.75592
 21
0.00786675
 31
0.0
  0
LINE
  8
0
 62
     160
 10
6.75592
 20
0.00786675
 30
0.0
 11
6.74804
 21
-0
 31
0.0
  0
LINE
  8
0
 62
     160
 10
3.45275
 20
0.169271
 30
0.0
 11
0
 21
0.169271
 31
0.0
  0
LINE
  8
0
 62
     160
 10
0
 20
0.169271
 30
0.0
 11
0
 21
0.153537
 31
0.0
  0
LINE
  8
0
 62
     160
 10
0
 20
0.153537
 30
0.0
 11
3.45275
 21
0.153537
 31
0.0
  0
LINE
  8
0
 62
     160
 10
3.45275
 20
0.153537
 30
0.0
 11
3.45275
 21
0.169271
 31
0.0
  0
LINE
  8
0
 62
     160
 10
0
 20
0.0157335
 30
0.0
 11
0
 21
-0
 31
0.0
  0
LINE
  8
0
 62
     160
 10
0
 20
-0
 30
0.0
 11
3.87793
 21
-0
 31
0.0
  0
LINE
  8
0
 62
     160
 10
3.87793
 20
-0
 30
0.0
 11
3.87793
 21
0.0157335
 31
0.0
  0
LINE
  8
0
 62
     160
 10
3.87793
 20
0.0157335
 30
0.0
 11
0
 21
0.0157335
 31
0.0
  0
ENDSEC
  0
EOF
