solid OpenSCAD_Model
  facet normal -1 0 0
    outer loop
      vertex -5 -18.5 -1.5
      vertex -5 -18.5 1.5
      vertex -5 18.5 -1.5
    endloop
  endfacet
  facet normal -1 0 0
    outer loop
      vertex -5 18.5 -1.5
      vertex -5 -18.5 1.5
      vertex -5 18.5 1.5
    endloop
  endfacet
  facet normal 0 -1 0
    outer loop
      vertex -5 -18.5 1.5
      vertex -5 -18.5 -1.5
      vertex 5 -18.5 -1.5
    endloop
  endfacet
  facet normal 0 -1 0
    outer loop
      vertex 5 -18.5 1.5
      vertex -5 -18.5 1.5
      vertex 5 -18.5 -1.5
    endloop
  endfacet
  facet normal 0 0 -1
    outer loop
      vertex 1.71637 -13.1586 -1.5
      vertex -5 18.5 -1.5
      vertex 5 -18.5 -1.5
    endloop
  endfacet
  facet normal 0 0 -1
    outer loop
      vertex 0.341408 15.2164 -1.5
      vertex -5 18.5 -1.5
      vertex 5 18.5 -1.5
    endloop
  endfacet
  facet normal 0 0 -1
    outer loop
      vertex -5 -18.5 -1.5
      vertex -5 18.5 -1.5
      vertex -1.75 -13.5 -1.5
    endloop
  endfacet
  facet normal 0 0 -1
    outer loop
      vertex -5 -18.5 -1.5
      vertex -1.75 -13.5 -1.5
      vertex -1.71637 -13.8414 -1.5
    endloop
  endfacet
  facet normal 0 0 -1
    outer loop
      vertex -5 -18.5 -1.5
      vertex -1.71637 -13.8414 -1.5
      vertex -1.61679 -14.1697 -1.5
    endloop
  endfacet
  facet normal 0 0 -1
    outer loop
      vertex -5 -18.5 -1.5
      vertex -1.61679 -14.1697 -1.5
      vertex -1.45507 -14.4722 -1.5
    endloop
  endfacet
  facet normal 0 0 -1
    outer loop
      vertex -5 -18.5 -1.5
      vertex -1.45507 -14.4722 -1.5
      vertex -1.23744 -14.7374 -1.5
    endloop
  endfacet
  facet normal 0 0 -1
    outer loop
      vertex -5 -18.5 -1.5
      vertex -1.23744 -14.7374 -1.5
      vertex -0.972248 -14.9551 -1.5
    endloop
  endfacet
  facet normal 0 0 -1
    outer loop
      vertex -5 -18.5 -1.5
      vertex -0.972248 -14.9551 -1.5
      vertex 5 -18.5 -1.5
    endloop
  endfacet
  facet normal 0 0 -1
    outer loop
      vertex -0.972248 -14.9551 -1.5
      vertex -0.669696 -15.1168 -1.5
      vertex 5 -18.5 -1.5
    endloop
  endfacet
  facet normal 0 0 -1
    outer loop
      vertex 0 -15.25 -1.5
      vertex 5 -18.5 -1.5
      vertex -0.341408 -15.2164 -1.5
    endloop
  endfacet
  facet normal 0 0 -1
    outer loop
      vertex 0.341408 -15.2164 -1.5
      vertex 5 -18.5 -1.5
      vertex 0 -15.25 -1.5
    endloop
  endfacet
  facet normal 0 0 -1
    outer loop
      vertex 0.669696 -15.1168 -1.5
      vertex 5 -18.5 -1.5
      vertex 0.341408 -15.2164 -1.5
    endloop
  endfacet
  facet normal 0 0 -1
    outer loop
      vertex -1.45507 12.5278 -1.5
      vertex 5 -18.5 -1.5
      vertex -1.61679 12.8303 -1.5
    endloop
  endfacet
  facet normal 0 0 -1
    outer loop
      vertex 1.45507 -12.5278 -1.5
      vertex -5 18.5 -1.5
      vertex 1.61679 -12.8303 -1.5
    endloop
  endfacet
  facet normal 0 0 -1
    outer loop
      vertex 0 -11.75 -1.5
      vertex -5 18.5 -1.5
      vertex 0.341408 -11.7836 -1.5
    endloop
  endfacet
  facet normal 0 0 -1
    outer loop
      vertex 0.669696 -15.1168 -1.5
      vertex 0.972248 -14.9551 -1.5
      vertex 5 -18.5 -1.5
    endloop
  endfacet
  facet normal 0 0 -1
    outer loop
      vertex 0.341408 -11.7836 -1.5
      vertex -5 18.5 -1.5
      vertex 0.669696 -11.8832 -1.5
    endloop
  endfacet
  facet normal 0 0 -1
    outer loop
      vertex 0.972248 -14.9551 -1.5
      vertex 1.23744 -14.7374 -1.5
      vertex 5 -18.5 -1.5
    endloop
  endfacet
  facet normal 0 0 -1
    outer loop
      vertex 0.669696 -11.8832 -1.5
      vertex -5 18.5 -1.5
      vertex 0.972248 -12.0449 -1.5
    endloop
  endfacet
  facet normal 0 0 -1
    outer loop
      vertex 1.23744 -14.7374 -1.5
      vertex 1.45507 -14.4722 -1.5
      vertex 5 -18.5 -1.5
    endloop
  endfacet
  facet normal 0 0 -1
    outer loop
      vertex 1.45507 -14.4722 -1.5
      vertex 1.61679 -14.1697 -1.5
      vertex 5 -18.5 -1.5
    endloop
  endfacet
  facet normal 0 0 -1
    outer loop
      vertex 0.972248 -12.0449 -1.5
      vertex -5 18.5 -1.5
      vertex 1.23744 -12.2626 -1.5
    endloop
  endfacet
  facet normal 0 0 -1
    outer loop
      vertex 1.61679 -14.1697 -1.5
      vertex 1.71637 -13.8414 -1.5
      vertex 5 -18.5 -1.5
    endloop
  endfacet
  facet normal 0 0 -1
    outer loop
      vertex 1.23744 -12.2626 -1.5
      vertex -5 18.5 -1.5
      vertex 1.45507 -12.5278 -1.5
    endloop
  endfacet
  facet normal 0 0 -1
    outer loop
      vertex 1.71637 -13.8414 -1.5
      vertex 1.75 -13.5 -1.5
      vertex 5 -18.5 -1.5
    endloop
  endfacet
  facet normal 0 0 -1
    outer loop
      vertex 1.61679 -12.8303 -1.5
      vertex -5 18.5 -1.5
      vertex 1.71637 -13.1586 -1.5
    endloop
  endfacet
  facet normal 0 0 -1
    outer loop
      vertex 1.75 -13.5 -1.5
      vertex 1.71637 -13.1586 -1.5
      vertex 5 -18.5 -1.5
    endloop
  endfacet
  facet normal 0 0 -1
    outer loop
      vertex -0.341408 -11.7836 -1.5
      vertex -5 18.5 -1.5
      vertex 0 -11.75 -1.5
    endloop
  endfacet
  facet normal 0 0 -1
    outer loop
      vertex -0.669696 -11.8832 -1.5
      vertex -5 18.5 -1.5
      vertex -0.341408 -11.7836 -1.5
    endloop
  endfacet
  facet normal 0 0 -1
    outer loop
      vertex -0.972248 -12.0449 -1.5
      vertex -5 18.5 -1.5
      vertex -0.669696 -11.8832 -1.5
    endloop
  endfacet
  facet normal 0 0 -1
    outer loop
      vertex -1.23744 -12.2626 -1.5
      vertex -5 18.5 -1.5
      vertex -0.972248 -12.0449 -1.5
    endloop
  endfacet
  facet normal 0 0 -1
    outer loop
      vertex -1.45507 -12.5278 -1.5
      vertex -5 18.5 -1.5
      vertex -1.23744 -12.2626 -1.5
    endloop
  endfacet
  facet normal 0 0 -1
    outer loop
      vertex -1.61679 -12.8303 -1.5
      vertex -5 18.5 -1.5
      vertex -1.45507 -12.5278 -1.5
    endloop
  endfacet
  facet normal 0 0 -1
    outer loop
      vertex -1.71637 -13.1586 -1.5
      vertex -5 18.5 -1.5
      vertex -1.61679 -12.8303 -1.5
    endloop
  endfacet
  facet normal 0 0 -1
    outer loop
      vertex -1.75 -13.5 -1.5
      vertex -5 18.5 -1.5
      vertex -1.71637 -13.1586 -1.5
    endloop
  endfacet
  facet normal 0 0 -1
    outer loop
      vertex -1.71637 13.1586 -1.5
      vertex -5 18.5 -1.5
      vertex -1.75 13.5 -1.5
    endloop
  endfacet
  facet normal 0 0 -1
    outer loop
      vertex 5 -18.5 -1.5
      vertex -5 18.5 -1.5
      vertex -1.71637 13.1586 -1.5
    endloop
  endfacet
  facet normal 0 0 -1
    outer loop
      vertex 5 -18.5 -1.5
      vertex -1.71637 13.1586 -1.5
      vertex -1.61679 12.8303 -1.5
    endloop
  endfacet
  facet normal 0 0 -1
    outer loop
      vertex 1.71637 13.1586 -1.5
      vertex 5 18.5 -1.5
      vertex 1.61679 12.8303 -1.5
    endloop
  endfacet
  facet normal 0 0 -1
    outer loop
      vertex 5 -18.5 -1.5
      vertex -1.45507 12.5278 -1.5
      vertex -1.23744 12.2626 -1.5
    endloop
  endfacet
  facet normal 0 0 -1
    outer loop
      vertex 0.972248 14.9551 -1.5
      vertex 5 18.5 -1.5
      vertex 1.23744 14.7374 -1.5
    endloop
  endfacet
  facet normal 0 0 -1
    outer loop
      vertex 5 -18.5 -1.5
      vertex -1.23744 12.2626 -1.5
      vertex -0.972248 12.0449 -1.5
    endloop
  endfacet
  facet normal 0 0 -1
    outer loop
      vertex 5 -18.5 -1.5
      vertex -0.972248 12.0449 -1.5
      vertex -0.669696 11.8832 -1.5
    endloop
  endfacet
  facet normal 0 0 -1
    outer loop
      vertex 5 -18.5 -1.5
      vertex -0.669696 11.8832 -1.5
      vertex -0.341408 11.7836 -1.5
    endloop
  endfacet
  facet normal 0 0 -1
    outer loop
      vertex 5 -18.5 -1.5
      vertex -0.341408 11.7836 -1.5
      vertex 0 11.75 -1.5
    endloop
  endfacet
  facet normal 0 0 -1
    outer loop
      vertex 5 -18.5 -1.5
      vertex 0 11.75 -1.5
      vertex 0.341408 11.7836 -1.5
    endloop
  endfacet
  facet normal 0 0 -1
    outer loop
      vertex 5 -18.5 -1.5
      vertex 0.341408 11.7836 -1.5
      vertex 0.669696 11.8832 -1.5
    endloop
  endfacet
  facet normal 0 0 -1
    outer loop
      vertex 5 -18.5 -1.5
      vertex 0.669696 11.8832 -1.5
      vertex 0.972248 12.0449 -1.5
    endloop
  endfacet
  facet normal 0 0 -1
    outer loop
      vertex 5 -18.5 -1.5
      vertex 0.972248 12.0449 -1.5
      vertex 1.23744 12.2626 -1.5
    endloop
  endfacet
  facet normal 0 0 -1
    outer loop
      vertex 5 -18.5 -1.5
      vertex 1.23744 12.2626 -1.5
      vertex 1.45507 12.5278 -1.5
    endloop
  endfacet
  facet normal 0 0 -1
    outer loop
      vertex 5 -18.5 -1.5
      vertex 1.45507 12.5278 -1.5
      vertex 5 18.5 -1.5
    endloop
  endfacet
  facet normal 0 0 -1
    outer loop
      vertex 1.45507 12.5278 -1.5
      vertex 1.61679 12.8303 -1.5
      vertex 5 18.5 -1.5
    endloop
  endfacet
  facet normal 0 0 -1
    outer loop
      vertex 1.75 13.5 -1.5
      vertex 5 18.5 -1.5
      vertex 1.71637 13.1586 -1.5
    endloop
  endfacet
  facet normal 0 0 -1
    outer loop
      vertex 1.71637 13.8414 -1.5
      vertex 5 18.5 -1.5
      vertex 1.75 13.5 -1.5
    endloop
  endfacet
  facet normal 0 0 -1
    outer loop
      vertex 1.61679 14.1697 -1.5
      vertex 5 18.5 -1.5
      vertex 1.71637 13.8414 -1.5
    endloop
  endfacet
  facet normal 0 0 -1
    outer loop
      vertex 1.45507 14.4722 -1.5
      vertex 5 18.5 -1.5
      vertex 1.61679 14.1697 -1.5
    endloop
  endfacet
  facet normal 0 0 -1
    outer loop
      vertex 1.23744 14.7374 -1.5
      vertex 5 18.5 -1.5
      vertex 1.45507 14.4722 -1.5
    endloop
  endfacet
  facet normal 0 0 -1
    outer loop
      vertex 0.341408 15.2164 -1.5
      vertex 5 18.5 -1.5
      vertex 0.669696 15.1168 -1.5
    endloop
  endfacet
  facet normal 0 0 -1
    outer loop
      vertex 0.972248 14.9551 -1.5
      vertex 0.669696 15.1168 -1.5
      vertex 5 18.5 -1.5
    endloop
  endfacet
  facet normal 0 0 -1
    outer loop
      vertex 0 15.25 -1.5
      vertex -5 18.5 -1.5
      vertex 0.341408 15.2164 -1.5
    endloop
  endfacet
  facet normal 0 0 -1
    outer loop
      vertex -0.341408 15.2164 -1.5
      vertex -5 18.5 -1.5
      vertex 0 15.25 -1.5
    endloop
  endfacet
  facet normal 0 0 -1
    outer loop
      vertex -0.669696 15.1168 -1.5
      vertex -5 18.5 -1.5
      vertex -0.341408 15.2164 -1.5
    endloop
  endfacet
  facet normal 0 0 -1
    outer loop
      vertex -0.972248 14.9551 -1.5
      vertex -5 18.5 -1.5
      vertex -0.669696 15.1168 -1.5
    endloop
  endfacet
  facet normal 0 0 -1
    outer loop
      vertex -1.23744 14.7374 -1.5
      vertex -5 18.5 -1.5
      vertex -0.972248 14.9551 -1.5
    endloop
  endfacet
  facet normal 0 0 -1
    outer loop
      vertex -1.45507 14.4722 -1.5
      vertex -5 18.5 -1.5
      vertex -1.23744 14.7374 -1.5
    endloop
  endfacet
  facet normal 0 0 -1
    outer loop
      vertex -1.61679 14.1697 -1.5
      vertex -5 18.5 -1.5
      vertex -1.45507 14.4722 -1.5
    endloop
  endfacet
  facet normal 0 0 -1
    outer loop
      vertex -1.71637 13.8414 -1.5
      vertex -5 18.5 -1.5
      vertex -1.61679 14.1697 -1.5
    endloop
  endfacet
  facet normal 0 0 -1
    outer loop
      vertex -1.75 13.5 -1.5
      vertex -5 18.5 -1.5
      vertex -1.71637 13.8414 -1.5
    endloop
  endfacet
  facet normal 0 0 -1
    outer loop
      vertex -0.341408 -15.2164 -1.5
      vertex 5 -18.5 -1.5
      vertex -0.669696 -15.1168 -1.5
    endloop
  endfacet
  facet normal 0 1 0
    outer loop
      vertex -5 18.5 -1.5
      vertex -5 18.5 1.5
      vertex 5 18.5 -1.5
    endloop
  endfacet
  facet normal 0 1 0
    outer loop
      vertex 5 18.5 -1.5
      vertex -5 18.5 1.5
      vertex 5 18.5 1.5
    endloop
  endfacet
  facet normal 0 0 1
    outer loop
      vertex 0 -15.25 1.5
      vertex -5 -18.5 1.5
      vertex 5 -18.5 1.5
    endloop
  endfacet
  facet normal 0 0 1
    outer loop
      vertex -1.71637 13.1586 1.5
      vertex -5 18.5 1.5
      vertex 5 -18.5 1.5
    endloop
  endfacet
  facet normal 0 0 1
    outer loop
      vertex -0.669696 15.1168 1.5
      vertex -0.341408 15.2164 1.5
      vertex 5 18.5 1.5
    endloop
  endfacet
  facet normal 0 0 1
    outer loop
      vertex -5 18.5 1.5
      vertex -5 -18.5 1.5
      vertex -1.71637 -13.8414 1.5
    endloop
  endfacet
  facet normal 0 0 1
    outer loop
      vertex 0.341408 -15.2164 1.5
      vertex 0 -15.25 1.5
      vertex 5 -18.5 1.5
    endloop
  endfacet
  facet normal 0 0 1
    outer loop
      vertex -5 18.5 1.5
      vertex -1.71637 -13.8414 1.5
      vertex -1.75 -13.5 1.5
    endloop
  endfacet
  facet normal 0 0 1
    outer loop
      vertex 0.669696 -15.1168 1.5
      vertex 0.341408 -15.2164 1.5
      vertex 5 -18.5 1.5
    endloop
  endfacet
  facet normal 0 0 1
    outer loop
      vertex -5 18.5 1.5
      vertex -1.75 -13.5 1.5
      vertex -1.71637 -13.1586 1.5
    endloop
  endfacet
  facet normal 0 0 1
    outer loop
      vertex 0 15.25 1.5
      vertex 0.341408 15.2164 1.5
      vertex 5 18.5 1.5
    endloop
  endfacet
  facet normal 0 0 1
    outer loop
      vertex -5 18.5 1.5
      vertex -1.71637 -13.1586 1.5
      vertex -1.61679 -12.8303 1.5
    endloop
  endfacet
  facet normal 0 0 1
    outer loop
      vertex -5 18.5 1.5
      vertex -1.61679 -12.8303 1.5
      vertex -1.45507 -12.5278 1.5
    endloop
  endfacet
  facet normal 0 0 1
    outer loop
      vertex -5 18.5 1.5
      vertex -1.45507 -12.5278 1.5
      vertex -1.23744 -12.2626 1.5
    endloop
  endfacet
  facet normal 0 0 1
    outer loop
      vertex 1.23744 -14.7374 1.5
      vertex 0.972248 -14.9551 1.5
      vertex 5 -18.5 1.5
    endloop
  endfacet
  facet normal 0 0 1
    outer loop
      vertex -5 18.5 1.5
      vertex -1.23744 -12.2626 1.5
      vertex -0.972248 -12.0449 1.5
    endloop
  endfacet
  facet normal 0 0 1
    outer loop
      vertex 1.45507 -14.4722 1.5
      vertex 1.23744 -14.7374 1.5
      vertex 5 -18.5 1.5
    endloop
  endfacet
  facet normal 0 0 1
    outer loop
      vertex -5 18.5 1.5
      vertex -0.972248 -12.0449 1.5
      vertex -0.669696 -11.8832 1.5
    endloop
  endfacet
  facet normal 0 0 1
    outer loop
      vertex 0.972248 -14.9551 1.5
      vertex 0.669696 -15.1168 1.5
      vertex 5 -18.5 1.5
    endloop
  endfacet
  facet normal 0 0 1
    outer loop
      vertex -5 18.5 1.5
      vertex -0.669696 -11.8832 1.5
      vertex -0.341408 -11.7836 1.5
    endloop
  endfacet
  facet normal 0 0 1
    outer loop
      vertex -5 18.5 1.5
      vertex -0.341408 -11.7836 1.5
      vertex 0 -11.75 1.5
    endloop
  endfacet
  facet normal 0 0 1
    outer loop
      vertex 1.71637 -13.8414 1.5
      vertex 1.61679 -14.1697 1.5
      vertex 5 -18.5 1.5
    endloop
  endfacet
  facet normal 0 0 1
    outer loop
      vertex -5 18.5 1.5
      vertex 0 -11.75 1.5
      vertex 0.341408 -11.7836 1.5
    endloop
  endfacet
  facet normal 0 0 1
    outer loop
      vertex 1.61679 -14.1697 1.5
      vertex 1.45507 -14.4722 1.5
      vertex 5 -18.5 1.5
    endloop
  endfacet
  facet normal 0 0 1
    outer loop
      vertex -5 18.5 1.5
      vertex 0.341408 -11.7836 1.5
      vertex 0.669696 -11.8832 1.5
    endloop
  endfacet
  facet normal 0 0 1
    outer loop
      vertex -5 18.5 1.5
      vertex 0.669696 -11.8832 1.5
      vertex 0.972248 -12.0449 1.5
    endloop
  endfacet
  facet normal 0 0 1
    outer loop
      vertex 1.71637 -13.1586 1.5
      vertex 1.75 -13.5 1.5
      vertex 5 -18.5 1.5
    endloop
  endfacet
  facet normal 0 0 1
    outer loop
      vertex -5 18.5 1.5
      vertex 0.972248 -12.0449 1.5
      vertex 1.23744 -12.2626 1.5
    endloop
  endfacet
  facet normal 0 0 1
    outer loop
      vertex -5 18.5 1.5
      vertex 1.45507 -12.5278 1.5
      vertex 5 -18.5 1.5
    endloop
  endfacet
  facet normal 0 0 1
    outer loop
      vertex -5 18.5 1.5
      vertex 1.23744 -12.2626 1.5
      vertex 1.45507 -12.5278 1.5
    endloop
  endfacet
  facet normal 0 0 1
    outer loop
      vertex 1.45507 -12.5278 1.5
      vertex 1.61679 -12.8303 1.5
      vertex 5 -18.5 1.5
    endloop
  endfacet
  facet normal 0 0 1
    outer loop
      vertex -0.341408 -15.2164 1.5
      vertex -5 -18.5 1.5
      vertex 0 -15.25 1.5
    endloop
  endfacet
  facet normal 0 0 1
    outer loop
      vertex -0.669696 -15.1168 1.5
      vertex -5 -18.5 1.5
      vertex -0.341408 -15.2164 1.5
    endloop
  endfacet
  facet normal 0 0 1
    outer loop
      vertex -0.972248 -14.9551 1.5
      vertex -5 -18.5 1.5
      vertex -0.669696 -15.1168 1.5
    endloop
  endfacet
  facet normal 0 0 1
    outer loop
      vertex -1.23744 -14.7374 1.5
      vertex -5 -18.5 1.5
      vertex -0.972248 -14.9551 1.5
    endloop
  endfacet
  facet normal 0 0 1
    outer loop
      vertex -1.45507 -14.4722 1.5
      vertex -5 -18.5 1.5
      vertex -1.23744 -14.7374 1.5
    endloop
  endfacet
  facet normal 0 0 1
    outer loop
      vertex -1.61679 -14.1697 1.5
      vertex -5 -18.5 1.5
      vertex -1.45507 -14.4722 1.5
    endloop
  endfacet
  facet normal 0 0 1
    outer loop
      vertex -1.71637 -13.8414 1.5
      vertex -5 -18.5 1.5
      vertex -1.61679 -14.1697 1.5
    endloop
  endfacet
  facet normal 0 0 1
    outer loop
      vertex -1.61679 12.8303 1.5
      vertex -1.71637 13.1586 1.5
      vertex 5 -18.5 1.5
    endloop
  endfacet
  facet normal 0 0 1
    outer loop
      vertex -1.75 13.5 1.5
      vertex -5 18.5 1.5
      vertex -1.71637 13.1586 1.5
    endloop
  endfacet
  facet normal 0 0 1
    outer loop
      vertex -1.71637 13.8414 1.5
      vertex -5 18.5 1.5
      vertex -1.75 13.5 1.5
    endloop
  endfacet
  facet normal 0 0 1
    outer loop
      vertex -1.61679 14.1697 1.5
      vertex -5 18.5 1.5
      vertex -1.71637 13.8414 1.5
    endloop
  endfacet
  facet normal 0 0 1
    outer loop
      vertex 0.341408 15.2164 1.5
      vertex 0.669696 15.1168 1.5
      vertex 5 18.5 1.5
    endloop
  endfacet
  facet normal 0 0 1
    outer loop
      vertex -1.45507 14.4722 1.5
      vertex -5 18.5 1.5
      vertex -1.61679 14.1697 1.5
    endloop
  endfacet
  facet normal 0 0 1
    outer loop
      vertex -1.23744 14.7374 1.5
      vertex -5 18.5 1.5
      vertex -1.45507 14.4722 1.5
    endloop
  endfacet
  facet normal 0 0 1
    outer loop
      vertex -0.972248 14.9551 1.5
      vertex -5 18.5 1.5
      vertex -1.23744 14.7374 1.5
    endloop
  endfacet
  facet normal 0 0 1
    outer loop
      vertex 5 18.5 1.5
      vertex -5 18.5 1.5
      vertex -0.972248 14.9551 1.5
    endloop
  endfacet
  facet normal 0 0 1
    outer loop
      vertex -0.341408 15.2164 1.5
      vertex 0 15.25 1.5
      vertex 5 18.5 1.5
    endloop
  endfacet
  facet normal 0 0 1
    outer loop
      vertex 5 18.5 1.5
      vertex -0.972248 14.9551 1.5
      vertex -0.669696 15.1168 1.5
    endloop
  endfacet
  facet normal 0 0 1
    outer loop
      vertex 0.669696 15.1168 1.5
      vertex 0.972248 14.9551 1.5
      vertex 5 18.5 1.5
    endloop
  endfacet
  facet normal 0 0 1
    outer loop
      vertex 1.75 13.5 1.5
      vertex 1.71637 13.1586 1.5
      vertex 5 -18.5 1.5
    endloop
  endfacet
  facet normal 0 0 1
    outer loop
      vertex 1.45507 12.5278 1.5
      vertex 1.23744 12.2626 1.5
      vertex 5 -18.5 1.5
    endloop
  endfacet
  facet normal 0 0 1
    outer loop
      vertex 5 18.5 1.5
      vertex 0.972248 14.9551 1.5
      vertex 1.23744 14.7374 1.5
    endloop
  endfacet
  facet normal 0 0 1
    outer loop
      vertex 1.61679 12.8303 1.5
      vertex 1.45507 12.5278 1.5
      vertex 5 -18.5 1.5
    endloop
  endfacet
  facet normal 0 0 1
    outer loop
      vertex 5 18.5 1.5
      vertex 1.23744 14.7374 1.5
      vertex 1.45507 14.4722 1.5
    endloop
  endfacet
  facet normal 0 0 1
    outer loop
      vertex 1.71637 13.1586 1.5
      vertex 1.61679 12.8303 1.5
      vertex 5 -18.5 1.5
    endloop
  endfacet
  facet normal 0 0 1
    outer loop
      vertex 5 18.5 1.5
      vertex 1.45507 14.4722 1.5
      vertex 1.61679 14.1697 1.5
    endloop
  endfacet
  facet normal 0 0 1
    outer loop
      vertex 5 18.5 1.5
      vertex 1.71637 13.8414 1.5
      vertex 5 -18.5 1.5
    endloop
  endfacet
  facet normal 0 0 1
    outer loop
      vertex 5 18.5 1.5
      vertex 1.61679 14.1697 1.5
      vertex 1.71637 13.8414 1.5
    endloop
  endfacet
  facet normal 0 0 1
    outer loop
      vertex 1.71637 13.8414 1.5
      vertex 1.75 13.5 1.5
      vertex 5 -18.5 1.5
    endloop
  endfacet
  facet normal 0 0 1
    outer loop
      vertex 1.23744 12.2626 1.5
      vertex 0.972248 12.0449 1.5
      vertex 5 -18.5 1.5
    endloop
  endfacet
  facet normal 0 0 1
    outer loop
      vertex 0.972248 12.0449 1.5
      vertex 0.669696 11.8832 1.5
      vertex 5 -18.5 1.5
    endloop
  endfacet
  facet normal 0 0 1
    outer loop
      vertex 0.669696 11.8832 1.5
      vertex 0.341408 11.7836 1.5
      vertex 5 -18.5 1.5
    endloop
  endfacet
  facet normal 0 0 1
    outer loop
      vertex 0.341408 11.7836 1.5
      vertex 0 11.75 1.5
      vertex 5 -18.5 1.5
    endloop
  endfacet
  facet normal 0 0 1
    outer loop
      vertex 0 11.75 1.5
      vertex -0.341408 11.7836 1.5
      vertex 5 -18.5 1.5
    endloop
  endfacet
  facet normal 0 0 1
    outer loop
      vertex -0.341408 11.7836 1.5
      vertex -0.669696 11.8832 1.5
      vertex 5 -18.5 1.5
    endloop
  endfacet
  facet normal 0 0 1
    outer loop
      vertex -0.669696 11.8832 1.5
      vertex -0.972248 12.0449 1.5
      vertex 5 -18.5 1.5
    endloop
  endfacet
  facet normal 0 0 1
    outer loop
      vertex -0.972248 12.0449 1.5
      vertex -1.23744 12.2626 1.5
      vertex 5 -18.5 1.5
    endloop
  endfacet
  facet normal 0 0 1
    outer loop
      vertex -1.23744 12.2626 1.5
      vertex -1.45507 12.5278 1.5
      vertex 5 -18.5 1.5
    endloop
  endfacet
  facet normal 0 0 1
    outer loop
      vertex -1.45507 12.5278 1.5
      vertex -1.61679 12.8303 1.5
      vertex 5 -18.5 1.5
    endloop
  endfacet
  facet normal 0 0 1
    outer loop
      vertex 1.61679 -12.8303 1.5
      vertex 1.71637 -13.1586 1.5
      vertex 5 -18.5 1.5
    endloop
  endfacet
  facet normal 0 0 1
    outer loop
      vertex 1.75 -13.5 1.5
      vertex 1.71637 -13.8414 1.5
      vertex 5 -18.5 1.5
    endloop
  endfacet
  facet normal 1 0 0
    outer loop
      vertex 5 -18.5 1.5
      vertex 5 -18.5 -1.5
      vertex 5 18.5 -1.5
    endloop
  endfacet
  facet normal 1 0 0
    outer loop
      vertex 5 18.5 1.5
      vertex 5 -18.5 1.5
      vertex 5 18.5 -1.5
    endloop
  endfacet
  facet normal 0.995185 0.0980179 0
    outer loop
      vertex -1.75 -13.5 1.5
      vertex -1.71637 -13.8414 1.5
      vertex -1.71637 -13.8414 -1.5
    endloop
  endfacet
  facet normal 0.995185 0.0980179 0
    outer loop
      vertex -1.75 -13.5 -1.5
      vertex -1.75 -13.5 1.5
      vertex -1.71637 -13.8414 -1.5
    endloop
  endfacet
  facet normal 0.995185 -0.0980179 0
    outer loop
      vertex -1.71637 -13.1586 -1.5
      vertex -1.71637 -13.1586 1.5
      vertex -1.75 -13.5 1.5
    endloop
  endfacet
  facet normal 0.995185 -0.0980179 0
    outer loop
      vertex -1.75 -13.5 -1.5
      vertex -1.71637 -13.1586 -1.5
      vertex -1.75 -13.5 1.5
    endloop
  endfacet
  facet normal 0.95694 -0.290284 0
    outer loop
      vertex -1.61679 -12.8303 -1.5
      vertex -1.61679 -12.8303 1.5
      vertex -1.71637 -13.1586 1.5
    endloop
  endfacet
  facet normal 0.95694 -0.290284 0
    outer loop
      vertex -1.71637 -13.1586 -1.5
      vertex -1.61679 -12.8303 -1.5
      vertex -1.71637 -13.1586 1.5
    endloop
  endfacet
  facet normal 0.881922 -0.471396 0
    outer loop
      vertex -1.45507 -12.5278 -1.5
      vertex -1.45507 -12.5278 1.5
      vertex -1.61679 -12.8303 1.5
    endloop
  endfacet
  facet normal 0.881922 -0.471396 0
    outer loop
      vertex -1.61679 -12.8303 -1.5
      vertex -1.45507 -12.5278 -1.5
      vertex -1.61679 -12.8303 1.5
    endloop
  endfacet
  facet normal 0.77301 -0.634393 0
    outer loop
      vertex -1.23744 -12.2626 -1.5
      vertex -1.23744 -12.2626 1.5
      vertex -1.45507 -12.5278 1.5
    endloop
  endfacet
  facet normal 0.77301 -0.634393 0
    outer loop
      vertex -1.45507 -12.5278 -1.5
      vertex -1.23744 -12.2626 -1.5
      vertex -1.45507 -12.5278 1.5
    endloop
  endfacet
  facet normal 0.634393 -0.77301 0
    outer loop
      vertex -0.972248 -12.0449 -1.5
      vertex -0.972248 -12.0449 1.5
      vertex -1.23744 -12.2626 1.5
    endloop
  endfacet
  facet normal 0.634393 -0.77301 0
    outer loop
      vertex -1.23744 -12.2626 -1.5
      vertex -0.972248 -12.0449 -1.5
      vertex -1.23744 -12.2626 1.5
    endloop
  endfacet
  facet normal 0.471396 -0.881922 0
    outer loop
      vertex -0.669696 -11.8832 -1.5
      vertex -0.669696 -11.8832 1.5
      vertex -0.972248 -12.0449 1.5
    endloop
  endfacet
  facet normal 0.471396 -0.881922 0
    outer loop
      vertex -0.972248 -12.0449 -1.5
      vertex -0.669696 -11.8832 -1.5
      vertex -0.972248 -12.0449 1.5
    endloop
  endfacet
  facet normal 0.290284 -0.95694 0
    outer loop
      vertex -0.341408 -11.7836 -1.5
      vertex -0.341408 -11.7836 1.5
      vertex -0.669696 -11.8832 1.5
    endloop
  endfacet
  facet normal 0.290284 -0.95694 0
    outer loop
      vertex -0.669696 -11.8832 -1.5
      vertex -0.341408 -11.7836 -1.5
      vertex -0.669696 -11.8832 1.5
    endloop
  endfacet
  facet normal 0.0980179 -0.995185 0
    outer loop
      vertex 0 -11.75 -1.5
      vertex 0 -11.75 1.5
      vertex -0.341408 -11.7836 1.5
    endloop
  endfacet
  facet normal 0.0980179 -0.995185 0
    outer loop
      vertex -0.341408 -11.7836 -1.5
      vertex 0 -11.75 -1.5
      vertex -0.341408 -11.7836 1.5
    endloop
  endfacet
  facet normal -0.0980179 -0.995185 0
    outer loop
      vertex 0.341408 -11.7836 -1.5
      vertex 0.341408 -11.7836 1.5
      vertex 0 -11.75 1.5
    endloop
  endfacet
  facet normal -0.0980179 -0.995185 0
    outer loop
      vertex 0 -11.75 -1.5
      vertex 0.341408 -11.7836 -1.5
      vertex 0 -11.75 1.5
    endloop
  endfacet
  facet normal -0.290284 -0.95694 0
    outer loop
      vertex 0.669696 -11.8832 -1.5
      vertex 0.669696 -11.8832 1.5
      vertex 0.341408 -11.7836 1.5
    endloop
  endfacet
  facet normal -0.290284 -0.95694 0
    outer loop
      vertex 0.341408 -11.7836 -1.5
      vertex 0.669696 -11.8832 -1.5
      vertex 0.341408 -11.7836 1.5
    endloop
  endfacet
  facet normal -0.471396 -0.881922 0
    outer loop
      vertex 0.972248 -12.0449 -1.5
      vertex 0.972248 -12.0449 1.5
      vertex 0.669696 -11.8832 1.5
    endloop
  endfacet
  facet normal -0.471396 -0.881922 0
    outer loop
      vertex 0.669696 -11.8832 -1.5
      vertex 0.972248 -12.0449 -1.5
      vertex 0.669696 -11.8832 1.5
    endloop
  endfacet
  facet normal -0.634393 -0.77301 0
    outer loop
      vertex 1.23744 -12.2626 -1.5
      vertex 1.23744 -12.2626 1.5
      vertex 0.972248 -12.0449 1.5
    endloop
  endfacet
  facet normal -0.634393 -0.77301 0
    outer loop
      vertex 0.972248 -12.0449 -1.5
      vertex 1.23744 -12.2626 -1.5
      vertex 0.972248 -12.0449 1.5
    endloop
  endfacet
  facet normal -0.77301 -0.634393 0
    outer loop
      vertex 1.45507 -12.5278 1.5
      vertex 1.23744 -12.2626 1.5
      vertex 1.45507 -12.5278 -1.5
    endloop
  endfacet
  facet normal -0.77301 -0.634393 0
    outer loop
      vertex 1.45507 -12.5278 -1.5
      vertex 1.23744 -12.2626 1.5
      vertex 1.23744 -12.2626 -1.5
    endloop
  endfacet
  facet normal -0.881922 -0.471396 0
    outer loop
      vertex 1.61679 -12.8303 1.5
      vertex 1.45507 -12.5278 1.5
      vertex 1.61679 -12.8303 -1.5
    endloop
  endfacet
  facet normal -0.881922 -0.471396 0
    outer loop
      vertex 1.61679 -12.8303 -1.5
      vertex 1.45507 -12.5278 1.5
      vertex 1.45507 -12.5278 -1.5
    endloop
  endfacet
  facet normal -0.95694 -0.290284 0
    outer loop
      vertex 1.71637 -13.1586 1.5
      vertex 1.61679 -12.8303 1.5
      vertex 1.71637 -13.1586 -1.5
    endloop
  endfacet
  facet normal -0.95694 -0.290284 0
    outer loop
      vertex 1.71637 -13.1586 -1.5
      vertex 1.61679 -12.8303 1.5
      vertex 1.61679 -12.8303 -1.5
    endloop
  endfacet
  facet normal -0.995185 -0.0980179 0
    outer loop
      vertex 1.75 -13.5 1.5
      vertex 1.71637 -13.1586 1.5
      vertex 1.75 -13.5 -1.5
    endloop
  endfacet
  facet normal -0.995185 -0.0980179 0
    outer loop
      vertex 1.75 -13.5 -1.5
      vertex 1.71637 -13.1586 1.5
      vertex 1.71637 -13.1586 -1.5
    endloop
  endfacet
  facet normal -0.995185 0.0980179 0
    outer loop
      vertex 1.75 -13.5 1.5
      vertex 1.75 -13.5 -1.5
      vertex 1.71637 -13.8414 1.5
    endloop
  endfacet
  facet normal -0.995185 0.0980179 0
    outer loop
      vertex 1.71637 -13.8414 1.5
      vertex 1.75 -13.5 -1.5
      vertex 1.71637 -13.8414 -1.5
    endloop
  endfacet
  facet normal -0.95694 0.290284 0
    outer loop
      vertex 1.71637 -13.8414 1.5
      vertex 1.71637 -13.8414 -1.5
      vertex 1.61679 -14.1697 1.5
    endloop
  endfacet
  facet normal -0.95694 0.290284 0
    outer loop
      vertex 1.61679 -14.1697 1.5
      vertex 1.71637 -13.8414 -1.5
      vertex 1.61679 -14.1697 -1.5
    endloop
  endfacet
  facet normal -0.881922 0.471396 0
    outer loop
      vertex 1.61679 -14.1697 1.5
      vertex 1.61679 -14.1697 -1.5
      vertex 1.45507 -14.4722 1.5
    endloop
  endfacet
  facet normal -0.881922 0.471396 0
    outer loop
      vertex 1.45507 -14.4722 1.5
      vertex 1.61679 -14.1697 -1.5
      vertex 1.45507 -14.4722 -1.5
    endloop
  endfacet
  facet normal -0.77301 0.634393 0
    outer loop
      vertex 1.45507 -14.4722 1.5
      vertex 1.45507 -14.4722 -1.5
      vertex 1.23744 -14.7374 1.5
    endloop
  endfacet
  facet normal -0.77301 0.634393 0
    outer loop
      vertex 1.23744 -14.7374 1.5
      vertex 1.45507 -14.4722 -1.5
      vertex 1.23744 -14.7374 -1.5
    endloop
  endfacet
  facet normal -0.634393 0.77301 0
    outer loop
      vertex 1.23744 -14.7374 1.5
      vertex 1.23744 -14.7374 -1.5
      vertex 0.972248 -14.9551 1.5
    endloop
  endfacet
  facet normal -0.634393 0.77301 0
    outer loop
      vertex 0.972248 -14.9551 1.5
      vertex 1.23744 -14.7374 -1.5
      vertex 0.972248 -14.9551 -1.5
    endloop
  endfacet
  facet normal -0.471396 0.881922 0
    outer loop
      vertex 0.972248 -14.9551 1.5
      vertex 0.972248 -14.9551 -1.5
      vertex 0.669696 -15.1168 1.5
    endloop
  endfacet
  facet normal -0.471396 0.881922 0
    outer loop
      vertex 0.669696 -15.1168 1.5
      vertex 0.972248 -14.9551 -1.5
      vertex 0.669696 -15.1168 -1.5
    endloop
  endfacet
  facet normal -0.290284 0.95694 0
    outer loop
      vertex 0.669696 -15.1168 1.5
      vertex 0.669696 -15.1168 -1.5
      vertex 0.341408 -15.2164 1.5
    endloop
  endfacet
  facet normal -0.290284 0.95694 0
    outer loop
      vertex 0.341408 -15.2164 1.5
      vertex 0.669696 -15.1168 -1.5
      vertex 0.341408 -15.2164 -1.5
    endloop
  endfacet
  facet normal -0.0980179 0.995185 0
    outer loop
      vertex 0.341408 -15.2164 1.5
      vertex 0.341408 -15.2164 -1.5
      vertex 0 -15.25 1.5
    endloop
  endfacet
  facet normal -0.0980179 0.995185 0
    outer loop
      vertex 0 -15.25 1.5
      vertex 0.341408 -15.2164 -1.5
      vertex 0 -15.25 -1.5
    endloop
  endfacet
  facet normal 0.0980179 0.995185 0
    outer loop
      vertex 0 -15.25 1.5
      vertex 0 -15.25 -1.5
      vertex -0.341408 -15.2164 1.5
    endloop
  endfacet
  facet normal 0.0980179 0.995185 0
    outer loop
      vertex -0.341408 -15.2164 1.5
      vertex 0 -15.25 -1.5
      vertex -0.341408 -15.2164 -1.5
    endloop
  endfacet
  facet normal 0.290284 0.95694 0
    outer loop
      vertex -0.341408 -15.2164 1.5
      vertex -0.341408 -15.2164 -1.5
      vertex -0.669696 -15.1168 1.5
    endloop
  endfacet
  facet normal 0.290284 0.95694 0
    outer loop
      vertex -0.669696 -15.1168 1.5
      vertex -0.341408 -15.2164 -1.5
      vertex -0.669696 -15.1168 -1.5
    endloop
  endfacet
  facet normal 0.471396 0.881922 0
    outer loop
      vertex -0.669696 -15.1168 1.5
      vertex -0.669696 -15.1168 -1.5
      vertex -0.972248 -14.9551 1.5
    endloop
  endfacet
  facet normal 0.471396 0.881922 0
    outer loop
      vertex -0.972248 -14.9551 1.5
      vertex -0.669696 -15.1168 -1.5
      vertex -0.972248 -14.9551 -1.5
    endloop
  endfacet
  facet normal 0.634393 0.77301 0
    outer loop
      vertex -0.972248 -14.9551 1.5
      vertex -0.972248 -14.9551 -1.5
      vertex -1.23744 -14.7374 1.5
    endloop
  endfacet
  facet normal 0.634393 0.77301 0
    outer loop
      vertex -1.23744 -14.7374 1.5
      vertex -0.972248 -14.9551 -1.5
      vertex -1.23744 -14.7374 -1.5
    endloop
  endfacet
  facet normal 0.77301 0.634393 0
    outer loop
      vertex -1.45507 -14.4722 1.5
      vertex -1.23744 -14.7374 1.5
      vertex -1.23744 -14.7374 -1.5
    endloop
  endfacet
  facet normal 0.77301 0.634393 0
    outer loop
      vertex -1.45507 -14.4722 -1.5
      vertex -1.45507 -14.4722 1.5
      vertex -1.23744 -14.7374 -1.5
    endloop
  endfacet
  facet normal 0.881922 0.471396 0
    outer loop
      vertex -1.61679 -14.1697 1.5
      vertex -1.45507 -14.4722 1.5
      vertex -1.45507 -14.4722 -1.5
    endloop
  endfacet
  facet normal 0.881922 0.471396 0
    outer loop
      vertex -1.61679 -14.1697 -1.5
      vertex -1.61679 -14.1697 1.5
      vertex -1.45507 -14.4722 -1.5
    endloop
  endfacet
  facet normal 0.95694 0.290284 0
    outer loop
      vertex -1.71637 -13.8414 1.5
      vertex -1.61679 -14.1697 1.5
      vertex -1.61679 -14.1697 -1.5
    endloop
  endfacet
  facet normal 0.95694 0.290284 0
    outer loop
      vertex -1.71637 -13.8414 -1.5
      vertex -1.71637 -13.8414 1.5
      vertex -1.61679 -14.1697 -1.5
    endloop
  endfacet
  facet normal 0.995185 -0.0980179 0
    outer loop
      vertex -1.71637 13.8414 -1.5
      vertex -1.71637 13.8414 1.5
      vertex -1.75 13.5 1.5
    endloop
  endfacet
  facet normal 0.995185 -0.0980179 0
    outer loop
      vertex -1.75 13.5 -1.5
      vertex -1.71637 13.8414 -1.5
      vertex -1.75 13.5 1.5
    endloop
  endfacet
  facet normal 0.995185 0.0980179 0
    outer loop
      vertex -1.75 13.5 1.5
      vertex -1.71637 13.1586 1.5
      vertex -1.71637 13.1586 -1.5
    endloop
  endfacet
  facet normal 0.995185 0.0980179 0
    outer loop
      vertex -1.75 13.5 -1.5
      vertex -1.75 13.5 1.5
      vertex -1.71637 13.1586 -1.5
    endloop
  endfacet
  facet normal 0.95694 -0.290284 0
    outer loop
      vertex -1.61679 14.1697 -1.5
      vertex -1.61679 14.1697 1.5
      vertex -1.71637 13.8414 1.5
    endloop
  endfacet
  facet normal 0.95694 -0.290284 0
    outer loop
      vertex -1.71637 13.8414 -1.5
      vertex -1.61679 14.1697 -1.5
      vertex -1.71637 13.8414 1.5
    endloop
  endfacet
  facet normal 0.881922 -0.471396 0
    outer loop
      vertex -1.45507 14.4722 -1.5
      vertex -1.45507 14.4722 1.5
      vertex -1.61679 14.1697 1.5
    endloop
  endfacet
  facet normal 0.881922 -0.471396 0
    outer loop
      vertex -1.61679 14.1697 -1.5
      vertex -1.45507 14.4722 -1.5
      vertex -1.61679 14.1697 1.5
    endloop
  endfacet
  facet normal 0.77301 -0.634393 0
    outer loop
      vertex -1.23744 14.7374 -1.5
      vertex -1.23744 14.7374 1.5
      vertex -1.45507 14.4722 1.5
    endloop
  endfacet
  facet normal 0.77301 -0.634393 0
    outer loop
      vertex -1.45507 14.4722 -1.5
      vertex -1.23744 14.7374 -1.5
      vertex -1.45507 14.4722 1.5
    endloop
  endfacet
  facet normal 0.634393 -0.77301 0
    outer loop
      vertex -0.972248 14.9551 -1.5
      vertex -0.972248 14.9551 1.5
      vertex -1.23744 14.7374 1.5
    endloop
  endfacet
  facet normal 0.634393 -0.77301 0
    outer loop
      vertex -1.23744 14.7374 -1.5
      vertex -0.972248 14.9551 -1.5
      vertex -1.23744 14.7374 1.5
    endloop
  endfacet
  facet normal 0.471396 -0.881922 0
    outer loop
      vertex -0.669696 15.1168 -1.5
      vertex -0.669696 15.1168 1.5
      vertex -0.972248 14.9551 1.5
    endloop
  endfacet
  facet normal 0.471396 -0.881922 0
    outer loop
      vertex -0.972248 14.9551 -1.5
      vertex -0.669696 15.1168 -1.5
      vertex -0.972248 14.9551 1.5
    endloop
  endfacet
  facet normal 0.290284 -0.95694 0
    outer loop
      vertex -0.341408 15.2164 -1.5
      vertex -0.341408 15.2164 1.5
      vertex -0.669696 15.1168 1.5
    endloop
  endfacet
  facet normal 0.290284 -0.95694 0
    outer loop
      vertex -0.669696 15.1168 -1.5
      vertex -0.341408 15.2164 -1.5
      vertex -0.669696 15.1168 1.5
    endloop
  endfacet
  facet normal 0.0980179 -0.995185 0
    outer loop
      vertex 0 15.25 -1.5
      vertex 0 15.25 1.5
      vertex -0.341408 15.2164 1.5
    endloop
  endfacet
  facet normal 0.0980179 -0.995185 0
    outer loop
      vertex -0.341408 15.2164 -1.5
      vertex 0 15.25 -1.5
      vertex -0.341408 15.2164 1.5
    endloop
  endfacet
  facet normal -0.0980179 -0.995185 0
    outer loop
      vertex 0.341408 15.2164 -1.5
      vertex 0.341408 15.2164 1.5
      vertex 0 15.25 1.5
    endloop
  endfacet
  facet normal -0.0980179 -0.995185 0
    outer loop
      vertex 0 15.25 -1.5
      vertex 0.341408 15.2164 -1.5
      vertex 0 15.25 1.5
    endloop
  endfacet
  facet normal -0.290284 -0.95694 0
    outer loop
      vertex 0.669696 15.1168 -1.5
      vertex 0.669696 15.1168 1.5
      vertex 0.341408 15.2164 1.5
    endloop
  endfacet
  facet normal -0.290284 -0.95694 0
    outer loop
      vertex 0.341408 15.2164 -1.5
      vertex 0.669696 15.1168 -1.5
      vertex 0.341408 15.2164 1.5
    endloop
  endfacet
  facet normal -0.471396 -0.881922 0
    outer loop
      vertex 0.972248 14.9551 -1.5
      vertex 0.972248 14.9551 1.5
      vertex 0.669696 15.1168 1.5
    endloop
  endfacet
  facet normal -0.471396 -0.881922 0
    outer loop
      vertex 0.669696 15.1168 -1.5
      vertex 0.972248 14.9551 -1.5
      vertex 0.669696 15.1168 1.5
    endloop
  endfacet
  facet normal -0.634393 -0.77301 0
    outer loop
      vertex 1.23744 14.7374 -1.5
      vertex 1.23744 14.7374 1.5
      vertex 0.972248 14.9551 1.5
    endloop
  endfacet
  facet normal -0.634393 -0.77301 0
    outer loop
      vertex 0.972248 14.9551 -1.5
      vertex 1.23744 14.7374 -1.5
      vertex 0.972248 14.9551 1.5
    endloop
  endfacet
  facet normal -0.77301 -0.634393 0
    outer loop
      vertex 1.45507 14.4722 1.5
      vertex 1.23744 14.7374 1.5
      vertex 1.45507 14.4722 -1.5
    endloop
  endfacet
  facet normal -0.77301 -0.634393 0
    outer loop
      vertex 1.45507 14.4722 -1.5
      vertex 1.23744 14.7374 1.5
      vertex 1.23744 14.7374 -1.5
    endloop
  endfacet
  facet normal -0.881922 -0.471396 0
    outer loop
      vertex 1.61679 14.1697 1.5
      vertex 1.45507 14.4722 1.5
      vertex 1.61679 14.1697 -1.5
    endloop
  endfacet
  facet normal -0.881922 -0.471396 0
    outer loop
      vertex 1.61679 14.1697 -1.5
      vertex 1.45507 14.4722 1.5
      vertex 1.45507 14.4722 -1.5
    endloop
  endfacet
  facet normal -0.95694 -0.290284 0
    outer loop
      vertex 1.71637 13.8414 1.5
      vertex 1.61679 14.1697 1.5
      vertex 1.71637 13.8414 -1.5
    endloop
  endfacet
  facet normal -0.95694 -0.290284 0
    outer loop
      vertex 1.71637 13.8414 -1.5
      vertex 1.61679 14.1697 1.5
      vertex 1.61679 14.1697 -1.5
    endloop
  endfacet
  facet normal -0.995185 -0.0980179 0
    outer loop
      vertex 1.75 13.5 1.5
      vertex 1.71637 13.8414 1.5
      vertex 1.75 13.5 -1.5
    endloop
  endfacet
  facet normal -0.995185 -0.0980179 0
    outer loop
      vertex 1.75 13.5 -1.5
      vertex 1.71637 13.8414 1.5
      vertex 1.71637 13.8414 -1.5
    endloop
  endfacet
  facet normal -0.995185 0.0980179 0
    outer loop
      vertex 1.75 13.5 1.5
      vertex 1.75 13.5 -1.5
      vertex 1.71637 13.1586 1.5
    endloop
  endfacet
  facet normal -0.995185 0.0980179 0
    outer loop
      vertex 1.71637 13.1586 1.5
      vertex 1.75 13.5 -1.5
      vertex 1.71637 13.1586 -1.5
    endloop
  endfacet
  facet normal -0.95694 0.290284 0
    outer loop
      vertex 1.71637 13.1586 1.5
      vertex 1.71637 13.1586 -1.5
      vertex 1.61679 12.8303 1.5
    endloop
  endfacet
  facet normal -0.95694 0.290284 0
    outer loop
      vertex 1.61679 12.8303 1.5
      vertex 1.71637 13.1586 -1.5
      vertex 1.61679 12.8303 -1.5
    endloop
  endfacet
  facet normal -0.881922 0.471396 0
    outer loop
      vertex 1.61679 12.8303 1.5
      vertex 1.61679 12.8303 -1.5
      vertex 1.45507 12.5278 1.5
    endloop
  endfacet
  facet normal -0.881922 0.471396 0
    outer loop
      vertex 1.45507 12.5278 1.5
      vertex 1.61679 12.8303 -1.5
      vertex 1.45507 12.5278 -1.5
    endloop
  endfacet
  facet normal -0.77301 0.634393 0
    outer loop
      vertex 1.45507 12.5278 1.5
      vertex 1.45507 12.5278 -1.5
      vertex 1.23744 12.2626 1.5
    endloop
  endfacet
  facet normal -0.77301 0.634393 0
    outer loop
      vertex 1.23744 12.2626 1.5
      vertex 1.45507 12.5278 -1.5
      vertex 1.23744 12.2626 -1.5
    endloop
  endfacet
  facet normal -0.634393 0.77301 0
    outer loop
      vertex 1.23744 12.2626 1.5
      vertex 1.23744 12.2626 -1.5
      vertex 0.972248 12.0449 1.5
    endloop
  endfacet
  facet normal -0.634393 0.77301 0
    outer loop
      vertex 0.972248 12.0449 1.5
      vertex 1.23744 12.2626 -1.5
      vertex 0.972248 12.0449 -1.5
    endloop
  endfacet
  facet normal -0.471396 0.881922 0
    outer loop
      vertex 0.972248 12.0449 1.5
      vertex 0.972248 12.0449 -1.5
      vertex 0.669696 11.8832 1.5
    endloop
  endfacet
  facet normal -0.471396 0.881922 0
    outer loop
      vertex 0.669696 11.8832 1.5
      vertex 0.972248 12.0449 -1.5
      vertex 0.669696 11.8832 -1.5
    endloop
  endfacet
  facet normal -0.290284 0.95694 0
    outer loop
      vertex 0.669696 11.8832 1.5
      vertex 0.669696 11.8832 -1.5
      vertex 0.341408 11.7836 1.5
    endloop
  endfacet
  facet normal -0.290284 0.95694 0
    outer loop
      vertex 0.341408 11.7836 1.5
      vertex 0.669696 11.8832 -1.5
      vertex 0.341408 11.7836 -1.5
    endloop
  endfacet
  facet normal -0.0980179 0.995185 0
    outer loop
      vertex 0.341408 11.7836 1.5
      vertex 0.341408 11.7836 -1.5
      vertex 0 11.75 1.5
    endloop
  endfacet
  facet normal -0.0980179 0.995185 0
    outer loop
      vertex 0 11.75 1.5
      vertex 0.341408 11.7836 -1.5
      vertex 0 11.75 -1.5
    endloop
  endfacet
  facet normal 0.0980179 0.995185 0
    outer loop
      vertex 0 11.75 1.5
      vertex 0 11.75 -1.5
      vertex -0.341408 11.7836 1.5
    endloop
  endfacet
  facet normal 0.0980179 0.995185 0
    outer loop
      vertex -0.341408 11.7836 1.5
      vertex 0 11.75 -1.5
      vertex -0.341408 11.7836 -1.5
    endloop
  endfacet
  facet normal 0.290284 0.95694 0
    outer loop
      vertex -0.341408 11.7836 1.5
      vertex -0.341408 11.7836 -1.5
      vertex -0.669696 11.8832 1.5
    endloop
  endfacet
  facet normal 0.290284 0.95694 0
    outer loop
      vertex -0.669696 11.8832 1.5
      vertex -0.341408 11.7836 -1.5
      vertex -0.669696 11.8832 -1.5
    endloop
  endfacet
  facet normal 0.471396 0.881922 0
    outer loop
      vertex -0.669696 11.8832 1.5
      vertex -0.669696 11.8832 -1.5
      vertex -0.972248 12.0449 1.5
    endloop
  endfacet
  facet normal 0.471396 0.881922 0
    outer loop
      vertex -0.972248 12.0449 1.5
      vertex -0.669696 11.8832 -1.5
      vertex -0.972248 12.0449 -1.5
    endloop
  endfacet
  facet normal 0.634393 0.77301 0
    outer loop
      vertex -0.972248 12.0449 1.5
      vertex -0.972248 12.0449 -1.5
      vertex -1.23744 12.2626 1.5
    endloop
  endfacet
  facet normal 0.634393 0.77301 0
    outer loop
      vertex -1.23744 12.2626 1.5
      vertex -0.972248 12.0449 -1.5
      vertex -1.23744 12.2626 -1.5
    endloop
  endfacet
  facet normal 0.77301 0.634393 0
    outer loop
      vertex -1.45507 12.5278 1.5
      vertex -1.23744 12.2626 1.5
      vertex -1.23744 12.2626 -1.5
    endloop
  endfacet
  facet normal 0.77301 0.634393 0
    outer loop
      vertex -1.45507 12.5278 -1.5
      vertex -1.45507 12.5278 1.5
      vertex -1.23744 12.2626 -1.5
    endloop
  endfacet
  facet normal 0.881922 0.471396 0
    outer loop
      vertex -1.61679 12.8303 1.5
      vertex -1.45507 12.5278 1.5
      vertex -1.45507 12.5278 -1.5
    endloop
  endfacet
  facet normal 0.881922 0.471396 0
    outer loop
      vertex -1.61679 12.8303 -1.5
      vertex -1.61679 12.8303 1.5
      vertex -1.45507 12.5278 -1.5
    endloop
  endfacet
  facet normal 0.95694 0.290284 0
    outer loop
      vertex -1.71637 13.1586 1.5
      vertex -1.61679 12.8303 1.5
      vertex -1.61679 12.8303 -1.5
    endloop
  endfacet
  facet normal 0.95694 0.290284 0
    outer loop
      vertex -1.71637 13.1586 -1.5
      vertex -1.71637 13.1586 1.5
      vertex -1.61679 12.8303 -1.5
    endloop
  endfacet
endsolid OpenSCAD_Model
