  0
SECTION
  2
HEADER
  9
$ACADVER
  1
AC1009
  9
$EXTMIN
 10
0.0
 20
0.0
 30
0.0
  9
$EXTMAX
 10
1000.0
 20
1000.0
 30
0.0
  9
$FILLMODE
 70
 0
  9
$SPLFRAME
 70
 1
  0
ENDSEC
  0
SECTION
  2
TABLES
  0
TABLE
  2
LAYER
 70
1
  0
LAYER
  2
0
 70
     0
 62
     7
  6
CONTINUOUS
  0
ENDTAB
  0
ENDSEC
  0
SECTION
  2
ENTITIES
  0
LINE
  8
0
 62
     4
 10
3.85314
 20
1.61219
 30
0.0
 11
3.44764
 21
1.61219
 31
0.0
  0
LINE
  8
0
 62
     4
 10
3.44764
 20
1.61219
 30
0.0
 11
3.44764
 21
2.01774
 31
0.0
  0
LINE
  8
0
 62
     4
 10
3.44764
 20
2.01774
 30
0.0
 11
3.85314
 21
2.01774
 31
0.0
  0
LINE
  8
0
 62
     4
 10
3.85314
 20
2.01774
 30
0.0
 11
3.85314
 21
1.61219
 31
0.0
  0
LINE
  8
0
 62
     4
 10
5.83149
 20
3.73232
 30
0.0
 11
3.57557
 21
3.73232
 31
0.0
  0
LINE
  8
0
 62
     4
 10
3.57557
 20
3.73232
 30
0.0
 11
3.57557
 21
3.7264
 31
0.0
  0
LINE
  8
0
 62
     4
 10
3.57557
 20
3.7264
 30
0.0
 11
3.38465
 21
3.7264
 31
0.0
  0
LINE
  8
0
 62
     4
 10
3.38465
 20
3.7264
 30
0.0
 11
3.38465
 21
3.62131
 31
0.0
  0
LINE
  8
0
 62
     4
 10
3.38465
 20
3.62131
 30
0.0
 11
3.39903
 21
3.60047
 31
0.0
  0
LINE
  8
0
 62
     4
 10
3.39903
 20
3.60047
 30
0.0
 11
3.40435
 21
3.57482
 31
0.0
  0
LINE
  8
0
 62
     4
 10
3.40435
 20
3.57482
 30
0.0
 11
3.39919
 21
3.54958
 31
0.0
  0
LINE
  8
0
 62
     4
 10
3.39919
 20
3.54958
 30
0.0
 11
3.38525
 21
3.52892
 31
0.0
  0
LINE
  8
0
 62
     4
 10
3.38525
 20
3.52892
 30
0.0
 11
3.36464
 21
3.51503
 31
0.0
  0
LINE
  8
0
 62
     4
 10
3.36464
 20
3.51503
 30
0.0
 11
3.33936
 21
3.50988
 31
0.0
  0
LINE
  8
0
 62
     4
 10
3.33936
 20
3.50988
 30
0.0
 11
3.31407
 21
3.51503
 31
0.0
  0
LINE
  8
0
 62
     4
 10
3.31407
 20
3.51503
 30
0.0
 11
3.2934
 21
3.52892
 31
0.0
  0
LINE
  8
0
 62
     4
 10
3.2934
 20
3.52892
 30
0.0
 11
3.27951
 21
3.54958
 31
0.0
  0
LINE
  8
0
 62
     4
 10
3.27951
 20
3.54958
 30
0.0
 11
3.27442
 21
3.57482
 31
0.0
  0
LINE
  8
0
 62
     4
 10
3.27442
 20
3.57482
 30
0.0
 11
3.27968
 21
3.60047
 31
0.0
  0
LINE
  8
0
 62
     4
 10
3.27968
 20
3.60047
 30
0.0
 11
3.29411
 21
3.62131
 31
0.0
  0
LINE
  8
0
 62
     4
 10
3.29411
 20
3.62131
 30
0.0
 11
3.29411
 21
3.7264
 31
0.0
  0
LINE
  8
0
 62
     4
 10
3.29411
 20
3.7264
 30
0.0
 11
3.10314
 21
3.7264
 31
0.0
  0
LINE
  8
0
 62
     4
 10
3.10314
 20
3.7264
 30
0.0
 11
3.10314
 21
3.73232
 31
0.0
  0
LINE
  8
0
 62
     4
 10
3.10314
 20
3.73232
 30
0.0
 11
0.504069
 21
3.73232
 31
0.0
  0
LINE
  8
0
 62
     4
 10
0.504069
 20
3.73232
 30
0.0
 11
0.504069
 21
2.80078
 31
0.0
  0
LINE
  8
0
 62
     4
 10
0.504069
 20
2.80078
 30
0.0
 11
0.496365
 21
2.76199
 31
0.0
  0
LINE
  8
0
 62
     4
 10
0.496365
 20
2.76199
 30
0.0
 11
0.474392
 21
2.72911
 31
0.0
  0
LINE
  8
0
 62
     4
 10
0.474392
 20
2.72911
 30
0.0
 11
0.441515
 21
2.70714
 31
0.0
  0
LINE
  8
0
 62
     4
 10
0.441515
 20
2.70714
 30
0.0
 11
0.402724
 21
2.69943
 31
0.0
  0
LINE
  8
0
 62
     4
 10
0.402724
 20
2.69943
 30
0.0
 11
0.363878
 21
2.70714
 31
0.0
  0
LINE
  8
0
 62
     4
 10
0.363878
 20
2.70714
 30
0.0
 11
0.331054
 21
2.72911
 31
0.0
  0
LINE
  8
0
 62
     4
 10
0.331054
 20
2.72911
 30
0.0
 11
0.268175
 21
2.77126
 31
0.0
  0
LINE
  8
0
 62
     4
 10
0.268175
 20
2.77126
 30
0.0
 11
0.193901
 21
2.78592
 31
0.0
  0
LINE
  8
0
 62
     4
 10
0.193901
 20
2.78592
 30
0.0
 11
0.119629
 21
2.77126
 31
0.0
  0
LINE
  8
0
 62
     4
 10
0.119629
 20
2.77126
 30
0.0
 11
0.0567492
 21
2.72911
 31
0.0
  0
LINE
  8
0
 62
     4
 10
0.0567492
 20
2.72911
 30
0.0
 11
0.0145942
 21
2.66629
 31
0.0
  0
LINE
  8
0
 62
     4
 10
0.0145942
 20
2.66629
 30
0.0
 11
0
 21
2.59201
 31
0.0
  0
LINE
  8
0
 62
     4
 10
0
 20
2.59201
 30
0.0
 11
0.0145942
 21
2.51774
 31
0.0
  0
LINE
  8
0
 62
     4
 10
0.0145942
 20
2.51774
 30
0.0
 11
0.0567492
 21
2.45486
 31
0.0
  0
LINE
  8
0
 62
     4
 10
0.0567492
 20
2.45486
 30
0.0
 11
0.119629
 21
2.41276
 31
0.0
  0
LINE
  8
0
 62
     4
 10
0.119629
 20
2.41276
 30
0.0
 11
0.193901
 21
2.39811
 31
0.0
  0
LINE
  8
0
 62
     4
 10
0.193901
 20
2.39811
 30
0.0
 11
0.268175
 21
2.41276
 31
0.0
  0
LINE
  8
0
 62
     4
 10
0.268175
 20
2.41276
 30
0.0
 11
0.331054
 21
2.45486
 31
0.0
  0
LINE
  8
0
 62
     4
 10
0.331054
 20
2.45486
 30
0.0
 11
0.363878
 21
2.47694
 31
0.0
  0
LINE
  8
0
 62
     4
 10
0.363878
 20
2.47694
 30
0.0
 11
0.402724
 21
2.4846
 31
0.0
  0
LINE
  8
0
 62
     4
 10
0.402724
 20
2.4846
 30
0.0
 11
0.441569
 21
2.47694
 31
0.0
  0
LINE
  8
0
 62
     4
 10
0.441569
 20
2.47694
 30
0.0
 11
0.474392
 21
2.45486
 31
0.0
  0
LINE
  8
0
 62
     4
 10
0.474392
 20
2.45486
 30
0.0
 11
0.496419
 21
2.42204
 31
0.0
  0
LINE
  8
0
 62
     4
 10
0.496419
 20
2.42204
 30
0.0
 11
0.504124
 21
2.38319
 31
0.0
  0
LINE
  8
0
 62
     4
 10
0.504124
 20
2.38319
 30
0.0
 11
0.504124
 21
1.20209
 31
0.0
  0
LINE
  8
0
 62
     4
 10
0.504124
 20
1.20209
 30
0.0
 11
0.511339
 21
1.16558
 31
0.0
  0
LINE
  8
0
 62
     4
 10
0.511339
 20
1.16558
 30
0.0
 11
0.532064
 21
1.1346
 31
0.0
  0
LINE
  8
0
 62
     4
 10
0.532064
 20
1.1346
 30
0.0
 11
0.562989
 21
1.11388
 31
0.0
  0
LINE
  8
0
 62
     4
 10
0.562989
 20
1.11388
 30
0.0
 11
0.599556
 21
1.10666
 31
0.0
  0
LINE
  8
0
 62
     4
 10
0.599556
 20
1.10666
 30
0.0
 11
0.636122
 21
1.11388
 31
0.0
  0
LINE
  8
0
 62
     4
 10
0.636122
 20
1.11388
 30
0.0
 11
0.6671
 21
1.1346
 31
0.0
  0
LINE
  8
0
 62
     4
 10
0.6671
 20
1.1346
 30
0.0
 11
0.731825
 21
1.17806
 31
0.0
  0
LINE
  8
0
 62
     4
 10
0.731825
 20
1.17806
 30
0.0
 11
0.808376
 21
1.19314
 31
0.0
  0
LINE
  8
0
 62
     4
 10
0.808376
 20
1.19314
 30
0.0
 11
0.884819
 21
1.17806
 31
0.0
  0
LINE
  8
0
 62
     4
 10
0.884819
 20
1.17806
 30
0.0
 11
0.949707
 21
1.1346
 31
0.0
  0
LINE
  8
0
 62
     4
 10
0.949707
 20
1.1346
 30
0.0
 11
0.993056
 21
1.06988
 31
0.0
  0
LINE
  8
0
 62
     4
 10
0.993056
 20
1.06988
 30
0.0
 11
1.00819
 21
0.993326
 31
0.0
  0
LINE
  8
0
 62
     4
 10
1.00819
 20
0.993326
 30
0.0
 11
0.993056
 21
0.916829
 31
0.0
  0
LINE
  8
0
 62
     4
 10
0.993056
 20
0.916829
 30
0.0
 11
0.949707
 21
0.852051
 31
0.0
  0
LINE
  8
0
 62
     4
 10
0.949707
 20
0.852051
 30
0.0
 11
0.884874
 21
0.808649
 31
0.0
  0
LINE
  8
0
 62
     4
 10
0.884874
 20
0.808649
 30
0.0
 11
0.808376
 21
0.793511
 31
0.0
  0
LINE
  8
0
 62
     4
 10
0.808376
 20
0.793511
 30
0.0
 11
0.731825
 21
0.808649
 31
0.0
  0
LINE
  8
0
 62
     4
 10
0.731825
 20
0.808649
 30
0.0
 11
0.6671
 21
0.852051
 31
0.0
  0
LINE
  8
0
 62
     4
 10
0.6671
 20
0.852051
 30
0.0
 11
0.636122
 21
0.872775
 31
0.0
  0
LINE
  8
0
 62
     4
 10
0.636122
 20
0.872775
 30
0.0
 11
0.59961
 21
0.879992
 31
0.0
  0
LINE
  8
0
 62
     4
 10
0.59961
 20
0.879992
 30
0.0
 11
0.563043
 21
0.872775
 31
0.0
  0
LINE
  8
0
 62
     4
 10
0.563043
 20
0.872775
 30
0.0
 11
0.532064
 21
0.852051
 31
0.0
  0
LINE
  8
0
 62
     4
 10
0.532064
 20
0.852051
 30
0.0
 11
0.511339
 21
0.821126
 31
0.0
  0
LINE
  8
0
 62
     4
 10
0.511339
 20
0.821126
 30
0.0
 11
0.504124
 21
0.78456
 31
0.0
  0
LINE
  8
0
 62
     4
 10
0.504124
 20
0.78456
 30
0.0
 11
0.504124
 21
-0
 31
0.0
  0
LINE
  8
0
 62
     4
 10
0.504124
 20
-0
 30
0.0
 11
3.67008
 21
-0
 31
0.0
  0
LINE
  8
0
 62
     4
 10
3.67008
 20
-0
 30
0.0
 11
3.67008
 21
0.00591363
 31
0.0
  0
LINE
  8
0
 62
     4
 10
3.67008
 20
0.00591363
 30
0.0
 11
3.861
 21
0.00591363
 31
0.0
  0
LINE
  8
0
 62
     4
 10
3.861
 20
0.00591363
 30
0.0
 11
3.861
 21
0.111003
 31
0.0
  0
LINE
  8
0
 62
     4
 10
3.861
 20
0.111003
 30
0.0
 11
3.84657
 21
0.13189
 31
0.0
  0
LINE
  8
0
 62
     4
 10
3.84657
 20
0.13189
 30
0.0
 11
3.84131
 21
0.157497
 31
0.0
  0
LINE
  8
0
 62
     4
 10
3.84131
 20
0.157497
 30
0.0
 11
3.8464
 21
0.182781
 31
0.0
  0
LINE
  8
0
 62
     4
 10
3.8464
 20
0.182781
 30
0.0
 11
3.86035
 21
0.20345
 31
0.0
  0
LINE
  8
0
 62
     4
 10
3.86035
 20
0.20345
 30
0.0
 11
3.88097
 21
0.217339
 31
0.0
  0
LINE
  8
0
 62
     4
 10
3.88097
 20
0.217339
 30
0.0
 11
3.90631
 21
0.222439
 31
0.0
  0
LINE
  8
0
 62
     4
 10
3.90631
 20
0.222439
 30
0.0
 11
3.93153
 21
0.217339
 31
0.0
  0
LINE
  8
0
 62
     4
 10
3.93153
 20
0.217339
 30
0.0
 11
3.95221
 21
0.20345
 31
0.0
  0
LINE
  8
0
 62
     4
 10
3.95221
 20
0.20345
 30
0.0
 11
3.9661
 21
0.182781
 31
0.0
  0
LINE
  8
0
 62
     4
 10
3.9661
 20
0.182781
 30
0.0
 11
3.97125
 21
0.157497
 31
0.0
  0
LINE
  8
0
 62
     4
 10
3.97125
 20
0.157497
 30
0.0
 11
3.96593
 21
0.13189
 31
0.0
  0
LINE
  8
0
 62
     4
 10
3.96593
 20
0.13189
 30
0.0
 11
3.95156
 21
0.111003
 31
0.0
  0
LINE
  8
0
 62
     4
 10
3.95156
 20
0.111003
 30
0.0
 11
3.95156
 21
0.00591363
 31
0.0
  0
LINE
  8
0
 62
     4
 10
3.95156
 20
0.00591363
 30
0.0
 11
4.14253
 21
0.00591363
 31
0.0
  0
LINE
  8
0
 62
     4
 10
4.14253
 20
0.00591363
 30
0.0
 11
4.14253
 21
-0
 31
0.0
  0
LINE
  8
0
 62
     4
 10
4.14253
 20
-0
 30
0.0
 11
5.83149
 21
-0
 31
0.0
  0
LINE
  8
0
 62
     4
 10
5.83149
 20
-0
 30
0.0
 11
5.85514
 21
0.0236544
 31
0.0
  0
LINE
  8
0
 62
     4
 10
5.85514
 20
0.0236544
 30
0.0
 11
5.85514
 21
3.70865
 31
0.0
  0
LINE
  8
0
 62
     4
 10
5.85514
 20
3.70865
 30
0.0
 11
5.83149
 21
3.73232
 31
0.0
  0
ENDSEC
  0
EOF
