solid OpenSCAD_Model
  facet normal -1 0 0
    outer loop
      vertex 0 11.1 1.4
      vertex 0 11.7 0
      vertex 0 0.6 1.4
    endloop
  endfacet
  facet normal -1 0 0
    outer loop
      vertex 0 0 0
      vertex 0 0 2.6
      vertex 0 0.6 1.4
    endloop
  endfacet
  facet normal -1 0 0
    outer loop
      vertex 0 0 0
      vertex 0 0.6 1.4
      vertex 0 11.7 0
    endloop
  endfacet
  facet normal -1 0 0
    outer loop
      vertex 0 11.7 0
      vertex 0 11.1 1.4
      vertex 0 11.1 2.6
    endloop
  endfacet
  facet normal -1 0 0
    outer loop
      vertex 0 11.7 0
      vertex 0 11.1 2.6
      vertex 0 11.7 2.6
    endloop
  endfacet
  facet normal -1 0 0
    outer loop
      vertex 0 0.6 1.4
      vertex 0 0 2.6
      vertex 0 0.6 2.6
    endloop
  endfacet
  facet normal 0 -1 0
    outer loop
      vertex 0 0 2.6
      vertex 0 0 0
      vertex 4.2 0 0.741
    endloop
  endfacet
  facet normal 0 -1 0
    outer loop
      vertex 4.2 0 3.341
      vertex 0 0 2.6
      vertex 4.2 0 0.741
    endloop
  endfacet
  facet normal 0.173745 0 -0.984791
    outer loop
      vertex 0 0 0
      vertex 0 11.7 0
      vertex 4.2 0 0.741
    endloop
  endfacet
  facet normal 0.173745 0 -0.984791
    outer loop
      vertex 4.2 6.85 0.741
      vertex 0 11.7 0
      vertex 4.2 11.7 0.741
    endloop
  endfacet
  facet normal 0.173745 0 -0.984791
    outer loop
      vertex 4.2 4.85 0.741
      vertex 0 11.7 0
      vertex 4.2 6.85 0.741
    endloop
  endfacet
  facet normal 0.173745 0 -0.984791
    outer loop
      vertex 4.2 0 0.741
      vertex 0 11.7 0
      vertex 4.2 4.85 0.741
    endloop
  endfacet
  facet normal 0 1 0
    outer loop
      vertex 0 11.7 0
      vertex 0 11.7 2.6
      vertex 4.2 11.7 0.741
    endloop
  endfacet
  facet normal 0 1 0
    outer loop
      vertex 4.2 11.7 0.741
      vertex 0 11.7 2.6
      vertex 4.2 11.7 3.341
    endloop
  endfacet
  facet normal -0.173745 0 0.984791
    outer loop
      vertex 0 11.7 2.6
      vertex 0 11.1 2.6
      vertex 4.2 11.1 3.341
    endloop
  endfacet
  facet normal -0.173745 0 0.984791
    outer loop
      vertex 4.2 11.7 3.341
      vertex 0 11.7 2.6
      vertex 4.2 11.1 3.341
    endloop
  endfacet
  facet normal 0 -1 0
    outer loop
      vertex 0 11.1 2.6
      vertex 0 11.1 1.4
      vertex 4.2 11.1 2.141
    endloop
  endfacet
  facet normal 0 -1 0
    outer loop
      vertex 4.2 11.1 3.341
      vertex 0 11.1 2.6
      vertex 4.2 11.1 2.141
    endloop
  endfacet
  facet normal -0.173745 0 0.984791
    outer loop
      vertex 0 11.1 1.4
      vertex 0 0.6 1.4
      vertex 4.2 0.6 2.141
    endloop
  endfacet
  facet normal -0.173745 0 0.984791
    outer loop
      vertex 4.2 11.1 2.141
      vertex 0 11.1 1.4
      vertex 4.2 0.6 2.141
    endloop
  endfacet
  facet normal 0 1 0
    outer loop
      vertex 0 0.6 1.4
      vertex 0 0.6 2.6
      vertex 4.2 0.6 2.141
    endloop
  endfacet
  facet normal 0 1 0
    outer loop
      vertex 4.2 0.6 2.141
      vertex 0 0.6 2.6
      vertex 4.2 0.6 3.341
    endloop
  endfacet
  facet normal -0.173745 0 0.984791
    outer loop
      vertex 0 0.6 2.6
      vertex 0 0 2.6
      vertex 4.2 0 3.341
    endloop
  endfacet
  facet normal -0.173745 0 0.984791
    outer loop
      vertex 4.2 0.6 3.341
      vertex 0 0.6 2.6
      vertex 4.2 0 3.341
    endloop
  endfacet
  facet normal 1 0 0
    outer loop
      vertex 4.2 0.6 2.141
      vertex 4.2 0 0.741
      vertex 4.2 4.85 0.741
    endloop
  endfacet
  facet normal 1 0 0
    outer loop
      vertex 4.2 11.7 0.741
      vertex 4.2 6.85 2.141
      vertex 4.2 6.85 0.741
    endloop
  endfacet
  facet normal 1 0 0
    outer loop
      vertex 4.2 11.1 2.141
      vertex 4.2 6.85 2.141
      vertex 4.2 11.7 0.741
    endloop
  endfacet
  facet normal 1 0 0
    outer loop
      vertex 4.2 11.7 3.341
      vertex 4.2 11.1 2.141
      vertex 4.2 11.7 0.741
    endloop
  endfacet
  facet normal 1 0 0
    outer loop
      vertex 4.2 0.6 2.141
      vertex 4.2 0.6 3.341
      vertex 4.2 0 3.341
    endloop
  endfacet
  facet normal 1 0 0
    outer loop
      vertex 4.2 0 3.341
      vertex 4.2 0 0.741
      vertex 4.2 0.6 2.141
    endloop
  endfacet
  facet normal 1 0 0
    outer loop
      vertex 4.2 11.1 3.341
      vertex 4.2 11.1 2.141
      vertex 4.2 11.7 3.341
    endloop
  endfacet
  facet normal 1 0 0
    outer loop
      vertex 4.2 11.1 2.141
      vertex 4.2 4.85 2.141
      vertex 4.2 6.85 2.141
    endloop
  endfacet
  facet normal 1 0 0
    outer loop
      vertex 4.2 4.85 2.141
      vertex 4.2 0.6 2.141
      vertex 4.2 4.85 0.741
    endloop
  endfacet
  facet normal 1 0 0
    outer loop
      vertex 4.2 11.1 2.141
      vertex 4.2 0.6 2.141
      vertex 4.2 4.85 2.141
    endloop
  endfacet
  facet normal 0 -1 0
    outer loop
      vertex 4.2 4.85 2.141
      vertex 4.2 4.85 0.741
      vertex 7.09881 4.85 2.141
    endloop
  endfacet
  facet normal 0 -1 0
    outer loop
      vertex 7.09881 4.85 2.141
      vertex 4.2 4.85 0.741
      vertex 7.09881 4.85 0.741
    endloop
  endfacet
  facet normal 0 1 0
    outer loop
      vertex 7.09881 6.85 0.741
      vertex 4.2 6.85 0.741
      vertex 4.2 6.85 2.141
    endloop
  endfacet
  facet normal 0 1 0
    outer loop
      vertex 7.09881 6.85 0.741
      vertex 4.2 6.85 2.141
      vertex 7.09881 6.85 2.141
    endloop
  endfacet
  facet normal 0 0 1
    outer loop
      vertex 7.13934 4.78934 2.141
      vertex 7.62597 4.46418 2.141
      vertex 7.09881 4.85 2.141
    endloop
  endfacet
  facet normal 0 0 1
    outer loop
      vertex 4.2 6.85 2.141
      vertex 4.2 4.85 2.141
      vertex 7.09881 4.85 2.141
    endloop
  endfacet
  facet normal 0 0 1
    outer loop
      vertex 8.2 4.35 2.141
      vertex 4.2 6.85 2.141
      vertex 7.09881 4.85 2.141
    endloop
  endfacet
  facet normal 0 0 1
    outer loop
      vertex 7.62597 4.46418 2.141
      vertex 8.2 4.35 2.141
      vertex 7.09881 4.85 2.141
    endloop
  endfacet
  facet normal 0 0 1
    outer loop
      vertex 8.2 4.35 2.141
      vertex 8.77403 4.46418 2.141
      vertex 4.2 6.85 2.141
    endloop
  endfacet
  facet normal 0 0 1
    outer loop
      vertex 8.77403 4.46418 2.141
      vertex 9.26066 4.78934 2.141
      vertex 4.2 6.85 2.141
    endloop
  endfacet
  facet normal 0 0 1
    outer loop
      vertex 9.26066 4.78934 2.141
      vertex 9.58582 5.27597 2.141
      vertex 4.2 6.85 2.141
    endloop
  endfacet
  facet normal 0 0 1
    outer loop
      vertex 9.58582 5.27597 2.141
      vertex 9.7 5.85 2.141
      vertex 4.2 6.85 2.141
    endloop
  endfacet
  facet normal 0 0 1
    outer loop
      vertex 9.7 5.85 2.141
      vertex 9.58582 6.42403 2.141
      vertex 4.2 6.85 2.141
    endloop
  endfacet
  facet normal 0 0 1
    outer loop
      vertex 7.13934 6.91066 2.141
      vertex 7.09881 6.85 2.141
      vertex 9.26066 6.91066 2.141
    endloop
  endfacet
  facet normal 0 0 1
    outer loop
      vertex 8.77403 7.23582 2.141
      vertex 8.2 7.35 2.141
      vertex 7.62597 7.23582 2.141
    endloop
  endfacet
  facet normal 0 0 1
    outer loop
      vertex 9.26066 6.91066 2.141
      vertex 8.77403 7.23582 2.141
      vertex 7.13934 6.91066 2.141
    endloop
  endfacet
  facet normal 0 0 1
    outer loop
      vertex 9.58582 6.42403 2.141
      vertex 7.09881 6.85 2.141
      vertex 4.2 6.85 2.141
    endloop
  endfacet
  facet normal 0 0 1
    outer loop
      vertex 9.58582 6.42403 2.141
      vertex 9.26066 6.91066 2.141
      vertex 7.09881 6.85 2.141
    endloop
  endfacet
  facet normal 0 0 1
    outer loop
      vertex 7.62597 7.23582 2.141
      vertex 7.13934 6.91066 2.141
      vertex 8.77403 7.23582 2.141
    endloop
  endfacet
  facet normal -0.83147 -0.55557 0
    outer loop
      vertex 7.09881 4.85 0.741
      vertex 7.13934 4.78934 0.741
      vertex 7.09881 4.85 2.141
    endloop
  endfacet
  facet normal -0.83147 -0.55557 0
    outer loop
      vertex 7.09881 4.85 2.141
      vertex 7.13934 4.78934 0.741
      vertex 7.13934 4.78934 2.141
    endloop
  endfacet
  facet normal 0 0 -1
    outer loop
      vertex 4.2 4.85 0.741
      vertex 4.2 6.85 0.741
      vertex 7.09881 4.85 0.741
    endloop
  endfacet
  facet normal 0 0 -1
    outer loop
      vertex 7.09881 4.85 0.741
      vertex 4.2 6.85 0.741
      vertex 7.09881 6.85 0.741
    endloop
  endfacet
  facet normal 0 0 -1
    outer loop
      vertex 7.09881 4.85 0.741
      vertex 7.09881 6.85 0.741
      vertex 7.13934 6.91066 0.741
    endloop
  endfacet
  facet normal 0 0 -1
    outer loop
      vertex 7.09881 4.85 0.741
      vertex 7.13934 6.91066 0.741
      vertex 7.62597 7.23582 0.741
    endloop
  endfacet
  facet normal 0 0 -1
    outer loop
      vertex 7.09881 4.85 0.741
      vertex 7.62597 7.23582 0.741
      vertex 8.2 7.35 0.741
    endloop
  endfacet
  facet normal 0 0 -1
    outer loop
      vertex 7.09881 4.85 0.741
      vertex 8.2 7.35 0.741
      vertex 8.77403 7.23582 0.741
    endloop
  endfacet
  facet normal 0 0 -1
    outer loop
      vertex 7.09881 4.85 0.741
      vertex 8.77403 7.23582 0.741
      vertex 9.26066 6.91066 0.741
    endloop
  endfacet
  facet normal 0 0 -1
    outer loop
      vertex 7.09881 4.85 0.741
      vertex 9.26066 6.91066 0.741
      vertex 9.58582 6.42403 0.741
    endloop
  endfacet
  facet normal 0 0 -1
    outer loop
      vertex 7.09881 4.85 0.741
      vertex 9.58582 6.42403 0.741
      vertex 9.7 5.85 0.741
    endloop
  endfacet
  facet normal 0 0 -1
    outer loop
      vertex 7.09881 4.85 0.741
      vertex 9.7 5.85 0.741
      vertex 9.58582 5.27597 0.741
    endloop
  endfacet
  facet normal 0 0 -1
    outer loop
      vertex 7.09881 4.85 0.741
      vertex 9.58582 5.27597 0.741
      vertex 9.26066 4.78934 0.741
    endloop
  endfacet
  facet normal 0 0 -1
    outer loop
      vertex 7.13934 4.78934 0.741
      vertex 8.77403 4.46418 0.741
      vertex 7.62597 4.46418 0.741
    endloop
  endfacet
  facet normal 0 0 -1
    outer loop
      vertex 8.77403 4.46418 0.741
      vertex 8.2 4.35 0.741
      vertex 7.62597 4.46418 0.741
    endloop
  endfacet
  facet normal 0 0 -1
    outer loop
      vertex 9.26066 4.78934 0.741
      vertex 8.77403 4.46418 0.741
      vertex 7.13934 4.78934 0.741
    endloop
  endfacet
  facet normal 0 0 -1
    outer loop
      vertex 7.09881 4.85 0.741
      vertex 9.26066 4.78934 0.741
      vertex 7.13934 4.78934 0.741
    endloop
  endfacet
  facet normal -0.83147 0.55557 0
    outer loop
      vertex 7.09881 6.85 0.741
      vertex 7.09881 6.85 2.141
      vertex 7.13934 6.91066 0.741
    endloop
  endfacet
  facet normal -0.83147 0.55557 0
    outer loop
      vertex 7.13934 6.91066 0.741
      vertex 7.09881 6.85 2.141
      vertex 7.13934 6.91066 2.141
    endloop
  endfacet
  facet normal -0.55557 0.83147 0
    outer loop
      vertex 7.13934 6.91066 0.741
      vertex 7.13934 6.91066 2.141
      vertex 7.62597 7.23582 0.741
    endloop
  endfacet
  facet normal -0.55557 0.83147 0
    outer loop
      vertex 7.62597 7.23582 0.741
      vertex 7.13934 6.91066 2.141
      vertex 7.62597 7.23582 2.141
    endloop
  endfacet
  facet normal -0.19509 0.980785 0
    outer loop
      vertex 7.62597 7.23582 0.741
      vertex 7.62597 7.23582 2.141
      vertex 8.2 7.35 0.741
    endloop
  endfacet
  facet normal -0.19509 0.980785 0
    outer loop
      vertex 8.2 7.35 0.741
      vertex 7.62597 7.23582 2.141
      vertex 8.2 7.35 2.141
    endloop
  endfacet
  facet normal 0.19509 0.980785 0
    outer loop
      vertex 8.2 7.35 0.741
      vertex 8.2 7.35 2.141
      vertex 8.77403 7.23582 0.741
    endloop
  endfacet
  facet normal 0.19509 0.980785 0
    outer loop
      vertex 8.77403 7.23582 0.741
      vertex 8.2 7.35 2.141
      vertex 8.77403 7.23582 2.141
    endloop
  endfacet
  facet normal 0.55557 0.83147 0
    outer loop
      vertex 8.77403 7.23582 0.741
      vertex 8.77403 7.23582 2.141
      vertex 9.26066 6.91066 0.741
    endloop
  endfacet
  facet normal 0.55557 0.83147 0
    outer loop
      vertex 9.26066 6.91066 0.741
      vertex 8.77403 7.23582 2.141
      vertex 9.26066 6.91066 2.141
    endloop
  endfacet
  facet normal 0.83147 0.55557 0
    outer loop
      vertex 9.58582 6.42403 0.741
      vertex 9.26066 6.91066 0.741
      vertex 9.26066 6.91066 2.141
    endloop
  endfacet
  facet normal 0.83147 0.55557 0
    outer loop
      vertex 9.58582 6.42403 2.141
      vertex 9.58582 6.42403 0.741
      vertex 9.26066 6.91066 2.141
    endloop
  endfacet
  facet normal 0.980785 0.19509 0
    outer loop
      vertex 9.7 5.85 0.741
      vertex 9.58582 6.42403 0.741
      vertex 9.58582 6.42403 2.141
    endloop
  endfacet
  facet normal 0.980785 0.19509 0
    outer loop
      vertex 9.7 5.85 2.141
      vertex 9.7 5.85 0.741
      vertex 9.58582 6.42403 2.141
    endloop
  endfacet
  facet normal 0.980785 -0.19509 0
    outer loop
      vertex 9.58582 5.27597 2.141
      vertex 9.58582 5.27597 0.741
      vertex 9.7 5.85 0.741
    endloop
  endfacet
  facet normal 0.980785 -0.19509 0
    outer loop
      vertex 9.7 5.85 2.141
      vertex 9.58582 5.27597 2.141
      vertex 9.7 5.85 0.741
    endloop
  endfacet
  facet normal 0.83147 -0.55557 0
    outer loop
      vertex 9.26066 4.78934 2.141
      vertex 9.26066 4.78934 0.741
      vertex 9.58582 5.27597 0.741
    endloop
  endfacet
  facet normal 0.83147 -0.55557 0
    outer loop
      vertex 9.58582 5.27597 2.141
      vertex 9.26066 4.78934 2.141
      vertex 9.58582 5.27597 0.741
    endloop
  endfacet
  facet normal 0.55557 -0.83147 0
    outer loop
      vertex 8.77403 4.46418 2.141
      vertex 8.77403 4.46418 0.741
      vertex 9.26066 4.78934 0.741
    endloop
  endfacet
  facet normal 0.55557 -0.83147 0
    outer loop
      vertex 9.26066 4.78934 2.141
      vertex 8.77403 4.46418 2.141
      vertex 9.26066 4.78934 0.741
    endloop
  endfacet
  facet normal 0.19509 -0.980785 0
    outer loop
      vertex 8.2 4.35 2.141
      vertex 8.2 4.35 0.741
      vertex 8.77403 4.46418 0.741
    endloop
  endfacet
  facet normal 0.19509 -0.980785 0
    outer loop
      vertex 8.77403 4.46418 2.141
      vertex 8.2 4.35 2.141
      vertex 8.77403 4.46418 0.741
    endloop
  endfacet
  facet normal -0.19509 -0.980785 0
    outer loop
      vertex 7.62597 4.46418 2.141
      vertex 7.62597 4.46418 0.741
      vertex 8.2 4.35 0.741
    endloop
  endfacet
  facet normal -0.19509 -0.980785 0
    outer loop
      vertex 8.2 4.35 2.141
      vertex 7.62597 4.46418 2.141
      vertex 8.2 4.35 0.741
    endloop
  endfacet
  facet normal -0.55557 -0.83147 0
    outer loop
      vertex 7.13934 4.78934 2.141
      vertex 7.13934 4.78934 0.741
      vertex 7.62597 4.46418 0.741
    endloop
  endfacet
  facet normal -0.55557 -0.83147 0
    outer loop
      vertex 7.62597 4.46418 2.141
      vertex 7.13934 4.78934 2.141
      vertex 7.62597 4.46418 0.741
    endloop
  endfacet
endsolid OpenSCAD_Model
