  0
SECTION
  2
HEADER
  9
$ACADVER
  1
AC1009
  9
$EXTMIN
 10
0.0
 20
0.0
 30
0.0
  9
$EXTMAX
 10
1000.0
 20
1000.0
 30
0.0
  9
$FILLMODE
 70
 0
  9
$SPLFRAME
 70
 1
  0
ENDSEC
  0
SECTION
  2
TABLES
  0
TABLE
  2
LAYER
 70
1
  0
LAYER
  2
0
 70
     0
 62
     7
  6
CONTINUOUS
  0
ENDTAB
  0
ENDSEC
  0
SECTION
  2
ENTITIES
  0
LINE
  8
0
 62
     4
 10
1.13976
 20
0.163357
 30
0.0
 11
0.931099
 21
0.163357
 31
0.0
  0
LINE
  8
0
 62
     4
 10
0.931099
 20
0.163357
 30
0.0
 11
0.931099
 21
0.568901
 31
0.0
  0
LINE
  8
0
 62
     4
 10
0.931099
 20
0.568901
 30
0.0
 11
1.13976
 21
0.568901
 31
0.0
  0
LINE
  8
0
 62
     4
 10
1.13976
 20
0.568901
 30
0.0
 11
1.13976
 21
0.163357
 31
0.0
  0
LINE
  8
0
 62
     4
 10
1.30512
 20
0.507867
 30
0.0
 11
1.30512
 21
0.698785
 31
0.0
  0
LINE
  8
0
 62
     4
 10
1.30512
 20
0.698785
 30
0.0
 11
1.20003
 21
0.698785
 31
0.0
  0
LINE
  8
0
 62
     4
 10
1.20003
 20
0.698785
 30
0.0
 11
1.17914
 21
0.684407
 31
0.0
  0
LINE
  8
0
 62
     4
 10
1.17914
 20
0.684407
 30
0.0
 11
1.15354
 21
0.67909
 31
0.0
  0
LINE
  8
0
 62
     4
 10
1.15354
 20
0.67909
 30
0.0
 11
1.12826
 21
0.684244
 31
0.0
  0
LINE
  8
0
 62
     4
 10
1.12826
 20
0.684244
 30
0.0
 11
1.10758
 21
0.698188
 31
0.0
  0
LINE
  8
0
 62
     4
 10
1.10758
 20
0.698188
 30
0.0
 11
1.0937
 21
0.718804
 31
0.0
  0
LINE
  8
0
 62
     4
 10
1.0937
 20
0.718804
 30
0.0
 11
1.0886
 21
0.744086
 31
0.0
  0
LINE
  8
0
 62
     4
 10
1.0886
 20
0.744086
 30
0.0
 11
1.0937
 21
0.769368
 31
0.0
  0
LINE
  8
0
 62
     4
 10
1.0937
 20
0.769368
 30
0.0
 11
1.10758
 21
0.790039
 31
0.0
  0
LINE
  8
0
 62
     4
 10
1.10758
 20
0.790039
 30
0.0
 11
1.12826
 21
0.803928
 31
0.0
  0
LINE
  8
0
 62
     4
 10
1.12826
 20
0.803928
 30
0.0
 11
1.15354
 21
0.809028
 31
0.0
  0
LINE
  8
0
 62
     4
 10
1.15354
 20
0.809028
 30
0.0
 11
1.17914
 21
0.803765
 31
0.0
  0
LINE
  8
0
 62
     4
 10
1.17914
 20
0.803765
 30
0.0
 11
1.20003
 21
0.789333
 31
0.0
  0
LINE
  8
0
 62
     4
 10
1.20003
 20
0.789333
 30
0.0
 11
1.30512
 21
0.789333
 31
0.0
  0
LINE
  8
0
 62
     4
 10
1.30512
 20
0.789333
 30
0.0
 11
1.30512
 21
0.980306
 31
0.0
  0
LINE
  8
0
 62
     4
 10
1.30512
 20
0.980306
 30
0.0
 11
1.31103
 21
0.980306
 31
0.0
  0
LINE
  8
0
 62
     4
 10
1.31103
 20
0.980306
 30
0.0
 11
1.31103
 21
1.28738
 31
0.0
  0
LINE
  8
0
 62
     4
 10
1.31103
 20
1.28738
 30
0.0
 11
1.28738
 21
1.31098
 31
0.0
  0
LINE
  8
0
 62
     4
 10
1.28738
 20
1.31098
 30
0.0
 11
0.0236003
 21
1.31098
 31
0.0
  0
LINE
  8
0
 62
     4
 10
0.0236003
 20
1.31098
 30
0.0
 11
0
 21
1.28738
 31
0.0
  0
LINE
  8
0
 62
     4
 10
0
 20
1.28738
 30
0.0
 11
0
 21
0.0236003
 31
0.0
  0
LINE
  8
0
 62
     4
 10
0
 20
0.0236003
 30
0.0
 11
0.0236003
 21
-0
 31
0.0
  0
LINE
  8
0
 62
     4
 10
0.0236003
 20
-0
 30
0.0
 11
1.28738
 21
-0
 31
0.0
  0
LINE
  8
0
 62
     4
 10
1.28738
 20
-0
 30
0.0
 11
1.31103
 21
0.0236003
 31
0.0
  0
LINE
  8
0
 62
     4
 10
1.31103
 20
0.0236003
 30
0.0
 11
1.31103
 21
0.507867
 31
0.0
  0
LINE
  8
0
 62
     4
 10
1.31103
 20
0.507867
 30
0.0
 11
1.30512
 21
0.507867
 31
0.0
  0
ENDSEC
  0
EOF
