  0
SECTION
  2
HEADER
  9
$ACADVER
  1
AC1009
  9
$EXTMIN
 10
0.0
 20
0.0
 30
0.0
  9
$EXTMAX
 10
1000.0
 20
1000.0
 30
0.0
  9
$FILLMODE
 70
 0
  9
$SPLFRAME
 70
 1
  0
ENDSEC
  0
SECTION
  2
TABLES
  0
TABLE
  2
LAYER
 70
1
  0
LAYER
  2
0
 70
     0
 62
     7
  6
CONTINUOUS
  0
ENDTAB
  0
ENDSEC
  0
SECTION
  2
ENTITIES
  0
LINE
  8
0
 62
     4
 10
2.61615
 20
0.305122
 30
0.0
 11
2.4075
 21
0.305122
 31
0.0
  0
LINE
  8
0
 62
     4
 10
2.4075
 20
0.305122
 30
0.0
 11
2.4075
 21
0.442925
 31
0.0
  0
LINE
  8
0
 62
     4
 10
2.4075
 20
0.442925
 30
0.0
 11
2.61615
 21
0.442925
 31
0.0
  0
LINE
  8
0
 62
     4
 10
2.61615
 20
0.442925
 30
0.0
 11
2.61615
 21
0.305122
 31
0.0
  0
LINE
  8
0
 62
     4
 10
4.00396
 20
0.484267
 30
0.0
 11
3.94488
 21
0.531521
 31
0.0
  0
LINE
  8
0
 62
     4
 10
3.94488
 20
0.531521
 30
0.0
 11
3.81494
 21
0.531521
 31
0.0
  0
LINE
  8
0
 62
     4
 10
3.81494
 20
0.531521
 30
0.0
 11
3.76774
 21
0.496094
 31
0.0
  0
LINE
  8
0
 62
     4
 10
3.76774
 20
0.496094
 30
0.0
 11
3.73232
 21
0.519694
 31
0.0
  0
LINE
  8
0
 62
     4
 10
3.73232
 20
0.519694
 30
0.0
 11
3.61421
 21
0.507867
 31
0.0
  0
LINE
  8
0
 62
     4
 10
3.61421
 20
0.507867
 30
0.0
 11
3.59056
 21
0.531521
 31
0.0
  0
LINE
  8
0
 62
     4
 10
3.59056
 20
0.531521
 30
0.0
 11
3.47244
 21
0.531521
 31
0.0
  0
LINE
  8
0
 62
     4
 10
3.47244
 20
0.531521
 30
0.0
 11
3.43701
 21
0.507867
 31
0.0
  0
LINE
  8
0
 62
     4
 10
3.43701
 20
0.507867
 30
0.0
 11
3.30707
 21
0.507867
 31
0.0
  0
LINE
  8
0
 62
     4
 10
3.30707
 20
0.507867
 30
0.0
 11
3.27165
 21
0.531521
 31
0.0
  0
LINE
  8
0
 62
     4
 10
3.27165
 20
0.531521
 30
0.0
 11
2.44488
 21
0.531521
 31
0.0
  0
LINE
  8
0
 62
     4
 10
2.44488
 20
0.531521
 30
0.0
 11
2.29135
 21
0.519694
 31
0.0
  0
LINE
  8
0
 62
     4
 10
2.29135
 20
0.519694
 30
0.0
 11
2.25592
 21
0.472439
 31
0.0
  0
LINE
  8
0
 62
     4
 10
2.25592
 20
0.472439
 30
0.0
 11
2.22049
 21
0.472439
 31
0.0
  0
LINE
  8
0
 62
     4
 10
2.22049
 20
0.472439
 30
0.0
 11
2.17324
 21
0.531521
 31
0.0
  0
LINE
  8
0
 62
     4
 10
2.17324
 20
0.531521
 30
0.0
 11
1.96061
 21
0.531521
 31
0.0
  0
LINE
  8
0
 62
     4
 10
1.96061
 20
0.531521
 30
0.0
 11
1.92518
 21
0.484267
 31
0.0
  0
LINE
  8
0
 62
     4
 10
1.92518
 20
0.484267
 30
0.0
 11
1.92518
 21
0.448839
 31
0.0
  0
LINE
  8
0
 62
     4
 10
1.92518
 20
0.448839
 30
0.0
 11
1.88975
 21
0.437011
 31
0.0
  0
LINE
  8
0
 62
     4
 10
1.88975
 20
0.437011
 30
0.0
 11
1.8189
 21
0.507867
 31
0.0
  0
LINE
  8
0
 62
     4
 10
1.8189
 20
0.507867
 30
0.0
 11
1.64171
 21
0.507867
 31
0.0
  0
LINE
  8
0
 62
     4
 10
1.64171
 20
0.507867
 30
0.0
 11
1.60628
 21
0.531521
 31
0.0
  0
LINE
  8
0
 62
     4
 10
1.60628
 20
0.531521
 30
0.0
 11
1.48817
 21
0.531521
 31
0.0
  0
LINE
  8
0
 62
     4
 10
1.48817
 20
0.531521
 30
0.0
 11
1.45275
 21
0.507867
 31
0.0
  0
LINE
  8
0
 62
     4
 10
1.45275
 20
0.507867
 30
0.0
 11
0.649631
 21
0.519694
 31
0.0
  0
LINE
  8
0
 62
     4
 10
0.649631
 20
0.519694
 30
0.0
 11
0.649631
 21
0.543294
 31
0.0
  0
LINE
  8
0
 62
     4
 10
0.649631
 20
0.543294
 30
0.0
 11
1.00396
 21
0.555122
 31
0.0
  0
LINE
  8
0
 62
     4
 10
1.00396
 20
0.555122
 30
0.0
 11
1.02756
 21
0.590549
 31
0.0
  0
LINE
  8
0
 62
     4
 10
1.02756
 20
0.590549
 30
0.0
 11
1.02756
 21
0.732314
 31
0.0
  0
LINE
  8
0
 62
     4
 10
1.02756
 20
0.732314
 30
0.0
 11
0.992133
 21
0.791342
 31
0.0
  0
LINE
  8
0
 62
     4
 10
0.992133
 20
0.791342
 30
0.0
 11
0.507867
 21
0.791342
 31
0.0
  0
LINE
  8
0
 62
     4
 10
0.507867
 20
0.791342
 30
0.0
 11
0.507867
 21
0.761828
 31
0.0
  0
LINE
  8
0
 62
     4
 10
0.507867
 20
0.761828
 30
0.0
 11
0.316949
 21
0.761828
 31
0.0
  0
LINE
  8
0
 62
     4
 10
0.316949
 20
0.761828
 30
0.0
 11
0.316949
 21
0.656739
 31
0.0
  0
LINE
  8
0
 62
     4
 10
0.316949
 20
0.656739
 30
0.0
 11
0.331272
 21
0.635906
 31
0.0
  0
LINE
  8
0
 62
     4
 10
0.331272
 20
0.635906
 30
0.0
 11
0.336589
 21
0.610243
 31
0.0
  0
LINE
  8
0
 62
     4
 10
0.336589
 20
0.610243
 30
0.0
 11
0.331489
 21
0.585015
 31
0.0
  0
LINE
  8
0
 62
     4
 10
0.331489
 20
0.585015
 30
0.0
 11
0.317546
 21
0.564344
 31
0.0
  0
LINE
  8
0
 62
     4
 10
0.317546
 20
0.564344
 30
0.0
 11
0.296929
 21
0.550456
 31
0.0
  0
LINE
  8
0
 62
     4
 10
0.296929
 20
0.550456
 30
0.0
 11
0.271647
 21
0.545301
 31
0.0
  0
LINE
  8
0
 62
     4
 10
0.271647
 20
0.545301
 30
0.0
 11
0.246365
 21
0.550456
 31
0.0
  0
LINE
  8
0
 62
     4
 10
0.246365
 20
0.550456
 30
0.0
 11
0.225694
 21
0.564344
 31
0.0
  0
LINE
  8
0
 62
     4
 10
0.225694
 20
0.564344
 30
0.0
 11
0.211806
 21
0.585015
 31
0.0
  0
LINE
  8
0
 62
     4
 10
0.211806
 20
0.585015
 30
0.0
 11
0.206706
 21
0.610243
 31
0.0
  0
LINE
  8
0
 62
     4
 10
0.206706
 20
0.610243
 30
0.0
 11
0.211968
 21
0.635906
 31
0.0
  0
LINE
  8
0
 62
     4
 10
0.211968
 20
0.635906
 30
0.0
 11
0.226346
 21
0.656683
 31
0.0
  0
LINE
  8
0
 62
     4
 10
0.226346
 20
0.656683
 30
0.0
 11
0.226346
 21
0.761828
 31
0.0
  0
LINE
  8
0
 62
     4
 10
0.226346
 20
0.761828
 30
0.0
 11
0.0354275
 21
0.761828
 31
0.0
  0
LINE
  8
0
 62
     4
 10
0.0354275
 20
0.761828
 30
0.0
 11
0.0303819
 21
0.761828
 31
0.0
  0
LINE
  8
0
 62
     4
 10
0.0303819
 20
0.761828
 30
0.0
 11
0
 21
0.708658
 31
0.0
  0
LINE
  8
0
 62
     4
 10
0
 20
0.708658
 30
0.0
 11
0
 21
0.578722
 31
0.0
  0
LINE
  8
0
 62
     4
 10
0
 20
0.578722
 30
0.0
 11
0.0236003
 21
0.555122
 31
0.0
  0
LINE
  8
0
 62
     4
 10
0.0236003
 20
0.555122
 30
0.0
 11
0.106282
 21
0.555122
 31
0.0
  0
LINE
  8
0
 62
     4
 10
0.106282
 20
0.555122
 30
0.0
 11
0.129937
 21
0.531521
 31
0.0
  0
LINE
  8
0
 62
     4
 10
0.129937
 20
0.531521
 30
0.0
 11
0.106282
 21
0.507867
 31
0.0
  0
LINE
  8
0
 62
     4
 10
0.106282
 20
0.507867
 30
0.0
 11
0.106282
 21
0.330729
 31
0.0
  0
LINE
  8
0
 62
     4
 10
0.106282
 20
0.330729
 30
0.0
 11
0.165364
 21
0.295301
 31
0.0
  0
LINE
  8
0
 62
     4
 10
0.165364
 20
0.295301
 30
0.0
 11
0.0945096
 21
0.283475
 31
0.0
  0
LINE
  8
0
 62
     4
 10
0.0945096
 20
0.283475
 30
0.0
 11
0.0118273
 21
0.236219
 31
0.0
  0
LINE
  8
0
 62
     4
 10
0.0118273
 20
0.236219
 30
0.0
 11
0.0118273
 21
0.11811
 31
0.0
  0
LINE
  8
0
 62
     4
 10
0.0118273
 20
0.11811
 30
0.0
 11
0.070855
 21
-0
 31
0.0
  0
LINE
  8
0
 62
     4
 10
0.070855
 20
-0
 30
0.0
 11
0.330729
 21
-0
 31
0.0
  0
LINE
  8
0
 62
     4
 10
0.330729
 20
-0
 30
0.0
 11
0.354329
 21
0.0236003
 31
0.0
  0
LINE
  8
0
 62
     4
 10
0.354329
 20
0.0236003
 30
0.0
 11
0.354329
 21
0.16531
 31
0.0
  0
LINE
  8
0
 62
     4
 10
0.354329
 20
0.16531
 30
0.0
 11
0.283475
 21
0.212619
 31
0.0
  0
LINE
  8
0
 62
     4
 10
0.283475
 20
0.212619
 30
0.0
 11
0.283475
 21
0.259819
 31
0.0
  0
LINE
  8
0
 62
     4
 10
0.283475
 20
0.259819
 30
0.0
 11
0.779514
 21
0.259819
 31
0.0
  0
LINE
  8
0
 62
     4
 10
0.779514
 20
0.259819
 30
0.0
 11
0.803168
 21
0.283475
 31
0.0
  0
LINE
  8
0
 62
     4
 10
0.803168
 20
0.283475
 30
0.0
 11
0.850369
 21
0.248047
 31
0.0
  0
LINE
  8
0
 62
     4
 10
0.850369
 20
0.248047
 30
0.0
 11
1.75987
 21
0.259819
 31
0.0
  0
LINE
  8
0
 62
     4
 10
1.75987
 20
0.259819
 30
0.0
 11
1.93701
 21
0.236219
 31
0.0
  0
LINE
  8
0
 62
     4
 10
1.93701
 20
0.236219
 30
0.0
 11
2.24408
 21
0.236219
 31
0.0
  0
LINE
  8
0
 62
     4
 10
2.24408
 20
0.236219
 30
0.0
 11
2.27951
 21
0.259819
 31
0.0
  0
LINE
  8
0
 62
     4
 10
2.27951
 20
0.259819
 30
0.0
 11
2.43306
 21
0.236219
 31
0.0
  0
LINE
  8
0
 62
     4
 10
2.43306
 20
0.236219
 30
0.0
 11
2.91732
 21
0.236219
 31
0.0
  0
LINE
  8
0
 62
     4
 10
2.91732
 20
0.236219
 30
0.0
 11
3.35433
 21
0.259819
 31
0.0
  0
LINE
  8
0
 62
     4
 10
3.35433
 20
0.259819
 30
0.0
 11
3.94488
 21
0.248047
 31
0.0
  0
LINE
  8
0
 62
     4
 10
3.94488
 20
0.248047
 30
0.0
 11
4.01574
 21
0.283475
 31
0.0
  0
LINE
  8
0
 62
     4
 10
4.01574
 20
0.283475
 30
0.0
 11
4.00396
 21
0.484267
 31
0.0
  0
ENDSEC
  0
EOF
