  0
SECTION
  2
HEADER
  9
$ACADVER
  1
AC1009
  9
$EXTMIN
 10
0.0
 20
0.0
 30
0.0
  9
$EXTMAX
 10
1000.0
 20
1000.0
 30
0.0
  9
$FILLMODE
 70
 0
  9
$SPLFRAME
 70
 1
  0
ENDSEC
  0
SECTION
  2
TABLES
  0
TABLE
  2
LAYER
 70
1
  0
LAYER
  2
0
 70
     0
 62
     7
  6
CONTINUOUS
  0
ENDTAB
  0
ENDSEC
  0
SECTION
  2
ENTITIES
  0
LINE
  8
0
 62
     160
 10
4.01969
 20
0.492567
 30
0.0
 11
4.01671
 21
0.498264
 31
0.0
  0
LINE
  8
0
 62
     160
 10
4.01671
 20
0.498264
 30
0.0
 11
3.95768
 21
0.545518
 31
0.0
  0
LINE
  8
0
 62
     160
 10
3.95768
 20
0.545518
 30
0.0
 11
3.95275
 21
0.547254
 31
0.0
  0
LINE
  8
0
 62
     160
 10
3.95275
 20
0.547254
 30
0.0
 11
3.82281
 21
0.547254
 31
0.0
  0
LINE
  8
0
 62
     160
 10
3.82281
 20
0.547254
 30
0.0
 11
3.81808
 21
0.545682
 31
0.0
  0
LINE
  8
0
 62
     160
 10
3.81808
 20
0.545682
 30
0.0
 11
3.77533
 21
0.513564
 31
0.0
  0
LINE
  8
0
 62
     160
 10
3.77533
 20
0.513564
 30
0.0
 11
3.74451
 21
0.534071
 31
0.0
  0
LINE
  8
0
 62
     160
 10
3.74451
 20
0.534071
 30
0.0
 11
3.73936
 21
0.535374
 31
0.0
  0
LINE
  8
0
 62
     160
 10
3.73936
 20
0.535374
 30
0.0
 11
3.625
 21
0.523926
 31
0.0
  0
LINE
  8
0
 62
     160
 10
3.625
 20
0.523926
 30
0.0
 11
3.604
 21
0.544922
 31
0.0
  0
LINE
  8
0
 62
     160
 10
3.604
 20
0.544922
 30
0.0
 11
3.59776
 21
0.5472
 31
0.0
  0
LINE
  8
0
 62
     160
 10
3.59776
 20
0.5472
 30
0.0
 11
3.31706
 21
0.523817
 31
0.0
  0
LINE
  8
0
 62
     160
 10
3.31706
 20
0.523817
 30
0.0
 11
3.2839
 21
0.545899
 31
0.0
  0
LINE
  8
0
 62
     160
 10
3.2839
 20
0.545899
 30
0.0
 11
3.27951
 21
0.547254
 31
0.0
  0
LINE
  8
0
 62
     160
 10
3.27951
 20
0.547254
 30
0.0
 11
2.45215
 21
0.5472
 31
0.0
  0
LINE
  8
0
 62
     160
 10
2.45215
 20
0.5472
 30
0.0
 11
2.29861
 21
0.535374
 31
0.0
  0
LINE
  8
0
 62
     160
 10
2.29861
 20
0.535374
 30
0.0
 11
2.29292
 21
0.532281
 31
0.0
  0
LINE
  8
0
 62
     160
 10
2.29292
 20
0.532281
 30
0.0
 11
2.25982
 21
0.488172
 31
0.0
  0
LINE
  8
0
 62
     160
 10
2.25982
 20
0.488172
 30
0.0
 11
2.23215
 21
0.488172
 31
0.0
  0
LINE
  8
0
 62
     160
 10
2.23215
 20
0.488172
 30
0.0
 11
2.18722
 21
0.544271
 31
0.0
  0
LINE
  8
0
 62
     160
 10
2.18722
 20
0.544271
 30
0.0
 11
2.1811
 21
0.547254
 31
0.0
  0
LINE
  8
0
 62
     160
 10
2.1811
 20
0.547254
 30
0.0
 11
1.96847
 21
0.547254
 31
0.0
  0
LINE
  8
0
 62
     160
 10
1.96847
 20
0.547254
 30
0.0
 11
1.96218
 21
0.544108
 31
0.0
  0
LINE
  8
0
 62
     160
 10
1.96218
 20
0.544108
 30
0.0
 11
1.92676
 21
0.496853
 31
0.0
  0
LINE
  8
0
 62
     160
 10
1.92676
 20
0.496853
 30
0.0
 11
1.92518
 21
0.492133
 31
0.0
  0
LINE
  8
0
 62
     160
 10
1.92518
 20
0.492133
 30
0.0
 11
1.92518
 21
0.462349
 31
0.0
  0
LINE
  8
0
 62
     160
 10
1.92518
 20
0.462349
 30
0.0
 11
1.89979
 21
0.453885
 31
0.0
  0
LINE
  8
0
 62
     160
 10
1.89979
 20
0.453885
 30
0.0
 11
1.83236
 21
0.521322
 31
0.0
  0
LINE
  8
0
 62
     160
 10
1.83236
 20
0.521322
 30
0.0
 11
1.82676
 21
0.5236
 31
0.0
  0
LINE
  8
0
 62
     160
 10
1.82676
 20
0.5236
 30
0.0
 11
1.65201
 21
0.5236
 31
0.0
  0
LINE
  8
0
 62
     160
 10
1.65201
 20
0.5236
 30
0.0
 11
1.61854
 21
0.545899
 31
0.0
  0
LINE
  8
0
 62
     160
 10
1.61854
 20
0.545899
 30
0.0
 11
1.61421
 21
0.547254
 31
0.0
  0
LINE
  8
0
 62
     160
 10
1.61421
 20
0.547254
 30
0.0
 11
1.4961
 21
0.547254
 31
0.0
  0
LINE
  8
0
 62
     160
 10
1.4961
 20
0.547254
 30
0.0
 11
1.49169
 21
0.545899
 31
0.0
  0
LINE
  8
0
 62
     160
 10
1.49169
 20
0.545899
 30
0.0
 11
1.45828
 21
0.523654
 31
0.0
  0
LINE
  8
0
 62
     160
 10
1.45828
 20
0.523654
 30
0.0
 11
0.665364
 21
0.535319
 31
0.0
  0
LINE
  8
0
 62
     160
 10
0.665364
 20
0.535319
 30
0.0
 11
0.665364
 21
0.543565
 31
0.0
  0
LINE
  8
0
 62
     160
 10
0.665364
 20
0.543565
 30
0.0
 11
1.0121
 21
0.555122
 31
0.0
  0
LINE
  8
0
 62
     160
 10
1.0121
 20
0.555122
 30
0.0
 11
1.01839
 21
0.558649
 31
0.0
  0
LINE
  8
0
 62
     160
 10
1.01839
 20
0.558649
 30
0.0
 11
1.04199
 21
0.594075
 31
0.0
  0
LINE
  8
0
 62
     160
 10
1.04199
 20
0.594075
 30
0.0
 11
1.04329
 21
0.598415
 31
0.0
  0
LINE
  8
0
 62
     160
 10
1.04329
 20
0.598415
 30
0.0
 11
1.04329
 21
0.740181
 31
0.0
  0
LINE
  8
0
 62
     160
 10
1.04329
 20
0.740181
 30
0.0
 11
1.04221
 21
0.744194
 31
0.0
  0
LINE
  8
0
 62
     160
 10
1.04221
 20
0.744194
 30
0.0
 11
1.00673
 21
0.803276
 31
0.0
  0
LINE
  8
0
 62
     160
 10
1.00673
 20
0.803276
 30
0.0
 11
1
 21
0.807075
 31
0.0
  0
LINE
  8
0
 62
     160
 10
1
 20
0.807075
 30
0.0
 11
0.515733
 21
0.807075
 31
0.0
  0
LINE
  8
0
 62
     160
 10
0.515733
 20
0.807075
 30
0.0
 11
0.515733
 21
0.791342
 31
0.0
  0
LINE
  8
0
 62
     160
 10
0.515733
 20
0.791342
 30
0.0
 11
0.995551
 21
0.791342
 31
0.0
  0
LINE
  8
0
 62
     160
 10
0.995551
 20
0.791342
 30
0.0
 11
1.02756
 21
0.737956
 31
0.0
  0
LINE
  8
0
 62
     160
 10
1.02756
 20
0.737956
 30
0.0
 11
1.02756
 21
0.600803
 31
0.0
  0
LINE
  8
0
 62
     160
 10
1.02756
 20
0.600803
 30
0.0
 11
1.00749
 21
0.570747
 31
0.0
  0
LINE
  8
0
 62
     160
 10
1.00749
 20
0.570747
 30
0.0
 11
0.657226
 21
0.559028
 31
0.0
  0
LINE
  8
0
 62
     160
 10
0.657226
 20
0.559028
 30
0.0
 11
0.649631
 21
0.551161
 31
0.0
  0
LINE
  8
0
 62
     160
 10
0.649631
 20
0.551161
 30
0.0
 11
0.649631
 21
0.527561
 31
0.0
  0
LINE
  8
0
 62
     160
 10
0.649631
 20
0.527561
 30
0.0
 11
0.657389
 21
0.519694
 31
0.0
  0
LINE
  8
0
 62
     160
 10
0.657389
 20
0.519694
 30
0.0
 11
1.4605
 21
0.507867
 31
0.0
  0
LINE
  8
0
 62
     160
 10
1.4605
 20
0.507867
 30
0.0
 11
1.465
 21
0.509169
 31
0.0
  0
LINE
  8
0
 62
     160
 10
1.465
 20
0.509169
 30
0.0
 11
1.49849
 21
0.531467
 31
0.0
  0
LINE
  8
0
 62
     160
 10
1.49849
 20
0.531467
 30
0.0
 11
1.61182
 21
0.531467
 31
0.0
  0
LINE
  8
0
 62
     160
 10
1.61182
 20
0.531467
 30
0.0
 11
1.64524
 21
0.509169
 31
0.0
  0
LINE
  8
0
 62
     160
 10
1.64524
 20
0.509169
 30
0.0
 11
1.64963
 21
0.507867
 31
0.0
  0
LINE
  8
0
 62
     160
 10
1.64963
 20
0.507867
 30
0.0
 11
1.82351
 21
0.507867
 31
0.0
  0
LINE
  8
0
 62
     160
 10
1.82351
 20
0.507867
 30
0.0
 11
1.89208
 21
0.43929
 31
0.0
  0
LINE
  8
0
 62
     160
 10
1.89208
 20
0.43929
 30
0.0
 11
1.90013
 21
0.437392
 31
0.0
  0
LINE
  8
0
 62
     160
 10
1.90013
 20
0.437392
 30
0.0
 11
1.93554
 21
0.449219
 31
0.0
  0
LINE
  8
0
 62
     160
 10
1.93554
 20
0.449219
 30
0.0
 11
1.94092
 21
0.456706
 31
0.0
  0
LINE
  8
0
 62
     160
 10
1.94092
 20
0.456706
 30
0.0
 11
1.94092
 21
0.489475
 31
0.0
  0
LINE
  8
0
 62
     160
 10
1.94092
 20
0.489475
 30
0.0
 11
1.97244
 21
0.531467
 31
0.0
  0
LINE
  8
0
 62
     160
 10
1.97244
 20
0.531467
 30
0.0
 11
2.17731
 21
0.531467
 31
0.0
  0
LINE
  8
0
 62
     160
 10
2.17731
 20
0.531467
 30
0.0
 11
2.22217
 21
0.475369
 31
0.0
  0
LINE
  8
0
 62
     160
 10
2.22217
 20
0.475369
 30
0.0
 11
2.22835
 21
0.472439
 31
0.0
  0
LINE
  8
0
 62
     160
 10
2.22835
 20
0.472439
 30
0.0
 11
2.26378
 21
0.472439
 31
0.0
  0
LINE
  8
0
 62
     160
 10
2.26378
 20
0.472439
 30
0.0
 11
2.27007
 21
0.475586
 31
0.0
  0
LINE
  8
0
 62
     160
 10
2.27007
 20
0.475586
 30
0.0
 11
2.30339
 21
0.519965
 31
0.0
  0
LINE
  8
0
 62
     160
 10
2.30339
 20
0.519965
 30
0.0
 11
2.45275
 21
0.531467
 31
0.0
  0
LINE
  8
0
 62
     160
 10
2.45275
 20
0.531467
 30
0.0
 11
3.27713
 21
0.531467
 31
0.0
  0
LINE
  8
0
 62
     160
 10
3.27713
 20
0.531467
 30
0.0
 11
3.3106
 21
0.509169
 31
0.0
  0
LINE
  8
0
 62
     160
 10
3.3106
 20
0.509169
 30
0.0
 11
3.3156
 21
0.507867
 31
0.0
  0
LINE
  8
0
 62
     160
 10
3.3156
 20
0.507867
 30
0.0
 11
3.59543
 21
0.531196
 31
0.0
  0
LINE
  8
0
 62
     160
 10
3.59543
 20
0.531196
 30
0.0
 11
3.61649
 21
0.5102
 31
0.0
  0
LINE
  8
0
 62
     160
 10
3.61649
 20
0.5102
 30
0.0
 11
3.62283
 21
0.507921
 31
0.0
  0
LINE
  8
0
 62
     160
 10
3.62283
 20
0.507921
 30
0.0
 11
3.73812
 21
0.519422
 31
0.0
  0
LINE
  8
0
 62
     160
 10
3.73812
 20
0.519422
 30
0.0
 11
3.77121
 21
0.497396
 31
0.0
  0
LINE
  8
0
 62
     160
 10
3.77121
 20
0.497396
 30
0.0
 11
3.78033
 21
0.497667
 31
0.0
  0
LINE
  8
0
 62
     160
 10
3.78033
 20
0.497667
 30
0.0
 11
3.82547
 21
0.531467
 31
0.0
  0
LINE
  8
0
 62
     160
 10
3.82547
 20
0.531467
 30
0.0
 11
3.94997
 21
0.531467
 31
0.0
  0
LINE
  8
0
 62
     160
 10
3.94997
 20
0.531467
 30
0.0
 11
4.00418
 21
0.488172
 31
0.0
  0
LINE
  8
0
 62
     160
 10
4.00418
 20
0.488172
 30
0.0
 11
4.01546
 21
0.296007
 31
0.0
  0
LINE
  8
0
 62
     160
 10
4.01546
 20
0.296007
 30
0.0
 11
3.95096
 21
0.263781
 31
0.0
  0
LINE
  8
0
 62
     160
 10
3.95096
 20
0.263781
 30
0.0
 11
3.36176
 21
0.275553
 31
0.0
  0
LINE
  8
0
 62
     160
 10
3.36176
 20
0.275553
 30
0.0
 11
2.92518
 21
0.251953
 31
0.0
  0
LINE
  8
0
 62
     160
 10
2.92518
 20
0.251953
 30
0.0
 11
2.44217
 21
0.251844
 31
0.0
  0
LINE
  8
0
 62
     160
 10
2.44217
 20
0.251844
 30
0.0
 11
2.28857
 21
0.275499
 31
0.0
  0
LINE
  8
0
 62
     160
 10
2.28857
 20
0.275499
 30
0.0
 11
2.28304
 21
0.274251
 31
0.0
  0
LINE
  8
0
 62
     160
 10
2.28304
 20
0.274251
 30
0.0
 11
2.24957
 21
0.251953
 31
0.0
  0
LINE
  8
0
 62
     160
 10
2.24957
 20
0.251953
 30
0.0
 11
1.9459
 21
0.251899
 31
0.0
  0
LINE
  8
0
 62
     160
 10
1.9459
 20
0.251899
 30
0.0
 11
1.76764
 21
0.275553
 31
0.0
  0
LINE
  8
0
 62
     160
 10
1.76764
 20
0.275553
 30
0.0
 11
0.86084
 21
0.263781
 31
0.0
  0
LINE
  8
0
 62
     160
 10
0.86084
 20
0.263781
 30
0.0
 11
0.815756
 21
0.297581
 31
0.0
  0
LINE
  8
0
 62
     160
 10
0.815756
 20
0.297581
 30
0.0
 11
0.805447
 21
0.296875
 31
0.0
  0
LINE
  8
0
 62
     160
 10
0.805447
 20
0.296875
 30
0.0
 11
0.784125
 21
0.275608
 31
0.0
  0
LINE
  8
0
 62
     160
 10
0.784125
 20
0.275608
 30
0.0
 11
0.291342
 21
0.275608
 31
0.0
  0
LINE
  8
0
 62
     160
 10
0.291342
 20
0.275608
 30
0.0
 11
0.283475
 21
0.267686
 31
0.0
  0
LINE
  8
0
 62
     160
 10
0.283475
 20
0.267686
 30
0.0
 11
0.283475
 21
0.220432
 31
0.0
  0
LINE
  8
0
 62
     160
 10
0.283475
 20
0.220432
 30
0.0
 11
0.286947
 21
0.213921
 31
0.0
  0
LINE
  8
0
 62
     160
 10
0.286947
 20
0.213921
 30
0.0
 11
0.354329
 21
0.169
 31
0.0
  0
LINE
  8
0
 62
     160
 10
0.354329
 20
0.169
 30
0.0
 11
0.354329
 21
0.0347222
 31
0.0
  0
LINE
  8
0
 62
     160
 10
0.354329
 20
0.0347222
 30
0.0
 11
0.33534
 21
0.0157335
 31
0.0
  0
LINE
  8
0
 62
     160
 10
0.33534
 20
0.0157335
 30
0.0
 11
0.0836046
 21
0.0157335
 31
0.0
  0
LINE
  8
0
 62
     160
 10
0.0836046
 20
0.0157335
 30
0.0
 11
0.0275608
 21
0.127821
 31
0.0
  0
LINE
  8
0
 62
     160
 10
0.0275608
 20
0.127821
 30
0.0
 11
0.0275608
 21
0.239529
 31
0.0
  0
LINE
  8
0
 62
     160
 10
0.0275608
 20
0.239529
 30
0.0
 11
0.105035
 21
0.283746
 31
0.0
  0
LINE
  8
0
 62
     160
 10
0.105035
 20
0.283746
 30
0.0
 11
0.174533
 21
0.295356
 31
0.0
  0
LINE
  8
0
 62
     160
 10
0.174533
 20
0.295356
 30
0.0
 11
0.180989
 21
0.30165
 31
0.0
  0
LINE
  8
0
 62
     160
 10
0.180989
 20
0.30165
 30
0.0
 11
0.1773
 21
0.309896
 31
0.0
  0
LINE
  8
0
 62
     160
 10
0.1773
 20
0.309896
 30
0.0
 11
0.12207
 21
0.343044
 31
0.0
  0
LINE
  8
0
 62
     160
 10
0.12207
 20
0.343044
 30
0.0
 11
0.12207
 21
0.512478
 31
0.0
  0
LINE
  8
0
 62
     160
 10
0.12207
 20
0.512478
 30
0.0
 11
0.143392
 21
0.5338
 31
0.0
  0
LINE
  8
0
 62
     160
 10
0.143392
 20
0.5338
 30
0.0
 11
0.143392
 21
0.544922
 31
0.0
  0
LINE
  8
0
 62
     160
 10
0.143392
 20
0.544922
 30
0.0
 11
0.119737
 21
0.568576
 31
0.0
  0
LINE
  8
0
 62
     160
 10
0.119737
 20
0.568576
 30
0.0
 11
0.114149
 21
0.570856
 31
0.0
  0
LINE
  8
0
 62
     160
 10
0.114149
 20
0.570856
 30
0.0
 11
0.0347765
 21
0.570856
 31
0.0
  0
LINE
  8
0
 62
     160
 10
0.0347765
 20
0.570856
 30
0.0
 11
0.0157335
 21
0.589844
 31
0.0
  0
LINE
  8
0
 62
     160
 10
0.0157335
 20
0.589844
 30
0.0
 11
0.0157335
 21
0.714031
 31
0.0
  0
LINE
  8
0
 62
     160
 10
0.0157335
 20
0.714031
 30
0.0
 11
0.0555012
 21
0.769694
 31
0.0
  0
LINE
  8
0
 62
     160
 10
0.0555012
 20
0.769694
 30
0.0
 11
0.0361871
 21
0.769694
 31
0.0
  0
LINE
  8
0
 62
     160
 10
0.0361871
 20
0.769694
 30
0.0
 11
0.00146485
 21
0.721083
 31
0.0
  0
LINE
  8
0
 62
     160
 10
0.00146485
 20
0.721083
 30
0.0
 11
0
 21
0.716525
 31
0.0
  0
LINE
  8
0
 62
     160
 10
0
 20
0.716525
 30
0.0
 11
0
 21
0.586589
 31
0.0
  0
LINE
  8
0
 62
     160
 10
0
 20
0.586589
 30
0.0
 11
0.0023329
 21
0.581
 31
0.0
  0
LINE
  8
0
 62
     160
 10
0.0023329
 20
0.581
 30
0.0
 11
0.0259332
 21
0.5574
 31
0.0
  0
LINE
  8
0
 62
     160
 10
0.0259332
 20
0.5574
 30
0.0
 11
0.0315213
 21
0.555122
 31
0.0
  0
LINE
  8
0
 62
     160
 10
0.0315213
 20
0.555122
 30
0.0
 11
0.110894
 21
0.555122
 31
0.0
  0
LINE
  8
0
 62
     160
 10
0.110894
 20
0.555122
 30
0.0
 11
0.126682
 21
0.539387
 31
0.0
  0
LINE
  8
0
 62
     160
 10
0.126682
 20
0.539387
 30
0.0
 11
0.108615
 21
0.521322
 31
0.0
  0
LINE
  8
0
 62
     160
 10
0.108615
 20
0.521322
 30
0.0
 11
0.106282
 21
0.515733
 31
0.0
  0
LINE
  8
0
 62
     160
 10
0.106282
 20
0.515733
 30
0.0
 11
0.106282
 21
0.338542
 31
0.0
  0
LINE
  8
0
 62
     160
 10
0.106282
 20
0.338542
 30
0.0
 11
0.110135
 21
0.331814
 31
0.0
  0
LINE
  8
0
 62
     160
 10
0.110135
 20
0.331814
 30
0.0
 11
0.150825
 21
0.3074
 31
0.0
  0
LINE
  8
0
 62
     160
 10
0.150825
 20
0.3074
 30
0.0
 11
0.101074
 21
0.2991
 31
0.0
  0
LINE
  8
0
 62
     160
 10
0.101074
 20
0.2991
 30
0.0
 11
0.09847
 21
0.298122
 31
0.0
  0
LINE
  8
0
 62
     160
 10
0.09847
 20
0.298122
 30
0.0
 11
0.0157878
 21
0.250922
 31
0.0
  0
LINE
  8
0
 62
     160
 10
0.0157878
 20
0.250922
 30
0.0
 11
0.0118273
 21
0.244086
 31
0.0
  0
LINE
  8
0
 62
     160
 10
0.0118273
 20
0.244086
 30
0.0
 11
0.0118273
 21
0.125977
 31
0.0
  0
LINE
  8
0
 62
     160
 10
0.0118273
 20
0.125977
 30
0.0
 11
0.0126411
 21
0.12245
 31
0.0
  0
LINE
  8
0
 62
     160
 10
0.0126411
 20
0.12245
 30
0.0
 11
0.0717231
 21
0.00434028
 31
0.0
  0
LINE
  8
0
 62
     160
 10
0.0717231
 20
0.00434028
 30
0.0
 11
0.0787218
 21
-0
 31
0.0
  0
LINE
  8
0
 62
     160
 10
0.0787218
 20
-0
 30
0.0
 11
0.338596
 21
-0
 31
0.0
  0
LINE
  8
0
 62
     160
 10
0.338596
 20
-0
 30
0.0
 11
0.344183
 21
0.00227864
 31
0.0
  0
LINE
  8
0
 62
     160
 10
0.344183
 20
0.00227864
 30
0.0
 11
0.367785
 21
0.0258789
 31
0.0
  0
LINE
  8
0
 62
     160
 10
0.367785
 20
0.0258789
 30
0.0
 11
0.370063
 21
0.0314669
 31
0.0
  0
LINE
  8
0
 62
     160
 10
0.370063
 20
0.0314669
 30
0.0
 11
0.370063
 21
0.173178
 31
0.0
  0
LINE
  8
0
 62
     160
 10
0.370063
 20
0.173178
 30
0.0
 11
0.36659
 21
0.179742
 31
0.0
  0
LINE
  8
0
 62
     160
 10
0.36659
 20
0.179742
 30
0.0
 11
0.299208
 21
0.224664
 31
0.0
  0
LINE
  8
0
 62
     160
 10
0.299208
 20
0.224664
 30
0.0
 11
0.299208
 21
0.259819
 31
0.0
  0
LINE
  8
0
 62
     160
 10
0.299208
 20
0.259819
 30
0.0
 11
0.787381
 21
0.259819
 31
0.0
  0
LINE
  8
0
 62
     160
 10
0.787381
 20
0.259819
 30
0.0
 11
0.792969
 21
0.262153
 31
0.0
  0
LINE
  8
0
 62
     160
 10
0.792969
 20
0.262153
 30
0.0
 11
0.81174
 21
0.280925
 31
0.0
  0
LINE
  8
0
 62
     160
 10
0.81174
 20
0.280925
 30
0.0
 11
0.853569
 21
0.249567
 31
0.0
  0
LINE
  8
0
 62
     160
 10
0.853569
 20
0.249567
 30
0.0
 11
0.858344
 21
0.247993
 31
0.0
  0
LINE
  8
0
 62
     160
 10
0.858344
 20
0.247993
 30
0.0
 11
1.76665
 21
0.259928
 31
0.0
  0
LINE
  8
0
 62
     160
 10
1.76665
 20
0.259928
 30
0.0
 11
1.94488
 21
0.236219
 31
0.0
  0
LINE
  8
0
 62
     160
 10
1.94488
 20
0.236219
 30
0.0
 11
2.25196
 21
0.236219
 31
0.0
  0
LINE
  8
0
 62
     160
 10
2.25196
 20
0.236219
 30
0.0
 11
2.25635
 21
0.237522
 31
0.0
  0
LINE
  8
0
 62
     160
 10
2.25635
 20
0.237522
 30
0.0
 11
2.28922
 21
0.25944
 31
0.0
  0
LINE
  8
0
 62
     160
 10
2.28922
 20
0.25944
 30
0.0
 11
2.44092
 21
0.236219
 31
0.0
  0
LINE
  8
0
 62
     160
 10
2.44092
 20
0.236219
 30
0.0
 11
2.92563
 21
0.236219
 31
0.0
  0
LINE
  8
0
 62
     160
 10
2.92563
 20
0.236219
 30
0.0
 11
3.36203
 21
0.259819
 31
0.0
  0
LINE
  8
0
 62
     160
 10
3.36203
 20
0.259819
 30
0.0
 11
3.95258
 21
0.247993
 31
0.0
  0
LINE
  8
0
 62
     160
 10
3.95258
 20
0.247993
 30
0.0
 11
3.95628
 21
0.248861
 31
0.0
  0
LINE
  8
0
 62
     160
 10
3.95628
 20
0.248861
 30
0.0
 11
4.02713
 21
0.284289
 31
0.0
  0
LINE
  8
0
 62
     160
 10
4.02713
 20
0.284289
 30
0.0
 11
4.03147
 21
0.291775
 31
0.0
  0
LINE
  8
0
 62
     160
 10
4.03147
 20
0.291775
 30
0.0
 11
4.01969
 21
0.492567
 31
0.0
  0
ENDSEC
  0
EOF
