  0
SECTION
  2
HEADER
  9
$ACADVER
  1
AC1009
  9
$EXTMIN
 10
0.0
 20
0.0
 30
0.0
  9
$EXTMAX
 10
1000.0
 20
1000.0
 30
0.0
  9
$FILLMODE
 70
 0
  9
$SPLFRAME
 70
 1
  0
ENDSEC
  0
SECTION
  2
TABLES
  0
TABLE
  2
LAYER
 70
1
  0
LAYER
  2
0
 70
     0
 62
     7
  6
CONTINUOUS
  0
ENDTAB
  0
ENDSEC
  0
SECTION
  2
ENTITIES
  0
LINE
  8
0
 62
     4
 10
2.33464
 20
0.0570747
 30
0.0
 11
2.13781
 21
0.0570747
 31
0.0
  0
LINE
  8
0
 62
     4
 10
2.13781
 20
0.0570747
 30
0.0
 11
2.13781
 21
0.194878
 31
0.0
  0
LINE
  8
0
 62
     4
 10
2.13781
 20
0.194878
 30
0.0
 11
2.33464
 21
0.194878
 31
0.0
  0
LINE
  8
0
 62
     4
 10
2.33464
 20
0.194878
 30
0.0
 11
2.33464
 21
0.0570747
 31
0.0
  0
LINE
  8
0
 62
     4
 10
2.3386
 20
0.283419
 30
0.0
 11
2.22049
 21
0.283419
 31
0.0
  0
LINE
  8
0
 62
     4
 10
2.22049
 20
0.283419
 30
0.0
 11
2.17324
 21
0.247993
 31
0.0
  0
LINE
  8
0
 62
     4
 10
2.17324
 20
0.247993
 30
0.0
 11
2.14962
 21
0.271647
 31
0.0
  0
LINE
  8
0
 62
     4
 10
2.14962
 20
0.271647
 30
0.0
 11
1.90158
 21
0.283419
 31
0.0
  0
LINE
  8
0
 62
     4
 10
1.90158
 20
0.283419
 30
0.0
 11
1.85433
 21
0.247993
 31
0.0
  0
LINE
  8
0
 62
     4
 10
1.85433
 20
0.247993
 30
0.0
 11
1.77165
 21
0.283419
 31
0.0
  0
LINE
  8
0
 62
     4
 10
1.77165
 20
0.283419
 30
0.0
 11
1.39372
 21
0.283419
 31
0.0
  0
LINE
  8
0
 62
     4
 10
1.39372
 20
0.283419
 30
0.0
 11
1.33464
 21
0.224392
 31
0.0
  0
LINE
  8
0
 62
     4
 10
1.33464
 20
0.224392
 30
0.0
 11
1.29921
 21
0.224392
 31
0.0
  0
LINE
  8
0
 62
     4
 10
1.29921
 20
0.224392
 30
0.0
 11
1.21652
 21
0.283419
 31
0.0
  0
LINE
  8
0
 62
     4
 10
1.21652
 20
0.283419
 30
0.0
 11
0.980306
 21
0.295247
 31
0.0
  0
LINE
  8
0
 62
     4
 10
0.980306
 20
0.295247
 30
0.0
 11
1.02756
 21
0.342503
 31
0.0
  0
LINE
  8
0
 62
     4
 10
1.02756
 20
0.342503
 30
0.0
 11
1.02756
 21
0.484213
 31
0.0
  0
LINE
  8
0
 62
     4
 10
1.02756
 20
0.484213
 30
0.0
 11
0.992079
 21
0.543294
 31
0.0
  0
LINE
  8
0
 62
     4
 10
0.992079
 20
0.543294
 30
0.0
 11
0.377983
 21
0.543294
 31
0.0
  0
LINE
  8
0
 62
     4
 10
0.377983
 20
0.543294
 30
0.0
 11
0.342503
 21
0.51964
 31
0.0
  0
LINE
  8
0
 62
     4
 10
0.342503
 20
0.51964
 30
0.0
 11
0.236219
 21
0.51964
 31
0.0
  0
LINE
  8
0
 62
     4
 10
0.236219
 20
0.51964
 30
0.0
 11
0.200792
 21
0.543294
 31
0.0
  0
LINE
  8
0
 62
     4
 10
0.200792
 20
0.543294
 30
0.0
 11
0.0236003
 21
0.543294
 31
0.0
  0
LINE
  8
0
 62
     4
 10
0.0236003
 20
0.543294
 30
0.0
 11
0
 21
0.51964
 31
0.0
  0
LINE
  8
0
 62
     4
 10
0
 20
0.51964
 30
0.0
 11
0
 21
0.330729
 31
0.0
  0
LINE
  8
0
 62
     4
 10
0
 20
0.330729
 30
0.0
 11
0.0354275
 21
0.295247
 31
0.0
  0
LINE
  8
0
 62
     4
 10
0.0354275
 20
0.295247
 30
0.0
 11
0.129937
 21
0.283419
 31
0.0
  0
LINE
  8
0
 62
     4
 10
0.129937
 20
0.283419
 30
0.0
 11
0.106282
 21
0.259819
 31
0.0
  0
LINE
  8
0
 62
     4
 10
0.106282
 20
0.259819
 30
0.0
 11
0.106282
 21
0.0826281
 31
0.0
  0
LINE
  8
0
 62
     4
 10
0.106282
 20
0.0826281
 30
0.0
 11
0.129937
 21
0.0590821
 31
0.0
  0
LINE
  8
0
 62
     4
 10
0.129937
 20
0.0590821
 30
0.0
 11
0.165364
 21
0.0590821
 31
0.0
  0
LINE
  8
0
 62
     4
 10
0.165364
 20
0.0590821
 30
0.0
 11
0.224392
 21
-0
 31
0.0
  0
LINE
  8
0
 62
     4
 10
0.224392
 20
-0
 30
0.0
 11
2.48031
 21
-0
 31
0.0
  0
LINE
  8
0
 62
     4
 10
2.48031
 20
-0
 30
0.0
 11
2.50396
 21
0.0236003
 31
0.0
  0
LINE
  8
0
 62
     4
 10
2.50396
 20
0.0236003
 30
0.0
 11
2.50396
 21
0.16531
 31
0.0
  0
LINE
  8
0
 62
     4
 10
2.50396
 20
0.16531
 30
0.0
 11
2.3386
 21
0.283419
 31
0.0
  0
ENDSEC
  0
EOF
