  0
SECTION
  2
HEADER
  9
$ACADVER
  1
AC1009
  9
$EXTMIN
 10
0.0
 20
0.0
 30
0.0
  9
$EXTMAX
 10
1000.0
 20
1000.0
 30
0.0
  9
$FILLMODE
 70
 0
  9
$SPLFRAME
 70
 1
  0
ENDSEC
  0
SECTION
  2
TABLES
  0
TABLE
  2
LAYER
 70
1
  0
LAYER
  2
0
 70
     0
 62
     7
  6
CONTINUOUS
  0
ENDTAB
  0
ENDSEC
  0
SECTION
  2
ENTITIES
  0
LINE
  8
0
 62
     160
 10
2.46903
 20
-0
 30
0.0
 11
0.213108
 21
-0
 31
0.0
  0
LINE
  8
0
 62
     160
 10
0.213108
 20
-0
 30
0.0
 11
0.207519
 21
0.00227864
 31
0.0
  0
LINE
  8
0
 62
     160
 10
0.207519
 20
0.00227864
 30
0.0
 11
0.150771
 21
0.0590278
 31
0.0
  0
LINE
  8
0
 62
     160
 10
0.150771
 20
0.0590278
 30
0.0
 11
0.118598
 21
0.0590278
 31
0.0
  0
LINE
  8
0
 62
     160
 10
0.118598
 20
0.0590278
 30
0.0
 11
0.11301
 21
0.0613607
 31
0.0
  0
LINE
  8
0
 62
     160
 10
0.11301
 20
0.0613607
 30
0.0
 11
0.0894097
 21
0.084961
 31
0.0
  0
LINE
  8
0
 62
     160
 10
0.0894097
 20
0.084961
 30
0.0
 11
0.0870768
 21
0.090549
 31
0.0
  0
LINE
  8
0
 62
     160
 10
0.0870768
 20
0.090549
 30
0.0
 11
0.0870768
 21
0.267686
 31
0.0
  0
LINE
  8
0
 62
     160
 10
0.0870768
 20
0.267686
 30
0.0
 11
0.0894097
 21
0.273275
 31
0.0
  0
LINE
  8
0
 62
     160
 10
0.0894097
 20
0.273275
 30
0.0
 11
0.101671
 21
0.285482
 31
0.0
  0
LINE
  8
0
 62
     160
 10
0.101671
 20
0.285482
 30
0.0
 11
0.0231662
 21
0.295356
 31
0.0
  0
LINE
  8
0
 62
     160
 10
0.0231662
 20
0.295356
 30
0.0
 11
0.0250651
 21
0.310981
 31
0.0
  0
LINE
  8
0
 62
     160
 10
0.0250651
 20
0.310981
 30
0.0
 11
0.119575
 21
0.299154
 31
0.0
  0
LINE
  8
0
 62
     160
 10
0.119575
 20
0.299154
 30
0.0
 11
0.126031
 21
0.293892
 31
0.0
  0
LINE
  8
0
 62
     160
 10
0.126031
 20
0.293892
 30
0.0
 11
0.124186
 21
0.285753
 31
0.0
  0
LINE
  8
0
 62
     160
 10
0.124186
 20
0.285753
 30
0.0
 11
0.102865
 21
0.264432
 31
0.0
  0
LINE
  8
0
 62
     160
 10
0.102865
 20
0.264432
 30
0.0
 11
0.102865
 21
0.0938043
 31
0.0
  0
LINE
  8
0
 62
     160
 10
0.102865
 20
0.0938043
 30
0.0
 11
0.121853
 21
0.0748156
 31
0.0
  0
LINE
  8
0
 62
     160
 10
0.121853
 20
0.0748156
 30
0.0
 11
0.154025
 21
0.0748156
 31
0.0
  0
LINE
  8
0
 62
     160
 10
0.154025
 20
0.0748156
 30
0.0
 11
0.159614
 21
0.0724826
 31
0.0
  0
LINE
  8
0
 62
     160
 10
0.159614
 20
0.0724826
 30
0.0
 11
0.216363
 21
0.0157335
 31
0.0
  0
LINE
  8
0
 62
     160
 10
0.216363
 20
0.0157335
 30
0.0
 11
2.46576
 21
0.0157335
 31
0.0
  0
LINE
  8
0
 62
     160
 10
2.46576
 20
0.0157335
 30
0.0
 11
2.48475
 21
0.0347222
 31
0.0
  0
LINE
  8
0
 62
     160
 10
2.48475
 20
0.0347222
 30
0.0
 11
2.48475
 21
0.169162
 31
0.0
  0
LINE
  8
0
 62
     160
 10
2.48475
 20
0.169162
 30
0.0
 11
2.32476
 21
0.283419
 31
0.0
  0
LINE
  8
0
 62
     160
 10
2.32476
 20
0.283419
 30
0.0
 11
2.21181
 21
0.283419
 31
0.0
  0
LINE
  8
0
 62
     160
 10
2.21181
 20
0.283419
 30
0.0
 11
2.16667
 21
0.249621
 31
0.0
  0
LINE
  8
0
 62
     160
 10
2.16667
 20
0.249621
 30
0.0
 11
2.15636
 21
0.250325
 31
0.0
  0
LINE
  8
0
 62
     160
 10
2.15636
 20
0.250325
 30
0.0
 11
2.13487
 21
0.27181
 31
0.0
  0
LINE
  8
0
 62
     160
 10
2.13487
 20
0.27181
 30
0.0
 11
1.89268
 21
0.283311
 31
0.0
  0
LINE
  8
0
 62
     160
 10
1.89268
 20
0.283311
 30
0.0
 11
1.84776
 21
0.249621
 31
0.0
  0
LINE
  8
0
 62
     160
 10
1.84776
 20
0.249621
 30
0.0
 11
1.8399
 21
0.248643
 31
0.0
  0
LINE
  8
0
 62
     160
 10
1.8399
 20
0.248643
 30
0.0
 11
1.75874
 21
0.283419
 31
0.0
  0
LINE
  8
0
 62
     160
 10
1.75874
 20
0.283419
 30
0.0
 11
1.38563
 21
0.283419
 31
0.0
  0
LINE
  8
0
 62
     160
 10
1.38563
 20
0.283419
 30
0.0
 11
1.32888
 21
0.226671
 31
0.0
  0
LINE
  8
0
 62
     160
 10
1.32888
 20
0.226671
 30
0.0
 11
1.32335
 21
0.224392
 31
0.0
  0
LINE
  8
0
 62
     160
 10
1.32335
 20
0.224392
 30
0.0
 11
1.28792
 21
0.224392
 31
0.0
  0
LINE
  8
0
 62
     160
 10
1.28792
 20
0.224392
 30
0.0
 11
1.28331
 21
0.225857
 31
0.0
  0
LINE
  8
0
 62
     160
 10
1.28331
 20
0.225857
 30
0.0
 11
1.20253
 21
0.283583
 31
0.0
  0
LINE
  8
0
 62
     160
 10
1.20253
 20
0.283583
 30
0.0
 11
0.968587
 21
0.295301
 31
0.0
  0
LINE
  8
0
 62
     160
 10
0.968587
 20
0.295301
 30
0.0
 11
0.961643
 21
0.300293
 31
0.0
  0
LINE
  8
0
 62
     160
 10
0.961643
 20
0.300293
 30
0.0
 11
0.963433
 21
0.308703
 31
0.0
  0
LINE
  8
0
 62
     160
 10
0.963433
 20
0.308703
 30
0.0
 11
1.00836
 21
0.353624
 31
0.0
  0
LINE
  8
0
 62
     160
 10
1.00836
 20
0.353624
 30
0.0
 11
1.00836
 21
0.489908
 31
0.0
  0
LINE
  8
0
 62
     160
 10
1.00836
 20
0.489908
 30
0.0
 11
0.976346
 21
0.543294
 31
0.0
  0
LINE
  8
0
 62
     160
 10
0.976346
 20
0.543294
 30
0.0
 11
0.369032
 21
0.543294
 31
0.0
  0
LINE
  8
0
 62
     160
 10
0.369032
 20
0.543294
 30
0.0
 11
0.335558
 21
0.520996
 31
0.0
  0
LINE
  8
0
 62
     160
 10
0.335558
 20
0.520996
 30
0.0
 11
0.331164
 21
0.51964
 31
0.0
  0
LINE
  8
0
 62
     160
 10
0.331164
 20
0.51964
 30
0.0
 11
0.224935
 21
0.51964
 31
0.0
  0
LINE
  8
0
 62
     160
 10
0.224935
 20
0.51964
 30
0.0
 11
0.22054
 21
0.520996
 31
0.0
  0
LINE
  8
0
 62
     160
 10
0.22054
 20
0.520996
 30
0.0
 11
0.187338
 21
0.543132
 31
0.0
  0
LINE
  8
0
 62
     160
 10
0.187338
 20
0.543132
 30
0.0
 11
0.000976563
 21
0.531521
 31
0.0
  0
LINE
  8
0
 62
     160
 10
0.000976563
 20
0.531521
 30
0.0
 11
0
 21
0.5472
 31
0.0
  0
LINE
  8
0
 62
     160
 10
0
 20
0.5472
 30
0.0
 11
0.188965
 21
0.559028
 31
0.0
  0
LINE
  8
0
 62
     160
 10
0.188965
 20
0.559028
 30
0.0
 11
0.193847
 21
0.557725
 31
0.0
  0
LINE
  8
0
 62
     160
 10
0.193847
 20
0.557725
 30
0.0
 11
0.227268
 21
0.535428
 31
0.0
  0
LINE
  8
0
 62
     160
 10
0.227268
 20
0.535428
 30
0.0
 11
0.328776
 21
0.535428
 31
0.0
  0
LINE
  8
0
 62
     160
 10
0.328776
 20
0.535428
 30
0.0
 11
0.362304
 21
0.557725
 31
0.0
  0
LINE
  8
0
 62
     160
 10
0.362304
 20
0.557725
 30
0.0
 11
0.366644
 21
0.559028
 31
0.0
  0
LINE
  8
0
 62
     160
 10
0.366644
 20
0.559028
 30
0.0
 11
0.980794
 21
0.559028
 31
0.0
  0
LINE
  8
0
 62
     160
 10
0.980794
 20
0.559028
 30
0.0
 11
0.987522
 21
0.555231
 31
0.0
  0
LINE
  8
0
 62
     160
 10
0.987522
 20
0.555231
 30
0.0
 11
1.023
 21
0.496149
 31
0.0
  0
LINE
  8
0
 62
     160
 10
1.023
 20
0.496149
 30
0.0
 11
1.02414
 21
0.492133
 31
0.0
  0
LINE
  8
0
 62
     160
 10
1.02414
 20
0.492133
 30
0.0
 11
1.02414
 21
0.350369
 31
0.0
  0
LINE
  8
0
 62
     160
 10
1.02414
 20
0.350369
 30
0.0
 11
1.02181
 21
0.344781
 31
0.0
  0
LINE
  8
0
 62
     160
 10
1.02181
 20
0.344781
 30
0.0
 11
0.987142
 21
0.310113
 31
0.0
  0
LINE
  8
0
 62
     160
 10
0.987142
 20
0.310113
 30
0.0
 11
1.20562
 21
0.299208
 31
0.0
  0
LINE
  8
0
 62
     160
 10
1.20562
 20
0.299208
 30
0.0
 11
1.2098
 21
0.297743
 31
0.0
  0
LINE
  8
0
 62
     160
 10
1.2098
 20
0.297743
 30
0.0
 11
1.29042
 21
0.240126
 31
0.0
  0
LINE
  8
0
 62
     160
 10
1.29042
 20
0.240126
 30
0.0
 11
1.3201
 21
0.240126
 31
0.0
  0
LINE
  8
0
 62
     160
 10
1.3201
 20
0.240126
 30
0.0
 11
1.37679
 21
0.296875
 31
0.0
  0
LINE
  8
0
 62
     160
 10
1.37679
 20
0.296875
 30
0.0
 11
1.38238
 21
0.299208
 31
0.0
  0
LINE
  8
0
 62
     160
 10
1.38238
 20
0.299208
 30
0.0
 11
1.76036
 21
0.299208
 31
0.0
  0
LINE
  8
0
 62
     160
 10
1.76036
 20
0.299208
 30
0.0
 11
1.76346
 21
0.298557
 31
0.0
  0
LINE
  8
0
 62
     160
 10
1.76346
 20
0.298557
 30
0.0
 11
1.84196
 21
0.264919
 31
0.0
  0
LINE
  8
0
 62
     160
 10
1.84196
 20
0.264919
 30
0.0
 11
1.88553
 21
0.297635
 31
0.0
  0
LINE
  8
0
 62
     160
 10
1.88553
 20
0.297635
 30
0.0
 11
1.89063
 21
0.299208
 31
0.0
  0
LINE
  8
0
 62
     160
 10
1.89063
 20
0.299208
 30
0.0
 11
2.13867
 21
0.287381
 31
0.0
  0
LINE
  8
0
 62
     160
 10
2.13867
 20
0.287381
 30
0.0
 11
2.14387
 21
0.285101
 31
0.0
  0
LINE
  8
0
 62
     160
 10
2.14387
 20
0.285101
 30
0.0
 11
2.16265
 21
0.266276
 31
0.0
  0
LINE
  8
0
 62
     160
 10
2.16265
 20
0.266276
 30
0.0
 11
2.20443
 21
0.297635
 31
0.0
  0
LINE
  8
0
 62
     160
 10
2.20443
 20
0.297635
 30
0.0
 11
2.20915
 21
0.299208
 31
0.0
  0
LINE
  8
0
 62
     160
 10
2.20915
 20
0.299208
 30
0.0
 11
2.32725
 21
0.299208
 31
0.0
  0
LINE
  8
0
 62
     160
 10
2.32725
 20
0.299208
 30
0.0
 11
2.33182
 21
0.297743
 31
0.0
  0
LINE
  8
0
 62
     160
 10
2.33182
 20
0.297743
 30
0.0
 11
2.49718
 21
0.179633
 31
0.0
  0
LINE
  8
0
 62
     160
 10
2.49718
 20
0.179633
 30
0.0
 11
2.50049
 21
0.173232
 31
0.0
  0
LINE
  8
0
 62
     160
 10
2.50049
 20
0.173232
 30
0.0
 11
2.50049
 21
0.0314669
 31
0.0
  0
LINE
  8
0
 62
     160
 10
2.50049
 20
0.0314669
 30
0.0
 11
2.49821
 21
0.0258789
 31
0.0
  0
LINE
  8
0
 62
     160
 10
2.49821
 20
0.0258789
 30
0.0
 11
2.47456
 21
0.00227864
 31
0.0
  0
LINE
  8
0
 62
     160
 10
2.47456
 20
0.00227864
 30
0.0
 11
2.46903
 21
-0
 31
0.0
  0
ENDSEC
  0
EOF
