<?xml version="1.0" encoding="utf-8"?>
<!-- Generator: Adobe Illustrator 15.0.2, SVG Export Plug-In . SVG Version: 6.00 Build 0)  -->
<!DOCTYPE svg PUBLIC "-//W3C//DTD SVG 1.1//EN" "http://www.w3.org/Graphics/SVG/1.1/DTD/svg11.dtd">
<svg version="1.1" id="レイヤー_1" xmlns="http://www.w3.org/2000/svg" xmlns:xlink="http://www.w3.org/1999/xlink" x="0px"
	 y="0px" width="25px" height="25px" viewBox="0 0 25 25" enable-background="new 0 0 25 25" xml:space="preserve">
<path fill="#231815" d="M1.2,16.884c-0.265-0.602-0.734-1.104-0.892-1.741c-0.157-0.638-0.244-1.321-0.301-1.971
	c-0.051-0.651,0.153-3.307,0.308-3.94c0.15-0.622,0.491-1.208,0.742-1.807c0.247-0.58,0.49-1.188,0.825-1.735
	c0.331-0.531,0.953-0.866,1.378-1.353c0.561-0.653,0.979-1.416,1.642-1.918C5.575,1.9,6.396,1.629,7.149,1.266
	C7.91,0.902,8.624,0.383,9.441,0.181c0.825-0.206,1.701-0.019,2.544-0.048c0.848-0.032,1.697-0.223,2.531-0.081
	c0.817,0.132,1.552,0.58,2.337,0.882c0.637,0.245,1.287,0.444,1.891,0.798c0.582,0.347,1.301,0.55,1.838,1.004
	c0.47,0.402,0.817,0.934,1.21,1.384c0.399,0.46,0.744,1.037,1.069,1.532c0.38,0.596,0.878,1.069,1.144,1.709
	c0.272,0.644,0.389,1.356,0.544,2.032c0.169,0.737,0.421,1.507,0.449,2.263c0.026,0.763-0.211,1.839-0.327,2.595
	c-0.11,0.748-0.277,1.307-0.535,2.029c-0.244,0.705-0.357,1.574-0.744,2.236c-0.376,0.648-0.686,1.344-1.19,1.919
	c-0.538,0.632-1.207,1.198-1.69,1.829c-0.907,1.188-2.019,1.591-4.05,2.225c-1.71,0.535-2.627-0.076-3.474-0.039
	c-0.831,0.039-1.612-0.105-2.438-0.23c-0.805-0.123-1.604-0.346-2.386-0.629c-0.676-0.251-1.277-0.672-1.909-1.046
	c-0.61-0.354-1.372-0.534-1.932-1.007c-0.482-0.412-2.141-2.338-2.467-2.859C1.522,18.159,1.438,17.45,1.2,16.884z"/>
</svg>
