<?xml version="1.0" encoding="utf-8"?>
<!-- Generator: Adobe Illustrator 15.0.2, SVG Export Plug-In . SVG Version: 6.00 Build 0)  -->
<!DOCTYPE svg PUBLIC "-//W3C//DTD SVG 1.1//EN" "http://www.w3.org/Graphics/SVG/1.1/DTD/svg11.dtd">
<svg version="1.1" id="レイヤー_1" xmlns="http://www.w3.org/2000/svg" xmlns:xlink="http://www.w3.org/1999/xlink" x="0px"
	 y="0px" width="32px" height="22px" viewBox="0 0 32 22" enable-background="new 0 0 32 22" xml:space="preserve">
<path fill="#808080" d="M7.81,21.531c0.14,0,0.781-0.006,1.096-0.594c0.271-0.508,0.615-1.145,1.046-1.757
	c0.431-0.614,0.748-0.983,1.138-1.321c0.208-0.179,0.363-0.211,0.484-0.111c0.104,0.082,0.015,0.229-0.129,0.446
	c-0.138,0.21-0.489,0.806-0.709,1.273c-0.219,0.471-0.427,1.148-0.427,1.593c0,0.287,0.172,0.469,0.525,0.469
	c6.897,0,14.571,0.002,14.571,0.002h5.583c0.985,0,1.308-0.646,0.716-1.432L17.074,0.59c-0.59-0.787-1.557-0.787-2.148,0L0.295,20.1
	c-0.59,0.785-0.27,1.432,0.714,1.432l1.943-0.002c0,0,0.627,0.004,1.088-0.396c0.538-0.453,1.223-1.969,1.764-2.783
	c0.552-0.836,1.598-2.282,2.696-3.067c0.303-0.216,0.538-0.165,0.633-0.101c0.09,0.058,0.18,0.16-0.125,0.554
	c-0.228,0.292-0.97,1.239-1.4,2.028c-0.278,0.514-1.036,1.762-1.036,3.066c0,0.559,0.295,0.701,0.627,0.701H7.81z"/>
</svg>
