solid OpenSCAD_Model
  facet normal -1 0 0
    outer loop
      vertex -15 -15 -5
      vertex -15 -15 5
      vertex -15 15 -5
    endloop
  endfacet
  facet normal -1 0 0
    outer loop
      vertex -15 15 -5
      vertex -15 -15 5
      vertex -15 15 5
    endloop
  endfacet
  facet normal 0 -1 0
    outer loop
      vertex -15 -15 5
      vertex -15 -15 -5
      vertex 15 -15 -5
    endloop
  endfacet
  facet normal 0 -1 0
    outer loop
      vertex 15 -15 5
      vertex -15 -15 5
      vertex 15 -15 -5
    endloop
  endfacet
  facet normal 0 0 -1
    outer loop
      vertex -5.25 -5.25 -5
      vertex 5.25 -5.25 -5
      vertex 15 -15 -5
    endloop
  endfacet
  facet normal 0 0 -1
    outer loop
      vertex -5.25 5.25 -5
      vertex -15 15 -5
      vertex 15 15 -5
    endloop
  endfacet
  facet normal 0 0 -1
    outer loop
      vertex -15 -15 -5
      vertex -15 15 -5
      vertex -5.25 5.25 -5
    endloop
  endfacet
  facet normal 0 0 -1
    outer loop
      vertex 5.25 5.25 -5
      vertex -5.25 5.25 -5
      vertex 15 15 -5
    endloop
  endfacet
  facet normal 0 0 -1
    outer loop
      vertex -15 -15 -5
      vertex -5.25 5.25 -5
      vertex -5.25 -5.25 -5
    endloop
  endfacet
  facet normal 0 0 -1
    outer loop
      vertex -15 -15 -5
      vertex -5.25 -5.25 -5
      vertex 15 -15 -5
    endloop
  endfacet
  facet normal 0 0 -1
    outer loop
      vertex 15 -15 -5
      vertex 5.25 -5.25 -5
      vertex 15 15 -5
    endloop
  endfacet
  facet normal 0 0 -1
    outer loop
      vertex 5.25 -5.25 -5
      vertex 5.25 5.25 -5
      vertex 15 15 -5
    endloop
  endfacet
  facet normal 0 1 0
    outer loop
      vertex -15 15 -5
      vertex -15 15 5
      vertex 15 15 -5
    endloop
  endfacet
  facet normal 0 1 0
    outer loop
      vertex 15 15 -5
      vertex -15 15 5
      vertex 15 15 5
    endloop
  endfacet
  facet normal 0 0 1
    outer loop
      vertex -5.25 -5.25 5
      vertex -15 -15 5
      vertex 15 -15 5
    endloop
  endfacet
  facet normal 0 0 1
    outer loop
      vertex -5.25 5.25 5
      vertex -15 15 5
      vertex -5.25 -5.25 5
    endloop
  endfacet
  facet normal 0 0 1
    outer loop
      vertex 5.25 -5.25 5
      vertex -5.25 -5.25 5
      vertex 15 -15 5
    endloop
  endfacet
  facet normal 0 0 1
    outer loop
      vertex -15 15 5
      vertex -15 -15 5
      vertex -5.25 -5.25 5
    endloop
  endfacet
  facet normal 0 0 1
    outer loop
      vertex 15 15 5
      vertex -15 15 5
      vertex -5.25 5.25 5
    endloop
  endfacet
  facet normal 0 0 1
    outer loop
      vertex 15 15 5
      vertex 5.25 5.25 5
      vertex 15 -15 5
    endloop
  endfacet
  facet normal 0 0 1
    outer loop
      vertex 15 15 5
      vertex -5.25 5.25 5
      vertex 5.25 5.25 5
    endloop
  endfacet
  facet normal 0 0 1
    outer loop
      vertex 5.25 5.25 5
      vertex 5.25 -5.25 5
      vertex 15 -15 5
    endloop
  endfacet
  facet normal 1 0 0
    outer loop
      vertex 15 -15 5
      vertex 15 -15 -5
      vertex 15 15 -5
    endloop
  endfacet
  facet normal 1 0 0
    outer loop
      vertex 15 15 5
      vertex 15 -15 5
      vertex 15 15 -5
    endloop
  endfacet
  facet normal 1 0 0
    outer loop
      vertex -5.25 5.25 -5
      vertex -5.25 5.25 5
      vertex -5.25 -5.25 5
    endloop
  endfacet
  facet normal 1 0 0
    outer loop
      vertex -5.25 -5.25 -5
      vertex -5.25 5.25 -5
      vertex -5.25 -5.25 5
    endloop
  endfacet
  facet normal 0 -1 0
    outer loop
      vertex 5.25 5.25 -5
      vertex 5.25 5.25 5
      vertex -5.25 5.25 5
    endloop
  endfacet
  facet normal 0 -1 0
    outer loop
      vertex -5.25 5.25 -5
      vertex 5.25 5.25 -5
      vertex -5.25 5.25 5
    endloop
  endfacet
  facet normal -1 0 0
    outer loop
      vertex 5.25 5.25 5
      vertex 5.25 5.25 -5
      vertex 5.25 -5.25 5
    endloop
  endfacet
  facet normal -1 0 0
    outer loop
      vertex 5.25 -5.25 5
      vertex 5.25 5.25 -5
      vertex 5.25 -5.25 -5
    endloop
  endfacet
  facet normal 0 1 0
    outer loop
      vertex 5.25 -5.25 5
      vertex 5.25 -5.25 -5
      vertex -5.25 -5.25 5
    endloop
  endfacet
  facet normal 0 1 0
    outer loop
      vertex -5.25 -5.25 5
      vertex 5.25 -5.25 -5
      vertex -5.25 -5.25 -5
    endloop
  endfacet
  facet normal -1 0 0
    outer loop
      vertex 25 -15 -5
      vertex 25 -15 5
      vertex 25 15 -5
    endloop
  endfacet
  facet normal -1 0 0
    outer loop
      vertex 25 15 -5
      vertex 25 -15 5
      vertex 25 15 5
    endloop
  endfacet
  facet normal 0 -1 0
    outer loop
      vertex 25 -15 5
      vertex 25 -15 -5
      vertex 55 -15 -5
    endloop
  endfacet
  facet normal 0 -1 0
    outer loop
      vertex 55 -15 5
      vertex 25 -15 5
      vertex 55 -15 -5
    endloop
  endfacet
  facet normal 0 0 -1
    outer loop
      vertex 34.5 -5.5 -5
      vertex 45.5 -5.5 -5
      vertex 55 -15 -5
    endloop
  endfacet
  facet normal 0 0 -1
    outer loop
      vertex 34.5 5.5 -5
      vertex 25 15 -5
      vertex 55 15 -5
    endloop
  endfacet
  facet normal 0 0 -1
    outer loop
      vertex 25 -15 -5
      vertex 25 15 -5
      vertex 34.5 5.5 -5
    endloop
  endfacet
  facet normal 0 0 -1
    outer loop
      vertex 45.5 5.5 -5
      vertex 34.5 5.5 -5
      vertex 55 15 -5
    endloop
  endfacet
  facet normal 0 0 -1
    outer loop
      vertex 25 -15 -5
      vertex 34.5 5.5 -5
      vertex 34.5 -5.5 -5
    endloop
  endfacet
  facet normal 0 0 -1
    outer loop
      vertex 25 -15 -5
      vertex 34.5 -5.5 -5
      vertex 55 -15 -5
    endloop
  endfacet
  facet normal 0 0 -1
    outer loop
      vertex 55 -15 -5
      vertex 45.5 -5.5 -5
      vertex 55 15 -5
    endloop
  endfacet
  facet normal 0 0 -1
    outer loop
      vertex 45.5 -5.5 -5
      vertex 45.5 5.5 -5
      vertex 55 15 -5
    endloop
  endfacet
  facet normal 0 1 0
    outer loop
      vertex 25 15 -5
      vertex 25 15 5
      vertex 55 15 -5
    endloop
  endfacet
  facet normal 0 1 0
    outer loop
      vertex 55 15 -5
      vertex 25 15 5
      vertex 55 15 5
    endloop
  endfacet
  facet normal 0 0 1
    outer loop
      vertex 34.5 -5.5 5
      vertex 25 -15 5
      vertex 55 -15 5
    endloop
  endfacet
  facet normal 0 0 1
    outer loop
      vertex 34.5 5.5 5
      vertex 25 15 5
      vertex 34.5 -5.5 5
    endloop
  endfacet
  facet normal 0 0 1
    outer loop
      vertex 45.5 -5.5 5
      vertex 34.5 -5.5 5
      vertex 55 -15 5
    endloop
  endfacet
  facet normal 0 0 1
    outer loop
      vertex 25 15 5
      vertex 25 -15 5
      vertex 34.5 -5.5 5
    endloop
  endfacet
  facet normal 0 0 1
    outer loop
      vertex 55 15 5
      vertex 25 15 5
      vertex 34.5 5.5 5
    endloop
  endfacet
  facet normal 0 0 1
    outer loop
      vertex 55 15 5
      vertex 45.5 5.5 5
      vertex 55 -15 5
    endloop
  endfacet
  facet normal 0 0 1
    outer loop
      vertex 55 15 5
      vertex 34.5 5.5 5
      vertex 45.5 5.5 5
    endloop
  endfacet
  facet normal 0 0 1
    outer loop
      vertex 45.5 5.5 5
      vertex 45.5 -5.5 5
      vertex 55 -15 5
    endloop
  endfacet
  facet normal 1 0 0
    outer loop
      vertex 55 -15 5
      vertex 55 -15 -5
      vertex 55 15 -5
    endloop
  endfacet
  facet normal 1 0 0
    outer loop
      vertex 55 15 5
      vertex 55 -15 5
      vertex 55 15 -5
    endloop
  endfacet
  facet normal 1 0 0
    outer loop
      vertex 34.5 5.5 -5
      vertex 34.5 5.5 5
      vertex 34.5 -5.5 5
    endloop
  endfacet
  facet normal 1 0 0
    outer loop
      vertex 34.5 -5.5 -5
      vertex 34.5 5.5 -5
      vertex 34.5 -5.5 5
    endloop
  endfacet
  facet normal 0 -1 0
    outer loop
      vertex 45.5 5.5 -5
      vertex 45.5 5.5 5
      vertex 34.5 5.5 5
    endloop
  endfacet
  facet normal 0 -1 0
    outer loop
      vertex 34.5 5.5 -5
      vertex 45.5 5.5 -5
      vertex 34.5 5.5 5
    endloop
  endfacet
  facet normal -1 0 0
    outer loop
      vertex 45.5 5.5 5
      vertex 45.5 5.5 -5
      vertex 45.5 -5.5 5
    endloop
  endfacet
  facet normal -1 0 0
    outer loop
      vertex 45.5 -5.5 5
      vertex 45.5 5.5 -5
      vertex 45.5 -5.5 -5
    endloop
  endfacet
  facet normal 0 1 0
    outer loop
      vertex 45.5 -5.5 5
      vertex 45.5 -5.5 -5
      vertex 34.5 -5.5 5
    endloop
  endfacet
  facet normal 0 1 0
    outer loop
      vertex 34.5 -5.5 5
      vertex 45.5 -5.5 -5
      vertex 34.5 -5.5 -5
    endloop
  endfacet
endsolid OpenSCAD_Model
