solid OpenSCAD_Model
  facet normal -1 0 0
    outer loop
      vertex -12.5 -20 -5
      vertex -12.5 -20 10
      vertex -12.5 30 -5
    endloop
  endfacet
  facet normal -1 0 0
    outer loop
      vertex -12.5 30 -5
      vertex -12.5 -20 10
      vertex -12.5 30 10
    endloop
  endfacet
  facet normal 0 -1 0
    outer loop
      vertex 0.15 -20 -3
      vertex -12.5 -20 -5
      vertex 2.5 -20 -5
    endloop
  endfacet
  facet normal 0 -1 0
    outer loop
      vertex -4 -20 0
      vertex -6 -20 0
      vertex -4 -20 -3
    endloop
  endfacet
  facet normal 0 -1 0
    outer loop
      vertex 2.5 -20 10
      vertex 0.15 -20 10
      vertex 2.5 -20 -5
    endloop
  endfacet
  facet normal 0 -1 0
    outer loop
      vertex -4 -20 -3
      vertex -12.5 -20 -5
      vertex 0.15 -20 -3
    endloop
  endfacet
  facet normal 0 -1 0
    outer loop
      vertex -6 -20 -3
      vertex -12.5 -20 -5
      vertex -4 -20 -3
    endloop
  endfacet
  facet normal 0 -1 0
    outer loop
      vertex -6 -20 -3
      vertex -10.15 -20 -3
      vertex -12.5 -20 -5
    endloop
  endfacet
  facet normal 0 -1 0
    outer loop
      vertex -6 -20 0
      vertex -6 -20 -3
      vertex -4 -20 -3
    endloop
  endfacet
  facet normal 0 -1 0
    outer loop
      vertex -12.5 -20 10
      vertex -12.5 -20 -5
      vertex -10.15 -20 -3
    endloop
  endfacet
  facet normal 0 -1 0
    outer loop
      vertex 0.15 -20 10
      vertex 0.15 -20 -3
      vertex 2.5 -20 -5
    endloop
  endfacet
  facet normal 0 -1 0
    outer loop
      vertex -10.15 -20 -3
      vertex -10.15 -20 10
      vertex -12.5 -20 10
    endloop
  endfacet
  facet normal 0 0 -1
    outer loop
      vertex 2.5 -17.2487 -5
      vertex 2.5 -20 -5
      vertex -6 -0.25 -5
    endloop
  endfacet
  facet normal 0 0 -1
    outer loop
      vertex 2.5 27.2487 -5
      vertex -12.5 30 -5
      vertex 2.5 30 -5
    endloop
  endfacet
  facet normal 0 0 -1
    outer loop
      vertex 4 -0.25 -5
      vertex 2.5 -17.2487 -5
      vertex -6 -0.25 -5
    endloop
  endfacet
  facet normal 0 0 -1
    outer loop
      vertex -6 10.25 -5
      vertex 2.5 27.2487 -5
      vertex 4 10.25 -5
    endloop
  endfacet
  facet normal 0 0 -1
    outer loop
      vertex 17.4987 -2.25 -5
      vertex 30 12.75 -5
      vertex 30 -2.25 -5
    endloop
  endfacet
  facet normal 0 0 -1
    outer loop
      vertex 4 -0.25 -5
      vertex 16.9987 12.75 -5
      vertex 2.5 -17.2487 -5
    endloop
  endfacet
  facet normal 0 0 -1
    outer loop
      vertex -6 -0.25 -5
      vertex -12.5 30 -5
      vertex -6 10.25 -5
    endloop
  endfacet
  facet normal 0 0 -1
    outer loop
      vertex 2.5 27.2487 -5
      vertex -6 10.25 -5
      vertex -12.5 30 -5
    endloop
  endfacet
  facet normal 0 0 -1
    outer loop
      vertex -12.5 -20 -5
      vertex -12.5 30 -5
      vertex -6 -0.25 -5
    endloop
  endfacet
  facet normal 0 0 -1
    outer loop
      vertex -12.5 -20 -5
      vertex -6 -0.25 -5
      vertex 2.5 -20 -5
    endloop
  endfacet
  facet normal 0 0 -1
    outer loop
      vertex 4 10.25 -5
      vertex 16.9987 12.75 -5
      vertex 4 -0.25 -5
    endloop
  endfacet
  facet normal 0 0 -1
    outer loop
      vertex 2.5 27.2487 -5
      vertex 16.9987 12.75 -5
      vertex 4 10.25 -5
    endloop
  endfacet
  facet normal 0 0 -1
    outer loop
      vertex 2.5 -17.2487 -5
      vertex 16.9987 12.75 -5
      vertex 30 12.75 -5
    endloop
  endfacet
  facet normal 0 0 -1
    outer loop
      vertex 2.5 -17.2487 -5
      vertex 30 12.75 -5
      vertex 17.4987 -2.25 -5
    endloop
  endfacet
  facet normal 0 1 0
    outer loop
      vertex -12.5 30 -5
      vertex -12.5 30 10
      vertex -10.15 30 -3
    endloop
  endfacet
  facet normal 0 1 0
    outer loop
      vertex -12.5 30 -5
      vertex -10.15 30 -3
      vertex 2.5 30 -5
    endloop
  endfacet
  facet normal 0 1 0
    outer loop
      vertex -4 30 -3
      vertex -6 30 0
      vertex -4 30 0
    endloop
  endfacet
  facet normal 0 1 0
    outer loop
      vertex -10.15 30 -3
      vertex -6 30 -3
      vertex 2.5 30 -5
    endloop
  endfacet
  facet normal 0 1 0
    outer loop
      vertex 0.15 30 -3
      vertex 2.5 30 -5
      vertex -4 30 -3
    endloop
  endfacet
  facet normal 0 1 0
    outer loop
      vertex -6 30 -3
      vertex -6 30 0
      vertex -4 30 -3
    endloop
  endfacet
  facet normal 0 1 0
    outer loop
      vertex -6 30 -3
      vertex -4 30 -3
      vertex 2.5 30 -5
    endloop
  endfacet
  facet normal 0 1 0
    outer loop
      vertex 0.15 30 10
      vertex 2.5 30 -5
      vertex 0.15 30 -3
    endloop
  endfacet
  facet normal 0 1 0
    outer loop
      vertex 2.5 30 -5
      vertex 0.15 30 10
      vertex 2.5 30 10
    endloop
  endfacet
  facet normal 0 1 0
    outer loop
      vertex -10.15 30 -3
      vertex -12.5 30 10
      vertex -10.15 30 10
    endloop
  endfacet
  facet normal 0 0 1
    outer loop
      vertex -12.5 30 10
      vertex -12.5 -20 10
      vertex -10.15 -20 10
    endloop
  endfacet
  facet normal 0 0 1
    outer loop
      vertex -10.15 30 10
      vertex -12.5 30 10
      vertex -10.15 -20 10
    endloop
  endfacet
  facet normal 1 0 0
    outer loop
      vertex -10.15 30 -3
      vertex -10.15 30 10
      vertex -10.15 -20 10
    endloop
  endfacet
  facet normal 1 0 0
    outer loop
      vertex -10.15 -20 -3
      vertex -10.15 30 -3
      vertex -10.15 -20 10
    endloop
  endfacet
  facet normal 0 0 1
    outer loop
      vertex -6 -0.25 -3
      vertex -6 10.25 -3
      vertex -10.15 30 -3
    endloop
  endfacet
  facet normal 0 0 1
    outer loop
      vertex -6 -20 -3
      vertex -6 -0.25 -3
      vertex -10.15 30 -3
    endloop
  endfacet
  facet normal 0 0 1
    outer loop
      vertex -6 10.25 -3
      vertex -6 30 -3
      vertex -10.15 30 -3
    endloop
  endfacet
  facet normal 0 0 1
    outer loop
      vertex -10.15 -20 -3
      vertex -6 -20 -3
      vertex -10.15 30 -3
    endloop
  endfacet
  facet normal -1 0 0
    outer loop
      vertex -6 -20 -3
      vertex -6 -20 0
      vertex -6 -0.25 -3
    endloop
  endfacet
  facet normal -1 0 0
    outer loop
      vertex -6 -0.25 -3
      vertex -6 -20 0
      vertex -6 -0.25 0
    endloop
  endfacet
  facet normal 0 0 1
    outer loop
      vertex -6 -0.25 0
      vertex -6 -20 0
      vertex -4 -20 0
    endloop
  endfacet
  facet normal 0 0 1
    outer loop
      vertex -4 -0.25 0
      vertex -6 -0.25 0
      vertex -4 -20 0
    endloop
  endfacet
  facet normal 1 0 0
    outer loop
      vertex -4 -20 0
      vertex -4 -20 -3
      vertex -4 -0.25 -3
    endloop
  endfacet
  facet normal 1 0 0
    outer loop
      vertex -4 -0.25 0
      vertex -4 -20 0
      vertex -4 -0.25 -3
    endloop
  endfacet
  facet normal 0 0 1
    outer loop
      vertex 0.15 -20 -3
      vertex 0.15 -0.25 -3
      vertex -4 -0.25 -3
    endloop
  endfacet
  facet normal 0 0 1
    outer loop
      vertex -4 -20 -3
      vertex 0.15 -20 -3
      vertex -4 -0.25 -3
    endloop
  endfacet
  facet normal -1 0 0
    outer loop
      vertex 0.15 -0.25 10
      vertex 0.15 -0.25 -3
      vertex 0.15 -20 10
    endloop
  endfacet
  facet normal -1 0 0
    outer loop
      vertex 0.15 -20 10
      vertex 0.15 -0.25 -3
      vertex 0.15 -20 -3
    endloop
  endfacet
  facet normal 0 0 1
    outer loop
      vertex 0.15 -0.25 10
      vertex 0.15 -20 10
      vertex 2.5 -20 10
    endloop
  endfacet
  facet normal 0 0 1
    outer loop
      vertex 17.4987 -2.25 10
      vertex 0.15 -0.25 10
      vertex 2.5 -17.2487 10
    endloop
  endfacet
  facet normal 0 0 1
    outer loop
      vertex 2.5 -17.2487 10
      vertex 0.15 -0.25 10
      vertex 2.5 -20 10
    endloop
  endfacet
  facet normal 0 0 1
    outer loop
      vertex 30 -2.25 10
      vertex 0.15 -0.25 10
      vertex 17.4987 -2.25 10
    endloop
  endfacet
  facet normal 0 0 1
    outer loop
      vertex 4 -0.25 10
      vertex 0.15 -0.25 10
      vertex 30 -2.25 10
    endloop
  endfacet
  facet normal 0 0 1
    outer loop
      vertex 30 -0.15 10
      vertex 4 -0.25 10
      vertex 30 -2.25 10
    endloop
  endfacet
  facet normal 0 0 1
    outer loop
      vertex 4 -0.15 10
      vertex 4 -0.25 10
      vertex 30 -0.15 10
    endloop
  endfacet
  facet normal 1 0 0
    outer loop
      vertex 2.5 -20 10
      vertex 2.5 -20 -5
      vertex 2.5 -17.2487 -5
    endloop
  endfacet
  facet normal 1 0 0
    outer loop
      vertex 2.5 -17.2487 10
      vertex 2.5 -20 10
      vertex 2.5 -17.2487 -5
    endloop
  endfacet
  facet normal 0.707107 -0.707107 0
    outer loop
      vertex 2.5 -17.2487 10
      vertex 2.5 -17.2487 -5
      vertex 17.4987 -2.25 -5
    endloop
  endfacet
  facet normal 0.707107 -0.707107 0
    outer loop
      vertex 17.4987 -2.25 10
      vertex 2.5 -17.2487 10
      vertex 17.4987 -2.25 -5
    endloop
  endfacet
  facet normal 0 -1 0
    outer loop
      vertex 17.4987 -2.25 10
      vertex 17.4987 -2.25 -5
      vertex 30 -2.25 -5
    endloop
  endfacet
  facet normal 0 -1 0
    outer loop
      vertex 30 -2.25 10
      vertex 17.4987 -2.25 10
      vertex 30 -2.25 -5
    endloop
  endfacet
  facet normal 1 0 0
    outer loop
      vertex 30 10.15 -3
      vertex 30 -2.25 -5
      vertex 30 12.75 -5
    endloop
  endfacet
  facet normal 1 0 0
    outer loop
      vertex 30 6 0
      vertex 30 4 0
      vertex 30 6 -3
    endloop
  endfacet
  facet normal 1 0 0
    outer loop
      vertex 30 12.75 10
      vertex 30 10.15 10
      vertex 30 12.75 -5
    endloop
  endfacet
  facet normal 1 0 0
    outer loop
      vertex 30 6 -3
      vertex 30 -2.25 -5
      vertex 30 10.15 -3
    endloop
  endfacet
  facet normal 1 0 0
    outer loop
      vertex 30 4 -3
      vertex 30 -2.25 -5
      vertex 30 6 -3
    endloop
  endfacet
  facet normal 1 0 0
    outer loop
      vertex 30 4 -3
      vertex 30 -0.15 -3
      vertex 30 -2.25 -5
    endloop
  endfacet
  facet normal 1 0 0
    outer loop
      vertex 30 4 0
      vertex 30 4 -3
      vertex 30 6 -3
    endloop
  endfacet
  facet normal 1 0 0
    outer loop
      vertex 30 -2.25 10
      vertex 30 -2.25 -5
      vertex 30 -0.15 -3
    endloop
  endfacet
  facet normal 1 0 0
    outer loop
      vertex 30 10.15 10
      vertex 30 10.15 -3
      vertex 30 12.75 -5
    endloop
  endfacet
  facet normal 1 0 0
    outer loop
      vertex 30 -0.15 -3
      vertex 30 -0.15 10
      vertex 30 -2.25 10
    endloop
  endfacet
  facet normal 0 1 0
    outer loop
      vertex 16.9987 12.75 -5
      vertex 16.9987 12.75 10
      vertex 30 12.75 -5
    endloop
  endfacet
  facet normal 0 1 0
    outer loop
      vertex 30 12.75 -5
      vertex 16.9987 12.75 10
      vertex 30 12.75 10
    endloop
  endfacet
  facet normal 0.707107 0.707107 0
    outer loop
      vertex 2.5 27.2487 -5
      vertex 2.5 27.2487 10
      vertex 16.9987 12.75 -5
    endloop
  endfacet
  facet normal 0.707107 0.707107 0
    outer loop
      vertex 16.9987 12.75 -5
      vertex 2.5 27.2487 10
      vertex 16.9987 12.75 10
    endloop
  endfacet
  facet normal 1 0 0
    outer loop
      vertex 2.5 27.2487 10
      vertex 2.5 27.2487 -5
      vertex 2.5 30 -5
    endloop
  endfacet
  facet normal 1 0 0
    outer loop
      vertex 2.5 30 10
      vertex 2.5 27.2487 10
      vertex 2.5 30 -5
    endloop
  endfacet
  facet normal 1 0 0
    outer loop
      vertex -6 10.25 -5
      vertex -6 10.25 -3
      vertex -6 -0.25 -3
    endloop
  endfacet
  facet normal 1 0 0
    outer loop
      vertex -6 -0.25 -5
      vertex -6 10.25 -5
      vertex -6 -0.25 -3
    endloop
  endfacet
  facet normal 0 -1 0
    outer loop
      vertex 4 10.25 -5
      vertex 4 10.25 10
      vertex 0.15 10.25 10
    endloop
  endfacet
  facet normal 0 -1 0
    outer loop
      vertex -4 10.25 -3
      vertex 4 10.25 -5
      vertex 0.15 10.25 -3
    endloop
  endfacet
  facet normal 0 -1 0
    outer loop
      vertex 0.15 10.25 -3
      vertex 4 10.25 -5
      vertex 0.15 10.25 10
    endloop
  endfacet
  facet normal 0 -1 0
    outer loop
      vertex -6 10.25 -3
      vertex 4 10.25 -5
      vertex -4 10.25 -3
    endloop
  endfacet
  facet normal 0 -1 0
    outer loop
      vertex -6 10.25 0
      vertex -4 10.25 -3
      vertex -4 10.25 0
    endloop
  endfacet
  facet normal 0 -1 0
    outer loop
      vertex -6 10.25 -3
      vertex -4 10.25 -3
      vertex -6 10.25 0
    endloop
  endfacet
  facet normal 0 -1 0
    outer loop
      vertex -6 10.25 -5
      vertex 4 10.25 -5
      vertex -6 10.25 -3
    endloop
  endfacet
  facet normal -1 0 0
    outer loop
      vertex 4 -0.15 10
      vertex 4 -0.15 -3
      vertex 4 -0.25 10
    endloop
  endfacet
  facet normal -1 0 0
    outer loop
      vertex 4 -0.25 -5
      vertex 4 -0.15 -3
      vertex 4 10.25 -5
    endloop
  endfacet
  facet normal -1 0 0
    outer loop
      vertex 4 6 -3
      vertex 4 4 -3
      vertex 4 6 0
    endloop
  endfacet
  facet normal -1 0 0
    outer loop
      vertex 4 4 -3
      vertex 4 4 0
      vertex 4 6 0
    endloop
  endfacet
  facet normal -1 0 0
    outer loop
      vertex 4 -0.15 -3
      vertex 4 4 -3
      vertex 4 10.25 -5
    endloop
  endfacet
  facet normal -1 0 0
    outer loop
      vertex 4 4 -3
      vertex 4 6 -3
      vertex 4 10.25 -5
    endloop
  endfacet
  facet normal -1 0 0
    outer loop
      vertex 4 10.25 10
      vertex 4 10.15 -3
      vertex 4 10.15 10
    endloop
  endfacet
  facet normal -1 0 0
    outer loop
      vertex 4 10.25 -5
      vertex 4 10.15 -3
      vertex 4 10.25 10
    endloop
  endfacet
  facet normal -1 0 0
    outer loop
      vertex 4 6 -3
      vertex 4 10.15 -3
      vertex 4 10.25 -5
    endloop
  endfacet
  facet normal -1 0 0
    outer loop
      vertex 4 -0.25 10
      vertex 4 -0.15 -3
      vertex 4 -0.25 -5
    endloop
  endfacet
  facet normal 0 1 0
    outer loop
      vertex -6 -0.25 0
      vertex -4 -0.25 0
      vertex -6 -0.25 -3
    endloop
  endfacet
  facet normal 0 1 0
    outer loop
      vertex -6 -0.25 -3
      vertex -4 -0.25 0
      vertex -4 -0.25 -3
    endloop
  endfacet
  facet normal 0 1 0
    outer loop
      vertex -4 -0.25 -3
      vertex 4 -0.25 -5
      vertex -6 -0.25 -3
    endloop
  endfacet
  facet normal 0 1 0
    outer loop
      vertex 0.15 -0.25 -3
      vertex 0.15 -0.25 10
      vertex 4 -0.25 10
    endloop
  endfacet
  facet normal 0 1 0
    outer loop
      vertex 0.15 -0.25 -3
      vertex 4 -0.25 10
      vertex 4 -0.25 -5
    endloop
  endfacet
  facet normal 0 1 0
    outer loop
      vertex 0.15 -0.25 -3
      vertex 4 -0.25 -5
      vertex -4 -0.25 -3
    endloop
  endfacet
  facet normal 0 1 0
    outer loop
      vertex -6 -0.25 -3
      vertex 4 -0.25 -5
      vertex -6 -0.25 -5
    endloop
  endfacet
  facet normal 0 0 1
    outer loop
      vertex 0.15 30 10
      vertex 0.15 10.25 10
      vertex 4 10.25 10
    endloop
  endfacet
  facet normal 0 0 1
    outer loop
      vertex 2.5 27.2487 10
      vertex 0.15 30 10
      vertex 4 10.25 10
    endloop
  endfacet
  facet normal 0 0 1
    outer loop
      vertex 4 10.15 10
      vertex 30 10.15 10
      vertex 4 10.25 10
    endloop
  endfacet
  facet normal 0 0 1
    outer loop
      vertex 30 10.15 10
      vertex 16.9987 12.75 10
      vertex 4 10.25 10
    endloop
  endfacet
  facet normal 0 0 1
    outer loop
      vertex 16.9987 12.75 10
      vertex 2.5 27.2487 10
      vertex 4 10.25 10
    endloop
  endfacet
  facet normal 0 0 1
    outer loop
      vertex 30 12.75 10
      vertex 16.9987 12.75 10
      vertex 30 10.15 10
    endloop
  endfacet
  facet normal 0 0 1
    outer loop
      vertex 2.5 27.2487 10
      vertex 2.5 30 10
      vertex 0.15 30 10
    endloop
  endfacet
  facet normal -1 0 0
    outer loop
      vertex 0.15 30 10
      vertex 0.15 30 -3
      vertex 0.15 10.25 10
    endloop
  endfacet
  facet normal -1 0 0
    outer loop
      vertex 0.15 10.25 10
      vertex 0.15 30 -3
      vertex 0.15 10.25 -3
    endloop
  endfacet
  facet normal 0 0 1
    outer loop
      vertex 0.15 10.25 -3
      vertex 0.15 30 -3
      vertex -4 30 -3
    endloop
  endfacet
  facet normal 0 0 1
    outer loop
      vertex -4 10.25 -3
      vertex 0.15 10.25 -3
      vertex -4 30 -3
    endloop
  endfacet
  facet normal 1 0 0
    outer loop
      vertex -4 10.25 0
      vertex -4 10.25 -3
      vertex -4 30 -3
    endloop
  endfacet
  facet normal 1 0 0
    outer loop
      vertex -4 30 0
      vertex -4 10.25 0
      vertex -4 30 -3
    endloop
  endfacet
  facet normal 0 0 1
    outer loop
      vertex -6 30 0
      vertex -6 10.25 0
      vertex -4 10.25 0
    endloop
  endfacet
  facet normal 0 0 1
    outer loop
      vertex -4 30 0
      vertex -6 30 0
      vertex -4 10.25 0
    endloop
  endfacet
  facet normal -1 0 0
    outer loop
      vertex -6 10.25 -3
      vertex -6 10.25 0
      vertex -6 30 -3
    endloop
  endfacet
  facet normal -1 0 0
    outer loop
      vertex -6 30 -3
      vertex -6 10.25 0
      vertex -6 30 0
    endloop
  endfacet
  facet normal 0 1 0
    outer loop
      vertex 30 -0.15 10
      vertex 30 -0.15 -3
      vertex 4 -0.15 10
    endloop
  endfacet
  facet normal 0 1 0
    outer loop
      vertex 4 -0.15 10
      vertex 30 -0.15 -3
      vertex 4 -0.15 -3
    endloop
  endfacet
  facet normal 0 0 1
    outer loop
      vertex 30 -0.15 -3
      vertex 30 4 -3
      vertex 4 4 -3
    endloop
  endfacet
  facet normal 0 0 1
    outer loop
      vertex 4 -0.15 -3
      vertex 30 -0.15 -3
      vertex 4 4 -3
    endloop
  endfacet
  facet normal 0 -1 0
    outer loop
      vertex 4 4 0
      vertex 4 4 -3
      vertex 30 4 -3
    endloop
  endfacet
  facet normal 0 -1 0
    outer loop
      vertex 30 4 0
      vertex 4 4 0
      vertex 30 4 -3
    endloop
  endfacet
  facet normal 0 0 1
    outer loop
      vertex 4 6 0
      vertex 4 4 0
      vertex 30 4 0
    endloop
  endfacet
  facet normal 0 0 1
    outer loop
      vertex 30 6 0
      vertex 4 6 0
      vertex 30 4 0
    endloop
  endfacet
  facet normal 0 1 0
    outer loop
      vertex 4 6 -3
      vertex 4 6 0
      vertex 30 6 -3
    endloop
  endfacet
  facet normal 0 1 0
    outer loop
      vertex 30 6 -3
      vertex 4 6 0
      vertex 30 6 0
    endloop
  endfacet
  facet normal 0 0 1
    outer loop
      vertex 30 6 -3
      vertex 30 10.15 -3
      vertex 4 10.15 -3
    endloop
  endfacet
  facet normal 0 0 1
    outer loop
      vertex 4 6 -3
      vertex 30 6 -3
      vertex 4 10.15 -3
    endloop
  endfacet
  facet normal 0 -1 0
    outer loop
      vertex 30 10.15 -3
      vertex 30 10.15 10
      vertex 4 10.15 10
    endloop
  endfacet
  facet normal 0 -1 0
    outer loop
      vertex 4 10.15 -3
      vertex 30 10.15 -3
      vertex 4 10.15 10
    endloop
  endfacet
endsolid OpenSCAD_Model
