  0
SECTION
  2
HEADER
  9
$ACADVER
  1
AC1009
  9
$EXTMIN
 10
0.0
 20
0.0
 30
0.0
  9
$EXTMAX
 10
1000.0
 20
1000.0
 30
0.0
  9
$FILLMODE
 70
 0
  9
$SPLFRAME
 70
 1
  0
ENDSEC
  0
SECTION
  2
TABLES
  0
TABLE
  2
LAYER
 70
1
  0
LAYER
  2
0
 70
     0
 62
     7
  6
CONTINUOUS
  0
ENDTAB
  0
ENDSEC
  0
SECTION
  2
ENTITIES
  0
LINE
  8
0
 62
     160
 10
1.14171
 20
1.53543
 30
0.0
 11
5.22933
 21
1.53543
 31
0.0
  0
LINE
  8
0
 62
     160
 10
5.22933
 20
1.53543
 30
0.0
 11
5.22933
 21
1.55122
 31
0.0
  0
LINE
  8
0
 62
     160
 10
5.22933
 20
1.55122
 30
0.0
 11
1.14171
 21
1.55122
 31
0.0
  0
LINE
  8
0
 62
     160
 10
1.14171
 20
1.55122
 30
0.0
 11
1.14171
 21
1.53543
 31
0.0
  0
LINE
  8
0
 62
     160
 10
0.0315213
 20
1.69293
 30
0.0
 11
0.0259332
 21
1.6906
 31
0.0
  0
LINE
  8
0
 62
     160
 10
0.0259332
 20
1.6906
 30
0.0
 11
0.0023329
 21
1.66699
 31
0.0
  0
LINE
  8
0
 62
     160
 10
0.0023329
 20
1.66699
 30
0.0
 11
0
 21
1.6614
 31
0.0
  0
LINE
  8
0
 62
     160
 10
0
 20
1.6614
 30
0.0
 11
0
 21
1.56694
 31
0.0
  0
LINE
  8
0
 62
     160
 10
0
 20
1.56694
 30
0.0
 11
0.0023329
 21
1.56136
 31
0.0
  0
LINE
  8
0
 62
     160
 10
0.0023329
 20
1.56136
 30
0.0
 11
0.0259332
 21
1.53776
 31
0.0
  0
LINE
  8
0
 62
     160
 10
0.0259332
 20
1.53776
 30
0.0
 11
0.0315213
 21
1.53543
 31
0.0
  0
LINE
  8
0
 62
     160
 10
0.0315213
 20
1.53543
 30
0.0
 11
0.692925
 21
1.53543
 31
0.0
  0
LINE
  8
0
 62
     160
 10
0.692925
 20
1.53543
 30
0.0
 11
0.692925
 21
1.55122
 31
0.0
  0
LINE
  8
0
 62
     160
 10
0.692925
 20
1.55122
 30
0.0
 11
0.0347765
 21
1.55122
 31
0.0
  0
LINE
  8
0
 62
     160
 10
0.0347765
 20
1.55122
 30
0.0
 11
0.0157335
 21
1.57021
 31
0.0
  0
LINE
  8
0
 62
     160
 10
0.0157335
 20
1.57021
 30
0.0
 11
0.0157335
 21
1.65815
 31
0.0
  0
LINE
  8
0
 62
     160
 10
0.0157335
 20
1.65815
 30
0.0
 11
0.0347765
 21
1.67719
 31
0.0
  0
LINE
  8
0
 62
     160
 10
0.0347765
 20
1.67719
 30
0.0
 11
5.22933
 21
1.67719
 31
0.0
  0
LINE
  8
0
 62
     160
 10
5.22933
 20
1.67719
 30
0.0
 11
5.22933
 21
1.69293
 31
0.0
  0
LINE
  8
0
 62
     160
 10
5.22933
 20
1.69293
 30
0.0
 11
0.0315213
 21
1.69293
 31
0.0
  0
LINE
  8
0
 62
     160
 10
1.30084
 20
1.32449
 30
0.0
 11
1.2953
 21
1.32682
 31
0.0
  0
LINE
  8
0
 62
     160
 10
1.2953
 20
1.32682
 30
0.0
 11
1.14171
 21
1.32682
 31
0.0
  0
LINE
  8
0
 62
     160
 10
1.14171
 20
1.32682
 30
0.0
 11
1.14171
 21
1.31103
 31
0.0
  0
LINE
  8
0
 62
     160
 10
1.14171
 20
1.31103
 30
0.0
 11
1.29199
 21
1.31103
 31
0.0
  0
LINE
  8
0
 62
     160
 10
1.29199
 20
1.31103
 30
0.0
 11
1.31103
 21
1.29205
 31
0.0
  0
LINE
  8
0
 62
     160
 10
1.31103
 20
1.29205
 30
0.0
 11
1.31103
 21
0.952746
 31
0.0
  0
LINE
  8
0
 62
     160
 10
1.31103
 20
0.952746
 30
0.0
 11
1.32677
 21
0.952746
 31
0.0
  0
LINE
  8
0
 62
     160
 10
1.32677
 20
0.952746
 30
0.0
 11
1.32677
 21
1.2953
 31
0.0
  0
LINE
  8
0
 62
     160
 10
1.32677
 20
1.2953
 30
0.0
 11
1.32444
 21
1.30084
 31
0.0
  0
LINE
  8
0
 62
     160
 10
1.32444
 20
1.30084
 30
0.0
 11
1.30084
 21
1.32449
 31
0.0
  0
LINE
  8
0
 62
     160
 10
1.31103
 20
0.503961
 30
0.0
 11
1.32677
 21
0.503961
 31
0.0
  0
LINE
  8
0
 62
     160
 10
1.32677
 20
0.503961
 30
0.0
 11
1.32677
 21
0.0315213
 31
0.0
  0
LINE
  8
0
 62
     160
 10
1.32677
 20
0.0315213
 30
0.0
 11
1.32444
 21
0.0259332
 31
0.0
  0
LINE
  8
0
 62
     160
 10
1.32444
 20
0.0259332
 30
0.0
 11
1.30084
 21
0.0023329
 31
0.0
  0
LINE
  8
0
 62
     160
 10
1.30084
 20
0.0023329
 30
0.0
 11
1.2953
 21
-0
 31
0.0
  0
LINE
  8
0
 62
     160
 10
1.2953
 20
-0
 30
0.0
 11
0.0315213
 21
-0
 31
0.0
  0
LINE
  8
0
 62
     160
 10
0.0315213
 20
-0
 30
0.0
 11
0.0259332
 21
0.0023329
 31
0.0
  0
LINE
  8
0
 62
     160
 10
0.0259332
 20
0.0023329
 30
0.0
 11
0.0023329
 21
0.0259332
 31
0.0
  0
LINE
  8
0
 62
     160
 10
0.0023329
 20
0.0259332
 30
0.0
 11
0
 21
0.0315213
 31
0.0
  0
LINE
  8
0
 62
     160
 10
0
 20
0.0315213
 30
0.0
 11
0
 21
1.2953
 31
0.0
  0
LINE
  8
0
 62
     160
 10
0
 20
1.2953
 30
0.0
 11
0.0023329
 21
1.30084
 31
0.0
  0
LINE
  8
0
 62
     160
 10
0.0023329
 20
1.30084
 30
0.0
 11
0.0259332
 21
1.32449
 31
0.0
  0
LINE
  8
0
 62
     160
 10
0.0259332
 20
1.32449
 30
0.0
 11
0.0315213
 21
1.32682
 31
0.0
  0
LINE
  8
0
 62
     160
 10
0.0315213
 20
1.32682
 30
0.0
 11
0.692925
 21
1.32682
 31
0.0
  0
LINE
  8
0
 62
     160
 10
0.692925
 20
1.32682
 30
0.0
 11
0.692925
 21
1.31103
 31
0.0
  0
LINE
  8
0
 62
     160
 10
0.692925
 20
1.31103
 30
0.0
 11
0.0347765
 21
1.31103
 31
0.0
  0
LINE
  8
0
 62
     160
 10
0.0347765
 20
1.31103
 30
0.0
 11
0.0157335
 21
1.29205
 31
0.0
  0
LINE
  8
0
 62
     160
 10
0.0157335
 20
1.29205
 30
0.0
 11
0.0157335
 21
0.0347765
 31
0.0
  0
LINE
  8
0
 62
     160
 10
0.0157335
 20
0.0347765
 30
0.0
 11
0.0347765
 21
0.0157878
 31
0.0
  0
LINE
  8
0
 62
     160
 10
0.0347765
 20
0.0157878
 30
0.0
 11
1.29199
 21
0.0157878
 31
0.0
  0
LINE
  8
0
 62
     160
 10
1.29199
 20
0.0157878
 30
0.0
 11
1.31103
 21
0.0347765
 31
0.0
  0
LINE
  8
0
 62
     160
 10
1.31103
 20
0.0347765
 30
0.0
 11
1.31103
 21
0.503961
 31
0.0
  0
ENDSEC
  0
EOF
