  0
SECTION
  2
HEADER
  9
$ACADVER
  1
AC1009
  9
$EXTMIN
 10
0.0
 20
0.0
 30
0.0
  9
$EXTMAX
 10
1000.0
 20
1000.0
 30
0.0
  9
$FILLMODE
 70
 0
  9
$SPLFRAME
 70
 1
  0
ENDSEC
  0
SECTION
  2
TABLES
  0
TABLE
  2
LAYER
 70
1
  0
LAYER
  2
0
 70
     0
 62
     7
  6
CONTINUOUS
  0
ENDTAB
  0
ENDSEC
  0
SECTION
  2
ENTITIES
  0
LINE
  8
0
 62
     4
 10
2.61615
 20
0.324815
 30
0.0
 11
2.4075
 21
0.324815
 31
0.0
  0
LINE
  8
0
 62
     4
 10
2.4075
 20
0.324815
 30
0.0
 11
2.4075
 21
0.462619
 31
0.0
  0
LINE
  8
0
 62
     4
 10
2.4075
 20
0.462619
 30
0.0
 11
2.61615
 21
0.462619
 31
0.0
  0
LINE
  8
0
 62
     4
 10
2.61615
 20
0.462619
 30
0.0
 11
2.61615
 21
0.324815
 31
0.0
  0
LINE
  8
0
 62
     4
 10
3.94092
 20
0.431099
 30
0.0
 11
3.96658
 21
0.425836
 31
0.0
  0
LINE
  8
0
 62
     4
 10
3.96658
 20
0.425836
 30
0.0
 11
3.98742
 21
0.411458
 31
0.0
  0
LINE
  8
0
 62
     4
 10
3.98742
 20
0.411458
 30
0.0
 11
4.0925
 21
0.411458
 31
0.0
  0
LINE
  8
0
 62
     4
 10
4.0925
 20
0.411458
 30
0.0
 11
4.0925
 21
0.442925
 31
0.0
  0
LINE
  8
0
 62
     4
 10
4.0925
 20
0.442925
 30
0.0
 11
4.07482
 21
0.460667
 31
0.0
  0
LINE
  8
0
 62
     4
 10
4.07482
 20
0.460667
 30
0.0
 11
4.02756
 21
0.460667
 31
0.0
  0
LINE
  8
0
 62
     4
 10
4.02756
 20
0.460667
 30
0.0
 11
3.98031
 21
0.519694
 31
0.0
  0
LINE
  8
0
 62
     4
 10
3.98031
 20
0.519694
 30
0.0
 11
3.88585
 21
0.531521
 31
0.0
  0
LINE
  8
0
 62
     4
 10
3.88585
 20
0.531521
 30
0.0
 11
2.56299
 21
0.531521
 31
0.0
  0
LINE
  8
0
 62
     4
 10
2.56299
 20
0.531521
 30
0.0
 11
2.40944
 21
0.519694
 31
0.0
  0
LINE
  8
0
 62
     4
 10
2.40944
 20
0.519694
 30
0.0
 11
2.32676
 21
0.460667
 31
0.0
  0
LINE
  8
0
 62
     4
 10
2.32676
 20
0.460667
 30
0.0
 11
2.24408
 21
0.484267
 31
0.0
  0
LINE
  8
0
 62
     4
 10
2.24408
 20
0.484267
 30
0.0
 11
2.19683
 21
0.519694
 31
0.0
  0
LINE
  8
0
 62
     4
 10
2.19683
 20
0.519694
 30
0.0
 11
2.07872
 21
0.519694
 31
0.0
  0
LINE
  8
0
 62
     4
 10
2.07872
 20
0.519694
 30
0.0
 11
2.03153
 21
0.496094
 31
0.0
  0
LINE
  8
0
 62
     4
 10
2.03153
 20
0.496094
 30
0.0
 11
1.92518
 21
0.519694
 31
0.0
  0
LINE
  8
0
 62
     4
 10
1.92518
 20
0.519694
 30
0.0
 11
1.64171
 21
0.531521
 31
0.0
  0
LINE
  8
0
 62
     4
 10
1.64171
 20
0.531521
 30
0.0
 11
1.60628
 21
0.507867
 31
0.0
  0
LINE
  8
0
 62
     4
 10
1.60628
 20
0.507867
 30
0.0
 11
1.53543
 21
0.507867
 31
0.0
  0
LINE
  8
0
 62
     4
 10
1.53543
 20
0.507867
 30
0.0
 11
1.51183
 21
0.484267
 31
0.0
  0
LINE
  8
0
 62
     4
 10
1.51183
 20
0.484267
 30
0.0
 11
1.5
 21
0.413411
 31
0.0
  0
LINE
  8
0
 62
     4
 10
1.5
 20
0.413411
 30
0.0
 11
1.45275
 21
0.448839
 31
0.0
  0
LINE
  8
0
 62
     4
 10
1.45275
 20
0.448839
 30
0.0
 11
1.45275
 21
0.484267
 31
0.0
  0
LINE
  8
0
 62
     4
 10
1.45275
 20
0.484267
 30
0.0
 11
1.42914
 21
0.507867
 31
0.0
  0
LINE
  8
0
 62
     4
 10
1.42914
 20
0.507867
 30
0.0
 11
1.05116
 21
0.519694
 31
0.0
  0
LINE
  8
0
 62
     4
 10
1.05116
 20
0.519694
 30
0.0
 11
1.00396
 21
0.484267
 31
0.0
  0
LINE
  8
0
 62
     4
 10
1.00396
 20
0.484267
 30
0.0
 11
0.933051
 21
0.484267
 31
0.0
  0
LINE
  8
0
 62
     4
 10
0.933051
 20
0.484267
 30
0.0
 11
0.88585
 21
0.519694
 31
0.0
  0
LINE
  8
0
 62
     4
 10
0.88585
 20
0.519694
 30
0.0
 11
0.61415
 21
0.507867
 31
0.0
  0
LINE
  8
0
 62
     4
 10
0.61415
 20
0.507867
 30
0.0
 11
0.602376
 21
0.519694
 31
0.0
  0
LINE
  8
0
 62
     4
 10
0.602376
 20
0.519694
 30
0.0
 11
0.649631
 21
0.543294
 31
0.0
  0
LINE
  8
0
 62
     4
 10
0.649631
 20
0.543294
 30
0.0
 11
1.00396
 21
0.555122
 31
0.0
  0
LINE
  8
0
 62
     4
 10
1.00396
 20
0.555122
 30
0.0
 11
1.02756
 21
0.590549
 31
0.0
  0
LINE
  8
0
 62
     4
 10
1.02756
 20
0.590549
 30
0.0
 11
1.02756
 21
0.732314
 31
0.0
  0
LINE
  8
0
 62
     4
 10
1.02756
 20
0.732314
 30
0.0
 11
0.992133
 21
0.791342
 31
0.0
  0
LINE
  8
0
 62
     4
 10
0.992133
 20
0.791342
 30
0.0
 11
0.377983
 21
0.791342
 31
0.0
  0
LINE
  8
0
 62
     4
 10
0.377983
 20
0.791342
 30
0.0
 11
0.342503
 21
0.76774
 31
0.0
  0
LINE
  8
0
 62
     4
 10
0.342503
 20
0.76774
 30
0.0
 11
0.236219
 21
0.76774
 31
0.0
  0
LINE
  8
0
 62
     4
 10
0.236219
 20
0.76774
 30
0.0
 11
0.200792
 21
0.791342
 31
0.0
  0
LINE
  8
0
 62
     4
 10
0.200792
 20
0.791342
 30
0.0
 11
0.0236003
 21
0.791342
 31
0.0
  0
LINE
  8
0
 62
     4
 10
0.0236003
 20
0.791342
 30
0.0
 11
0
 21
0.76774
 31
0.0
  0
LINE
  8
0
 62
     4
 10
0
 20
0.76774
 30
0.0
 11
0
 21
0.578776
 31
0.0
  0
LINE
  8
0
 62
     4
 10
0
 20
0.578776
 30
0.0
 11
0.0354275
 21
0.543294
 31
0.0
  0
LINE
  8
0
 62
     4
 10
0.0354275
 20
0.543294
 30
0.0
 11
0.153537
 21
0.543294
 31
0.0
  0
LINE
  8
0
 62
     4
 10
0.153537
 20
0.543294
 30
0.0
 11
0.177192
 21
0.519694
 31
0.0
  0
LINE
  8
0
 62
     4
 10
0.177192
 20
0.519694
 30
0.0
 11
0.129937
 21
0.484267
 31
0.0
  0
LINE
  8
0
 62
     4
 10
0.129937
 20
0.484267
 30
0.0
 11
0.0413411
 21
0.484267
 31
0.0
  0
LINE
  8
0
 62
     4
 10
0.0413411
 20
0.484267
 30
0.0
 11
0.0413411
 21
0.472439
 31
0.0
  0
LINE
  8
0
 62
     4
 10
0.0413411
 20
0.472439
 30
0.0
 11
0.0413411
 21
0.281521
 31
0.0
  0
LINE
  8
0
 62
     4
 10
0.0413411
 20
0.281521
 30
0.0
 11
0.146431
 21
0.281521
 31
0.0
  0
LINE
  8
0
 62
     4
 10
0.146431
 20
0.281521
 30
0.0
 11
0.16721
 21
0.295953
 31
0.0
  0
LINE
  8
0
 62
     4
 10
0.16721
 20
0.295953
 30
0.0
 11
0.192925
 21
0.301215
 31
0.0
  0
LINE
  8
0
 62
     4
 10
0.192925
 20
0.301215
 30
0.0
 11
0.218153
 21
0.296115
 31
0.0
  0
LINE
  8
0
 62
     4
 10
0.218153
 20
0.296115
 30
0.0
 11
0.238824
 21
0.282172
 31
0.0
  0
LINE
  8
0
 62
     4
 10
0.238824
 20
0.282172
 30
0.0
 11
0.252712
 21
0.261556
 31
0.0
  0
LINE
  8
0
 62
     4
 10
0.252712
 20
0.261556
 30
0.0
 11
0.257867
 21
0.236219
 31
0.0
  0
LINE
  8
0
 62
     4
 10
0.257867
 20
0.236219
 30
0.0
 11
0.252712
 21
0.210992
 31
0.0
  0
LINE
  8
0
 62
     4
 10
0.252712
 20
0.210992
 30
0.0
 11
0.238824
 21
0.190321
 31
0.0
  0
LINE
  8
0
 62
     4
 10
0.238824
 20
0.190321
 30
0.0
 11
0.218153
 21
0.176432
 31
0.0
  0
LINE
  8
0
 62
     4
 10
0.218153
 20
0.176432
 30
0.0
 11
0.192925
 21
0.171278
 31
0.0
  0
LINE
  8
0
 62
     4
 10
0.192925
 20
0.171278
 30
0.0
 11
0.167264
 21
0.176594
 31
0.0
  0
LINE
  8
0
 62
     4
 10
0.167264
 20
0.176594
 30
0.0
 11
0.146431
 21
0.190972
 31
0.0
  0
LINE
  8
0
 62
     4
 10
0.146431
 20
0.190972
 30
0.0
 11
0.0413411
 21
0.190972
 31
0.0
  0
LINE
  8
0
 62
     4
 10
0.0413411
 20
0.190972
 30
0.0
 11
0.0413411
 21
0.00591363
 31
0.0
  0
LINE
  8
0
 62
     4
 10
0.0413411
 20
0.00591363
 30
0.0
 11
0.0472547
 21
-0
 31
0.0
  0
LINE
  8
0
 62
     4
 10
0.0472547
 20
-0
 30
0.0
 11
0.496094
 21
-0
 31
0.0
  0
LINE
  8
0
 62
     4
 10
0.496094
 20
-0
 30
0.0
 11
0.519694
 21
0.0236544
 31
0.0
  0
LINE
  8
0
 62
     4
 10
0.519694
 20
0.0236544
 30
0.0
 11
0.519694
 21
0.165364
 31
0.0
  0
LINE
  8
0
 62
     4
 10
0.519694
 20
0.165364
 30
0.0
 11
0.472439
 21
0.188965
 31
0.0
  0
LINE
  8
0
 62
     4
 10
0.472439
 20
0.188965
 30
0.0
 11
0.448839
 21
0.236219
 31
0.0
  0
LINE
  8
0
 62
     4
 10
0.448839
 20
0.236219
 30
0.0
 11
0.578722
 21
0.259819
 31
0.0
  0
LINE
  8
0
 62
     4
 10
0.578722
 20
0.259819
 30
0.0
 11
0.814942
 21
0.248047
 31
0.0
  0
LINE
  8
0
 62
     4
 10
0.814942
 20
0.248047
 30
0.0
 11
0.850369
 21
0.224447
 31
0.0
  0
LINE
  8
0
 62
     4
 10
0.850369
 20
0.224447
 30
0.0
 11
0.992133
 21
0.224447
 31
0.0
  0
LINE
  8
0
 62
     4
 10
0.992133
 20
0.224447
 30
0.0
 11
1.02756
 21
0.248047
 31
0.0
  0
LINE
  8
0
 62
     4
 10
1.02756
 20
0.248047
 30
0.0
 11
1.19293
 21
0.259819
 31
0.0
  0
LINE
  8
0
 62
     4
 10
1.19293
 20
0.259819
 30
0.0
 11
1.5
 21
0.248047
 31
0.0
  0
LINE
  8
0
 62
     4
 10
1.5
 20
0.248047
 30
0.0
 11
1.5236
 21
0.271647
 31
0.0
  0
LINE
  8
0
 62
     4
 10
1.5236
 20
0.271647
 30
0.0
 11
1.55908
 21
0.248047
 31
0.0
  0
LINE
  8
0
 62
     4
 10
1.55908
 20
0.248047
 30
0.0
 11
1.67719
 21
0.248047
 31
0.0
  0
LINE
  8
0
 62
     4
 10
1.67719
 20
0.248047
 30
0.0
 11
1.71262
 21
0.271647
 31
0.0
  0
LINE
  8
0
 62
     4
 10
1.71262
 20
0.271647
 30
0.0
 11
1.73622
 21
0.248047
 31
0.0
  0
LINE
  8
0
 62
     4
 10
1.73622
 20
0.248047
 30
0.0
 11
2.1614
 21
0.248047
 31
0.0
  0
LINE
  8
0
 62
     4
 10
2.1614
 20
0.248047
 30
0.0
 11
2.23232
 21
0.307075
 31
0.0
  0
LINE
  8
0
 62
     4
 10
2.23232
 20
0.307075
 30
0.0
 11
2.31494
 21
0.307075
 31
0.0
  0
LINE
  8
0
 62
     4
 10
2.31494
 20
0.307075
 30
0.0
 11
2.42128
 21
0.248047
 31
0.0
  0
LINE
  8
0
 62
     4
 10
2.42128
 20
0.248047
 30
0.0
 11
2.51574
 21
0.236219
 31
0.0
  0
LINE
  8
0
 62
     4
 10
2.51574
 20
0.236219
 30
0.0
 11
4.02756
 21
0.248047
 31
0.0
  0
LINE
  8
0
 62
     4
 10
4.02756
 20
0.248047
 30
0.0
 11
4.0925
 21
0.312989
 31
0.0
  0
LINE
  8
0
 62
     4
 10
4.0925
 20
0.312989
 30
0.0
 11
4.0925
 21
0.32091
 31
0.0
  0
LINE
  8
0
 62
     4
 10
4.0925
 20
0.32091
 30
0.0
 11
3.98742
 21
0.32091
 31
0.0
  0
LINE
  8
0
 62
     4
 10
3.98742
 20
0.32091
 30
0.0
 11
3.96658
 21
0.306532
 31
0.0
  0
LINE
  8
0
 62
     4
 10
3.96658
 20
0.306532
 30
0.0
 11
3.94092
 21
0.301215
 31
0.0
  0
LINE
  8
0
 62
     4
 10
3.94092
 20
0.301215
 30
0.0
 11
3.91564
 21
0.306315
 31
0.0
  0
LINE
  8
0
 62
     4
 10
3.91564
 20
0.306315
 30
0.0
 11
3.89497
 21
0.320258
 31
0.0
  0
LINE
  8
0
 62
     4
 10
3.89497
 20
0.320258
 30
0.0
 11
3.88108
 21
0.340875
 31
0.0
  0
LINE
  8
0
 62
     4
 10
3.88108
 20
0.340875
 30
0.0
 11
3.87597
 21
0.366157
 31
0.0
  0
LINE
  8
0
 62
     4
 10
3.87597
 20
0.366157
 30
0.0
 11
3.88108
 21
0.391439
 31
0.0
  0
LINE
  8
0
 62
     4
 10
3.88108
 20
0.391439
 30
0.0
 11
3.89497
 21
0.41211
 31
0.0
  0
LINE
  8
0
 62
     4
 10
3.89497
 20
0.41211
 30
0.0
 11
3.91564
 21
0.425999
 31
0.0
  0
LINE
  8
0
 62
     4
 10
3.91564
 20
0.425999
 30
0.0
 11
3.94092
 21
0.431099
 31
0.0
  0
ENDSEC
  0
EOF
