  0
SECTION
  2
HEADER
  9
$ACADVER
  1
AC1009
  9
$EXTMIN
 10
0.0
 20
0.0
 30
0.0
  9
$EXTMAX
 10
1000.0
 20
1000.0
 30
0.0
  9
$FILLMODE
 70
 0
  9
$SPLFRAME
 70
 1
  0
ENDSEC
  0
SECTION
  2
TABLES
  0
TABLE
  2
LAYER
 70
1
  0
LAYER
  2
0
 70
     0
 62
     7
  6
CONTINUOUS
  0
ENDTAB
  0
ENDSEC
  0
SECTION
  2
ENTITIES
  0
LINE
  8
0
 62
     160
 10
0.0377604
 20
0.526531
 30
0.0
 11
0.0432943
 21
0.524197
 31
0.0
  0
LINE
  8
0
 62
     160
 10
0.0432943
 20
0.524197
 30
0.0
 11
0.158149
 21
0.524197
 31
0.0
  0
LINE
  8
0
 62
     160
 10
0.158149
 20
0.524197
 30
0.0
 11
0.173068
 21
0.509332
 31
0.0
  0
LINE
  8
0
 62
     160
 10
0.173068
 20
0.509332
 30
0.0
 11
0.13482
 21
0.480632
 31
0.0
  0
LINE
  8
0
 62
     160
 10
0.13482
 20
0.480632
 30
0.0
 11
0.0492079
 21
0.471138
 31
0.0
  0
LINE
  8
0
 62
     160
 10
0.0492079
 20
0.471138
 30
0.0
 11
0.0492079
 21
0.455294
 31
0.0
  0
LINE
  8
0
 62
     160
 10
0.0492079
 20
0.455294
 30
0.0
 11
0.138672
 21
0.465224
 31
0.0
  0
LINE
  8
0
 62
     160
 10
0.138672
 20
0.465224
 30
0.0
 11
0.142524
 21
0.466743
 31
0.0
  0
LINE
  8
0
 62
     160
 10
0.142524
 20
0.466743
 30
0.0
 11
0.189779
 21
0.502225
 31
0.0
  0
LINE
  8
0
 62
     160
 10
0.189779
 20
0.502225
 30
0.0
 11
0.192871
 21
0.507921
 31
0.0
  0
LINE
  8
0
 62
     160
 10
0.192871
 20
0.507921
 30
0.0
 11
0.190593
 21
0.514051
 31
0.0
  0
LINE
  8
0
 62
     160
 10
0.190593
 20
0.514051
 30
0.0
 11
0.166992
 21
0.537651
 31
0.0
  0
LINE
  8
0
 62
     160
 10
0.166992
 20
0.537651
 30
0.0
 11
0.161404
 21
0.539985
 31
0.0
  0
LINE
  8
0
 62
     160
 10
0.161404
 20
0.539985
 30
0.0
 11
0.0465494
 21
0.539985
 31
0.0
  0
LINE
  8
0
 62
     160
 10
0.0465494
 20
0.539985
 30
0.0
 11
0.0157335
 21
0.570801
 31
0.0
  0
LINE
  8
0
 62
     160
 10
0.0157335
 20
0.570801
 30
0.0
 11
0.0157335
 21
0.753256
 31
0.0
  0
LINE
  8
0
 62
     160
 10
0.0157335
 20
0.753256
 30
0.0
 11
0.0347765
 21
0.772244
 31
0.0
  0
LINE
  8
0
 62
     160
 10
0.0347765
 20
0.772244
 30
0.0
 11
0.206272
 21
0.772244
 31
0.0
  0
LINE
  8
0
 62
     160
 10
0.206272
 20
0.772244
 30
0.0
 11
0.239746
 21
0.749946
 31
0.0
  0
LINE
  8
0
 62
     160
 10
0.239746
 20
0.749946
 30
0.0
 11
0.244086
 21
0.748643
 31
0.0
  0
LINE
  8
0
 62
     160
 10
0.244086
 20
0.748643
 30
0.0
 11
0.350369
 21
0.748643
 31
0.0
  0
LINE
  8
0
 62
     160
 10
0.350369
 20
0.748643
 30
0.0
 11
0.354764
 21
0.749946
 31
0.0
  0
LINE
  8
0
 62
     160
 10
0.354764
 20
0.749946
 30
0.0
 11
0.388238
 21
0.772244
 31
0.0
  0
LINE
  8
0
 62
     160
 10
0.388238
 20
0.772244
 30
0.0
 11
0.995551
 21
0.772244
 31
0.0
  0
LINE
  8
0
 62
     160
 10
0.995551
 20
0.772244
 30
0.0
 11
1.02756
 21
0.718913
 31
0.0
  0
LINE
  8
0
 62
     160
 10
1.02756
 20
0.718913
 30
0.0
 11
1.02756
 21
0.58176
 31
0.0
  0
LINE
  8
0
 62
     160
 10
1.02756
 20
0.58176
 30
0.0
 11
1.00749
 21
0.55165
 31
0.0
  0
LINE
  8
0
 62
     160
 10
1.00749
 20
0.55165
 30
0.0
 11
0.657226
 21
0.539985
 31
0.0
  0
LINE
  8
0
 62
     160
 10
0.657226
 20
0.539985
 30
0.0
 11
0.653971
 21
0.539117
 31
0.0
  0
LINE
  8
0
 62
     160
 10
0.653971
 20
0.539117
 30
0.0
 11
0.606717
 21
0.515517
 31
0.0
  0
LINE
  8
0
 62
     160
 10
0.606717
 20
0.515517
 30
0.0
 11
0.602593
 21
0.506674
 31
0.0
  0
LINE
  8
0
 62
     160
 10
0.602593
 20
0.506674
 30
0.0
 11
0.610243
 21
0.500597
 31
0.0
  0
LINE
  8
0
 62
     160
 10
0.610243
 20
0.500597
 30
0.0
 11
0.891058
 21
0.500597
 31
0.0
  0
LINE
  8
0
 62
     160
 10
0.891058
 20
0.500597
 30
0.0
 11
0.936197
 21
0.466743
 31
0.0
  0
LINE
  8
0
 62
     160
 10
0.936197
 20
0.466743
 30
0.0
 11
0.940918
 21
0.465169
 31
0.0
  0
LINE
  8
0
 62
     160
 10
0.940918
 20
0.465169
 30
0.0
 11
1.01183
 21
0.465169
 31
0.0
  0
LINE
  8
0
 62
     160
 10
1.01183
 20
0.465169
 30
0.0
 11
1.01655
 21
0.466743
 31
0.0
  0
LINE
  8
0
 62
     160
 10
1.01655
 20
0.466743
 30
0.0
 11
1.06158
 21
0.500543
 31
0.0
  0
LINE
  8
0
 62
     160
 10
1.06158
 20
0.500543
 30
0.0
 11
1.43365
 21
0.488878
 31
0.0
  0
LINE
  8
0
 62
     160
 10
1.43365
 20
0.488878
 30
0.0
 11
1.45275
 21
0.469781
 31
0.0
  0
LINE
  8
0
 62
     160
 10
1.45275
 20
0.469781
 30
0.0
 11
1.45275
 21
0.437608
 31
0.0
  0
LINE
  8
0
 62
     160
 10
1.45275
 20
0.437608
 30
0.0
 11
1.45589
 21
0.431315
 31
0.0
  0
LINE
  8
0
 62
     160
 10
1.45589
 20
0.431315
 30
0.0
 11
1.50315
 21
0.395888
 31
0.0
  0
LINE
  8
0
 62
     160
 10
1.50315
 20
0.395888
 30
0.0
 11
1.50786
 21
0.394314
 31
0.0
  0
LINE
  8
0
 62
     160
 10
1.50786
 20
0.394314
 30
0.0
 11
1.51079
 21
0.394857
 31
0.0
  0
LINE
  8
0
 62
     160
 10
1.51079
 20
0.394857
 30
0.0
 11
1.51563
 21
0.400879
 31
0.0
  0
LINE
  8
0
 62
     160
 10
1.51563
 20
0.400879
 30
0.0
 11
1.52701
 21
0.469239
 31
0.0
  0
LINE
  8
0
 62
     160
 10
1.52701
 20
0.469239
 30
0.0
 11
1.54656
 21
0.488769
 31
0.0
  0
LINE
  8
0
 62
     160
 10
1.54656
 20
0.488769
 30
0.0
 11
1.61421
 21
0.488769
 31
0.0
  0
LINE
  8
0
 62
     160
 10
1.61421
 20
0.488769
 30
0.0
 11
1.61854
 21
0.490126
 31
0.0
  0
LINE
  8
0
 62
     160
 10
1.61854
 20
0.490126
 30
0.0
 11
1.65186
 21
0.512315
 31
0.0
  0
LINE
  8
0
 62
     160
 10
1.65186
 20
0.512315
 30
0.0
 11
1.93201
 21
0.500651
 31
0.0
  0
LINE
  8
0
 62
     160
 10
1.93201
 20
0.500651
 30
0.0
 11
2.03765
 21
0.47716
 31
0.0
  0
LINE
  8
0
 62
     160
 10
2.03765
 20
0.47716
 30
0.0
 11
2.04292
 21
0.47781
 31
0.0
  0
LINE
  8
0
 62
     160
 10
2.04292
 20
0.47781
 30
0.0
 11
2.08849
 21
0.500597
 31
0.0
  0
LINE
  8
0
 62
     160
 10
2.08849
 20
0.500597
 30
0.0
 11
2.2021
 21
0.500597
 31
0.0
  0
LINE
  8
0
 62
     160
 10
2.2021
 20
0.500597
 30
0.0
 11
2.24724
 21
0.466743
 31
0.0
  0
LINE
  8
0
 62
     160
 10
2.24724
 20
0.466743
 30
0.0
 11
2.24978
 21
0.465494
 31
0.0
  0
LINE
  8
0
 62
     160
 10
2.24978
 20
0.465494
 30
0.0
 11
2.33247
 21
0.441894
 31
0.0
  0
LINE
  8
0
 62
     160
 10
2.33247
 20
0.441894
 30
0.0
 11
2.33925
 21
0.443033
 31
0.0
  0
LINE
  8
0
 62
     160
 10
2.33925
 20
0.443033
 30
0.0
 11
2.42014
 21
0.500814
 31
0.0
  0
LINE
  8
0
 62
     160
 10
2.42014
 20
0.500814
 30
0.0
 11
2.57086
 21
0.512424
 31
0.0
  0
LINE
  8
0
 62
     160
 10
2.57086
 20
0.512424
 30
0.0
 11
3.89274
 21
0.512478
 31
0.0
  0
LINE
  8
0
 62
     160
 10
3.89274
 20
0.512478
 30
0.0
 11
3.98406
 21
0.501085
 31
0.0
  0
LINE
  8
0
 62
     160
 10
3.98406
 20
0.501085
 30
0.0
 11
4.02929
 21
0.444499
 31
0.0
  0
LINE
  8
0
 62
     160
 10
4.02929
 20
0.444499
 30
0.0
 11
4.03543
 21
0.441569
 31
0.0
  0
LINE
  8
0
 62
     160
 10
4.03543
 20
0.441569
 30
0.0
 11
4.05908
 21
0.441569
 31
0.0
  0
LINE
  8
0
 62
     160
 10
4.05908
 20
0.441569
 30
0.0
 11
4.05908
 21
0.457303
 31
0.0
  0
LINE
  8
0
 62
     160
 10
4.05908
 20
0.457303
 30
0.0
 11
4.03922
 21
0.457303
 31
0.0
  0
LINE
  8
0
 62
     160
 10
4.03922
 20
0.457303
 30
0.0
 11
3.99436
 21
0.5134
 31
0.0
  0
LINE
  8
0
 62
     160
 10
3.99436
 20
0.5134
 30
0.0
 11
3.98915
 21
0.516331
 31
0.0
  0
LINE
  8
0
 62
     160
 10
3.98915
 20
0.516331
 30
0.0
 11
3.89372
 21
0.528157
 31
0.0
  0
LINE
  8
0
 62
     160
 10
3.89372
 20
0.528157
 30
0.0
 11
2.57026
 21
0.528157
 31
0.0
  0
LINE
  8
0
 62
     160
 10
2.57026
 20
0.528157
 30
0.0
 11
2.41672
 21
0.516331
 31
0.0
  0
LINE
  8
0
 62
     160
 10
2.41672
 20
0.516331
 30
0.0
 11
2.41276
 21
0.514919
 31
0.0
  0
LINE
  8
0
 62
     160
 10
2.41276
 20
0.514919
 30
0.0
 11
2.33317
 21
0.458062
 31
0.0
  0
LINE
  8
0
 62
     160
 10
2.33317
 20
0.458062
 30
0.0
 11
2.25553
 21
0.480197
 31
0.0
  0
LINE
  8
0
 62
     160
 10
2.25553
 20
0.480197
 30
0.0
 11
2.20947
 21
0.514811
 31
0.0
  0
LINE
  8
0
 62
     160
 10
2.20947
 20
0.514811
 30
0.0
 11
2.20469
 21
0.516385
 31
0.0
  0
LINE
  8
0
 62
     160
 10
2.20469
 20
0.516385
 30
0.0
 11
2.08658
 21
0.516385
 31
0.0
  0
LINE
  8
0
 62
     160
 10
2.08658
 20
0.516385
 30
0.0
 11
2.08311
 21
0.515517
 31
0.0
  0
LINE
  8
0
 62
     160
 10
2.08311
 20
0.515517
 30
0.0
 11
2.03836
 21
0.493164
 31
0.0
  0
LINE
  8
0
 62
     160
 10
2.03836
 20
0.493164
 30
0.0
 11
1.93479
 21
0.516168
 31
0.0
  0
LINE
  8
0
 62
     160
 10
1.93479
 20
0.516168
 30
0.0
 11
1.93338
 21
0.516385
 31
0.0
  0
LINE
  8
0
 62
     160
 10
1.93338
 20
0.516385
 30
0.0
 11
1.64996
 21
0.528157
 31
0.0
  0
LINE
  8
0
 62
     160
 10
1.64996
 20
0.528157
 30
0.0
 11
1.64524
 21
0.526856
 31
0.0
  0
LINE
  8
0
 62
     160
 10
1.64524
 20
0.526856
 30
0.0
 11
1.61182
 21
0.504557
 31
0.0
  0
LINE
  8
0
 62
     160
 10
1.61182
 20
0.504557
 30
0.0
 11
1.54329
 21
0.504557
 31
0.0
  0
LINE
  8
0
 62
     160
 10
1.54329
 20
0.504557
 30
0.0
 11
1.53776
 21
0.502225
 31
0.0
  0
LINE
  8
0
 62
     160
 10
1.53776
 20
0.502225
 30
0.0
 11
1.51411
 21
0.478624
 31
0.0
  0
LINE
  8
0
 62
     160
 10
1.51411
 20
0.478624
 30
0.0
 11
1.51193
 21
0.474338
 31
0.0
  0
LINE
  8
0
 62
     160
 10
1.51193
 20
0.474338
 30
0.0
 11
1.50222
 21
0.416233
 31
0.0
  0
LINE
  8
0
 62
     160
 10
1.50222
 20
0.416233
 30
0.0
 11
1.46847
 21
0.441569
 31
0.0
  0
LINE
  8
0
 62
     160
 10
1.46847
 20
0.441569
 30
0.0
 11
1.46847
 21
0.473036
 31
0.0
  0
LINE
  8
0
 62
     160
 10
1.46847
 20
0.473036
 30
0.0
 11
1.46619
 21
0.478624
 31
0.0
  0
LINE
  8
0
 62
     160
 10
1.46619
 20
0.478624
 30
0.0
 11
1.4426
 21
0.502225
 31
0.0
  0
LINE
  8
0
 62
     160
 10
1.4426
 20
0.502225
 30
0.0
 11
1.43722
 21
0.504557
 31
0.0
  0
LINE
  8
0
 62
     160
 10
1.43722
 20
0.504557
 30
0.0
 11
1.0593
 21
0.516385
 31
0.0
  0
LINE
  8
0
 62
     160
 10
1.0593
 20
0.516385
 30
0.0
 11
1.05431
 21
0.514811
 31
0.0
  0
LINE
  8
0
 62
     160
 10
1.05431
 20
0.514811
 30
0.0
 11
1.00917
 21
0.480903
 31
0.0
  0
LINE
  8
0
 62
     160
 10
1.00917
 20
0.480903
 30
0.0
 11
0.943576
 21
0.480903
 31
0.0
  0
LINE
  8
0
 62
     160
 10
0.943576
 20
0.480903
 30
0.0
 11
0.898438
 21
0.514811
 31
0.0
  0
LINE
  8
0
 62
     160
 10
0.898438
 20
0.514811
 30
0.0
 11
0.893718
 21
0.516385
 31
0.0
  0
LINE
  8
0
 62
     160
 10
0.893718
 20
0.516385
 30
0.0
 11
0.643608
 21
0.516385
 31
0.0
  0
LINE
  8
0
 62
     160
 10
0.643608
 20
0.516385
 30
0.0
 11
0.659451
 21
0.524306
 31
0.0
  0
LINE
  8
0
 62
     160
 10
0.659451
 20
0.524306
 30
0.0
 11
1.0121
 21
0.536079
 31
0.0
  0
LINE
  8
0
 62
     160
 10
1.0121
 20
0.536079
 30
0.0
 11
1.01839
 21
0.539551
 31
0.0
  0
LINE
  8
0
 62
     160
 10
1.01839
 20
0.539551
 30
0.0
 11
1.04199
 21
0.574978
 31
0.0
  0
LINE
  8
0
 62
     160
 10
1.04199
 20
0.574978
 30
0.0
 11
1.04329
 21
0.579372
 31
0.0
  0
LINE
  8
0
 62
     160
 10
1.04329
 20
0.579372
 30
0.0
 11
1.04329
 21
0.721083
 31
0.0
  0
LINE
  8
0
 62
     160
 10
1.04329
 20
0.721083
 30
0.0
 11
1.04221
 21
0.725151
 31
0.0
  0
LINE
  8
0
 62
     160
 10
1.04221
 20
0.725151
 30
0.0
 11
1.00673
 21
0.784179
 31
0.0
  0
LINE
  8
0
 62
     160
 10
1.00673
 20
0.784179
 30
0.0
 11
1
 21
0.788032
 31
0.0
  0
LINE
  8
0
 62
     160
 10
1
 20
0.788032
 30
0.0
 11
0.38585
 21
0.788032
 31
0.0
  0
LINE
  8
0
 62
     160
 10
0.38585
 20
0.788032
 30
0.0
 11
0.381456
 21
0.786675
 31
0.0
  0
LINE
  8
0
 62
     160
 10
0.381456
 20
0.786675
 30
0.0
 11
0.347982
 21
0.764378
 31
0.0
  0
LINE
  8
0
 62
     160
 10
0.347982
 20
0.764378
 30
0.0
 11
0.246474
 21
0.764378
 31
0.0
  0
LINE
  8
0
 62
     160
 10
0.246474
 20
0.764378
 30
0.0
 11
0.213053
 21
0.786675
 31
0.0
  0
LINE
  8
0
 62
     160
 10
0.213053
 20
0.786675
 30
0.0
 11
0.208658
 21
0.788032
 31
0.0
  0
LINE
  8
0
 62
     160
 10
0.208658
 20
0.788032
 30
0.0
 11
0.0315213
 21
0.788032
 31
0.0
  0
LINE
  8
0
 62
     160
 10
0.0315213
 20
0.788032
 30
0.0
 11
0.0259332
 21
0.785699
 31
0.0
  0
LINE
  8
0
 62
     160
 10
0.0259332
 20
0.785699
 30
0.0
 11
0.0023329
 21
0.762099
 31
0.0
  0
LINE
  8
0
 62
     160
 10
0.0023329
 20
0.762099
 30
0.0
 11
0
 21
0.756511
 31
0.0
  0
LINE
  8
0
 62
     160
 10
0
 20
0.756511
 30
0.0
 11
0
 21
0.567546
 31
0.0
  0
LINE
  8
0
 62
     160
 10
0
 20
0.567546
 30
0.0
 11
0.0023329
 21
0.562011
 31
0.0
  0
LINE
  8
0
 62
     160
 10
0.0023329
 20
0.562011
 30
0.0
 11
0.0377604
 21
0.526531
 31
0.0
  0
LINE
  8
0
 62
     160
 10
4.03211
 20
0.244683
 30
0.0
 11
2.52458
 21
0.232801
 31
0.0
  0
LINE
  8
0
 62
     160
 10
2.52458
 20
0.232801
 30
0.0
 11
2.43164
 21
0.244413
 31
0.0
  0
LINE
  8
0
 62
     160
 10
2.43164
 20
0.244413
 30
0.0
 11
2.32667
 21
0.302735
 31
0.0
  0
LINE
  8
0
 62
     160
 10
2.32667
 20
0.302735
 30
0.0
 11
2.32281
 21
0.303765
 31
0.0
  0
LINE
  8
0
 62
     160
 10
2.32281
 20
0.303765
 30
0.0
 11
2.24018
 21
0.303765
 31
0.0
  0
LINE
  8
0
 62
     160
 10
2.24018
 20
0.303765
 30
0.0
 11
2.23514
 21
0.301921
 31
0.0
  0
LINE
  8
0
 62
     160
 10
2.23514
 20
0.301921
 30
0.0
 11
2.16644
 21
0.244683
 31
0.0
  0
LINE
  8
0
 62
     160
 10
2.16644
 20
0.244683
 30
0.0
 11
1.74735
 21
0.244683
 31
0.0
  0
LINE
  8
0
 62
     160
 10
1.74735
 20
0.244683
 30
0.0
 11
1.72601
 21
0.266004
 31
0.0
  0
LINE
  8
0
 62
     160
 10
1.72601
 20
0.266004
 30
0.0
 11
1.7161
 21
0.266982
 31
0.0
  0
LINE
  8
0
 62
     160
 10
1.7161
 20
0.266982
 30
0.0
 11
1.68267
 21
0.244683
 31
0.0
  0
LINE
  8
0
 62
     160
 10
1.68267
 20
0.244683
 30
0.0
 11
1.56933
 21
0.244683
 31
0.0
  0
LINE
  8
0
 62
     160
 10
1.56933
 20
0.244683
 30
0.0
 11
1.53586
 21
0.266982
 31
0.0
  0
LINE
  8
0
 62
     160
 10
1.53586
 20
0.266982
 30
0.0
 11
1.52593
 21
0.266004
 31
0.0
  0
LINE
  8
0
 62
     160
 10
1.52593
 20
0.266004
 30
0.0
 11
1.50472
 21
0.244846
 31
0.0
  0
LINE
  8
0
 62
     160
 10
1.50472
 20
0.244846
 30
0.0
 11
1.2002
 21
0.256511
 31
0.0
  0
LINE
  8
0
 62
     160
 10
1.2002
 20
0.256511
 30
0.0
 11
1.03488
 21
0.244683
 31
0.0
  0
LINE
  8
0
 62
     160
 10
1.03488
 20
0.244683
 30
0.0
 11
1.03109
 21
0.243381
 31
0.0
  0
LINE
  8
0
 62
     160
 10
1.03109
 20
0.243381
 30
0.0
 11
0.997613
 21
0.221083
 31
0.0
  0
LINE
  8
0
 62
     160
 10
0.997613
 20
0.221083
 30
0.0
 11
0.860678
 21
0.221083
 31
0.0
  0
LINE
  8
0
 62
     160
 10
0.860678
 20
0.221083
 30
0.0
 11
0.827203
 21
0.243381
 31
0.0
  0
LINE
  8
0
 62
     160
 10
0.827203
 20
0.243381
 30
0.0
 11
0.823242
 21
0.244683
 31
0.0
  0
LINE
  8
0
 62
     160
 10
0.823242
 20
0.244683
 30
0.0
 11
0.587022
 21
0.256511
 31
0.0
  0
LINE
  8
0
 62
     160
 10
0.587022
 20
0.256511
 30
0.0
 11
0.585232
 21
0.256401
 31
0.0
  0
LINE
  8
0
 62
     160
 10
0.585232
 20
0.256401
 30
0.0
 11
0.455294
 21
0.232747
 31
0.0
  0
LINE
  8
0
 62
     160
 10
0.455294
 20
0.232747
 30
0.0
 11
0.449653
 21
0.228515
 31
0.0
  0
LINE
  8
0
 62
     160
 10
0.449653
 20
0.228515
 30
0.0
 11
0.449653
 21
0.221463
 31
0.0
  0
LINE
  8
0
 62
     160
 10
0.449653
 20
0.221463
 30
0.0
 11
0.473253
 21
0.174208
 31
0.0
  0
LINE
  8
0
 62
     160
 10
0.473253
 20
0.174208
 30
0.0
 11
0.476779
 21
0.170736
 31
0.0
  0
LINE
  8
0
 62
     160
 10
0.476779
 20
0.170736
 30
0.0
 11
0.519314
 21
0.149468
 31
0.0
  0
LINE
  8
0
 62
     160
 10
0.519314
 20
0.149468
 30
0.0
 11
0.507921
 21
0.00119358
 31
0.0
  0
LINE
  8
0
 62
     160
 10
0.507921
 20
0.00119358
 30
0.0
 11
0.5236
 21
-0
 31
0.0
  0
LINE
  8
0
 62
     160
 10
0.5236
 20
-0
 30
0.0
 11
0.535428
 21
0.153537
 31
0.0
  0
LINE
  8
0
 62
     160
 10
0.535428
 20
0.153537
 30
0.0
 11
0.531088
 21
0.161188
 31
0.0
  0
LINE
  8
0
 62
     160
 10
0.531088
 20
0.161188
 30
0.0
 11
0.486165
 21
0.183649
 31
0.0
  0
LINE
  8
0
 62
     160
 10
0.486165
 20
0.183649
 30
0.0
 11
0.468425
 21
0.219129
 31
0.0
  0
LINE
  8
0
 62
     160
 10
0.468425
 20
0.219129
 30
0.0
 11
0.587131
 21
0.240722
 31
0.0
  0
LINE
  8
0
 62
     160
 10
0.587131
 20
0.240722
 30
0.0
 11
0.820258
 21
0.229058
 31
0.0
  0
LINE
  8
0
 62
     160
 10
0.820258
 20
0.229058
 30
0.0
 11
0.853896
 21
0.206706
 31
0.0
  0
LINE
  8
0
 62
     160
 10
0.853896
 20
0.206706
 30
0.0
 11
0.85829
 21
0.20535
 31
0.0
  0
LINE
  8
0
 62
     160
 10
0.85829
 20
0.20535
 30
0.0
 11
1
 21
0.20535
 31
0.0
  0
LINE
  8
0
 62
     160
 10
1
 20
0.20535
 30
0.0
 11
1.00439
 21
0.206706
 31
0.0
  0
LINE
  8
0
 62
     160
 10
1.00439
 20
0.206706
 30
0.0
 11
1.03809
 21
0.229112
 31
0.0
  0
LINE
  8
0
 62
     160
 10
1.03809
 20
0.229112
 30
0.0
 11
1.20047
 21
0.240776
 31
0.0
  0
LINE
  8
0
 62
     160
 10
1.20047
 20
0.240776
 30
0.0
 11
1.5076
 21
0.22895
 31
0.0
  0
LINE
  8
0
 62
     160
 10
1.5076
 20
0.22895
 30
0.0
 11
1.51346
 21
0.231228
 31
0.0
  0
LINE
  8
0
 62
     160
 10
1.51346
 20
0.231228
 30
0.0
 11
1.5325
 21
0.250325
 31
0.0
  0
LINE
  8
0
 62
     160
 10
1.5325
 20
0.250325
 30
0.0
 11
1.56256
 21
0.230251
 31
0.0
  0
LINE
  8
0
 62
     160
 10
1.56256
 20
0.230251
 30
0.0
 11
1.56694
 21
0.22895
 31
0.0
  0
LINE
  8
0
 62
     160
 10
1.56694
 20
0.22895
 30
0.0
 11
1.68506
 21
0.22895
 31
0.0
  0
LINE
  8
0
 62
     160
 10
1.68506
 20
0.22895
 30
0.0
 11
1.6894
 21
0.230251
 31
0.0
  0
LINE
  8
0
 62
     160
 10
1.6894
 20
0.230251
 30
0.0
 11
1.71946
 21
0.250325
 31
0.0
  0
LINE
  8
0
 62
     160
 10
1.71946
 20
0.250325
 30
0.0
 11
1.73856
 21
0.231228
 31
0.0
  0
LINE
  8
0
 62
     160
 10
1.73856
 20
0.231228
 30
0.0
 11
1.74408
 21
0.22895
 31
0.0
  0
LINE
  8
0
 62
     160
 10
1.74408
 20
0.22895
 30
0.0
 11
2.16928
 21
0.22895
 31
0.0
  0
LINE
  8
0
 62
     160
 10
2.16928
 20
0.22895
 30
0.0
 11
2.17432
 21
0.23074
 31
0.0
  0
LINE
  8
0
 62
     160
 10
2.17432
 20
0.23074
 30
0.0
 11
2.243
 21
0.287978
 31
0.0
  0
LINE
  8
0
 62
     160
 10
2.243
 20
0.287978
 30
0.0
 11
2.32081
 21
0.287978
 31
0.0
  0
LINE
  8
0
 62
     160
 10
2.32081
 20
0.287978
 30
0.0
 11
2.42529
 21
0.229926
 31
0.0
  0
LINE
  8
0
 62
     160
 10
2.42529
 20
0.229926
 30
0.0
 11
2.42817
 21
0.229004
 31
0.0
  0
LINE
  8
0
 62
     160
 10
2.42817
 20
0.229004
 30
0.0
 11
2.52365
 21
0.217122
 31
0.0
  0
LINE
  8
0
 62
     160
 10
2.52365
 20
0.217122
 30
0.0
 11
4.03549
 21
0.22895
 31
0.0
  0
LINE
  8
0
 62
     160
 10
4.03549
 20
0.22895
 30
0.0
 11
4.04101
 21
0.231228
 31
0.0
  0
LINE
  8
0
 62
     160
 10
4.04101
 20
0.231228
 30
0.0
 11
4.06461
 21
0.254883
 31
0.0
  0
LINE
  8
0
 62
     160
 10
4.06461
 20
0.254883
 30
0.0
 11
4.0535
 21
0.266004
 31
0.0
  0
LINE
  8
0
 62
     160
 10
4.0535
 20
0.266004
 30
0.0
 11
4.03211
 21
0.244683
 31
0.0
  0
ENDSEC
  0
EOF
