solid OpenSCAD_Model
  facet normal -1 0 0
    outer loop
      vertex 0 5.7 1.4
      vertex 0 6.3 0
      vertex 0 0.6 1.4
    endloop
  endfacet
  facet normal -1 0 0
    outer loop
      vertex 0 0 0
      vertex 0 0 2.6
      vertex 0 0.6 1.4
    endloop
  endfacet
  facet normal -1 0 0
    outer loop
      vertex 0 0 0
      vertex 0 0.6 1.4
      vertex 0 6.3 0
    endloop
  endfacet
  facet normal -1 0 0
    outer loop
      vertex 0 6.3 0
      vertex 0 5.7 1.4
      vertex 0 5.7 2.6
    endloop
  endfacet
  facet normal -1 0 0
    outer loop
      vertex 0 6.3 0
      vertex 0 5.7 2.6
      vertex 0 6.3 2.6
    endloop
  endfacet
  facet normal -1 0 0
    outer loop
      vertex 0 0.6 1.4
      vertex 0 0 2.6
      vertex 0 0.6 2.6
    endloop
  endfacet
  facet normal 0 -1 0
    outer loop
      vertex 0 0 2.6
      vertex 0 0 0
      vertex 137.7 0 24.279
    endloop
  endfacet
  facet normal 0 -1 0
    outer loop
      vertex 137.7 0 26.879
      vertex 0 0 2.6
      vertex 137.7 0 24.279
    endloop
  endfacet
  facet normal 0.17364 0 -0.984809
    outer loop
      vertex 0 0 0
      vertex 0 6.3 0
      vertex 137.7 0 24.279
    endloop
  endfacet
  facet normal 0.17364 0 -0.984809
    outer loop
      vertex 137.7 4.15 24.279
      vertex 0 6.3 0
      vertex 137.7 6.3 24.279
    endloop
  endfacet
  facet normal 0.17364 0 -0.984809
    outer loop
      vertex 137.7 2.15 24.279
      vertex 0 6.3 0
      vertex 137.7 4.15 24.279
    endloop
  endfacet
  facet normal 0.17364 0 -0.984809
    outer loop
      vertex 137.7 0 24.279
      vertex 0 6.3 0
      vertex 137.7 2.15 24.279
    endloop
  endfacet
  facet normal 0 1 0
    outer loop
      vertex 0 6.3 0
      vertex 0 6.3 2.6
      vertex 137.7 6.3 24.279
    endloop
  endfacet
  facet normal 0 1 0
    outer loop
      vertex 137.7 6.3 24.279
      vertex 0 6.3 2.6
      vertex 137.7 6.3 26.879
    endloop
  endfacet
  facet normal -0.17364 0 0.984809
    outer loop
      vertex 0 6.3 2.6
      vertex 0 5.7 2.6
      vertex 137.7 5.7 26.879
    endloop
  endfacet
  facet normal -0.17364 0 0.984809
    outer loop
      vertex 137.7 6.3 26.879
      vertex 0 6.3 2.6
      vertex 137.7 5.7 26.879
    endloop
  endfacet
  facet normal 0 -1 0
    outer loop
      vertex 0 5.7 2.6
      vertex 0 5.7 1.4
      vertex 137.7 5.7 25.679
    endloop
  endfacet
  facet normal 0 -1 0
    outer loop
      vertex 137.7 5.7 26.879
      vertex 0 5.7 2.6
      vertex 137.7 5.7 25.679
    endloop
  endfacet
  facet normal -0.17364 0 0.984809
    outer loop
      vertex 0 5.7 1.4
      vertex 0 0.6 1.4
      vertex 137.7 0.6 25.679
    endloop
  endfacet
  facet normal -0.17364 0 0.984809
    outer loop
      vertex 137.7 5.7 25.679
      vertex 0 5.7 1.4
      vertex 137.7 0.6 25.679
    endloop
  endfacet
  facet normal 0 1 0
    outer loop
      vertex 0 0.6 1.4
      vertex 0 0.6 2.6
      vertex 137.7 0.6 25.679
    endloop
  endfacet
  facet normal 0 1 0
    outer loop
      vertex 137.7 0.6 25.679
      vertex 0 0.6 2.6
      vertex 137.7 0.6 26.879
    endloop
  endfacet
  facet normal -0.17364 0 0.984809
    outer loop
      vertex 0 0.6 2.6
      vertex 0 0 2.6
      vertex 137.7 0 26.879
    endloop
  endfacet
  facet normal -0.17364 0 0.984809
    outer loop
      vertex 137.7 0.6 26.879
      vertex 0 0.6 2.6
      vertex 137.7 0 26.879
    endloop
  endfacet
  facet normal 1 0 0
    outer loop
      vertex 137.7 0.6 25.679
      vertex 137.7 0 24.279
      vertex 137.7 2.15 24.279
    endloop
  endfacet
  facet normal 1 0 0
    outer loop
      vertex 137.7 6.3 24.279
      vertex 137.7 4.15 25.679
      vertex 137.7 4.15 24.279
    endloop
  endfacet
  facet normal 1 0 0
    outer loop
      vertex 137.7 5.7 25.679
      vertex 137.7 4.15 25.679
      vertex 137.7 6.3 24.279
    endloop
  endfacet
  facet normal 1 0 0
    outer loop
      vertex 137.7 6.3 26.879
      vertex 137.7 5.7 25.679
      vertex 137.7 6.3 24.279
    endloop
  endfacet
  facet normal 1 0 0
    outer loop
      vertex 137.7 0.6 25.679
      vertex 137.7 0.6 26.879
      vertex 137.7 0 26.879
    endloop
  endfacet
  facet normal 1 0 0
    outer loop
      vertex 137.7 0 26.879
      vertex 137.7 0 24.279
      vertex 137.7 0.6 25.679
    endloop
  endfacet
  facet normal 1 0 0
    outer loop
      vertex 137.7 5.7 26.879
      vertex 137.7 5.7 25.679
      vertex 137.7 6.3 26.879
    endloop
  endfacet
  facet normal 1 0 0
    outer loop
      vertex 137.7 5.7 25.679
      vertex 137.7 2.15 25.679
      vertex 137.7 4.15 25.679
    endloop
  endfacet
  facet normal 1 0 0
    outer loop
      vertex 137.7 2.15 25.679
      vertex 137.7 0.6 25.679
      vertex 137.7 2.15 24.279
    endloop
  endfacet
  facet normal 1 0 0
    outer loop
      vertex 137.7 5.7 25.679
      vertex 137.7 0.6 25.679
      vertex 137.7 2.15 25.679
    endloop
  endfacet
  facet normal 0 -1 0
    outer loop
      vertex 137.7 2.15 25.679
      vertex 137.7 2.15 24.279
      vertex 140.599 2.15 25.679
    endloop
  endfacet
  facet normal 0 -1 0
    outer loop
      vertex 140.599 2.15 25.679
      vertex 137.7 2.15 24.279
      vertex 140.599 2.15 24.279
    endloop
  endfacet
  facet normal 0 1 0
    outer loop
      vertex 140.599 4.15 24.279
      vertex 137.7 4.15 24.279
      vertex 137.7 4.15 25.679
    endloop
  endfacet
  facet normal 0 1 0
    outer loop
      vertex 140.599 4.15 24.279
      vertex 137.7 4.15 25.679
      vertex 140.599 4.15 25.679
    endloop
  endfacet
  facet normal 0 0 1
    outer loop
      vertex 140.639 2.08934 25.679
      vertex 141.126 1.76418 25.679
      vertex 140.599 2.15 25.679
    endloop
  endfacet
  facet normal 0 0 1
    outer loop
      vertex 137.7 4.15 25.679
      vertex 137.7 2.15 25.679
      vertex 140.599 2.15 25.679
    endloop
  endfacet
  facet normal 0 0 1
    outer loop
      vertex 141.7 1.65 25.679
      vertex 137.7 4.15 25.679
      vertex 140.599 2.15 25.679
    endloop
  endfacet
  facet normal 0 0 1
    outer loop
      vertex 141.126 1.76418 25.679
      vertex 141.7 1.65 25.679
      vertex 140.599 2.15 25.679
    endloop
  endfacet
  facet normal 0 0 1
    outer loop
      vertex 141.7 1.65 25.679
      vertex 142.274 1.76418 25.679
      vertex 137.7 4.15 25.679
    endloop
  endfacet
  facet normal 0 0 1
    outer loop
      vertex 142.274 1.76418 25.679
      vertex 142.761 2.08934 25.679
      vertex 137.7 4.15 25.679
    endloop
  endfacet
  facet normal 0 0 1
    outer loop
      vertex 142.761 2.08934 25.679
      vertex 143.086 2.57597 25.679
      vertex 137.7 4.15 25.679
    endloop
  endfacet
  facet normal 0 0 1
    outer loop
      vertex 143.086 2.57597 25.679
      vertex 143.2 3.15 25.679
      vertex 137.7 4.15 25.679
    endloop
  endfacet
  facet normal 0 0 1
    outer loop
      vertex 143.2 3.15 25.679
      vertex 143.086 3.72403 25.679
      vertex 137.7 4.15 25.679
    endloop
  endfacet
  facet normal 0 0 1
    outer loop
      vertex 140.639 4.21066 25.679
      vertex 140.599 4.15 25.679
      vertex 142.761 4.21066 25.679
    endloop
  endfacet
  facet normal 0 0 1
    outer loop
      vertex 142.274 4.53582 25.679
      vertex 141.7 4.65 25.679
      vertex 141.126 4.53582 25.679
    endloop
  endfacet
  facet normal 0 0 1
    outer loop
      vertex 142.761 4.21066 25.679
      vertex 142.274 4.53582 25.679
      vertex 140.639 4.21066 25.679
    endloop
  endfacet
  facet normal 0 0 1
    outer loop
      vertex 143.086 3.72403 25.679
      vertex 140.599 4.15 25.679
      vertex 137.7 4.15 25.679
    endloop
  endfacet
  facet normal 0 0 1
    outer loop
      vertex 143.086 3.72403 25.679
      vertex 142.761 4.21066 25.679
      vertex 140.599 4.15 25.679
    endloop
  endfacet
  facet normal 0 0 1
    outer loop
      vertex 141.126 4.53582 25.679
      vertex 140.639 4.21066 25.679
      vertex 142.274 4.53582 25.679
    endloop
  endfacet
  facet normal -0.83147 -0.55557 0
    outer loop
      vertex 140.599 2.15 24.279
      vertex 140.639 2.08934 24.279
      vertex 140.599 2.15 25.679
    endloop
  endfacet
  facet normal -0.83147 -0.55557 0
    outer loop
      vertex 140.599 2.15 25.679
      vertex 140.639 2.08934 24.279
      vertex 140.639 2.08934 25.679
    endloop
  endfacet
  facet normal 0 0 -1
    outer loop
      vertex 137.7 2.15 24.279
      vertex 137.7 4.15 24.279
      vertex 140.599 2.15 24.279
    endloop
  endfacet
  facet normal 0 0 -1
    outer loop
      vertex 140.599 2.15 24.279
      vertex 137.7 4.15 24.279
      vertex 140.599 4.15 24.279
    endloop
  endfacet
  facet normal 0 0 -1
    outer loop
      vertex 140.599 2.15 24.279
      vertex 140.599 4.15 24.279
      vertex 140.639 4.21066 24.279
    endloop
  endfacet
  facet normal 0 0 -1
    outer loop
      vertex 140.599 2.15 24.279
      vertex 140.639 4.21066 24.279
      vertex 141.126 4.53582 24.279
    endloop
  endfacet
  facet normal 0 0 -1
    outer loop
      vertex 140.599 2.15 24.279
      vertex 141.126 4.53582 24.279
      vertex 141.7 4.65 24.279
    endloop
  endfacet
  facet normal 0 0 -1
    outer loop
      vertex 140.599 2.15 24.279
      vertex 141.7 4.65 24.279
      vertex 142.274 4.53582 24.279
    endloop
  endfacet
  facet normal 0 0 -1
    outer loop
      vertex 140.599 2.15 24.279
      vertex 142.274 4.53582 24.279
      vertex 142.761 4.21066 24.279
    endloop
  endfacet
  facet normal 0 0 -1
    outer loop
      vertex 140.599 2.15 24.279
      vertex 142.761 4.21066 24.279
      vertex 143.086 3.72403 24.279
    endloop
  endfacet
  facet normal 0 0 -1
    outer loop
      vertex 140.599 2.15 24.279
      vertex 143.086 3.72403 24.279
      vertex 143.2 3.15 24.279
    endloop
  endfacet
  facet normal 0 0 -1
    outer loop
      vertex 140.599 2.15 24.279
      vertex 143.2 3.15 24.279
      vertex 143.086 2.57597 24.279
    endloop
  endfacet
  facet normal 0 0 -1
    outer loop
      vertex 140.599 2.15 24.279
      vertex 143.086 2.57597 24.279
      vertex 142.761 2.08934 24.279
    endloop
  endfacet
  facet normal 0 0 -1
    outer loop
      vertex 140.639 2.08934 24.279
      vertex 142.274 1.76418 24.279
      vertex 141.126 1.76418 24.279
    endloop
  endfacet
  facet normal 0 0 -1
    outer loop
      vertex 142.274 1.76418 24.279
      vertex 141.7 1.65 24.279
      vertex 141.126 1.76418 24.279
    endloop
  endfacet
  facet normal 0 0 -1
    outer loop
      vertex 142.761 2.08934 24.279
      vertex 142.274 1.76418 24.279
      vertex 140.639 2.08934 24.279
    endloop
  endfacet
  facet normal 0 0 -1
    outer loop
      vertex 140.599 2.15 24.279
      vertex 142.761 2.08934 24.279
      vertex 140.639 2.08934 24.279
    endloop
  endfacet
  facet normal -0.83147 0.55557 0
    outer loop
      vertex 140.599 4.15 24.279
      vertex 140.599 4.15 25.679
      vertex 140.639 4.21066 24.279
    endloop
  endfacet
  facet normal -0.83147 0.55557 0
    outer loop
      vertex 140.639 4.21066 24.279
      vertex 140.599 4.15 25.679
      vertex 140.639 4.21066 25.679
    endloop
  endfacet
  facet normal -0.55557 0.83147 0
    outer loop
      vertex 140.639 4.21066 24.279
      vertex 140.639 4.21066 25.679
      vertex 141.126 4.53582 24.279
    endloop
  endfacet
  facet normal -0.55557 0.83147 0
    outer loop
      vertex 141.126 4.53582 24.279
      vertex 140.639 4.21066 25.679
      vertex 141.126 4.53582 25.679
    endloop
  endfacet
  facet normal -0.19509 0.980785 0
    outer loop
      vertex 141.126 4.53582 24.279
      vertex 141.126 4.53582 25.679
      vertex 141.7 4.65 24.279
    endloop
  endfacet
  facet normal -0.19509 0.980785 0
    outer loop
      vertex 141.7 4.65 24.279
      vertex 141.126 4.53582 25.679
      vertex 141.7 4.65 25.679
    endloop
  endfacet
  facet normal 0.19509 0.980785 0
    outer loop
      vertex 141.7 4.65 24.279
      vertex 141.7 4.65 25.679
      vertex 142.274 4.53582 24.279
    endloop
  endfacet
  facet normal 0.19509 0.980785 0
    outer loop
      vertex 142.274 4.53582 24.279
      vertex 141.7 4.65 25.679
      vertex 142.274 4.53582 25.679
    endloop
  endfacet
  facet normal 0.55557 0.83147 0
    outer loop
      vertex 142.274 4.53582 24.279
      vertex 142.274 4.53582 25.679
      vertex 142.761 4.21066 24.279
    endloop
  endfacet
  facet normal 0.55557 0.83147 0
    outer loop
      vertex 142.761 4.21066 24.279
      vertex 142.274 4.53582 25.679
      vertex 142.761 4.21066 25.679
    endloop
  endfacet
  facet normal 0.83147 0.55557 0
    outer loop
      vertex 143.086 3.72403 24.279
      vertex 142.761 4.21066 24.279
      vertex 142.761 4.21066 25.679
    endloop
  endfacet
  facet normal 0.83147 0.55557 0
    outer loop
      vertex 143.086 3.72403 25.679
      vertex 143.086 3.72403 24.279
      vertex 142.761 4.21066 25.679
    endloop
  endfacet
  facet normal 0.980785 0.19509 0
    outer loop
      vertex 143.2 3.15 24.279
      vertex 143.086 3.72403 24.279
      vertex 143.086 3.72403 25.679
    endloop
  endfacet
  facet normal 0.980785 0.19509 0
    outer loop
      vertex 143.2 3.15 25.679
      vertex 143.2 3.15 24.279
      vertex 143.086 3.72403 25.679
    endloop
  endfacet
  facet normal 0.980785 -0.19509 0
    outer loop
      vertex 143.086 2.57597 25.679
      vertex 143.086 2.57597 24.279
      vertex 143.2 3.15 24.279
    endloop
  endfacet
  facet normal 0.980785 -0.19509 0
    outer loop
      vertex 143.2 3.15 25.679
      vertex 143.086 2.57597 25.679
      vertex 143.2 3.15 24.279
    endloop
  endfacet
  facet normal 0.83147 -0.55557 0
    outer loop
      vertex 142.761 2.08934 25.679
      vertex 142.761 2.08934 24.279
      vertex 143.086 2.57597 24.279
    endloop
  endfacet
  facet normal 0.83147 -0.55557 0
    outer loop
      vertex 143.086 2.57597 25.679
      vertex 142.761 2.08934 25.679
      vertex 143.086 2.57597 24.279
    endloop
  endfacet
  facet normal 0.55557 -0.83147 0
    outer loop
      vertex 142.274 1.76418 25.679
      vertex 142.274 1.76418 24.279
      vertex 142.761 2.08934 24.279
    endloop
  endfacet
  facet normal 0.55557 -0.83147 0
    outer loop
      vertex 142.761 2.08934 25.679
      vertex 142.274 1.76418 25.679
      vertex 142.761 2.08934 24.279
    endloop
  endfacet
  facet normal 0.19509 -0.980785 0
    outer loop
      vertex 141.7 1.65 25.679
      vertex 141.7 1.65 24.279
      vertex 142.274 1.76418 24.279
    endloop
  endfacet
  facet normal 0.19509 -0.980785 0
    outer loop
      vertex 142.274 1.76418 25.679
      vertex 141.7 1.65 25.679
      vertex 142.274 1.76418 24.279
    endloop
  endfacet
  facet normal -0.19509 -0.980785 0
    outer loop
      vertex 141.126 1.76418 25.679
      vertex 141.126 1.76418 24.279
      vertex 141.7 1.65 24.279
    endloop
  endfacet
  facet normal -0.19509 -0.980785 0
    outer loop
      vertex 141.7 1.65 25.679
      vertex 141.126 1.76418 25.679
      vertex 141.7 1.65 24.279
    endloop
  endfacet
  facet normal -0.55557 -0.83147 0
    outer loop
      vertex 140.639 2.08934 25.679
      vertex 140.639 2.08934 24.279
      vertex 141.126 1.76418 24.279
    endloop
  endfacet
  facet normal -0.55557 -0.83147 0
    outer loop
      vertex 141.126 1.76418 25.679
      vertex 140.639 2.08934 25.679
      vertex 141.126 1.76418 24.279
    endloop
  endfacet
endsolid OpenSCAD_Model
