  0
SECTION
  2
HEADER
  9
$ACADVER
  1
AC1009
  9
$EXTMIN
 10
0.0
 20
0.0
 30
0.0
  9
$EXTMAX
 10
1000.0
 20
1000.0
 30
0.0
  9
$FILLMODE
 70
 0
  9
$SPLFRAME
 70
 1
  0
ENDSEC
  0
SECTION
  2
TABLES
  0
TABLE
  2
LAYER
 70
1
  0
LAYER
  2
0
 70
     0
 62
     7
  6
CONTINUOUS
  0
ENDTAB
  0
ENDSEC
  0
SECTION
  2
ENTITIES
  0
LINE
  8
0
 62
     4
 10
0.779514
 20
0.200792
 30
0.0
 11
0.779514
 21
0.0236003
 31
0.0
  0
LINE
  8
0
 62
     4
 10
0.779514
 20
0.0236003
 30
0.0
 11
0.803168
 21
-0
 31
0.0
  0
LINE
  8
0
 62
     4
 10
0.803168
 20
-0
 30
0.0
 11
1.59451
 21
-0
 31
0.0
  0
LINE
  8
0
 62
     4
 10
1.59451
 20
-0
 30
0.0
 11
1.61811
 21
0.0236003
 31
0.0
  0
LINE
  8
0
 62
     4
 10
1.61811
 20
0.0236003
 30
0.0
 11
1.61811
 21
0.200792
 31
0.0
  0
LINE
  8
0
 62
     4
 10
1.61811
 20
0.200792
 30
0.0
 11
1.59451
 21
0.224392
 31
0.0
  0
LINE
  8
0
 62
     4
 10
1.59451
 20
0.224392
 30
0.0
 11
0.803168
 21
0.224392
 31
0.0
  0
LINE
  8
0
 62
     4
 10
0.803168
 20
0.224392
 30
0.0
 11
0.779514
 21
0.200792
 31
0.0
  0
LINE
  8
0
 62
     4
 10
1.00982
 20
0.407497
 30
0.0
 11
0.604329
 21
0.407497
 31
0.0
  0
LINE
  8
0
 62
     4
 10
0.604329
 20
0.407497
 30
0.0
 11
0.604329
 21
0.545301
 31
0.0
  0
LINE
  8
0
 62
     4
 10
0.604329
 20
0.545301
 30
0.0
 11
1.00982
 21
0.545301
 31
0.0
  0
LINE
  8
0
 62
     4
 10
1.00982
 20
0.545301
 30
0.0
 11
1.00982
 21
0.407497
 31
0.0
  0
LINE
  8
0
 62
     4
 10
1.58268
 20
0.602376
 30
0.0
 11
0.354329
 21
0.602376
 31
0.0
  0
LINE
  8
0
 62
     4
 10
0.354329
 20
0.602376
 30
0.0
 11
0.318901
 21
0.578722
 31
0.0
  0
LINE
  8
0
 62
     4
 10
0.318901
 20
0.578722
 30
0.0
 11
0.236219
 21
0.578722
 31
0.0
  0
LINE
  8
0
 62
     4
 10
0.236219
 20
0.578722
 30
0.0
 11
0.200792
 21
0.602376
 31
0.0
  0
LINE
  8
0
 62
     4
 10
0.200792
 20
0.602376
 30
0.0
 11
0.0236003
 21
0.602376
 31
0.0
  0
LINE
  8
0
 62
     4
 10
0.0236003
 20
0.602376
 30
0.0
 11
0
 21
0.578722
 31
0.0
  0
LINE
  8
0
 62
     4
 10
0
 20
0.578722
 30
0.0
 11
0
 21
0.389757
 31
0.0
  0
LINE
  8
0
 62
     4
 10
0
 20
0.389757
 30
0.0
 11
0.0354275
 21
0.354329
 31
0.0
  0
LINE
  8
0
 62
     4
 10
0.0354275
 20
0.354329
 30
0.0
 11
0.318901
 21
0.330729
 31
0.0
  0
LINE
  8
0
 62
     4
 10
0.318901
 20
0.330729
 30
0.0
 11
0.377983
 21
0.366157
 31
0.0
  0
LINE
  8
0
 62
     4
 10
0.377983
 20
0.366157
 30
0.0
 11
0.484213
 21
0.366157
 31
0.0
  0
LINE
  8
0
 62
     4
 10
0.484213
 20
0.366157
 30
0.0
 11
0.51964
 21
0.342503
 31
0.0
  0
LINE
  8
0
 62
     4
 10
0.51964
 20
0.342503
 30
0.0
 11
1.01573
 21
0.354329
 31
0.0
  0
LINE
  8
0
 62
     4
 10
1.01573
 20
0.354329
 30
0.0
 11
1.05116
 21
0.330729
 31
0.0
  0
LINE
  8
0
 62
     4
 10
1.05116
 20
0.330729
 30
0.0
 11
1.1811
 21
0.330729
 31
0.0
  0
LINE
  8
0
 62
     4
 10
1.1811
 20
0.330729
 30
0.0
 11
1.21652
 21
0.354329
 31
0.0
  0
LINE
  8
0
 62
     4
 10
1.21652
 20
0.354329
 30
0.0
 11
1.57086
 21
0.354329
 31
0.0
  0
LINE
  8
0
 62
     4
 10
1.57086
 20
0.354329
 30
0.0
 11
1.60628
 21
0.389757
 31
0.0
  0
LINE
  8
0
 62
     4
 10
1.60628
 20
0.389757
 30
0.0
 11
1.60628
 21
0.578722
 31
0.0
  0
LINE
  8
0
 62
     4
 10
1.60628
 20
0.578722
 30
0.0
 11
1.58268
 21
0.602376
 31
0.0
  0
ENDSEC
  0
EOF
