solid OpenSCAD_Model
  facet normal -0.716842 -0.697235 0
    outer loop
      vertex 0 9.906 0
      vertex 0.889 8.992 0
      vertex 0 9.906 1.4
    endloop
  endfacet
  facet normal -0.716842 -0.697235 0
    outer loop
      vertex 0 9.906 1.4
      vertex 0.889 8.992 0
      vertex 0.889 8.992 1.4
    endloop
  endfacet
  facet normal 0 0 -1
    outer loop
      vertex 0 9.906 0
      vertex 0 14.707 0
      vertex 0.889 8.992 0
    endloop
  endfacet
  facet normal 0 0 -1
    outer loop
      vertex 0.889 8.992 0
      vertex 0 14.707 0
      vertex 0.302802 14.9969 0
    endloop
  endfacet
  facet normal 0 0 -1
    outer loop
      vertex 0.889 8.992 0
      vertex 0.302802 14.9969 0
      vertex 0.29 15.192 0
    endloop
  endfacet
  facet normal 0 0 -1
    outer loop
      vertex 0.889 8.992 0
      vertex 0.29 15.192 0
      vertex 0.521986 15.2067 0
    endloop
  endfacet
  facet normal 0 0 -1
    outer loop
      vertex 0.889 8.992 0
      vertex 0.521986 15.2067 0
      vertex 0.61 15.291 0
    endloop
  endfacet
  facet normal 0 0 -1
    outer loop
      vertex 0.889 8.992 0
      vertex 0.61 15.291 0
      vertex 1.84836 15.291 0
    endloop
  endfacet
  facet normal 0 0 -1
    outer loop
      vertex 0.889 8.992 0
      vertex 1.84836 15.291 0
      vertex 5.091 15.497 0
    endloop
  endfacet
  facet normal 0 0 -1
    outer loop
      vertex 0.889 8.992 0
      vertex 5.091 15.497 0
      vertex 5.218 15.472 0
    endloop
  endfacet
  facet normal 0 0 -1
    outer loop
      vertex 0.889 8.992 0
      vertex 5.218 15.472 0
      vertex 6.056 14.888 0
    endloop
  endfacet
  facet normal 0 0 -1
    outer loop
      vertex 0.889 8.992 0
      vertex 6.056 14.888 0
      vertex 8.037 14.888 0
    endloop
  endfacet
  facet normal 0 0 -1
    outer loop
      vertex 8.037 14.888 0
      vertex 8.901 15.472 0
      vertex 0.889 8.992 0
    endloop
  endfacet
  facet normal 0 0 -1
    outer loop
      vertex 8.901 15.472 0
      vertex 9.002 15.497 0
      vertex 0.889 8.992 0
    endloop
  endfacet
  facet normal 0 0 -1
    outer loop
      vertex 15.342 13.843 0
      vertex 9.002 15.497 0
      vertex 40.193 15.497 0
    endloop
  endfacet
  facet normal 0 0 -1
    outer loop
      vertex 25.654 10.338 0
      vertex 41.006 14.71 0
      vertex 41.006 9.909 0
    endloop
  endfacet
  facet normal 0 0 -1
    outer loop
      vertex 0.889 8.992 0
      vertex 41.006 9.909 0
      vertex 40.955 9.757 0
    endloop
  endfacet
  facet normal 0 0 -1
    outer loop
      vertex 37.196 8.992 0
      vertex 40.955 9.757 0
      vertex 40.041 8.868 0
    endloop
  endfacet
  facet normal 0 0 -1
    outer loop
      vertex 12.253 9.096 0
      vertex 40.955 9.757 0
      vertex 25.806 8.992 0
    endloop
  endfacet
  facet normal 0 0 -1
    outer loop
      vertex 40.955 9.757 0
      vertex 37.196 8.992 0
      vertex 30.912 8.992 0
    endloop
  endfacet
  facet normal 0 0 -1
    outer loop
      vertex 13.219 8.512 0
      vertex 13.092 8.538 0
      vertex 25.817 8.792 0
    endloop
  endfacet
  facet normal 0 0 -1
    outer loop
      vertex 25.806 8.992 0
      vertex 29.997 8.407 0
      vertex 26.695 8.407 0
    endloop
  endfacet
  facet normal 0 0 -1
    outer loop
      vertex 25.654 13.843 0
      vertex 40.955 14.837 0
      vertex 41.006 14.71 0
    endloop
  endfacet
  facet normal 0 0 -1
    outer loop
      vertex 40.955 9.757 0
      vertex 30.912 8.992 0
      vertex 25.806 8.992 0
    endloop
  endfacet
  facet normal 0 0 -1
    outer loop
      vertex 8.215 8.233 0
      vertex 0.899021 8.99119 0
      vertex 9.663 9.096 0
    endloop
  endfacet
  facet normal 0 0 -1
    outer loop
      vertex 29.997 8.407 0
      vertex 25.806 8.992 0
      vertex 30.912 8.992 0
    endloop
  endfacet
  facet normal 0 0 -1
    outer loop
      vertex 12.253 9.096 0
      vertex 25.817 8.792 0
      vertex 13.092 8.538 0
    endloop
  endfacet
  facet normal 0 0 -1
    outer loop
      vertex 12.253 9.096 0
      vertex 25.806 8.992 0
      vertex 25.8047 8.99197 0
    endloop
  endfacet
  facet normal 0 0 -1
    outer loop
      vertex 12.253 9.096 0
      vertex 25.8047 8.99197 0
      vertex 25.817 8.792 0
    endloop
  endfacet
  facet normal 0 0 -1
    outer loop
      vertex 9.663 9.096 0
      vertex 40.955 9.757 0
      vertex 12.253 9.096 0
    endloop
  endfacet
  facet normal 0 0 -1
    outer loop
      vertex 0.899021 8.99119 0
      vertex 0.889 8.992 0
      vertex 9.663 9.096 0
    endloop
  endfacet
  facet normal 0 0 -1
    outer loop
      vertex 0.889 8.992 0
      vertex 40.955 9.757 0
      vertex 9.663 9.096 0
    endloop
  endfacet
  facet normal 0 0 -1
    outer loop
      vertex 0.899021 8.99119 0
      vertex 8.215 8.233 0
      vertex 8.088 8.207 0
    endloop
  endfacet
  facet normal 0 0 -1
    outer loop
      vertex 25.654 13.843 0
      vertex 40.193 15.497 0
      vertex 40.346 15.446 0
    endloop
  endfacet
  facet normal 0 0 -1
    outer loop
      vertex 25.654 13.843 0
      vertex 40.346 15.446 0
      vertex 40.955 14.837 0
    endloop
  endfacet
  facet normal 0 0 -1
    outer loop
      vertex 0.899021 8.99119 0
      vertex 8.088 8.207 0
      vertex 0.874 8.792 0
    endloop
  endfacet
  facet normal 0 0 -1
    outer loop
      vertex 15.342 10.338 0
      vertex 0.889 8.992 0
      vertex 15.342 13.843 0
    endloop
  endfacet
  facet normal 0 0 -1
    outer loop
      vertex 0.889 8.992 0
      vertex 9.002 15.497 0
      vertex 15.342 13.843 0
    endloop
  endfacet
  facet normal 0 0 -1
    outer loop
      vertex 25.654 13.843 0
      vertex 15.342 13.843 0
      vertex 40.193 15.497 0
    endloop
  endfacet
  facet normal 0 0 -1
    outer loop
      vertex 25.654 13.843 0
      vertex 41.006 14.71 0
      vertex 25.654 10.338 0
    endloop
  endfacet
  facet normal 0 0 -1
    outer loop
      vertex 0.889 8.992 0
      vertex 15.342 10.338 0
      vertex 41.006 9.909 0
    endloop
  endfacet
  facet normal 0 0 -1
    outer loop
      vertex 15.342 10.338 0
      vertex 25.654 10.338 0
      vertex 41.006 9.909 0
    endloop
  endfacet
  facet normal 0 0 -1
    outer loop
      vertex 37.196 8.992 0
      vertex 40.041 8.868 0
      vertex 39.914 8.792 0
    endloop
  endfacet
  facet normal 0 0 -1
    outer loop
      vertex 37.196 8.992 0
      vertex 39.914 8.792 0
      vertex 37.196 8.792 0
    endloop
  endfacet
  facet normal -1 0 0
    outer loop
      vertex 0 9.906 0
      vertex 0 9.906 1.4
      vertex 0 14.707 0
    endloop
  endfacet
  facet normal -1 0 0
    outer loop
      vertex 0 14.707 0
      vertex 0 9.906 1.4
      vertex 0 14.707 1.4
    endloop
  endfacet
  facet normal 0 0 1
    outer loop
      vertex 0 14.707 1.4
      vertex 0 9.906 1.4
      vertex 0.889 8.992 1.4
    endloop
  endfacet
  facet normal 0 0 1
    outer loop
      vertex 0.925 9.198 1.4
      vertex 0 14.707 1.4
      vertex 0.899021 8.99119 1.4
    endloop
  endfacet
  facet normal 0 0 1
    outer loop
      vertex 0.899021 8.99119 1.4
      vertex 0 14.707 1.4
      vertex 0.889 8.992 1.4
    endloop
  endfacet
  facet normal 0 0 1
    outer loop
      vertex 8.062 8.614 1.4
      vertex 0 14.707 1.4
      vertex 0.925 9.198 1.4
    endloop
  endfacet
  facet normal 0 0 1
    outer loop
      vertex 9.51 9.477 1.4
      vertex 0 14.707 1.4
      vertex 8.062 8.614 1.4
    endloop
  endfacet
  facet normal 0 0 1
    outer loop
      vertex 9.612 9.503 1.4
      vertex 0 14.707 1.4
      vertex 9.51 9.477 1.4
    endloop
  endfacet
  facet normal 0 0 1
    outer loop
      vertex 12.304 9.503 1.4
      vertex 0 14.707 1.4
      vertex 9.612 9.503 1.4
    endloop
  endfacet
  facet normal 0 0 1
    outer loop
      vertex 12.406 9.477 1.4
      vertex 0 14.707 1.4
      vertex 12.304 9.503 1.4
    endloop
  endfacet
  facet normal 0 0 1
    outer loop
      vertex 15.342 10.338 1.4
      vertex 0 14.707 1.4
      vertex 12.406 9.477 1.4
    endloop
  endfacet
  facet normal 0 0 1
    outer loop
      vertex 25.792 9.198 1.4
      vertex 12.406 9.477 1.4
      vertex 13.269 8.893 1.4
    endloop
  endfacet
  facet normal 0 0 1
    outer loop
      vertex 25.806 8.992 1.4
      vertex 25.792 9.198 1.4
      vertex 25.8047 8.99197 1.4
    endloop
  endfacet
  facet normal 0 0 1
    outer loop
      vertex 26.695 8.407 1.4
      vertex 25.792 9.198 1.4
      vertex 25.806 8.992 1.4
    endloop
  endfacet
  facet normal 0 0 1
    outer loop
      vertex 29.997 8.407 1.4
      vertex 25.792 9.198 1.4
      vertex 26.695 8.407 1.4
    endloop
  endfacet
  facet normal 0 0 1
    outer loop
      vertex 25.654 13.843 1.4
      vertex 25.654 10.338 1.4
      vertex 37.196 8.992 1.4
    endloop
  endfacet
  facet normal 0 0 1
    outer loop
      vertex 25.654 13.843 1.4
      vertex 37.196 8.992 1.4
      vertex 37.196 9.198 1.4
    endloop
  endfacet
  facet normal 0 0 1
    outer loop
      vertex 25.654 13.843 1.4
      vertex 39.812 9.198 1.4
      vertex 40.6 9.985 1.4
    endloop
  endfacet
  facet normal 0 0 1
    outer loop
      vertex 25.654 10.338 1.4
      vertex 25.792 9.198 1.4
      vertex 29.997 8.407 1.4
    endloop
  endfacet
  facet normal 0 0 1
    outer loop
      vertex 25.654 13.843 1.4
      vertex 37.196 9.198 1.4
      vertex 39.812 9.198 1.4
    endloop
  endfacet
  facet normal 0 0 1
    outer loop
      vertex 5.903 14.532 1.4
      vertex 0 14.707 1.4
      vertex 6.005 14.507 1.4
    endloop
  endfacet
  facet normal 0 0 1
    outer loop
      vertex 25.654 10.338 1.4
      vertex 15.342 10.338 1.4
      vertex 25.792 9.198 1.4
    endloop
  endfacet
  facet normal 0 0 1
    outer loop
      vertex 0.315 14.811 1.4
      vertex 0 14.707 1.4
      vertex 5.04 15.091 1.4
    endloop
  endfacet
  facet normal 0 0 1
    outer loop
      vertex 0.302802 14.9969 1.4
      vertex 0 14.707 1.4
      vertex 0.315 14.811 1.4
    endloop
  endfacet
  facet normal 0 0 1
    outer loop
      vertex 25.792 9.198 1.4
      vertex 15.342 10.338 1.4
      vertex 12.406 9.477 1.4
    endloop
  endfacet
  facet normal 0 0 1
    outer loop
      vertex 40.6 14.608 1.4
      vertex 8.215 14.532 1.4
      vertex 15.342 13.843 1.4
    endloop
  endfacet
  facet normal 0 0 1
    outer loop
      vertex 40.6 14.608 1.4
      vertex 25.654 13.843 1.4
      vertex 40.6 9.985 1.4
    endloop
  endfacet
  facet normal 0 0 1
    outer loop
      vertex 40.6 14.608 1.4
      vertex 15.342 13.843 1.4
      vertex 25.654 13.843 1.4
    endloop
  endfacet
  facet normal 0 0 1
    outer loop
      vertex 37.196 8.992 1.4
      vertex 25.654 10.338 1.4
      vertex 30.912 8.992 1.4
    endloop
  endfacet
  facet normal 0 0 1
    outer loop
      vertex 25.654 10.338 1.4
      vertex 29.997 8.407 1.4
      vertex 30.912 8.992 1.4
    endloop
  endfacet
  facet normal 0 0 1
    outer loop
      vertex 9.053 15.091 1.4
      vertex 40.6 14.608 1.4
      vertex 40.117 15.091 1.4
    endloop
  endfacet
  facet normal 0 0 1
    outer loop
      vertex 9.053 15.091 1.4
      vertex 8.215 14.532 1.4
      vertex 40.6 14.608 1.4
    endloop
  endfacet
  facet normal 0 0 1
    outer loop
      vertex 5.903 14.532 1.4
      vertex 5.04 15.091 1.4
      vertex 0 14.707 1.4
    endloop
  endfacet
  facet normal 0 0 1
    outer loop
      vertex 15.342 10.338 1.4
      vertex 6.005 14.507 1.4
      vertex 0 14.707 1.4
    endloop
  endfacet
  facet normal 0 0 1
    outer loop
      vertex 15.342 10.338 1.4
      vertex 8.113 14.507 1.4
      vertex 6.005 14.507 1.4
    endloop
  endfacet
  facet normal 0 0 1
    outer loop
      vertex 15.342 10.338 1.4
      vertex 8.215 14.532 1.4
      vertex 8.113 14.507 1.4
    endloop
  endfacet
  facet normal 0 0 1
    outer loop
      vertex 15.342 10.338 1.4
      vertex 15.342 13.843 1.4
      vertex 8.215 14.532 1.4
    endloop
  endfacet
  facet normal -0.080827 -0.996728 0
    outer loop
      vertex 0.889 8.992 1.4
      vertex 0.889 8.992 0
      vertex 0.899021 8.99119 0
    endloop
  endfacet
  facet normal -0.080827 -0.996728 0
    outer loop
      vertex 0.899021 8.99119 1.4
      vertex 0.889 8.992 1.4
      vertex 0.899021 8.99119 0
    endloop
  endfacet
  facet normal -0.992202 0.124636 0
    outer loop
      vertex 0.874 8.792 0
      vertex 0.874 8.792 2.6
      vertex 0.899021 8.99119 0
    endloop
  endfacet
  facet normal -0.992202 0.124636 0
    outer loop
      vertex 0.899021 8.99119 1.4
      vertex 0.874 8.792 2.6
      vertex 0.925 9.198 2.6
    endloop
  endfacet
  facet normal -0.992202 0.124636 0
    outer loop
      vertex 0.899021 8.99119 0
      vertex 0.874 8.792 2.6
      vertex 0.899021 8.99119 1.4
    endloop
  endfacet
  facet normal -0.992202 0.124636 0
    outer loop
      vertex 0.899021 8.99119 1.4
      vertex 0.925 9.198 2.6
      vertex 0.925 9.198 1.4
    endloop
  endfacet
  facet normal -0.080827 -0.996728 0
    outer loop
      vertex 0.874 8.792 2.6
      vertex 0.874 8.792 0
      vertex 8.088 8.207 0
    endloop
  endfacet
  facet normal -0.080827 -0.996728 0
    outer loop
      vertex 8.088 8.207 2.6
      vertex 0.874 8.792 2.6
      vertex 8.088 8.207 0
    endloop
  endfacet
  facet normal 0.200565 -0.97968 0
    outer loop
      vertex 8.088 8.207 2.6
      vertex 8.088 8.207 0
      vertex 8.215 8.233 0
    endloop
  endfacet
  facet normal 0.200565 -0.97968 0
    outer loop
      vertex 8.215 8.233 2.6
      vertex 8.088 8.207 2.6
      vertex 8.215 8.233 0
    endloop
  endfacet
  facet normal 0.511964 -0.859007 0
    outer loop
      vertex 8.215 8.233 2.6
      vertex 8.215 8.233 0
      vertex 9.663 9.096 0
    endloop
  endfacet
  facet normal 0.511964 -0.859007 0
    outer loop
      vertex 9.663 9.096 2.6
      vertex 8.215 8.233 2.6
      vertex 9.663 9.096 0
    endloop
  endfacet
  facet normal 0 -1 0
    outer loop
      vertex 9.663 9.096 2.6
      vertex 9.663 9.096 0
      vertex 12.253 9.096 0
    endloop
  endfacet
  facet normal 0 -1 0
    outer loop
      vertex 12.253 9.096 2.6
      vertex 9.663 9.096 2.6
      vertex 12.253 9.096 0
    endloop
  endfacet
  facet normal -0.553784 -0.832661 0
    outer loop
      vertex 12.253 9.096 2.6
      vertex 12.253 9.096 0
      vertex 13.092 8.538 0
    endloop
  endfacet
  facet normal -0.553784 -0.832661 0
    outer loop
      vertex 13.092 8.538 2.6
      vertex 12.253 9.096 2.6
      vertex 13.092 8.538 0
    endloop
  endfacet
  facet normal -0.200565 -0.97968 0
    outer loop
      vertex 13.092 8.538 2.6
      vertex 13.092 8.538 0
      vertex 13.219 8.512 0
    endloop
  endfacet
  facet normal -0.200565 -0.97968 0
    outer loop
      vertex 13.219 8.512 2.6
      vertex 13.092 8.538 2.6
      vertex 13.219 8.512 0
    endloop
  endfacet
  facet normal 0.0222203 -0.999753 0
    outer loop
      vertex 13.219 8.512 2.6
      vertex 13.219 8.512 0
      vertex 25.817 8.792 0
    endloop
  endfacet
  facet normal 0.0222203 -0.999753 0
    outer loop
      vertex 25.817 8.792 2.6
      vertex 13.219 8.512 2.6
      vertex 25.817 8.792 0
    endloop
  endfacet
  facet normal 0.99811 0.0614599 0
    outer loop
      vertex 25.8047 8.99197 1.4
      vertex 25.792 9.198 1.4
      vertex 25.792 9.198 2.6
    endloop
  endfacet
  facet normal 0.99811 0.0614599 0
    outer loop
      vertex 25.817 8.792 0
      vertex 25.8047 8.99197 1.4
      vertex 25.817 8.792 2.6
    endloop
  endfacet
  facet normal 0.99811 0.0614599 0
    outer loop
      vertex 25.817 8.792 2.6
      vertex 25.8047 8.99197 1.4
      vertex 25.792 9.198 2.6
    endloop
  endfacet
  facet normal 0.99811 0.0614599 0
    outer loop
      vertex 25.8047 8.99197 0
      vertex 25.8047 8.99197 1.4
      vertex 25.817 8.792 0
    endloop
  endfacet
  facet normal 0.0222203 -0.999753 0
    outer loop
      vertex 25.8047 8.99197 1.4
      vertex 25.8047 8.99197 0
      vertex 25.806 8.992 0
    endloop
  endfacet
  facet normal 0.0222203 -0.999753 0
    outer loop
      vertex 25.806 8.992 1.4
      vertex 25.8047 8.99197 1.4
      vertex 25.806 8.992 0
    endloop
  endfacet
  facet normal -0.549703 -0.83536 0
    outer loop
      vertex 25.806 8.992 1.4
      vertex 25.806 8.992 0
      vertex 26.695 8.407 0
    endloop
  endfacet
  facet normal -0.549703 -0.83536 0
    outer loop
      vertex 26.695 8.407 1.4
      vertex 25.806 8.992 1.4
      vertex 26.695 8.407 0
    endloop
  endfacet
  facet normal 0 -1 0
    outer loop
      vertex 26.695 8.407 1.4
      vertex 26.695 8.407 0
      vertex 29.997 8.407 0
    endloop
  endfacet
  facet normal 0 -1 0
    outer loop
      vertex 29.997 8.407 1.4
      vertex 26.695 8.407 1.4
      vertex 29.997 8.407 0
    endloop
  endfacet
  facet normal 0.538662 -0.842522 0
    outer loop
      vertex 29.997 8.407 1.4
      vertex 29.997 8.407 0
      vertex 30.912 8.992 0
    endloop
  endfacet
  facet normal 0.538662 -0.842522 0
    outer loop
      vertex 30.912 8.992 1.4
      vertex 29.997 8.407 1.4
      vertex 30.912 8.992 0
    endloop
  endfacet
  facet normal 0 -1 0
    outer loop
      vertex 30.912 8.992 1.4
      vertex 30.912 8.992 0
      vertex 37.196 8.992 0
    endloop
  endfacet
  facet normal 0 -1 0
    outer loop
      vertex 37.196 8.992 1.4
      vertex 30.912 8.992 1.4
      vertex 37.196 8.992 0
    endloop
  endfacet
  facet normal -1 0 0
    outer loop
      vertex 37.196 8.792 0
      vertex 37.196 8.792 2.6
      vertex 37.196 8.992 0
    endloop
  endfacet
  facet normal -1 0 0
    outer loop
      vertex 37.196 8.992 1.4
      vertex 37.196 8.792 2.6
      vertex 37.196 9.198 2.6
    endloop
  endfacet
  facet normal -1 0 0
    outer loop
      vertex 37.196 8.992 0
      vertex 37.196 8.792 2.6
      vertex 37.196 8.992 1.4
    endloop
  endfacet
  facet normal -1 0 0
    outer loop
      vertex 37.196 8.992 1.4
      vertex 37.196 9.198 2.6
      vertex 37.196 9.198 1.4
    endloop
  endfacet
  facet normal 0 -1 0
    outer loop
      vertex 37.196 8.792 2.6
      vertex 37.196 8.792 0
      vertex 39.914 8.792 0
    endloop
  endfacet
  facet normal 0 -1 0
    outer loop
      vertex 39.914 8.792 2.6
      vertex 37.196 8.792 2.6
      vertex 39.914 8.792 0
    endloop
  endfacet
  facet normal 0.513502 -0.858089 0
    outer loop
      vertex 39.914 8.792 2.6
      vertex 39.914 8.792 0
      vertex 40.041 8.868 0
    endloop
  endfacet
  facet normal 0.513502 -0.858089 0
    outer loop
      vertex 40.041 8.868 2.6
      vertex 39.914 8.792 2.6
      vertex 40.041 8.868 0
    endloop
  endfacet
  facet normal 0.697235 -0.716842 0
    outer loop
      vertex 40.041 8.868 2.6
      vertex 40.041 8.868 0
      vertex 40.955 9.757 0
    endloop
  endfacet
  facet normal 0.697235 -0.716842 0
    outer loop
      vertex 40.955 9.757 2.6
      vertex 40.041 8.868 2.6
      vertex 40.955 9.757 0
    endloop
  endfacet
  facet normal 0.948058 -0.318098 0
    outer loop
      vertex 40.955 9.757 2.6
      vertex 40.955 9.757 0
      vertex 41.006 9.909 0
    endloop
  endfacet
  facet normal 0.948058 -0.318098 0
    outer loop
      vertex 41.006 9.909 2.6
      vertex 40.955 9.757 2.6
      vertex 41.006 9.909 0
    endloop
  endfacet
  facet normal 1 0 0
    outer loop
      vertex 41.006 9.909 2.6
      vertex 41.006 9.909 0
      vertex 41.006 14.71 0
    endloop
  endfacet
  facet normal 1 0 0
    outer loop
      vertex 41.006 14.71 2.6
      vertex 41.006 9.909 2.6
      vertex 41.006 14.71 0
    endloop
  endfacet
  facet normal 0.927972 0.37265 0
    outer loop
      vertex 41.006 14.71 0
      vertex 40.955 14.837 0
      vertex 40.955 14.837 2.6
    endloop
  endfacet
  facet normal 0.927972 0.37265 0
    outer loop
      vertex 41.006 14.71 2.6
      vertex 41.006 14.71 0
      vertex 40.955 14.837 2.6
    endloop
  endfacet
  facet normal 0.707107 0.707107 0
    outer loop
      vertex 40.346 15.446 0
      vertex 40.346 15.446 2.6
      vertex 40.955 14.837 0
    endloop
  endfacet
  facet normal 0.707107 0.707107 0
    outer loop
      vertex 40.955 14.837 0
      vertex 40.346 15.446 2.6
      vertex 40.955 14.837 2.6
    endloop
  endfacet
  facet normal 0.316228 0.948683 0
    outer loop
      vertex 40.193 15.497 0
      vertex 40.193 15.497 2.6
      vertex 40.346 15.446 0
    endloop
  endfacet
  facet normal 0.316228 0.948683 0
    outer loop
      vertex 40.346 15.446 0
      vertex 40.193 15.497 2.6
      vertex 40.346 15.446 2.6
    endloop
  endfacet
  facet normal 0 1 0
    outer loop
      vertex 9.002 15.497 0
      vertex 9.002 15.497 2.6
      vertex 40.193 15.497 0
    endloop
  endfacet
  facet normal 0 1 0
    outer loop
      vertex 40.193 15.497 0
      vertex 9.002 15.497 2.6
      vertex 40.193 15.497 2.6
    endloop
  endfacet
  facet normal -0.240274 0.970705 0
    outer loop
      vertex 8.901 15.472 0
      vertex 8.901 15.472 2.6
      vertex 9.002 15.497 0
    endloop
  endfacet
  facet normal -0.240274 0.970705 0
    outer loop
      vertex 9.002 15.497 0
      vertex 8.901 15.472 2.6
      vertex 9.002 15.497 2.6
    endloop
  endfacet
  facet normal -0.56 0.828493 0
    outer loop
      vertex 8.037 14.888 0
      vertex 8.037 14.888 2.6
      vertex 8.901 15.472 0
    endloop
  endfacet
  facet normal -0.56 0.828493 0
    outer loop
      vertex 8.901 15.472 0
      vertex 8.037 14.888 2.6
      vertex 8.901 15.472 2.6
    endloop
  endfacet
  facet normal 0 1 0
    outer loop
      vertex 6.056 14.888 0
      vertex 6.056 14.888 2.6
      vertex 8.037 14.888 0
    endloop
  endfacet
  facet normal 0 1 0
    outer loop
      vertex 8.037 14.888 0
      vertex 6.056 14.888 2.6
      vertex 8.037 14.888 2.6
    endloop
  endfacet
  facet normal 0.571753 0.820426 0
    outer loop
      vertex 5.218 15.472 0
      vertex 5.218 15.472 2.6
      vertex 6.056 14.888 0
    endloop
  endfacet
  facet normal 0.571753 0.820426 0
    outer loop
      vertex 6.056 14.888 0
      vertex 5.218 15.472 2.6
      vertex 6.056 14.888 2.6
    endloop
  endfacet
  facet normal 0.193144 0.98117 0
    outer loop
      vertex 5.091 15.497 0
      vertex 5.091 15.497 2.6
      vertex 5.218 15.472 0
    endloop
  endfacet
  facet normal 0.193144 0.98117 0
    outer loop
      vertex 5.218 15.472 0
      vertex 5.091 15.497 2.6
      vertex 5.218 15.472 2.6
    endloop
  endfacet
  facet normal -0.0634006 0.997988 0
    outer loop
      vertex 0.29 15.192 0
      vertex 0.29 15.192 2.6
      vertex 0.521986 15.2067 0
    endloop
  endfacet
  facet normal -0.0634006 0.997988 0
    outer loop
      vertex 1.84836 15.291 1.4
      vertex 0.29 15.192 2.6
      vertex 5.091 15.497 2.6
    endloop
  endfacet
  facet normal -0.0634006 0.997988 0
    outer loop
      vertex 1.84836 15.291 0
      vertex 5.091 15.497 2.6
      vertex 5.091 15.497 0
    endloop
  endfacet
  facet normal -0.0634006 0.997988 0
    outer loop
      vertex 0.521986 15.2067 1.4
      vertex 0.29 15.192 2.6
      vertex 1.84836 15.291 1.4
    endloop
  endfacet
  facet normal -0.0634006 0.997988 0
    outer loop
      vertex 0.521986 15.2067 0
      vertex 0.29 15.192 2.6
      vertex 0.521986 15.2067 1.4
    endloop
  endfacet
  facet normal -0.0634006 0.997988 0
    outer loop
      vertex 1.84836 15.291 1.4
      vertex 5.091 15.497 2.6
      vertex 1.84836 15.291 0
    endloop
  endfacet
  facet normal 0 1 0
    outer loop
      vertex 0.61 15.291 0
      vertex 0.61 15.291 1.4
      vertex 1.84836 15.291 0
    endloop
  endfacet
  facet normal 0 1 0
    outer loop
      vertex 1.84836 15.291 0
      vertex 0.61 15.291 1.4
      vertex 1.84836 15.291 1.4
    endloop
  endfacet
  facet normal -0.691545 0.722333 0
    outer loop
      vertex 0.521986 15.2067 0
      vertex 0.521986 15.2067 1.4
      vertex 0.61 15.291 0
    endloop
  endfacet
  facet normal -0.691545 0.722333 0
    outer loop
      vertex 0.61 15.291 0
      vertex 0.521986 15.2067 1.4
      vertex 0.61 15.291 1.4
    endloop
  endfacet
  facet normal -0.997854 -0.065476 0
    outer loop
      vertex 0.29 15.192 0
      vertex 0.302802 14.9969 0
      vertex 0.29 15.192 2.6
    endloop
  endfacet
  facet normal -0.997854 -0.065476 0
    outer loop
      vertex 0.29 15.192 2.6
      vertex 0.302802 14.9969 0
      vertex 0.302802 14.9969 1.4
    endloop
  endfacet
  facet normal -0.997854 -0.065476 0
    outer loop
      vertex 0.29 15.192 2.6
      vertex 0.302802 14.9969 1.4
      vertex 0.315 14.811 1.4
    endloop
  endfacet
  facet normal -0.997854 -0.065476 0
    outer loop
      vertex 0.29 15.192 2.6
      vertex 0.315 14.811 1.4
      vertex 0.315 14.811 2.6
    endloop
  endfacet
  facet normal -0.691545 0.722333 0
    outer loop
      vertex 0 14.707 0
      vertex 0 14.707 1.4
      vertex 0.302802 14.9969 0
    endloop
  endfacet
  facet normal -0.691545 0.722333 0
    outer loop
      vertex 0.302802 14.9969 0
      vertex 0 14.707 1.4
      vertex 0.302802 14.9969 1.4
    endloop
  endfacet
  facet normal 0 -1 0
    outer loop
      vertex 15.342 13.843 1.4
      vertex 15.342 13.843 0
      vertex 25.654 13.843 0
    endloop
  endfacet
  facet normal 0 -1 0
    outer loop
      vertex 25.654 13.843 1.4
      vertex 15.342 13.843 1.4
      vertex 25.654 13.843 0
    endloop
  endfacet
  facet normal 1 0 0
    outer loop
      vertex 15.342 10.338 1.4
      vertex 15.342 10.338 0
      vertex 15.342 13.843 0
    endloop
  endfacet
  facet normal 1 0 0
    outer loop
      vertex 15.342 13.843 1.4
      vertex 15.342 10.338 1.4
      vertex 15.342 13.843 0
    endloop
  endfacet
  facet normal -1 0 0
    outer loop
      vertex 25.654 10.338 0
      vertex 25.654 10.338 1.4
      vertex 25.654 13.843 0
    endloop
  endfacet
  facet normal -1 0 0
    outer loop
      vertex 25.654 13.843 0
      vertex 25.654 10.338 1.4
      vertex 25.654 13.843 1.4
    endloop
  endfacet
  facet normal 0 1 0
    outer loop
      vertex 15.342 10.338 0
      vertex 15.342 10.338 1.4
      vertex 25.654 10.338 0
    endloop
  endfacet
  facet normal 0 1 0
    outer loop
      vertex 25.654 10.338 0
      vertex 15.342 10.338 1.4
      vertex 25.654 10.338 1.4
    endloop
  endfacet
  facet normal 0.0591555 -0.998249 0
    outer loop
      vertex 0.315 14.811 2.6
      vertex 0.315 14.811 1.4
      vertex 5.04 15.091 1.4
    endloop
  endfacet
  facet normal 0.0591555 -0.998249 0
    outer loop
      vertex 5.04 15.091 2.6
      vertex 0.315 14.811 2.6
      vertex 5.04 15.091 1.4
    endloop
  endfacet
  facet normal -0.543654 -0.839309 0
    outer loop
      vertex 5.04 15.091 2.6
      vertex 5.04 15.091 1.4
      vertex 5.903 14.532 1.4
    endloop
  endfacet
  facet normal -0.543654 -0.839309 0
    outer loop
      vertex 5.903 14.532 2.6
      vertex 5.04 15.091 2.6
      vertex 5.903 14.532 1.4
    endloop
  endfacet
  facet normal -0.238052 -0.971252 0
    outer loop
      vertex 5.903 14.532 2.6
      vertex 5.903 14.532 1.4
      vertex 6.005 14.507 1.4
    endloop
  endfacet
  facet normal -0.238052 -0.971252 0
    outer loop
      vertex 6.005 14.507 2.6
      vertex 5.903 14.532 2.6
      vertex 6.005 14.507 1.4
    endloop
  endfacet
  facet normal 0 -1 0
    outer loop
      vertex 6.005 14.507 2.6
      vertex 6.005 14.507 1.4
      vertex 8.113 14.507 1.4
    endloop
  endfacet
  facet normal 0 -1 0
    outer loop
      vertex 8.113 14.507 2.6
      vertex 6.005 14.507 2.6
      vertex 8.113 14.507 1.4
    endloop
  endfacet
  facet normal 0.238052 -0.971252 0
    outer loop
      vertex 8.113 14.507 2.6
      vertex 8.113 14.507 1.4
      vertex 8.215 14.532 1.4
    endloop
  endfacet
  facet normal 0.238052 -0.971252 0
    outer loop
      vertex 8.215 14.532 2.6
      vertex 8.113 14.507 2.6
      vertex 8.215 14.532 1.4
    endloop
  endfacet
  facet normal 0.554929 -0.831898 0
    outer loop
      vertex 8.215 14.532 2.6
      vertex 8.215 14.532 1.4
      vertex 9.053 15.091 1.4
    endloop
  endfacet
  facet normal 0.554929 -0.831898 0
    outer loop
      vertex 9.053 15.091 2.6
      vertex 8.215 14.532 2.6
      vertex 9.053 15.091 1.4
    endloop
  endfacet
  facet normal 0 -1 0
    outer loop
      vertex 9.053 15.091 2.6
      vertex 9.053 15.091 1.4
      vertex 40.117 15.091 1.4
    endloop
  endfacet
  facet normal 0 -1 0
    outer loop
      vertex 40.117 15.091 2.6
      vertex 9.053 15.091 2.6
      vertex 40.117 15.091 1.4
    endloop
  endfacet
  facet normal -0.707107 -0.707107 0
    outer loop
      vertex 40.117 15.091 1.4
      vertex 40.6 14.608 1.4
      vertex 40.117 15.091 2.6
    endloop
  endfacet
  facet normal -0.707107 -0.707107 0
    outer loop
      vertex 40.117 15.091 2.6
      vertex 40.6 14.608 1.4
      vertex 40.6 14.608 2.6
    endloop
  endfacet
  facet normal -1 0 0
    outer loop
      vertex 40.6 9.985 1.4
      vertex 40.6 9.985 2.6
      vertex 40.6 14.608 1.4
    endloop
  endfacet
  facet normal -1 0 0
    outer loop
      vertex 40.6 14.608 1.4
      vertex 40.6 9.985 2.6
      vertex 40.6 14.608 2.6
    endloop
  endfacet
  facet normal -0.706658 0.707556 0
    outer loop
      vertex 39.812 9.198 1.4
      vertex 39.812 9.198 2.6
      vertex 40.6 9.985 1.4
    endloop
  endfacet
  facet normal -0.706658 0.707556 0
    outer loop
      vertex 40.6 9.985 1.4
      vertex 39.812 9.198 2.6
      vertex 40.6 9.985 2.6
    endloop
  endfacet
  facet normal 0 1 0
    outer loop
      vertex 37.196 9.198 1.4
      vertex 37.196 9.198 2.6
      vertex 39.812 9.198 1.4
    endloop
  endfacet
  facet normal 0 1 0
    outer loop
      vertex 39.812 9.198 1.4
      vertex 37.196 9.198 2.6
      vertex 39.812 9.198 2.6
    endloop
  endfacet
  facet normal -0.024348 0.999704 0
    outer loop
      vertex 13.269 8.893 1.4
      vertex 13.269 8.893 2.6
      vertex 25.792 9.198 1.4
    endloop
  endfacet
  facet normal -0.024348 0.999704 0
    outer loop
      vertex 25.792 9.198 1.4
      vertex 13.269 8.893 2.6
      vertex 25.792 9.198 2.6
    endloop
  endfacet
  facet normal 0.560445 0.828192 0
    outer loop
      vertex 12.406 9.477 1.4
      vertex 12.406 9.477 2.6
      vertex 13.269 8.893 1.4
    endloop
  endfacet
  facet normal 0.560445 0.828192 0
    outer loop
      vertex 13.269 8.893 1.4
      vertex 12.406 9.477 2.6
      vertex 13.269 8.893 2.6
    endloop
  endfacet
  facet normal 0.247004 0.969015 0
    outer loop
      vertex 12.304 9.503 1.4
      vertex 12.304 9.503 2.6
      vertex 12.406 9.477 1.4
    endloop
  endfacet
  facet normal 0.247004 0.969015 0
    outer loop
      vertex 12.406 9.477 1.4
      vertex 12.304 9.503 2.6
      vertex 12.406 9.477 2.6
    endloop
  endfacet
  facet normal 0 1 0
    outer loop
      vertex 9.612 9.503 1.4
      vertex 9.612 9.503 2.6
      vertex 12.304 9.503 1.4
    endloop
  endfacet
  facet normal 0 1 0
    outer loop
      vertex 12.304 9.503 1.4
      vertex 9.612 9.503 2.6
      vertex 12.304 9.503 2.6
    endloop
  endfacet
  facet normal -0.247004 0.969015 0
    outer loop
      vertex 9.51 9.477 1.4
      vertex 9.51 9.477 2.6
      vertex 9.612 9.503 1.4
    endloop
  endfacet
  facet normal -0.247004 0.969015 0
    outer loop
      vertex 9.612 9.503 1.4
      vertex 9.51 9.477 2.6
      vertex 9.612 9.503 2.6
    endloop
  endfacet
  facet normal -0.511964 0.859007 0
    outer loop
      vertex 8.062 8.614 1.4
      vertex 8.062 8.614 2.6
      vertex 9.51 9.477 1.4
    endloop
  endfacet
  facet normal -0.511964 0.859007 0
    outer loop
      vertex 9.51 9.477 1.4
      vertex 8.062 8.614 2.6
      vertex 9.51 9.477 2.6
    endloop
  endfacet
  facet normal 0.0815545 0.996669 0
    outer loop
      vertex 0.925 9.198 1.4
      vertex 0.925 9.198 2.6
      vertex 8.062 8.614 1.4
    endloop
  endfacet
  facet normal 0.0815545 0.996669 0
    outer loop
      vertex 8.062 8.614 1.4
      vertex 0.925 9.198 2.6
      vertex 8.062 8.614 2.6
    endloop
  endfacet
  facet normal 0 0 1
    outer loop
      vertex 0.925 9.198 2.6
      vertex 0.874 8.792 2.6
      vertex 8.088 8.207 2.6
    endloop
  endfacet
  facet normal 0 0 1
    outer loop
      vertex 8.062 8.614 2.6
      vertex 0.925 9.198 2.6
      vertex 8.215 8.233 2.6
    endloop
  endfacet
  facet normal 0 0 1
    outer loop
      vertex 8.215 8.233 2.6
      vertex 0.925 9.198 2.6
      vertex 8.088 8.207 2.6
    endloop
  endfacet
  facet normal 0 0 1
    outer loop
      vertex 9.51 9.477 2.6
      vertex 12.406 9.477 2.6
      vertex 12.304 9.503 2.6
    endloop
  endfacet
  facet normal 0 0 1
    outer loop
      vertex 13.219 8.512 2.6
      vertex 12.253 9.096 2.6
      vertex 13.092 8.538 2.6
    endloop
  endfacet
  facet normal 0 0 1
    outer loop
      vertex 13.269 8.893 2.6
      vertex 12.253 9.096 2.6
      vertex 13.219 8.512 2.6
    endloop
  endfacet
  facet normal 0 0 1
    outer loop
      vertex 25.817 8.792 2.6
      vertex 13.269 8.893 2.6
      vertex 13.219 8.512 2.6
    endloop
  endfacet
  facet normal 0 0 1
    outer loop
      vertex 9.612 9.503 2.6
      vertex 9.51 9.477 2.6
      vertex 12.304 9.503 2.6
    endloop
  endfacet
  facet normal 0 0 1
    outer loop
      vertex 9.663 9.096 2.6
      vertex 8.062 8.614 2.6
      vertex 8.215 8.233 2.6
    endloop
  endfacet
  facet normal 0 0 1
    outer loop
      vertex 9.51 9.477 2.6
      vertex 12.253 9.096 2.6
      vertex 12.406 9.477 2.6
    endloop
  endfacet
  facet normal 0 0 1
    outer loop
      vertex 25.792 9.198 2.6
      vertex 13.269 8.893 2.6
      vertex 25.817 8.792 2.6
    endloop
  endfacet
  facet normal 0 0 1
    outer loop
      vertex 13.269 8.893 2.6
      vertex 12.406 9.477 2.6
      vertex 12.253 9.096 2.6
    endloop
  endfacet
  facet normal 0 0 1
    outer loop
      vertex 9.51 9.477 2.6
      vertex 9.663 9.096 2.6
      vertex 12.253 9.096 2.6
    endloop
  endfacet
  facet normal 0 0 1
    outer loop
      vertex 9.51 9.477 2.6
      vertex 8.062 8.614 2.6
      vertex 9.663 9.096 2.6
    endloop
  endfacet
  facet normal 0 0 1
    outer loop
      vertex 5.091 15.497 2.6
      vertex 0.29 15.192 2.6
      vertex 0.315 14.811 2.6
    endloop
  endfacet
  facet normal 0 0 1
    outer loop
      vertex 5.903 14.532 2.6
      vertex 5.091 15.497 2.6
      vertex 5.04 15.091 2.6
    endloop
  endfacet
  facet normal 0 0 1
    outer loop
      vertex 5.04 15.091 2.6
      vertex 5.091 15.497 2.6
      vertex 0.315 14.811 2.6
    endloop
  endfacet
  facet normal 0 0 1
    outer loop
      vertex 6.005 14.507 2.6
      vertex 5.091 15.497 2.6
      vertex 5.903 14.532 2.6
    endloop
  endfacet
  facet normal 0 0 1
    outer loop
      vertex 6.056 14.888 2.6
      vertex 5.091 15.497 2.6
      vertex 6.005 14.507 2.6
    endloop
  endfacet
  facet normal 0 0 1
    outer loop
      vertex 6.056 14.888 2.6
      vertex 5.218 15.472 2.6
      vertex 5.091 15.497 2.6
    endloop
  endfacet
  facet normal 0 0 1
    outer loop
      vertex 8.037 14.888 2.6
      vertex 6.056 14.888 2.6
      vertex 8.113 14.507 2.6
    endloop
  endfacet
  facet normal 0 0 1
    outer loop
      vertex 41.006 14.71 2.6
      vertex 40.117 15.091 2.6
      vertex 40.6 14.608 2.6
    endloop
  endfacet
  facet normal 0 0 1
    outer loop
      vertex 40.955 9.757 2.6
      vertex 40.6 14.608 2.6
      vertex 40.6 9.985 2.6
    endloop
  endfacet
  facet normal 0 0 1
    outer loop
      vertex 39.914 8.792 2.6
      vertex 40.6 9.985 2.6
      vertex 39.812 9.198 2.6
    endloop
  endfacet
  facet normal 0 0 1
    outer loop
      vertex 37.196 8.792 2.6
      vertex 39.812 9.198 2.6
      vertex 37.196 9.198 2.6
    endloop
  endfacet
  facet normal 0 0 1
    outer loop
      vertex 39.914 8.792 2.6
      vertex 39.812 9.198 2.6
      vertex 37.196 8.792 2.6
    endloop
  endfacet
  facet normal 0 0 1
    outer loop
      vertex 40.041 8.868 2.6
      vertex 40.6 9.985 2.6
      vertex 39.914 8.792 2.6
    endloop
  endfacet
  facet normal 0 0 1
    outer loop
      vertex 40.955 9.757 2.6
      vertex 40.6 9.985 2.6
      vertex 40.041 8.868 2.6
    endloop
  endfacet
  facet normal 0 0 1
    outer loop
      vertex 41.006 9.909 2.6
      vertex 40.6 14.608 2.6
      vertex 40.955 9.757 2.6
    endloop
  endfacet
  facet normal 0 0 1
    outer loop
      vertex 41.006 14.71 2.6
      vertex 40.6 14.608 2.6
      vertex 41.006 9.909 2.6
    endloop
  endfacet
  facet normal 0 0 1
    outer loop
      vertex 40.955 14.837 2.6
      vertex 40.117 15.091 2.6
      vertex 41.006 14.71 2.6
    endloop
  endfacet
  facet normal 0 0 1
    outer loop
      vertex 40.346 15.446 2.6
      vertex 40.117 15.091 2.6
      vertex 40.955 14.837 2.6
    endloop
  endfacet
  facet normal 0 0 1
    outer loop
      vertex 40.193 15.497 2.6
      vertex 9.002 15.497 2.6
      vertex 40.346 15.446 2.6
    endloop
  endfacet
  facet normal 0 0 1
    outer loop
      vertex 40.346 15.446 2.6
      vertex 8.901 15.472 2.6
      vertex 40.117 15.091 2.6
    endloop
  endfacet
  facet normal 0 0 1
    outer loop
      vertex 9.053 15.091 2.6
      vertex 8.037 14.888 2.6
      vertex 8.215 14.532 2.6
    endloop
  endfacet
  facet normal 0 0 1
    outer loop
      vertex 8.113 14.507 2.6
      vertex 6.056 14.888 2.6
      vertex 6.005 14.507 2.6
    endloop
  endfacet
  facet normal 0 0 1
    outer loop
      vertex 8.037 14.888 2.6
      vertex 8.113 14.507 2.6
      vertex 8.215 14.532 2.6
    endloop
  endfacet
  facet normal 0 0 1
    outer loop
      vertex 9.002 15.497 2.6
      vertex 8.901 15.472 2.6
      vertex 40.346 15.446 2.6
    endloop
  endfacet
  facet normal 0 0 1
    outer loop
      vertex 8.901 15.472 2.6
      vertex 9.053 15.091 2.6
      vertex 40.117 15.091 2.6
    endloop
  endfacet
  facet normal 0 0 1
    outer loop
      vertex 8.901 15.472 2.6
      vertex 8.037 14.888 2.6
      vertex 9.053 15.091 2.6
    endloop
  endfacet
  facet normal 0 0 1
    outer loop
      vertex 0.61 15.291 1.4
      vertex 0.521986 15.2067 1.4
      vertex 1.84836 15.291 1.4
    endloop
  endfacet
  facet normal -0.858089 -0.513502 0
    outer loop
      vertex 19.594 0.587 0
      vertex 19.67 0.46 0
      vertex 19.594 0.587 2.6
    endloop
  endfacet
  facet normal -0.858089 -0.513502 0
    outer loop
      vertex 19.594 0.587 2.6
      vertex 19.67 0.46 0
      vertex 19.67 0.46 2.6
    endloop
  endfacet
  facet normal 0 0 -1
    outer loop
      vertex 19.594 0.587 0
      vertex 19.594 5.109 0
      vertex 19.67 0.46 0
    endloop
  endfacet
  facet normal 0 0 -1
    outer loop
      vertex 19.67 0.46 0
      vertex 19.594 5.109 0
      vertex 19.67 5.236 0
    endloop
  endfacet
  facet normal 0 0 -1
    outer loop
      vertex 19.67 0.46 0
      vertex 19.67 5.236 0
      vertex 20.254 5.845 0
    endloop
  endfacet
  facet normal 0 0 -1
    outer loop
      vertex 19.67 0.46 0
      vertex 20.254 5.845 0
      vertex 20.407 5.896 0
    endloop
  endfacet
  facet normal 0 0 -1
    outer loop
      vertex 19.67 0.46 0
      vertex 20.407 5.896 0
      vertex 25.792 5.896 0
    endloop
  endfacet
  facet normal 0 0 -1
    outer loop
      vertex 19.67 0.46 0
      vertex 25.792 5.896 0
      vertex 25.792 5.69 0
    endloop
  endfacet
  facet normal 0 0 -1
    outer loop
      vertex 19.67 0.46 0
      vertex 25.792 5.69 0
      vertex 37.196 5.69 0
    endloop
  endfacet
  facet normal 0 0 -1
    outer loop
      vertex 37.196 5.69 0
      vertex 37.196 5.896 0
      vertex 40.498 5.896 0
    endloop
  endfacet
  facet normal 0 0 -1
    outer loop
      vertex 37.196 5.69 0
      vertex 40.498 5.896 0
      vertex 19.67 0.46 0
    endloop
  endfacet
  facet normal 0 0 -1
    outer loop
      vertex 19.67 0.46 0
      vertex 40.498 5.896 0
      vertex 40.651 5.845 0
    endloop
  endfacet
  facet normal 0 0 -1
    outer loop
      vertex 19.67 0.46 0
      vertex 40.651 5.845 0
      vertex 41.235 5.236 0
    endloop
  endfacet
  facet normal 0 0 -1
    outer loop
      vertex 19.67 0.46 0
      vertex 41.235 5.236 0
      vertex 41.311 5.109 0
    endloop
  endfacet
  facet normal 0 0 -1
    outer loop
      vertex 19.67 0.46 0
      vertex 41.311 5.109 0
      vertex 41.311 0.587 0
    endloop
  endfacet
  facet normal 0 0 -1
    outer loop
      vertex 19.67 0.46 0
      vertex 41.311 0.587 0
      vertex 41.235 0.46 0
    endloop
  endfacet
  facet normal 0 0 -1
    outer loop
      vertex 19.67 0.46 0
      vertex 41.235 0.46 0
      vertex 40.651 -0.149 0
    endloop
  endfacet
  facet normal 0 0 -1
    outer loop
      vertex 19.67 0.46 0
      vertex 40.651 -0.149 0
      vertex 40.498 -0.2 0
    endloop
  endfacet
  facet normal 0 0 -1
    outer loop
      vertex 19.67 0.46 0
      vertex 40.498 -0.2 0
      vertex 20.407 -0.2 0
    endloop
  endfacet
  facet normal 0 0 -1
    outer loop
      vertex 19.67 0.46 0
      vertex 20.407 -0.2 0
      vertex 20.254 -0.149 0
    endloop
  endfacet
  facet normal -1 0 0
    outer loop
      vertex 19.594 0.587 0
      vertex 19.594 0.587 2.6
      vertex 19.594 5.109 0
    endloop
  endfacet
  facet normal -1 0 0
    outer loop
      vertex 19.594 5.109 0
      vertex 19.594 0.587 2.6
      vertex 19.594 5.109 2.6
    endloop
  endfacet
  facet normal 0 0 1
    outer loop
      vertex 19.594 5.109 2.6
      vertex 19.594 0.587 2.6
      vertex 19.67 0.46 2.6
    endloop
  endfacet
  facet normal 0 0 1
    outer loop
      vertex 20 0.689 2.6
      vertex 20 5.007 2.6
      vertex 19.594 5.109 2.6
    endloop
  endfacet
  facet normal 0 0 1
    outer loop
      vertex 20 0.689 2.6
      vertex 19.594 5.109 2.6
      vertex 19.67 0.46 2.6
    endloop
  endfacet
  facet normal 0 0 1
    outer loop
      vertex 20.483 0.206 2.6
      vertex 20.254 -0.149 2.6
      vertex 20.407 -0.2 2.6
    endloop
  endfacet
  facet normal 0 0 1
    outer loop
      vertex 40.905 0.689 2.6
      vertex 41.235 0.46 2.6
      vertex 41.311 0.587 2.6
    endloop
  endfacet
  facet normal 0 0 1
    outer loop
      vertex 40.905 0.689 2.6
      vertex 40.422 0.206 2.6
      vertex 41.235 0.46 2.6
    endloop
  endfacet
  facet normal 0 0 1
    outer loop
      vertex 40.422 5.49 2.6
      vertex 41.311 5.109 2.6
      vertex 41.235 5.236 2.6
    endloop
  endfacet
  facet normal 0 0 1
    outer loop
      vertex 25.792 5.49 2.6
      vertex 25.792 5.896 2.6
      vertex 20.483 5.49 2.6
    endloop
  endfacet
  facet normal 0 0 1
    outer loop
      vertex 40.422 0.206 2.6
      vertex 40.498 -0.2 2.6
      vertex 40.651 -0.149 2.6
    endloop
  endfacet
  facet normal 0 0 1
    outer loop
      vertex 40.651 5.845 2.6
      vertex 40.422 5.49 2.6
      vertex 41.235 5.236 2.6
    endloop
  endfacet
  facet normal 0 0 1
    outer loop
      vertex 40.651 5.845 2.6
      vertex 37.196 5.49 2.6
      vertex 40.422 5.49 2.6
    endloop
  endfacet
  facet normal 0 0 1
    outer loop
      vertex 41.311 5.109 2.6
      vertex 40.905 5.007 2.6
      vertex 41.311 0.587 2.6
    endloop
  endfacet
  facet normal 0 0 1
    outer loop
      vertex 40.905 5.007 2.6
      vertex 40.905 0.689 2.6
      vertex 41.311 0.587 2.6
    endloop
  endfacet
  facet normal 0 0 1
    outer loop
      vertex 41.235 0.46 2.6
      vertex 40.422 0.206 2.6
      vertex 40.651 -0.149 2.6
    endloop
  endfacet
  facet normal 0 0 1
    outer loop
      vertex 40.498 -0.2 2.6
      vertex 20.483 0.206 2.6
      vertex 20.407 -0.2 2.6
    endloop
  endfacet
  facet normal 0 0 1
    outer loop
      vertex 20.254 -0.149 2.6
      vertex 20 0.689 2.6
      vertex 19.67 0.46 2.6
    endloop
  endfacet
  facet normal 0 0 1
    outer loop
      vertex 20.483 0.206 2.6
      vertex 20 0.689 2.6
      vertex 20.254 -0.149 2.6
    endloop
  endfacet
  facet normal 0 0 1
    outer loop
      vertex 20.407 5.896 2.6
      vertex 19.594 5.109 2.6
      vertex 20.483 5.49 2.6
    endloop
  endfacet
  facet normal 0 0 1
    outer loop
      vertex 20.407 5.896 2.6
      vertex 20.483 5.49 2.6
      vertex 25.792 5.896 2.6
    endloop
  endfacet
  facet normal 0 0 1
    outer loop
      vertex 20.254 5.845 2.6
      vertex 19.594 5.109 2.6
      vertex 20.407 5.896 2.6
    endloop
  endfacet
  facet normal 0 0 1
    outer loop
      vertex 19.67 5.236 2.6
      vertex 19.594 5.109 2.6
      vertex 20.254 5.845 2.6
    endloop
  endfacet
  facet normal 0 0 1
    outer loop
      vertex 37.196 5.896 2.6
      vertex 40.651 5.845 2.6
      vertex 40.498 5.896 2.6
    endloop
  endfacet
  facet normal 0 0 1
    outer loop
      vertex 37.196 5.896 2.6
      vertex 37.196 5.49 2.6
      vertex 40.651 5.845 2.6
    endloop
  endfacet
  facet normal 0 0 1
    outer loop
      vertex 40.422 5.49 2.6
      vertex 40.905 5.007 2.6
      vertex 41.311 5.109 2.6
    endloop
  endfacet
  facet normal 0 0 1
    outer loop
      vertex 40.422 0.206 2.6
      vertex 20.483 0.206 2.6
      vertex 40.498 -0.2 2.6
    endloop
  endfacet
  facet normal 0 0 1
    outer loop
      vertex 20 5.007 2.6
      vertex 20.483 5.49 2.6
      vertex 19.594 5.109 2.6
    endloop
  endfacet
  facet normal -0.721766 -0.692137 0
    outer loop
      vertex 19.67 0.46 0
      vertex 20.254 -0.149 0
      vertex 19.67 0.46 2.6
    endloop
  endfacet
  facet normal -0.721766 -0.692137 0
    outer loop
      vertex 19.67 0.46 2.6
      vertex 20.254 -0.149 0
      vertex 20.254 -0.149 2.6
    endloop
  endfacet
  facet normal -0.316228 -0.948683 0
    outer loop
      vertex 20.254 -0.149 2.6
      vertex 20.254 -0.149 0
      vertex 20.407 -0.2 0
    endloop
  endfacet
  facet normal -0.316228 -0.948683 0
    outer loop
      vertex 20.407 -0.2 2.6
      vertex 20.254 -0.149 2.6
      vertex 20.407 -0.2 0
    endloop
  endfacet
  facet normal 0 -1 0
    outer loop
      vertex 20.407 -0.2 2.6
      vertex 20.407 -0.2 0
      vertex 40.498 -0.2 0
    endloop
  endfacet
  facet normal 0 -1 0
    outer loop
      vertex 40.498 -0.2 2.6
      vertex 20.407 -0.2 2.6
      vertex 40.498 -0.2 0
    endloop
  endfacet
  facet normal 0.316228 -0.948683 0
    outer loop
      vertex 40.498 -0.2 2.6
      vertex 40.498 -0.2 0
      vertex 40.651 -0.149 0
    endloop
  endfacet
  facet normal 0.316228 -0.948683 0
    outer loop
      vertex 40.651 -0.149 2.6
      vertex 40.498 -0.2 2.6
      vertex 40.651 -0.149 0
    endloop
  endfacet
  facet normal 0.721766 -0.692137 0
    outer loop
      vertex 40.651 -0.149 2.6
      vertex 40.651 -0.149 0
      vertex 41.235 0.46 0
    endloop
  endfacet
  facet normal 0.721766 -0.692137 0
    outer loop
      vertex 41.235 0.46 2.6
      vertex 40.651 -0.149 2.6
      vertex 41.235 0.46 0
    endloop
  endfacet
  facet normal 0.858089 -0.513502 0
    outer loop
      vertex 41.235 0.46 2.6
      vertex 41.235 0.46 0
      vertex 41.311 0.587 0
    endloop
  endfacet
  facet normal 0.858089 -0.513502 0
    outer loop
      vertex 41.311 0.587 2.6
      vertex 41.235 0.46 2.6
      vertex 41.311 0.587 0
    endloop
  endfacet
  facet normal 1 0 0
    outer loop
      vertex 41.311 0.587 2.6
      vertex 41.311 0.587 0
      vertex 41.311 5.109 0
    endloop
  endfacet
  facet normal 1 0 0
    outer loop
      vertex 41.311 5.109 2.6
      vertex 41.311 0.587 2.6
      vertex 41.311 5.109 0
    endloop
  endfacet
  facet normal 0.858089 0.513502 0
    outer loop
      vertex 41.311 5.109 0
      vertex 41.235 5.236 0
      vertex 41.235 5.236 2.6
    endloop
  endfacet
  facet normal 0.858089 0.513502 0
    outer loop
      vertex 41.311 5.109 2.6
      vertex 41.311 5.109 0
      vertex 41.235 5.236 2.6
    endloop
  endfacet
  facet normal 0.721766 0.692137 0
    outer loop
      vertex 41.235 5.236 0
      vertex 40.651 5.845 0
      vertex 40.651 5.845 2.6
    endloop
  endfacet
  facet normal 0.721766 0.692137 0
    outer loop
      vertex 41.235 5.236 2.6
      vertex 41.235 5.236 0
      vertex 40.651 5.845 2.6
    endloop
  endfacet
  facet normal 0.316228 0.948683 0
    outer loop
      vertex 40.498 5.896 0
      vertex 40.498 5.896 2.6
      vertex 40.651 5.845 0
    endloop
  endfacet
  facet normal 0.316228 0.948683 0
    outer loop
      vertex 40.651 5.845 0
      vertex 40.498 5.896 2.6
      vertex 40.651 5.845 2.6
    endloop
  endfacet
  facet normal 0 1 0
    outer loop
      vertex 37.196 5.896 0
      vertex 37.196 5.896 2.6
      vertex 40.498 5.896 0
    endloop
  endfacet
  facet normal 0 1 0
    outer loop
      vertex 40.498 5.896 0
      vertex 37.196 5.896 2.6
      vertex 40.498 5.896 2.6
    endloop
  endfacet
  facet normal -1 0 0
    outer loop
      vertex 37.196 5.49 1.4
      vertex 37.196 5.49 2.6
      vertex 37.196 5.69 1.4
    endloop
  endfacet
  facet normal -1 0 0
    outer loop
      vertex 37.196 5.69 1.4
      vertex 37.196 5.49 2.6
      vertex 37.196 5.896 2.6
    endloop
  endfacet
  facet normal -1 0 0
    outer loop
      vertex 37.196 5.69 1.4
      vertex 37.196 5.896 2.6
      vertex 37.196 5.896 0
    endloop
  endfacet
  facet normal -1 0 0
    outer loop
      vertex 37.196 5.69 1.4
      vertex 37.196 5.896 0
      vertex 37.196 5.69 0
    endloop
  endfacet
  facet normal 0 1 0
    outer loop
      vertex 25.792 5.69 0
      vertex 25.792 5.69 1.4
      vertex 37.196 5.69 0
    endloop
  endfacet
  facet normal 0 1 0
    outer loop
      vertex 37.196 5.69 0
      vertex 25.792 5.69 1.4
      vertex 37.196 5.69 1.4
    endloop
  endfacet
  facet normal 1 0 0
    outer loop
      vertex 25.792 5.49 2.6
      vertex 25.792 5.49 1.4
      vertex 25.792 5.69 1.4
    endloop
  endfacet
  facet normal 1 0 0
    outer loop
      vertex 25.792 5.896 2.6
      vertex 25.792 5.49 2.6
      vertex 25.792 5.69 1.4
    endloop
  endfacet
  facet normal 1 0 0
    outer loop
      vertex 25.792 5.69 0
      vertex 25.792 5.896 0
      vertex 25.792 5.69 1.4
    endloop
  endfacet
  facet normal 1 0 0
    outer loop
      vertex 25.792 5.896 0
      vertex 25.792 5.896 2.6
      vertex 25.792 5.69 1.4
    endloop
  endfacet
  facet normal 0 1 0
    outer loop
      vertex 20.407 5.896 0
      vertex 20.407 5.896 2.6
      vertex 25.792 5.896 0
    endloop
  endfacet
  facet normal 0 1 0
    outer loop
      vertex 25.792 5.896 0
      vertex 20.407 5.896 2.6
      vertex 25.792 5.896 2.6
    endloop
  endfacet
  facet normal -0.316228 0.948683 0
    outer loop
      vertex 20.254 5.845 0
      vertex 20.254 5.845 2.6
      vertex 20.407 5.896 0
    endloop
  endfacet
  facet normal -0.316228 0.948683 0
    outer loop
      vertex 20.407 5.896 0
      vertex 20.254 5.845 2.6
      vertex 20.407 5.896 2.6
    endloop
  endfacet
  facet normal -0.721766 0.692137 0
    outer loop
      vertex 19.67 5.236 0
      vertex 19.67 5.236 2.6
      vertex 20.254 5.845 0
    endloop
  endfacet
  facet normal -0.721766 0.692137 0
    outer loop
      vertex 20.254 5.845 0
      vertex 19.67 5.236 2.6
      vertex 20.254 5.845 2.6
    endloop
  endfacet
  facet normal -0.858089 0.513502 0
    outer loop
      vertex 19.594 5.109 0
      vertex 19.594 5.109 2.6
      vertex 19.67 5.236 0
    endloop
  endfacet
  facet normal -0.858089 0.513502 0
    outer loop
      vertex 19.67 5.236 0
      vertex 19.594 5.109 2.6
      vertex 19.67 5.236 2.6
    endloop
  endfacet
  facet normal 0 -1 0
    outer loop
      vertex 20.483 5.49 2.6
      vertex 20.483 5.49 1.4
      vertex 25.792 5.49 1.4
    endloop
  endfacet
  facet normal 0 -1 0
    outer loop
      vertex 25.792 5.49 2.6
      vertex 20.483 5.49 2.6
      vertex 25.792 5.49 1.4
    endloop
  endfacet
  facet normal 0.707107 -0.707107 0
    outer loop
      vertex 20 5.007 2.6
      vertex 20 5.007 1.4
      vertex 20.483 5.49 1.4
    endloop
  endfacet
  facet normal 0.707107 -0.707107 0
    outer loop
      vertex 20.483 5.49 2.6
      vertex 20 5.007 2.6
      vertex 20.483 5.49 1.4
    endloop
  endfacet
  facet normal 1 0 0
    outer loop
      vertex 20 0.689 2.6
      vertex 20 0.689 1.4
      vertex 20 5.007 1.4
    endloop
  endfacet
  facet normal 1 0 0
    outer loop
      vertex 20 5.007 2.6
      vertex 20 0.689 2.6
      vertex 20 5.007 1.4
    endloop
  endfacet
  facet normal 0.707107 0.707107 0
    outer loop
      vertex 20.483 0.206 1.4
      vertex 20 0.689 1.4
      vertex 20 0.689 2.6
    endloop
  endfacet
  facet normal 0.707107 0.707107 0
    outer loop
      vertex 20.483 0.206 2.6
      vertex 20.483 0.206 1.4
      vertex 20 0.689 2.6
    endloop
  endfacet
  facet normal 0 1 0
    outer loop
      vertex 20.483 0.206 1.4
      vertex 20.483 0.206 2.6
      vertex 40.422 0.206 1.4
    endloop
  endfacet
  facet normal 0 1 0
    outer loop
      vertex 40.422 0.206 1.4
      vertex 20.483 0.206 2.6
      vertex 40.422 0.206 2.6
    endloop
  endfacet
  facet normal -0.707107 0.707107 0
    outer loop
      vertex 40.422 0.206 1.4
      vertex 40.422 0.206 2.6
      vertex 40.905 0.689 1.4
    endloop
  endfacet
  facet normal -0.707107 0.707107 0
    outer loop
      vertex 40.905 0.689 1.4
      vertex 40.422 0.206 2.6
      vertex 40.905 0.689 2.6
    endloop
  endfacet
  facet normal -1 0 0
    outer loop
      vertex 40.905 0.689 1.4
      vertex 40.905 0.689 2.6
      vertex 40.905 5.007 1.4
    endloop
  endfacet
  facet normal -1 0 0
    outer loop
      vertex 40.905 5.007 1.4
      vertex 40.905 0.689 2.6
      vertex 40.905 5.007 2.6
    endloop
  endfacet
  facet normal -0.707107 -0.707107 0
    outer loop
      vertex 40.422 5.49 1.4
      vertex 40.905 5.007 1.4
      vertex 40.422 5.49 2.6
    endloop
  endfacet
  facet normal -0.707107 -0.707107 0
    outer loop
      vertex 40.422 5.49 2.6
      vertex 40.905 5.007 1.4
      vertex 40.905 5.007 2.6
    endloop
  endfacet
  facet normal 0 -1 0
    outer loop
      vertex 37.196 5.49 2.6
      vertex 37.196 5.49 1.4
      vertex 40.422 5.49 1.4
    endloop
  endfacet
  facet normal 0 -1 0
    outer loop
      vertex 40.422 5.49 2.6
      vertex 37.196 5.49 2.6
      vertex 40.422 5.49 1.4
    endloop
  endfacet
  facet normal 0 0 1
    outer loop
      vertex 20 5.007 1.4
      vertex 20 0.689 1.4
      vertex 20.483 0.206 1.4
    endloop
  endfacet
  facet normal 0 0 1
    outer loop
      vertex 40.905 0.689 1.4
      vertex 20 5.007 1.4
      vertex 40.422 0.206 1.4
    endloop
  endfacet
  facet normal 0 0 1
    outer loop
      vertex 40.422 0.206 1.4
      vertex 20 5.007 1.4
      vertex 20.483 0.206 1.4
    endloop
  endfacet
  facet normal 0 0 1
    outer loop
      vertex 40.905 5.007 1.4
      vertex 20 5.007 1.4
      vertex 40.905 0.689 1.4
    endloop
  endfacet
  facet normal 0 0 1
    outer loop
      vertex 40.422 5.49 1.4
      vertex 20 5.007 1.4
      vertex 40.905 5.007 1.4
    endloop
  endfacet
  facet normal 0 0 1
    outer loop
      vertex 37.196 5.49 1.4
      vertex 20 5.007 1.4
      vertex 40.422 5.49 1.4
    endloop
  endfacet
  facet normal 0 0 1
    outer loop
      vertex 37.196 5.69 1.4
      vertex 20 5.007 1.4
      vertex 37.196 5.49 1.4
    endloop
  endfacet
  facet normal 0 0 1
    outer loop
      vertex 25.792 5.49 1.4
      vertex 20 5.007 1.4
      vertex 37.196 5.69 1.4
    endloop
  endfacet
  facet normal 0 0 1
    outer loop
      vertex 25.792 5.69 1.4
      vertex 25.792 5.49 1.4
      vertex 37.196 5.69 1.4
    endloop
  endfacet
  facet normal 0 0 1
    outer loop
      vertex 25.792 5.49 1.4
      vertex 20.483 5.49 1.4
      vertex 20 5.007 1.4
    endloop
  endfacet
endsolid OpenSCAD_Model
