  0
SECTION
  2
HEADER
  9
$ACADVER
  1
AC1009
  9
$EXTMIN
 10
0.0
 20
0.0
 30
0.0
  9
$EXTMAX
 10
1000.0
 20
1000.0
 30
0.0
  9
$FILLMODE
 70
 0
  9
$SPLFRAME
 70
 1
  0
ENDSEC
  0
SECTION
  2
TABLES
  0
TABLE
  2
LAYER
 70
1
  0
LAYER
  2
0
 70
     0
 62
     7
  6
CONTINUOUS
  0
ENDTAB
  0
ENDSEC
  0
SECTION
  2
ENTITIES
  0
LINE
  8
0
 62
     160
 10
0.22054
 20
0.580078
 30
0.0
 11
0.224935
 21
0.578722
 31
0.0
  0
LINE
  8
0
 62
     160
 10
0.224935
 20
0.578722
 30
0.0
 11
0.307617
 21
0.578722
 31
0.0
  0
LINE
  8
0
 62
     160
 10
0.307617
 20
0.578722
 30
0.0
 11
0.311957
 21
0.580078
 31
0.0
  0
LINE
  8
0
 62
     160
 10
0.311957
 20
0.580078
 30
0.0
 11
0.345378
 21
0.602322
 31
0.0
  0
LINE
  8
0
 62
     160
 10
0.345378
 20
0.602322
 30
0.0
 11
1.56808
 21
0.602322
 31
0.0
  0
LINE
  8
0
 62
     160
 10
1.56808
 20
0.602322
 30
0.0
 11
1.58708
 21
0.583333
 31
0.0
  0
LINE
  8
0
 62
     160
 10
1.58708
 20
0.583333
 30
0.0
 11
1.58708
 21
0.400879
 31
0.0
  0
LINE
  8
0
 62
     160
 10
1.58708
 20
0.400879
 30
0.0
 11
1.55632
 21
0.370063
 31
0.0
  0
LINE
  8
0
 62
     160
 10
1.55632
 20
0.370063
 30
0.0
 11
1.45324
 21
0.370063
 31
0.0
  0
LINE
  8
0
 62
     160
 10
1.45324
 20
0.370063
 30
0.0
 11
1.45324
 21
0.354329
 31
0.0
  0
LINE
  8
0
 62
     160
 10
1.45324
 20
0.354329
 30
0.0
 11
1.55957
 21
0.354329
 31
0.0
  0
LINE
  8
0
 62
     160
 10
1.55957
 20
0.354329
 30
0.0
 11
1.56511
 21
0.356608
 31
0.0
  0
LINE
  8
0
 62
     160
 10
1.56511
 20
0.356608
 30
0.0
 11
1.60053
 21
0.392036
 31
0.0
  0
LINE
  8
0
 62
     160
 10
1.60053
 20
0.392036
 30
0.0
 11
1.60286
 21
0.397624
 31
0.0
  0
LINE
  8
0
 62
     160
 10
1.60286
 20
0.397624
 30
0.0
 11
1.60286
 21
0.586589
 31
0.0
  0
LINE
  8
0
 62
     160
 10
1.60286
 20
0.586589
 30
0.0
 11
1.60053
 21
0.592176
 31
0.0
  0
LINE
  8
0
 62
     160
 10
1.60053
 20
0.592176
 30
0.0
 11
1.57693
 21
0.615776
 31
0.0
  0
LINE
  8
0
 62
     160
 10
1.57693
 20
0.615776
 30
0.0
 11
1.57135
 21
0.61811
 31
0.0
  0
LINE
  8
0
 62
     160
 10
1.57135
 20
0.61811
 30
0.0
 11
0.343044
 21
0.61811
 31
0.0
  0
LINE
  8
0
 62
     160
 10
0.343044
 20
0.61811
 30
0.0
 11
0.33865
 21
0.616753
 31
0.0
  0
LINE
  8
0
 62
     160
 10
0.33865
 20
0.616753
 30
0.0
 11
0.305176
 21
0.594456
 31
0.0
  0
LINE
  8
0
 62
     160
 10
0.305176
 20
0.594456
 30
0.0
 11
0.227268
 21
0.594456
 31
0.0
  0
LINE
  8
0
 62
     160
 10
0.227268
 20
0.594456
 30
0.0
 11
0.193847
 21
0.616753
 31
0.0
  0
LINE
  8
0
 62
     160
 10
0.193847
 20
0.616753
 30
0.0
 11
0.188965
 21
0.618056
 31
0.0
  0
LINE
  8
0
 62
     160
 10
0.188965
 20
0.618056
 30
0.0
 11
0
 21
0.606282
 31
0.0
  0
LINE
  8
0
 62
     160
 10
0
 20
0.606282
 30
0.0
 11
0.000976563
 21
0.590549
 31
0.0
  0
LINE
  8
0
 62
     160
 10
0.000976563
 20
0.590549
 30
0.0
 11
0.187338
 21
0.602214
 31
0.0
  0
LINE
  8
0
 62
     160
 10
0.187338
 20
0.602214
 30
0.0
 11
0.22054
 21
0.580078
 31
0.0
  0
LINE
  8
0
 62
     160
 10
1.00423
 20
0.370063
 30
0.0
 11
0.510633
 21
0.35829
 31
0.0
  0
LINE
  8
0
 62
     160
 10
0.510633
 20
0.35829
 30
0.0
 11
0.477268
 21
0.380533
 31
0.0
  0
LINE
  8
0
 62
     160
 10
0.477268
 20
0.380533
 30
0.0
 11
0.472928
 21
0.38189
 31
0.0
  0
LINE
  8
0
 62
     160
 10
0.472928
 20
0.38189
 30
0.0
 11
0.366644
 21
0.38189
 31
0.0
  0
LINE
  8
0
 62
     160
 10
0.366644
 20
0.38189
 30
0.0
 11
0.362576
 21
0.380751
 31
0.0
  0
LINE
  8
0
 62
     160
 10
0.362576
 20
0.380751
 30
0.0
 11
0.305718
 21
0.346625
 31
0.0
  0
LINE
  8
0
 62
     160
 10
0.305718
 20
0.346625
 30
0.0
 11
0.0247396
 21
0.370063
 31
0.0
  0
LINE
  8
0
 62
     160
 10
0.0247396
 20
0.370063
 30
0.0
 11
0.0234375
 21
0.354329
 31
0.0
  0
LINE
  8
0
 62
     160
 10
0.0234375
 20
0.354329
 30
0.0
 11
0.306913
 21
0.330729
 31
0.0
  0
LINE
  8
0
 62
     160
 10
0.306913
 20
0.330729
 30
0.0
 11
0.307617
 21
0.330675
 31
0.0
  0
LINE
  8
0
 62
     160
 10
0.307617
 20
0.330675
 30
0.0
 11
0.311632
 21
0.331814
 31
0.0
  0
LINE
  8
0
 62
     160
 10
0.311632
 20
0.331814
 30
0.0
 11
0.368815
 21
0.366103
 31
0.0
  0
LINE
  8
0
 62
     160
 10
0.368815
 20
0.366103
 30
0.0
 11
0.47054
 21
0.366103
 31
0.0
  0
LINE
  8
0
 62
     160
 10
0.47054
 20
0.366103
 30
0.0
 11
0.503961
 21
0.343858
 31
0.0
  0
LINE
  8
0
 62
     160
 10
0.503961
 20
0.343858
 30
0.0
 11
0.508518
 21
0.342503
 31
0.0
  0
LINE
  8
0
 62
     160
 10
0.508518
 20
0.342503
 30
0.0
 11
1.00461
 21
0.354329
 31
0.0
  0
LINE
  8
0
 62
     160
 10
1.00461
 20
0.354329
 30
0.0
 11
1.00423
 21
0.370063
 31
0.0
  0
LINE
  8
0
 62
     160
 10
1.61469
 20
0.208658
 30
0.0
 11
1.61469
 21
0.0314669
 31
0.0
  0
LINE
  8
0
 62
     160
 10
1.61469
 20
0.0314669
 30
0.0
 11
1.61236
 21
0.0259332
 31
0.0
  0
LINE
  8
0
 62
     160
 10
1.61236
 20
0.0259332
 30
0.0
 11
1.58876
 21
0.00227864
 31
0.0
  0
LINE
  8
0
 62
     160
 10
1.58876
 20
0.00227864
 30
0.0
 11
1.58317
 21
-0
 31
0.0
  0
LINE
  8
0
 62
     160
 10
1.58317
 20
-0
 30
0.0
 11
0.791829
 21
-0
 31
0.0
  0
LINE
  8
0
 62
     160
 10
0.791829
 20
-0
 30
0.0
 11
0.786242
 21
0.00227864
 31
0.0
  0
LINE
  8
0
 62
     160
 10
0.786242
 20
0.00227864
 30
0.0
 11
0.762642
 21
0.0259332
 31
0.0
  0
LINE
  8
0
 62
     160
 10
0.762642
 20
0.0259332
 30
0.0
 11
0.760308
 21
0.0314669
 31
0.0
  0
LINE
  8
0
 62
     160
 10
0.760308
 20
0.0314669
 30
0.0
 11
0.760308
 21
0.208658
 31
0.0
  0
LINE
  8
0
 62
     160
 10
0.760308
 20
0.208658
 30
0.0
 11
0.762642
 21
0.214193
 31
0.0
  0
LINE
  8
0
 62
     160
 10
0.762642
 20
0.214193
 30
0.0
 11
0.786242
 21
0.237847
 31
0.0
  0
LINE
  8
0
 62
     160
 10
0.786242
 20
0.237847
 30
0.0
 11
0.791829
 21
0.240126
 31
0.0
  0
LINE
  8
0
 62
     160
 10
0.791829
 20
0.240126
 30
0.0
 11
1.00445
 21
0.240126
 31
0.0
  0
LINE
  8
0
 62
     160
 10
1.00445
 20
0.240126
 30
0.0
 11
1.00445
 21
0.224392
 31
0.0
  0
LINE
  8
0
 62
     160
 10
1.00445
 20
0.224392
 30
0.0
 11
0.795085
 21
0.224392
 31
0.0
  0
LINE
  8
0
 62
     160
 10
0.795085
 20
0.224392
 30
0.0
 11
0.776096
 21
0.205404
 31
0.0
  0
LINE
  8
0
 62
     160
 10
0.776096
 20
0.205404
 30
0.0
 11
0.776096
 21
0.0347222
 31
0.0
  0
LINE
  8
0
 62
     160
 10
0.776096
 20
0.0347222
 30
0.0
 11
0.795085
 21
0.0157335
 31
0.0
  0
LINE
  8
0
 62
     160
 10
0.795085
 20
0.0157335
 30
0.0
 11
1.57992
 21
0.0157335
 31
0.0
  0
LINE
  8
0
 62
     160
 10
1.57992
 20
0.0157335
 30
0.0
 11
1.5989
 21
0.0347222
 31
0.0
  0
LINE
  8
0
 62
     160
 10
1.5989
 20
0.0347222
 30
0.0
 11
1.5989
 21
0.205404
 31
0.0
  0
LINE
  8
0
 62
     160
 10
1.5989
 20
0.205404
 30
0.0
 11
1.57992
 21
0.224392
 31
0.0
  0
LINE
  8
0
 62
     160
 10
1.57992
 20
0.224392
 30
0.0
 11
1.45324
 21
0.224392
 31
0.0
  0
LINE
  8
0
 62
     160
 10
1.45324
 20
0.224392
 30
0.0
 11
1.45324
 21
0.240126
 31
0.0
  0
LINE
  8
0
 62
     160
 10
1.45324
 20
0.240126
 30
0.0
 11
1.58317
 21
0.240126
 31
0.0
  0
LINE
  8
0
 62
     160
 10
1.58317
 20
0.240126
 30
0.0
 11
1.58876
 21
0.237847
 31
0.0
  0
LINE
  8
0
 62
     160
 10
1.58876
 20
0.237847
 30
0.0
 11
1.61236
 21
0.214193
 31
0.0
  0
LINE
  8
0
 62
     160
 10
1.61236
 20
0.214193
 30
0.0
 11
1.61469
 21
0.208658
 31
0.0
  0
ENDSEC
  0
EOF
