solid OpenSCAD_Model
  facet normal -1 0 0
    outer loop
      vertex 0 11.1 1.4
      vertex 0 11.7 0
      vertex 0 0.6 1.4
    endloop
  endfacet
  facet normal -1 0 0
    outer loop
      vertex 0 0 0
      vertex 0 0 2.6
      vertex 0 0.6 1.4
    endloop
  endfacet
  facet normal -1 0 0
    outer loop
      vertex 0 0 0
      vertex 0 0.6 1.4
      vertex 0 11.7 0
    endloop
  endfacet
  facet normal -1 0 0
    outer loop
      vertex 0 11.7 0
      vertex 0 11.1 1.4
      vertex 0 11.1 2.6
    endloop
  endfacet
  facet normal -1 0 0
    outer loop
      vertex 0 11.7 0
      vertex 0 11.1 2.6
      vertex 0 11.7 2.6
    endloop
  endfacet
  facet normal -1 0 0
    outer loop
      vertex 0 0.6 1.4
      vertex 0 0 2.6
      vertex 0 0.6 2.6
    endloop
  endfacet
  facet normal 0 -1 0
    outer loop
      vertex 0 0 2.6
      vertex 0 0 0
      vertex 17.1 0 3.015
    endloop
  endfacet
  facet normal 0 -1 0
    outer loop
      vertex 17.1 0 5.615
      vertex 0 0 2.6
      vertex 17.1 0 3.015
    endloop
  endfacet
  facet normal 0.173637 0 -0.98481
    outer loop
      vertex 0 0 0
      vertex 0 11.7 0
      vertex 17.1 0 3.015
    endloop
  endfacet
  facet normal 0.173637 0 -0.98481
    outer loop
      vertex 17.1 0 3.015
      vertex 0 11.7 0
      vertex 17.1 11.7 3.015
    endloop
  endfacet
  facet normal 0 1 0
    outer loop
      vertex 0 11.7 0
      vertex 0 11.7 2.6
      vertex 17.1 11.7 3.015
    endloop
  endfacet
  facet normal 0 1 0
    outer loop
      vertex 17.1 11.7 3.015
      vertex 0 11.7 2.6
      vertex 17.1 11.7 5.615
    endloop
  endfacet
  facet normal -0.173637 0 0.98481
    outer loop
      vertex 0 11.7 2.6
      vertex 0 11.1 2.6
      vertex 17.1 11.1 5.615
    endloop
  endfacet
  facet normal -0.173637 0 0.98481
    outer loop
      vertex 17.1 11.7 5.615
      vertex 0 11.7 2.6
      vertex 17.1 11.1 5.615
    endloop
  endfacet
  facet normal 0 -1 0
    outer loop
      vertex 0 11.1 2.6
      vertex 0 11.1 1.4
      vertex 17.1 11.1 4.415
    endloop
  endfacet
  facet normal 0 -1 0
    outer loop
      vertex 17.1 11.1 5.615
      vertex 0 11.1 2.6
      vertex 17.1 11.1 4.415
    endloop
  endfacet
  facet normal -0.173637 0 0.98481
    outer loop
      vertex 0 11.1 1.4
      vertex 0 0.6 1.4
      vertex 17.1 0.6 4.415
    endloop
  endfacet
  facet normal -0.173637 0 0.98481
    outer loop
      vertex 17.1 6.85 4.415
      vertex 0 11.1 1.4
      vertex 17.1 4.85 4.415
    endloop
  endfacet
  facet normal -0.173637 0 0.98481
    outer loop
      vertex 17.1 4.85 4.415
      vertex 0 11.1 1.4
      vertex 17.1 0.6 4.415
    endloop
  endfacet
  facet normal -0.173637 0 0.98481
    outer loop
      vertex 17.1 11.1 4.415
      vertex 0 11.1 1.4
      vertex 17.1 6.85 4.415
    endloop
  endfacet
  facet normal 0 1 0
    outer loop
      vertex 0 0.6 1.4
      vertex 0 0.6 2.6
      vertex 17.1 0.6 4.415
    endloop
  endfacet
  facet normal 0 1 0
    outer loop
      vertex 17.1 0.6 4.415
      vertex 0 0.6 2.6
      vertex 17.1 0.6 5.615
    endloop
  endfacet
  facet normal -0.173637 0 0.98481
    outer loop
      vertex 0 0.6 2.6
      vertex 0 0 2.6
      vertex 17.1 0 5.615
    endloop
  endfacet
  facet normal -0.173637 0 0.98481
    outer loop
      vertex 17.1 0.6 5.615
      vertex 0 0.6 2.6
      vertex 17.1 0 5.615
    endloop
  endfacet
  facet normal 1 0 0
    outer loop
      vertex 17.1 6.85 3.015
      vertex 17.1 0 3.015
      vertex 17.1 11.7 3.015
    endloop
  endfacet
  facet normal 1 0 0
    outer loop
      vertex 17.1 11.7 5.615
      vertex 17.1 11.1 5.615
      vertex 17.1 11.7 3.015
    endloop
  endfacet
  facet normal 1 0 0
    outer loop
      vertex 17.1 11.1 5.615
      vertex 17.1 11.1 4.415
      vertex 17.1 11.7 3.015
    endloop
  endfacet
  facet normal 1 0 0
    outer loop
      vertex 17.1 11.1 4.415
      vertex 17.1 6.85 4.415
      vertex 17.1 11.7 3.015
    endloop
  endfacet
  facet normal 1 0 0
    outer loop
      vertex 17.1 4.85 3.015
      vertex 17.1 0 3.015
      vertex 17.1 6.85 3.015
    endloop
  endfacet
  facet normal 1 0 0
    outer loop
      vertex 17.1 4.85 4.415
      vertex 17.1 0.6 4.415
      vertex 17.1 4.85 3.015
    endloop
  endfacet
  facet normal 1 0 0
    outer loop
      vertex 17.1 0.6 4.415
      vertex 17.1 0 3.015
      vertex 17.1 4.85 3.015
    endloop
  endfacet
  facet normal 1 0 0
    outer loop
      vertex 17.1 0 5.615
      vertex 17.1 0 3.015
      vertex 17.1 0.6 4.415
    endloop
  endfacet
  facet normal 1 0 0
    outer loop
      vertex 17.1 6.85 4.415
      vertex 17.1 6.85 3.015
      vertex 17.1 11.7 3.015
    endloop
  endfacet
  facet normal 1 0 0
    outer loop
      vertex 17.1 0.6 4.415
      vertex 17.1 0.6 5.615
      vertex 17.1 0 5.615
    endloop
  endfacet
  facet normal 0 1 0
    outer loop
      vertex 17.1 6.85 3.015
      vertex 17.1 6.85 4.415
      vertex 19.9988 6.85 3.015
    endloop
  endfacet
  facet normal 0 1 0
    outer loop
      vertex 19.9988 6.85 3.015
      vertex 17.1 6.85 4.415
      vertex 19.9988 6.85 4.415
    endloop
  endfacet
  facet normal 0 -1 0
    outer loop
      vertex 17.1 4.85 4.415
      vertex 17.1 4.85 3.015
      vertex 19.9988 4.85 3.015
    endloop
  endfacet
  facet normal 0 -1 0
    outer loop
      vertex 19.9988 4.85 4.415
      vertex 17.1 4.85 4.415
      vertex 19.9988 4.85 3.015
    endloop
  endfacet
  facet normal 0 0 -1
    outer loop
      vertex 17.1 4.85 3.015
      vertex 17.1 6.85 3.015
      vertex 19.9988 4.85 3.015
    endloop
  endfacet
  facet normal 0 0 -1
    outer loop
      vertex 19.9988 4.85 3.015
      vertex 17.1 6.85 3.015
      vertex 19.9988 6.85 3.015
    endloop
  endfacet
  facet normal 0 0 -1
    outer loop
      vertex 19.9988 4.85 3.015
      vertex 19.9988 6.85 3.015
      vertex 20.0393 6.91066 3.015
    endloop
  endfacet
  facet normal 0 0 -1
    outer loop
      vertex 19.9988 4.85 3.015
      vertex 20.0393 6.91066 3.015
      vertex 20.526 7.23582 3.015
    endloop
  endfacet
  facet normal 0 0 -1
    outer loop
      vertex 19.9988 4.85 3.015
      vertex 20.526 7.23582 3.015
      vertex 21.1 7.35 3.015
    endloop
  endfacet
  facet normal 0 0 -1
    outer loop
      vertex 19.9988 4.85 3.015
      vertex 21.1 7.35 3.015
      vertex 21.674 7.23582 3.015
    endloop
  endfacet
  facet normal 0 0 -1
    outer loop
      vertex 19.9988 4.85 3.015
      vertex 21.674 7.23582 3.015
      vertex 22.1607 6.91066 3.015
    endloop
  endfacet
  facet normal 0 0 -1
    outer loop
      vertex 19.9988 4.85 3.015
      vertex 22.1607 6.91066 3.015
      vertex 22.4858 6.42403 3.015
    endloop
  endfacet
  facet normal 0 0 -1
    outer loop
      vertex 19.9988 4.85 3.015
      vertex 22.4858 6.42403 3.015
      vertex 22.6 5.85 3.015
    endloop
  endfacet
  facet normal 0 0 -1
    outer loop
      vertex 19.9988 4.85 3.015
      vertex 22.6 5.85 3.015
      vertex 22.4858 5.27597 3.015
    endloop
  endfacet
  facet normal 0 0 -1
    outer loop
      vertex 19.9988 4.85 3.015
      vertex 22.4858 5.27597 3.015
      vertex 22.1607 4.78934 3.015
    endloop
  endfacet
  facet normal 0 0 -1
    outer loop
      vertex 20.0393 4.78934 3.015
      vertex 21.674 4.46418 3.015
      vertex 20.526 4.46418 3.015
    endloop
  endfacet
  facet normal 0 0 -1
    outer loop
      vertex 21.674 4.46418 3.015
      vertex 21.1 4.35 3.015
      vertex 20.526 4.46418 3.015
    endloop
  endfacet
  facet normal 0 0 -1
    outer loop
      vertex 22.1607 4.78934 3.015
      vertex 21.674 4.46418 3.015
      vertex 20.0393 4.78934 3.015
    endloop
  endfacet
  facet normal 0 0 -1
    outer loop
      vertex 19.9988 4.85 3.015
      vertex 22.1607 4.78934 3.015
      vertex 20.0393 4.78934 3.015
    endloop
  endfacet
  facet normal 0 0 1
    outer loop
      vertex 20.0393 4.78934 4.415
      vertex 20.526 4.46418 4.415
      vertex 19.9988 4.85 4.415
    endloop
  endfacet
  facet normal 0 0 1
    outer loop
      vertex 17.1 6.85 4.415
      vertex 17.1 4.85 4.415
      vertex 19.9988 4.85 4.415
    endloop
  endfacet
  facet normal 0 0 1
    outer loop
      vertex 21.1 4.35 4.415
      vertex 17.1 6.85 4.415
      vertex 19.9988 4.85 4.415
    endloop
  endfacet
  facet normal 0 0 1
    outer loop
      vertex 20.526 4.46418 4.415
      vertex 21.1 4.35 4.415
      vertex 19.9988 4.85 4.415
    endloop
  endfacet
  facet normal 0 0 1
    outer loop
      vertex 21.1 4.35 4.415
      vertex 21.674 4.46418 4.415
      vertex 17.1 6.85 4.415
    endloop
  endfacet
  facet normal 0 0 1
    outer loop
      vertex 21.674 4.46418 4.415
      vertex 22.1607 4.78934 4.415
      vertex 17.1 6.85 4.415
    endloop
  endfacet
  facet normal 0 0 1
    outer loop
      vertex 22.1607 4.78934 4.415
      vertex 22.4858 5.27597 4.415
      vertex 17.1 6.85 4.415
    endloop
  endfacet
  facet normal 0 0 1
    outer loop
      vertex 22.4858 5.27597 4.415
      vertex 22.6 5.85 4.415
      vertex 17.1 6.85 4.415
    endloop
  endfacet
  facet normal 0 0 1
    outer loop
      vertex 22.6 5.85 4.415
      vertex 22.4858 6.42403 4.415
      vertex 17.1 6.85 4.415
    endloop
  endfacet
  facet normal 0 0 1
    outer loop
      vertex 20.0393 6.91066 4.415
      vertex 19.9988 6.85 4.415
      vertex 22.1607 6.91066 4.415
    endloop
  endfacet
  facet normal 0 0 1
    outer loop
      vertex 21.674 7.23582 4.415
      vertex 21.1 7.35 4.415
      vertex 20.526 7.23582 4.415
    endloop
  endfacet
  facet normal 0 0 1
    outer loop
      vertex 22.1607 6.91066 4.415
      vertex 21.674 7.23582 4.415
      vertex 20.0393 6.91066 4.415
    endloop
  endfacet
  facet normal 0 0 1
    outer loop
      vertex 22.4858 6.42403 4.415
      vertex 19.9988 6.85 4.415
      vertex 17.1 6.85 4.415
    endloop
  endfacet
  facet normal 0 0 1
    outer loop
      vertex 22.4858 6.42403 4.415
      vertex 22.1607 6.91066 4.415
      vertex 19.9988 6.85 4.415
    endloop
  endfacet
  facet normal 0 0 1
    outer loop
      vertex 20.526 7.23582 4.415
      vertex 20.0393 6.91066 4.415
      vertex 21.674 7.23582 4.415
    endloop
  endfacet
  facet normal -0.83147 0.55557 0
    outer loop
      vertex 19.9988 6.85 3.015
      vertex 19.9988 6.85 4.415
      vertex 20.0393 6.91066 3.015
    endloop
  endfacet
  facet normal -0.83147 0.55557 0
    outer loop
      vertex 20.0393 6.91066 3.015
      vertex 19.9988 6.85 4.415
      vertex 20.0393 6.91066 4.415
    endloop
  endfacet
  facet normal -0.83147 -0.55557 0
    outer loop
      vertex 19.9988 4.85 3.015
      vertex 20.0393 4.78934 3.015
      vertex 19.9988 4.85 4.415
    endloop
  endfacet
  facet normal -0.83147 -0.55557 0
    outer loop
      vertex 19.9988 4.85 4.415
      vertex 20.0393 4.78934 3.015
      vertex 20.0393 4.78934 4.415
    endloop
  endfacet
  facet normal -0.55557 -0.83147 0
    outer loop
      vertex 20.0393 4.78934 4.415
      vertex 20.0393 4.78934 3.015
      vertex 20.526 4.46418 3.015
    endloop
  endfacet
  facet normal -0.55557 -0.83147 0
    outer loop
      vertex 20.526 4.46418 4.415
      vertex 20.0393 4.78934 4.415
      vertex 20.526 4.46418 3.015
    endloop
  endfacet
  facet normal -0.19509 -0.980785 0
    outer loop
      vertex 20.526 4.46418 4.415
      vertex 20.526 4.46418 3.015
      vertex 21.1 4.35 3.015
    endloop
  endfacet
  facet normal -0.19509 -0.980785 0
    outer loop
      vertex 21.1 4.35 4.415
      vertex 20.526 4.46418 4.415
      vertex 21.1 4.35 3.015
    endloop
  endfacet
  facet normal 0.19509 -0.980785 0
    outer loop
      vertex 21.1 4.35 4.415
      vertex 21.1 4.35 3.015
      vertex 21.674 4.46418 3.015
    endloop
  endfacet
  facet normal 0.19509 -0.980785 0
    outer loop
      vertex 21.674 4.46418 4.415
      vertex 21.1 4.35 4.415
      vertex 21.674 4.46418 3.015
    endloop
  endfacet
  facet normal 0.55557 -0.83147 0
    outer loop
      vertex 21.674 4.46418 4.415
      vertex 21.674 4.46418 3.015
      vertex 22.1607 4.78934 3.015
    endloop
  endfacet
  facet normal 0.55557 -0.83147 0
    outer loop
      vertex 22.1607 4.78934 4.415
      vertex 21.674 4.46418 4.415
      vertex 22.1607 4.78934 3.015
    endloop
  endfacet
  facet normal 0.83147 -0.55557 0
    outer loop
      vertex 22.1607 4.78934 4.415
      vertex 22.1607 4.78934 3.015
      vertex 22.4858 5.27597 3.015
    endloop
  endfacet
  facet normal 0.83147 -0.55557 0
    outer loop
      vertex 22.4858 5.27597 4.415
      vertex 22.1607 4.78934 4.415
      vertex 22.4858 5.27597 3.015
    endloop
  endfacet
  facet normal 0.980785 -0.19509 0
    outer loop
      vertex 22.4858 5.27597 4.415
      vertex 22.4858 5.27597 3.015
      vertex 22.6 5.85 3.015
    endloop
  endfacet
  facet normal 0.980785 -0.19509 0
    outer loop
      vertex 22.6 5.85 4.415
      vertex 22.4858 5.27597 4.415
      vertex 22.6 5.85 3.015
    endloop
  endfacet
  facet normal 0.980785 0.19509 0
    outer loop
      vertex 22.6 5.85 3.015
      vertex 22.4858 6.42403 3.015
      vertex 22.4858 6.42403 4.415
    endloop
  endfacet
  facet normal 0.980785 0.19509 0
    outer loop
      vertex 22.6 5.85 4.415
      vertex 22.6 5.85 3.015
      vertex 22.4858 6.42403 4.415
    endloop
  endfacet
  facet normal 0.83147 0.55557 0
    outer loop
      vertex 22.4858 6.42403 3.015
      vertex 22.1607 6.91066 3.015
      vertex 22.1607 6.91066 4.415
    endloop
  endfacet
  facet normal 0.83147 0.55557 0
    outer loop
      vertex 22.4858 6.42403 4.415
      vertex 22.4858 6.42403 3.015
      vertex 22.1607 6.91066 4.415
    endloop
  endfacet
  facet normal 0.55557 0.83147 0
    outer loop
      vertex 21.674 7.23582 3.015
      vertex 21.674 7.23582 4.415
      vertex 22.1607 6.91066 3.015
    endloop
  endfacet
  facet normal 0.55557 0.83147 0
    outer loop
      vertex 22.1607 6.91066 3.015
      vertex 21.674 7.23582 4.415
      vertex 22.1607 6.91066 4.415
    endloop
  endfacet
  facet normal 0.19509 0.980785 0
    outer loop
      vertex 21.1 7.35 3.015
      vertex 21.1 7.35 4.415
      vertex 21.674 7.23582 3.015
    endloop
  endfacet
  facet normal 0.19509 0.980785 0
    outer loop
      vertex 21.674 7.23582 3.015
      vertex 21.1 7.35 4.415
      vertex 21.674 7.23582 4.415
    endloop
  endfacet
  facet normal -0.19509 0.980785 0
    outer loop
      vertex 20.526 7.23582 3.015
      vertex 20.526 7.23582 4.415
      vertex 21.1 7.35 3.015
    endloop
  endfacet
  facet normal -0.19509 0.980785 0
    outer loop
      vertex 21.1 7.35 3.015
      vertex 20.526 7.23582 4.415
      vertex 21.1 7.35 4.415
    endloop
  endfacet
  facet normal -0.55557 0.83147 0
    outer loop
      vertex 20.0393 6.91066 3.015
      vertex 20.0393 6.91066 4.415
      vertex 20.526 7.23582 3.015
    endloop
  endfacet
  facet normal -0.55557 0.83147 0
    outer loop
      vertex 20.526 7.23582 3.015
      vertex 20.0393 6.91066 4.415
      vertex 20.526 7.23582 4.415
    endloop
  endfacet
endsolid OpenSCAD_Model
