  0
SECTION
  2
HEADER
  9
$ACADVER
  1
AC1009
  9
$EXTMIN
 10
0.0
 20
0.0
 30
0.0
  9
$EXTMAX
 10
1000.0
 20
1000.0
 30
0.0
  9
$FILLMODE
 70
 0
  9
$SPLFRAME
 70
 1
  0
ENDSEC
  0
SECTION
  2
TABLES
  0
TABLE
  2
LAYER
 70
1
  0
LAYER
  2
0
 70
     0
 62
     7
  6
CONTINUOUS
  0
ENDTAB
  0
ENDSEC
  0
SECTION
  2
ENTITIES
  0
LINE
  8
0
 62
     4
 10
4.19293
 20
0.531467
 30
0.0
 11
4.05122
 21
0.531467
 31
0.0
  0
LINE
  8
0
 62
     4
 10
4.05122
 20
0.531467
 30
0.0
 11
4.01574
 21
0.519694
 31
0.0
  0
LINE
  8
0
 62
     4
 10
4.01574
 20
0.519694
 30
0.0
 11
3.98031
 21
0.472439
 31
0.0
  0
LINE
  8
0
 62
     4
 10
3.98031
 20
0.472439
 30
0.0
 11
3.93306
 21
0.484267
 31
0.0
  0
LINE
  8
0
 62
     4
 10
3.93306
 20
0.484267
 30
0.0
 11
3.85042
 21
0.543294
 31
0.0
  0
LINE
  8
0
 62
     4
 10
3.85042
 20
0.543294
 30
0.0
 11
3.72049
 21
0.543294
 31
0.0
  0
LINE
  8
0
 62
     4
 10
3.72049
 20
0.543294
 30
0.0
 11
3.64963
 21
0.472439
 31
0.0
  0
LINE
  8
0
 62
     4
 10
3.64963
 20
0.472439
 30
0.0
 11
3.61421
 21
0.472439
 31
0.0
  0
LINE
  8
0
 62
     4
 10
3.61421
 20
0.472439
 30
0.0
 11
3.56694
 21
0.519694
 31
0.0
  0
LINE
  8
0
 62
     4
 10
3.56694
 20
0.519694
 30
0.0
 11
3.38975
 21
0.519694
 31
0.0
  0
LINE
  8
0
 62
     4
 10
3.38975
 20
0.519694
 30
0.0
 11
3.35433
 21
0.543294
 31
0.0
  0
LINE
  8
0
 62
     4
 10
3.35433
 20
0.543294
 30
0.0
 11
3.22439
 21
0.543294
 31
0.0
  0
LINE
  8
0
 62
     4
 10
3.22439
 20
0.543294
 30
0.0
 11
3.17719
 21
0.507867
 31
0.0
  0
LINE
  8
0
 62
     4
 10
3.17719
 20
0.507867
 30
0.0
 11
3.12993
 21
0.507867
 31
0.0
  0
LINE
  8
0
 62
     4
 10
3.12993
 20
0.507867
 30
0.0
 11
3.08268
 21
0.555122
 31
0.0
  0
LINE
  8
0
 62
     4
 10
3.08268
 20
0.555122
 30
0.0
 11
2.96457
 21
0.555122
 31
0.0
  0
LINE
  8
0
 62
     4
 10
2.96457
 20
0.555122
 30
0.0
 11
2.90549
 21
0.519694
 31
0.0
  0
LINE
  8
0
 62
     4
 10
2.90549
 20
0.519694
 30
0.0
 11
2.85829
 21
0.543294
 31
0.0
  0
LINE
  8
0
 62
     4
 10
2.85829
 20
0.543294
 30
0.0
 11
2.74018
 21
0.543294
 31
0.0
  0
LINE
  8
0
 62
     4
 10
2.74018
 20
0.543294
 30
0.0
 11
2.6811
 21
0.484267
 31
0.0
  0
LINE
  8
0
 62
     4
 10
2.6811
 20
0.484267
 30
0.0
 11
2.59842
 21
0.472439
 31
0.0
  0
LINE
  8
0
 62
     4
 10
2.59842
 20
0.472439
 30
0.0
 11
2.56299
 21
0.496039
 31
0.0
  0
LINE
  8
0
 62
     4
 10
2.56299
 20
0.496039
 30
0.0
 11
2.44488
 21
0.496039
 31
0.0
  0
LINE
  8
0
 62
     4
 10
2.44488
 20
0.496039
 30
0.0
 11
2.35042
 21
0.543294
 31
0.0
  0
LINE
  8
0
 62
     4
 10
2.35042
 20
0.543294
 30
0.0
 11
2.23232
 21
0.543294
 31
0.0
  0
LINE
  8
0
 62
     4
 10
2.23232
 20
0.543294
 30
0.0
 11
2.13781
 21
0.472439
 31
0.0
  0
LINE
  8
0
 62
     4
 10
2.13781
 20
0.472439
 30
0.0
 11
2.05512
 21
0.472439
 31
0.0
  0
LINE
  8
0
 62
     4
 10
2.05512
 20
0.472439
 30
0.0
 11
1.9961
 21
0.543294
 31
0.0
  0
LINE
  8
0
 62
     4
 10
1.9961
 20
0.543294
 30
0.0
 11
1.78347
 21
0.543294
 31
0.0
  0
LINE
  8
0
 62
     4
 10
1.78347
 20
0.543294
 30
0.0
 11
1.75987
 21
0.519694
 31
0.0
  0
LINE
  8
0
 62
     4
 10
1.75987
 20
0.519694
 30
0.0
 11
1.75987
 21
0.472439
 31
0.0
  0
LINE
  8
0
 62
     4
 10
1.75987
 20
0.472439
 30
0.0
 11
1.73622
 21
0.460613
 31
0.0
  0
LINE
  8
0
 62
     4
 10
1.73622
 20
0.460613
 30
0.0
 11
1.66536
 21
0.543294
 31
0.0
  0
LINE
  8
0
 62
     4
 10
1.66536
 20
0.543294
 30
0.0
 11
1.46457
 21
0.555122
 31
0.0
  0
LINE
  8
0
 62
     4
 10
1.46457
 20
0.555122
 30
0.0
 11
1.51183
 21
0.602376
 31
0.0
  0
LINE
  8
0
 62
     4
 10
1.51183
 20
0.602376
 30
0.0
 11
1.51183
 21
0.744086
 31
0.0
  0
LINE
  8
0
 62
     4
 10
1.51183
 20
0.744086
 30
0.0
 11
1.4764
 21
0.803114
 31
0.0
  0
LINE
  8
0
 62
     4
 10
1.4764
 20
0.803114
 30
0.0
 11
0.838596
 21
0.803114
 31
0.0
  0
LINE
  8
0
 62
     4
 10
0.838596
 20
0.803114
 30
0.0
 11
0.803168
 21
0.779514
 31
0.0
  0
LINE
  8
0
 62
     4
 10
0.803168
 20
0.779514
 30
0.0
 11
0.720486
 21
0.779514
 31
0.0
  0
LINE
  8
0
 62
     4
 10
0.720486
 20
0.779514
 30
0.0
 11
0.685058
 21
0.803114
 31
0.0
  0
LINE
  8
0
 62
     4
 10
0.685058
 20
0.803114
 30
0.0
 11
0.507867
 21
0.803114
 31
0.0
  0
LINE
  8
0
 62
     4
 10
0.507867
 20
0.803114
 30
0.0
 11
0.484267
 21
0.779514
 31
0.0
  0
LINE
  8
0
 62
     4
 10
0.484267
 20
0.779514
 30
0.0
 11
0.448839
 21
0.803114
 31
0.0
  0
LINE
  8
0
 62
     4
 10
0.448839
 20
0.803114
 30
0.0
 11
0.0236003
 21
0.803114
 31
0.0
  0
LINE
  8
0
 62
     4
 10
0.0236003
 20
0.803114
 30
0.0
 11
0
 21
0.779514
 31
0.0
  0
LINE
  8
0
 62
     4
 10
0
 20
0.779514
 30
0.0
 11
0
 21
0.590549
 31
0.0
  0
LINE
  8
0
 62
     4
 10
0
 20
0.590549
 30
0.0
 11
0.0236003
 21
0.566894
 31
0.0
  0
LINE
  8
0
 62
     4
 10
0.0236003
 20
0.566894
 30
0.0
 11
0.425185
 21
0.566894
 31
0.0
  0
LINE
  8
0
 62
     4
 10
0.425185
 20
0.566894
 30
0.0
 11
0.472439
 21
0.661404
 31
0.0
  0
LINE
  8
0
 62
     4
 10
0.472439
 20
0.661404
 30
0.0
 11
0.484267
 21
0.590549
 31
0.0
  0
LINE
  8
0
 62
     4
 10
0.484267
 20
0.590549
 30
0.0
 11
0.519694
 21
0.555122
 31
0.0
  0
LINE
  8
0
 62
     4
 10
0.519694
 20
0.555122
 30
0.0
 11
0.507867
 21
0.531467
 31
0.0
  0
LINE
  8
0
 62
     4
 10
0.507867
 20
0.531467
 30
0.0
 11
0.070855
 21
0.543294
 31
0.0
  0
LINE
  8
0
 62
     4
 10
0.070855
 20
0.543294
 30
0.0
 11
0
 21
0.507867
 31
0.0
  0
LINE
  8
0
 62
     4
 10
0
 20
0.507867
 30
0.0
 11
0
 21
0.496039
 31
0.0
  0
LINE
  8
0
 62
     4
 10
0
 20
0.496039
 30
0.0
 11
0.0295139
 21
0.496039
 31
0.0
  0
LINE
  8
0
 62
     4
 10
0.0295139
 20
0.496039
 30
0.0
 11
0.0295139
 21
0.305122
 31
0.0
  0
LINE
  8
0
 62
     4
 10
0.0295139
 20
0.305122
 30
0.0
 11
0.134603
 21
0.305122
 31
0.0
  0
LINE
  8
0
 62
     4
 10
0.134603
 20
0.305122
 30
0.0
 11
0.155436
 21
0.319553
 31
0.0
  0
LINE
  8
0
 62
     4
 10
0.155436
 20
0.319553
 30
0.0
 11
0.181099
 21
0.324815
 31
0.0
  0
LINE
  8
0
 62
     4
 10
0.181099
 20
0.324815
 30
0.0
 11
0.206381
 21
0.319715
 31
0.0
  0
LINE
  8
0
 62
     4
 10
0.206381
 20
0.319715
 30
0.0
 11
0.226997
 21
0.305826
 31
0.0
  0
LINE
  8
0
 62
     4
 10
0.226997
 20
0.305826
 30
0.0
 11
0.24094
 21
0.285156
 31
0.0
  0
LINE
  8
0
 62
     4
 10
0.24094
 20
0.285156
 30
0.0
 11
0.246094
 21
0.259819
 31
0.0
  0
LINE
  8
0
 62
     4
 10
0.246094
 20
0.259819
 30
0.0
 11
0.24094
 21
0.234592
 31
0.0
  0
LINE
  8
0
 62
     4
 10
0.24094
 20
0.234592
 30
0.0
 11
0.226997
 21
0.213921
 31
0.0
  0
LINE
  8
0
 62
     4
 10
0.226997
 20
0.213921
 30
0.0
 11
0.206381
 21
0.200032
 31
0.0
  0
LINE
  8
0
 62
     4
 10
0.206381
 20
0.200032
 30
0.0
 11
0.181099
 21
0.194878
 31
0.0
  0
LINE
  8
0
 62
     4
 10
0.181099
 20
0.194878
 30
0.0
 11
0.155436
 21
0.200196
 31
0.0
  0
LINE
  8
0
 62
     4
 10
0.155436
 20
0.200196
 30
0.0
 11
0.134603
 21
0.214572
 31
0.0
  0
LINE
  8
0
 62
     4
 10
0.134603
 20
0.214572
 30
0.0
 11
0.0295139
 21
0.214572
 31
0.0
  0
LINE
  8
0
 62
     4
 10
0.0295139
 20
0.214572
 30
0.0
 11
0.0295139
 21
0.0295139
 31
0.0
  0
LINE
  8
0
 62
     4
 10
0.0295139
 20
0.0295139
 30
0.0
 11
0.0354275
 21
0.0236003
 31
0.0
  0
LINE
  8
0
 62
     4
 10
0.0354275
 20
0.0236003
 30
0.0
 11
0.129937
 21
0.011773
 31
0.0
  0
LINE
  8
0
 62
     4
 10
0.129937
 20
0.011773
 30
0.0
 11
0.389757
 21
0.011773
 31
0.0
  0
LINE
  8
0
 62
     4
 10
0.389757
 20
0.011773
 30
0.0
 11
0.437011
 21
0.070855
 31
0.0
  0
LINE
  8
0
 62
     4
 10
0.437011
 20
0.070855
 30
0.0
 11
0.519694
 21
0.070855
 31
0.0
  0
LINE
  8
0
 62
     4
 10
0.519694
 20
0.070855
 30
0.0
 11
0.566949
 21
0.011773
 31
0.0
  0
LINE
  8
0
 62
     4
 10
0.566949
 20
0.011773
 30
0.0
 11
0.673232
 21
0.011773
 31
0.0
  0
LINE
  8
0
 62
     4
 10
0.673232
 20
0.011773
 30
0.0
 11
0.696832
 21
0.0354275
 31
0.0
  0
LINE
  8
0
 62
     4
 10
0.696832
 20
0.0354275
 30
0.0
 11
0.720486
 21
0.011773
 31
0.0
  0
LINE
  8
0
 62
     4
 10
0.720486
 20
0.011773
 30
0.0
 11
1.14567
 21
0.0236003
 31
0.0
  0
LINE
  8
0
 62
     4
 10
1.14567
 20
0.0236003
 30
0.0
 11
1.1811
 21
-0
 31
0.0
  0
LINE
  8
0
 62
     4
 10
1.1811
 20
-0
 30
0.0
 11
2.64567
 21
0.011773
 31
0.0
  0
LINE
  8
0
 62
     4
 10
2.64567
 20
0.011773
 30
0.0
 11
2.66928
 21
0.0354275
 31
0.0
  0
LINE
  8
0
 62
     4
 10
2.66928
 20
0.0354275
 30
0.0
 11
2.66928
 21
0.177137
 31
0.0
  0
LINE
  8
0
 62
     4
 10
2.66928
 20
0.177137
 30
0.0
 11
2.55122
 21
0.259819
 31
0.0
  0
LINE
  8
0
 62
     4
 10
2.55122
 20
0.259819
 30
0.0
 11
2.59842
 21
0.318901
 31
0.0
  0
LINE
  8
0
 62
     4
 10
2.59842
 20
0.318901
 30
0.0
 11
2.64567
 21
0.318901
 31
0.0
  0
LINE
  8
0
 62
     4
 10
2.64567
 20
0.318901
 30
0.0
 11
2.69293
 21
0.247993
 31
0.0
  0
LINE
  8
0
 62
     4
 10
2.69293
 20
0.247993
 30
0.0
 11
2.91732
 21
0.247993
 31
0.0
  0
LINE
  8
0
 62
     4
 10
2.91732
 20
0.247993
 30
0.0
 11
2.92914
 21
0.249675
 31
0.0
  0
LINE
  8
0
 62
     4
 10
2.92914
 20
0.249675
 30
0.0
 11
2.92914
 21
0.265733
 31
0.0
  0
LINE
  8
0
 62
     4
 10
2.92914
 20
0.265733
 30
0.0
 11
3.00592
 21
0.265733
 31
0.0
  0
LINE
  8
0
 62
     4
 10
3.00592
 20
0.265733
 30
0.0
 11
3.0236
 21
0.283475
 31
0.0
  0
LINE
  8
0
 62
     4
 10
3.0236
 20
0.283475
 30
0.0
 11
3.04135
 21
0.265733
 31
0.0
  0
LINE
  8
0
 62
     4
 10
3.04135
 20
0.265733
 30
0.0
 11
3.12007
 21
0.265733
 31
0.0
  0
LINE
  8
0
 62
     4
 10
3.12007
 20
0.265733
 30
0.0
 11
3.12007
 21
0.2921
 31
0.0
  0
LINE
  8
0
 62
     4
 10
3.12007
 20
0.2921
 30
0.0
 11
3.10568
 21
0.312989
 31
0.0
  0
LINE
  8
0
 62
     4
 10
3.10568
 20
0.312989
 30
0.0
 11
3.10042
 21
0.338596
 31
0.0
  0
LINE
  8
0
 62
     4
 10
3.10042
 20
0.338596
 30
0.0
 11
3.10547
 21
0.363878
 31
0.0
  0
LINE
  8
0
 62
     4
 10
3.10547
 20
0.363878
 30
0.0
 11
3.11942
 21
0.384549
 31
0.0
  0
LINE
  8
0
 62
     4
 10
3.11942
 20
0.384549
 30
0.0
 11
3.14003
 21
0.398438
 31
0.0
  0
LINE
  8
0
 62
     4
 10
3.14003
 20
0.398438
 30
0.0
 11
3.16536
 21
0.403538
 31
0.0
  0
LINE
  8
0
 62
     4
 10
3.16536
 20
0.403538
 30
0.0
 11
3.1906
 21
0.398438
 31
0.0
  0
LINE
  8
0
 62
     4
 10
3.1906
 20
0.398438
 30
0.0
 11
3.21126
 21
0.384549
 31
0.0
  0
LINE
  8
0
 62
     4
 10
3.21126
 20
0.384549
 30
0.0
 11
3.22515
 21
0.363878
 31
0.0
  0
LINE
  8
0
 62
     4
 10
3.22515
 20
0.363878
 30
0.0
 11
3.23031
 21
0.338596
 31
0.0
  0
LINE
  8
0
 62
     4
 10
3.23031
 20
0.338596
 30
0.0
 11
3.22499
 21
0.312989
 31
0.0
  0
LINE
  8
0
 62
     4
 10
3.22499
 20
0.312989
 30
0.0
 11
3.21061
 21
0.2921
 31
0.0
  0
LINE
  8
0
 62
     4
 10
3.21061
 20
0.2921
 30
0.0
 11
3.21061
 21
0.265733
 31
0.0
  0
LINE
  8
0
 62
     4
 10
3.21061
 20
0.265733
 30
0.0
 11
3.32676
 21
0.265733
 31
0.0
  0
LINE
  8
0
 62
     4
 10
3.32676
 20
0.265733
 30
0.0
 11
3.36615
 21
0.295247
 31
0.0
  0
LINE
  8
0
 62
     4
 10
3.36615
 20
0.295247
 30
0.0
 11
3.41342
 21
0.259819
 31
0.0
  0
LINE
  8
0
 62
     4
 10
3.41342
 20
0.259819
 30
0.0
 11
3.53153
 21
0.259819
 31
0.0
  0
LINE
  8
0
 62
     4
 10
3.53153
 20
0.259819
 30
0.0
 11
3.57872
 21
0.318901
 31
0.0
  0
LINE
  8
0
 62
     4
 10
3.57872
 20
0.318901
 30
0.0
 11
3.64963
 21
0.318901
 31
0.0
  0
LINE
  8
0
 62
     4
 10
3.64963
 20
0.318901
 30
0.0
 11
3.69683
 21
0.259819
 31
0.0
  0
LINE
  8
0
 62
     4
 10
3.69683
 20
0.259819
 30
0.0
 11
3.96847
 21
0.247993
 31
0.0
  0
LINE
  8
0
 62
     4
 10
3.96847
 20
0.247993
 30
0.0
 11
4.00396
 21
0.283475
 31
0.0
  0
LINE
  8
0
 62
     4
 10
4.00396
 20
0.283475
 30
0.0
 11
4.06299
 21
0.259819
 31
0.0
  0
LINE
  8
0
 62
     4
 10
4.06299
 20
0.259819
 30
0.0
 11
4.1811
 21
0.259819
 31
0.0
  0
LINE
  8
0
 62
     4
 10
4.1811
 20
0.259819
 30
0.0
 11
4.22835
 21
0.283475
 31
0.0
  0
LINE
  8
0
 62
     4
 10
4.22835
 20
0.283475
 30
0.0
 11
4.25196
 21
0.318901
 31
0.0
  0
LINE
  8
0
 62
     4
 10
4.25196
 20
0.318901
 30
0.0
 11
4.25196
 21
0.484267
 31
0.0
  0
LINE
  8
0
 62
     4
 10
4.25196
 20
0.484267
 30
0.0
 11
4.19293
 21
0.531467
 31
0.0
  0
ENDSEC
  0
EOF
