  0
SECTION
  2
HEADER
  9
$ACADVER
  1
AC1009
  9
$EXTMIN
 10
0.0
 20
0.0
 30
0.0
  9
$EXTMAX
 10
1000.0
 20
1000.0
 30
0.0
  9
$FILLMODE
 70
 0
  9
$SPLFRAME
 70
 1
  0
ENDSEC
  0
SECTION
  2
TABLES
  0
TABLE
  2
LAYER
 70
1
  0
LAYER
  2
0
 70
     0
 62
     7
  6
CONTINUOUS
  0
ENDTAB
  0
ENDSEC
  0
SECTION
  2
ENTITIES
  0
LINE
  8
0
 62
     160
 10
0.7315
 20
0.0253906
 30
0.0
 11
0.710286
 21
0.0466037
 31
0.0
  0
LINE
  8
0
 62
     160
 10
0.710286
 20
0.0466037
 30
0.0
 11
0.699164
 21
0.0466037
 31
0.0
  0
LINE
  8
0
 62
     160
 10
0.699164
 20
0.0466037
 30
0.0
 11
0.677843
 21
0.0252821
 31
0.0
  0
LINE
  8
0
 62
     160
 10
0.677843
 20
0.0252821
 30
0.0
 11
0.578614
 21
0.0252821
 31
0.0
  0
LINE
  8
0
 62
     160
 10
0.578614
 20
0.0252821
 30
0.0
 11
0.533692
 21
0.0813803
 31
0.0
  0
LINE
  8
0
 62
     160
 10
0.533692
 20
0.0813803
 30
0.0
 11
0.527561
 21
0.0843642
 31
0.0
  0
LINE
  8
0
 62
     160
 10
0.527561
 20
0.0843642
 30
0.0
 11
0.444878
 21
0.0843642
 31
0.0
  0
LINE
  8
0
 62
     160
 10
0.444878
 20
0.0843642
 30
0.0
 11
0.438747
 21
0.0813803
 31
0.0
  0
LINE
  8
0
 62
     160
 10
0.438747
 20
0.0813803
 30
0.0
 11
0.393935
 21
0.0254449
 31
0.0
  0
LINE
  8
0
 62
     160
 10
0.393935
 20
0.0254449
 30
0.0
 11
0.0435656
 21
0.0371094
 31
0.0
  0
LINE
  8
0
 62
     160
 10
0.0435656
 20
0.0371094
 30
0.0
 11
0.0430231
 21
0.0213758
 31
0.0
  0
LINE
  8
0
 62
     160
 10
0.0430231
 20
0.0213758
 30
0.0
 11
0.397353
 21
0.00954861
 31
0.0
  0
LINE
  8
0
 62
     160
 10
0.397353
 20
0.00954861
 30
0.0
 11
0.403808
 21
0.0125326
 31
0.0
  0
LINE
  8
0
 62
     160
 10
0.403808
 20
0.0125326
 30
0.0
 11
0.448676
 21
0.0685764
 31
0.0
  0
LINE
  8
0
 62
     160
 10
0.448676
 20
0.0685764
 30
0.0
 11
0.523762
 21
0.0685764
 31
0.0
  0
LINE
  8
0
 62
     160
 10
0.523762
 20
0.0685764
 30
0.0
 11
0.568685
 21
0.0125326
 31
0.0
  0
LINE
  8
0
 62
     160
 10
0.568685
 20
0.0125326
 30
0.0
 11
0.574815
 21
0.00954861
 31
0.0
  0
LINE
  8
0
 62
     160
 10
0.574815
 20
0.00954861
 30
0.0
 11
0.681099
 21
0.00954861
 31
0.0
  0
LINE
  8
0
 62
     160
 10
0.681099
 20
0.00954861
 30
0.0
 11
0.686686
 21
0.0118815
 31
0.0
  0
LINE
  8
0
 62
     160
 10
0.686686
 20
0.0118815
 30
0.0
 11
0.704699
 21
0.0298936
 31
0.0
  0
LINE
  8
0
 62
     160
 10
0.704699
 20
0.0298936
 30
0.0
 11
0.722765
 21
0.0118815
 31
0.0
  0
LINE
  8
0
 62
     160
 10
0.722765
 20
0.0118815
 30
0.0
 11
0.728569
 21
0.00954861
 31
0.0
  0
LINE
  8
0
 62
     160
 10
0.728569
 20
0.00954861
 30
0.0
 11
1.02382
 21
0.0177408
 31
0.0
  0
LINE
  8
0
 62
     160
 10
1.02382
 20
0.0177408
 30
0.0
 11
1.02338
 21
0.0334744
 31
0.0
  0
LINE
  8
0
 62
     160
 10
1.02338
 20
0.0334744
 30
0.0
 11
0.7315
 21
0.0253906
 31
0.0
  0
LINE
  8
0
 62
     160
 10
2.93701
 20
0.256293
 30
0.0
 11
2.93696
 21
0.263183
 31
0.0
  0
LINE
  8
0
 62
     160
 10
2.93696
 20
0.263183
 30
0.0
 11
2.70497
 21
0.261556
 31
0.0
  0
LINE
  8
0
 62
     160
 10
2.70497
 20
0.261556
 30
0.0
 11
2.6601
 21
0.328885
 31
0.0
  0
LINE
  8
0
 62
     160
 10
2.6601
 20
0.328885
 30
0.0
 11
2.65354
 21
0.332411
 31
0.0
  0
LINE
  8
0
 62
     160
 10
2.65354
 20
0.332411
 30
0.0
 11
2.60628
 21
0.332411
 31
0.0
  0
LINE
  8
0
 62
     160
 10
2.60628
 20
0.332411
 30
0.0
 11
2.60015
 21
0.329428
 31
0.0
  0
LINE
  8
0
 62
     160
 10
2.60015
 20
0.329428
 30
0.0
 11
2.5529
 21
0.2704
 31
0.0
  0
LINE
  8
0
 62
     160
 10
2.5529
 20
0.2704
 30
0.0
 11
2.55126
 21
0.264322
 31
0.0
  0
LINE
  8
0
 62
     160
 10
2.55126
 20
0.264322
 30
0.0
 11
2.55453
 21
0.259006
 31
0.0
  0
LINE
  8
0
 62
     160
 10
2.55453
 20
0.259006
 30
0.0
 11
2.66928
 21
0.178711
 31
0.0
  0
LINE
  8
0
 62
     160
 10
2.66928
 20
0.178711
 30
0.0
 11
2.66928
 21
0.0443251
 31
0.0
  0
LINE
  8
0
 62
     160
 10
2.66928
 20
0.0443251
 30
0.0
 11
2.65022
 21
0.0252821
 31
0.0
  0
LINE
  8
0
 62
     160
 10
2.65022
 20
0.0252821
 30
0.0
 11
1.47239
 21
0.0157335
 31
0.0
  0
LINE
  8
0
 62
     160
 10
1.47239
 20
0.0157335
 30
0.0
 11
1.4725
 21
-0
 31
0.0
  0
LINE
  8
0
 62
     160
 10
1.4725
 20
-0
 30
0.0
 11
2.6536
 21
0.00954861
 31
0.0
  0
LINE
  8
0
 62
     160
 10
2.6536
 20
0.00954861
 30
0.0
 11
2.65913
 21
0.0118273
 31
0.0
  0
LINE
  8
0
 62
     160
 10
2.65913
 20
0.0118273
 30
0.0
 11
2.68272
 21
0.0354818
 31
0.0
  0
LINE
  8
0
 62
     160
 10
2.68272
 20
0.0354818
 30
0.0
 11
2.68506
 21
0.0410699
 31
0.0
  0
LINE
  8
0
 62
     160
 10
2.68506
 20
0.0410699
 30
0.0
 11
2.68506
 21
0.182781
 31
0.0
  0
LINE
  8
0
 62
     160
 10
2.68506
 20
0.182781
 30
0.0
 11
2.68169
 21
0.189236
 31
0.0
  0
LINE
  8
0
 62
     160
 10
2.68169
 20
0.189236
 30
0.0
 11
2.57047
 21
0.26709
 31
0.0
  0
LINE
  8
0
 62
     160
 10
2.57047
 20
0.26709
 30
0.0
 11
2.61008
 21
0.316624
 31
0.0
  0
LINE
  8
0
 62
     160
 10
2.61008
 20
0.316624
 30
0.0
 11
2.64931
 21
0.316624
 31
0.0
  0
LINE
  8
0
 62
     160
 10
2.64931
 20
0.316624
 30
0.0
 11
2.69422
 21
0.249294
 31
0.0
  0
LINE
  8
0
 62
     160
 10
2.69422
 20
0.249294
 30
0.0
 11
2.70079
 21
0.245768
 31
0.0
  0
LINE
  8
0
 62
     160
 10
2.70079
 20
0.245768
 30
0.0
 11
2.70085
 21
0.245768
 31
0.0
  0
LINE
  8
0
 62
     160
 10
2.70085
 20
0.245768
 30
0.0
 11
2.93701
 21
0.247396
 31
0.0
  0
LINE
  8
0
 62
     160
 10
2.93701
 20
0.247396
 30
0.0
 11
2.93701
 21
0.256293
 31
0.0
  0
LINE
  8
0
 62
     160
 10
4.26475
 20
0.496039
 30
0.0
 11
4.20568
 21
0.54324
 31
0.0
  0
LINE
  8
0
 62
     160
 10
4.20568
 20
0.54324
 30
0.0
 11
4.20079
 21
0.544976
 31
0.0
  0
LINE
  8
0
 62
     160
 10
4.20079
 20
0.544976
 30
0.0
 11
4.05908
 21
0.544976
 31
0.0
  0
LINE
  8
0
 62
     160
 10
4.05908
 20
0.544976
 30
0.0
 11
4.05658
 21
0.544596
 31
0.0
  0
LINE
  8
0
 62
     160
 10
4.05658
 20
0.544596
 30
0.0
 11
4.02111
 21
0.532769
 31
0.0
  0
LINE
  8
0
 62
     160
 10
4.02111
 20
0.532769
 30
0.0
 11
4.01731
 21
0.530057
 31
0.0
  0
LINE
  8
0
 62
     160
 10
4.01731
 20
0.530057
 30
0.0
 11
3.98503
 21
0.486979
 31
0.0
  0
LINE
  8
0
 62
     160
 10
3.98503
 20
0.486979
 30
0.0
 11
3.94428
 21
0.497179
 31
0.0
  0
LINE
  8
0
 62
     160
 10
3.94428
 20
0.497179
 30
0.0
 11
3.86285
 21
0.555339
 31
0.0
  0
LINE
  8
0
 62
     160
 10
3.86285
 20
0.555339
 30
0.0
 11
3.85829
 21
0.556803
 31
0.0
  0
LINE
  8
0
 62
     160
 10
3.85829
 20
0.556803
 30
0.0
 11
3.72835
 21
0.556803
 31
0.0
  0
LINE
  8
0
 62
     160
 10
3.72835
 20
0.556803
 30
0.0
 11
3.72276
 21
0.554525
 31
0.0
  0
LINE
  8
0
 62
     160
 10
3.72276
 20
0.554525
 30
0.0
 11
3.65424
 21
0.485949
 31
0.0
  0
LINE
  8
0
 62
     160
 10
3.65424
 20
0.485949
 30
0.0
 11
3.62532
 21
0.485949
 31
0.0
  0
LINE
  8
0
 62
     160
 10
3.62532
 20
0.485949
 30
0.0
 11
3.58035
 21
0.530871
 31
0.0
  0
LINE
  8
0
 62
     160
 10
3.58035
 20
0.530871
 30
0.0
 11
3.57482
 21
0.533203
 31
0.0
  0
LINE
  8
0
 62
     160
 10
3.57482
 20
0.533203
 30
0.0
 11
3.40001
 21
0.533203
 31
0.0
  0
LINE
  8
0
 62
     160
 10
3.40001
 20
0.533203
 30
0.0
 11
3.3666
 21
0.555501
 31
0.0
  0
LINE
  8
0
 62
     160
 10
3.3666
 20
0.555501
 30
0.0
 11
3.36219
 21
0.556803
 31
0.0
  0
LINE
  8
0
 62
     160
 10
3.36219
 20
0.556803
 30
0.0
 11
3.23226
 21
0.556803
 31
0.0
  0
LINE
  8
0
 62
     160
 10
3.23226
 20
0.556803
 30
0.0
 11
3.22754
 21
0.555231
 31
0.0
  0
LINE
  8
0
 62
     160
 10
3.22754
 20
0.555231
 30
0.0
 11
3.1824
 21
0.521376
 31
0.0
  0
LINE
  8
0
 62
     160
 10
3.1824
 20
0.521376
 30
0.0
 11
3.14106
 21
0.521376
 31
0.0
  0
LINE
  8
0
 62
     160
 10
3.14106
 20
0.521376
 30
0.0
 11
3.09614
 21
0.566297
 31
0.0
  0
LINE
  8
0
 62
     160
 10
3.09614
 20
0.566297
 30
0.0
 11
3.09056
 21
0.568631
 31
0.0
  0
LINE
  8
0
 62
     160
 10
3.09056
 20
0.568631
 30
0.0
 11
2.97244
 21
0.568631
 31
0.0
  0
LINE
  8
0
 62
     160
 10
2.97244
 20
0.568631
 30
0.0
 11
2.96838
 21
0.567492
 31
0.0
  0
LINE
  8
0
 62
     160
 10
2.96838
 20
0.567492
 30
0.0
 11
2.91303
 21
0.534289
 31
0.0
  0
LINE
  8
0
 62
     160
 10
2.91303
 20
0.534289
 30
0.0
 11
2.86968
 21
0.555989
 31
0.0
  0
LINE
  8
0
 62
     160
 10
2.86968
 20
0.555989
 30
0.0
 11
2.86615
 21
0.556803
 31
0.0
  0
LINE
  8
0
 62
     160
 10
2.86615
 20
0.556803
 30
0.0
 11
2.74804
 21
0.556803
 31
0.0
  0
LINE
  8
0
 62
     160
 10
2.74804
 20
0.556803
 30
0.0
 11
2.74246
 21
0.554525
 31
0.0
  0
LINE
  8
0
 62
     160
 10
2.74246
 20
0.554525
 30
0.0
 11
2.68528
 21
0.497287
 31
0.0
  0
LINE
  8
0
 62
     160
 10
2.68528
 20
0.497287
 30
0.0
 11
2.60818
 21
0.486274
 31
0.0
  0
LINE
  8
0
 62
     160
 10
2.60818
 20
0.486274
 30
0.0
 11
2.57525
 21
0.508247
 31
0.0
  0
LINE
  8
0
 62
     160
 10
2.57525
 20
0.508247
 30
0.0
 11
2.57086
 21
0.509549
 31
0.0
  0
LINE
  8
0
 62
     160
 10
2.57086
 20
0.509549
 30
0.0
 11
2.45458
 21
0.509549
 31
0.0
  0
LINE
  8
0
 62
     160
 10
2.45458
 20
0.509549
 30
0.0
 11
2.36176
 21
0.555989
 31
0.0
  0
LINE
  8
0
 62
     160
 10
2.36176
 20
0.555989
 30
0.0
 11
2.35829
 21
0.556803
 31
0.0
  0
LINE
  8
0
 62
     160
 10
2.35829
 20
0.556803
 30
0.0
 11
2.24018
 21
0.556803
 31
0.0
  0
LINE
  8
0
 62
     160
 10
2.24018
 20
0.556803
 30
0.0
 11
2.2354
 21
0.555231
 31
0.0
  0
LINE
  8
0
 62
     160
 10
2.2354
 20
0.555231
 30
0.0
 11
2.14307
 21
0.485949
 31
0.0
  0
LINE
  8
0
 62
     160
 10
2.14307
 20
0.485949
 30
0.0
 11
2.06668
 21
0.485949
 31
0.0
  0
LINE
  8
0
 62
     160
 10
2.06668
 20
0.485949
 30
0.0
 11
2.00999
 21
0.553982
 31
0.0
  0
LINE
  8
0
 62
     160
 10
2.00999
 20
0.553982
 30
0.0
 11
2.00396
 21
0.556803
 31
0.0
  0
LINE
  8
0
 62
     160
 10
2.00396
 20
0.556803
 30
0.0
 11
1.79135
 21
0.556803
 31
0.0
  0
LINE
  8
0
 62
     160
 10
1.79135
 20
0.556803
 30
0.0
 11
1.78575
 21
0.554525
 31
0.0
  0
LINE
  8
0
 62
     160
 10
1.78575
 20
0.554525
 30
0.0
 11
1.76215
 21
0.530871
 31
0.0
  0
LINE
  8
0
 62
     160
 10
1.76215
 20
0.530871
 30
0.0
 11
1.75987
 21
0.525336
 31
0.0
  0
LINE
  8
0
 62
     160
 10
1.75987
 20
0.525336
 30
0.0
 11
1.75987
 21
0.482964
 31
0.0
  0
LINE
  8
0
 62
     160
 10
1.75987
 20
0.482964
 30
0.0
 11
1.7461
 21
0.476074
 31
0.0
  0
LINE
  8
0
 62
     160
 10
1.7461
 20
0.476074
 30
0.0
 11
1.67919
 21
0.55409
 31
0.0
  0
LINE
  8
0
 62
     160
 10
1.67919
 20
0.55409
 30
0.0
 11
1.67372
 21
0.556803
 31
0.0
  0
LINE
  8
0
 62
     160
 10
1.67372
 20
0.556803
 30
0.0
 11
1.4904
 21
0.5676
 31
0.0
  0
LINE
  8
0
 62
     160
 10
1.4904
 20
0.5676
 30
0.0
 11
1.52522
 21
0.602431
 31
0.0
  0
LINE
  8
0
 62
     160
 10
1.52522
 20
0.602431
 30
0.0
 11
1.52756
 21
0.608018
 31
0.0
  0
LINE
  8
0
 62
     160
 10
1.52756
 20
0.608018
 30
0.0
 11
1.52756
 21
0.749729
 31
0.0
  0
LINE
  8
0
 62
     160
 10
1.52756
 20
0.749729
 30
0.0
 11
1.52642
 21
0.753743
 31
0.0
  0
LINE
  8
0
 62
     160
 10
1.52642
 20
0.753743
 30
0.0
 11
1.491
 21
0.812825
 31
0.0
  0
LINE
  8
0
 62
     160
 10
1.491
 20
0.812825
 30
0.0
 11
1.48426
 21
0.816624
 31
0.0
  0
LINE
  8
0
 62
     160
 10
1.48426
 20
0.816624
 30
0.0
 11
0.846463
 21
0.816624
 31
0.0
  0
LINE
  8
0
 62
     160
 10
0.846463
 20
0.816624
 30
0.0
 11
0.842068
 21
0.815321
 31
0.0
  0
LINE
  8
0
 62
     160
 10
0.842068
 20
0.815321
 30
0.0
 11
0.808649
 21
0.793024
 31
0.0
  0
LINE
  8
0
 62
     160
 10
0.808649
 20
0.793024
 30
0.0
 11
0.73074
 21
0.793024
 31
0.0
  0
LINE
  8
0
 62
     160
 10
0.73074
 20
0.793024
 30
0.0
 11
0.697265
 21
0.815321
 31
0.0
  0
LINE
  8
0
 62
     160
 10
0.697265
 20
0.815321
 30
0.0
 11
0.692925
 21
0.816624
 31
0.0
  0
LINE
  8
0
 62
     160
 10
0.692925
 20
0.816624
 30
0.0
 11
0.515733
 21
0.816624
 31
0.0
  0
LINE
  8
0
 62
     160
 10
0.515733
 20
0.816624
 30
0.0
 11
0.5102
 21
0.814344
 31
0.0
  0
LINE
  8
0
 62
     160
 10
0.5102
 20
0.814344
 30
0.0
 11
0.491103
 21
0.795301
 31
0.0
  0
LINE
  8
0
 62
     160
 10
0.491103
 20
0.795301
 30
0.0
 11
0.461046
 21
0.815321
 31
0.0
  0
LINE
  8
0
 62
     160
 10
0.461046
 20
0.815321
 30
0.0
 11
0.456706
 21
0.816624
 31
0.0
  0
LINE
  8
0
 62
     160
 10
0.456706
 20
0.816624
 30
0.0
 11
0.0315213
 21
0.816624
 31
0.0
  0
LINE
  8
0
 62
     160
 10
0.0315213
 20
0.816624
 30
0.0
 11
0.0259332
 21
0.814344
 31
0.0
  0
LINE
  8
0
 62
     160
 10
0.0259332
 20
0.814344
 30
0.0
 11
0.0023329
 21
0.790744
 31
0.0
  0
LINE
  8
0
 62
     160
 10
0.0023329
 20
0.790744
 30
0.0
 11
0
 21
0.785156
 31
0.0
  0
LINE
  8
0
 62
     160
 10
0
 20
0.785156
 30
0.0
 11
0
 21
0.596192
 31
0.0
  0
LINE
  8
0
 62
     160
 10
0
 20
0.596192
 30
0.0
 11
0.0023329
 21
0.590603
 31
0.0
  0
LINE
  8
0
 62
     160
 10
0.0023329
 20
0.590603
 30
0.0
 11
0.0259332
 21
0.567003
 31
0.0
  0
LINE
  8
0
 62
     160
 10
0.0259332
 20
0.567003
 30
0.0
 11
0.0315213
 21
0.564669
 31
0.0
  0
LINE
  8
0
 62
     160
 10
0.0315213
 20
0.564669
 30
0.0
 11
0.433051
 21
0.564669
 31
0.0
  0
LINE
  8
0
 62
     160
 10
0.433051
 20
0.564669
 30
0.0
 11
0.440104
 21
0.569011
 31
0.0
  0
LINE
  8
0
 62
     160
 10
0.440104
 20
0.569011
 30
0.0
 11
0.476508
 21
0.641872
 31
0.0
  0
LINE
  8
0
 62
     160
 10
0.476508
 20
0.641872
 30
0.0
 11
0.484375
 21
0.594889
 31
0.0
  0
LINE
  8
0
 62
     160
 10
0.484375
 20
0.594889
 30
0.0
 11
0.486544
 21
0.590603
 31
0.0
  0
LINE
  8
0
 62
     160
 10
0.486544
 20
0.590603
 30
0.0
 11
0.517958
 21
0.55919
 31
0.0
  0
LINE
  8
0
 62
     160
 10
0.517958
 20
0.55919
 30
0.0
 11
0.51096
 21
0.545139
 31
0.0
  0
LINE
  8
0
 62
     160
 10
0.51096
 20
0.545139
 30
0.0
 11
0.0789387
 21
0.556803
 31
0.0
  0
LINE
  8
0
 62
     160
 10
0.0789387
 20
0.556803
 30
0.0
 11
0.0752496
 21
0.555989
 31
0.0
  0
LINE
  8
0
 62
     160
 10
0.0752496
 20
0.555989
 30
0.0
 11
0.00434028
 21
0.520508
 31
0.0
  0
LINE
  8
0
 62
     160
 10
0.00434028
 20
0.520508
 30
0.0
 11
0
 21
0.51351
 31
0.0
  0
LINE
  8
0
 62
     160
 10
0
 20
0.51351
 30
0.0
 11
0
 21
0.501682
 31
0.0
  0
LINE
  8
0
 62
     160
 10
0
 20
0.501682
 30
0.0
 11
0.0157335
 21
0.501682
 31
0.0
  0
LINE
  8
0
 62
     160
 10
0.0157335
 20
0.501682
 30
0.0
 11
0.0157335
 21
0.508626
 31
0.0
  0
LINE
  8
0
 62
     160
 10
0.0157335
 20
0.508626
 30
0.0
 11
0.0805122
 21
0.541015
 31
0.0
  0
LINE
  8
0
 62
     160
 10
0.0805122
 20
0.541015
 30
0.0
 11
0.515517
 21
0.529243
 31
0.0
  0
LINE
  8
0
 62
     160
 10
0.515517
 20
0.529243
 30
0.0
 11
0.522786
 21
0.533583
 31
0.0
  0
LINE
  8
0
 62
     160
 10
0.522786
 20
0.533583
 30
0.0
 11
0.534614
 21
0.557238
 31
0.0
  0
LINE
  8
0
 62
     160
 10
0.534614
 20
0.557238
 30
0.0
 11
0.533149
 21
0.566351
 31
0.0
  0
LINE
  8
0
 62
     160
 10
0.533149
 20
0.566351
 30
0.0
 11
0.499457
 21
0.599935
 31
0.0
  0
LINE
  8
0
 62
     160
 10
0.499457
 20
0.599935
 30
0.0
 11
0.488064
 21
0.668349
 31
0.0
  0
LINE
  8
0
 62
     160
 10
0.488064
 20
0.668349
 30
0.0
 11
0.4815
 21
0.674858
 31
0.0
  0
LINE
  8
0
 62
     160
 10
0.4815
 20
0.674858
 30
0.0
 11
0.473253
 21
0.670572
 31
0.0
  0
LINE
  8
0
 62
     160
 10
0.473253
 20
0.670572
 30
0.0
 11
0.428222
 21
0.580404
 31
0.0
  0
LINE
  8
0
 62
     160
 10
0.428222
 20
0.580404
 30
0.0
 11
0.0347765
 21
0.580404
 31
0.0
  0
LINE
  8
0
 62
     160
 10
0.0347765
 20
0.580404
 30
0.0
 11
0.0157335
 21
0.599447
 31
0.0
  0
LINE
  8
0
 62
     160
 10
0.0157335
 20
0.599447
 30
0.0
 11
0.0157335
 21
0.781901
 31
0.0
  0
LINE
  8
0
 62
     160
 10
0.0157335
 20
0.781901
 30
0.0
 11
0.0347765
 21
0.80089
 31
0.0
  0
LINE
  8
0
 62
     160
 10
0.0347765
 20
0.80089
 30
0.0
 11
0.454318
 21
0.80089
 31
0.0
  0
LINE
  8
0
 62
     160
 10
0.454318
 20
0.80089
 30
0.0
 11
0.487739
 21
0.778592
 31
0.0
  0
LINE
  8
0
 62
     160
 10
0.487739
 20
0.778592
 30
0.0
 11
0.497721
 21
0.779568
 31
0.0
  0
LINE
  8
0
 62
     160
 10
0.497721
 20
0.779568
 30
0.0
 11
0.518989
 21
0.80089
 31
0.0
  0
LINE
  8
0
 62
     160
 10
0.518989
 20
0.80089
 30
0.0
 11
0.690539
 21
0.80089
 31
0.0
  0
LINE
  8
0
 62
     160
 10
0.690539
 20
0.80089
 30
0.0
 11
0.723958
 21
0.778592
 31
0.0
  0
LINE
  8
0
 62
     160
 10
0.723958
 20
0.778592
 30
0.0
 11
0.728353
 21
0.777289
 31
0.0
  0
LINE
  8
0
 62
     160
 10
0.728353
 20
0.777289
 30
0.0
 11
0.811035
 21
0.777289
 31
0.0
  0
LINE
  8
0
 62
     160
 10
0.811035
 20
0.777289
 30
0.0
 11
0.815375
 21
0.778592
 31
0.0
  0
LINE
  8
0
 62
     160
 10
0.815375
 20
0.778592
 30
0.0
 11
0.84885
 21
0.80089
 31
0.0
  0
LINE
  8
0
 62
     160
 10
0.84885
 20
0.80089
 30
0.0
 11
1.47982
 21
0.80089
 31
0.0
  0
LINE
  8
0
 62
     160
 10
1.47982
 20
0.80089
 30
0.0
 11
1.51183
 21
0.747504
 31
0.0
  0
LINE
  8
0
 62
     160
 10
1.51183
 20
0.747504
 30
0.0
 11
1.51183
 21
0.611274
 31
0.0
  0
LINE
  8
0
 62
     160
 10
1.51183
 20
0.611274
 30
0.0
 11
1.46685
 21
0.566297
 31
0.0
  0
LINE
  8
0
 62
     160
 10
1.46685
 20
0.566297
 30
0.0
 11
1.46506
 21
0.557943
 31
0.0
  0
LINE
  8
0
 62
     160
 10
1.46506
 20
0.557943
 30
0.0
 11
1.472
 21
0.552897
 31
0.0
  0
LINE
  8
0
 62
     160
 10
1.472
 20
0.552897
 30
0.0
 11
1.66943
 21
0.541287
 31
0.0
  0
LINE
  8
0
 62
     160
 10
1.66943
 20
0.541287
 30
0.0
 11
1.73812
 21
0.461154
 31
0.0
  0
LINE
  8
0
 62
     160
 10
1.73812
 20
0.461154
 30
0.0
 11
1.74761
 21
0.459201
 31
0.0
  0
LINE
  8
0
 62
     160
 10
1.74761
 20
0.459201
 30
0.0
 11
1.77121
 21
0.471029
 31
0.0
  0
LINE
  8
0
 62
     160
 10
1.77121
 20
0.471029
 30
0.0
 11
1.77561
 21
0.478082
 31
0.0
  0
LINE
  8
0
 62
     160
 10
1.77561
 20
0.478082
 30
0.0
 11
1.77561
 21
0.522081
 31
0.0
  0
LINE
  8
0
 62
     160
 10
1.77561
 20
0.522081
 30
0.0
 11
1.7946
 21
0.541069
 31
0.0
  0
LINE
  8
0
 62
     160
 10
1.7946
 20
0.541069
 30
0.0
 11
2.00028
 21
0.541069
 31
0.0
  0
LINE
  8
0
 62
     160
 10
2.00028
 20
0.541069
 30
0.0
 11
2.05697
 21
0.473036
 31
0.0
  0
LINE
  8
0
 62
     160
 10
2.05697
 20
0.473036
 30
0.0
 11
2.06299
 21
0.470161
 31
0.0
  0
LINE
  8
0
 62
     160
 10
2.06299
 20
0.470161
 30
0.0
 11
2.14567
 21
0.470161
 31
0.0
  0
LINE
  8
0
 62
     160
 10
2.14567
 20
0.470161
 30
0.0
 11
2.15039
 21
0.471789
 31
0.0
  0
LINE
  8
0
 62
     160
 10
2.15039
 20
0.471789
 30
0.0
 11
2.24278
 21
0.541069
 31
0.0
  0
LINE
  8
0
 62
     160
 10
2.24278
 20
0.541069
 30
0.0
 11
2.35639
 21
0.541069
 31
0.0
  0
LINE
  8
0
 62
     160
 10
2.35639
 20
0.541069
 30
0.0
 11
2.44922
 21
0.494629
 31
0.0
  0
LINE
  8
0
 62
     160
 10
2.44922
 20
0.494629
 30
0.0
 11
2.45275
 21
0.493815
 31
0.0
  0
LINE
  8
0
 62
     160
 10
2.45275
 20
0.493815
 30
0.0
 11
2.56847
 21
0.493815
 31
0.0
  0
LINE
  8
0
 62
     160
 10
2.56847
 20
0.493815
 30
0.0
 11
2.60194
 21
0.471517
 31
0.0
  0
LINE
  8
0
 62
     160
 10
2.60194
 20
0.471517
 30
0.0
 11
2.60742
 21
0.470269
 31
0.0
  0
LINE
  8
0
 62
     160
 10
2.60742
 20
0.470269
 30
0.0
 11
2.69011
 21
0.482096
 31
0.0
  0
LINE
  8
0
 62
     160
 10
2.69011
 20
0.482096
 30
0.0
 11
2.69456
 21
0.484321
 31
0.0
  0
LINE
  8
0
 62
     160
 10
2.69456
 20
0.484321
 30
0.0
 11
2.75131
 21
0.541069
 31
0.0
  0
LINE
  8
0
 62
     160
 10
2.75131
 20
0.541069
 30
0.0
 11
2.86426
 21
0.541069
 31
0.0
  0
LINE
  8
0
 62
     160
 10
2.86426
 20
0.541069
 30
0.0
 11
2.90989
 21
0.518283
 31
0.0
  0
LINE
  8
0
 62
     160
 10
2.90989
 20
0.518283
 30
0.0
 11
2.91743
 21
0.518554
 31
0.0
  0
LINE
  8
0
 62
     160
 10
2.91743
 20
0.518554
 30
0.0
 11
2.97461
 21
0.552843
 31
0.0
  0
LINE
  8
0
 62
     160
 10
2.97461
 20
0.552843
 30
0.0
 11
3.08729
 21
0.552843
 31
0.0
  0
LINE
  8
0
 62
     160
 10
3.08729
 20
0.552843
 30
0.0
 11
3.13222
 21
0.507921
 31
0.0
  0
LINE
  8
0
 62
     160
 10
3.13222
 20
0.507921
 30
0.0
 11
3.13781
 21
0.505588
 31
0.0
  0
LINE
  8
0
 62
     160
 10
3.13781
 20
0.505588
 30
0.0
 11
3.18506
 21
0.505588
 31
0.0
  0
LINE
  8
0
 62
     160
 10
3.18506
 20
0.505588
 30
0.0
 11
3.18978
 21
0.507215
 31
0.0
  0
LINE
  8
0
 62
     160
 10
3.18978
 20
0.507215
 30
0.0
 11
3.23492
 21
0.541069
 31
0.0
  0
LINE
  8
0
 62
     160
 10
3.23492
 20
0.541069
 30
0.0
 11
3.35981
 21
0.541069
 31
0.0
  0
LINE
  8
0
 62
     160
 10
3.35981
 20
0.541069
 30
0.0
 11
3.39328
 21
0.518772
 31
0.0
  0
LINE
  8
0
 62
     160
 10
3.39328
 20
0.518772
 30
0.0
 11
3.39762
 21
0.517415
 31
0.0
  0
LINE
  8
0
 62
     160
 10
3.39762
 20
0.517415
 30
0.0
 11
3.57156
 21
0.517415
 31
0.0
  0
LINE
  8
0
 62
     160
 10
3.57156
 20
0.517415
 30
0.0
 11
3.61649
 21
0.472493
 31
0.0
  0
LINE
  8
0
 62
     160
 10
3.61649
 20
0.472493
 30
0.0
 11
3.62207
 21
0.470161
 31
0.0
  0
LINE
  8
0
 62
     160
 10
3.62207
 20
0.470161
 30
0.0
 11
3.6575
 21
0.470161
 31
0.0
  0
LINE
  8
0
 62
     160
 10
3.6575
 20
0.470161
 30
0.0
 11
3.66303
 21
0.472493
 31
0.0
  0
LINE
  8
0
 62
     160
 10
3.66303
 20
0.472493
 30
0.0
 11
3.73161
 21
0.541069
 31
0.0
  0
LINE
  8
0
 62
     160
 10
3.73161
 20
0.541069
 30
0.0
 11
3.85574
 21
0.541069
 31
0.0
  0
LINE
  8
0
 62
     160
 10
3.85574
 20
0.541069
 30
0.0
 11
3.93636
 21
0.483507
 31
0.0
  0
LINE
  8
0
 62
     160
 10
3.93636
 20
0.483507
 30
0.0
 11
3.93901
 21
0.48226
 31
0.0
  0
LINE
  8
0
 62
     160
 10
3.93901
 20
0.48226
 30
0.0
 11
3.98628
 21
0.470432
 31
0.0
  0
LINE
  8
0
 62
     160
 10
3.98628
 20
0.470432
 30
0.0
 11
3.99447
 21
0.473361
 31
0.0
  0
LINE
  8
0
 62
     160
 10
3.99447
 20
0.473361
 30
0.0
 11
4.02843
 21
0.518608
 31
0.0
  0
LINE
  8
0
 62
     160
 10
4.02843
 20
0.518608
 30
0.0
 11
4.06033
 21
0.529243
 31
0.0
  0
LINE
  8
0
 62
     160
 10
4.06033
 20
0.529243
 30
0.0
 11
4.19803
 21
0.529243
 31
0.0
  0
LINE
  8
0
 62
     160
 10
4.19803
 20
0.529243
 30
0.0
 11
4.25196
 21
0.486111
 31
0.0
  0
LINE
  8
0
 62
     160
 10
4.25196
 20
0.486111
 30
0.0
 11
4.25196
 21
0.326932
 31
0.0
  0
LINE
  8
0
 62
     160
 10
4.25196
 20
0.326932
 30
0.0
 11
4.23085
 21
0.295193
 31
0.0
  0
LINE
  8
0
 62
     160
 10
4.23085
 20
0.295193
 30
0.0
 11
4.18712
 21
0.273329
 31
0.0
  0
LINE
  8
0
 62
     160
 10
4.18712
 20
0.273329
 30
0.0
 11
4.07238
 21
0.273329
 31
0.0
  0
LINE
  8
0
 62
     160
 10
4.07238
 20
0.273329
 30
0.0
 11
4.01475
 21
0.296386
 31
0.0
  0
LINE
  8
0
 62
     160
 10
4.01475
 20
0.296386
 30
0.0
 11
4.00624
 21
0.29465
 31
0.0
  0
LINE
  8
0
 62
     160
 10
4.00624
 20
0.29465
 30
0.0
 11
3.97325
 21
0.261664
 31
0.0
  0
LINE
  8
0
 62
     160
 10
3.97325
 20
0.261664
 30
0.0
 11
3.70865
 21
0.273167
 31
0.0
  0
LINE
  8
0
 62
     160
 10
3.70865
 20
0.273167
 30
0.0
 11
3.66363
 21
0.329428
 31
0.0
  0
LINE
  8
0
 62
     160
 10
3.66363
 20
0.329428
 30
0.0
 11
3.6575
 21
0.332411
 31
0.0
  0
LINE
  8
0
 62
     160
 10
3.6575
 20
0.332411
 30
0.0
 11
3.58658
 21
0.332411
 31
0.0
  0
LINE
  8
0
 62
     160
 10
3.58658
 20
0.332411
 30
0.0
 11
3.58046
 21
0.329428
 31
0.0
  0
LINE
  8
0
 62
     160
 10
3.58046
 20
0.329428
 30
0.0
 11
3.53558
 21
0.273329
 31
0.0
  0
LINE
  8
0
 62
     160
 10
3.53558
 20
0.273329
 30
0.0
 11
3.42389
 21
0.273329
 31
0.0
  0
LINE
  8
0
 62
     160
 10
3.42389
 20
0.273329
 30
0.0
 11
3.39057
 21
0.29834
 31
0.0
  0
LINE
  8
0
 62
     160
 10
3.39057
 20
0.29834
 30
0.0
 11
3.38108
 21
0.285753
 31
0.0
  0
LINE
  8
0
 62
     160
 10
3.38108
 20
0.285753
 30
0.0
 11
3.40028
 21
0.271376
 31
0.0
  0
LINE
  8
0
 62
     160
 10
3.40028
 20
0.271376
 30
0.0
 11
3.40944
 21
0.271376
 31
0.0
  0
LINE
  8
0
 62
     160
 10
3.40944
 20
0.271376
 30
0.0
 11
3.40944
 21
0.264486
 31
0.0
  0
LINE
  8
0
 62
     160
 10
3.40944
 20
0.264486
 30
0.0
 11
3.4165
 21
0.259169
 31
0.0
  0
LINE
  8
0
 62
     160
 10
3.4165
 20
0.259169
 30
0.0
 11
3.42128
 21
0.257596
 31
0.0
  0
LINE
  8
0
 62
     160
 10
3.42128
 20
0.257596
 30
0.0
 11
3.53939
 21
0.257596
 31
0.0
  0
LINE
  8
0
 62
     160
 10
3.53939
 20
0.257596
 30
0.0
 11
3.54551
 21
0.260525
 31
0.0
  0
LINE
  8
0
 62
     160
 10
3.54551
 20
0.260525
 30
0.0
 11
3.59039
 21
0.316624
 31
0.0
  0
LINE
  8
0
 62
     160
 10
3.59039
 20
0.316624
 30
0.0
 11
3.65369
 21
0.316624
 31
0.0
  0
LINE
  8
0
 62
     160
 10
3.65369
 20
0.316624
 30
0.0
 11
3.69857
 21
0.260525
 31
0.0
  0
LINE
  8
0
 62
     160
 10
3.69857
 20
0.260525
 30
0.0
 11
3.70437
 21
0.257596
 31
0.0
  0
LINE
  8
0
 62
     160
 10
3.70437
 20
0.257596
 30
0.0
 11
3.97601
 21
0.245768
 31
0.0
  0
LINE
  8
0
 62
     160
 10
3.97601
 20
0.245768
 30
0.0
 11
3.9764
 21
0.245768
 31
0.0
  0
LINE
  8
0
 62
     160
 10
3.9764
 20
0.245768
 30
0.0
 11
3.98193
 21
0.248101
 31
0.0
  0
LINE
  8
0
 62
     160
 10
3.98193
 20
0.248101
 30
0.0
 11
4.01372
 21
0.279893
 31
0.0
  0
LINE
  8
0
 62
     160
 10
4.01372
 20
0.279893
 30
0.0
 11
4.06793
 21
0.258192
 31
0.0
  0
LINE
  8
0
 62
     160
 10
4.06793
 20
0.258192
 30
0.0
 11
4.07086
 21
0.257596
 31
0.0
  0
LINE
  8
0
 62
     160
 10
4.07086
 20
0.257596
 30
0.0
 11
4.18896
 21
0.257596
 31
0.0
  0
LINE
  8
0
 62
     160
 10
4.18896
 20
0.257596
 30
0.0
 11
4.19249
 21
0.25841
 31
0.0
  0
LINE
  8
0
 62
     160
 10
4.19249
 20
0.25841
 30
0.0
 11
4.23975
 21
0.282064
 31
0.0
  0
LINE
  8
0
 62
     160
 10
4.23975
 20
0.282064
 30
0.0
 11
4.24278
 21
0.284722
 31
0.0
  0
LINE
  8
0
 62
     160
 10
4.24278
 20
0.284722
 30
0.0
 11
4.26639
 21
0.32015
 31
0.0
  0
LINE
  8
0
 62
     160
 10
4.26639
 20
0.32015
 30
0.0
 11
4.26774
 21
0.324544
 31
0.0
  0
LINE
  8
0
 62
     160
 10
4.26774
 20
0.324544
 30
0.0
 11
4.26774
 21
0.489908
 31
0.0
  0
LINE
  8
0
 62
     160
 10
4.26774
 20
0.489908
 30
0.0
 11
4.26475
 21
0.496039
 31
0.0
  0
ENDSEC
  0
EOF
