  0
SECTION
  2
HEADER
  9
$ACADVER
  1
AC1009
  9
$EXTMIN
 10
0.0
 20
0.0
 30
0.0
  9
$EXTMAX
 10
1000.0
 20
1000.0
 30
0.0
  9
$FILLMODE
 70
 0
  9
$SPLFRAME
 70
 1
  0
ENDSEC
  0
SECTION
  2
TABLES
  0
TABLE
  2
LAYER
 70
1
  0
LAYER
  2
0
 70
     0
 62
     7
  6
CONTINUOUS
  0
ENDTAB
  0
ENDSEC
  0
SECTION
  2
ENTITIES
  0
LINE
  8
0
 62
     4
 10
2.71457
 20
0.0689019
 30
0.0
 11
2.30908
 21
0.0689019
 31
0.0
  0
LINE
  8
0
 62
     4
 10
2.30908
 20
0.0689019
 30
0.0
 11
2.30908
 21
0.206706
 31
0.0
  0
LINE
  8
0
 62
     4
 10
2.30908
 20
0.206706
 30
0.0
 11
2.71457
 21
0.206706
 31
0.0
  0
LINE
  8
0
 62
     4
 10
2.71457
 20
0.206706
 30
0.0
 11
2.71457
 21
0.0689019
 31
0.0
  0
LINE
  8
0
 62
     4
 10
2.78737
 20
0.200792
 30
0.0
 11
2.76378
 21
0.248047
 31
0.0
  0
LINE
  8
0
 62
     4
 10
2.76378
 20
0.248047
 30
0.0
 11
2.70469
 21
0.295301
 31
0.0
  0
LINE
  8
0
 62
     4
 10
2.70469
 20
0.295301
 30
0.0
 11
2.39762
 21
0.295301
 31
0.0
  0
LINE
  8
0
 62
     4
 10
2.39762
 20
0.295301
 30
0.0
 11
2.35042
 21
0.259819
 31
0.0
  0
LINE
  8
0
 62
     4
 10
2.35042
 20
0.259819
 30
0.0
 11
2.26774
 21
0.295301
 31
0.0
  0
LINE
  8
0
 62
     4
 10
2.26774
 20
0.295301
 30
0.0
 11
1.70079
 21
0.283475
 31
0.0
  0
LINE
  8
0
 62
     4
 10
1.70079
 20
0.283475
 30
0.0
 11
1.66536
 21
0.236219
 31
0.0
  0
LINE
  8
0
 62
     4
 10
1.66536
 20
0.236219
 30
0.0
 11
1.64171
 21
0.236219
 31
0.0
  0
LINE
  8
0
 62
     4
 10
1.64171
 20
0.236219
 30
0.0
 11
1.59451
 21
0.295301
 31
0.0
  0
LINE
  8
0
 62
     4
 10
1.59451
 20
0.295301
 30
0.0
 11
1.4764
 21
0.295301
 31
0.0
  0
LINE
  8
0
 62
     4
 10
1.4764
 20
0.295301
 30
0.0
 11
1.46457
 21
0.307129
 31
0.0
  0
LINE
  8
0
 62
     4
 10
1.46457
 20
0.307129
 30
0.0
 11
1.51183
 21
0.354329
 31
0.0
  0
LINE
  8
0
 62
     4
 10
1.51183
 20
0.354329
 30
0.0
 11
1.51183
 21
0.496094
 31
0.0
  0
LINE
  8
0
 62
     4
 10
1.51183
 20
0.496094
 30
0.0
 11
1.4764
 21
0.555122
 31
0.0
  0
LINE
  8
0
 62
     4
 10
1.4764
 20
0.555122
 30
0.0
 11
1.46457
 21
0.555122
 31
0.0
  0
LINE
  8
0
 62
     4
 10
1.46457
 20
0.555122
 30
0.0
 11
1.46457
 21
0.549263
 31
0.0
  0
LINE
  8
0
 62
     4
 10
1.46457
 20
0.549263
 30
0.0
 11
1.27365
 21
0.549263
 31
0.0
  0
LINE
  8
0
 62
     4
 10
1.27365
 20
0.549263
 30
0.0
 11
1.27365
 21
0.444119
 31
0.0
  0
LINE
  8
0
 62
     4
 10
1.27365
 20
0.444119
 30
0.0
 11
1.28798
 21
0.42334
 31
0.0
  0
LINE
  8
0
 62
     4
 10
1.28798
 20
0.42334
 30
0.0
 11
1.29329
 21
0.397678
 31
0.0
  0
LINE
  8
0
 62
     4
 10
1.29329
 20
0.397678
 30
0.0
 11
1.28814
 21
0.372396
 31
0.0
  0
LINE
  8
0
 62
     4
 10
1.28814
 20
0.372396
 30
0.0
 11
1.27425
 21
0.351779
 31
0.0
  0
LINE
  8
0
 62
     4
 10
1.27425
 20
0.351779
 30
0.0
 11
1.25358
 21
0.337836
 31
0.0
  0
LINE
  8
0
 62
     4
 10
1.25358
 20
0.337836
 30
0.0
 11
1.22835
 21
0.332682
 31
0.0
  0
LINE
  8
0
 62
     4
 10
1.22835
 20
0.332682
 30
0.0
 11
1.20302
 21
0.337836
 31
0.0
  0
LINE
  8
0
 62
     4
 10
1.20302
 20
0.337836
 30
0.0
 11
1.1824
 21
0.351779
 31
0.0
  0
LINE
  8
0
 62
     4
 10
1.1824
 20
0.351779
 30
0.0
 11
1.16846
 21
0.372396
 31
0.0
  0
LINE
  8
0
 62
     4
 10
1.16846
 20
0.372396
 30
0.0
 11
1.16341
 21
0.397678
 31
0.0
  0
LINE
  8
0
 62
     4
 10
1.16341
 20
0.397678
 30
0.0
 11
1.16867
 21
0.42334
 31
0.0
  0
LINE
  8
0
 62
     4
 10
1.16867
 20
0.42334
 30
0.0
 11
1.18305
 21
0.444119
 31
0.0
  0
LINE
  8
0
 62
     4
 10
1.18305
 20
0.444119
 30
0.0
 11
1.18305
 21
0.549263
 31
0.0
  0
LINE
  8
0
 62
     4
 10
1.18305
 20
0.549263
 30
0.0
 11
0.992133
 21
0.549263
 31
0.0
  0
LINE
  8
0
 62
     4
 10
0.992133
 20
0.549263
 30
0.0
 11
0.992133
 21
0.555122
 31
0.0
  0
LINE
  8
0
 62
     4
 10
0.992133
 20
0.555122
 30
0.0
 11
0.838596
 21
0.555122
 31
0.0
  0
LINE
  8
0
 62
     4
 10
0.838596
 20
0.555122
 30
0.0
 11
0.803168
 21
0.531521
 31
0.0
  0
LINE
  8
0
 62
     4
 10
0.803168
 20
0.531521
 30
0.0
 11
0.720486
 21
0.531521
 31
0.0
  0
LINE
  8
0
 62
     4
 10
0.720486
 20
0.531521
 30
0.0
 11
0.685058
 21
0.555122
 31
0.0
  0
LINE
  8
0
 62
     4
 10
0.685058
 20
0.555122
 30
0.0
 11
0.507867
 21
0.555122
 31
0.0
  0
LINE
  8
0
 62
     4
 10
0.507867
 20
0.555122
 30
0.0
 11
0.484267
 21
0.531521
 31
0.0
  0
LINE
  8
0
 62
     4
 10
0.484267
 20
0.531521
 30
0.0
 11
0.448839
 21
0.555122
 31
0.0
  0
LINE
  8
0
 62
     4
 10
0.448839
 20
0.555122
 30
0.0
 11
0.0236003
 21
0.555122
 31
0.0
  0
LINE
  8
0
 62
     4
 10
0.0236003
 20
0.555122
 30
0.0
 11
0
 21
0.531521
 31
0.0
  0
LINE
  8
0
 62
     4
 10
0
 20
0.531521
 30
0.0
 11
0
 21
0.342557
 31
0.0
  0
LINE
  8
0
 62
     4
 10
0
 20
0.342557
 30
0.0
 11
0.0236003
 21
0.318901
 31
0.0
  0
LINE
  8
0
 62
     4
 10
0.0236003
 20
0.318901
 30
0.0
 11
0.425185
 21
0.318901
 31
0.0
  0
LINE
  8
0
 62
     4
 10
0.425185
 20
0.318901
 30
0.0
 11
0.472439
 21
0.413411
 31
0.0
  0
LINE
  8
0
 62
     4
 10
0.472439
 20
0.413411
 30
0.0
 11
0.484267
 21
0.342557
 31
0.0
  0
LINE
  8
0
 62
     4
 10
0.484267
 20
0.342557
 30
0.0
 11
0.519694
 21
0.307129
 31
0.0
  0
LINE
  8
0
 62
     4
 10
0.519694
 20
0.307129
 30
0.0
 11
0.637804
 21
0.307129
 31
0.0
  0
LINE
  8
0
 62
     4
 10
0.637804
 20
0.307129
 30
0.0
 11
0.673232
 21
0.283475
 31
0.0
  0
LINE
  8
0
 62
     4
 10
0.673232
 20
0.283475
 30
0.0
 11
0.755914
 21
0.271701
 31
0.0
  0
LINE
  8
0
 62
     4
 10
0.755914
 20
0.271701
 30
0.0
 11
0.720486
 21
0.248047
 31
0.0
  0
LINE
  8
0
 62
     4
 10
0.720486
 20
0.248047
 30
0.0
 11
0.661404
 21
0.248047
 31
0.0
  0
LINE
  8
0
 62
     4
 10
0.661404
 20
0.248047
 30
0.0
 11
0.61415
 21
0.283475
 31
0.0
  0
LINE
  8
0
 62
     4
 10
0.61415
 20
0.283475
 30
0.0
 11
0.366157
 21
0.271701
 31
0.0
  0
LINE
  8
0
 62
     4
 10
0.366157
 20
0.271701
 30
0.0
 11
0.295301
 21
0.295301
 31
0.0
  0
LINE
  8
0
 62
     4
 10
0.295301
 20
0.295301
 30
0.0
 11
0.11811
 21
0.295301
 31
0.0
  0
LINE
  8
0
 62
     4
 10
0.11811
 20
0.295301
 30
0.0
 11
0.0945096
 21
0.271701
 31
0.0
  0
LINE
  8
0
 62
     4
 10
0.0945096
 20
0.271701
 30
0.0
 11
0.0945096
 21
0.0826822
 31
0.0
  0
LINE
  8
0
 62
     4
 10
0.0945096
 20
0.0826822
 30
0.0
 11
0.200792
 21
0.0118273
 31
0.0
  0
LINE
  8
0
 62
     4
 10
0.200792
 20
0.0118273
 30
0.0
 11
1.02756
 21
0.0236544
 31
0.0
  0
LINE
  8
0
 62
     4
 10
1.02756
 20
0.0236544
 30
0.0
 11
1.66536
 21
-0
 31
0.0
  0
LINE
  8
0
 62
     4
 10
1.66536
 20
-0
 30
0.0
 11
1.68896
 21
0.0236544
 31
0.0
  0
LINE
  8
0
 62
     4
 10
1.68896
 20
0.0236544
 30
0.0
 11
2.26774
 21
-0
 31
0.0
  0
LINE
  8
0
 62
     4
 10
2.26774
 20
-0
 30
0.0
 11
2.81104
 21
0.0118273
 31
0.0
  0
LINE
  8
0
 62
     4
 10
2.81104
 20
0.0118273
 30
0.0
 11
2.83464
 21
0.0354818
 31
0.0
  0
LINE
  8
0
 62
     4
 10
2.83464
 20
0.0354818
 30
0.0
 11
2.83464
 21
0.177192
 31
0.0
  0
LINE
  8
0
 62
     4
 10
2.83464
 20
0.177192
 30
0.0
 11
2.78737
 21
0.200792
 31
0.0
  0
ENDSEC
  0
EOF
