  0
SECTION
  2
HEADER
  9
$ACADVER
  1
AC1009
  9
$EXTMIN
 10
0.0
 20
0.0
 30
0.0
  9
$EXTMAX
 10
1000.0
 20
1000.0
 30
0.0
  9
$FILLMODE
 70
 0
  9
$SPLFRAME
 70
 1
  0
ENDSEC
  0
SECTION
  2
TABLES
  0
TABLE
  2
LAYER
 70
1
  0
LAYER
  2
0
 70
     0
 62
     7
  6
CONTINUOUS
  0
ENDTAB
  0
ENDSEC
  0
SECTION
  2
ENTITIES
  0
LINE
  8
0
 62
     160
 10
2.84603
 20
0.192111
 30
0.0
 11
2.80117
 21
0.214518
 31
0.0
  0
LINE
  8
0
 62
     160
 10
2.80117
 20
0.214518
 30
0.0
 11
2.77869
 21
0.25944
 31
0.0
  0
LINE
  8
0
 62
     160
 10
2.77869
 20
0.25944
 30
0.0
 11
2.77658
 21
0.262044
 31
0.0
  0
LINE
  8
0
 62
     160
 10
2.77658
 20
0.262044
 30
0.0
 11
2.7175
 21
0.309299
 31
0.0
  0
LINE
  8
0
 62
     160
 10
2.7175
 20
0.309299
 30
0.0
 11
2.71263
 21
0.311035
 31
0.0
  0
LINE
  8
0
 62
     160
 10
2.71263
 20
0.311035
 30
0.0
 11
2.40549
 21
0.311035
 31
0.0
  0
LINE
  8
0
 62
     160
 10
2.40549
 20
0.311035
 30
0.0
 11
2.40076
 21
0.309461
 31
0.0
  0
LINE
  8
0
 62
     160
 10
2.40076
 20
0.309461
 30
0.0
 11
2.35721
 21
0.276747
 31
0.0
  0
LINE
  8
0
 62
     160
 10
2.35721
 20
0.276747
 30
0.0
 11
2.27869
 21
0.310385
 31
0.0
  0
LINE
  8
0
 62
     160
 10
2.27869
 20
0.310385
 30
0.0
 11
2.27544
 21
0.311035
 31
0.0
  0
LINE
  8
0
 62
     160
 10
2.27544
 20
0.311035
 30
0.0
 11
1.7085
 21
0.299208
 31
0.0
  0
LINE
  8
0
 62
     160
 10
1.7085
 20
0.299208
 30
0.0
 11
1.70236
 21
0.296061
 31
0.0
  0
LINE
  8
0
 62
     160
 10
1.70236
 20
0.296061
 30
0.0
 11
1.66928
 21
0.252007
 31
0.0
  0
LINE
  8
0
 62
     160
 10
1.66928
 20
0.252007
 30
0.0
 11
1.65338
 21
0.252007
 31
0.0
  0
LINE
  8
0
 62
     160
 10
1.65338
 20
0.252007
 30
0.0
 11
1.6085
 21
0.308051
 31
0.0
  0
LINE
  8
0
 62
     160
 10
1.6085
 20
0.308051
 30
0.0
 11
1.60238
 21
0.311035
 31
0.0
  0
LINE
  8
0
 62
     160
 10
1.60238
 20
0.311035
 30
0.0
 11
1.48753
 21
0.311035
 31
0.0
  0
LINE
  8
0
 62
     160
 10
1.48753
 20
0.311035
 30
0.0
 11
1.48356
 21
0.314996
 31
0.0
  0
LINE
  8
0
 62
     160
 10
1.48356
 20
0.314996
 30
0.0
 11
1.52522
 21
0.356608
 31
0.0
  0
LINE
  8
0
 62
     160
 10
1.52522
 20
0.356608
 30
0.0
 11
1.52756
 21
0.362196
 31
0.0
  0
LINE
  8
0
 62
     160
 10
1.52756
 20
0.362196
 30
0.0
 11
1.52756
 21
0.503961
 31
0.0
  0
LINE
  8
0
 62
     160
 10
1.52756
 20
0.503961
 30
0.0
 11
1.52582
 21
0.508843
 31
0.0
  0
LINE
  8
0
 62
     160
 10
1.52582
 20
0.508843
 30
0.0
 11
1.47857
 21
0.567925
 31
0.0
  0
LINE
  8
0
 62
     160
 10
1.47857
 20
0.567925
 30
0.0
 11
1.47244
 21
0.562989
 31
0.0
  0
LINE
  8
0
 62
     160
 10
1.47244
 20
0.562989
 30
0.0
 11
1.47244
 21
0.550401
 31
0.0
  0
LINE
  8
0
 62
     160
 10
1.47244
 20
0.550401
 30
0.0
 11
1.51183
 21
0.501193
 31
0.0
  0
LINE
  8
0
 62
     160
 10
1.51183
 20
0.501193
 30
0.0
 11
1.51183
 21
0.365451
 31
0.0
  0
LINE
  8
0
 62
     160
 10
1.51183
 20
0.365451
 30
0.0
 11
1.46685
 21
0.320583
 31
0.0
  0
LINE
  8
0
 62
     160
 10
1.46685
 20
0.320583
 30
0.0
 11
1.46685
 21
0.309407
 31
0.0
  0
LINE
  8
0
 62
     160
 10
1.46685
 20
0.309407
 30
0.0
 11
1.47868
 21
0.297581
 31
0.0
  0
LINE
  8
0
 62
     160
 10
1.47868
 20
0.297581
 30
0.0
 11
1.48426
 21
0.295247
 31
0.0
  0
LINE
  8
0
 62
     160
 10
1.48426
 20
0.295247
 30
0.0
 11
1.59858
 21
0.295247
 31
0.0
  0
LINE
  8
0
 62
     160
 10
1.59858
 20
0.295247
 30
0.0
 11
1.64344
 21
0.23915
 31
0.0
  0
LINE
  8
0
 62
     160
 10
1.64344
 20
0.23915
 30
0.0
 11
1.64963
 21
0.236219
 31
0.0
  0
LINE
  8
0
 62
     160
 10
1.64963
 20
0.236219
 30
0.0
 11
1.67324
 21
0.236219
 31
0.0
  0
LINE
  8
0
 62
     160
 10
1.67324
 20
0.236219
 30
0.0
 11
1.67953
 21
0.239367
 31
0.0
  0
LINE
  8
0
 62
     160
 10
1.67953
 20
0.239367
 30
0.0
 11
1.71267
 21
0.283529
 31
0.0
  0
LINE
  8
0
 62
     160
 10
1.71267
 20
0.283529
 30
0.0
 11
2.27403
 21
0.295247
 31
0.0
  0
LINE
  8
0
 62
     160
 10
2.27403
 20
0.295247
 30
0.0
 11
2.35514
 21
0.260471
 31
0.0
  0
LINE
  8
0
 62
     160
 10
2.35514
 20
0.260471
 30
0.0
 11
2.36301
 21
0.261447
 31
0.0
  0
LINE
  8
0
 62
     160
 10
2.36301
 20
0.261447
 30
0.0
 11
2.40815
 21
0.295247
 31
0.0
  0
LINE
  8
0
 62
     160
 10
2.40815
 20
0.295247
 30
0.0
 11
2.70985
 21
0.295247
 31
0.0
  0
LINE
  8
0
 62
     160
 10
2.70985
 20
0.295247
 30
0.0
 11
2.7654
 21
0.250868
 31
0.0
  0
LINE
  8
0
 62
     160
 10
2.7654
 20
0.250868
 30
0.0
 11
2.78825
 21
0.205132
 31
0.0
  0
LINE
  8
0
 62
     160
 10
2.78825
 20
0.205132
 30
0.0
 11
2.79178
 21
0.20166
 31
0.0
  0
LINE
  8
0
 62
     160
 10
2.79178
 20
0.20166
 30
0.0
 11
2.83464
 21
0.180176
 31
0.0
  0
LINE
  8
0
 62
     160
 10
2.83464
 20
0.180176
 30
0.0
 11
2.83464
 21
0.0466037
 31
0.0
  0
LINE
  8
0
 62
     160
 10
2.83464
 20
0.0466037
 30
0.0
 11
2.8156
 21
0.0275065
 31
0.0
  0
LINE
  8
0
 62
     160
 10
2.8156
 20
0.0275065
 30
0.0
 11
2.27593
 21
0.0157335
 31
0.0
  0
LINE
  8
0
 62
     160
 10
2.27593
 20
0.0157335
 30
0.0
 11
1.69715
 21
0.0393881
 31
0.0
  0
LINE
  8
0
 62
     160
 10
1.69715
 20
0.0393881
 30
0.0
 11
1.69129
 21
0.0370551
 31
0.0
  0
LINE
  8
0
 62
     160
 10
1.69129
 20
0.0370551
 30
0.0
 11
1.67008
 21
0.0158963
 31
0.0
  0
LINE
  8
0
 62
     160
 10
1.67008
 20
0.0158963
 30
0.0
 11
1.03532
 21
0.0393881
 31
0.0
  0
LINE
  8
0
 62
     160
 10
1.03532
 20
0.0393881
 30
0.0
 11
0.210992
 21
0.027615
 31
0.0
  0
LINE
  8
0
 62
     160
 10
0.210992
 20
0.027615
 30
0.0
 11
0.110243
 21
0.0947808
 31
0.0
  0
LINE
  8
0
 62
     160
 10
0.110243
 20
0.0947808
 30
0.0
 11
0.110243
 21
0.276313
 31
0.0
  0
LINE
  8
0
 62
     160
 10
0.110243
 20
0.276313
 30
0.0
 11
0.129232
 21
0.295247
 31
0.0
  0
LINE
  8
0
 62
     160
 10
0.129232
 20
0.295247
 30
0.0
 11
0.301867
 21
0.295247
 31
0.0
  0
LINE
  8
0
 62
     160
 10
0.301867
 20
0.295247
 30
0.0
 11
0.371528
 21
0.272081
 31
0.0
  0
LINE
  8
0
 62
     160
 10
0.371528
 20
0.272081
 30
0.0
 11
0.374403
 21
0.271701
 31
0.0
  0
LINE
  8
0
 62
     160
 10
0.374403
 20
0.271701
 30
0.0
 11
0.619575
 21
0.283365
 31
0.0
  0
LINE
  8
0
 62
     160
 10
0.619575
 20
0.283365
 30
0.0
 11
0.664551
 21
0.249621
 31
0.0
  0
LINE
  8
0
 62
     160
 10
0.664551
 20
0.249621
 30
0.0
 11
0.669271
 21
0.248047
 31
0.0
  0
LINE
  8
0
 62
     160
 10
0.669271
 20
0.248047
 30
0.0
 11
0.728353
 21
0.248047
 31
0.0
  0
LINE
  8
0
 62
     160
 10
0.728353
 20
0.248047
 30
0.0
 11
0.732693
 21
0.249403
 31
0.0
  0
LINE
  8
0
 62
     160
 10
0.732693
 20
0.249403
 30
0.0
 11
0.768121
 21
0.273003
 31
0.0
  0
LINE
  8
0
 62
     160
 10
0.768121
 20
0.273003
 30
0.0
 11
0.771431
 21
0.281304
 31
0.0
  0
LINE
  8
0
 62
     160
 10
0.771431
 20
0.281304
 30
0.0
 11
0.764919
 21
0.287326
 31
0.0
  0
LINE
  8
0
 62
     160
 10
0.764919
 20
0.287326
 30
0.0
 11
0.683974
 21
0.298882
 31
0.0
  0
LINE
  8
0
 62
     160
 10
0.683974
 20
0.298882
 30
0.0
 11
0.650011
 21
0.321506
 31
0.0
  0
LINE
  8
0
 62
     160
 10
0.650011
 20
0.321506
 30
0.0
 11
0.645671
 21
0.322862
 31
0.0
  0
LINE
  8
0
 62
     160
 10
0.645671
 20
0.322862
 30
0.0
 11
0.530817
 21
0.322862
 31
0.0
  0
LINE
  8
0
 62
     160
 10
0.530817
 20
0.322862
 30
0.0
 11
0.499457
 21
0.354167
 31
0.0
  0
LINE
  8
0
 62
     160
 10
0.499457
 20
0.354167
 30
0.0
 11
0.488064
 21
0.422526
 31
0.0
  0
LINE
  8
0
 62
     160
 10
0.488064
 20
0.422526
 30
0.0
 11
0.4815
 21
0.429036
 31
0.0
  0
LINE
  8
0
 62
     160
 10
0.4815
 20
0.429036
 30
0.0
 11
0.473307
 21
0.424804
 31
0.0
  0
LINE
  8
0
 62
     160
 10
0.473307
 20
0.424804
 30
0.0
 11
0.428222
 21
0.334636
 31
0.0
  0
LINE
  8
0
 62
     160
 10
0.428222
 20
0.334636
 30
0.0
 11
0.0347765
 21
0.334636
 31
0.0
  0
LINE
  8
0
 62
     160
 10
0.0347765
 20
0.334636
 30
0.0
 11
0.0157335
 21
0.353678
 31
0.0
  0
LINE
  8
0
 62
     160
 10
0.0157335
 20
0.353678
 30
0.0
 11
0.0157335
 21
0.536133
 31
0.0
  0
LINE
  8
0
 62
     160
 10
0.0157335
 20
0.536133
 30
0.0
 11
0.0347765
 21
0.555122
 31
0.0
  0
LINE
  8
0
 62
     160
 10
0.0347765
 20
0.555122
 30
0.0
 11
0.454318
 21
0.555122
 31
0.0
  0
LINE
  8
0
 62
     160
 10
0.454318
 20
0.555122
 30
0.0
 11
0.487739
 21
0.532824
 31
0.0
  0
LINE
  8
0
 62
     160
 10
0.487739
 20
0.532824
 30
0.0
 11
0.497721
 21
0.5338
 31
0.0
  0
LINE
  8
0
 62
     160
 10
0.497721
 20
0.5338
 30
0.0
 11
0.518989
 21
0.555122
 31
0.0
  0
LINE
  8
0
 62
     160
 10
0.518989
 20
0.555122
 30
0.0
 11
0.690539
 21
0.555122
 31
0.0
  0
LINE
  8
0
 62
     160
 10
0.690539
 20
0.555122
 30
0.0
 11
0.723958
 21
0.532824
 31
0.0
  0
LINE
  8
0
 62
     160
 10
0.723958
 20
0.532824
 30
0.0
 11
0.728353
 21
0.531467
 31
0.0
  0
LINE
  8
0
 62
     160
 10
0.728353
 20
0.531467
 30
0.0
 11
0.811035
 21
0.531467
 31
0.0
  0
LINE
  8
0
 62
     160
 10
0.811035
 20
0.531467
 30
0.0
 11
0.815375
 21
0.532824
 31
0.0
  0
LINE
  8
0
 62
     160
 10
0.815375
 20
0.532824
 30
0.0
 11
0.84885
 21
0.555122
 31
0.0
  0
LINE
  8
0
 62
     160
 10
0.84885
 20
0.555122
 30
0.0
 11
1
 21
0.555122
 31
0.0
  0
LINE
  8
0
 62
     160
 10
1
 20
0.555122
 30
0.0
 11
1
 21
0.570856
 31
0.0
  0
LINE
  8
0
 62
     160
 10
1
 20
0.570856
 30
0.0
 11
0.846463
 21
0.570856
 31
0.0
  0
LINE
  8
0
 62
     160
 10
0.846463
 20
0.570856
 30
0.0
 11
0.842068
 21
0.569553
 31
0.0
  0
LINE
  8
0
 62
     160
 10
0.842068
 20
0.569553
 30
0.0
 11
0.808649
 21
0.547254
 31
0.0
  0
LINE
  8
0
 62
     160
 10
0.808649
 20
0.547254
 30
0.0
 11
0.73074
 21
0.547254
 31
0.0
  0
LINE
  8
0
 62
     160
 10
0.73074
 20
0.547254
 30
0.0
 11
0.697265
 21
0.569553
 31
0.0
  0
LINE
  8
0
 62
     160
 10
0.697265
 20
0.569553
 30
0.0
 11
0.692925
 21
0.570856
 31
0.0
  0
LINE
  8
0
 62
     160
 10
0.692925
 20
0.570856
 30
0.0
 11
0.515733
 21
0.570856
 31
0.0
  0
LINE
  8
0
 62
     160
 10
0.515733
 20
0.570856
 30
0.0
 11
0.5102
 21
0.568576
 31
0.0
  0
LINE
  8
0
 62
     160
 10
0.5102
 20
0.568576
 30
0.0
 11
0.491103
 21
0.549479
 31
0.0
  0
LINE
  8
0
 62
     160
 10
0.491103
 20
0.549479
 30
0.0
 11
0.461046
 21
0.569553
 31
0.0
  0
LINE
  8
0
 62
     160
 10
0.461046
 20
0.569553
 30
0.0
 11
0.456706
 21
0.570856
 31
0.0
  0
LINE
  8
0
 62
     160
 10
0.456706
 20
0.570856
 30
0.0
 11
0.0315213
 21
0.570856
 31
0.0
  0
LINE
  8
0
 62
     160
 10
0.0315213
 20
0.570856
 30
0.0
 11
0.0259332
 21
0.568576
 31
0.0
  0
LINE
  8
0
 62
     160
 10
0.0259332
 20
0.568576
 30
0.0
 11
0.0023329
 21
0.544922
 31
0.0
  0
LINE
  8
0
 62
     160
 10
0.0023329
 20
0.544922
 30
0.0
 11
0
 21
0.539387
 31
0.0
  0
LINE
  8
0
 62
     160
 10
0
 20
0.539387
 30
0.0
 11
0
 21
0.350424
 31
0.0
  0
LINE
  8
0
 62
     160
 10
0
 20
0.350424
 30
0.0
 11
0.0023329
 21
0.344835
 31
0.0
  0
LINE
  8
0
 62
     160
 10
0.0023329
 20
0.344835
 30
0.0
 11
0.0259332
 21
0.321235
 31
0.0
  0
LINE
  8
0
 62
     160
 10
0.0259332
 20
0.321235
 30
0.0
 11
0.0315213
 21
0.318901
 31
0.0
  0
LINE
  8
0
 62
     160
 10
0.0315213
 20
0.318901
 30
0.0
 11
0.433051
 21
0.318901
 31
0.0
  0
LINE
  8
0
 62
     160
 10
0.433051
 20
0.318901
 30
0.0
 11
0.440104
 21
0.323242
 31
0.0
  0
LINE
  8
0
 62
     160
 10
0.440104
 20
0.323242
 30
0.0
 11
0.476508
 21
0.396104
 31
0.0
  0
LINE
  8
0
 62
     160
 10
0.476508
 20
0.396104
 30
0.0
 11
0.484375
 21
0.349121
 31
0.0
  0
LINE
  8
0
 62
     160
 10
0.484375
 20
0.349121
 30
0.0
 11
0.486544
 21
0.344835
 31
0.0
  0
LINE
  8
0
 62
     160
 10
0.486544
 20
0.344835
 30
0.0
 11
0.521972
 21
0.309407
 31
0.0
  0
LINE
  8
0
 62
     160
 10
0.521972
 20
0.309407
 30
0.0
 11
0.527561
 21
0.307075
 31
0.0
  0
LINE
  8
0
 62
     160
 10
0.527561
 20
0.307075
 30
0.0
 11
0.643283
 21
0.307075
 31
0.0
  0
LINE
  8
0
 62
     160
 10
0.643283
 20
0.307075
 30
0.0
 11
0.676758
 21
0.284776
 31
0.0
  0
LINE
  8
0
 62
     160
 10
0.676758
 20
0.284776
 30
0.0
 11
0.680012
 21
0.283529
 31
0.0
  0
LINE
  8
0
 62
     160
 10
0.680012
 20
0.283529
 30
0.0
 11
0.742242
 21
0.274685
 31
0.0
  0
LINE
  8
0
 62
     160
 10
0.742242
 20
0.274685
 30
0.0
 11
0.725965
 21
0.263781
 31
0.0
  0
LINE
  8
0
 62
     160
 10
0.725965
 20
0.263781
 30
0.0
 11
0.671929
 21
0.263781
 31
0.0
  0
LINE
  8
0
 62
     160
 10
0.671929
 20
0.263781
 30
0.0
 11
0.62679
 21
0.297635
 31
0.0
  0
LINE
  8
0
 62
     160
 10
0.62679
 20
0.297635
 30
0.0
 11
0.62169
 21
0.299208
 31
0.0
  0
LINE
  8
0
 62
     160
 10
0.62169
 20
0.299208
 30
0.0
 11
0.375108
 21
0.287489
 31
0.0
  0
LINE
  8
0
 62
     160
 10
0.375108
 20
0.287489
 30
0.0
 11
0.305664
 21
0.310601
 31
0.0
  0
LINE
  8
0
 62
     160
 10
0.305664
 20
0.310601
 30
0.0
 11
0.303168
 21
0.311035
 31
0.0
  0
LINE
  8
0
 62
     160
 10
0.303168
 20
0.311035
 30
0.0
 11
0.125977
 21
0.311035
 31
0.0
  0
LINE
  8
0
 62
     160
 10
0.125977
 20
0.311035
 30
0.0
 11
0.120388
 21
0.308703
 31
0.0
  0
LINE
  8
0
 62
     160
 10
0.120388
 20
0.308703
 30
0.0
 11
0.0967882
 21
0.285101
 31
0.0
  0
LINE
  8
0
 62
     160
 10
0.0967882
 20
0.285101
 30
0.0
 11
0.0945096
 21
0.279568
 31
0.0
  0
LINE
  8
0
 62
     160
 10
0.0945096
 20
0.279568
 30
0.0
 11
0.0945096
 21
0.090549
 31
0.0
  0
LINE
  8
0
 62
     160
 10
0.0945096
 20
0.090549
 30
0.0
 11
0.0979818
 21
0.0839844
 31
0.0
  0
LINE
  8
0
 62
     160
 10
0.0979818
 20
0.0839844
 30
0.0
 11
0.204318
 21
0.0131293
 31
0.0
  0
LINE
  8
0
 62
     160
 10
0.204318
 20
0.0131293
 30
0.0
 11
0.208767
 21
0.0118273
 31
0.0
  0
LINE
  8
0
 62
     160
 10
0.208767
 20
0.0118273
 30
0.0
 11
1.03516
 21
0.0236544
 31
0.0
  0
LINE
  8
0
 62
     160
 10
1.03516
 20
0.0236544
 30
0.0
 11
1.67296
 21
-0
 31
0.0
  0
LINE
  8
0
 62
     160
 10
1.67296
 20
-0
 30
0.0
 11
1.67324
 21
-0
 31
0.0
  0
LINE
  8
0
 62
     160
 10
1.67324
 20
-0
 30
0.0
 11
1.67882
 21
0.0023329
 31
0.0
  0
LINE
  8
0
 62
     160
 10
1.67882
 20
0.0023329
 30
0.0
 11
1.69997
 21
0.0234918
 31
0.0
  0
LINE
  8
0
 62
     160
 10
1.69997
 20
0.0234918
 30
0.0
 11
2.27576
 21
-0
 31
0.0
  0
LINE
  8
0
 62
     160
 10
2.27576
 20
-0
 30
0.0
 11
2.81907
 21
0.0118273
 31
0.0
  0
LINE
  8
0
 62
     160
 10
2.81907
 20
0.0118273
 30
0.0
 11
2.82449
 21
0.0141601
 31
0.0
  0
LINE
  8
0
 62
     160
 10
2.82449
 20
0.0141601
 30
0.0
 11
2.84808
 21
0.0377604
 31
0.0
  0
LINE
  8
0
 62
     160
 10
2.84808
 20
0.0377604
 30
0.0
 11
2.85038
 21
0.0433485
 31
0.0
  0
LINE
  8
0
 62
     160
 10
2.85038
 20
0.0433485
 30
0.0
 11
2.85038
 21
0.185058
 31
0.0
  0
LINE
  8
0
 62
     160
 10
2.85038
 20
0.185058
 30
0.0
 11
2.84603
 21
0.192111
 31
0.0
  0
ENDSEC
  0
EOF
