solid OpenSCAD_Model
  facet normal 0 -1 0
    outer loop
      vertex 0 -0.2 2.6
      vertex 0 -0.2 0
      vertex 166.929 -0.2 0
    endloop
  endfacet
  facet normal 0 -1 0
    outer loop
      vertex 166.929 -0.2 2.6
      vertex 0 -0.2 2.6
      vertex 166.929 -0.2 0
    endloop
  endfacet
  facet normal 0 0 -1
    outer loop
      vertex 0 -0.2 0
      vertex 0 1.118 0
      vertex 166.929 -0.2 0
    endloop
  endfacet
  facet normal 0 0 -1
    outer loop
      vertex 166.929 -0.2 0
      vertex 0 1.118 0
      vertex 7.188 1.118 0
    endloop
  endfacet
  facet normal 0 0 -1
    outer loop
      vertex 166.929 -0.2 0
      vertex 7.188 1.118 0
      vertex 7.188 2.464 0
    endloop
  endfacet
  facet normal 0 0 -1
    outer loop
      vertex 7.188 2.464 0
      vertex 0 2.464 0
      vertex 0 3.788 0
    endloop
  endfacet
  facet normal 0 0 -1
    outer loop
      vertex 7.188 2.464 0
      vertex 0 3.788 0
      vertex 166.929 -0.2 0
    endloop
  endfacet
  facet normal 0 0 -1
    outer loop
      vertex 112.014 3.607 0
      vertex 0 3.788 0
      vertex 112.014 3.788 0
    endloop
  endfacet
  facet normal 0 0 -1
    outer loop
      vertex 166.929 -0.2 0
      vertex 0 3.788 0
      vertex 112.014 3.607 0
    endloop
  endfacet
  facet normal 0 0 -1
    outer loop
      vertex 166.929 -0.2 0
      vertex 123.419 3.607 0
      vertex 123.419 3.788 0
    endloop
  endfacet
  facet normal 0 0 -1
    outer loop
      vertex 166.929 -0.2 0
      vertex 123.419 3.788 0
      vertex 166.929 3.788 0
    endloop
  endfacet
  facet normal 0 0 -1
    outer loop
      vertex 166.929 -0.2 0
      vertex 166.929 3.788 0
      vertex 167.056 3.737 0
    endloop
  endfacet
  facet normal 0 0 -1
    outer loop
      vertex 166.929 -0.2 0
      vertex 167.056 3.737 0
      vertex 167.665 3.153 0
    endloop
  endfacet
  facet normal 0 0 -1
    outer loop
      vertex 166.929 -0.2 0
      vertex 167.665 3.153 0
      vertex 167.716 3 0
    endloop
  endfacet
  facet normal 0 0 -1
    outer loop
      vertex 166.929 -0.2 0
      vertex 167.716 3 0
      vertex 167.716 0.613 0
    endloop
  endfacet
  facet normal 0 0 -1
    outer loop
      vertex 166.929 -0.2 0
      vertex 167.716 0.613 0
      vertex 167.665 0.46 0
    endloop
  endfacet
  facet normal 0 0 -1
    outer loop
      vertex 166.929 -0.2 0
      vertex 167.665 0.46 0
      vertex 167.056 -0.149 0
    endloop
  endfacet
  facet normal 0 0 -1
    outer loop
      vertex 123.419 3.607 0
      vertex 166.929 -0.2 0
      vertex 112.014 3.607 0
    endloop
  endfacet
  facet normal -1 0 0
    outer loop
      vertex 0 1.118 1.4
      vertex 0 1.118 0
      vertex 0 0.206 1.4
    endloop
  endfacet
  facet normal -1 0 0
    outer loop
      vertex 0 -0.2 0
      vertex 0 -0.2 2.6
      vertex 0 0.206 1.4
    endloop
  endfacet
  facet normal -1 0 0
    outer loop
      vertex 0 -0.2 0
      vertex 0 0.206 1.4
      vertex 0 1.118 0
    endloop
  endfacet
  facet normal -1 0 0
    outer loop
      vertex 0 0.206 1.4
      vertex 0 -0.2 2.6
      vertex 0 0.206 2.6
    endloop
  endfacet
  facet normal 0 0 1
    outer loop
      vertex 0 0.206 2.6
      vertex 0 -0.2 2.6
      vertex 166.929 -0.2 2.6
    endloop
  endfacet
  facet normal 0 0 1
    outer loop
      vertex 166.853 0.206 2.6
      vertex 0 0.206 2.6
      vertex 167.056 -0.149 2.6
    endloop
  endfacet
  facet normal 0 0 1
    outer loop
      vertex 167.056 -0.149 2.6
      vertex 0 0.206 2.6
      vertex 166.929 -0.2 2.6
    endloop
  endfacet
  facet normal 0 0 1
    outer loop
      vertex 167.335 0.689 2.6
      vertex 167.665 0.46 2.6
      vertex 167.716 0.613 2.6
    endloop
  endfacet
  facet normal 0 0 1
    outer loop
      vertex 167.335 0.689 2.6
      vertex 166.853 0.206 2.6
      vertex 167.665 0.46 2.6
    endloop
  endfacet
  facet normal 0 0 1
    outer loop
      vertex 166.853 3.407 2.6
      vertex 167.716 3 2.6
      vertex 167.665 3.153 2.6
    endloop
  endfacet
  facet normal 0 0 1
    outer loop
      vertex 166.853 3.407 2.6
      vertex 167.335 2.924 2.6
      vertex 167.716 3 2.6
    endloop
  endfacet
  facet normal 0 0 1
    outer loop
      vertex 123.419 3.788 2.6
      vertex 123.419 3.407 2.6
      vertex 166.929 3.788 2.6
    endloop
  endfacet
  facet normal 0 0 1
    outer loop
      vertex 167.056 3.737 2.6
      vertex 166.853 3.407 2.6
      vertex 167.665 3.153 2.6
    endloop
  endfacet
  facet normal 0 0 1
    outer loop
      vertex 167.716 3 2.6
      vertex 167.335 2.924 2.6
      vertex 167.716 0.613 2.6
    endloop
  endfacet
  facet normal 0 0 1
    outer loop
      vertex 167.335 2.924 2.6
      vertex 167.335 0.689 2.6
      vertex 167.716 0.613 2.6
    endloop
  endfacet
  facet normal 0 0 1
    outer loop
      vertex 167.665 0.46 2.6
      vertex 166.853 0.206 2.6
      vertex 167.056 -0.149 2.6
    endloop
  endfacet
  facet normal 0 0 1
    outer loop
      vertex 123.419 3.407 2.6
      vertex 167.056 3.737 2.6
      vertex 166.929 3.788 2.6
    endloop
  endfacet
  facet normal 0 0 1
    outer loop
      vertex 123.419 3.407 2.6
      vertex 166.853 3.407 2.6
      vertex 167.056 3.737 2.6
    endloop
  endfacet
  facet normal 0.37265 -0.927972 0
    outer loop
      vertex 166.929 -0.2 2.6
      vertex 166.929 -0.2 0
      vertex 167.056 -0.149 0
    endloop
  endfacet
  facet normal 0.37265 -0.927972 0
    outer loop
      vertex 167.056 -0.149 2.6
      vertex 166.929 -0.2 2.6
      vertex 167.056 -0.149 0
    endloop
  endfacet
  facet normal 0.707107 -0.707107 0
    outer loop
      vertex 167.056 -0.149 2.6
      vertex 167.056 -0.149 0
      vertex 167.665 0.46 0
    endloop
  endfacet
  facet normal 0.707107 -0.707107 0
    outer loop
      vertex 167.665 0.46 2.6
      vertex 167.056 -0.149 2.6
      vertex 167.665 0.46 0
    endloop
  endfacet
  facet normal 0.948683 -0.316228 0
    outer loop
      vertex 167.665 0.46 2.6
      vertex 167.665 0.46 0
      vertex 167.716 0.613 0
    endloop
  endfacet
  facet normal 0.948683 -0.316228 0
    outer loop
      vertex 167.716 0.613 2.6
      vertex 167.665 0.46 2.6
      vertex 167.716 0.613 0
    endloop
  endfacet
  facet normal 1 0 0
    outer loop
      vertex 167.716 0.613 2.6
      vertex 167.716 0.613 0
      vertex 167.716 3 0
    endloop
  endfacet
  facet normal 1 0 0
    outer loop
      vertex 167.716 3 2.6
      vertex 167.716 0.613 2.6
      vertex 167.716 3 0
    endloop
  endfacet
  facet normal 0.948683 0.316228 0
    outer loop
      vertex 167.716 3 0
      vertex 167.665 3.153 0
      vertex 167.665 3.153 2.6
    endloop
  endfacet
  facet normal 0.948683 0.316228 0
    outer loop
      vertex 167.716 3 2.6
      vertex 167.716 3 0
      vertex 167.665 3.153 2.6
    endloop
  endfacet
  facet normal 0.692137 0.721766 0
    outer loop
      vertex 167.056 3.737 0
      vertex 167.056 3.737 2.6
      vertex 167.665 3.153 0
    endloop
  endfacet
  facet normal 0.692137 0.721766 0
    outer loop
      vertex 167.665 3.153 0
      vertex 167.056 3.737 2.6
      vertex 167.665 3.153 2.6
    endloop
  endfacet
  facet normal 0.37265 0.927972 0
    outer loop
      vertex 166.929 3.788 0
      vertex 166.929 3.788 2.6
      vertex 167.056 3.737 0
    endloop
  endfacet
  facet normal 0.37265 0.927972 0
    outer loop
      vertex 167.056 3.737 0
      vertex 166.929 3.788 2.6
      vertex 167.056 3.737 2.6
    endloop
  endfacet
  facet normal 0 1 0
    outer loop
      vertex 123.419 3.788 0
      vertex 123.419 3.788 2.6
      vertex 166.929 3.788 0
    endloop
  endfacet
  facet normal 0 1 0
    outer loop
      vertex 166.929 3.788 0
      vertex 123.419 3.788 2.6
      vertex 166.929 3.788 2.6
    endloop
  endfacet
  facet normal -1 0 0
    outer loop
      vertex 123.419 3.407 1.4
      vertex 123.419 3.407 2.6
      vertex 123.419 3.607 1.4
    endloop
  endfacet
  facet normal -1 0 0
    outer loop
      vertex 123.419 3.607 1.4
      vertex 123.419 3.407 2.6
      vertex 123.419 3.788 2.6
    endloop
  endfacet
  facet normal -1 0 0
    outer loop
      vertex 123.419 3.607 1.4
      vertex 123.419 3.788 2.6
      vertex 123.419 3.788 0
    endloop
  endfacet
  facet normal -1 0 0
    outer loop
      vertex 123.419 3.607 1.4
      vertex 123.419 3.788 0
      vertex 123.419 3.607 0
    endloop
  endfacet
  facet normal 0 1 0
    outer loop
      vertex 112.014 3.607 0
      vertex 112.014 3.607 1.4
      vertex 123.419 3.607 0
    endloop
  endfacet
  facet normal 0 1 0
    outer loop
      vertex 123.419 3.607 0
      vertex 112.014 3.607 1.4
      vertex 123.419 3.607 1.4
    endloop
  endfacet
  facet normal 1 0 0
    outer loop
      vertex 112.014 3.407 2.6
      vertex 112.014 3.407 1.4
      vertex 112.014 3.607 1.4
    endloop
  endfacet
  facet normal 1 0 0
    outer loop
      vertex 112.014 3.788 2.6
      vertex 112.014 3.407 2.6
      vertex 112.014 3.607 1.4
    endloop
  endfacet
  facet normal 1 0 0
    outer loop
      vertex 112.014 3.607 0
      vertex 112.014 3.788 0
      vertex 112.014 3.607 1.4
    endloop
  endfacet
  facet normal 1 0 0
    outer loop
      vertex 112.014 3.788 0
      vertex 112.014 3.788 2.6
      vertex 112.014 3.607 1.4
    endloop
  endfacet
  facet normal 0 1 0
    outer loop
      vertex 0 3.788 0
      vertex 0 3.788 2.6
      vertex 112.014 3.788 0
    endloop
  endfacet
  facet normal 0 1 0
    outer loop
      vertex 112.014 3.788 0
      vertex 0 3.788 2.6
      vertex 112.014 3.788 2.6
    endloop
  endfacet
  facet normal -1 0 0
    outer loop
      vertex 0 2.464 0
      vertex 0 2.464 1.4
      vertex 0 3.788 0
    endloop
  endfacet
  facet normal -1 0 0
    outer loop
      vertex 0 3.788 0
      vertex 0 2.464 1.4
      vertex 0 3.407 1.4
    endloop
  endfacet
  facet normal -1 0 0
    outer loop
      vertex 0 3.788 0
      vertex 0 3.407 1.4
      vertex 0 3.407 2.6
    endloop
  endfacet
  facet normal -1 0 0
    outer loop
      vertex 0 3.788 0
      vertex 0 3.407 2.6
      vertex 0 3.788 2.6
    endloop
  endfacet
  facet normal 0 -1 0
    outer loop
      vertex 0 2.464 1.4
      vertex 0 2.464 0
      vertex 7.188 2.464 0
    endloop
  endfacet
  facet normal 0 -1 0
    outer loop
      vertex 7.188 2.464 1.4
      vertex 0 2.464 1.4
      vertex 7.188 2.464 0
    endloop
  endfacet
  facet normal -1 0 0
    outer loop
      vertex 7.188 1.118 0
      vertex 7.188 1.118 1.4
      vertex 7.188 2.464 0
    endloop
  endfacet
  facet normal -1 0 0
    outer loop
      vertex 7.188 2.464 0
      vertex 7.188 1.118 1.4
      vertex 7.188 2.464 1.4
    endloop
  endfacet
  facet normal 0 1 0
    outer loop
      vertex 0 1.118 0
      vertex 0 1.118 1.4
      vertex 7.188 1.118 0
    endloop
  endfacet
  facet normal 0 1 0
    outer loop
      vertex 7.188 1.118 0
      vertex 0 1.118 1.4
      vertex 7.188 1.118 1.4
    endloop
  endfacet
  facet normal 0 0 1
    outer loop
      vertex 0 1.118 1.4
      vertex 0 0.206 1.4
      vertex 166.853 0.206 1.4
    endloop
  endfacet
  facet normal 0 0 1
    outer loop
      vertex 7.188 1.118 1.4
      vertex 0 1.118 1.4
      vertex 167.335 0.689 1.4
    endloop
  endfacet
  facet normal 0 0 1
    outer loop
      vertex 167.335 0.689 1.4
      vertex 0 1.118 1.4
      vertex 166.853 0.206 1.4
    endloop
  endfacet
  facet normal 0 0 1
    outer loop
      vertex 7.188 2.464 1.4
      vertex 123.419 3.407 1.4
      vertex 112.014 3.407 1.4
    endloop
  endfacet
  facet normal 0 0 1
    outer loop
      vertex 112.014 3.607 1.4
      vertex 112.014 3.407 1.4
      vertex 123.419 3.607 1.4
    endloop
  endfacet
  facet normal 0 0 1
    outer loop
      vertex 7.188 2.464 1.4
      vertex 166.853 3.407 1.4
      vertex 123.419 3.407 1.4
    endloop
  endfacet
  facet normal 0 0 1
    outer loop
      vertex 112.014 3.407 1.4
      vertex 123.419 3.407 1.4
      vertex 123.419 3.607 1.4
    endloop
  endfacet
  facet normal 0 0 1
    outer loop
      vertex 167.335 2.924 1.4
      vertex 7.188 1.118 1.4
      vertex 167.335 0.689 1.4
    endloop
  endfacet
  facet normal 0 0 1
    outer loop
      vertex 112.014 3.407 1.4
      vertex 0 2.464 1.4
      vertex 7.188 2.464 1.4
    endloop
  endfacet
  facet normal 0 0 1
    outer loop
      vertex 112.014 3.407 1.4
      vertex 0 3.407 1.4
      vertex 0 2.464 1.4
    endloop
  endfacet
  facet normal 0 0 1
    outer loop
      vertex 7.188 2.464 1.4
      vertex 167.335 2.924 1.4
      vertex 166.853 3.407 1.4
    endloop
  endfacet
  facet normal 0 0 1
    outer loop
      vertex 7.188 2.464 1.4
      vertex 7.188 1.118 1.4
      vertex 167.335 2.924 1.4
    endloop
  endfacet
  facet normal 0 1 0
    outer loop
      vertex 0 0.206 1.4
      vertex 0 0.206 2.6
      vertex 166.853 0.206 1.4
    endloop
  endfacet
  facet normal 0 1 0
    outer loop
      vertex 166.853 0.206 1.4
      vertex 0 0.206 2.6
      vertex 166.853 0.206 2.6
    endloop
  endfacet
  facet normal -0.707839 0.706374 0
    outer loop
      vertex 166.853 0.206 1.4
      vertex 166.853 0.206 2.6
      vertex 167.335 0.689 1.4
    endloop
  endfacet
  facet normal -0.707839 0.706374 0
    outer loop
      vertex 167.335 0.689 1.4
      vertex 166.853 0.206 2.6
      vertex 167.335 0.689 2.6
    endloop
  endfacet
  facet normal -1 0 0
    outer loop
      vertex 167.335 0.689 1.4
      vertex 167.335 0.689 2.6
      vertex 167.335 2.924 1.4
    endloop
  endfacet
  facet normal -1 0 0
    outer loop
      vertex 167.335 2.924 1.4
      vertex 167.335 0.689 2.6
      vertex 167.335 2.924 2.6
    endloop
  endfacet
  facet normal -0.707839 -0.706374 0
    outer loop
      vertex 166.853 3.407 1.4
      vertex 167.335 2.924 1.4
      vertex 166.853 3.407 2.6
    endloop
  endfacet
  facet normal -0.707839 -0.706374 0
    outer loop
      vertex 166.853 3.407 2.6
      vertex 167.335 2.924 1.4
      vertex 167.335 2.924 2.6
    endloop
  endfacet
  facet normal 0 -1 0
    outer loop
      vertex 123.419 3.407 2.6
      vertex 123.419 3.407 1.4
      vertex 166.853 3.407 1.4
    endloop
  endfacet
  facet normal 0 -1 0
    outer loop
      vertex 166.853 3.407 2.6
      vertex 123.419 3.407 2.6
      vertex 166.853 3.407 1.4
    endloop
  endfacet
  facet normal 0 -1 0
    outer loop
      vertex 0 3.407 2.6
      vertex 0 3.407 1.4
      vertex 112.014 3.407 1.4
    endloop
  endfacet
  facet normal 0 -1 0
    outer loop
      vertex 112.014 3.407 2.6
      vertex 0 3.407 2.6
      vertex 112.014 3.407 1.4
    endloop
  endfacet
  facet normal 0 0 1
    outer loop
      vertex 0 3.788 2.6
      vertex 0 3.407 2.6
      vertex 112.014 3.407 2.6
    endloop
  endfacet
  facet normal 0 0 1
    outer loop
      vertex 112.014 3.788 2.6
      vertex 0 3.788 2.6
      vertex 112.014 3.407 2.6
    endloop
  endfacet
endsolid OpenSCAD_Model
