  0
SECTION
  2
HEADER
  9
$ACADVER
  1
AC1009
  9
$EXTMIN
 10
0.0
 20
0.0
 30
0.0
  9
$EXTMAX
 10
1000.0
 20
1000.0
 30
0.0
  9
$FILLMODE
 70
 0
  9
$SPLFRAME
 70
 1
  0
ENDSEC
  0
SECTION
  2
TABLES
  0
TABLE
  2
LAYER
 70
1
  0
LAYER
  2
0
 70
     0
 62
     7
  6
CONTINUOUS
  0
ENDTAB
  0
ENDSEC
  0
SECTION
  2
ENTITIES
  0
LINE
  8
0
 62
     4
 10
2.71457
 20
0.324815
 30
0.0
 11
2.30908
 21
0.324815
 31
0.0
  0
LINE
  8
0
 62
     4
 10
2.30908
 20
0.324815
 30
0.0
 11
2.30908
 21
0.462619
 31
0.0
  0
LINE
  8
0
 62
     4
 10
2.30908
 20
0.462619
 30
0.0
 11
2.71457
 21
0.462619
 31
0.0
  0
LINE
  8
0
 62
     4
 10
2.71457
 20
0.462619
 30
0.0
 11
2.71457
 21
0.324815
 31
0.0
  0
LINE
  8
0
 62
     4
 10
3.98817
 20
0.454753
 30
0.0
 11
4.01378
 21
0.44949
 31
0.0
  0
LINE
  8
0
 62
     4
 10
4.01378
 20
0.44949
 30
0.0
 11
4.03467
 21
0.435058
 31
0.0
  0
LINE
  8
0
 62
     4
 10
4.03467
 20
0.435058
 30
0.0
 11
4.13975
 21
0.435058
 31
0.0
  0
LINE
  8
0
 62
     4
 10
4.13975
 20
0.435058
 30
0.0
 11
4.13975
 21
0.502007
 31
0.0
  0
LINE
  8
0
 62
     4
 10
4.13975
 20
0.502007
 30
0.0
 11
4.11025
 21
0.531521
 31
0.0
  0
LINE
  8
0
 62
     4
 10
4.11025
 20
0.531521
 30
0.0
 11
3.79135
 21
0.531521
 31
0.0
  0
LINE
  8
0
 62
     4
 10
3.79135
 20
0.531521
 30
0.0
 11
3.69683
 21
0.507867
 31
0.0
  0
LINE
  8
0
 62
     4
 10
3.69683
 20
0.507867
 30
0.0
 11
3.63781
 21
0.531521
 31
0.0
  0
LINE
  8
0
 62
     4
 10
3.63781
 20
0.531521
 30
0.0
 11
2.94092
 21
0.531521
 31
0.0
  0
LINE
  8
0
 62
     4
 10
2.94092
 20
0.531521
 30
0.0
 11
2.91732
 21
0.507867
 31
0.0
  0
LINE
  8
0
 62
     4
 10
2.91732
 20
0.507867
 30
0.0
 11
2.88189
 21
0.531521
 31
0.0
  0
LINE
  8
0
 62
     4
 10
2.88189
 20
0.531521
 30
0.0
 11
2.66928
 21
0.531521
 31
0.0
  0
LINE
  8
0
 62
     4
 10
2.66928
 20
0.531521
 30
0.0
 11
2.64567
 21
0.507867
 31
0.0
  0
LINE
  8
0
 62
     4
 10
2.64567
 20
0.507867
 30
0.0
 11
2.56299
 21
0.531521
 31
0.0
  0
LINE
  8
0
 62
     4
 10
2.56299
 20
0.531521
 30
0.0
 11
2.42128
 21
0.531521
 31
0.0
  0
LINE
  8
0
 62
     4
 10
2.42128
 20
0.531521
 30
0.0
 11
2.38585
 21
0.507867
 31
0.0
  0
LINE
  8
0
 62
     4
 10
2.38585
 20
0.507867
 30
0.0
 11
2.3386
 21
0.531521
 31
0.0
  0
LINE
  8
0
 62
     4
 10
2.3386
 20
0.531521
 30
0.0
 11
1.65354
 21
0.531521
 31
0.0
  0
LINE
  8
0
 62
     4
 10
1.65354
 20
0.531521
 30
0.0
 11
1.62993
 21
0.507867
 31
0.0
  0
LINE
  8
0
 62
     4
 10
1.62993
 20
0.507867
 30
0.0
 11
1.62993
 21
0.437011
 31
0.0
  0
LINE
  8
0
 62
     4
 10
1.62993
 20
0.437011
 30
0.0
 11
1.60628
 21
0.425239
 31
0.0
  0
LINE
  8
0
 62
     4
 10
1.60628
 20
0.425239
 30
0.0
 11
1.57086
 21
0.496039
 31
0.0
  0
LINE
  8
0
 62
     4
 10
1.57086
 20
0.496039
 30
0.0
 11
1.54725
 21
0.507867
 31
0.0
  0
LINE
  8
0
 62
     4
 10
1.54725
 20
0.507867
 30
0.0
 11
0.909451
 21
0.496039
 31
0.0
  0
LINE
  8
0
 62
     4
 10
0.909451
 20
0.496039
 30
0.0
 11
0.814942
 21
0.531521
 31
0.0
  0
LINE
  8
0
 62
     4
 10
0.814942
 20
0.531521
 30
0.0
 11
0.862196
 21
0.555122
 31
0.0
  0
LINE
  8
0
 62
     4
 10
0.862196
 20
0.555122
 30
0.0
 11
0.992133
 21
0.531521
 31
0.0
  0
LINE
  8
0
 62
     4
 10
0.992133
 20
0.531521
 30
0.0
 11
1.46457
 21
0.543349
 31
0.0
  0
LINE
  8
0
 62
     4
 10
1.46457
 20
0.543349
 30
0.0
 11
1.51183
 21
0.590549
 31
0.0
  0
LINE
  8
0
 62
     4
 10
1.51183
 20
0.590549
 30
0.0
 11
1.51183
 21
0.732314
 31
0.0
  0
LINE
  8
0
 62
     4
 10
1.51183
 20
0.732314
 30
0.0
 11
1.4764
 21
0.791342
 31
0.0
  0
LINE
  8
0
 62
     4
 10
1.4764
 20
0.791342
 30
0.0
 11
0.862196
 21
0.791342
 31
0.0
  0
LINE
  8
0
 62
     4
 10
0.862196
 20
0.791342
 30
0.0
 11
0.826768
 21
0.76774
 31
0.0
  0
LINE
  8
0
 62
     4
 10
0.826768
 20
0.76774
 30
0.0
 11
0.720486
 21
0.76774
 31
0.0
  0
LINE
  8
0
 62
     4
 10
0.720486
 20
0.76774
 30
0.0
 11
0.685058
 21
0.791342
 31
0.0
  0
LINE
  8
0
 62
     4
 10
0.685058
 20
0.791342
 30
0.0
 11
0.507867
 21
0.791342
 31
0.0
  0
LINE
  8
0
 62
     4
 10
0.507867
 20
0.791342
 30
0.0
 11
0.484267
 21
0.76774
 31
0.0
  0
LINE
  8
0
 62
     4
 10
0.484267
 20
0.76774
 30
0.0
 11
0.448839
 21
0.791342
 31
0.0
  0
LINE
  8
0
 62
     4
 10
0.448839
 20
0.791342
 30
0.0
 11
0.0236003
 21
0.791342
 31
0.0
  0
LINE
  8
0
 62
     4
 10
0.0236003
 20
0.791342
 30
0.0
 11
0
 21
0.76774
 31
0.0
  0
LINE
  8
0
 62
     4
 10
0
 20
0.76774
 30
0.0
 11
0
 21
0.578776
 31
0.0
  0
LINE
  8
0
 62
     4
 10
0
 20
0.578776
 30
0.0
 11
0.0236003
 21
0.555122
 31
0.0
  0
LINE
  8
0
 62
     4
 10
0.0236003
 20
0.555122
 30
0.0
 11
0.425185
 21
0.555122
 31
0.0
  0
LINE
  8
0
 62
     4
 10
0.425185
 20
0.555122
 30
0.0
 11
0.472439
 21
0.649631
 31
0.0
  0
LINE
  8
0
 62
     4
 10
0.472439
 20
0.649631
 30
0.0
 11
0.484267
 21
0.578776
 31
0.0
  0
LINE
  8
0
 62
     4
 10
0.484267
 20
0.578776
 30
0.0
 11
0.519694
 21
0.543349
 31
0.0
  0
LINE
  8
0
 62
     4
 10
0.519694
 20
0.543349
 30
0.0
 11
0.649631
 21
0.531521
 31
0.0
  0
LINE
  8
0
 62
     4
 10
0.649631
 20
0.531521
 30
0.0
 11
0.602376
 21
0.519694
 31
0.0
  0
LINE
  8
0
 62
     4
 10
0.602376
 20
0.519694
 30
0.0
 11
0.566949
 21
0.484267
 31
0.0
  0
LINE
  8
0
 62
     4
 10
0.566949
 20
0.484267
 30
0.0
 11
0.425185
 21
0.484267
 31
0.0
  0
LINE
  8
0
 62
     4
 10
0.425185
 20
0.484267
 30
0.0
 11
0.377983
 21
0.519694
 31
0.0
  0
LINE
  8
0
 62
     4
 10
0.377983
 20
0.519694
 30
0.0
 11
0.0236003
 21
0.507867
 31
0.0
  0
LINE
  8
0
 62
     4
 10
0.0236003
 20
0.507867
 30
0.0
 11
0
 21
0.437011
 31
0.0
  0
LINE
  8
0
 62
     4
 10
0
 20
0.437011
 30
0.0
 11
0
 21
0.283475
 31
0.0
  0
LINE
  8
0
 62
     4
 10
0
 20
0.283475
 30
0.0
 11
0.0354275
 21
0.248047
 31
0.0
  0
LINE
  8
0
 62
     4
 10
0.0354275
 20
0.248047
 30
0.0
 11
0.0354275
 21
0.0354275
 31
0.0
  0
LINE
  8
0
 62
     4
 10
0.0354275
 20
0.0354275
 30
0.0
 11
0.070855
 21
-0
 31
0.0
  0
LINE
  8
0
 62
     4
 10
0.070855
 20
-0
 30
0.0
 11
0.826768
 21
-0
 31
0.0
  0
LINE
  8
0
 62
     4
 10
0.826768
 20
-0
 30
0.0
 11
0.850369
 21
0.0236544
 31
0.0
  0
LINE
  8
0
 62
     4
 10
0.850369
 20
0.0236544
 30
0.0
 11
0.850369
 21
0.165364
 31
0.0
  0
LINE
  8
0
 62
     4
 10
0.850369
 20
0.165364
 30
0.0
 11
0.803168
 21
0.189019
 31
0.0
  0
LINE
  8
0
 62
     4
 10
0.803168
 20
0.189019
 30
0.0
 11
0.755914
 21
0.236219
 31
0.0
  0
LINE
  8
0
 62
     4
 10
0.755914
 20
0.236219
 30
0.0
 11
0.76774
 21
0.248047
 31
0.0
  0
LINE
  8
0
 62
     4
 10
0.76774
 20
0.248047
 30
0.0
 11
1.39372
 21
0.259874
 31
0.0
  0
LINE
  8
0
 62
     4
 10
1.39372
 20
0.259874
 30
0.0
 11
1.64171
 21
0.236219
 31
0.0
  0
LINE
  8
0
 62
     4
 10
1.64171
 20
0.236219
 30
0.0
 11
2.3386
 21
0.236219
 31
0.0
  0
LINE
  8
0
 62
     4
 10
2.3386
 20
0.236219
 30
0.0
 11
2.37403
 21
0.259874
 31
0.0
  0
LINE
  8
0
 62
     4
 10
2.37403
 20
0.259874
 30
0.0
 11
2.57482
 21
0.248047
 31
0.0
  0
LINE
  8
0
 62
     4
 10
2.57482
 20
0.248047
 30
0.0
 11
2.61025
 21
0.271647
 31
0.0
  0
LINE
  8
0
 62
     4
 10
2.61025
 20
0.271647
 30
0.0
 11
2.63385
 21
0.248047
 31
0.0
  0
LINE
  8
0
 62
     4
 10
2.63385
 20
0.248047
 30
0.0
 11
2.89372
 21
0.259874
 31
0.0
  0
LINE
  8
0
 62
     4
 10
2.89372
 20
0.259874
 30
0.0
 11
3.09451
 21
0.236219
 31
0.0
  0
LINE
  8
0
 62
     4
 10
3.09451
 20
0.236219
 30
0.0
 11
4.13385
 21
0.236219
 31
0.0
  0
LINE
  8
0
 62
     4
 10
4.13385
 20
0.236219
 30
0.0
 11
4.13975
 21
0.242133
 31
0.0
  0
LINE
  8
0
 62
     4
 10
4.13975
 20
0.242133
 30
0.0
 11
4.13975
 21
0.34451
 31
0.0
  0
LINE
  8
0
 62
     4
 10
4.13975
 20
0.34451
 30
0.0
 11
4.03467
 21
0.34451
 31
0.0
  0
LINE
  8
0
 62
     4
 10
4.03467
 20
0.34451
 30
0.0
 11
4.01383
 21
0.330132
 31
0.0
  0
LINE
  8
0
 62
     4
 10
4.01383
 20
0.330132
 30
0.0
 11
3.98817
 21
0.324815
 31
0.0
  0
LINE
  8
0
 62
     4
 10
3.98817
 20
0.324815
 30
0.0
 11
3.96289
 21
0.329969
 31
0.0
  0
LINE
  8
0
 62
     4
 10
3.96289
 20
0.329969
 30
0.0
 11
3.94222
 21
0.343858
 31
0.0
  0
LINE
  8
0
 62
     4
 10
3.94222
 20
0.343858
 30
0.0
 11
3.92833
 21
0.364529
 31
0.0
  0
LINE
  8
0
 62
     4
 10
3.92833
 20
0.364529
 30
0.0
 11
3.92324
 21
0.389811
 31
0.0
  0
LINE
  8
0
 62
     4
 10
3.92324
 20
0.389811
 30
0.0
 11
3.92833
 21
0.415093
 31
0.0
  0
LINE
  8
0
 62
     4
 10
3.92833
 20
0.415093
 30
0.0
 11
3.94222
 21
0.435764
 31
0.0
  0
LINE
  8
0
 62
     4
 10
3.94222
 20
0.435764
 30
0.0
 11
3.96289
 21
0.449653
 31
0.0
  0
LINE
  8
0
 62
     4
 10
3.96289
 20
0.449653
 30
0.0
 11
3.98817
 21
0.454753
 31
0.0
  0
ENDSEC
  0
EOF
