  0
SECTION
  2
HEADER
  9
$ACADVER
  1
AC1009
  9
$EXTMIN
 10
0.0
 20
0.0
 30
0.0
  9
$EXTMAX
 10
1000.0
 20
1000.0
 30
0.0
  9
$FILLMODE
 70
 0
  9
$SPLFRAME
 70
 1
  0
ENDSEC
  0
SECTION
  2
TABLES
  0
TABLE
  2
LAYER
 70
1
  0
LAYER
  2
0
 70
     0
 62
     7
  6
CONTINUOUS
  0
ENDTAB
  0
ENDSEC
  0
SECTION
  2
ENTITIES
  0
LINE
  8
0
 62
     160
 10
3.10331
 20
0.251899
 30
0.0
 11
2.90121
 21
0.275608
 31
0.0
  0
LINE
  8
0
 62
     160
 10
2.90121
 20
0.275608
 30
0.0
 11
2.64486
 21
0.263943
 31
0.0
  0
LINE
  8
0
 62
     160
 10
2.64486
 20
0.263943
 30
0.0
 11
2.62369
 21
0.285101
 31
0.0
  0
LINE
  8
0
 62
     160
 10
2.62369
 20
0.285101
 30
0.0
 11
2.61376
 21
0.286079
 31
0.0
  0
LINE
  8
0
 62
     160
 10
2.61376
 20
0.286079
 30
0.0
 11
2.58051
 21
0.263943
 31
0.0
  0
LINE
  8
0
 62
     160
 10
2.58051
 20
0.263943
 30
0.0
 11
2.38232
 21
0.275608
 31
0.0
  0
LINE
  8
0
 62
     160
 10
2.38232
 20
0.275608
 30
0.0
 11
2.3775
 21
0.274251
 31
0.0
  0
LINE
  8
0
 62
     160
 10
2.3775
 20
0.274251
 30
0.0
 11
2.34407
 21
0.251953
 31
0.0
  0
LINE
  8
0
 62
     160
 10
2.34407
 20
0.251953
 30
0.0
 11
1.65033
 21
0.251953
 31
0.0
  0
LINE
  8
0
 62
     160
 10
1.65033
 20
0.251953
 30
0.0
 11
1.40142
 21
0.275608
 31
0.0
  0
LINE
  8
0
 62
     160
 10
1.40142
 20
0.275608
 30
0.0
 11
0.775444
 21
0.263781
 31
0.0
  0
LINE
  8
0
 62
     160
 10
0.775444
 20
0.263781
 30
0.0
 11
0.770019
 21
0.261501
 31
0.0
  0
LINE
  8
0
 62
     160
 10
0.770019
 20
0.261501
 30
0.0
 11
0.758192
 21
0.249675
 31
0.0
  0
LINE
  8
0
 62
     160
 10
0.758192
 20
0.249675
 30
0.0
 11
0.755914
 21
0.243544
 31
0.0
  0
LINE
  8
0
 62
     160
 10
0.755914
 20
0.243544
 30
0.0
 11
0.75906
 21
0.237793
 31
0.0
  0
LINE
  8
0
 62
     160
 10
0.75906
 20
0.237793
 30
0.0
 11
0.850369
 21
0.169325
 31
0.0
  0
LINE
  8
0
 62
     160
 10
0.850369
 20
0.169325
 30
0.0
 11
0.850369
 21
0.0347765
 31
0.0
  0
LINE
  8
0
 62
     160
 10
0.850369
 20
0.0347765
 30
0.0
 11
0.831381
 21
0.0157335
 31
0.0
  0
LINE
  8
0
 62
     160
 10
0.831381
 20
0.0157335
 30
0.0
 11
0.0826822
 21
0.0157335
 31
0.0
  0
LINE
  8
0
 62
     160
 10
0.0826822
 20
0.0157335
 30
0.0
 11
0.0495876
 21
0.0598415
 31
0.0
  0
LINE
  8
0
 62
     160
 10
0.0495876
 20
0.0598415
 30
0.0
 11
0.0370008
 21
0.0504015
 31
0.0
  0
LINE
  8
0
 62
     160
 10
0.0370008
 20
0.0504015
 30
0.0
 11
0.0724283
 21
0.00314669
 31
0.0
  0
LINE
  8
0
 62
     160
 10
0.0724283
 20
0.00314669
 30
0.0
 11
0.0787218
 21
-0
 31
0.0
  0
LINE
  8
0
 62
     160
 10
0.0787218
 20
-0
 30
0.0
 11
0.834636
 21
-0
 31
0.0
  0
LINE
  8
0
 62
     160
 10
0.834636
 20
-0
 30
0.0
 11
0.840224
 21
0.0023329
 31
0.0
  0
LINE
  8
0
 62
     160
 10
0.840224
 20
0.0023329
 30
0.0
 11
0.863824
 21
0.0259332
 31
0.0
  0
LINE
  8
0
 62
     160
 10
0.863824
 20
0.0259332
 30
0.0
 11
0.866157
 21
0.0315213
 31
0.0
  0
LINE
  8
0
 62
     160
 10
0.866157
 20
0.0315213
 30
0.0
 11
0.866157
 21
0.173232
 31
0.0
  0
LINE
  8
0
 62
     160
 10
0.866157
 20
0.173232
 30
0.0
 11
0.86301
 21
0.179525
 31
0.0
  0
LINE
  8
0
 62
     160
 10
0.86301
 20
0.179525
 30
0.0
 11
0.775771
 21
0.244954
 31
0.0
  0
LINE
  8
0
 62
     160
 10
0.775771
 20
0.244954
 30
0.0
 11
0.778917
 21
0.248101
 31
0.0
  0
LINE
  8
0
 62
     160
 10
0.778917
 20
0.248101
 30
0.0
 11
1.40082
 21
0.259874
 31
0.0
  0
LINE
  8
0
 62
     160
 10
1.40082
 20
0.259874
 30
0.0
 11
1.64963
 21
0.236219
 31
0.0
  0
LINE
  8
0
 62
     160
 10
1.64963
 20
0.236219
 30
0.0
 11
2.34646
 21
0.236219
 31
0.0
  0
LINE
  8
0
 62
     160
 10
2.34646
 20
0.236219
 30
0.0
 11
2.35081
 21
0.237522
 31
0.0
  0
LINE
  8
0
 62
     160
 10
2.35081
 20
0.237522
 30
0.0
 11
2.38406
 21
0.259711
 31
0.0
  0
LINE
  8
0
 62
     160
 10
2.38406
 20
0.259711
 30
0.0
 11
2.58219
 21
0.248047
 31
0.0
  0
LINE
  8
0
 62
     160
 10
2.58219
 20
0.248047
 30
0.0
 11
2.58703
 21
0.249349
 31
0.0
  0
LINE
  8
0
 62
     160
 10
2.58703
 20
0.249349
 30
0.0
 11
2.61714
 21
0.269422
 31
0.0
  0
LINE
  8
0
 62
     160
 10
2.61714
 20
0.269422
 30
0.0
 11
2.63618
 21
0.250379
 31
0.0
  0
LINE
  8
0
 62
     160
 10
2.63618
 20
0.250379
 30
0.0
 11
2.64208
 21
0.248047
 31
0.0
  0
LINE
  8
0
 62
     160
 10
2.64208
 20
0.248047
 30
0.0
 11
2.90067
 21
0.259928
 31
0.0
  0
LINE
  8
0
 62
     160
 10
2.90067
 20
0.259928
 30
0.0
 11
3.10243
 21
0.236219
 31
0.0
  0
LINE
  8
0
 62
     160
 10
3.10243
 20
0.236219
 30
0.0
 11
4.14763
 21
0.247993
 31
0.0
  0
LINE
  8
0
 62
     160
 10
4.14763
 20
0.247993
 30
0.0
 11
4.14763
 21
0.263726
 31
0.0
  0
LINE
  8
0
 62
     160
 10
4.14763
 20
0.263726
 30
0.0
 11
3.10331
 21
0.251899
 31
0.0
  0
LINE
  8
0
 62
     160
 10
0.428331
 20
0.48584
 30
0.0
 11
0.433051
 21
0.484267
 31
0.0
  0
LINE
  8
0
 62
     160
 10
0.433051
 20
0.484267
 30
0.0
 11
0.574815
 21
0.484267
 31
0.0
  0
LINE
  8
0
 62
     160
 10
0.574815
 20
0.484267
 30
0.0
 11
0.58035
 21
0.4866
 31
0.0
  0
LINE
  8
0
 62
     160
 10
0.58035
 20
0.4866
 30
0.0
 11
0.614258
 21
0.520454
 31
0.0
  0
LINE
  8
0
 62
     160
 10
0.614258
 20
0.520454
 30
0.0
 11
0.659397
 21
0.531739
 31
0.0
  0
LINE
  8
0
 62
     160
 10
0.659397
 20
0.531739
 30
0.0
 11
0.665364
 21
0.539985
 31
0.0
  0
LINE
  8
0
 62
     160
 10
0.665364
 20
0.539985
 30
0.0
 11
0.658203
 21
0.5472
 31
0.0
  0
LINE
  8
0
 62
     160
 10
0.658203
 20
0.5472
 30
0.0
 11
0.531088
 21
0.558757
 31
0.0
  0
LINE
  8
0
 62
     160
 10
0.531088
 20
0.558757
 30
0.0
 11
0.499457
 21
0.590386
 31
0.0
  0
LINE
  8
0
 62
     160
 10
0.499457
 20
0.590386
 30
0.0
 11
0.488064
 21
0.658746
 31
0.0
  0
LINE
  8
0
 62
     160
 10
0.488064
 20
0.658746
 30
0.0
 11
0.4815
 21
0.665256
 31
0.0
  0
LINE
  8
0
 62
     160
 10
0.4815
 20
0.665256
 30
0.0
 11
0.473307
 21
0.661025
 31
0.0
  0
LINE
  8
0
 62
     160
 10
0.473307
 20
0.661025
 30
0.0
 11
0.428222
 21
0.570856
 31
0.0
  0
LINE
  8
0
 62
     160
 10
0.428222
 20
0.570856
 30
0.0
 11
0.0347765
 21
0.570856
 31
0.0
  0
LINE
  8
0
 62
     160
 10
0.0347765
 20
0.570856
 30
0.0
 11
0.0157335
 21
0.589899
 31
0.0
  0
LINE
  8
0
 62
     160
 10
0.0157335
 20
0.589899
 30
0.0
 11
0.0157335
 21
0.772353
 31
0.0
  0
LINE
  8
0
 62
     160
 10
0.0157335
 20
0.772353
 30
0.0
 11
0.0347765
 21
0.791342
 31
0.0
  0
LINE
  8
0
 62
     160
 10
0.0347765
 20
0.791342
 30
0.0
 11
0.454318
 21
0.791342
 31
0.0
  0
LINE
  8
0
 62
     160
 10
0.454318
 20
0.791342
 30
0.0
 11
0.487739
 21
0.769043
 31
0.0
  0
LINE
  8
0
 62
     160
 10
0.487739
 20
0.769043
 30
0.0
 11
0.497721
 21
0.770019
 31
0.0
  0
LINE
  8
0
 62
     160
 10
0.497721
 20
0.770019
 30
0.0
 11
0.518989
 21
0.791342
 31
0.0
  0
LINE
  8
0
 62
     160
 10
0.518989
 20
0.791342
 30
0.0
 11
0.690539
 21
0.791342
 31
0.0
  0
LINE
  8
0
 62
     160
 10
0.690539
 20
0.791342
 30
0.0
 11
0.723958
 21
0.769043
 31
0.0
  0
LINE
  8
0
 62
     160
 10
0.723958
 20
0.769043
 30
0.0
 11
0.728353
 21
0.767686
 31
0.0
  0
LINE
  8
0
 62
     160
 10
0.728353
 20
0.767686
 30
0.0
 11
0.834636
 21
0.767686
 31
0.0
  0
LINE
  8
0
 62
     160
 10
0.834636
 20
0.767686
 30
0.0
 11
0.839031
 21
0.769043
 31
0.0
  0
LINE
  8
0
 62
     160
 10
0.839031
 20
0.769043
 30
0.0
 11
0.87245
 21
0.791342
 31
0.0
  0
LINE
  8
0
 62
     160
 10
0.87245
 20
0.791342
 30
0.0
 11
1.47982
 21
0.791342
 31
0.0
  0
LINE
  8
0
 62
     160
 10
1.47982
 20
0.791342
 30
0.0
 11
1.51183
 21
0.737956
 31
0.0
  0
LINE
  8
0
 62
     160
 10
1.51183
 20
0.737956
 30
0.0
 11
1.51183
 21
0.601671
 31
0.0
  0
LINE
  8
0
 62
     160
 10
1.51183
 20
0.601671
 30
0.0
 11
1.46907
 21
0.558974
 31
0.0
  0
LINE
  8
0
 62
     160
 10
1.46907
 20
0.558974
 30
0.0
 11
1.0006
 21
0.547254
 31
0.0
  0
LINE
  8
0
 62
     160
 10
1.0006
 20
0.547254
 30
0.0
 11
0.871474
 21
0.570747
 31
0.0
  0
LINE
  8
0
 62
     160
 10
0.871474
 20
0.570747
 30
0.0
 11
0.86659
 21
0.570042
 31
0.0
  0
LINE
  8
0
 62
     160
 10
0.86659
 20
0.570042
 30
0.0
 11
0.819336
 21
0.546386
 31
0.0
  0
LINE
  8
0
 62
     160
 10
0.819336
 20
0.546386
 30
0.0
 11
0.814996
 21
0.538954
 31
0.0
  0
LINE
  8
0
 62
     160
 10
0.814996
 20
0.538954
 30
0.0
 11
0.820042
 21
0.53201
 31
0.0
  0
LINE
  8
0
 62
     160
 10
0.820042
 20
0.53201
 30
0.0
 11
0.914551
 21
0.496582
 31
0.0
  0
LINE
  8
0
 62
     160
 10
0.914551
 20
0.496582
 30
0.0
 11
0.917481
 21
0.496094
 31
0.0
  0
LINE
  8
0
 62
     160
 10
0.917481
 20
0.496094
 30
0.0
 11
1.55333
 21
0.507813
 31
0.0
  0
LINE
  8
0
 62
     160
 10
1.55333
 20
0.507813
 30
0.0
 11
1.57286
 21
0.498047
 31
0.0
  0
LINE
  8
0
 62
     160
 10
1.57286
 20
0.498047
 30
0.0
 11
1.60715
 21
0.429579
 31
0.0
  0
LINE
  8
0
 62
     160
 10
1.60715
 20
0.429579
 30
0.0
 11
1.61421
 21
0.425185
 31
0.0
  0
LINE
  8
0
 62
     160
 10
1.61421
 20
0.425185
 30
0.0
 11
1.61768
 21
0.426053
 31
0.0
  0
LINE
  8
0
 62
     160
 10
1.61768
 20
0.426053
 30
0.0
 11
1.64133
 21
0.437879
 31
0.0
  0
LINE
  8
0
 62
     160
 10
1.64133
 20
0.437879
 30
0.0
 11
1.64567
 21
0.444878
 31
0.0
  0
LINE
  8
0
 62
     160
 10
1.64567
 20
0.444878
 30
0.0
 11
1.64567
 21
0.512478
 31
0.0
  0
LINE
  8
0
 62
     160
 10
1.64567
 20
0.512478
 30
0.0
 11
1.66465
 21
0.531467
 31
0.0
  0
LINE
  8
0
 62
     160
 10
1.66465
 20
0.531467
 30
0.0
 11
2.34461
 21
0.531467
 31
0.0
  0
LINE
  8
0
 62
     160
 10
2.34461
 20
0.531467
 30
0.0
 11
2.39019
 21
0.508681
 31
0.0
  0
LINE
  8
0
 62
     160
 10
2.39019
 20
0.508681
 30
0.0
 11
2.39806
 21
0.509169
 31
0.0
  0
LINE
  8
0
 62
     160
 10
2.39806
 20
0.509169
 30
0.0
 11
2.43153
 21
0.531467
 31
0.0
  0
LINE
  8
0
 62
     160
 10
2.43153
 20
0.531467
 30
0.0
 11
2.56976
 21
0.531467
 31
0.0
  0
LINE
  8
0
 62
     160
 10
2.56976
 20
0.531467
 30
0.0
 11
2.65136
 21
0.508192
 31
0.0
  0
LINE
  8
0
 62
     160
 10
2.65136
 20
0.508192
 30
0.0
 11
2.65913
 21
0.5102
 31
0.0
  0
LINE
  8
0
 62
     160
 10
2.65913
 20
0.5102
 30
0.0
 11
2.68044
 21
0.531467
 31
0.0
  0
LINE
  8
0
 62
     160
 10
2.68044
 20
0.531467
 30
0.0
 11
2.88738
 21
0.531467
 31
0.0
  0
LINE
  8
0
 62
     160
 10
2.88738
 20
0.531467
 30
0.0
 11
2.92085
 21
0.509169
 31
0.0
  0
LINE
  8
0
 62
     160
 10
2.92085
 20
0.509169
 30
0.0
 11
2.93078
 21
0.5102
 31
0.0
  0
LINE
  8
0
 62
     160
 10
2.93078
 20
0.5102
 30
0.0
 11
2.9426
 21
0.522026
 31
0.0
  0
LINE
  8
0
 62
     160
 10
2.9426
 20
0.522026
 30
0.0
 11
2.93142
 21
0.533149
 31
0.0
  0
LINE
  8
0
 62
     160
 10
2.93142
 20
0.533149
 30
0.0
 11
2.92421
 21
0.525879
 31
0.0
  0
LINE
  8
0
 62
     160
 10
2.92421
 20
0.525879
 30
0.0
 11
2.89415
 21
0.545899
 31
0.0
  0
LINE
  8
0
 62
     160
 10
2.89415
 20
0.545899
 30
0.0
 11
2.88975
 21
0.547254
 31
0.0
  0
LINE
  8
0
 62
     160
 10
2.88975
 20
0.547254
 30
0.0
 11
2.67719
 21
0.547254
 31
0.0
  0
LINE
  8
0
 62
     160
 10
2.67719
 20
0.547254
 30
0.0
 11
2.6716
 21
0.544922
 31
0.0
  0
LINE
  8
0
 62
     160
 10
2.6716
 20
0.544922
 30
0.0
 11
2.65126
 21
0.524576
 31
0.0
  0
LINE
  8
0
 62
     160
 10
2.65126
 20
0.524576
 30
0.0
 11
2.57303
 21
0.546929
 31
0.0
  0
LINE
  8
0
 62
     160
 10
2.57303
 20
0.546929
 30
0.0
 11
2.57086
 21
0.547254
 31
0.0
  0
LINE
  8
0
 62
     160
 10
2.57086
 20
0.547254
 30
0.0
 11
2.42914
 21
0.547254
 31
0.0
  0
LINE
  8
0
 62
     160
 10
2.42914
 20
0.547254
 30
0.0
 11
2.42475
 21
0.545899
 31
0.0
  0
LINE
  8
0
 62
     160
 10
2.42475
 20
0.545899
 30
0.0
 11
2.39312
 21
0.524849
 31
0.0
  0
LINE
  8
0
 62
     160
 10
2.39312
 20
0.524849
 30
0.0
 11
2.34999
 21
0.546386
 31
0.0
  0
LINE
  8
0
 62
     160
 10
2.34999
 20
0.546386
 30
0.0
 11
2.34646
 21
0.547254
 31
0.0
  0
LINE
  8
0
 62
     160
 10
2.34646
 20
0.547254
 30
0.0
 11
1.6614
 21
0.547254
 31
0.0
  0
LINE
  8
0
 62
     160
 10
1.6614
 20
0.547254
 30
0.0
 11
1.65588
 21
0.544922
 31
0.0
  0
LINE
  8
0
 62
     160
 10
1.65588
 20
0.544922
 30
0.0
 11
1.63222
 21
0.521322
 31
0.0
  0
LINE
  8
0
 62
     160
 10
1.63222
 20
0.521322
 30
0.0
 11
1.62993
 21
0.515733
 31
0.0
  0
LINE
  8
0
 62
     160
 10
1.62993
 20
0.515733
 30
0.0
 11
1.62993
 21
0.449761
 31
0.0
  0
LINE
  8
0
 62
     160
 10
1.62993
 20
0.449761
 30
0.0
 11
1.61768
 21
0.443631
 31
0.0
  0
LINE
  8
0
 62
     160
 10
1.61768
 20
0.443631
 30
0.0
 11
1.58578
 21
0.507488
 31
0.0
  0
LINE
  8
0
 62
     160
 10
1.58578
 20
0.507488
 30
0.0
 11
1.58225
 21
0.51096
 31
0.0
  0
LINE
  8
0
 62
     160
 10
1.58225
 20
0.51096
 30
0.0
 11
1.55865
 21
0.522786
 31
0.0
  0
LINE
  8
0
 62
     160
 10
1.55865
 20
0.522786
 30
0.0
 11
1.55496
 21
0.5236
 31
0.0
  0
LINE
  8
0
 62
     160
 10
1.55496
 20
0.5236
 30
0.0
 11
0.918674
 21
0.511828
 31
0.0
  0
LINE
  8
0
 62
     160
 10
0.918674
 20
0.511828
 30
0.0
 11
0.842503
 21
0.540419
 31
0.0
  0
LINE
  8
0
 62
     160
 10
0.842503
 20
0.540419
 30
0.0
 11
0.871257
 21
0.554796
 31
0.0
  0
LINE
  8
0
 62
     160
 10
0.871257
 20
0.554796
 30
0.0
 11
0.998589
 21
0.531629
 31
0.0
  0
LINE
  8
0
 62
     160
 10
0.998589
 20
0.531629
 30
0.0
 11
1.00022
 21
0.531521
 31
0.0
  0
LINE
  8
0
 62
     160
 10
1.00022
 20
0.531521
 30
0.0
 11
1.47265
 21
0.543349
 31
0.0
  0
LINE
  8
0
 62
     160
 10
1.47265
 20
0.543349
 30
0.0
 11
1.47803
 21
0.545628
 31
0.0
  0
LINE
  8
0
 62
     160
 10
1.47803
 20
0.545628
 30
0.0
 11
1.52522
 21
0.592828
 31
0.0
  0
LINE
  8
0
 62
     160
 10
1.52522
 20
0.592828
 30
0.0
 11
1.52756
 21
0.598415
 31
0.0
  0
LINE
  8
0
 62
     160
 10
1.52756
 20
0.598415
 30
0.0
 11
1.52756
 21
0.740181
 31
0.0
  0
LINE
  8
0
 62
     160
 10
1.52756
 20
0.740181
 30
0.0
 11
1.52642
 21
0.744194
 31
0.0
  0
LINE
  8
0
 62
     160
 10
1.52642
 20
0.744194
 30
0.0
 11
1.491
 21
0.803276
 31
0.0
  0
LINE
  8
0
 62
     160
 10
1.491
 20
0.803276
 30
0.0
 11
1.48426
 21
0.807075
 31
0.0
  0
LINE
  8
0
 62
     160
 10
1.48426
 20
0.807075
 30
0.0
 11
0.870063
 21
0.807075
 31
0.0
  0
LINE
  8
0
 62
     160
 10
0.870063
 20
0.807075
 30
0.0
 11
0.865722
 21
0.805772
 31
0.0
  0
LINE
  8
0
 62
     160
 10
0.865722
 20
0.805772
 30
0.0
 11
0.832249
 21
0.783475
 31
0.0
  0
LINE
  8
0
 62
     160
 10
0.832249
 20
0.783475
 30
0.0
 11
0.73074
 21
0.783475
 31
0.0
  0
LINE
  8
0
 62
     160
 10
0.73074
 20
0.783475
 30
0.0
 11
0.697265
 21
0.805772
 31
0.0
  0
LINE
  8
0
 62
     160
 10
0.697265
 20
0.805772
 30
0.0
 11
0.692925
 21
0.807075
 31
0.0
  0
LINE
  8
0
 62
     160
 10
0.692925
 20
0.807075
 30
0.0
 11
0.515733
 21
0.807075
 31
0.0
  0
LINE
  8
0
 62
     160
 10
0.515733
 20
0.807075
 30
0.0
 11
0.5102
 21
0.804796
 31
0.0
  0
LINE
  8
0
 62
     160
 10
0.5102
 20
0.804796
 30
0.0
 11
0.491103
 21
0.785699
 31
0.0
  0
LINE
  8
0
 62
     160
 10
0.491103
 20
0.785699
 30
0.0
 11
0.461046
 21
0.805772
 31
0.0
  0
LINE
  8
0
 62
     160
 10
0.461046
 20
0.805772
 30
0.0
 11
0.456706
 21
0.807075
 31
0.0
  0
LINE
  8
0
 62
     160
 10
0.456706
 20
0.807075
 30
0.0
 11
0.0315213
 21
0.807075
 31
0.0
  0
LINE
  8
0
 62
     160
 10
0.0315213
 20
0.807075
 30
0.0
 11
0.0259332
 21
0.804796
 31
0.0
  0
LINE
  8
0
 62
     160
 10
0.0259332
 20
0.804796
 30
0.0
 11
0.0023329
 21
0.781142
 31
0.0
  0
LINE
  8
0
 62
     160
 10
0.0023329
 20
0.781142
 30
0.0
 11
0
 21
0.775608
 31
0.0
  0
LINE
  8
0
 62
     160
 10
0
 20
0.775608
 30
0.0
 11
0
 21
0.586643
 31
0.0
  0
LINE
  8
0
 62
     160
 10
0
 20
0.586643
 30
0.0
 11
0.0023329
 21
0.581054
 31
0.0
  0
LINE
  8
0
 62
     160
 10
0.0023329
 20
0.581054
 30
0.0
 11
0.0259332
 21
0.557454
 31
0.0
  0
LINE
  8
0
 62
     160
 10
0.0259332
 20
0.557454
 30
0.0
 11
0.0315213
 21
0.555122
 31
0.0
  0
LINE
  8
0
 62
     160
 10
0.0315213
 20
0.555122
 30
0.0
 11
0.433051
 21
0.555122
 31
0.0
  0
LINE
  8
0
 62
     160
 10
0.433051
 20
0.555122
 30
0.0
 11
0.440104
 21
0.559461
 31
0.0
  0
LINE
  8
0
 62
     160
 10
0.440104
 20
0.559461
 30
0.0
 11
0.476508
 21
0.632324
 31
0.0
  0
LINE
  8
0
 62
     160
 10
0.476508
 20
0.632324
 30
0.0
 11
0.484375
 21
0.58534
 31
0.0
  0
LINE
  8
0
 62
     160
 10
0.484375
 20
0.58534
 30
0.0
 11
0.486544
 21
0.581054
 31
0.0
  0
LINE
  8
0
 62
     160
 10
0.486544
 20
0.581054
 30
0.0
 11
0.521972
 21
0.545628
 31
0.0
  0
LINE
  8
0
 62
     160
 10
0.521972
 20
0.545628
 30
0.0
 11
0.526856
 21
0.543349
 31
0.0
  0
LINE
  8
0
 62
     160
 10
0.526856
 20
0.543349
 30
0.0
 11
0.61046
 21
0.535753
 31
0.0
  0
LINE
  8
0
 62
     160
 10
0.61046
 20
0.535753
 30
0.0
 11
0.608344
 21
0.535211
 31
0.0
  0
LINE
  8
0
 62
     160
 10
0.608344
 20
0.535211
 30
0.0
 11
0.604656
 21
0.533149
 31
0.0
  0
LINE
  8
0
 62
     160
 10
0.604656
 20
0.533149
 30
0.0
 11
0.57156
 21
0.5
 31
0.0
  0
LINE
  8
0
 62
     160
 10
0.57156
 20
0.5
 30
0.0
 11
0.43571
 21
0.5
 31
0.0
  0
LINE
  8
0
 62
     160
 10
0.43571
 20
0.5
 30
0.0
 11
0.390571
 21
0.533854
 31
0.0
  0
LINE
  8
0
 62
     160
 10
0.390571
 20
0.533854
 30
0.0
 11
0.385308
 21
0.535428
 31
0.0
  0
LINE
  8
0
 62
     160
 10
0.385308
 20
0.535428
 30
0.0
 11
0.0270725
 21
0.511774
 31
0.0
  0
LINE
  8
0
 62
     160
 10
0.0270725
 20
0.511774
 30
0.0
 11
0.0281033
 21
0.496094
 31
0.0
  0
LINE
  8
0
 62
     160
 10
0.0281033
 20
0.496094
 30
0.0
 11
0.38341
 21
0.519531
 31
0.0
  0
LINE
  8
0
 62
     160
 10
0.38341
 20
0.519531
 30
0.0
 11
0.428331
 21
0.48584
 31
0.0
  0
LINE
  8
0
 62
     160
 10
3.64415
 20
0.531467
 30
0.0
 11
3.38585
 21
0.531467
 31
0.0
  0
LINE
  8
0
 62
     160
 10
3.38585
 20
0.531467
 30
0.0
 11
3.38585
 21
0.547254
 31
0.0
  0
LINE
  8
0
 62
     160
 10
3.38585
 20
0.547254
 30
0.0
 11
3.64567
 21
0.547254
 31
0.0
  0
LINE
  8
0
 62
     160
 10
3.64567
 20
0.547254
 30
0.0
 11
3.6486
 21
0.546658
 31
0.0
  0
LINE
  8
0
 62
     160
 10
3.6486
 20
0.546658
 30
0.0
 11
3.70529
 21
0.523981
 31
0.0
  0
LINE
  8
0
 62
     160
 10
3.70529
 20
0.523981
 30
0.0
 11
3.79731
 21
0.546983
 31
0.0
  0
LINE
  8
0
 62
     160
 10
3.79731
 20
0.546983
 30
0.0
 11
3.79921
 21
0.547254
 31
0.0
  0
LINE
  8
0
 62
     160
 10
3.79921
 20
0.547254
 30
0.0
 11
4.09451
 21
0.547254
 31
0.0
  0
LINE
  8
0
 62
     160
 10
4.09451
 20
0.547254
 30
0.0
 11
4.09451
 21
0.531467
 31
0.0
  0
LINE
  8
0
 62
     160
 10
4.09451
 20
0.531467
 30
0.0
 11
3.80018
 21
0.531467
 31
0.0
  0
LINE
  8
0
 62
     160
 10
3.80018
 20
0.531467
 30
0.0
 11
3.70665
 21
0.508137
 31
0.0
  0
LINE
  8
0
 62
     160
 10
3.70665
 20
0.508137
 30
0.0
 11
3.70469
 21
0.507867
 31
0.0
  0
LINE
  8
0
 62
     160
 10
3.70469
 20
0.507867
 30
0.0
 11
3.70182
 21
0.50841
 31
0.0
  0
LINE
  8
0
 62
     160
 10
3.70182
 20
0.50841
 30
0.0
 11
3.64415
 21
0.531467
 31
0.0
  0
ENDSEC
  0
EOF
