  0
SECTION
  2
HEADER
  9
$ACADVER
  1
AC1009
  9
$EXTMIN
 10
0.0
 20
0.0
 30
0.0
  9
$EXTMAX
 10
1000.0
 20
1000.0
 30
0.0
  9
$FILLMODE
 70
 0
  9
$SPLFRAME
 70
 1
  0
ENDSEC
  0
SECTION
  2
TABLES
  0
TABLE
  2
LAYER
 70
1
  0
LAYER
  2
0
 70
     0
 62
     7
  6
CONTINUOUS
  0
ENDTAB
  0
ENDSEC
  0
SECTION
  2
ENTITIES
  0
LINE
  8
0
 62
     4
 10
0.883897
 20
0.498047
 30
0.0
 11
0.478353
 21
0.498047
 31
0.0
  0
LINE
  8
0
 62
     4
 10
0.478353
 20
0.498047
 30
0.0
 11
0.478353
 21
0.903538
 31
0.0
  0
LINE
  8
0
 62
     4
 10
0.478353
 20
0.903538
 30
0.0
 11
0.883897
 21
0.903538
 31
0.0
  0
LINE
  8
0
 62
     4
 10
0.883897
 20
0.903538
 30
0.0
 11
0.883897
 21
0.498047
 31
0.0
  0
LINE
  8
0
 62
     4
 10
1.00982
 20
1.31103
 30
0.0
 11
0.549208
 21
1.31103
 31
0.0
  0
LINE
  8
0
 62
     4
 10
0.549208
 20
1.31103
 30
0.0
 11
0.0236003
 21
1.31103
 31
0.0
  0
LINE
  8
0
 62
     4
 10
0.0236003
 20
1.31103
 30
0.0
 11
0
 21
1.28738
 31
0.0
  0
LINE
  8
0
 62
     4
 10
0
 20
1.28738
 30
0.0
 11
0
 21
0.0236003
 31
0.0
  0
LINE
  8
0
 62
     4
 10
0
 20
0.0236003
 30
0.0
 11
0.0236003
 21
-0
 31
0.0
  0
LINE
  8
0
 62
     4
 10
0.0236003
 20
-0
 30
0.0
 11
1.28738
 21
-0
 31
0.0
  0
LINE
  8
0
 62
     4
 10
1.28738
 20
-0
 30
0.0
 11
1.31103
 21
0.0236003
 31
0.0
  0
LINE
  8
0
 62
     4
 10
1.31103
 20
0.0236003
 30
0.0
 11
1.31103
 21
0.466525
 31
0.0
  0
LINE
  8
0
 62
     4
 10
1.31103
 20
0.466525
 30
0.0
 11
1.31103
 21
1.28738
 31
0.0
  0
LINE
  8
0
 62
     4
 10
1.31103
 20
1.28738
 30
0.0
 11
1.28738
 21
1.31103
 31
0.0
  0
LINE
  8
0
 62
     4
 10
1.28738
 20
1.31103
 30
0.0
 11
1.00982
 21
1.31103
 31
0.0
  0
LINE
  8
0
 62
     4
 10
1.13976
 20
1.91536
 30
0.0
 11
0.931099
 21
1.91536
 31
0.0
  0
LINE
  8
0
 62
     4
 10
0.931099
 20
1.91536
 30
0.0
 11
0.931099
 21
2.3209
 31
0.0
  0
LINE
  8
0
 62
     4
 10
0.931099
 20
2.3209
 30
0.0
 11
1.13976
 21
2.3209
 31
0.0
  0
LINE
  8
0
 62
     4
 10
1.13976
 20
2.3209
 30
0.0
 11
1.13976
 21
1.91536
 31
0.0
  0
LINE
  8
0
 62
     4
 10
1.31103
 20
2.42719
 30
0.0
 11
1.31103
 21
2.76378
 31
0.0
  0
LINE
  8
0
 62
     4
 10
1.31103
 20
2.76378
 30
0.0
 11
1.28738
 21
2.78737
 31
0.0
  0
LINE
  8
0
 62
     4
 10
1.28738
 20
2.78737
 30
0.0
 11
0.0236003
 21
2.78737
 31
0.0
  0
LINE
  8
0
 62
     4
 10
0.0236003
 20
2.78737
 30
0.0
 11
0
 21
2.76378
 31
0.0
  0
LINE
  8
0
 62
     4
 10
0
 20
2.76378
 30
0.0
 11
0
 21
1.5
 31
0.0
  0
LINE
  8
0
 62
     4
 10
0
 20
1.5
 30
0.0
 11
0.0236003
 21
1.47635
 31
0.0
  0
LINE
  8
0
 62
     4
 10
0.0236003
 20
1.47635
 30
0.0
 11
0.549208
 21
1.47635
 31
0.0
  0
LINE
  8
0
 62
     4
 10
0.549208
 20
1.47635
 30
0.0
 11
0.549208
 21
1.4764
 31
0.0
  0
LINE
  8
0
 62
     4
 10
0.549208
 20
1.4764
 30
0.0
 11
1.00982
 21
1.4764
 31
0.0
  0
LINE
  8
0
 62
     4
 10
1.00982
 20
1.4764
 30
0.0
 11
1.00982
 21
1.47635
 31
0.0
  0
LINE
  8
0
 62
     4
 10
1.00982
 20
1.47635
 30
0.0
 11
1.28738
 21
1.47635
 31
0.0
  0
LINE
  8
0
 62
     4
 10
1.28738
 20
1.47635
 30
0.0
 11
1.31103
 21
1.5
 31
0.0
  0
LINE
  8
0
 62
     4
 10
1.31103
 20
1.5
 30
0.0
 11
1.31103
 21
1.96653
 31
0.0
  0
LINE
  8
0
 62
     4
 10
1.31103
 20
1.96653
 30
0.0
 11
1.21652
 21
1.96653
 31
0.0
  0
LINE
  8
0
 62
     4
 10
1.21652
 20
1.96653
 30
0.0
 11
1.21652
 21
2.42719
 31
0.0
  0
LINE
  8
0
 62
     4
 10
1.21652
 20
2.42719
 30
0.0
 11
1.31103
 21
2.42719
 31
0.0
  0
ENDSEC
  0
EOF
