  0
SECTION
  2
HEADER
  9
$ACADVER
  1
AC1009
  9
$EXTMIN
 10
0.0
 20
0.0
 30
0.0
  9
$EXTMAX
 10
1000.0
 20
1000.0
 30
0.0
  9
$FILLMODE
 70
 0
  9
$SPLFRAME
 70
 1
  0
ENDSEC
  0
SECTION
  2
TABLES
  0
TABLE
  2
LAYER
 70
1
  0
LAYER
  2
0
 70
     0
 62
     7
  6
CONTINUOUS
  0
ENDTAB
  0
ENDSEC
  0
SECTION
  2
ENTITIES
  0
LINE
  8
0
 62
     160
 10
1.01769
 20
1.47635
 30
0.0
 11
1.29525
 21
1.47635
 31
0.0
  0
LINE
  8
0
 62
     160
 10
1.29525
 20
1.47635
 30
0.0
 11
1.30084
 21
1.47868
 31
0.0
  0
LINE
  8
0
 62
     160
 10
1.30084
 20
1.47868
 30
0.0
 11
1.32444
 21
1.50233
 31
0.0
  0
LINE
  8
0
 62
     160
 10
1.32444
 20
1.50233
 30
0.0
 11
1.32677
 21
1.50786
 31
0.0
  0
LINE
  8
0
 62
     160
 10
1.32677
 20
1.50786
 30
0.0
 11
1.32677
 21
1.97444
 31
0.0
  0
LINE
  8
0
 62
     160
 10
1.32677
 20
1.97444
 30
0.0
 11
1.31103
 21
1.97444
 31
0.0
  0
LINE
  8
0
 62
     160
 10
1.31103
 20
1.97444
 30
0.0
 11
1.31103
 21
1.51113
 31
0.0
  0
LINE
  8
0
 62
     160
 10
1.31103
 20
1.51113
 30
0.0
 11
1.29199
 21
1.49214
 31
0.0
  0
LINE
  8
0
 62
     160
 10
1.29199
 20
1.49214
 30
0.0
 11
1.01769
 21
1.49214
 31
0.0
  0
LINE
  8
0
 62
     160
 10
1.01769
 20
1.49214
 30
0.0
 11
1.01769
 21
1.47635
 31
0.0
  0
LINE
  8
0
 62
     160
 10
1.32444
 20
1.30084
 30
0.0
 11
1.30084
 21
1.32449
 31
0.0
  0
LINE
  8
0
 62
     160
 10
1.30084
 20
1.32449
 30
0.0
 11
1.29525
 21
1.32682
 31
0.0
  0
LINE
  8
0
 62
     160
 10
1.29525
 20
1.32682
 30
0.0
 11
1.01769
 21
1.32682
 31
0.0
  0
LINE
  8
0
 62
     160
 10
1.01769
 20
1.32682
 30
0.0
 11
1.01769
 21
1.31103
 31
0.0
  0
LINE
  8
0
 62
     160
 10
1.01769
 20
1.31103
 30
0.0
 11
1.29199
 21
1.31103
 31
0.0
  0
LINE
  8
0
 62
     160
 10
1.29199
 20
1.31103
 30
0.0
 11
1.31103
 21
1.29205
 31
0.0
  0
LINE
  8
0
 62
     160
 10
1.31103
 20
1.29205
 30
0.0
 11
1.31103
 21
0.474447
 31
0.0
  0
LINE
  8
0
 62
     160
 10
1.31103
 20
0.474447
 30
0.0
 11
1.32677
 21
0.474447
 31
0.0
  0
LINE
  8
0
 62
     160
 10
1.32677
 20
0.474447
 30
0.0
 11
1.32677
 21
1.2953
 31
0.0
  0
LINE
  8
0
 62
     160
 10
1.32677
 20
1.2953
 30
0.0
 11
1.32444
 21
1.30084
 31
0.0
  0
LINE
  8
0
 62
     160
 10
0.0259332
 20
1.47868
 30
0.0
 11
0.0315213
 21
1.47635
 31
0.0
  0
LINE
  8
0
 62
     160
 10
0.0315213
 20
1.47635
 30
0.0
 11
0.551161
 21
1.47635
 31
0.0
  0
LINE
  8
0
 62
     160
 10
0.551161
 20
1.47635
 30
0.0
 11
0.551161
 21
1.49214
 31
0.0
  0
LINE
  8
0
 62
     160
 10
0.551161
 20
1.49214
 30
0.0
 11
0.0347765
 21
1.49214
 31
0.0
  0
LINE
  8
0
 62
     160
 10
0.0347765
 20
1.49214
 30
0.0
 11
0.0157335
 21
1.51113
 31
0.0
  0
LINE
  8
0
 62
     160
 10
0.0157335
 20
1.51113
 30
0.0
 11
0.0157335
 21
2.76839
 31
0.0
  0
LINE
  8
0
 62
     160
 10
0.0157335
 20
2.76839
 30
0.0
 11
0.0347765
 21
2.78737
 31
0.0
  0
LINE
  8
0
 62
     160
 10
0.0347765
 20
2.78737
 30
0.0
 11
1.29199
 21
2.78737
 31
0.0
  0
LINE
  8
0
 62
     160
 10
1.29199
 20
2.78737
 30
0.0
 11
1.31103
 21
2.76839
 31
0.0
  0
LINE
  8
0
 62
     160
 10
1.31103
 20
2.76839
 30
0.0
 11
1.31103
 21
2.44097
 31
0.0
  0
LINE
  8
0
 62
     160
 10
1.31103
 20
2.44097
 30
0.0
 11
1.32677
 21
2.44097
 31
0.0
  0
LINE
  8
0
 62
     160
 10
1.32677
 20
2.44097
 30
0.0
 11
1.32677
 21
2.77165
 31
0.0
  0
LINE
  8
0
 62
     160
 10
1.32677
 20
2.77165
 30
0.0
 11
1.32444
 21
2.77724
 31
0.0
  0
LINE
  8
0
 62
     160
 10
1.32444
 20
2.77724
 30
0.0
 11
1.30084
 21
2.80083
 31
0.0
  0
LINE
  8
0
 62
     160
 10
1.30084
 20
2.80083
 30
0.0
 11
1.29525
 21
2.80317
 31
0.0
  0
LINE
  8
0
 62
     160
 10
1.29525
 20
2.80317
 30
0.0
 11
0.0315213
 21
2.80317
 31
0.0
  0
LINE
  8
0
 62
     160
 10
0.0315213
 20
2.80317
 30
0.0
 11
0.0259332
 21
2.80083
 31
0.0
  0
LINE
  8
0
 62
     160
 10
0.0259332
 20
2.80083
 30
0.0
 11
0.0023329
 21
2.77724
 31
0.0
  0
LINE
  8
0
 62
     160
 10
0.0023329
 20
2.77724
 30
0.0
 11
0
 21
2.77165
 31
0.0
  0
LINE
  8
0
 62
     160
 10
0
 20
2.77165
 30
0.0
 11
0
 21
1.50786
 31
0.0
  0
LINE
  8
0
 62
     160
 10
0
 20
1.50786
 30
0.0
 11
0.0023329
 21
1.50233
 31
0.0
  0
LINE
  8
0
 62
     160
 10
0.0023329
 20
1.50233
 30
0.0
 11
0.0259332
 21
1.47868
 31
0.0
  0
LINE
  8
0
 62
     160
 10
0.0157335
 20
0.0347765
 30
0.0
 11
0.0157335
 21
1.29205
 31
0.0
  0
LINE
  8
0
 62
     160
 10
0.0157335
 20
1.29205
 30
0.0
 11
0.0347765
 21
1.31103
 31
0.0
  0
LINE
  8
0
 62
     160
 10
0.0347765
 20
1.31103
 30
0.0
 11
0.551161
 21
1.31103
 31
0.0
  0
LINE
  8
0
 62
     160
 10
0.551161
 20
1.31103
 30
0.0
 11
0.551161
 21
1.32682
 31
0.0
  0
LINE
  8
0
 62
     160
 10
0.551161
 20
1.32682
 30
0.0
 11
0.0315213
 21
1.32682
 31
0.0
  0
LINE
  8
0
 62
     160
 10
0.0315213
 20
1.32682
 30
0.0
 11
0.0259332
 21
1.32449
 31
0.0
  0
LINE
  8
0
 62
     160
 10
0.0259332
 20
1.32449
 30
0.0
 11
0.0023329
 21
1.30084
 31
0.0
  0
LINE
  8
0
 62
     160
 10
0.0023329
 20
1.30084
 30
0.0
 11
0
 21
1.2953
 31
0.0
  0
LINE
  8
0
 62
     160
 10
0
 20
1.2953
 30
0.0
 11
0
 21
0.0315213
 31
0.0
  0
LINE
  8
0
 62
     160
 10
0
 20
0.0315213
 30
0.0
 11
0.0023329
 21
0.0259332
 31
0.0
  0
LINE
  8
0
 62
     160
 10
0.0023329
 20
0.0259332
 30
0.0
 11
0.0259332
 21
0.00227864
 31
0.0
  0
LINE
  8
0
 62
     160
 10
0.0259332
 20
0.00227864
 30
0.0
 11
0.0315213
 21
-0
 31
0.0
  0
LINE
  8
0
 62
     160
 10
0.0315213
 20
-0
 30
0.0
 11
1.29525
 21
-0
 31
0.0
  0
LINE
  8
0
 62
     160
 10
1.29525
 20
-0
 30
0.0
 11
1.29525
 21
0.0157878
 31
0.0
  0
LINE
  8
0
 62
     160
 10
1.29525
 20
0.0157878
 30
0.0
 11
0.0347765
 21
0.0157878
 31
0.0
  0
LINE
  8
0
 62
     160
 10
0.0347765
 20
0.0157878
 30
0.0
 11
0.0157335
 21
0.0347765
 31
0.0
  0
ENDSEC
  0
EOF
