  0
SECTION
  2
HEADER
  9
$ACADVER
  1
AC1009
  9
$EXTMIN
 10
0.0
 20
0.0
 30
0.0
  9
$EXTMAX
 10
1000.0
 20
1000.0
 30
0.0
  9
$FILLMODE
 70
 0
  9
$SPLFRAME
 70
 1
  0
ENDSEC
  0
SECTION
  2
TABLES
  0
TABLE
  2
LAYER
 70
1
  0
LAYER
  2
0
 70
     0
 62
     7
  6
CONTINUOUS
  0
ENDTAB
  0
ENDSEC
  0
SECTION
  2
ENTITIES
  0
LINE
  8
0
 62
     4
 10
1.0083
 20
0.653592
 30
0.0
 11
0.983778
 21
0.658583
 31
0.0
  0
LINE
  8
0
 62
     4
 10
0.983778
 20
0.658583
 30
0.0
 11
0.963758
 21
0.672038
 31
0.0
  0
LINE
  8
0
 62
     4
 10
0.963758
 20
0.672038
 30
0.0
 11
0.950304
 21
0.692057
 31
0.0
  0
LINE
  8
0
 62
     4
 10
0.950304
 20
0.692057
 30
0.0
 11
0.945367
 21
0.716581
 31
0.0
  0
LINE
  8
0
 62
     4
 10
0.945367
 20
0.716581
 30
0.0
 11
0.950304
 21
0.741103
 31
0.0
  0
LINE
  8
0
 62
     4
 10
0.950304
 20
0.741103
 30
0.0
 11
0.963758
 21
0.761122
 31
0.0
  0
LINE
  8
0
 62
     4
 10
0.963758
 20
0.761122
 30
0.0
 11
0.983778
 21
0.774631
 31
0.0
  0
LINE
  8
0
 62
     4
 10
0.983778
 20
0.774631
 30
0.0
 11
1.0083
 21
0.779568
 31
0.0
  0
LINE
  8
0
 62
     4
 10
1.0083
 20
0.779568
 30
0.0
 11
1.03282
 21
0.774631
 31
0.0
  0
LINE
  8
0
 62
     4
 10
1.03282
 20
0.774631
 30
0.0
 11
1.05284
 21
0.761122
 31
0.0
  0
LINE
  8
0
 62
     4
 10
1.05284
 20
0.761122
 30
0.0
 11
1.06635
 21
0.741103
 31
0.0
  0
LINE
  8
0
 62
     4
 10
1.06635
 20
0.741103
 30
0.0
 11
1.07134
 21
0.716581
 31
0.0
  0
LINE
  8
0
 62
     4
 10
1.07134
 20
0.716581
 30
0.0
 11
1.06635
 21
0.692057
 31
0.0
  0
LINE
  8
0
 62
     4
 10
1.06635
 20
0.692057
 30
0.0
 11
1.05284
 21
0.672038
 31
0.0
  0
LINE
  8
0
 62
     4
 10
1.05284
 20
0.672038
 30
0.0
 11
1.03282
 21
0.658583
 31
0.0
  0
LINE
  8
0
 62
     4
 10
1.03282
 20
0.658583
 30
0.0
 11
1.0083
 21
0.653592
 31
0.0
  0
LINE
  8
0
 62
     4
 10
0.36415
 20
0.0945096
 30
0.0
 11
0.339626
 21
0.0995008
 31
0.0
  0
LINE
  8
0
 62
     4
 10
0.339626
 20
0.0995008
 30
0.0
 11
0.319607
 21
0.112956
 31
0.0
  0
LINE
  8
0
 62
     4
 10
0.319607
 20
0.112956
 30
0.0
 11
0.306099
 21
0.132975
 31
0.0
  0
LINE
  8
0
 62
     4
 10
0.306099
 20
0.132975
 30
0.0
 11
0.301161
 21
0.157497
 31
0.0
  0
LINE
  8
0
 62
     4
 10
0.301161
 20
0.157497
 30
0.0
 11
0.306099
 21
0.182021
 31
0.0
  0
LINE
  8
0
 62
     4
 10
0.306099
 20
0.182021
 30
0.0
 11
0.319607
 21
0.20204
 31
0.0
  0
LINE
  8
0
 62
     4
 10
0.319607
 20
0.20204
 30
0.0
 11
0.339626
 21
0.215549
 31
0.0
  0
LINE
  8
0
 62
     4
 10
0.339626
 20
0.215549
 30
0.0
 11
0.36415
 21
0.220486
 31
0.0
  0
LINE
  8
0
 62
     4
 10
0.36415
 20
0.220486
 30
0.0
 11
0.388618
 21
0.215549
 31
0.0
  0
LINE
  8
0
 62
     4
 10
0.388618
 20
0.215549
 30
0.0
 11
0.408638
 21
0.20204
 31
0.0
  0
LINE
  8
0
 62
     4
 10
0.408638
 20
0.20204
 30
0.0
 11
0.422146
 21
0.182021
 31
0.0
  0
LINE
  8
0
 62
     4
 10
0.422146
 20
0.182021
 30
0.0
 11
0.427138
 21
0.157497
 31
0.0
  0
LINE
  8
0
 62
     4
 10
0.427138
 20
0.157497
 30
0.0
 11
0.422146
 21
0.132975
 31
0.0
  0
LINE
  8
0
 62
     4
 10
0.422146
 20
0.132975
 30
0.0
 11
0.408638
 21
0.112956
 31
0.0
  0
LINE
  8
0
 62
     4
 10
0.408638
 20
0.112956
 30
0.0
 11
0.388618
 21
0.0995008
 31
0.0
  0
LINE
  8
0
 62
     4
 10
0.388618
 20
0.0995008
 30
0.0
 11
0.36415
 21
0.0945096
 31
0.0
  0
LINE
  8
0
 62
     4
 10
1.15793
 20
0.4796
 30
0.0
 11
1.15793
 21
0.953504
 31
0.0
  0
LINE
  8
0
 62
     4
 10
1.15793
 20
0.953504
 30
0.0
 11
1.30393
 21
0.953504
 31
0.0
  0
LINE
  8
0
 62
     4
 10
1.30393
 20
0.953504
 30
0.0
 11
1.30393
 21
1.28044
 31
0.0
  0
LINE
  8
0
 62
     4
 10
1.30393
 20
1.28044
 30
0.0
 11
1.28044
 21
1.30393
 31
0.0
  0
LINE
  8
0
 62
     4
 10
1.28044
 20
1.30393
 30
0.0
 11
0.0234918
 21
1.30393
 31
0.0
  0
LINE
  8
0
 62
     4
 10
0.0234918
 20
1.30393
 30
0.0
 11
0
 21
1.28044
 31
0.0
  0
LINE
  8
0
 62
     4
 10
0
 20
1.28044
 30
0.0
 11
0
 21
0.0234918
 31
0.0
  0
LINE
  8
0
 62
     4
 10
0
 20
0.0234918
 30
0.0
 11
0.0234918
 21
-0
 31
0.0
  0
LINE
  8
0
 62
     4
 10
0.0234918
 20
-0
 30
0.0
 11
0.127224
 21
-0
 31
0.0
  0
LINE
  8
0
 62
     4
 10
0.127224
 20
-0
 30
0.0
 11
0.127224
 21
0.00786675
 31
0.0
  0
LINE
  8
0
 62
     4
 10
0.127224
 20
0.00786675
 30
0.0
 11
0.601074
 21
0.00786675
 31
0.0
  0
LINE
  8
0
 62
     4
 10
0.601074
 20
0.00786675
 30
0.0
 11
0.601074
 21
-0
 31
0.0
  0
LINE
  8
0
 62
     4
 10
0.601074
 20
-0
 30
0.0
 11
1.28044
 21
-0
 31
0.0
  0
LINE
  8
0
 62
     4
 10
1.28044
 20
-0
 30
0.0
 11
1.30393
 21
0.0234918
 31
0.0
  0
LINE
  8
0
 62
     4
 10
1.30393
 20
0.0234918
 30
0.0
 11
1.30393
 21
0.4796
 31
0.0
  0
LINE
  8
0
 62
     4
 10
1.30393
 20
0.4796
 30
0.0
 11
1.15793
 21
0.4796
 31
0.0
  0
ENDSEC
  0
EOF
