solid OpenSCAD_Model
  facet normal -0.707107 -0.707107 0
    outer loop
      vertex -0.65 0.315 3
      vertex -0.65 0.315 2.4
      vertex 0.315 -0.65 2.4
    endloop
  endfacet
  facet normal -0.707107 -0.707107 0
    outer loop
      vertex 0.315 -0.65 3
      vertex -0.65 0.315 3
      vertex 0.315 -0.65 2.4
    endloop
  endfacet
  facet normal 0 0 -1
    outer loop
      vertex -0.65 0.315 2.4
      vertex -0.65 9.485 2.4
      vertex 0.315 -0.65 2.4
    endloop
  endfacet
  facet normal 0 0 -1
    outer loop
      vertex 0.315 -0.65 2.4
      vertex -0.65 9.485 2.4
      vertex 0.645 9.485 2.4
    endloop
  endfacet
  facet normal 0 0 -1
    outer loop
      vertex 0.315 -0.65 2.4
      vertex 0.645 9.485 2.4
      vertex 0.645 0.874 2.4
    endloop
  endfacet
  facet normal 0 0 -1
    outer loop
      vertex 0.315 -0.65 2.4
      vertex 0.645 0.874 2.4
      vertex 0.874 0.645 2.4
    endloop
  endfacet
  facet normal 0 0 -1
    outer loop
      vertex 0.874 0.645 2.4
      vertex 1.382 0.645 2.4
      vertex 0.315 -0.65 2.4
    endloop
  endfacet
  facet normal 0 0 -1
    outer loop
      vertex 0.315 -0.65 2.4
      vertex 1.382 0.645 2.4
      vertex 1.382 -0.65 2.4
    endloop
  endfacet
  facet normal -1 0 0
    outer loop
      vertex -0.65 0.315 2.4
      vertex -0.65 0.315 3
      vertex -0.65 9.485 2.4
    endloop
  endfacet
  facet normal -1 0 0
    outer loop
      vertex -0.65 9.485 2.4
      vertex -0.65 0.315 3
      vertex -0.65 9.485 3
    endloop
  endfacet
  facet normal -1 0 0
    outer loop
      vertex -0.65 9.485 3
      vertex -0.65 14.742 3
      vertex -0.65 9.485 2.4
    endloop
  endfacet
  facet normal -1 0 0
    outer loop
      vertex -0.65 9.485 2.4
      vertex -0.65 14.742 3
      vertex -0.65 25.258 3
    endloop
  endfacet
  facet normal -1 0 0
    outer loop
      vertex -0.65 25.258 3
      vertex -0.65 30.516 3
      vertex -0.65 9.485 2.4
    endloop
  endfacet
  facet normal -1 0 0
    outer loop
      vertex -0.65 9.485 2.4
      vertex -0.65 30.516 3
      vertex -0.65 32.802 3
    endloop
  endfacet
  facet normal -1 0 0
    outer loop
      vertex -0.65 30.516 2.4
      vertex -0.65 32.802 3
      vertex -0.65 32.802 2.4
    endloop
  endfacet
  facet normal -1 0 0
    outer loop
      vertex -0.65 9.485 2.4
      vertex -0.65 32.802 3
      vertex -0.65 14.742 2.4
    endloop
  endfacet
  facet normal -1 0 0
    outer loop
      vertex -0.65 25.258 2.4
      vertex -0.65 30.516 0
      vertex -0.65 25.258 0
    endloop
  endfacet
  facet normal -1 0 0
    outer loop
      vertex -0.65 30.516 2.4
      vertex -0.65 30.516 0
      vertex -0.65 25.258 2.4
    endloop
  endfacet
  facet normal -1 0 0
    outer loop
      vertex -0.65 30.516 2.4
      vertex -0.65 25.258 2.4
      vertex -0.65 32.802 3
    endloop
  endfacet
  facet normal -1 0 0
    outer loop
      vertex -0.65 14.742 0
      vertex -0.65 9.485 2.4
      vertex -0.65 14.742 2.4
    endloop
  endfacet
  facet normal -1 0 0
    outer loop
      vertex -0.65 25.258 2.4
      vertex -0.65 14.742 2.4
      vertex -0.65 32.802 3
    endloop
  endfacet
  facet normal -1 0 0
    outer loop
      vertex -0.65 9.485 2.4
      vertex -0.65 14.742 0
      vertex -0.65 9.485 0
    endloop
  endfacet
  facet normal 0 0 1
    outer loop
      vertex -0.65 9.485 3
      vertex -0.65 0.315 3
      vertex 0.315 -0.65 3
    endloop
  endfacet
  facet normal 0 0 1
    outer loop
      vertex 0.645 0.874 3
      vertex -0.65 9.485 3
      vertex 0.315 -0.65 3
    endloop
  endfacet
  facet normal 0 0 1
    outer loop
      vertex 1.382 -0.65 3
      vertex 0.874 0.645 3
      vertex 0.315 -0.65 3
    endloop
  endfacet
  facet normal 0 0 1
    outer loop
      vertex 0.874 0.645 3
      vertex 0.645 0.874 3
      vertex 0.315 -0.65 3
    endloop
  endfacet
  facet normal 0 0 1
    outer loop
      vertex 1.382 0.645 3
      vertex 0.874 0.645 3
      vertex 1.382 -0.65 3
    endloop
  endfacet
  facet normal 0 0 1
    outer loop
      vertex 0.645 0.874 3
      vertex 0.645 9.485 3
      vertex -0.65 9.485 3
    endloop
  endfacet
  facet normal 0 -1 0
    outer loop
      vertex 0.315 -0.65 3
      vertex 0.315 -0.65 2.4
      vertex 1.382 -0.65 2.4
    endloop
  endfacet
  facet normal 0 -1 0
    outer loop
      vertex 1.382 -0.65 3
      vertex 0.315 -0.65 3
      vertex 1.382 -0.65 2.4
    endloop
  endfacet
  facet normal 0 -1 0
    outer loop
      vertex 1.382 -0.65 0
      vertex 3.871 -0.65 0
      vertex 1.382 -0.65 2.4
    endloop
  endfacet
  facet normal 0 -1 0
    outer loop
      vertex 3.871 -0.65 0
      vertex 3.871 -0.65 3
      vertex 1.382 -0.65 2.4
    endloop
  endfacet
  facet normal 0 -1 0
    outer loop
      vertex 3.871 -0.65 3
      vertex 1.382 -0.65 3
      vertex 1.382 -0.65 2.4
    endloop
  endfacet
  facet normal -1 0 0
    outer loop
      vertex 1.382 -0.65 0
      vertex 1.382 -0.65 2.4
      vertex 1.382 0 0
    endloop
  endfacet
  facet normal -1 0 0
    outer loop
      vertex 1.382 0 1.2
      vertex 1.382 -0.65 2.4
      vertex 1.382 0.645 2.4
    endloop
  endfacet
  facet normal -1 0 0
    outer loop
      vertex 1.382 0 0
      vertex 1.382 -0.65 2.4
      vertex 1.382 0 1.2
    endloop
  endfacet
  facet normal -1 0 0
    outer loop
      vertex 1.382 0 1.2
      vertex 1.382 0.645 2.4
      vertex 1.382 0.645 1.2
    endloop
  endfacet
  facet normal 0 1 0
    outer loop
      vertex 0.874 0.645 2.4
      vertex 0.874 0.645 3
      vertex 1.382 0.645 2.4
    endloop
  endfacet
  facet normal 0 1 0
    outer loop
      vertex 1.382 0.645 2.4
      vertex 0.874 0.645 3
      vertex 1.382 0.645 3
    endloop
  endfacet
  facet normal 0 1 0
    outer loop
      vertex 1.382 0.645 3
      vertex 3.871 0.645 3
      vertex 1.382 0.645 2.4
    endloop
  endfacet
  facet normal 0 1 0
    outer loop
      vertex 1.382 0.645 2.4
      vertex 3.871 0.645 3
      vertex 3.871 0.645 1.2
    endloop
  endfacet
  facet normal 0 1 0
    outer loop
      vertex 1.382 0.645 2.4
      vertex 3.871 0.645 1.2
      vertex 1.382 0.645 1.2
    endloop
  endfacet
  facet normal 0.707107 0.707107 0
    outer loop
      vertex 0.645 0.874 2.4
      vertex 0.645 0.874 3
      vertex 0.874 0.645 2.4
    endloop
  endfacet
  facet normal 0.707107 0.707107 0
    outer loop
      vertex 0.874 0.645 2.4
      vertex 0.645 0.874 3
      vertex 0.874 0.645 3
    endloop
  endfacet
  facet normal 1 0 0
    outer loop
      vertex 0.645 25.258 2.4
      vertex 0.645 30.516 2.4
      vertex 0.645 0.874 3
    endloop
  endfacet
  facet normal 1 0 0
    outer loop
      vertex 0.645 0.874 3
      vertex 0.645 0.874 2.4
      vertex 0.645 9.485 2.4
    endloop
  endfacet
  facet normal 1 0 0
    outer loop
      vertex 0.645 14.742 2.4
      vertex 0.645 0.874 3
      vertex 0.645 9.485 2.4
    endloop
  endfacet
  facet normal 1 0 0
    outer loop
      vertex 0.645 9.485 1.2
      vertex 0.645 14.742 1.2
      vertex 0.645 9.485 2.4
    endloop
  endfacet
  facet normal 1 0 0
    outer loop
      vertex 0.645 14.742 1.2
      vertex 0.645 14.742 2.4
      vertex 0.645 9.485 2.4
    endloop
  endfacet
  facet normal 1 0 0
    outer loop
      vertex 0.645 14.742 2.4
      vertex 0.645 25.258 2.4
      vertex 0.645 0.874 3
    endloop
  endfacet
  facet normal 1 0 0
    outer loop
      vertex 0.645 25.258 1.2
      vertex 0.645 30.516 1.2
      vertex 0.645 25.258 2.4
    endloop
  endfacet
  facet normal 1 0 0
    outer loop
      vertex 0.645 30.516 1.2
      vertex 0.645 30.516 2.4
      vertex 0.645 25.258 2.4
    endloop
  endfacet
  facet normal 1 0 0
    outer loop
      vertex 0.645 30.516 2.4
      vertex 0.645 32.243 2.4
      vertex 0.645 0.874 3
    endloop
  endfacet
  facet normal 1 0 0
    outer loop
      vertex 0.645 32.243 2.4
      vertex 0.645 30.516 3
      vertex 0.645 25.258 3
    endloop
  endfacet
  facet normal 1 0 0
    outer loop
      vertex 0.645 32.243 2.4
      vertex 0.645 32.243 3
      vertex 0.645 30.516 3
    endloop
  endfacet
  facet normal 1 0 0
    outer loop
      vertex 0.645 32.243 2.4
      vertex 0.645 25.258 3
      vertex 0.645 14.742 3
    endloop
  endfacet
  facet normal 1 0 0
    outer loop
      vertex 0.645 32.243 2.4
      vertex 0.645 14.742 3
      vertex 0.645 9.485 3
    endloop
  endfacet
  facet normal 1 0 0
    outer loop
      vertex 0.645 32.243 2.4
      vertex 0.645 9.485 3
      vertex 0.645 0.874 3
    endloop
  endfacet
  facet normal 0 -1 0
    outer loop
      vertex -0.65 9.485 2.4
      vertex -0.65 9.485 0
      vertex 0 9.485 0
    endloop
  endfacet
  facet normal 0 -1 0
    outer loop
      vertex 0.645 9.485 1.2
      vertex -0.65 9.485 2.4
      vertex 0 9.485 1.2
    endloop
  endfacet
  facet normal 0 -1 0
    outer loop
      vertex 0 9.485 1.2
      vertex -0.65 9.485 2.4
      vertex 0 9.485 0
    endloop
  endfacet
  facet normal 0 -1 0
    outer loop
      vertex 0.645 9.485 2.4
      vertex -0.65 9.485 2.4
      vertex 0.645 9.485 1.2
    endloop
  endfacet
  facet normal 0 0 -1
    outer loop
      vertex -0.65 9.485 0
      vertex -0.65 14.742 0
      vertex 0 9.485 0
    endloop
  endfacet
  facet normal 0 0 -1
    outer loop
      vertex 0 9.485 0
      vertex -0.65 14.742 0
      vertex 0 14.742 0
    endloop
  endfacet
  facet normal 0 0 -1
    outer loop
      vertex 0 14.742 0
      vertex 0.584 33.122 0
      vertex 0 9.485 0
    endloop
  endfacet
  facet normal 0 0 -1
    outer loop
      vertex 0 25.258 0
      vertex -0.65 25.258 0
      vertex -0.65 30.516 0
    endloop
  endfacet
  facet normal 0 0 -1
    outer loop
      vertex 0 25.258 0
      vertex -0.65 30.516 0
      vertex 0 30.516 0
    endloop
  endfacet
  facet normal 0 0 -1
    outer loop
      vertex 0 25.258 0
      vertex 0.584 33.122 0
      vertex 0 14.742 0
    endloop
  endfacet
  facet normal 0 0 -1
    outer loop
      vertex 0 30.516 0
      vertex 0 32.512 0
      vertex 0.584 33.122 0
    endloop
  endfacet
  facet normal 0 0 -1
    outer loop
      vertex 0 30.516 0
      vertex 0.584 33.122 0
      vertex 0 25.258 0
    endloop
  endfacet
  facet normal 0 0 -1
    outer loop
      vertex 0 9.485 0
      vertex 0.584 33.122 0
      vertex 8.265 33.122 0
    endloop
  endfacet
  facet normal 0 0 -1
    outer loop
      vertex 8.265 33.122 0
      vertex 8.265 33.767 0
      vertex 13.523 33.767 0
    endloop
  endfacet
  facet normal 0 0 -1
    outer loop
      vertex 8.265 33.122 0
      vertex 13.523 33.767 0
      vertex 0 9.485 0
    endloop
  endfacet
  facet normal 0 0 -1
    outer loop
      vertex 0 9.485 0
      vertex 13.523 33.767 0
      vertex 13.523 33.122 0
    endloop
  endfacet
  facet normal 0 0 -1
    outer loop
      vertex 0 9.485 0
      vertex 13.523 33.122 0
      vertex 24.039 33.122 0
    endloop
  endfacet
  facet normal 0 0 -1
    outer loop
      vertex 24.039 33.122 0
      vertex 24.039 33.767 0
      vertex 29.297 33.767 0
    endloop
  endfacet
  facet normal 0 0 -1
    outer loop
      vertex 24.039 33.122 0
      vertex 29.297 33.767 0
      vertex 0 9.485 0
    endloop
  endfacet
  facet normal 0 0 -1
    outer loop
      vertex 0 9.485 0
      vertex 29.297 33.767 0
      vertex 29.297 33.122 0
    endloop
  endfacet
  facet normal 0 0 -1
    outer loop
      vertex 0 9.485 0
      vertex 29.297 33.122 0
      vertex 32.512 33.122 0
    endloop
  endfacet
  facet normal 0 0 -1
    outer loop
      vertex 0 9.485 0
      vertex 32.512 33.122 0
      vertex 33.122 32.512 0
    endloop
  endfacet
  facet normal 0 0 -1
    outer loop
      vertex 0 9.485 0
      vertex 33.122 32.512 0
      vertex 33.122 26.071 0
    endloop
  endfacet
  facet normal 0 0 -1
    outer loop
      vertex 0 9.485 0
      vertex 33.122 26.071 0
      vertex 33.767 26.071 0
    endloop
  endfacet
  facet normal 0 0 -1
    outer loop
      vertex 33.122 23.582 0
      vertex 33.767 26.071 0
      vertex 33.767 23.582 0
    endloop
  endfacet
  facet normal 0 0 -1
    outer loop
      vertex 0 9.485 0
      vertex 33.767 26.071 0
      vertex 33.122 23.582 0
    endloop
  endfacet
  facet normal 0 0 -1
    outer loop
      vertex 33.122 0.584 0
      vertex 0 9.485 0
      vertex 33.122 9.739 0
    endloop
  endfacet
  facet normal 0 0 -1
    outer loop
      vertex 0 9.485 0
      vertex 33.122 12.228 0
      vertex 33.767 12.228 0
    endloop
  endfacet
  facet normal 0 0 -1
    outer loop
      vertex 33.122 9.739 0
      vertex 33.767 12.228 0
      vertex 33.767 9.739 0
    endloop
  endfacet
  facet normal 0 0 -1
    outer loop
      vertex 0 9.485 0
      vertex 33.767 12.228 0
      vertex 33.122 9.739 0
    endloop
  endfacet
  facet normal 0 0 -1
    outer loop
      vertex 17.714 0 0
      vertex 0 9.485 0
      vertex 27.62 0 0
    endloop
  endfacet
  facet normal 0 0 -1
    outer loop
      vertex 33.122 12.228 0
      vertex 0 9.485 0
      vertex 33.122 23.582 0
    endloop
  endfacet
  facet normal 0 0 -1
    outer loop
      vertex 32.802 -0.65 0
      vertex 27.62 -0.65 0
      vertex 27.62 0 0
    endloop
  endfacet
  facet normal 0 0 -1
    outer loop
      vertex 17.714 -0.65 0
      vertex 15.225 -0.65 0
      vertex 15.225 0 0
    endloop
  endfacet
  facet normal 0 0 -1
    outer loop
      vertex 3.871 -0.65 0
      vertex 1.382 -0.65 0
      vertex 1.382 0 0
    endloop
  endfacet
  facet normal 0 0 -1
    outer loop
      vertex 0 9.485 0
      vertex 33.122 0.584 0
      vertex 32.5616 0.0474439 0
    endloop
  endfacet
  facet normal 0 0 -1
    outer loop
      vertex 0 9.485 0
      vertex 32.5616 0.0474439 0
      vertex 33.03 -0.421 0
    endloop
  endfacet
  facet normal 0 0 -1
    outer loop
      vertex 0 9.485 0
      vertex 33.03 -0.421 0
      vertex 32.802 -0.65 0
    endloop
  endfacet
  facet normal 0 0 -1
    outer loop
      vertex 0 9.485 0
      vertex 32.802 -0.65 0
      vertex 27.62 0 0
    endloop
  endfacet
  facet normal 0 0 -1
    outer loop
      vertex 3.871 0 0
      vertex 0 9.485 0
      vertex 15.225 0 0
    endloop
  endfacet
  facet normal 0 0 -1
    outer loop
      vertex 0 9.485 0
      vertex 17.714 0 0
      vertex 17.714 -0.65 0
    endloop
  endfacet
  facet normal 0 0 -1
    outer loop
      vertex 0 9.485 0
      vertex 17.714 -0.65 0
      vertex 15.225 0 0
    endloop
  endfacet
  facet normal 0 0 -1
    outer loop
      vertex 0.584 0 0
      vertex 0 9.485 0
      vertex 1.382 0 0
    endloop
  endfacet
  facet normal 0 0 -1
    outer loop
      vertex 0 9.485 0
      vertex 3.871 0 0
      vertex 3.871 -0.65 0
    endloop
  endfacet
  facet normal 0 0 -1
    outer loop
      vertex 0 9.485 0
      vertex 3.871 -0.65 0
      vertex 1.382 0 0
    endloop
  endfacet
  facet normal 0 0 -1
    outer loop
      vertex 0 9.485 0
      vertex 0.584 0 0
      vertex 0 0.584 0
    endloop
  endfacet
  facet normal 0 1 0
    outer loop
      vertex -0.65 14.742 0
      vertex -0.65 14.742 2.4
      vertex 0 14.742 0
    endloop
  endfacet
  facet normal 0 1 0
    outer loop
      vertex 0 14.742 1.2
      vertex -0.65 14.742 2.4
      vertex 0.645 14.742 2.4
    endloop
  endfacet
  facet normal 0 1 0
    outer loop
      vertex 0 14.742 0
      vertex -0.65 14.742 2.4
      vertex 0 14.742 1.2
    endloop
  endfacet
  facet normal 0 1 0
    outer loop
      vertex 0 14.742 1.2
      vertex 0.645 14.742 2.4
      vertex 0.645 14.742 1.2
    endloop
  endfacet
  facet normal 0 0 -1
    outer loop
      vertex -0.65 14.742 2.4
      vertex -0.65 25.258 2.4
      vertex 0.645 14.742 2.4
    endloop
  endfacet
  facet normal 0 0 -1
    outer loop
      vertex 0.645 14.742 2.4
      vertex -0.65 25.258 2.4
      vertex 0.645 25.258 2.4
    endloop
  endfacet
  facet normal 0 -1 0
    outer loop
      vertex -0.65 25.258 2.4
      vertex -0.65 25.258 0
      vertex 0 25.258 0
    endloop
  endfacet
  facet normal 0 -1 0
    outer loop
      vertex 0.645 25.258 1.2
      vertex -0.65 25.258 2.4
      vertex 0 25.258 1.2
    endloop
  endfacet
  facet normal 0 -1 0
    outer loop
      vertex 0 25.258 1.2
      vertex -0.65 25.258 2.4
      vertex 0 25.258 0
    endloop
  endfacet
  facet normal 0 -1 0
    outer loop
      vertex 0.645 25.258 2.4
      vertex -0.65 25.258 2.4
      vertex 0.645 25.258 1.2
    endloop
  endfacet
  facet normal 0 1 0
    outer loop
      vertex -0.65 30.516 0
      vertex -0.65 30.516 2.4
      vertex 0 30.516 0
    endloop
  endfacet
  facet normal 0 1 0
    outer loop
      vertex 0 30.516 1.2
      vertex -0.65 30.516 2.4
      vertex 0.645 30.516 2.4
    endloop
  endfacet
  facet normal 0 1 0
    outer loop
      vertex 0 30.516 0
      vertex -0.65 30.516 2.4
      vertex 0 30.516 1.2
    endloop
  endfacet
  facet normal 0 1 0
    outer loop
      vertex 0 30.516 1.2
      vertex 0.645 30.516 2.4
      vertex 0.645 30.516 1.2
    endloop
  endfacet
  facet normal 0 0 -1
    outer loop
      vertex -0.65 30.516 2.4
      vertex -0.65 32.802 2.4
      vertex 0.645 30.516 2.4
    endloop
  endfacet
  facet normal 0 0 -1
    outer loop
      vertex 0.645 30.516 2.4
      vertex -0.65 32.802 2.4
      vertex 0.315 33.767 2.4
    endloop
  endfacet
  facet normal 0 0 -1
    outer loop
      vertex 0.874 32.472 2.4
      vertex 0.315 33.767 2.4
      vertex 8.265 33.767 2.4
    endloop
  endfacet
  facet normal 0 0 -1
    outer loop
      vertex 0.645 32.243 2.4
      vertex 0.315 33.767 2.4
      vertex 0.874 32.472 2.4
    endloop
  endfacet
  facet normal 0 0 -1
    outer loop
      vertex 0.645 30.516 2.4
      vertex 0.315 33.767 2.4
      vertex 0.645 32.243 2.4
    endloop
  endfacet
  facet normal 0 0 -1
    outer loop
      vertex 0.874 32.472 2.4
      vertex 8.265 33.767 2.4
      vertex 8.265 32.472 2.4
    endloop
  endfacet
  facet normal -0.707107 0.707107 0
    outer loop
      vertex -0.65 32.802 2.4
      vertex -0.65 32.802 3
      vertex 0.315 33.767 2.4
    endloop
  endfacet
  facet normal -0.707107 0.707107 0
    outer loop
      vertex 0.315 33.767 2.4
      vertex -0.65 32.802 3
      vertex 0.315 33.767 3
    endloop
  endfacet
  facet normal 0 0 1
    outer loop
      vertex -0.65 32.802 3
      vertex -0.65 30.516 3
      vertex 0.645 30.516 3
    endloop
  endfacet
  facet normal 0 0 1
    outer loop
      vertex 0.874 32.472 3
      vertex -0.65 32.802 3
      vertex 0.645 32.243 3
    endloop
  endfacet
  facet normal 0 0 1
    outer loop
      vertex 0.645 32.243 3
      vertex -0.65 32.802 3
      vertex 0.645 30.516 3
    endloop
  endfacet
  facet normal 0 0 1
    outer loop
      vertex 8.265 32.472 3
      vertex -0.65 32.802 3
      vertex 0.874 32.472 3
    endloop
  endfacet
  facet normal 0 0 1
    outer loop
      vertex 8.265 33.767 3
      vertex -0.65 32.802 3
      vertex 8.265 32.472 3
    endloop
  endfacet
  facet normal 0 0 1
    outer loop
      vertex 0.315 33.767 3
      vertex -0.65 32.802 3
      vertex 8.265 33.767 3
    endloop
  endfacet
  facet normal 0 0 1
    outer loop
      vertex -0.65 30.516 3
      vertex -0.65 25.258 3
      vertex 0.645 25.258 3
    endloop
  endfacet
  facet normal 0 0 1
    outer loop
      vertex 0.645 30.516 3
      vertex -0.65 30.516 3
      vertex 0.645 25.258 3
    endloop
  endfacet
  facet normal 0 0 1
    outer loop
      vertex -0.65 25.258 3
      vertex -0.65 14.742 3
      vertex 0.645 14.742 3
    endloop
  endfacet
  facet normal 0 0 1
    outer loop
      vertex 0.645 25.258 3
      vertex -0.65 25.258 3
      vertex 0.645 14.742 3
    endloop
  endfacet
  facet normal 0 0 1
    outer loop
      vertex -0.65 14.742 3
      vertex -0.65 9.485 3
      vertex 0.645 9.485 3
    endloop
  endfacet
  facet normal 0 0 1
    outer loop
      vertex 0.645 14.742 3
      vertex -0.65 14.742 3
      vertex 0.645 9.485 3
    endloop
  endfacet
  facet normal 0 0 1
    outer loop
      vertex 1.382 0.645 3
      vertex 1.382 -0.65 3
      vertex 3.871 -0.65 3
    endloop
  endfacet
  facet normal 0 0 1
    outer loop
      vertex 3.871 0.645 3
      vertex 1.382 0.645 3
      vertex 3.871 -0.65 3
    endloop
  endfacet
  facet normal 1 0 0
    outer loop
      vertex 3.871 -0.65 3
      vertex 3.871 -0.65 0
      vertex 3.871 0 0
    endloop
  endfacet
  facet normal 1 0 0
    outer loop
      vertex 3.871 0.645 1.2
      vertex 3.871 -0.65 3
      vertex 3.871 0 1.2
    endloop
  endfacet
  facet normal 1 0 0
    outer loop
      vertex 3.871 0 1.2
      vertex 3.871 -0.65 3
      vertex 3.871 0 0
    endloop
  endfacet
  facet normal 1 0 0
    outer loop
      vertex 3.871 0.645 3
      vertex 3.871 -0.65 3
      vertex 3.871 0.645 1.2
    endloop
  endfacet
  facet normal 0 -1 0
    outer loop
      vertex 0.584 0 1.2
      vertex 0.584 0 0
      vertex 1.382 0 0
    endloop
  endfacet
  facet normal 0 -1 0
    outer loop
      vertex 1.382 0 1.2
      vertex 0.584 0 1.2
      vertex 1.382 0 0
    endloop
  endfacet
  facet normal 0 0 1
    outer loop
      vertex 0 9.485 1.2
      vertex 0 0.584 1.2
      vertex 0.584 0 1.2
    endloop
  endfacet
  facet normal 0 0 1
    outer loop
      vertex 1.382 0.645 1.2
      vertex 0 9.485 1.2
      vertex 1.382 0 1.2
    endloop
  endfacet
  facet normal 0 0 1
    outer loop
      vertex 1.382 0 1.2
      vertex 0 9.485 1.2
      vertex 0.584 0 1.2
    endloop
  endfacet
  facet normal 0 0 1
    outer loop
      vertex 3.871 0.645 1.2
      vertex 0 9.485 1.2
      vertex 1.382 0.645 1.2
    endloop
  endfacet
  facet normal 0 0 1
    outer loop
      vertex 15.225 0 1.2
      vertex 0 9.485 1.2
      vertex 3.871 0.645 1.2
    endloop
  endfacet
  facet normal 0 0 1
    outer loop
      vertex 15.225 0 1.2
      vertex 3.871 0.645 1.2
      vertex 3.871 0 1.2
    endloop
  endfacet
  facet normal 0 0 1
    outer loop
      vertex 15.225 0.645 1.2
      vertex 0 9.485 1.2
      vertex 15.225 0 1.2
    endloop
  endfacet
  facet normal 0 0 1
    outer loop
      vertex 17.714 0.645 1.2
      vertex 0 9.485 1.2
      vertex 15.225 0.645 1.2
    endloop
  endfacet
  facet normal 0 0 1
    outer loop
      vertex 27.62 0 1.2
      vertex 0 9.485 1.2
      vertex 17.714 0.645 1.2
    endloop
  endfacet
  facet normal 0 0 1
    outer loop
      vertex 27.62 0 1.2
      vertex 17.714 0.645 1.2
      vertex 17.714 0 1.2
    endloop
  endfacet
  facet normal 0 0 1
    outer loop
      vertex 27.62 0.645 1.2
      vertex 0 9.485 1.2
      vertex 27.62 0 1.2
    endloop
  endfacet
  facet normal 0 0 1
    outer loop
      vertex 32.522 0.645 1.2
      vertex 0 9.485 1.2
      vertex 27.62 0.645 1.2
    endloop
  endfacet
  facet normal 0 0 1
    outer loop
      vertex 33.122 0.584 1.2
      vertex 0 9.485 1.2
      vertex 32.522 0.645 1.2
    endloop
  endfacet
  facet normal 0 0 1
    outer loop
      vertex 32.5616 0.0474439 1.2
      vertex 32.522 0.645 1.2
      vertex 32.522 0.087 1.2
    endloop
  endfacet
  facet normal 0 0 1
    outer loop
      vertex 33.122 0.584 1.2
      vertex 32.522 0.645 1.2
      vertex 32.5616 0.0474439 1.2
    endloop
  endfacet
  facet normal 0 0 1
    outer loop
      vertex 0.645 9.485 1.2
      vertex 0 9.485 1.2
      vertex 33.122 0.584 1.2
    endloop
  endfacet
  facet normal 0 0 1
    outer loop
      vertex 33.122 23.582 1.2
      vertex 32.472 12.228 1.2
      vertex 33.122 12.228 1.2
    endloop
  endfacet
  facet normal 0 0 1
    outer loop
      vertex 33.122 32.512 1.2
      vertex 32.472 26.071 1.2
      vertex 33.122 26.071 1.2
    endloop
  endfacet
  facet normal 0 0 1
    outer loop
      vertex 29.297 33.122 1.2
      vertex 29.297 32.472 1.2
      vertex 32.512 33.122 1.2
    endloop
  endfacet
  facet normal 0 0 1
    outer loop
      vertex 0 14.742 1.2
      vertex 0.645 14.742 1.2
      vertex 0.645 25.258 1.2
    endloop
  endfacet
  facet normal 0 0 1
    outer loop
      vertex 13.523 33.122 1.2
      vertex 13.523 32.472 1.2
      vertex 24.039 33.122 1.2
    endloop
  endfacet
  facet normal 0 0 1
    outer loop
      vertex 0.645 14.742 1.2
      vertex 8.265 32.472 1.2
      vertex 8.265 33.122 1.2
    endloop
  endfacet
  facet normal 0 0 1
    outer loop
      vertex 0 32.512 1.2
      vertex 0 30.516 1.2
      vertex 0.584 33.122 1.2
    endloop
  endfacet
  facet normal 0 0 1
    outer loop
      vertex 0.584 33.122 1.2
      vertex 0.645 30.516 1.2
      vertex 8.265 33.122 1.2
    endloop
  endfacet
  facet normal 0 0 1
    outer loop
      vertex 0.645 30.516 1.2
      vertex 0.645 25.258 1.2
      vertex 8.265 33.122 1.2
    endloop
  endfacet
  facet normal 0 0 1
    outer loop
      vertex 0.645 14.742 1.2
      vertex 13.523 32.472 1.2
      vertex 8.265 32.472 1.2
    endloop
  endfacet
  facet normal 0 0 1
    outer loop
      vertex 0.645 14.742 1.2
      vertex 24.039 33.122 1.2
      vertex 13.523 32.472 1.2
    endloop
  endfacet
  facet normal 0 0 1
    outer loop
      vertex 0.645 25.258 1.2
      vertex 0 25.258 1.2
      vertex 0 14.742 1.2
    endloop
  endfacet
  facet normal 0 0 1
    outer loop
      vertex 0.645 25.258 1.2
      vertex 0.645 14.742 1.2
      vertex 8.265 33.122 1.2
    endloop
  endfacet
  facet normal 0 0 1
    outer loop
      vertex 33.122 9.739 1.2
      vertex 0.645 9.485 1.2
      vertex 33.122 0.584 1.2
    endloop
  endfacet
  facet normal 0 0 1
    outer loop
      vertex 0 30.516 1.2
      vertex 0.645 30.516 1.2
      vertex 0.584 33.122 1.2
    endloop
  endfacet
  facet normal 0 0 1
    outer loop
      vertex 0.645 14.742 1.2
      vertex 24.039 32.472 1.2
      vertex 24.039 33.122 1.2
    endloop
  endfacet
  facet normal 0 0 1
    outer loop
      vertex 0.645 14.742 1.2
      vertex 29.297 32.472 1.2
      vertex 24.039 32.472 1.2
    endloop
  endfacet
  facet normal 0 0 1
    outer loop
      vertex 0.645 14.742 1.2
      vertex 32.512 33.122 1.2
      vertex 29.297 32.472 1.2
    endloop
  endfacet
  facet normal 0 0 1
    outer loop
      vertex 0.645 14.742 1.2
      vertex 33.122 32.512 1.2
      vertex 32.512 33.122 1.2
    endloop
  endfacet
  facet normal 0 0 1
    outer loop
      vertex 0.645 14.742 1.2
      vertex 32.472 26.071 1.2
      vertex 33.122 32.512 1.2
    endloop
  endfacet
  facet normal 0 0 1
    outer loop
      vertex 0.645 14.742 1.2
      vertex 32.472 23.582 1.2
      vertex 32.472 26.071 1.2
    endloop
  endfacet
  facet normal 0 0 1
    outer loop
      vertex 0.645 14.742 1.2
      vertex 33.122 23.582 1.2
      vertex 32.472 23.582 1.2
    endloop
  endfacet
  facet normal 0 0 1
    outer loop
      vertex 0.645 14.742 1.2
      vertex 32.472 12.228 1.2
      vertex 33.122 23.582 1.2
    endloop
  endfacet
  facet normal 0 0 1
    outer loop
      vertex 0.645 14.742 1.2
      vertex 32.472 9.739 1.2
      vertex 32.472 12.228 1.2
    endloop
  endfacet
  facet normal 0 0 1
    outer loop
      vertex 32.472 9.739 1.2
      vertex 0.645 9.485 1.2
      vertex 33.122 9.739 1.2
    endloop
  endfacet
  facet normal 0 0 1
    outer loop
      vertex 0.645 14.742 1.2
      vertex 0.645 9.485 1.2
      vertex 32.472 9.739 1.2
    endloop
  endfacet
  facet normal 0.707107 -0.707107 0
    outer loop
      vertex 0.645 32.243 3
      vertex 0.645 32.243 2.4
      vertex 0.874 32.472 2.4
    endloop
  endfacet
  facet normal 0.707107 -0.707107 0
    outer loop
      vertex 0.874 32.472 3
      vertex 0.645 32.243 3
      vertex 0.874 32.472 2.4
    endloop
  endfacet
  facet normal -1 0 0
    outer loop
      vertex 0 0.584 0
      vertex 0 0.584 1.2
      vertex 0 9.485 0
    endloop
  endfacet
  facet normal -1 0 0
    outer loop
      vertex 0 9.485 0
      vertex 0 0.584 1.2
      vertex 0 9.485 1.2
    endloop
  endfacet
  facet normal -0.707107 -0.707107 0
    outer loop
      vertex 0 0.584 1.2
      vertex 0 0.584 0
      vertex 0.584 0 0
    endloop
  endfacet
  facet normal -0.707107 -0.707107 0
    outer loop
      vertex 0.584 0 1.2
      vertex 0 0.584 1.2
      vertex 0.584 0 0
    endloop
  endfacet
  facet normal 0 -1 0
    outer loop
      vertex 3.871 0 1.2
      vertex 3.871 0 0
      vertex 15.225 0 0
    endloop
  endfacet
  facet normal 0 -1 0
    outer loop
      vertex 15.225 0 1.2
      vertex 3.871 0 1.2
      vertex 15.225 0 0
    endloop
  endfacet
  facet normal -1 0 0
    outer loop
      vertex 15.225 -0.65 0
      vertex 15.225 -0.65 3
      vertex 15.225 0 0
    endloop
  endfacet
  facet normal -1 0 0
    outer loop
      vertex 15.225 0 1.2
      vertex 15.225 -0.65 3
      vertex 15.225 0.645 3
    endloop
  endfacet
  facet normal -1 0 0
    outer loop
      vertex 15.225 0 0
      vertex 15.225 -0.65 3
      vertex 15.225 0 1.2
    endloop
  endfacet
  facet normal -1 0 0
    outer loop
      vertex 15.225 0 1.2
      vertex 15.225 0.645 3
      vertex 15.225 0.645 1.2
    endloop
  endfacet
  facet normal 0 -1 0
    outer loop
      vertex 15.225 -0.65 3
      vertex 15.225 -0.65 0
      vertex 17.714 -0.65 0
    endloop
  endfacet
  facet normal 0 -1 0
    outer loop
      vertex 27.62 -0.65 2.4
      vertex 15.225 -0.65 3
      vertex 17.714 -0.65 2.4
    endloop
  endfacet
  facet normal 0 -1 0
    outer loop
      vertex 17.714 -0.65 2.4
      vertex 15.225 -0.65 3
      vertex 17.714 -0.65 0
    endloop
  endfacet
  facet normal 0 -1 0
    outer loop
      vertex 32.802 -0.65 2.4
      vertex 15.225 -0.65 3
      vertex 27.62 -0.65 2.4
    endloop
  endfacet
  facet normal 0 -1 0
    outer loop
      vertex 32.802 -0.65 0
      vertex 27.62 -0.65 2.4
      vertex 27.62 -0.65 0
    endloop
  endfacet
  facet normal 0 -1 0
    outer loop
      vertex 32.802 -0.65 2.4
      vertex 27.62 -0.65 2.4
      vertex 32.802 -0.65 0
    endloop
  endfacet
  facet normal 0 -1 0
    outer loop
      vertex 17.714 -0.65 3
      vertex 15.225 -0.65 3
      vertex 32.802 -0.65 2.4
    endloop
  endfacet
  facet normal 0 -1 0
    outer loop
      vertex 32.802 -0.65 3
      vertex 27.62 -0.65 3
      vertex 32.802 -0.65 2.4
    endloop
  endfacet
  facet normal 0 -1 0
    outer loop
      vertex 27.62 -0.65 3
      vertex 17.714 -0.65 3
      vertex 32.802 -0.65 2.4
    endloop
  endfacet
  facet normal 1 0 0
    outer loop
      vertex 17.714 -0.65 2.4
      vertex 17.714 -0.65 0
      vertex 17.714 0 0
    endloop
  endfacet
  facet normal 1 0 0
    outer loop
      vertex 17.714 0.645 1.2
      vertex 17.714 -0.65 2.4
      vertex 17.714 0 1.2
    endloop
  endfacet
  facet normal 1 0 0
    outer loop
      vertex 17.714 0 1.2
      vertex 17.714 -0.65 2.4
      vertex 17.714 0 0
    endloop
  endfacet
  facet normal 1 0 0
    outer loop
      vertex 17.714 0.645 2.4
      vertex 17.714 -0.65 2.4
      vertex 17.714 0.645 1.2
    endloop
  endfacet
  facet normal 0 -1 0
    outer loop
      vertex 17.714 0 1.2
      vertex 17.714 0 0
      vertex 27.62 0 0
    endloop
  endfacet
  facet normal 0 -1 0
    outer loop
      vertex 27.62 0 1.2
      vertex 17.714 0 1.2
      vertex 27.62 0 0
    endloop
  endfacet
  facet normal -1 0 0
    outer loop
      vertex 27.62 -0.65 0
      vertex 27.62 -0.65 2.4
      vertex 27.62 0 0
    endloop
  endfacet
  facet normal -1 0 0
    outer loop
      vertex 27.62 0 1.2
      vertex 27.62 -0.65 2.4
      vertex 27.62 0.645 2.4
    endloop
  endfacet
  facet normal -1 0 0
    outer loop
      vertex 27.62 0 0
      vertex 27.62 -0.65 2.4
      vertex 27.62 0 1.2
    endloop
  endfacet
  facet normal -1 0 0
    outer loop
      vertex 27.62 0 1.2
      vertex 27.62 0.645 2.4
      vertex 27.62 0.645 1.2
    endloop
  endfacet
  facet normal 0.708652 -0.705558 0
    outer loop
      vertex 32.802 -0.65 2.4
      vertex 32.802 -0.65 0
      vertex 33.03 -0.421 0
    endloop
  endfacet
  facet normal 0.708652 -0.705558 0
    outer loop
      vertex 33.03 -0.421 2.4
      vertex 32.802 -0.65 2.4
      vertex 33.03 -0.421 0
    endloop
  endfacet
  facet normal 0.707107 0.707107 0
    outer loop
      vertex 32.522 0.087 1.2
      vertex 32.522 0.087 2.4
      vertex 32.5616 0.0474439 1.2
    endloop
  endfacet
  facet normal 0.707107 0.707107 0
    outer loop
      vertex 32.5616 0.0474439 1.2
      vertex 32.522 0.087 2.4
      vertex 33.03 -0.421 2.4
    endloop
  endfacet
  facet normal 0.707107 0.707107 0
    outer loop
      vertex 32.5616 0.0474439 1.2
      vertex 33.03 -0.421 2.4
      vertex 33.03 -0.421 0
    endloop
  endfacet
  facet normal 0.707107 0.707107 0
    outer loop
      vertex 32.5616 0.0474439 1.2
      vertex 33.03 -0.421 0
      vertex 32.5616 0.0474439 0
    endloop
  endfacet
  facet normal 0.691545 -0.722333 0
    outer loop
      vertex 32.5616 0.0474439 1.2
      vertex 32.5616 0.0474439 0
      vertex 33.122 0.584 0
    endloop
  endfacet
  facet normal 0.691545 -0.722333 0
    outer loop
      vertex 33.122 0.584 1.2
      vertex 32.5616 0.0474439 1.2
      vertex 33.122 0.584 0
    endloop
  endfacet
  facet normal 1 0 0
    outer loop
      vertex 33.122 0.584 1.2
      vertex 33.122 0.584 0
      vertex 33.122 9.739 0
    endloop
  endfacet
  facet normal 1 0 0
    outer loop
      vertex 33.122 9.739 1.2
      vertex 33.122 0.584 1.2
      vertex 33.122 9.739 0
    endloop
  endfacet
  facet normal 0 -1 0
    outer loop
      vertex 32.472 9.739 2.4
      vertex 32.472 9.739 1.2
      vertex 33.122 9.739 1.2
    endloop
  endfacet
  facet normal 0 -1 0
    outer loop
      vertex 33.767 9.739 2.4
      vertex 32.472 9.739 2.4
      vertex 33.122 9.739 1.2
    endloop
  endfacet
  facet normal 0 -1 0
    outer loop
      vertex 33.122 9.739 0
      vertex 33.767 9.739 0
      vertex 33.122 9.739 1.2
    endloop
  endfacet
  facet normal 0 -1 0
    outer loop
      vertex 33.767 9.739 0
      vertex 33.767 9.739 2.4
      vertex 33.122 9.739 1.2
    endloop
  endfacet
  facet normal 1 0 0
    outer loop
      vertex 33.767 0.315 3
      vertex 33.767 0.315 2.4
      vertex 33.767 9.739 2.4
    endloop
  endfacet
  facet normal 1 0 0
    outer loop
      vertex 33.767 9.739 3
      vertex 33.767 0.315 3
      vertex 33.767 9.739 2.4
    endloop
  endfacet
  facet normal 1 0 0
    outer loop
      vertex 33.767 9.739 0
      vertex 33.767 12.228 0
      vertex 33.767 9.739 2.4
    endloop
  endfacet
  facet normal 1 0 0
    outer loop
      vertex 33.767 12.228 0
      vertex 33.767 12.228 3
      vertex 33.767 9.739 2.4
    endloop
  endfacet
  facet normal 1 0 0
    outer loop
      vertex 33.767 12.228 3
      vertex 33.767 9.739 3
      vertex 33.767 9.739 2.4
    endloop
  endfacet
  facet normal 0 1 0
    outer loop
      vertex 32.472 12.228 1.2
      vertex 32.472 12.228 3
      vertex 33.122 12.228 1.2
    endloop
  endfacet
  facet normal 0 1 0
    outer loop
      vertex 33.122 12.228 1.2
      vertex 32.472 12.228 3
      vertex 33.767 12.228 3
    endloop
  endfacet
  facet normal 0 1 0
    outer loop
      vertex 33.122 12.228 1.2
      vertex 33.767 12.228 3
      vertex 33.767 12.228 0
    endloop
  endfacet
  facet normal 0 1 0
    outer loop
      vertex 33.122 12.228 1.2
      vertex 33.767 12.228 0
      vertex 33.122 12.228 0
    endloop
  endfacet
  facet normal 1 0 0
    outer loop
      vertex 33.122 12.228 1.2
      vertex 33.122 12.228 0
      vertex 33.122 23.582 0
    endloop
  endfacet
  facet normal 1 0 0
    outer loop
      vertex 33.122 23.582 1.2
      vertex 33.122 12.228 1.2
      vertex 33.122 23.582 0
    endloop
  endfacet
  facet normal 0 -1 0
    outer loop
      vertex 32.472 23.582 3
      vertex 32.472 23.582 1.2
      vertex 33.122 23.582 1.2
    endloop
  endfacet
  facet normal 0 -1 0
    outer loop
      vertex 33.767 23.582 0
      vertex 32.472 23.582 3
      vertex 33.122 23.582 1.2
    endloop
  endfacet
  facet normal 0 -1 0
    outer loop
      vertex 33.122 23.582 0
      vertex 33.767 23.582 0
      vertex 33.122 23.582 1.2
    endloop
  endfacet
  facet normal 0 -1 0
    outer loop
      vertex 33.767 23.582 0
      vertex 33.767 23.582 3
      vertex 32.472 23.582 3
    endloop
  endfacet
  facet normal 1 0 0
    outer loop
      vertex 33.767 23.582 3
      vertex 33.767 23.582 0
      vertex 33.767 26.071 0
    endloop
  endfacet
  facet normal 1 0 0
    outer loop
      vertex 33.767 32.802 2.4
      vertex 33.767 23.582 3
      vertex 33.767 26.071 2.4
    endloop
  endfacet
  facet normal 1 0 0
    outer loop
      vertex 33.767 26.071 2.4
      vertex 33.767 23.582 3
      vertex 33.767 26.071 0
    endloop
  endfacet
  facet normal 1 0 0
    outer loop
      vertex 33.767 26.071 3
      vertex 33.767 23.582 3
      vertex 33.767 32.802 2.4
    endloop
  endfacet
  facet normal 1 0 0
    outer loop
      vertex 33.767 32.802 3
      vertex 33.767 26.071 3
      vertex 33.767 32.802 2.4
    endloop
  endfacet
  facet normal 0 1 0
    outer loop
      vertex 32.472 26.071 1.2
      vertex 32.472 26.071 2.4
      vertex 33.122 26.071 1.2
    endloop
  endfacet
  facet normal 0 1 0
    outer loop
      vertex 33.122 26.071 1.2
      vertex 32.472 26.071 2.4
      vertex 33.767 26.071 2.4
    endloop
  endfacet
  facet normal 0 1 0
    outer loop
      vertex 33.122 26.071 1.2
      vertex 33.767 26.071 2.4
      vertex 33.767 26.071 0
    endloop
  endfacet
  facet normal 0 1 0
    outer loop
      vertex 33.122 26.071 1.2
      vertex 33.767 26.071 0
      vertex 33.122 26.071 0
    endloop
  endfacet
  facet normal 1 0 0
    outer loop
      vertex 33.122 26.071 1.2
      vertex 33.122 26.071 0
      vertex 33.122 32.512 0
    endloop
  endfacet
  facet normal 1 0 0
    outer loop
      vertex 33.122 32.512 1.2
      vertex 33.122 26.071 1.2
      vertex 33.122 32.512 0
    endloop
  endfacet
  facet normal 0.707107 0.707107 0
    outer loop
      vertex 32.512 33.122 0
      vertex 32.512 33.122 1.2
      vertex 33.122 32.512 0
    endloop
  endfacet
  facet normal 0.707107 0.707107 0
    outer loop
      vertex 33.122 32.512 0
      vertex 32.512 33.122 1.2
      vertex 33.122 32.512 1.2
    endloop
  endfacet
  facet normal 0 1 0
    outer loop
      vertex 29.297 33.122 0
      vertex 29.297 33.122 1.2
      vertex 32.512 33.122 0
    endloop
  endfacet
  facet normal 0 1 0
    outer loop
      vertex 32.512 33.122 0
      vertex 29.297 33.122 1.2
      vertex 32.512 33.122 1.2
    endloop
  endfacet
  facet normal 1 0 0
    outer loop
      vertex 29.297 32.472 2.4
      vertex 29.297 32.472 1.2
      vertex 29.297 33.122 1.2
    endloop
  endfacet
  facet normal 1 0 0
    outer loop
      vertex 29.297 33.767 2.4
      vertex 29.297 32.472 2.4
      vertex 29.297 33.122 1.2
    endloop
  endfacet
  facet normal 1 0 0
    outer loop
      vertex 29.297 33.122 0
      vertex 29.297 33.767 0
      vertex 29.297 33.122 1.2
    endloop
  endfacet
  facet normal 1 0 0
    outer loop
      vertex 29.297 33.767 0
      vertex 29.297 33.767 2.4
      vertex 29.297 33.122 1.2
    endloop
  endfacet
  facet normal 0 1 0
    outer loop
      vertex 0.315 33.767 2.4
      vertex 0.315 33.767 3
      vertex 8.265 33.767 2.4
    endloop
  endfacet
  facet normal 0 1 0
    outer loop
      vertex 8.265 33.767 2.4
      vertex 0.315 33.767 3
      vertex 8.265 33.767 3
    endloop
  endfacet
  facet normal 0 1 0
    outer loop
      vertex 8.265 33.767 3
      vertex 13.523 33.767 3
      vertex 8.265 33.767 2.4
    endloop
  endfacet
  facet normal 0 1 0
    outer loop
      vertex 8.265 33.767 2.4
      vertex 13.523 33.767 3
      vertex 24.039 33.767 3
    endloop
  endfacet
  facet normal 0 1 0
    outer loop
      vertex 24.039 33.767 3
      vertex 29.297 33.767 3
      vertex 8.265 33.767 2.4
    endloop
  endfacet
  facet normal 0 1 0
    outer loop
      vertex 8.265 33.767 2.4
      vertex 29.297 33.767 3
      vertex 32.802 33.767 3
    endloop
  endfacet
  facet normal 0 1 0
    outer loop
      vertex 29.297 33.767 2.4
      vertex 32.802 33.767 3
      vertex 32.802 33.767 2.4
    endloop
  endfacet
  facet normal 0 1 0
    outer loop
      vertex 8.265 33.767 2.4
      vertex 32.802 33.767 3
      vertex 13.523 33.767 2.4
    endloop
  endfacet
  facet normal 0 1 0
    outer loop
      vertex 24.039 33.767 2.4
      vertex 29.297 33.767 0
      vertex 24.039 33.767 0
    endloop
  endfacet
  facet normal 0 1 0
    outer loop
      vertex 29.297 33.767 2.4
      vertex 29.297 33.767 0
      vertex 24.039 33.767 2.4
    endloop
  endfacet
  facet normal 0 1 0
    outer loop
      vertex 29.297 33.767 2.4
      vertex 24.039 33.767 2.4
      vertex 32.802 33.767 3
    endloop
  endfacet
  facet normal 0 1 0
    outer loop
      vertex 13.523 33.767 0
      vertex 8.265 33.767 2.4
      vertex 13.523 33.767 2.4
    endloop
  endfacet
  facet normal 0 1 0
    outer loop
      vertex 24.039 33.767 2.4
      vertex 13.523 33.767 2.4
      vertex 32.802 33.767 3
    endloop
  endfacet
  facet normal 0 1 0
    outer loop
      vertex 8.265 33.767 2.4
      vertex 13.523 33.767 0
      vertex 8.265 33.767 0
    endloop
  endfacet
  facet normal -1 0 0
    outer loop
      vertex 24.039 32.472 1.2
      vertex 24.039 32.472 2.4
      vertex 24.039 33.122 1.2
    endloop
  endfacet
  facet normal -1 0 0
    outer loop
      vertex 24.039 33.122 1.2
      vertex 24.039 32.472 2.4
      vertex 24.039 33.767 2.4
    endloop
  endfacet
  facet normal -1 0 0
    outer loop
      vertex 24.039 33.122 1.2
      vertex 24.039 33.767 2.4
      vertex 24.039 33.767 0
    endloop
  endfacet
  facet normal -1 0 0
    outer loop
      vertex 24.039 33.122 1.2
      vertex 24.039 33.767 0
      vertex 24.039 33.122 0
    endloop
  endfacet
  facet normal 0 1 0
    outer loop
      vertex 13.523 33.122 0
      vertex 13.523 33.122 1.2
      vertex 24.039 33.122 0
    endloop
  endfacet
  facet normal 0 1 0
    outer loop
      vertex 24.039 33.122 0
      vertex 13.523 33.122 1.2
      vertex 24.039 33.122 1.2
    endloop
  endfacet
  facet normal 1 0 0
    outer loop
      vertex 13.523 32.472 2.4
      vertex 13.523 32.472 1.2
      vertex 13.523 33.122 1.2
    endloop
  endfacet
  facet normal 1 0 0
    outer loop
      vertex 13.523 33.767 2.4
      vertex 13.523 32.472 2.4
      vertex 13.523 33.122 1.2
    endloop
  endfacet
  facet normal 1 0 0
    outer loop
      vertex 13.523 33.122 0
      vertex 13.523 33.767 0
      vertex 13.523 33.122 1.2
    endloop
  endfacet
  facet normal 1 0 0
    outer loop
      vertex 13.523 33.767 0
      vertex 13.523 33.767 2.4
      vertex 13.523 33.122 1.2
    endloop
  endfacet
  facet normal -1 0 0
    outer loop
      vertex 8.265 32.472 1.2
      vertex 8.265 32.472 2.4
      vertex 8.265 33.122 1.2
    endloop
  endfacet
  facet normal -1 0 0
    outer loop
      vertex 8.265 33.122 1.2
      vertex 8.265 32.472 2.4
      vertex 8.265 33.767 2.4
    endloop
  endfacet
  facet normal -1 0 0
    outer loop
      vertex 8.265 33.122 1.2
      vertex 8.265 33.767 2.4
      vertex 8.265 33.767 0
    endloop
  endfacet
  facet normal -1 0 0
    outer loop
      vertex 8.265 33.122 1.2
      vertex 8.265 33.767 0
      vertex 8.265 33.122 0
    endloop
  endfacet
  facet normal 0 1 0
    outer loop
      vertex 0.584 33.122 0
      vertex 0.584 33.122 1.2
      vertex 8.265 33.122 0
    endloop
  endfacet
  facet normal 0 1 0
    outer loop
      vertex 8.265 33.122 0
      vertex 0.584 33.122 1.2
      vertex 8.265 33.122 1.2
    endloop
  endfacet
  facet normal -0.722333 0.691545 0
    outer loop
      vertex 0 32.512 0
      vertex 0 32.512 1.2
      vertex 0.584 33.122 0
    endloop
  endfacet
  facet normal -0.722333 0.691545 0
    outer loop
      vertex 0.584 33.122 0
      vertex 0 32.512 1.2
      vertex 0.584 33.122 1.2
    endloop
  endfacet
  facet normal -1 0 0
    outer loop
      vertex 0 30.516 0
      vertex 0 30.516 1.2
      vertex 0 32.512 0
    endloop
  endfacet
  facet normal -1 0 0
    outer loop
      vertex 0 32.512 0
      vertex 0 30.516 1.2
      vertex 0 32.512 1.2
    endloop
  endfacet
  facet normal -1 0 0
    outer loop
      vertex 0 14.742 0
      vertex 0 14.742 1.2
      vertex 0 25.258 0
    endloop
  endfacet
  facet normal -1 0 0
    outer loop
      vertex 0 25.258 0
      vertex 0 14.742 1.2
      vertex 0 25.258 1.2
    endloop
  endfacet
  facet normal 0 -1 0
    outer loop
      vertex 24.039 32.472 2.4
      vertex 29.297 32.472 2.4
      vertex 0.874 32.472 3
    endloop
  endfacet
  facet normal 0 -1 0
    outer loop
      vertex 0.874 32.472 3
      vertex 0.874 32.472 2.4
      vertex 8.265 32.472 2.4
    endloop
  endfacet
  facet normal 0 -1 0
    outer loop
      vertex 13.523 32.472 2.4
      vertex 0.874 32.472 3
      vertex 8.265 32.472 2.4
    endloop
  endfacet
  facet normal 0 -1 0
    outer loop
      vertex 8.265 32.472 1.2
      vertex 13.523 32.472 1.2
      vertex 8.265 32.472 2.4
    endloop
  endfacet
  facet normal 0 -1 0
    outer loop
      vertex 13.523 32.472 1.2
      vertex 13.523 32.472 2.4
      vertex 8.265 32.472 2.4
    endloop
  endfacet
  facet normal 0 -1 0
    outer loop
      vertex 13.523 32.472 2.4
      vertex 24.039 32.472 2.4
      vertex 0.874 32.472 3
    endloop
  endfacet
  facet normal 0 -1 0
    outer loop
      vertex 24.039 32.472 1.2
      vertex 29.297 32.472 1.2
      vertex 24.039 32.472 2.4
    endloop
  endfacet
  facet normal 0 -1 0
    outer loop
      vertex 29.297 32.472 1.2
      vertex 29.297 32.472 2.4
      vertex 24.039 32.472 2.4
    endloop
  endfacet
  facet normal 0 -1 0
    outer loop
      vertex 29.297 32.472 2.4
      vertex 32.243 32.472 2.4
      vertex 0.874 32.472 3
    endloop
  endfacet
  facet normal 0 -1 0
    outer loop
      vertex 32.243 32.472 2.4
      vertex 29.297 32.472 3
      vertex 24.039 32.472 3
    endloop
  endfacet
  facet normal 0 -1 0
    outer loop
      vertex 32.243 32.472 2.4
      vertex 32.243 32.472 3
      vertex 29.297 32.472 3
    endloop
  endfacet
  facet normal 0 -1 0
    outer loop
      vertex 32.243 32.472 2.4
      vertex 24.039 32.472 3
      vertex 13.523 32.472 3
    endloop
  endfacet
  facet normal 0 -1 0
    outer loop
      vertex 32.243 32.472 2.4
      vertex 13.523 32.472 3
      vertex 8.265 32.472 3
    endloop
  endfacet
  facet normal 0 -1 0
    outer loop
      vertex 32.243 32.472 2.4
      vertex 8.265 32.472 3
      vertex 0.874 32.472 3
    endloop
  endfacet
  facet normal -1 0 0
    outer loop
      vertex 32.472 23.582 1.2
      vertex 32.472 23.582 3
      vertex 32.472 26.071 1.2
    endloop
  endfacet
  facet normal -1 0 0
    outer loop
      vertex 32.472 26.071 1.2
      vertex 32.472 23.582 3
      vertex 32.472 26.071 2.4
    endloop
  endfacet
  facet normal -1 0 0
    outer loop
      vertex 32.472 26.071 3
      vertex 32.472 32.243 3
      vertex 32.472 26.071 2.4
    endloop
  endfacet
  facet normal -1 0 0
    outer loop
      vertex 32.472 26.071 3
      vertex 32.472 26.071 2.4
      vertex 32.472 23.582 3
    endloop
  endfacet
  facet normal -1 0 0
    outer loop
      vertex 32.472 26.071 2.4
      vertex 32.472 32.243 3
      vertex 32.472 32.243 2.4
    endloop
  endfacet
  facet normal -1 0 0
    outer loop
      vertex 32.472 0.874 2.4
      vertex 32.472 0.874 3
      vertex 32.472 9.739 2.4
    endloop
  endfacet
  facet normal -1 0 0
    outer loop
      vertex 32.472 9.739 2.4
      vertex 32.472 0.874 3
      vertex 32.472 9.739 3
    endloop
  endfacet
  facet normal -1 0 0
    outer loop
      vertex 32.472 9.739 3
      vertex 32.472 12.228 3
      vertex 32.472 9.739 2.4
    endloop
  endfacet
  facet normal -1 0 0
    outer loop
      vertex 32.472 9.739 2.4
      vertex 32.472 12.228 3
      vertex 32.472 12.228 1.2
    endloop
  endfacet
  facet normal -1 0 0
    outer loop
      vertex 32.472 9.739 2.4
      vertex 32.472 12.228 1.2
      vertex 32.472 9.739 1.2
    endloop
  endfacet
  facet normal 1 0 0
    outer loop
      vertex 32.522 0.087 2.4
      vertex 32.522 0.087 1.2
      vertex 32.522 0.645 1.2
    endloop
  endfacet
  facet normal 1 0 0
    outer loop
      vertex 32.522 0.645 2.4
      vertex 32.522 0.087 2.4
      vertex 32.522 0.645 1.2
    endloop
  endfacet
  facet normal 0 1 0
    outer loop
      vertex 15.225 0.645 1.2
      vertex 15.225 0.645 3
      vertex 17.714 0.645 1.2
    endloop
  endfacet
  facet normal 0 1 0
    outer loop
      vertex 17.714 0.645 1.2
      vertex 15.225 0.645 3
      vertex 17.714 0.645 2.4
    endloop
  endfacet
  facet normal 0 1 0
    outer loop
      vertex 32.243 0.645 2.4
      vertex 27.62 0.645 2.4
      vertex 32.243 0.645 3
    endloop
  endfacet
  facet normal 0 1 0
    outer loop
      vertex 27.62 0.645 3
      vertex 32.522 0.645 3
      vertex 32.243 0.645 3
    endloop
  endfacet
  facet normal 0 1 0
    outer loop
      vertex 32.243 0.645 2.4
      vertex 32.522 0.645 2.4
      vertex 27.62 0.645 1.2
    endloop
  endfacet
  facet normal 0 1 0
    outer loop
      vertex 17.714 0.645 2.4
      vertex 32.243 0.645 3
      vertex 27.62 0.645 2.4
    endloop
  endfacet
  facet normal 0 1 0
    outer loop
      vertex 27.62 0.645 1.2
      vertex 32.522 0.645 2.4
      vertex 32.522 0.645 1.2
    endloop
  endfacet
  facet normal 0 1 0
    outer loop
      vertex 27.62 0.645 2.4
      vertex 32.243 0.645 2.4
      vertex 27.62 0.645 1.2
    endloop
  endfacet
  facet normal 0 1 0
    outer loop
      vertex 17.714 0.645 2.4
      vertex 27.62 0.645 3
      vertex 32.243 0.645 3
    endloop
  endfacet
  facet normal 0 1 0
    outer loop
      vertex 17.714 0.645 3
      vertex 27.62 0.645 3
      vertex 17.714 0.645 2.4
    endloop
  endfacet
  facet normal 0 1 0
    outer loop
      vertex 17.714 0.645 3
      vertex 17.714 0.645 2.4
      vertex 15.225 0.645 3
    endloop
  endfacet
  facet normal 0 0 1
    outer loop
      vertex 15.225 0.645 3
      vertex 15.225 -0.65 3
      vertex 17.714 -0.65 3
    endloop
  endfacet
  facet normal 0 0 1
    outer loop
      vertex 17.714 0.645 3
      vertex 15.225 0.645 3
      vertex 17.714 -0.65 3
    endloop
  endfacet
  facet normal 0 0 1
    outer loop
      vertex 17.714 0.645 3
      vertex 17.714 -0.65 3
      vertex 27.62 -0.65 3
    endloop
  endfacet
  facet normal 0 0 1
    outer loop
      vertex 27.62 0.645 3
      vertex 17.714 0.645 3
      vertex 27.62 -0.65 3
    endloop
  endfacet
  facet normal 0 0 1
    outer loop
      vertex 27.62 0.645 3
      vertex 27.62 -0.65 3
      vertex 32.802 -0.65 3
    endloop
  endfacet
  facet normal 0 0 1
    outer loop
      vertex 32.522 0.087 3
      vertex 27.62 0.645 3
      vertex 33.03 -0.421 3
    endloop
  endfacet
  facet normal 0 0 1
    outer loop
      vertex 33.03 -0.421 3
      vertex 27.62 0.645 3
      vertex 32.802 -0.65 3
    endloop
  endfacet
  facet normal 0 0 1
    outer loop
      vertex 32.522 0.645 3
      vertex 27.62 0.645 3
      vertex 32.522 0.087 3
    endloop
  endfacet
  facet normal 0 0 1
    outer loop
      vertex 33.03 -0.421 3
      vertex 33.767 0.315 3
      vertex 32.472 0.874 3
    endloop
  endfacet
  facet normal 0 0 1
    outer loop
      vertex 32.472 0.874 3
      vertex 32.243 0.645 3
      vertex 32.522 0.645 3
    endloop
  endfacet
  facet normal 0 0 1
    outer loop
      vertex 33.03 -0.421 3
      vertex 32.472 0.874 3
      vertex 32.522 0.645 3
    endloop
  endfacet
  facet normal 0 0 1
    outer loop
      vertex 32.522 0.087 3
      vertex 33.03 -0.421 3
      vertex 32.522 0.645 3
    endloop
  endfacet
  facet normal 0 0 1
    outer loop
      vertex 32.802 -0.65 3
      vertex 33.767 0.315 3
      vertex 33.03 -0.421 3
    endloop
  endfacet
  facet normal 0 0 1
    outer loop
      vertex 33.767 0.315 3
      vertex 33.767 9.739 3
      vertex 32.472 0.874 3
    endloop
  endfacet
  facet normal 0 0 1
    outer loop
      vertex 32.472 9.739 3
      vertex 32.472 0.874 3
      vertex 33.767 9.739 3
    endloop
  endfacet
  facet normal 0.707107 -0.707107 0
    outer loop
      vertex 32.802 -0.65 3
      vertex 32.802 -0.65 2.4
      vertex 33.767 0.315 2.4
    endloop
  endfacet
  facet normal 0.707107 -0.707107 0
    outer loop
      vertex 33.767 0.315 3
      vertex 32.802 -0.65 3
      vertex 33.767 0.315 2.4
    endloop
  endfacet
  facet normal 0 0 -1
    outer loop
      vertex 32.243 0.645 2.4
      vertex 32.472 0.874 2.4
      vertex 32.522 0.645 2.4
    endloop
  endfacet
  facet normal 0 0 -1
    outer loop
      vertex 32.522 0.645 2.4
      vertex 32.472 0.874 2.4
      vertex 32.472 9.739 2.4
    endloop
  endfacet
  facet normal 0 0 -1
    outer loop
      vertex 32.522 0.645 2.4
      vertex 32.472 9.739 2.4
      vertex 33.767 9.739 2.4
    endloop
  endfacet
  facet normal 0 0 -1
    outer loop
      vertex 32.522 0.645 2.4
      vertex 33.767 9.739 2.4
      vertex 33.767 0.315 2.4
    endloop
  endfacet
  facet normal 0 0 -1
    outer loop
      vertex 33.767 0.315 2.4
      vertex 32.802 -0.65 2.4
      vertex 33.03 -0.421 2.4
    endloop
  endfacet
  facet normal 0 0 -1
    outer loop
      vertex 32.522 0.645 2.4
      vertex 33.767 0.315 2.4
      vertex 33.03 -0.421 2.4
    endloop
  endfacet
  facet normal 0 0 -1
    outer loop
      vertex 32.522 0.645 2.4
      vertex 33.03 -0.421 2.4
      vertex 32.522 0.087 2.4
    endloop
  endfacet
  facet normal 0 0 -1
    outer loop
      vertex 17.714 -0.65 2.4
      vertex 17.714 0.645 2.4
      vertex 27.62 -0.65 2.4
    endloop
  endfacet
  facet normal 0 0 -1
    outer loop
      vertex 27.62 -0.65 2.4
      vertex 17.714 0.645 2.4
      vertex 27.62 0.645 2.4
    endloop
  endfacet
  facet normal 0 0 1
    outer loop
      vertex 32.472 12.228 3
      vertex 32.472 9.739 3
      vertex 33.767 9.739 3
    endloop
  endfacet
  facet normal 0 0 1
    outer loop
      vertex 33.767 12.228 3
      vertex 32.472 12.228 3
      vertex 33.767 9.739 3
    endloop
  endfacet
  facet normal 0 0 1
    outer loop
      vertex 32.472 26.071 3
      vertex 32.472 23.582 3
      vertex 33.767 23.582 3
    endloop
  endfacet
  facet normal 0 0 1
    outer loop
      vertex 33.767 26.071 3
      vertex 32.472 26.071 3
      vertex 33.767 23.582 3
    endloop
  endfacet
  facet normal 0 0 1
    outer loop
      vertex 32.472 32.243 3
      vertex 33.767 32.802 3
      vertex 32.243 32.472 3
    endloop
  endfacet
  facet normal 0 0 1
    outer loop
      vertex 29.297 33.767 3
      vertex 29.297 32.472 3
      vertex 32.243 32.472 3
    endloop
  endfacet
  facet normal 0 0 1
    outer loop
      vertex 33.767 32.802 3
      vertex 29.297 33.767 3
      vertex 32.243 32.472 3
    endloop
  endfacet
  facet normal 0 0 1
    outer loop
      vertex 32.472 26.071 3
      vertex 33.767 26.071 3
      vertex 32.472 32.243 3
    endloop
  endfacet
  facet normal 0 0 1
    outer loop
      vertex 33.767 26.071 3
      vertex 33.767 32.802 3
      vertex 32.472 32.243 3
    endloop
  endfacet
  facet normal 0 0 1
    outer loop
      vertex 33.767 32.802 3
      vertex 32.802 33.767 3
      vertex 29.297 33.767 3
    endloop
  endfacet
  facet normal 0.707107 0.707107 0
    outer loop
      vertex 32.802 33.767 2.4
      vertex 32.802 33.767 3
      vertex 33.767 32.802 2.4
    endloop
  endfacet
  facet normal 0.707107 0.707107 0
    outer loop
      vertex 33.767 32.802 2.4
      vertex 32.802 33.767 3
      vertex 33.767 32.802 3
    endloop
  endfacet
  facet normal 0 0 -1
    outer loop
      vertex 29.297 32.472 2.4
      vertex 29.297 33.767 2.4
      vertex 32.243 32.472 2.4
    endloop
  endfacet
  facet normal 0 0 -1
    outer loop
      vertex 32.243 32.472 2.4
      vertex 29.297 33.767 2.4
      vertex 32.802 33.767 2.4
    endloop
  endfacet
  facet normal 0 0 -1
    outer loop
      vertex 32.243 32.472 2.4
      vertex 32.802 33.767 2.4
      vertex 33.767 32.802 2.4
    endloop
  endfacet
  facet normal 0 0 -1
    outer loop
      vertex 32.472 32.243 2.4
      vertex 33.767 32.802 2.4
      vertex 33.767 26.071 2.4
    endloop
  endfacet
  facet normal 0 0 -1
    outer loop
      vertex 32.243 32.472 2.4
      vertex 33.767 32.802 2.4
      vertex 32.472 32.243 2.4
    endloop
  endfacet
  facet normal 0 0 -1
    outer loop
      vertex 32.472 32.243 2.4
      vertex 33.767 26.071 2.4
      vertex 32.472 26.071 2.4
    endloop
  endfacet
  facet normal 0 0 -1
    outer loop
      vertex 13.523 32.472 2.4
      vertex 13.523 33.767 2.4
      vertex 24.039 32.472 2.4
    endloop
  endfacet
  facet normal 0 0 -1
    outer loop
      vertex 24.039 32.472 2.4
      vertex 13.523 33.767 2.4
      vertex 24.039 33.767 2.4
    endloop
  endfacet
  facet normal 0 0 1
    outer loop
      vertex 24.039 33.767 3
      vertex 24.039 32.472 3
      vertex 29.297 32.472 3
    endloop
  endfacet
  facet normal 0 0 1
    outer loop
      vertex 29.297 33.767 3
      vertex 24.039 33.767 3
      vertex 29.297 32.472 3
    endloop
  endfacet
  facet normal 0 0 1
    outer loop
      vertex 13.523 33.767 3
      vertex 13.523 32.472 3
      vertex 24.039 32.472 3
    endloop
  endfacet
  facet normal 0 0 1
    outer loop
      vertex 24.039 33.767 3
      vertex 13.523 33.767 3
      vertex 24.039 32.472 3
    endloop
  endfacet
  facet normal 0 0 1
    outer loop
      vertex 8.265 33.767 3
      vertex 8.265 32.472 3
      vertex 13.523 32.472 3
    endloop
  endfacet
  facet normal 0 0 1
    outer loop
      vertex 13.523 33.767 3
      vertex 8.265 33.767 3
      vertex 13.523 32.472 3
    endloop
  endfacet
  facet normal -0.707107 -0.707107 0
    outer loop
      vertex 32.243 32.472 3
      vertex 32.243 32.472 2.4
      vertex 32.472 32.243 2.4
    endloop
  endfacet
  facet normal -0.707107 -0.707107 0
    outer loop
      vertex 32.472 32.243 3
      vertex 32.243 32.472 3
      vertex 32.472 32.243 2.4
    endloop
  endfacet
  facet normal -0.707107 0.707107 0
    outer loop
      vertex 32.243 0.645 2.4
      vertex 32.243 0.645 3
      vertex 32.472 0.874 2.4
    endloop
  endfacet
  facet normal -0.707107 0.707107 0
    outer loop
      vertex 32.472 0.874 2.4
      vertex 32.243 0.645 3
      vertex 32.472 0.874 3
    endloop
  endfacet
endsolid OpenSCAD_Model
