solid OpenSCAD_Model
  facet normal -0.707107 -0.707107 0
    outer loop
      vertex -0.3 0.462 3
      vertex -0.3 0.462 0
      vertex 0.462 -0.3 0
    endloop
  endfacet
  facet normal -0.707107 -0.707107 0
    outer loop
      vertex 0.462 -0.3 3
      vertex -0.3 0.462 3
      vertex 0.462 -0.3 0
    endloop
  endfacet
  facet normal 0 0 -1
    outer loop
      vertex -0.3 0.462 0
      vertex -0.3 32.644 0
      vertex 0.462 -0.3 0
    endloop
  endfacet
  facet normal 0 0 -1
    outer loop
      vertex 0.462 -0.3 0
      vertex -0.3 32.644 0
      vertex 0.462 33.431 0
    endloop
  endfacet
  facet normal 0 0 -1
    outer loop
      vertex 0.462 -0.3 0
      vertex 0.462 33.431 0
      vertex 32.644 33.431 0
    endloop
  endfacet
  facet normal 0 0 -1
    outer loop
      vertex 0.462 -0.3 0
      vertex 32.644 33.431 0
      vertex 33.431 32.644 0
    endloop
  endfacet
  facet normal 0 0 -1
    outer loop
      vertex 33.122 23.576 0
      vertex 33.431 32.644 0
      vertex 33.431 23.576 0
    endloop
  endfacet
  facet normal 0 0 -1
    outer loop
      vertex 0.462 -0.3 0
      vertex 33.431 32.644 0
      vertex 33.122 23.576 0
    endloop
  endfacet
  facet normal 0 0 -1
    outer loop
      vertex 3.866 0 0
      vertex 33.431 0.462 0
      vertex 15.219 0 0
    endloop
  endfacet
  facet normal 0 0 -1
    outer loop
      vertex 0.462 -0.3 0
      vertex 33.122 12.222 0
      vertex 33.431 12.222 0
    endloop
  endfacet
  facet normal 0 0 -1
    outer loop
      vertex 3.866 0 0
      vertex 33.431 12.222 0
      vertex 33.431 0.462 0
    endloop
  endfacet
  facet normal 0 0 -1
    outer loop
      vertex 15.219 -0.3 0
      vertex 33.431 0.462 0
      vertex 32.644 -0.3 0
    endloop
  endfacet
  facet normal 0 0 -1
    outer loop
      vertex 15.219 0 0
      vertex 33.431 0.462 0
      vertex 15.219 -0.3 0
    endloop
  endfacet
  facet normal 0 0 -1
    outer loop
      vertex 0.462 -0.3 0
      vertex 33.431 12.222 0
      vertex 3.866 0 0
    endloop
  endfacet
  facet normal 0 0 -1
    outer loop
      vertex 3.866 -0.3 0
      vertex 0.462 -0.3 0
      vertex 3.866 0 0
    endloop
  endfacet
  facet normal 0 0 -1
    outer loop
      vertex 33.122 12.222 0
      vertex 0.462 -0.3 0
      vertex 33.122 23.576 0
    endloop
  endfacet
  facet normal -1 0 0
    outer loop
      vertex -0.3 0.462 0
      vertex -0.3 0.462 3
      vertex -0.3 32.644 0
    endloop
  endfacet
  facet normal -1 0 0
    outer loop
      vertex -0.3 32.644 0
      vertex -0.3 0.462 3
      vertex -0.3 32.644 3
    endloop
  endfacet
  facet normal 0 0 1
    outer loop
      vertex 0.31 0.716 3
      vertex -0.3 0.462 3
      vertex 0.462 -0.3 3
    endloop
  endfacet
  facet normal 0 0 1
    outer loop
      vertex 0.716 0.31 3
      vertex 0.31 0.716 3
      vertex 0.462 -0.3 3
    endloop
  endfacet
  facet normal 0 0 1
    outer loop
      vertex 3.866 -0.3 3
      vertex 0.716 0.31 3
      vertex 0.462 -0.3 3
    endloop
  endfacet
  facet normal 0 0 1
    outer loop
      vertex -0.3 32.644 3
      vertex -0.3 0.462 3
      vertex 0.31 0.716 3
    endloop
  endfacet
  facet normal 0 0 1
    outer loop
      vertex 0.716 32.822 3
      vertex -0.3 32.644 3
      vertex 0.31 32.39 3
    endloop
  endfacet
  facet normal 0 0 1
    outer loop
      vertex 0.462 33.431 3
      vertex -0.3 32.644 3
      vertex 0.716 32.822 3
    endloop
  endfacet
  facet normal 0 0 1
    outer loop
      vertex 32.644 33.431 3
      vertex 0.716 32.822 3
      vertex 32.39 32.822 3
    endloop
  endfacet
  facet normal 0 0 1
    outer loop
      vertex 33.431 32.644 3
      vertex 32.39 32.822 3
      vertex 32.822 32.39 3
    endloop
  endfacet
  facet normal 0 0 1
    outer loop
      vertex 33.431 23.576 3
      vertex 32.822 32.39 3
      vertex 32.822 23.576 3
    endloop
  endfacet
  facet normal 0 0 1
    outer loop
      vertex 33.431 32.644 3
      vertex 32.822 32.39 3
      vertex 33.431 23.576 3
    endloop
  endfacet
  facet normal 0 0 1
    outer loop
      vertex 32.644 33.431 3
      vertex 32.39 32.822 3
      vertex 33.431 32.644 3
    endloop
  endfacet
  facet normal 0 0 1
    outer loop
      vertex 0.462 33.431 3
      vertex 0.716 32.822 3
      vertex 32.644 33.431 3
    endloop
  endfacet
  facet normal 0 0 1
    outer loop
      vertex 3.866 0.31 3
      vertex 0.716 0.31 3
      vertex 3.866 -0.3 3
    endloop
  endfacet
  facet normal 0 0 1
    outer loop
      vertex 0.31 0.716 3
      vertex 0.31 32.39 3
      vertex -0.3 32.644 3
    endloop
  endfacet
  facet normal 0 -1 0
    outer loop
      vertex 0.462 -0.3 3
      vertex 0.462 -0.3 0
      vertex 3.866 -0.3 0
    endloop
  endfacet
  facet normal 0 -1 0
    outer loop
      vertex 3.866 -0.3 3
      vertex 0.462 -0.3 3
      vertex 3.866 -0.3 0
    endloop
  endfacet
  facet normal 1 0 0
    outer loop
      vertex 3.866 -0.3 3
      vertex 3.866 -0.3 0
      vertex 3.866 0 0
    endloop
  endfacet
  facet normal 1 0 0
    outer loop
      vertex 3.866 0.31 1.2
      vertex 3.866 -0.3 3
      vertex 3.866 0 1.2
    endloop
  endfacet
  facet normal 1 0 0
    outer loop
      vertex 3.866 0 1.2
      vertex 3.866 -0.3 3
      vertex 3.866 0 0
    endloop
  endfacet
  facet normal 1 0 0
    outer loop
      vertex 3.866 0.31 3
      vertex 3.866 -0.3 3
      vertex 3.866 0.31 1.2
    endloop
  endfacet
  facet normal 0 -1 0
    outer loop
      vertex 3.866 0 1.2
      vertex 3.866 0 0
      vertex 15.219 0 0
    endloop
  endfacet
  facet normal 0 -1 0
    outer loop
      vertex 15.219 0 1.2
      vertex 3.866 0 1.2
      vertex 15.219 0 0
    endloop
  endfacet
  facet normal -1 0 0
    outer loop
      vertex 15.219 -0.3 0
      vertex 15.219 -0.3 3
      vertex 15.219 0 0
    endloop
  endfacet
  facet normal -1 0 0
    outer loop
      vertex 15.219 0 1.2
      vertex 15.219 -0.3 3
      vertex 15.219 0.31 3
    endloop
  endfacet
  facet normal -1 0 0
    outer loop
      vertex 15.219 0 0
      vertex 15.219 -0.3 3
      vertex 15.219 0 1.2
    endloop
  endfacet
  facet normal -1 0 0
    outer loop
      vertex 15.219 0 1.2
      vertex 15.219 0.31 3
      vertex 15.219 0.31 1.2
    endloop
  endfacet
  facet normal 0 -1 0
    outer loop
      vertex 15.219 -0.3 3
      vertex 15.219 -0.3 0
      vertex 32.644 -0.3 0
    endloop
  endfacet
  facet normal 0 -1 0
    outer loop
      vertex 32.644 -0.3 3
      vertex 15.219 -0.3 3
      vertex 32.644 -0.3 0
    endloop
  endfacet
  facet normal 0.695604 -0.718426 0
    outer loop
      vertex 32.644 -0.3 3
      vertex 32.644 -0.3 0
      vertex 33.431 0.462 0
    endloop
  endfacet
  facet normal 0.695604 -0.718426 0
    outer loop
      vertex 33.431 0.462 3
      vertex 32.644 -0.3 3
      vertex 33.431 0.462 0
    endloop
  endfacet
  facet normal 1 0 0
    outer loop
      vertex 33.431 0.462 3
      vertex 33.431 0.462 0
      vertex 33.431 12.222 0
    endloop
  endfacet
  facet normal 1 0 0
    outer loop
      vertex 33.431 12.222 3
      vertex 33.431 0.462 3
      vertex 33.431 12.222 0
    endloop
  endfacet
  facet normal 0 1 0
    outer loop
      vertex 32.822 12.222 1.2
      vertex 32.822 12.222 3
      vertex 33.122 12.222 1.2
    endloop
  endfacet
  facet normal 0 1 0
    outer loop
      vertex 33.122 12.222 1.2
      vertex 32.822 12.222 3
      vertex 33.431 12.222 3
    endloop
  endfacet
  facet normal 0 1 0
    outer loop
      vertex 33.122 12.222 1.2
      vertex 33.431 12.222 3
      vertex 33.431 12.222 0
    endloop
  endfacet
  facet normal 0 1 0
    outer loop
      vertex 33.122 12.222 1.2
      vertex 33.431 12.222 0
      vertex 33.122 12.222 0
    endloop
  endfacet
  facet normal 1 0 0
    outer loop
      vertex 33.122 12.222 1.2
      vertex 33.122 12.222 0
      vertex 33.122 23.576 0
    endloop
  endfacet
  facet normal 1 0 0
    outer loop
      vertex 33.122 23.576 1.2
      vertex 33.122 12.222 1.2
      vertex 33.122 23.576 0
    endloop
  endfacet
  facet normal 0 -1 0
    outer loop
      vertex 32.822 23.576 3
      vertex 32.822 23.576 1.2
      vertex 33.122 23.576 1.2
    endloop
  endfacet
  facet normal 0 -1 0
    outer loop
      vertex 33.431 23.576 0
      vertex 32.822 23.576 3
      vertex 33.122 23.576 1.2
    endloop
  endfacet
  facet normal 0 -1 0
    outer loop
      vertex 33.122 23.576 0
      vertex 33.431 23.576 0
      vertex 33.122 23.576 1.2
    endloop
  endfacet
  facet normal 0 -1 0
    outer loop
      vertex 33.431 23.576 0
      vertex 33.431 23.576 3
      vertex 32.822 23.576 3
    endloop
  endfacet
  facet normal 1 0 0
    outer loop
      vertex 33.431 23.576 3
      vertex 33.431 23.576 0
      vertex 33.431 32.644 0
    endloop
  endfacet
  facet normal 1 0 0
    outer loop
      vertex 33.431 32.644 3
      vertex 33.431 23.576 3
      vertex 33.431 32.644 0
    endloop
  endfacet
  facet normal 0.707107 0.707107 0
    outer loop
      vertex 32.644 33.431 0
      vertex 32.644 33.431 3
      vertex 33.431 32.644 0
    endloop
  endfacet
  facet normal 0.707107 0.707107 0
    outer loop
      vertex 33.431 32.644 0
      vertex 32.644 33.431 3
      vertex 33.431 32.644 3
    endloop
  endfacet
  facet normal 0 1 0
    outer loop
      vertex 0.462 33.431 0
      vertex 0.462 33.431 3
      vertex 32.644 33.431 0
    endloop
  endfacet
  facet normal 0 1 0
    outer loop
      vertex 32.644 33.431 0
      vertex 0.462 33.431 3
      vertex 32.644 33.431 3
    endloop
  endfacet
  facet normal -0.718426 0.695604 0
    outer loop
      vertex -0.3 32.644 0
      vertex -0.3 32.644 3
      vertex 0.462 33.431 0
    endloop
  endfacet
  facet normal -0.718426 0.695604 0
    outer loop
      vertex 0.462 33.431 0
      vertex -0.3 32.644 3
      vertex 0.462 33.431 3
    endloop
  endfacet
  facet normal -1 0 0
    outer loop
      vertex 32.822 23.576 1.2
      vertex 32.822 23.576 3
      vertex 32.822 32.39 1.2
    endloop
  endfacet
  facet normal -1 0 0
    outer loop
      vertex 32.822 32.39 1.2
      vertex 32.822 23.576 3
      vertex 32.822 32.39 3
    endloop
  endfacet
  facet normal -0.707107 -0.707107 0
    outer loop
      vertex 32.39 32.822 3
      vertex 32.39 32.822 1.2
      vertex 32.822 32.39 1.2
    endloop
  endfacet
  facet normal -0.707107 -0.707107 0
    outer loop
      vertex 32.822 32.39 3
      vertex 32.39 32.822 3
      vertex 32.822 32.39 1.2
    endloop
  endfacet
  facet normal 0 -1 0
    outer loop
      vertex 0.716 32.822 3
      vertex 0.716 32.822 1.2
      vertex 32.39 32.822 1.2
    endloop
  endfacet
  facet normal 0 -1 0
    outer loop
      vertex 32.39 32.822 3
      vertex 0.716 32.822 3
      vertex 32.39 32.822 1.2
    endloop
  endfacet
  facet normal 0.728695 -0.684838 0
    outer loop
      vertex 0.31 32.39 3
      vertex 0.31 32.39 1.2
      vertex 0.716 32.822 1.2
    endloop
  endfacet
  facet normal 0.728695 -0.684838 0
    outer loop
      vertex 0.716 32.822 3
      vertex 0.31 32.39 3
      vertex 0.716 32.822 1.2
    endloop
  endfacet
  facet normal 1 0 0
    outer loop
      vertex 0.31 0.716 3
      vertex 0.31 0.716 1.2
      vertex 0.31 32.39 1.2
    endloop
  endfacet
  facet normal 1 0 0
    outer loop
      vertex 0.31 32.39 3
      vertex 0.31 0.716 3
      vertex 0.31 32.39 1.2
    endloop
  endfacet
  facet normal 0.707107 0.707107 0
    outer loop
      vertex 0.31 0.716 1.2
      vertex 0.31 0.716 3
      vertex 0.716 0.31 1.2
    endloop
  endfacet
  facet normal 0.707107 0.707107 0
    outer loop
      vertex 0.716 0.31 1.2
      vertex 0.31 0.716 3
      vertex 0.716 0.31 3
    endloop
  endfacet
  facet normal 0 1 0
    outer loop
      vertex 0.716 0.31 1.2
      vertex 0.716 0.31 3
      vertex 3.866 0.31 1.2
    endloop
  endfacet
  facet normal 0 1 0
    outer loop
      vertex 3.866 0.31 1.2
      vertex 0.716 0.31 3
      vertex 3.866 0.31 3
    endloop
  endfacet
  facet normal 0 0 1
    outer loop
      vertex 0.31 32.39 1.2
      vertex 0.31 0.716 1.2
      vertex 0.716 0.31 1.2
    endloop
  endfacet
  facet normal 0 0 1
    outer loop
      vertex 15.219 0 1.2
      vertex 0.31 32.39 1.2
      vertex 3.866 0.31 1.2
    endloop
  endfacet
  facet normal 0 0 1
    outer loop
      vertex 3.866 0.31 1.2
      vertex 0.31 32.39 1.2
      vertex 0.716 0.31 1.2
    endloop
  endfacet
  facet normal 0 0 1
    outer loop
      vertex 15.219 0 1.2
      vertex 3.866 0.31 1.2
      vertex 3.866 0 1.2
    endloop
  endfacet
  facet normal 0 0 1
    outer loop
      vertex 15.219 0.31 1.2
      vertex 0.31 32.39 1.2
      vertex 15.219 0 1.2
    endloop
  endfacet
  facet normal 0 0 1
    outer loop
      vertex 32.39 0.31 1.2
      vertex 0.31 32.39 1.2
      vertex 15.219 0.31 1.2
    endloop
  endfacet
  facet normal 0 0 1
    outer loop
      vertex 32.822 0.716 1.2
      vertex 0.31 32.39 1.2
      vertex 32.39 0.31 1.2
    endloop
  endfacet
  facet normal 0 0 1
    outer loop
      vertex 32.822 12.222 1.2
      vertex 0.31 32.39 1.2
      vertex 32.822 0.716 1.2
    endloop
  endfacet
  facet normal 0 0 1
    outer loop
      vertex 33.122 12.222 1.2
      vertex 0.31 32.39 1.2
      vertex 32.822 12.222 1.2
    endloop
  endfacet
  facet normal 0 0 1
    outer loop
      vertex 32.822 23.576 1.2
      vertex 0.31 32.39 1.2
      vertex 33.122 12.222 1.2
    endloop
  endfacet
  facet normal 0 0 1
    outer loop
      vertex 33.122 23.576 1.2
      vertex 32.822 23.576 1.2
      vertex 33.122 12.222 1.2
    endloop
  endfacet
  facet normal 0 0 1
    outer loop
      vertex 32.39 32.822 1.2
      vertex 0.31 32.39 1.2
      vertex 32.822 32.39 1.2
    endloop
  endfacet
  facet normal 0 0 1
    outer loop
      vertex 0.716 32.822 1.2
      vertex 0.31 32.39 1.2
      vertex 32.39 32.822 1.2
    endloop
  endfacet
  facet normal 0 0 1
    outer loop
      vertex 32.822 23.576 1.2
      vertex 32.822 32.39 1.2
      vertex 0.31 32.39 1.2
    endloop
  endfacet
  facet normal 0 1 0
    outer loop
      vertex 15.219 0.31 1.2
      vertex 15.219 0.31 3
      vertex 32.39 0.31 1.2
    endloop
  endfacet
  facet normal 0 1 0
    outer loop
      vertex 32.39 0.31 1.2
      vertex 15.219 0.31 3
      vertex 32.39 0.31 3
    endloop
  endfacet
  facet normal 0 0 1
    outer loop
      vertex 15.219 0.31 3
      vertex 15.219 -0.3 3
      vertex 32.644 -0.3 3
    endloop
  endfacet
  facet normal 0 0 1
    outer loop
      vertex 32.39 0.31 3
      vertex 15.219 0.31 3
      vertex 32.644 -0.3 3
    endloop
  endfacet
  facet normal 0 0 1
    outer loop
      vertex 32.822 0.716 3
      vertex 32.39 0.31 3
      vertex 33.431 0.462 3
    endloop
  endfacet
  facet normal 0 0 1
    outer loop
      vertex 33.431 12.222 3
      vertex 32.822 0.716 3
      vertex 33.431 0.462 3
    endloop
  endfacet
  facet normal 0 0 1
    outer loop
      vertex 33.431 0.462 3
      vertex 32.39 0.31 3
      vertex 32.644 -0.3 3
    endloop
  endfacet
  facet normal 0 0 1
    outer loop
      vertex 32.822 12.222 3
      vertex 32.822 0.716 3
      vertex 33.431 12.222 3
    endloop
  endfacet
  facet normal -1 0 0
    outer loop
      vertex 32.822 0.716 1.2
      vertex 32.822 0.716 3
      vertex 32.822 12.222 1.2
    endloop
  endfacet
  facet normal -1 0 0
    outer loop
      vertex 32.822 12.222 1.2
      vertex 32.822 0.716 3
      vertex 32.822 12.222 3
    endloop
  endfacet
  facet normal -0.684838 0.728695 0
    outer loop
      vertex 32.39 0.31 1.2
      vertex 32.39 0.31 3
      vertex 32.822 0.716 1.2
    endloop
  endfacet
  facet normal -0.684838 0.728695 0
    outer loop
      vertex 32.822 0.716 1.2
      vertex 32.39 0.31 3
      vertex 32.822 0.716 3
    endloop
  endfacet
endsolid OpenSCAD_Model
