  0
SECTION
  2
HEADER
  9
$ACADVER
  1
AC1009
  9
$EXTMIN
 10
0.0
 20
0.0
 30
0.0
  9
$EXTMAX
 10
1000.0
 20
1000.0
 30
0.0
  9
$FILLMODE
 70
 0
  9
$SPLFRAME
 70
 1
  0
ENDSEC
  0
SECTION
  2
TABLES
  0
TABLE
  2
LAYER
 70
1
  0
LAYER
  2
0
 70
     0
 62
     7
  6
CONTINUOUS
  0
ENDTAB
  0
ENDSEC
  0
SECTION
  2
ENTITIES
  0
LINE
  8
0
 62
     160
 10
1.35509
 20
0.4088
 30
0.0
 11
1.30393
 21
0.4088
 31
0.0
  0
LINE
  8
0
 62
     160
 10
1.30393
 20
0.4088
 30
0.0
 11
1.30393
 21
0.507215
 31
0.0
  0
LINE
  8
0
 62
     160
 10
1.30393
 20
0.507215
 30
0.0
 11
1.35509
 21
0.507215
 31
0.0
  0
LINE
  8
0
 62
     160
 10
1.35509
 20
0.507215
 30
0.0
 11
1.35509
 21
0.4088
 31
0.0
  0
LINE
  8
0
 62
     160
 10
1.31662
 20
-0
 30
0.0
 11
1.11344
 21
-0
 31
0.0
  0
LINE
  8
0
 62
     160
 10
1.11344
 20
-0
 30
0.0
 11
1.11344
 21
0.0512153
 31
0.0
  0
LINE
  8
0
 62
     160
 10
1.11344
 20
0.0512153
 30
0.0
 11
1.30599
 21
0.0512153
 31
0.0
  0
LINE
  8
0
 62
     160
 10
1.30599
 20
0.0512153
 30
0.0
 11
1.30599
 21
0.0292426
 31
0.0
  0
LINE
  8
0
 62
     160
 10
1.30599
 20
0.0292426
 30
0.0
 11
1.32596
 21
0.0093316
 31
0.0
  0
LINE
  8
0
 62
     160
 10
1.32596
 20
0.0093316
 30
0.0
 11
1.31662
 21
-0
 31
0.0
  0
LINE
  8
0
 62
     160
 10
0.72309
 20
-0
 30
0.0
 11
0.624675
 21
-0
 31
0.0
  0
LINE
  8
0
 62
     160
 10
0.624675
 20
-0
 30
0.0
 11
0.624675
 21
0.0512153
 31
0.0
  0
LINE
  8
0
 62
     160
 10
0.624675
 20
0.0512153
 30
0.0
 11
0.72309
 21
0.0512153
 31
0.0
  0
LINE
  8
0
 62
     160
 10
0.72309
 20
0.0512153
 30
0.0
 11
0.72309
 21
-0
 31
0.0
  0
LINE
  8
0
 62
     160
 10
0.178276
 20
-0
 30
0.0
 11
0.0798611
 21
-0
 31
0.0
  0
LINE
  8
0
 62
     160
 10
0.0798611
 20
-0
 30
0.0
 11
0.0798611
 21
0.0512153
 31
0.0
  0
LINE
  8
0
 62
     160
 10
0.0798611
 20
0.0512153
 30
0.0
 11
0.178276
 21
0.0512153
 31
0.0
  0
LINE
  8
0
 62
     160
 10
0.178276
 20
0.0512153
 30
0.0
 11
0.178276
 21
-0
 31
0.0
  0
LINE
  8
0
 62
     160
 10
0.558106
 20
1.30393
 30
0.0
 11
0.351074
 21
1.30393
 31
0.0
  0
LINE
  8
0
 62
     160
 10
0.351074
 20
1.30393
 30
0.0
 11
0.351074
 21
1.35509
 31
0.0
  0
LINE
  8
0
 62
     160
 10
0.351074
 20
1.35509
 30
0.0
 11
0.558106
 21
1.35509
 31
0.0
  0
LINE
  8
0
 62
     160
 10
0.558106
 20
1.35509
 30
0.0
 11
0.558106
 21
1.30393
 31
0.0
  0
LINE
  8
0
 62
     160
 10
1.1792
 20
1.30393
 30
0.0
 11
0.972168
 21
1.30393
 31
0.0
  0
LINE
  8
0
 62
     160
 10
0.972168
 20
1.30393
 30
0.0
 11
0.972168
 21
1.35509
 31
0.0
  0
LINE
  8
0
 62
     160
 10
0.972168
 20
1.35509
 30
0.0
 11
1.1792
 21
1.35509
 31
0.0
  0
LINE
  8
0
 62
     160
 10
1.1792
 20
1.35509
 30
0.0
 11
1.1792
 21
1.30393
 31
0.0
  0
LINE
  8
0
 62
     160
 10
0.051161
 20
1.02018
 30
0.0
 11
0
 21
1.02018
 31
0.0
  0
LINE
  8
0
 62
     160
 10
0
 20
1.02018
 30
0.0
 11
0
 21
1.22721
 31
0.0
  0
LINE
  8
0
 62
     160
 10
0
 20
1.22721
 30
0.0
 11
0.051161
 21
1.22721
 31
0.0
  0
LINE
  8
0
 62
     160
 10
0.051161
 20
1.22721
 30
0.0
 11
0.051161
 21
1.02018
 31
0.0
  0
LINE
  8
0
 62
     160
 10
0.051161
 20
0.399089
 30
0.0
 11
0
 21
0.399089
 31
0.0
  0
LINE
  8
0
 62
     160
 10
0
 20
0.399089
 30
0.0
 11
0
 21
0.606119
 31
0.0
  0
LINE
  8
0
 62
     160
 10
0
 20
0.606119
 30
0.0
 11
0.051161
 21
0.606119
 31
0.0
  0
LINE
  8
0
 62
     160
 10
0.051161
 20
0.606119
 30
0.0
 11
0.051161
 21
0.399089
 31
0.0
  0
LINE
  8
0
 62
     160
 10
1.35509
 20
0.953614
 30
0.0
 11
1.30393
 21
0.953614
 31
0.0
  0
LINE
  8
0
 62
     160
 10
1.30393
 20
0.953614
 30
0.0
 11
1.30393
 21
1.05203
 31
0.0
  0
LINE
  8
0
 62
     160
 10
1.30393
 20
1.05203
 30
0.0
 11
1.35509
 21
1.05203
 31
0.0
  0
LINE
  8
0
 62
     160
 10
1.35509
 20
1.05203
 30
0.0
 11
1.35509
 21
0.953614
 31
0.0
  0
ENDSEC
  0
EOF
