  0
SECTION
  2
HEADER
  9
$ACADVER
  1
AC1009
  9
$EXTMIN
 10
0.0
 20
0.0
 30
0.0
  9
$EXTMAX
 10
1000.0
 20
1000.0
 30
0.0
  9
$FILLMODE
 70
 0
  9
$SPLFRAME
 70
 1
  0
ENDSEC
  0
SECTION
  2
TABLES
  0
TABLE
  2
LAYER
 70
1
  0
LAYER
  2
0
 70
     0
 62
     7
  6
CONTINUOUS
  0
ENDTAB
  0
ENDSEC
  0
SECTION
  2
ENTITIES
  0
LINE
  8
0
 62
     4
 10
0.820856
 20
0.458658
 30
0.0
 11
0.415364
 21
0.458658
 31
0.0
  0
LINE
  8
0
 62
     4
 10
0.415364
 20
0.458658
 30
0.0
 11
0.415364
 21
0.86415
 31
0.0
  0
LINE
  8
0
 62
     4
 10
0.415364
 20
0.86415
 30
0.0
 11
0.820856
 21
0.86415
 31
0.0
  0
LINE
  8
0
 62
     4
 10
0.820856
 20
0.86415
 30
0.0
 11
0.820856
 21
0.458658
 31
0.0
  0
LINE
  8
0
 62
     4
 10
1.15354
 20
1.21061
 30
0.0
 11
1.17914
 21
1.20535
 31
0.0
  0
LINE
  8
0
 62
     4
 10
1.17914
 20
1.20535
 30
0.0
 11
1.19998
 21
1.19092
 31
0.0
  0
LINE
  8
0
 62
     4
 10
1.19998
 20
1.19092
 30
0.0
 11
1.30512
 21
1.19092
 31
0.0
  0
LINE
  8
0
 62
     4
 10
1.30512
 20
1.19092
 30
0.0
 11
1.30512
 21
1.27555
 31
0.0
  0
LINE
  8
0
 62
     4
 10
1.30512
 20
1.27555
 30
0.0
 11
1.31103
 21
1.27555
 31
0.0
  0
LINE
  8
0
 62
     4
 10
1.31103
 20
1.27555
 30
0.0
 11
1.31103
 21
1.28738
 31
0.0
  0
LINE
  8
0
 62
     4
 10
1.31103
 20
1.28738
 30
0.0
 11
1.28738
 21
1.31098
 31
0.0
  0
LINE
  8
0
 62
     4
 10
1.28738
 20
1.31098
 30
0.0
 11
0.0236003
 21
1.31098
 31
0.0
  0
LINE
  8
0
 62
     4
 10
0.0236003
 20
1.31098
 30
0.0
 11
0
 21
1.28738
 31
0.0
  0
LINE
  8
0
 62
     4
 10
0
 20
1.28738
 30
0.0
 11
0
 21
0.0236003
 31
0.0
  0
LINE
  8
0
 62
     4
 10
0
 20
0.0236003
 30
0.0
 11
0.0236003
 21
-0
 31
0.0
  0
LINE
  8
0
 62
     4
 10
0.0236003
 20
-0
 30
0.0
 11
1.28738
 21
-0
 31
0.0
  0
LINE
  8
0
 62
     4
 10
1.28738
 20
-0
 30
0.0
 11
1.31103
 21
0.0236003
 31
0.0
  0
LINE
  8
0
 62
     4
 10
1.31103
 20
0.0236003
 30
0.0
 11
1.31103
 21
1.01573
 31
0.0
  0
LINE
  8
0
 62
     4
 10
1.31103
 20
1.01573
 30
0.0
 11
1.30512
 21
1.01573
 31
0.0
  0
LINE
  8
0
 62
     4
 10
1.30512
 20
1.01573
 30
0.0
 11
1.30512
 21
1.10037
 31
0.0
  0
LINE
  8
0
 62
     4
 10
1.30512
 20
1.10037
 30
0.0
 11
1.20003
 21
1.10037
 31
0.0
  0
LINE
  8
0
 62
     4
 10
1.20003
 20
1.10037
 30
0.0
 11
1.17914
 21
1.08599
 31
0.0
  0
LINE
  8
0
 62
     4
 10
1.17914
 20
1.08599
 30
0.0
 11
1.15354
 21
1.08068
 31
0.0
  0
LINE
  8
0
 62
     4
 10
1.15354
 20
1.08068
 30
0.0
 11
1.12826
 21
1.08583
 31
0.0
  0
LINE
  8
0
 62
     4
 10
1.12826
 20
1.08583
 30
0.0
 11
1.10758
 21
1.09972
 31
0.0
  0
LINE
  8
0
 62
     4
 10
1.10758
 20
1.09972
 30
0.0
 11
1.0937
 21
1.12039
 31
0.0
  0
LINE
  8
0
 62
     4
 10
1.0937
 20
1.12039
 30
0.0
 11
1.0886
 21
1.14567
 31
0.0
  0
LINE
  8
0
 62
     4
 10
1.0886
 20
1.14567
 30
0.0
 11
1.0937
 21
1.17095
 31
0.0
  0
LINE
  8
0
 62
     4
 10
1.0937
 20
1.17095
 30
0.0
 11
1.10758
 21
1.19162
 31
0.0
  0
LINE
  8
0
 62
     4
 10
1.10758
 20
1.19162
 30
0.0
 11
1.12826
 21
1.20551
 31
0.0
  0
LINE
  8
0
 62
     4
 10
1.12826
 20
1.20551
 30
0.0
 11
1.15354
 21
1.21061
 31
0.0
  0
ENDSEC
  0
EOF
