solid OpenSCAD_Model
  facet normal -0.927972 -0.37265 0
    outer loop
      vertex -0.2 0.587 0
      vertex -0.149 0.46 0
      vertex -0.2 0.587 2.6
    endloop
  endfacet
  facet normal -0.927972 -0.37265 0
    outer loop
      vertex -0.2 0.587 2.6
      vertex -0.149 0.46 0
      vertex -0.149 0.46 2.6
    endloop
  endfacet
  facet normal 0 0 -1
    outer loop
      vertex -0.2 0.587 0
      vertex -0.2 18.596 0
      vertex -0.149 0.46 0
    endloop
  endfacet
  facet normal 0 0 -1
    outer loop
      vertex -0.149 0.46 0
      vertex -0.2 18.596 0
      vertex 0 18.596 0
    endloop
  endfacet
  facet normal 0 0 -1
    outer loop
      vertex 0 18.596 0
      vertex 0.46 33.43 0
      vertex -0.149 0.46 0
    endloop
  endfacet
  facet normal 0 0 -1
    outer loop
      vertex 0 25.81 0
      vertex -0.2 25.81 0
      vertex -0.2 32.693 0
    endloop
  endfacet
  facet normal 0 0 -1
    outer loop
      vertex 0 25.81 0
      vertex -0.2 32.693 0
      vertex -0.149 32.845 0
    endloop
  endfacet
  facet normal 0 0 -1
    outer loop
      vertex 0 25.81 0
      vertex -0.149 32.845 0
      vertex 0.46 33.43 0
    endloop
  endfacet
  facet normal 0 0 -1
    outer loop
      vertex 0 25.81 0
      vertex 0.46 33.43 0
      vertex 0 18.596 0
    endloop
  endfacet
  facet normal 0 0 -1
    outer loop
      vertex -0.149 0.46 0
      vertex 0.46 33.43 0
      vertex 0.587 33.506 0
    endloop
  endfacet
  facet normal 0 0 -1
    outer loop
      vertex 29.312 30.759 0
      vertex 0.587 33.506 0
      vertex 32.693 33.506 0
    endloop
  endfacet
  facet normal 0 0 -1
    outer loop
      vertex 29.947 30.607 0
      vertex 32.693 33.506 0
      vertex 32.871 33.379 0
    endloop
  endfacet
  facet normal 0 0 -1
    outer loop
      vertex 30.48 30.251 0
      vertex 32.871 33.379 0
      vertex 33.1455 32.8435 0
    endloop
  endfacet
  facet normal 0 0 -1
    outer loop
      vertex 20.853 21.946 0
      vertex 33.506 26.089 0
      vertex 20.853 11.659 0
    endloop
  endfacet
  facet normal 0 0 -1
    outer loop
      vertex 10.541 11.659 0
      vertex -0.149 0.46 0
      vertex 10.541 21.946 0
    endloop
  endfacet
  facet normal 0 0 -1
    outer loop
      vertex 33.147 32.388 0
      vertex 33.299 32.5441 0
      vertex 33.379 32.388 0
    endloop
  endfacet
  facet normal 0 0 -1
    outer loop
      vertex 30.48 30.251 0
      vertex 33.299 32.5441 0
      vertex 33.147 32.388 0
    endloop
  endfacet
  facet normal 0 0 -1
    outer loop
      vertex 30.48 30.251 0
      vertex 33.1455 32.8435 0
      vertex 33.299 32.69 0
    endloop
  endfacet
  facet normal 0 0 -1
    outer loop
      vertex 29.947 30.607 0
      vertex 32.871 33.379 0
      vertex 30.48 30.251 0
    endloop
  endfacet
  facet normal 0 0 -1
    outer loop
      vertex 29.312 30.759 0
      vertex 32.693 33.506 0
      vertex 29.947 30.607 0
    endloop
  endfacet
  facet normal 0 0 -1
    outer loop
      vertex 28.651 30.632 0
      vertex 0.587 33.506 0
      vertex 29.312 30.759 0
    endloop
  endfacet
  facet normal 0 0 -1
    outer loop
      vertex 28.143 30.277 0
      vertex 0.587 33.506 0
      vertex 28.651 30.632 0
    endloop
  endfacet
  facet normal 0 0 -1
    outer loop
      vertex 10.541 21.946 0
      vertex 0.587 33.506 0
      vertex 28.143 30.277 0
    endloop
  endfacet
  facet normal 0 0 -1
    outer loop
      vertex 10.541 21.946 0
      vertex 27.661 29.108 0
      vertex 20.853 21.946 0
    endloop
  endfacet
  facet normal 0 0 -1
    outer loop
      vertex 30.48 30.251 0
      vertex 33.299 32.69 0
      vertex 33.299 32.5441 0
    endloop
  endfacet
  facet normal 0 0 -1
    outer loop
      vertex 20.853 21.946 0
      vertex 33.147 27.94 0
      vertex 33.147 26.089 0
    endloop
  endfacet
  facet normal 0 0 -1
    outer loop
      vertex 20.853 21.946 0
      vertex 29.947 27.584 0
      vertex 33.147 27.94 0
    endloop
  endfacet
  facet normal 0 0 -1
    outer loop
      vertex 29.947 27.584 0
      vertex 30.48 27.94 0
      vertex 33.147 27.94 0
    endloop
  endfacet
  facet normal 0 0 -1
    outer loop
      vertex 10.541 21.946 0
      vertex 27.788 29.743 0
      vertex 27.661 29.108 0
    endloop
  endfacet
  facet normal 0 0 -1
    outer loop
      vertex 10.541 21.946 0
      vertex 28.143 30.277 0
      vertex 27.788 29.743 0
    endloop
  endfacet
  facet normal 0 0 -1
    outer loop
      vertex 20.853 21.946 0
      vertex 28.651 27.584 0
      vertex 29.312 27.457 0
    endloop
  endfacet
  facet normal 0 0 -1
    outer loop
      vertex 20.853 21.946 0
      vertex 28.143 27.94 0
      vertex 28.651 27.584 0
    endloop
  endfacet
  facet normal 0 0 -1
    outer loop
      vertex 20.853 11.659 0
      vertex 33.506 26.089 0
      vertex 33.506 0.587 0
    endloop
  endfacet
  facet normal 0 0 -1
    outer loop
      vertex -0.149 0.46 0
      vertex 33.506 0.587 0
      vertex 33.43 0.46 0
    endloop
  endfacet
  facet normal 0 0 -1
    outer loop
      vertex -0.149 0.46 0
      vertex 33.43 0.46 0
      vertex 32.845 -0.149 0
    endloop
  endfacet
  facet normal 0 0 -1
    outer loop
      vertex -0.149 0.46 0
      vertex 32.845 -0.149 0
      vertex 32.693 -0.2 0
    endloop
  endfacet
  facet normal 0 0 -1
    outer loop
      vertex -0.149 0.46 0
      vertex 32.693 -0.2 0
      vertex 0.587 -0.2 0
    endloop
  endfacet
  facet normal 0 0 -1
    outer loop
      vertex -0.149 0.46 0
      vertex 0.587 -0.2 0
      vertex 0.46 -0.149 0
    endloop
  endfacet
  facet normal 0 0 -1
    outer loop
      vertex -0.149 0.46 0
      vertex 0.587 33.506 0
      vertex 10.541 21.946 0
    endloop
  endfacet
  facet normal 0 0 -1
    outer loop
      vertex 20.853 11.659 0
      vertex -0.149 0.46 0
      vertex 10.541 11.659 0
    endloop
  endfacet
  facet normal 0 0 -1
    outer loop
      vertex 27.788 28.448 0
      vertex 20.853 21.946 0
      vertex 27.661 29.108 0
    endloop
  endfacet
  facet normal 0 0 -1
    outer loop
      vertex 20.853 21.946 0
      vertex 27.788 28.448 0
      vertex 28.143 27.94 0
    endloop
  endfacet
  facet normal 0 0 -1
    outer loop
      vertex -0.149 0.46 0
      vertex 20.853 11.659 0
      vertex 33.506 0.587 0
    endloop
  endfacet
  facet normal 0 0 -1
    outer loop
      vertex 30.48 30.251 0
      vertex 33.147 32.388 0
      vertex 33.147 30.251 0
    endloop
  endfacet
  facet normal 0 0 -1
    outer loop
      vertex 20.853 21.946 0
      vertex 33.147 26.089 0
      vertex 33.506 26.089 0
    endloop
  endfacet
  facet normal 0 0 -1
    outer loop
      vertex 20.853 21.946 0
      vertex 29.312 27.457 0
      vertex 29.947 27.584 0
    endloop
  endfacet
  facet normal -1 0 0
    outer loop
      vertex -0.2 0.587 0
      vertex -0.2 0.587 2.6
      vertex -0.2 18.596 0
    endloop
  endfacet
  facet normal -1 0 0
    outer loop
      vertex -0.2 18.596 0
      vertex -0.2 0.587 2.6
      vertex -0.2 18.596 2.6
    endloop
  endfacet
  facet normal 0 0 1
    outer loop
      vertex -0.2 18.596 2.6
      vertex -0.2 0.587 2.6
      vertex -0.149 0.46 2.6
    endloop
  endfacet
  facet normal 0 0 1
    outer loop
      vertex 0.206 0.689 2.6
      vertex -0.2 18.596 2.6
      vertex -0.149 0.46 2.6
    endloop
  endfacet
  facet normal 0 0 1
    outer loop
      vertex 0.689 0.206 2.6
      vertex 0.46 -0.149 2.6
      vertex 0.587 -0.2 2.6
    endloop
  endfacet
  facet normal 0 0 1
    outer loop
      vertex 0.689 0.206 2.6
      vertex 0.206 0.689 2.6
      vertex 0.46 -0.149 2.6
    endloop
  endfacet
  facet normal 0 0 1
    outer loop
      vertex 32.617 0.206 2.6
      vertex 32.693 -0.2 2.6
      vertex 32.845 -0.149 2.6
    endloop
  endfacet
  facet normal 0 0 1
    outer loop
      vertex 33.099 0.689 2.6
      vertex 32.617 0.206 2.6
      vertex 33.43 0.46 2.6
    endloop
  endfacet
  facet normal 0 0 1
    outer loop
      vertex 33.506 0.587 2.6
      vertex 33.099 0.689 2.6
      vertex 33.43 0.46 2.6
    endloop
  endfacet
  facet normal 0 0 1
    outer loop
      vertex 33.43 0.46 2.6
      vertex 32.617 0.206 2.6
      vertex 32.845 -0.149 2.6
    endloop
  endfacet
  facet normal 0 0 1
    outer loop
      vertex 32.693 -0.2 2.6
      vertex 0.689 0.206 2.6
      vertex 0.587 -0.2 2.6
    endloop
  endfacet
  facet normal 0 0 1
    outer loop
      vertex 0.46 -0.149 2.6
      vertex 0.206 0.689 2.6
      vertex -0.149 0.46 2.6
    endloop
  endfacet
  facet normal 0 0 1
    outer loop
      vertex 32.617 0.206 2.6
      vertex 0.689 0.206 2.6
      vertex 32.693 -0.2 2.6
    endloop
  endfacet
  facet normal 0 0 1
    outer loop
      vertex 0.206 0.689 2.6
      vertex 0.206 18.596 2.6
      vertex -0.2 18.596 2.6
    endloop
  endfacet
  facet normal 0 0 1
    outer loop
      vertex 33.099 26.089 2.6
      vertex 33.506 0.587 2.6
      vertex 33.506 26.089 2.6
    endloop
  endfacet
  facet normal 0 0 1
    outer loop
      vertex 33.099 26.089 2.6
      vertex 33.099 0.689 2.6
      vertex 33.506 0.587 2.6
    endloop
  endfacet
  facet normal -0.707107 -0.707107 0
    outer loop
      vertex -0.149 0.46 2.6
      vertex -0.149 0.46 0
      vertex 0.46 -0.149 0
    endloop
  endfacet
  facet normal -0.707107 -0.707107 0
    outer loop
      vertex 0.46 -0.149 2.6
      vertex -0.149 0.46 2.6
      vertex 0.46 -0.149 0
    endloop
  endfacet
  facet normal -0.37265 -0.927972 0
    outer loop
      vertex 0.46 -0.149 2.6
      vertex 0.46 -0.149 0
      vertex 0.587 -0.2 0
    endloop
  endfacet
  facet normal -0.37265 -0.927972 0
    outer loop
      vertex 0.587 -0.2 2.6
      vertex 0.46 -0.149 2.6
      vertex 0.587 -0.2 0
    endloop
  endfacet
  facet normal 0 -1 0
    outer loop
      vertex 0.587 -0.2 2.6
      vertex 0.587 -0.2 0
      vertex 32.693 -0.2 0
    endloop
  endfacet
  facet normal 0 -1 0
    outer loop
      vertex 32.693 -0.2 2.6
      vertex 0.587 -0.2 2.6
      vertex 32.693 -0.2 0
    endloop
  endfacet
  facet normal 0.318098 -0.948058 0
    outer loop
      vertex 32.693 -0.2 2.6
      vertex 32.693 -0.2 0
      vertex 32.845 -0.149 0
    endloop
  endfacet
  facet normal 0.318098 -0.948058 0
    outer loop
      vertex 32.845 -0.149 2.6
      vertex 32.693 -0.2 2.6
      vertex 32.845 -0.149 0
    endloop
  endfacet
  facet normal 0.721174 -0.692754 0
    outer loop
      vertex 32.845 -0.149 2.6
      vertex 32.845 -0.149 0
      vertex 33.43 0.46 0
    endloop
  endfacet
  facet normal 0.721174 -0.692754 0
    outer loop
      vertex 33.43 0.46 2.6
      vertex 32.845 -0.149 2.6
      vertex 33.43 0.46 0
    endloop
  endfacet
  facet normal 0.858089 -0.513502 0
    outer loop
      vertex 33.43 0.46 2.6
      vertex 33.43 0.46 0
      vertex 33.506 0.587 0
    endloop
  endfacet
  facet normal 0.858089 -0.513502 0
    outer loop
      vertex 33.506 0.587 2.6
      vertex 33.43 0.46 2.6
      vertex 33.506 0.587 0
    endloop
  endfacet
  facet normal 1 0 0
    outer loop
      vertex 33.506 0.587 2.6
      vertex 33.506 0.587 0
      vertex 33.506 26.089 0
    endloop
  endfacet
  facet normal 1 0 0
    outer loop
      vertex 33.506 26.089 2.6
      vertex 33.506 0.587 2.6
      vertex 33.506 26.089 0
    endloop
  endfacet
  facet normal 0 1 0
    outer loop
      vertex 33.099 26.089 1.4
      vertex 33.099 26.089 2.6
      vertex 33.147 26.089 1.4
    endloop
  endfacet
  facet normal 0 1 0
    outer loop
      vertex 33.147 26.089 1.4
      vertex 33.099 26.089 2.6
      vertex 33.506 26.089 2.6
    endloop
  endfacet
  facet normal 0 1 0
    outer loop
      vertex 33.147 26.089 1.4
      vertex 33.506 26.089 2.6
      vertex 33.506 26.089 0
    endloop
  endfacet
  facet normal 0 1 0
    outer loop
      vertex 33.147 26.089 1.4
      vertex 33.506 26.089 0
      vertex 33.147 26.089 0
    endloop
  endfacet
  facet normal 1 0 0
    outer loop
      vertex 33.147 26.089 1.4
      vertex 33.147 26.089 0
      vertex 33.147 27.94 0
    endloop
  endfacet
  facet normal 1 0 0
    outer loop
      vertex 33.147 27.94 1.4
      vertex 33.147 26.089 1.4
      vertex 33.147 27.94 0
    endloop
  endfacet
  facet normal 0 1 0
    outer loop
      vertex 30.48 27.94 0
      vertex 30.48 27.94 1.4
      vertex 33.147 27.94 0
    endloop
  endfacet
  facet normal 0 1 0
    outer loop
      vertex 33.147 27.94 0
      vertex 30.48 27.94 1.4
      vertex 33.147 27.94 1.4
    endloop
  endfacet
  facet normal -0.55542 0.83157 0
    outer loop
      vertex 29.947 27.584 0
      vertex 29.947 27.584 1.4
      vertex 30.48 27.94 0
    endloop
  endfacet
  facet normal -0.55542 0.83157 0
    outer loop
      vertex 30.48 27.94 0
      vertex 29.947 27.584 1.4
      vertex 30.48 27.94 1.4
    endloop
  endfacet
  facet normal -0.196116 0.980581 0
    outer loop
      vertex 29.312 27.457 0
      vertex 29.312 27.457 1.4
      vertex 29.947 27.584 0
    endloop
  endfacet
  facet normal -0.196116 0.980581 0
    outer loop
      vertex 29.947 27.584 0
      vertex 29.312 27.457 1.4
      vertex 29.947 27.584 1.4
    endloop
  endfacet
  facet normal 0.188682 0.982038 0
    outer loop
      vertex 28.651 27.584 0
      vertex 28.651 27.584 1.4
      vertex 29.312 27.457 0
    endloop
  endfacet
  facet normal 0.188682 0.982038 0
    outer loop
      vertex 29.312 27.457 0
      vertex 28.651 27.584 1.4
      vertex 29.312 27.457 1.4
    endloop
  endfacet
  facet normal 0.573895 0.818929 0
    outer loop
      vertex 28.143 27.94 0
      vertex 28.143 27.94 1.4
      vertex 28.651 27.584 0
    endloop
  endfacet
  facet normal 0.573895 0.818929 0
    outer loop
      vertex 28.651 27.584 0
      vertex 28.143 27.94 1.4
      vertex 28.651 27.584 1.4
    endloop
  endfacet
  facet normal 0.819686 0.572812 0
    outer loop
      vertex 28.143 27.94 0
      vertex 27.788 28.448 0
      vertex 27.788 28.448 1.4
    endloop
  endfacet
  facet normal 0.819686 0.572812 0
    outer loop
      vertex 28.143 27.94 1.4
      vertex 28.143 27.94 0
      vertex 27.788 28.448 1.4
    endloop
  endfacet
  facet normal 0.981985 0.188958 0
    outer loop
      vertex 27.788 28.448 0
      vertex 27.661 29.108 0
      vertex 27.661 29.108 1.4
    endloop
  endfacet
  facet normal 0.981985 0.188958 0
    outer loop
      vertex 27.788 28.448 1.4
      vertex 27.788 28.448 0
      vertex 27.661 29.108 1.4
    endloop
  endfacet
  facet normal 0.980581 -0.196116 0
    outer loop
      vertex 27.661 29.108 1.4
      vertex 27.661 29.108 0
      vertex 27.788 29.743 0
    endloop
  endfacet
  facet normal 0.980581 -0.196116 0
    outer loop
      vertex 27.788 29.743 1.4
      vertex 27.661 29.108 1.4
      vertex 27.788 29.743 0
    endloop
  endfacet
  facet normal 0.832769 -0.55362 0
    outer loop
      vertex 27.788 29.743 1.4
      vertex 27.788 29.743 0
      vertex 28.143 30.277 0
    endloop
  endfacet
  facet normal 0.832769 -0.55362 0
    outer loop
      vertex 28.143 30.277 1.4
      vertex 27.788 29.743 1.4
      vertex 28.143 30.277 0
    endloop
  endfacet
  facet normal 0.572812 -0.819686 0
    outer loop
      vertex 28.143 30.277 1.4
      vertex 28.143 30.277 0
      vertex 28.651 30.632 0
    endloop
  endfacet
  facet normal 0.572812 -0.819686 0
    outer loop
      vertex 28.651 30.632 1.4
      vertex 28.143 30.277 1.4
      vertex 28.651 30.632 0
    endloop
  endfacet
  facet normal 0.188682 -0.982038 0
    outer loop
      vertex 28.651 30.632 1.4
      vertex 28.651 30.632 0
      vertex 29.312 30.759 0
    endloop
  endfacet
  facet normal 0.188682 -0.982038 0
    outer loop
      vertex 29.312 30.759 1.4
      vertex 28.651 30.632 1.4
      vertex 29.312 30.759 0
    endloop
  endfacet
  facet normal -0.232794 -0.972526 0
    outer loop
      vertex 29.312 30.759 1.4
      vertex 29.312 30.759 0
      vertex 29.947 30.607 0
    endloop
  endfacet
  facet normal -0.232794 -0.972526 0
    outer loop
      vertex 29.947 30.607 1.4
      vertex 29.312 30.759 1.4
      vertex 29.947 30.607 0
    endloop
  endfacet
  facet normal -0.55542 -0.83157 0
    outer loop
      vertex 29.947 30.607 1.4
      vertex 29.947 30.607 0
      vertex 30.48 30.251 0
    endloop
  endfacet
  facet normal -0.55542 -0.83157 0
    outer loop
      vertex 30.48 30.251 1.4
      vertex 29.947 30.607 1.4
      vertex 30.48 30.251 0
    endloop
  endfacet
  facet normal 0 -1 0
    outer loop
      vertex 30.48 30.251 1.4
      vertex 30.48 30.251 0
      vertex 33.147 30.251 0
    endloop
  endfacet
  facet normal 0 -1 0
    outer loop
      vertex 33.147 30.251 1.4
      vertex 30.48 30.251 1.4
      vertex 33.147 30.251 0
    endloop
  endfacet
  facet normal 1 0 0
    outer loop
      vertex 33.147 30.251 1.4
      vertex 33.147 30.251 0
      vertex 33.147 32.388 0
    endloop
  endfacet
  facet normal 1 0 0
    outer loop
      vertex 33.147 32.388 1.4
      vertex 33.147 30.251 1.4
      vertex 33.147 32.388 0
    endloop
  endfacet
  facet normal 0 -1 0
    outer loop
      vertex 32.922 32.388 2.6
      vertex 32.922 32.388 1.4
      vertex 33.147 32.388 1.4
    endloop
  endfacet
  facet normal 0 -1 0
    outer loop
      vertex 33.379 32.388 2.6
      vertex 32.922 32.388 2.6
      vertex 33.147 32.388 1.4
    endloop
  endfacet
  facet normal 0 -1 0
    outer loop
      vertex 33.147 32.388 0
      vertex 33.379 32.388 0
      vertex 33.147 32.388 1.4
    endloop
  endfacet
  facet normal 0 -1 0
    outer loop
      vertex 33.379 32.388 0
      vertex 33.379 32.388 2.6
      vertex 33.147 32.388 1.4
    endloop
  endfacet
  facet normal 0.889892 0.456171 0
    outer loop
      vertex 33.1455 32.8435 0
      vertex 32.871 33.379 0
      vertex 32.871 33.379 2.6
    endloop
  endfacet
  facet normal 0.889892 0.456171 0
    outer loop
      vertex 33.1455 32.8435 1.4
      vertex 33.1455 32.8435 0
      vertex 32.871 33.379 2.6
    endloop
  endfacet
  facet normal 0.889892 0.456171 0
    outer loop
      vertex 33.379 32.388 0
      vertex 33.299 32.5441 0
      vertex 33.379 32.388 2.6
    endloop
  endfacet
  facet normal 0.889892 0.456171 0
    outer loop
      vertex 33.299 32.5441 0
      vertex 33.299 32.5441 1.4
      vertex 33.379 32.388 2.6
    endloop
  endfacet
  facet normal 0.889892 0.456171 0
    outer loop
      vertex 33.379 32.388 2.6
      vertex 33.1455 32.8435 1.4
      vertex 32.871 33.379 2.6
    endloop
  endfacet
  facet normal 0.889892 0.456171 0
    outer loop
      vertex 33.299 32.5441 1.4
      vertex 33.1455 32.8435 1.4
      vertex 33.379 32.388 2.6
    endloop
  endfacet
  facet normal 1 0 0
    outer loop
      vertex 33.299 32.5441 1.4
      vertex 33.299 32.5441 0
      vertex 33.299 32.69 0
    endloop
  endfacet
  facet normal 1 0 0
    outer loop
      vertex 33.299 32.69 1.4
      vertex 33.299 32.5441 1.4
      vertex 33.299 32.69 0
    endloop
  endfacet
  facet normal 0.707107 0.707107 0
    outer loop
      vertex 33.1455 32.8435 0
      vertex 33.1455 32.8435 1.4
      vertex 33.299 32.69 0
    endloop
  endfacet
  facet normal 0.707107 0.707107 0
    outer loop
      vertex 33.299 32.69 0
      vertex 33.1455 32.8435 1.4
      vertex 33.299 32.69 1.4
    endloop
  endfacet
  facet normal 0.580806 0.814042 0
    outer loop
      vertex 32.693 33.506 0
      vertex 32.693 33.506 2.6
      vertex 32.871 33.379 0
    endloop
  endfacet
  facet normal 0.580806 0.814042 0
    outer loop
      vertex 32.871 33.379 0
      vertex 32.693 33.506 2.6
      vertex 32.871 33.379 2.6
    endloop
  endfacet
  facet normal 0 1 0
    outer loop
      vertex 0.587 33.506 0
      vertex 0.587 33.506 2.6
      vertex 32.693 33.506 0
    endloop
  endfacet
  facet normal 0 1 0
    outer loop
      vertex 32.693 33.506 0
      vertex 0.587 33.506 2.6
      vertex 32.693 33.506 2.6
    endloop
  endfacet
  facet normal -0.513502 0.858089 0
    outer loop
      vertex 0.46 33.43 0
      vertex 0.46 33.43 2.6
      vertex 0.587 33.506 0
    endloop
  endfacet
  facet normal -0.513502 0.858089 0
    outer loop
      vertex 0.587 33.506 0
      vertex 0.46 33.43 2.6
      vertex 0.587 33.506 2.6
    endloop
  endfacet
  facet normal -0.692754 0.721174 0
    outer loop
      vertex -0.149 32.845 0
      vertex -0.149 32.845 2.6
      vertex 0.46 33.43 0
    endloop
  endfacet
  facet normal -0.692754 0.721174 0
    outer loop
      vertex 0.46 33.43 0
      vertex -0.149 32.845 2.6
      vertex 0.46 33.43 2.6
    endloop
  endfacet
  facet normal -0.948058 0.318098 0
    outer loop
      vertex -0.2 32.693 0
      vertex -0.2 32.693 2.6
      vertex -0.149 32.845 0
    endloop
  endfacet
  facet normal -0.948058 0.318098 0
    outer loop
      vertex -0.149 32.845 0
      vertex -0.2 32.693 2.6
      vertex -0.149 32.845 2.6
    endloop
  endfacet
  facet normal -1 0 0
    outer loop
      vertex -0.2 25.81 0
      vertex -0.2 25.81 2.6
      vertex -0.2 32.693 0
    endloop
  endfacet
  facet normal -1 0 0
    outer loop
      vertex -0.2 32.693 0
      vertex -0.2 25.81 2.6
      vertex -0.2 32.693 2.6
    endloop
  endfacet
  facet normal 0 -1 0
    outer loop
      vertex -0.2 25.81 2.6
      vertex -0.2 25.81 0
      vertex 0 25.81 0
    endloop
  endfacet
  facet normal 0 -1 0
    outer loop
      vertex 0.206 25.81 1.4
      vertex -0.2 25.81 2.6
      vertex 0 25.81 1.4
    endloop
  endfacet
  facet normal 0 -1 0
    outer loop
      vertex 0 25.81 1.4
      vertex -0.2 25.81 2.6
      vertex 0 25.81 0
    endloop
  endfacet
  facet normal 0 -1 0
    outer loop
      vertex 0.206 25.81 2.6
      vertex -0.2 25.81 2.6
      vertex 0.206 25.81 1.4
    endloop
  endfacet
  facet normal -1 0 0
    outer loop
      vertex 0 18.596 0
      vertex 0 18.596 1.4
      vertex 0 25.81 0
    endloop
  endfacet
  facet normal -1 0 0
    outer loop
      vertex 0 25.81 0
      vertex 0 18.596 1.4
      vertex 0 25.81 1.4
    endloop
  endfacet
  facet normal 0 1 0
    outer loop
      vertex -0.2 18.596 0
      vertex -0.2 18.596 2.6
      vertex 0 18.596 0
    endloop
  endfacet
  facet normal 0 1 0
    outer loop
      vertex 0 18.596 1.4
      vertex -0.2 18.596 2.6
      vertex 0.206 18.596 2.6
    endloop
  endfacet
  facet normal 0 1 0
    outer loop
      vertex 0 18.596 0
      vertex -0.2 18.596 2.6
      vertex 0 18.596 1.4
    endloop
  endfacet
  facet normal 0 1 0
    outer loop
      vertex 0 18.596 1.4
      vertex 0.206 18.596 2.6
      vertex 0.206 18.596 1.4
    endloop
  endfacet
  facet normal 0 -1 0
    outer loop
      vertex 10.541 21.946 1.4
      vertex 10.541 21.946 0
      vertex 20.853 21.946 0
    endloop
  endfacet
  facet normal 0 -1 0
    outer loop
      vertex 20.853 21.946 1.4
      vertex 10.541 21.946 1.4
      vertex 20.853 21.946 0
    endloop
  endfacet
  facet normal 1 0 0
    outer loop
      vertex 10.541 11.659 1.4
      vertex 10.541 11.659 0
      vertex 10.541 21.946 0
    endloop
  endfacet
  facet normal 1 0 0
    outer loop
      vertex 10.541 21.946 1.4
      vertex 10.541 11.659 1.4
      vertex 10.541 21.946 0
    endloop
  endfacet
  facet normal -1 0 0
    outer loop
      vertex 20.853 11.659 0
      vertex 20.853 11.659 1.4
      vertex 20.853 21.946 0
    endloop
  endfacet
  facet normal -1 0 0
    outer loop
      vertex 20.853 21.946 0
      vertex 20.853 11.659 1.4
      vertex 20.853 21.946 1.4
    endloop
  endfacet
  facet normal 0 1 0
    outer loop
      vertex 10.541 11.659 0
      vertex 10.541 11.659 1.4
      vertex 20.853 11.659 0
    endloop
  endfacet
  facet normal 0 1 0
    outer loop
      vertex 20.853 11.659 0
      vertex 10.541 11.659 1.4
      vertex 20.853 11.659 1.4
    endloop
  endfacet
  facet normal 1 0 0
    outer loop
      vertex 0.206 0.689 2.6
      vertex 0.206 0.689 1.4
      vertex 0.206 18.596 1.4
    endloop
  endfacet
  facet normal 1 0 0
    outer loop
      vertex 0.206 18.596 2.6
      vertex 0.206 0.689 2.6
      vertex 0.206 18.596 1.4
    endloop
  endfacet
  facet normal 0.707107 0.707107 0
    outer loop
      vertex 0.206 0.689 1.4
      vertex 0.206 0.689 2.6
      vertex 0.689 0.206 1.4
    endloop
  endfacet
  facet normal 0.707107 0.707107 0
    outer loop
      vertex 0.689 0.206 1.4
      vertex 0.206 0.689 2.6
      vertex 0.689 0.206 2.6
    endloop
  endfacet
  facet normal 0 1 0
    outer loop
      vertex 0.689 0.206 1.4
      vertex 0.689 0.206 2.6
      vertex 32.617 0.206 1.4
    endloop
  endfacet
  facet normal 0 1 0
    outer loop
      vertex 32.617 0.206 1.4
      vertex 0.689 0.206 2.6
      vertex 32.617 0.206 2.6
    endloop
  endfacet
  facet normal -0.707839 0.706374 0
    outer loop
      vertex 32.617 0.206 1.4
      vertex 32.617 0.206 2.6
      vertex 33.099 0.689 1.4
    endloop
  endfacet
  facet normal -0.707839 0.706374 0
    outer loop
      vertex 33.099 0.689 1.4
      vertex 32.617 0.206 2.6
      vertex 33.099 0.689 2.6
    endloop
  endfacet
  facet normal -1 0 0
    outer loop
      vertex 33.099 0.689 1.4
      vertex 33.099 0.689 2.6
      vertex 33.099 26.089 1.4
    endloop
  endfacet
  facet normal -1 0 0
    outer loop
      vertex 33.099 26.089 1.4
      vertex 33.099 0.689 2.6
      vertex 33.099 26.089 2.6
    endloop
  endfacet
  facet normal 0 0 1
    outer loop
      vertex 20.853 21.946 1.4
      vertex 20.853 11.659 1.4
      vertex 33.099 0.689 1.4
    endloop
  endfacet
  facet normal 0 0 1
    outer loop
      vertex 0 25.81 1.4
      vertex 0 18.596 1.4
      vertex 0.206 18.596 1.4
    endloop
  endfacet
  facet normal 0 0 1
    outer loop
      vertex 10.541 11.659 1.4
      vertex 10.541 21.946 1.4
      vertex 0.206 25.81 1.4
    endloop
  endfacet
  facet normal 0 0 1
    outer loop
      vertex 0.206 0.689 1.4
      vertex 0.689 0.206 1.4
      vertex 0.206 18.596 1.4
    endloop
  endfacet
  facet normal 0 0 1
    outer loop
      vertex 10.541 11.659 1.4
      vertex 0 25.81 1.4
      vertex 0.206 18.596 1.4
    endloop
  endfacet
  facet normal 0 0 1
    outer loop
      vertex 20.853 11.659 1.4
      vertex 10.541 11.659 1.4
      vertex 32.617 0.206 1.4
    endloop
  endfacet
  facet normal 0 0 1
    outer loop
      vertex 33.147 26.089 1.4
      vertex 33.147 27.94 1.4
      vertex 33.099 26.089 1.4
    endloop
  endfacet
  facet normal 0 0 1
    outer loop
      vertex 0.206 32.617 1.4
      vertex 32.922 32.388 1.4
      vertex 32.566 33.099 1.4
    endloop
  endfacet
  facet normal 0 0 1
    outer loop
      vertex 20.853 11.659 1.4
      vertex 32.617 0.206 1.4
      vertex 33.099 0.689 1.4
    endloop
  endfacet
  facet normal 0 0 1
    outer loop
      vertex 33.099 26.089 1.4
      vertex 33.147 27.94 1.4
      vertex 29.947 27.584 1.4
    endloop
  endfacet
  facet normal 0 0 1
    outer loop
      vertex 10.541 11.659 1.4
      vertex 0.206 25.81 1.4
      vertex 0 25.81 1.4
    endloop
  endfacet
  facet normal 0 0 1
    outer loop
      vertex 33.099 26.089 1.4
      vertex 29.947 27.584 1.4
      vertex 29.312 27.457 1.4
    endloop
  endfacet
  facet normal 0 0 1
    outer loop
      vertex 29.947 30.607 1.4
      vertex 33.147 30.251 1.4
      vertex 29.312 30.759 1.4
    endloop
  endfacet
  facet normal 0 0 1
    outer loop
      vertex 30.48 30.251 1.4
      vertex 33.147 30.251 1.4
      vertex 29.947 30.607 1.4
    endloop
  endfacet
  facet normal 0 0 1
    outer loop
      vertex 33.147 30.251 1.4
      vertex 33.147 32.388 1.4
      vertex 29.312 30.759 1.4
    endloop
  endfacet
  facet normal 0 0 1
    outer loop
      vertex 10.541 21.946 1.4
      vertex 33.099 26.089 1.4
      vertex 0.206 25.81 1.4
    endloop
  endfacet
  facet normal 0 0 1
    outer loop
      vertex 0.689 0.206 1.4
      vertex 10.541 11.659 1.4
      vertex 0.206 18.596 1.4
    endloop
  endfacet
  facet normal 0 0 1
    outer loop
      vertex 0.689 0.206 1.4
      vertex 32.617 0.206 1.4
      vertex 10.541 11.659 1.4
    endloop
  endfacet
  facet normal 0 0 1
    outer loop
      vertex 20.853 21.946 1.4
      vertex 33.099 26.089 1.4
      vertex 10.541 21.946 1.4
    endloop
  endfacet
  facet normal 0 0 1
    outer loop
      vertex 33.099 0.689 1.4
      vertex 33.099 26.089 1.4
      vertex 20.853 21.946 1.4
    endloop
  endfacet
  facet normal 0 0 1
    outer loop
      vertex 0.206 32.617 1.4
      vertex 32.566 33.099 1.4
      vertex 0.689 33.099 1.4
    endloop
  endfacet
  facet normal 0 0 1
    outer loop
      vertex 30.48 27.94 1.4
      vertex 29.947 27.584 1.4
      vertex 33.147 27.94 1.4
    endloop
  endfacet
  facet normal 0 0 1
    outer loop
      vertex 32.922 32.388 1.4
      vertex 29.312 30.759 1.4
      vertex 33.147 32.388 1.4
    endloop
  endfacet
  facet normal 0 0 1
    outer loop
      vertex 0.206 32.617 1.4
      vertex 29.312 30.759 1.4
      vertex 32.922 32.388 1.4
    endloop
  endfacet
  facet normal 0 0 1
    outer loop
      vertex 0.206 32.617 1.4
      vertex 28.651 30.632 1.4
      vertex 29.312 30.759 1.4
    endloop
  endfacet
  facet normal 0 0 1
    outer loop
      vertex 0.206 32.617 1.4
      vertex 28.143 30.277 1.4
      vertex 28.651 30.632 1.4
    endloop
  endfacet
  facet normal 0 0 1
    outer loop
      vertex 0.206 32.617 1.4
      vertex 27.788 29.743 1.4
      vertex 28.143 30.277 1.4
    endloop
  endfacet
  facet normal 0 0 1
    outer loop
      vertex 0.206 32.617 1.4
      vertex 27.661 29.108 1.4
      vertex 27.788 29.743 1.4
    endloop
  endfacet
  facet normal 0 0 1
    outer loop
      vertex 0.206 32.617 1.4
      vertex 27.788 28.448 1.4
      vertex 27.661 29.108 1.4
    endloop
  endfacet
  facet normal 0 0 1
    outer loop
      vertex 0.206 32.617 1.4
      vertex 28.143 27.94 1.4
      vertex 27.788 28.448 1.4
    endloop
  endfacet
  facet normal 0 0 1
    outer loop
      vertex 0.206 32.617 1.4
      vertex 28.651 27.584 1.4
      vertex 28.143 27.94 1.4
    endloop
  endfacet
  facet normal 0 0 1
    outer loop
      vertex 0.206 32.617 1.4
      vertex 29.312 27.457 1.4
      vertex 28.651 27.584 1.4
    endloop
  endfacet
  facet normal 0 0 1
    outer loop
      vertex 0.206 32.617 1.4
      vertex 33.099 26.089 1.4
      vertex 29.312 27.457 1.4
    endloop
  endfacet
  facet normal 0 0 1
    outer loop
      vertex 0.206 32.617 1.4
      vertex 0.206 25.81 1.4
      vertex 33.099 26.089 1.4
    endloop
  endfacet
  facet normal -0.894176 -0.447717 0
    outer loop
      vertex 32.566 33.099 1.4
      vertex 32.922 32.388 1.4
      vertex 32.566 33.099 2.6
    endloop
  endfacet
  facet normal -0.894176 -0.447717 0
    outer loop
      vertex 32.566 33.099 2.6
      vertex 32.922 32.388 1.4
      vertex 32.922 32.388 2.6
    endloop
  endfacet
  facet normal 0 0 1
    outer loop
      vertex -0.2 32.693 2.6
      vertex -0.2 25.81 2.6
      vertex 0.206 25.81 2.6
    endloop
  endfacet
  facet normal 0 0 1
    outer loop
      vertex 0.689 33.099 2.6
      vertex -0.2 32.693 2.6
      vertex 0.206 32.617 2.6
    endloop
  endfacet
  facet normal 0 0 1
    outer loop
      vertex 0.206 32.617 2.6
      vertex -0.2 32.693 2.6
      vertex 0.206 25.81 2.6
    endloop
  endfacet
  facet normal 0 0 1
    outer loop
      vertex 0.587 33.506 2.6
      vertex -0.2 32.693 2.6
      vertex 0.689 33.099 2.6
    endloop
  endfacet
  facet normal 0 0 1
    outer loop
      vertex 32.871 33.379 2.6
      vertex 0.689 33.099 2.6
      vertex 32.566 33.099 2.6
    endloop
  endfacet
  facet normal 0 0 1
    outer loop
      vertex 33.379 32.388 2.6
      vertex 32.566 33.099 2.6
      vertex 32.922 32.388 2.6
    endloop
  endfacet
  facet normal 0 0 1
    outer loop
      vertex 32.871 33.379 2.6
      vertex 32.566 33.099 2.6
      vertex 33.379 32.388 2.6
    endloop
  endfacet
  facet normal 0 0 1
    outer loop
      vertex 32.693 33.506 2.6
      vertex 0.689 33.099 2.6
      vertex 32.871 33.379 2.6
    endloop
  endfacet
  facet normal 0 0 1
    outer loop
      vertex 0.587 33.506 2.6
      vertex 0.689 33.099 2.6
      vertex 32.693 33.506 2.6
    endloop
  endfacet
  facet normal 0 0 1
    outer loop
      vertex 0.46 33.43 2.6
      vertex -0.2 32.693 2.6
      vertex 0.587 33.506 2.6
    endloop
  endfacet
  facet normal 0 0 1
    outer loop
      vertex -0.149 32.845 2.6
      vertex -0.2 32.693 2.6
      vertex 0.46 33.43 2.6
    endloop
  endfacet
  facet normal 0 0 1
    outer loop
      vertex 33.299 32.69 1.4
      vertex 33.1455 32.8435 1.4
      vertex 33.299 32.5441 1.4
    endloop
  endfacet
  facet normal 1 0 0
    outer loop
      vertex 0.206 25.81 2.6
      vertex 0.206 25.81 1.4
      vertex 0.206 32.617 1.4
    endloop
  endfacet
  facet normal 1 0 0
    outer loop
      vertex 0.206 32.617 2.6
      vertex 0.206 25.81 2.6
      vertex 0.206 32.617 1.4
    endloop
  endfacet
  facet normal 0.706374 -0.707839 0
    outer loop
      vertex 0.206 32.617 2.6
      vertex 0.206 32.617 1.4
      vertex 0.689 33.099 1.4
    endloop
  endfacet
  facet normal 0.706374 -0.707839 0
    outer loop
      vertex 0.689 33.099 2.6
      vertex 0.206 32.617 2.6
      vertex 0.689 33.099 1.4
    endloop
  endfacet
  facet normal 0 -1 0
    outer loop
      vertex 0.689 33.099 2.6
      vertex 0.689 33.099 1.4
      vertex 32.566 33.099 1.4
    endloop
  endfacet
  facet normal 0 -1 0
    outer loop
      vertex 32.566 33.099 2.6
      vertex 0.689 33.099 2.6
      vertex 32.566 33.099 1.4
    endloop
  endfacet
endsolid OpenSCAD_Model
