solid OpenSCAD_Model
  facet normal -1 0 0
    outer loop
      vertex 0 0 -1.25825e-16
      vertex 0 0 14.6
      vertex 0 0.6 13.4
    endloop
  endfacet
  facet normal -1 0 0
    outer loop
      vertex 0 11.1 2.6
      vertex 0 11.7 -1.25825e-16
      vertex 0 0.6 2.6
    endloop
  endfacet
  facet normal -1 0 0
    outer loop
      vertex 0 11.7 -1.25825e-16
      vertex 0 11.1 13.4
      vertex 0 11.1 14.6
    endloop
  endfacet
  facet normal -1 0 0
    outer loop
      vertex 0 11.7 -1.25825e-16
      vertex 0 11.1 14.6
      vertex 0 11.7 14.6
    endloop
  endfacet
  facet normal -1 0 0
    outer loop
      vertex 0 0 -1.25825e-16
      vertex 0 0.6 13.4
      vertex 0 0.6 12
    endloop
  endfacet
  facet normal -1 0 0
    outer loop
      vertex 0 0 -1.25825e-16
      vertex 0 0.6 12
      vertex 0 0.6 2.6
    endloop
  endfacet
  facet normal -1 0 0
    outer loop
      vertex 0 0 -1.25825e-16
      vertex 0 0.6 2.6
      vertex 0 11.7 -1.25825e-16
    endloop
  endfacet
  facet normal -1 0 0
    outer loop
      vertex 0 0.6 12
      vertex 0 0.6 13.4
      vertex 0 11.1 12
    endloop
  endfacet
  facet normal -1 0 0
    outer loop
      vertex 0 11.7 -1.25825e-16
      vertex 0 11.1 2.6
      vertex 0 11.1 12
    endloop
  endfacet
  facet normal -1 0 0
    outer loop
      vertex 0 11.7 -1.25825e-16
      vertex 0 11.1 12
      vertex 0 11.1 13.4
    endloop
  endfacet
  facet normal -1 0 0
    outer loop
      vertex 0 0.6 13.4
      vertex 0 0 14.6
      vertex 0 0.6 14.6
    endloop
  endfacet
  facet normal -1 0 0
    outer loop
      vertex 0 11.1 13.4
      vertex 0 11.1 12
      vertex 0 0.6 13.4
    endloop
  endfacet
  facet normal 0 -1 0
    outer loop
      vertex 0 0 14.6
      vertex 0 0 -1.25825e-16
      vertex 4.5 0 -1.25825e-16
    endloop
  endfacet
  facet normal 0 -1 0
    outer loop
      vertex 4.5 0 14.6
      vertex 0 0 14.6
      vertex 4.5 0 -1.25825e-16
    endloop
  endfacet
  facet normal 0 0 -1
    outer loop
      vertex 0 0 -1.25825e-16
      vertex 0 11.7 -1.25825e-16
      vertex 4.5 0 -1.25825e-16
    endloop
  endfacet
  facet normal 0 0 -1
    outer loop
      vertex 4.5 0 -1.25825e-16
      vertex 0 11.7 -1.25825e-16
      vertex 4.5 11.7 -1.25825e-16
    endloop
  endfacet
  facet normal 0 1 0
    outer loop
      vertex 0 11.7 -1.25825e-16
      vertex 0 11.7 14.6
      vertex 4.5 11.7 -1.25825e-16
    endloop
  endfacet
  facet normal 0 1 0
    outer loop
      vertex 4.5 11.7 -1.25825e-16
      vertex 0 11.7 14.6
      vertex 4.5 11.7 14.6
    endloop
  endfacet
  facet normal 0 0 1
    outer loop
      vertex 0 0.6 14.6
      vertex 0 0 14.6
      vertex 4.5 0 14.6
    endloop
  endfacet
  facet normal 0 0 1
    outer loop
      vertex 3.9 0.6 14.6
      vertex 0 0.6 14.6
      vertex 4.5 0 14.6
    endloop
  endfacet
  facet normal 0 0 1
    outer loop
      vertex 0 11.7 14.6
      vertex 0 11.1 14.6
      vertex 4.5 11.7 14.6
    endloop
  endfacet
  facet normal 0 0 1
    outer loop
      vertex 0 11.1 14.6
      vertex 3.9 11.1 14.6
      vertex 4.5 11.7 14.6
    endloop
  endfacet
  facet normal 0 0 1
    outer loop
      vertex 4.5 11.7 14.6
      vertex 3.9 0.6 14.6
      vertex 4.5 0 14.6
    endloop
  endfacet
  facet normal 0 0 1
    outer loop
      vertex 3.9 11.1 14.6
      vertex 3.9 0.6 14.6
      vertex 4.5 11.7 14.6
    endloop
  endfacet
  facet normal 0 -1 0
    outer loop
      vertex 0 11.1 14.6
      vertex 0 11.1 13.4
      vertex 3.9 11.1 13.4
    endloop
  endfacet
  facet normal 0 -1 0
    outer loop
      vertex 3.9 11.1 14.6
      vertex 0 11.1 14.6
      vertex 3.9 11.1 13.4
    endloop
  endfacet
  facet normal 0 0 1
    outer loop
      vertex 0 11.1 13.4
      vertex 0 0.6 13.4
      vertex 3.9 0.6 13.4
    endloop
  endfacet
  facet normal 0 0 1
    outer loop
      vertex 3.9 11.1 13.4
      vertex 0 11.1 13.4
      vertex 3.9 0.6 13.4
    endloop
  endfacet
  facet normal 0 1 0
    outer loop
      vertex 0 0.6 13.4
      vertex 0 0.6 14.6
      vertex 3.9 0.6 13.4
    endloop
  endfacet
  facet normal 0 1 0
    outer loop
      vertex 3.9 0.6 13.4
      vertex 0 0.6 14.6
      vertex 3.9 0.6 14.6
    endloop
  endfacet
  facet normal 0 1 0
    outer loop
      vertex 0 0.6 2.6
      vertex 0 0.6 12
      vertex 0.6 0.6 2.6
    endloop
  endfacet
  facet normal 0 1 0
    outer loop
      vertex 0.6 0.6 2.6
      vertex 0 0.6 12
      vertex 4.5 0.6 12
    endloop
  endfacet
  facet normal 0 1 0
    outer loop
      vertex 0.6 0.6 2.6
      vertex 4.5 0.6 12
      vertex 4.5 0.6 1.4
    endloop
  endfacet
  facet normal 0 1 0
    outer loop
      vertex 0.6 0.6 2.6
      vertex 4.5 0.6 1.4
      vertex 0.6 0.6 1.4
    endloop
  endfacet
  facet normal 0 0 -1
    outer loop
      vertex 0 0.6 12
      vertex 0 11.1 12
      vertex 4.5 0.6 12
    endloop
  endfacet
  facet normal 0 0 -1
    outer loop
      vertex 4.5 0.6 12
      vertex 0 11.1 12
      vertex 4.5 11.1 12
    endloop
  endfacet
  facet normal 0 -1 0
    outer loop
      vertex 0 11.1 12
      vertex 0 11.1 2.6
      vertex 0.6 11.1 2.6
    endloop
  endfacet
  facet normal 0 -1 0
    outer loop
      vertex 4.5 11.1 1.4
      vertex 0 11.1 12
      vertex 0.6 11.1 2.6
    endloop
  endfacet
  facet normal 0 -1 0
    outer loop
      vertex 0.6 11.1 1.4
      vertex 4.5 11.1 1.4
      vertex 0.6 11.1 2.6
    endloop
  endfacet
  facet normal 0 -1 0
    outer loop
      vertex 4.5 11.1 1.4
      vertex 4.5 11.1 12
      vertex 0 11.1 12
    endloop
  endfacet
  facet normal 0 0 1
    outer loop
      vertex 0 11.1 2.6
      vertex 0 0.6 2.6
      vertex 0.6 0.6 2.6
    endloop
  endfacet
  facet normal 0 0 1
    outer loop
      vertex 0.6 11.1 2.6
      vertex 0 11.1 2.6
      vertex 0.6 0.6 2.6
    endloop
  endfacet
  facet normal 1 0 0
    outer loop
      vertex 4.5 0.6 1.4
      vertex 4.5 0 -1.25825e-16
      vertex 4.5 11.7 -1.25825e-16
    endloop
  endfacet
  facet normal 1 0 0
    outer loop
      vertex 4.5 0 14.6
      vertex 4.5 0 -1.25825e-16
      vertex 4.5 0.6 1.4
    endloop
  endfacet
  facet normal 1 0 0
    outer loop
      vertex 4.5 0.6 12
      vertex 4.5 11.1 12
      vertex 4.5 0 14.6
    endloop
  endfacet
  facet normal 1 0 0
    outer loop
      vertex 4.5 0 14.6
      vertex 4.5 0.6 1.4
      vertex 4.5 0.6 12
    endloop
  endfacet
  facet normal 1 0 0
    outer loop
      vertex 4.5 11.7 14.6
      vertex 4.5 11.1 12
      vertex 4.5 11.7 -1.25825e-16
    endloop
  endfacet
  facet normal 1 0 0
    outer loop
      vertex 4.5 11.7 14.6
      vertex 4.5 0 14.6
      vertex 4.5 11.1 12
    endloop
  endfacet
  facet normal 1 0 0
    outer loop
      vertex 4.5 11.1 12
      vertex 4.5 11.1 1.4
      vertex 4.5 11.7 -1.25825e-16
    endloop
  endfacet
  facet normal 1 0 0
    outer loop
      vertex 4.5 11.1 1.4
      vertex 4.5 0.6 1.4
      vertex 4.5 11.7 -1.25825e-16
    endloop
  endfacet
  facet normal -1 0 0
    outer loop
      vertex 3.9 0.6 13.4
      vertex 3.9 0.6 14.6
      vertex 3.9 11.1 13.4
    endloop
  endfacet
  facet normal -1 0 0
    outer loop
      vertex 3.9 11.1 13.4
      vertex 3.9 0.6 14.6
      vertex 3.9 11.1 14.6
    endloop
  endfacet
  facet normal 1 0 0
    outer loop
      vertex 0.6 0.6 2.6
      vertex 0.6 0.6 1.4
      vertex 0.6 11.1 1.4
    endloop
  endfacet
  facet normal 1 0 0
    outer loop
      vertex 0.6 11.1 2.6
      vertex 0.6 0.6 2.6
      vertex 0.6 11.1 1.4
    endloop
  endfacet
  facet normal 0 0 1
    outer loop
      vertex 0.6 11.1 1.4
      vertex 0.6 0.6 1.4
      vertex 4.5 0.6 1.4
    endloop
  endfacet
  facet normal 0 0 1
    outer loop
      vertex 4.5 11.1 1.4
      vertex 0.6 11.1 1.4
      vertex 4.5 0.6 1.4
    endloop
  endfacet
endsolid OpenSCAD_Model
