  0
SECTION
  2
HEADER
  9
$ACADVER
  1
AC1009
  9
$EXTMIN
 10
0.0
 20
0.0
 30
0.0
  9
$EXTMAX
 10
1000.0
 20
1000.0
 30
0.0
  9
$FILLMODE
 70
 0
  9
$SPLFRAME
 70
 1
  0
ENDSEC
  0
SECTION
  2
TABLES
  0
TABLE
  2
LAYER
 70
1
  0
LAYER
  2
0
 70
     0
 62
     7
  6
CONTINUOUS
  0
ENDTAB
  0
ENDSEC
  0
SECTION
  2
ENTITIES
  0
LINE
  8
0
 62
     4
 10
5.55117
 20
0.259819
 30
0.0
 11
5.55117
 21
0.0236003
 31
0.0
  0
LINE
  8
0
 62
     4
 10
5.55117
 20
0.0236003
 30
0.0
 11
5.57482
 21
-0
 31
0.0
  0
LINE
  8
0
 62
     4
 10
5.57482
 20
-0
 30
0.0
 11
6.23622
 21
-0
 31
0.0
  0
LINE
  8
0
 62
     4
 10
6.23622
 20
-0
 30
0.0
 11
6.27165
 21
0.0354275
 31
0.0
  0
LINE
  8
0
 62
     4
 10
6.27165
 20
0.0354275
 30
0.0
 11
6.27165
 21
0.212565
 31
0.0
  0
LINE
  8
0
 62
     4
 10
6.27165
 20
0.212565
 30
0.0
 11
6.23622
 21
0.283419
 31
0.0
  0
LINE
  8
0
 62
     4
 10
6.23622
 20
0.283419
 30
0.0
 11
5.57482
 21
0.283419
 31
0.0
  0
LINE
  8
0
 62
     4
 10
5.57482
 20
0.283419
 30
0.0
 11
5.55117
 21
0.259819
 31
0.0
  0
LINE
  8
0
 62
     4
 10
6.12007
 20
3.06494
 30
0.0
 11
5.71457
 21
3.06494
 31
0.0
  0
LINE
  8
0
 62
     4
 10
5.71457
 20
3.06494
 30
0.0
 11
5.71457
 21
3.47043
 31
0.0
  0
LINE
  8
0
 62
     4
 10
5.71457
 20
3.47043
 30
0.0
 11
6.12007
 21
3.47043
 31
0.0
  0
LINE
  8
0
 62
     4
 10
6.12007
 20
3.47043
 30
0.0
 11
6.12007
 21
3.06494
 31
0.0
  0
LINE
  8
0
 62
     4
 10
1.78939
 20
3.06494
 30
0.0
 11
1.38384
 21
3.06494
 31
0.0
  0
LINE
  8
0
 62
     4
 10
1.38384
 20
3.06494
 30
0.0
 11
1.38384
 21
3.47043
 31
0.0
  0
LINE
  8
0
 62
     4
 10
1.38384
 20
3.47043
 30
0.0
 11
1.78939
 21
3.47043
 31
0.0
  0
LINE
  8
0
 62
     4
 10
1.78939
 20
3.47043
 30
0.0
 11
1.78939
 21
3.06494
 31
0.0
  0
LINE
  8
0
 62
     4
 10
6.91319
 20
2.58317
 30
0.0
 11
6.85032
 21
2.62532
 31
0.0
  0
LINE
  8
0
 62
     4
 10
6.85032
 20
2.62532
 30
0.0
 11
6.7761
 21
2.63997
 31
0.0
  0
LINE
  8
0
 62
     4
 10
6.7761
 20
2.63997
 30
0.0
 11
6.70182
 21
2.62532
 31
0.0
  0
LINE
  8
0
 62
     4
 10
6.70182
 20
2.62532
 30
0.0
 11
6.639
 21
2.58317
 31
0.0
  0
LINE
  8
0
 62
     4
 10
6.639
 20
2.58317
 30
0.0
 11
6.60612
 21
2.56114
 31
0.0
  0
LINE
  8
0
 62
     4
 10
6.60612
 20
2.56114
 30
0.0
 11
6.56728
 21
2.55344
 31
0.0
  0
LINE
  8
0
 62
     4
 10
6.56728
 20
2.55344
 30
0.0
 11
6.52843
 21
2.56114
 31
0.0
  0
LINE
  8
0
 62
     4
 10
6.52843
 20
2.56114
 30
0.0
 11
6.49561
 21
2.58317
 31
0.0
  0
LINE
  8
0
 62
     4
 10
6.49561
 20
2.58317
 30
0.0
 11
6.47358
 21
2.61604
 31
0.0
  0
LINE
  8
0
 62
     4
 10
6.47358
 20
2.61604
 30
0.0
 11
6.46593
 21
2.65483
 31
0.0
  0
LINE
  8
0
 62
     4
 10
6.46593
 20
2.65483
 30
0.0
 11
6.46593
 21
3.83594
 31
0.0
  0
LINE
  8
0
 62
     4
 10
6.46593
 20
3.83594
 30
0.0
 11
6.45865
 21
3.8725
 31
0.0
  0
LINE
  8
0
 62
     4
 10
6.45865
 20
3.8725
 30
0.0
 11
6.43793
 21
3.90343
 31
0.0
  0
LINE
  8
0
 62
     4
 10
6.43793
 20
3.90343
 30
0.0
 11
6.40701
 21
3.92421
 31
0.0
  0
LINE
  8
0
 62
     4
 10
6.40701
 20
3.92421
 30
0.0
 11
6.37044
 21
3.93142
 31
0.0
  0
LINE
  8
0
 62
     4
 10
6.37044
 20
3.93142
 30
0.0
 11
6.33388
 21
3.92421
 31
0.0
  0
LINE
  8
0
 62
     4
 10
6.33388
 20
3.92421
 30
0.0
 11
6.30294
 21
3.90343
 31
0.0
  0
LINE
  8
0
 62
     4
 10
6.30294
 20
3.90343
 30
0.0
 11
6.23812
 21
3.86008
 31
0.0
  0
LINE
  8
0
 62
     4
 10
6.23812
 20
3.86008
 30
0.0
 11
6.16162
 21
3.84494
 31
0.0
  0
LINE
  8
0
 62
     4
 10
6.16162
 20
3.84494
 30
0.0
 11
6.08513
 21
3.86008
 31
0.0
  0
LINE
  8
0
 62
     4
 10
6.08513
 20
3.86008
 30
0.0
 11
6.02029
 21
3.90343
 31
0.0
  0
LINE
  8
0
 62
     4
 10
6.02029
 20
3.90343
 30
0.0
 11
5.97689
 21
3.96826
 31
0.0
  0
LINE
  8
0
 62
     4
 10
5.97689
 20
3.96826
 30
0.0
 11
5.96181
 21
4.04471
 31
0.0
  0
LINE
  8
0
 62
     4
 10
5.96181
 20
4.04471
 30
0.0
 11
5.97689
 21
4.12125
 31
0.0
  0
LINE
  8
0
 62
     4
 10
5.97689
 20
4.12125
 30
0.0
 11
6.02029
 21
4.18604
 31
0.0
  0
LINE
  8
0
 62
     4
 10
6.02029
 20
4.18604
 30
0.0
 11
6.08507
 21
4.22944
 31
0.0
  0
LINE
  8
0
 62
     4
 10
6.08507
 20
4.22944
 30
0.0
 11
6.16162
 21
4.24451
 31
0.0
  0
LINE
  8
0
 62
     4
 10
6.16162
 20
4.24451
 30
0.0
 11
6.23812
 21
4.22944
 31
0.0
  0
LINE
  8
0
 62
     4
 10
6.23812
 20
4.22944
 30
0.0
 11
6.30294
 21
4.18604
 31
0.0
  0
LINE
  8
0
 62
     4
 10
6.30294
 20
4.18604
 30
0.0
 11
6.33388
 21
4.16531
 31
0.0
  0
LINE
  8
0
 62
     4
 10
6.33388
 20
4.16531
 30
0.0
 11
6.37044
 21
4.15804
 31
0.0
  0
LINE
  8
0
 62
     4
 10
6.37044
 20
4.15804
 30
0.0
 11
6.40696
 21
4.16531
 31
0.0
  0
LINE
  8
0
 62
     4
 10
6.40696
 20
4.16531
 30
0.0
 11
6.43793
 21
4.18604
 31
0.0
  0
LINE
  8
0
 62
     4
 10
6.43793
 20
4.18604
 30
0.0
 11
6.45865
 21
4.21701
 31
0.0
  0
LINE
  8
0
 62
     4
 10
6.45865
 20
4.21701
 30
0.0
 11
6.46588
 21
4.25353
 31
0.0
  0
LINE
  8
0
 62
     4
 10
6.46588
 20
4.25353
 30
0.0
 11
6.46588
 21
5.185
 31
0.0
  0
LINE
  8
0
 62
     4
 10
6.46588
 20
5.185
 30
0.0
 11
0.0236003
 21
5.185
 31
0.0
  0
LINE
  8
0
 62
     4
 10
0.0236003
 20
5.185
 30
0.0
 11
0
 21
5.1614
 31
0.0
  0
LINE
  8
0
 62
     4
 10
0
 20
5.1614
 30
0.0
 11
0
 21
1.4764
 31
0.0
  0
LINE
  8
0
 62
     4
 10
0
 20
1.4764
 30
0.0
 11
0.0236003
 21
1.45275
 31
0.0
  0
LINE
  8
0
 62
     4
 10
0.0236003
 20
1.45275
 30
0.0
 11
6.46593
 21
1.45275
 31
0.0
  0
LINE
  8
0
 62
     4
 10
6.46593
 20
1.45275
 30
0.0
 11
6.46593
 21
2.23725
 31
0.0
  0
LINE
  8
0
 62
     4
 10
6.46593
 20
2.23725
 30
0.0
 11
6.47358
 21
2.27615
 31
0.0
  0
LINE
  8
0
 62
     4
 10
6.47358
 20
2.27615
 30
0.0
 11
6.49561
 21
2.30897
 31
0.0
  0
LINE
  8
0
 62
     4
 10
6.49561
 20
2.30897
 30
0.0
 11
6.52849
 21
2.331
 31
0.0
  0
LINE
  8
0
 62
     4
 10
6.52849
 20
2.331
 30
0.0
 11
6.56733
 21
2.33865
 31
0.0
  0
LINE
  8
0
 62
     4
 10
6.56733
 20
2.33865
 30
0.0
 11
6.60612
 21
2.331
 31
0.0
  0
LINE
  8
0
 62
     4
 10
6.60612
 20
2.331
 30
0.0
 11
6.639
 21
2.30897
 31
0.0
  0
LINE
  8
0
 62
     4
 10
6.639
 20
2.30897
 30
0.0
 11
6.70182
 21
2.26682
 31
0.0
  0
LINE
  8
0
 62
     4
 10
6.70182
 20
2.26682
 30
0.0
 11
6.7761
 21
2.25217
 31
0.0
  0
LINE
  8
0
 62
     4
 10
6.7761
 20
2.25217
 30
0.0
 11
6.85032
 21
2.26682
 31
0.0
  0
LINE
  8
0
 62
     4
 10
6.85032
 20
2.26682
 30
0.0
 11
6.91319
 21
2.30897
 31
0.0
  0
LINE
  8
0
 62
     4
 10
6.91319
 20
2.30897
 30
0.0
 11
6.95529
 21
2.37185
 31
0.0
  0
LINE
  8
0
 62
     4
 10
6.95529
 20
2.37185
 30
0.0
 11
6.97
 21
2.44607
 31
0.0
  0
LINE
  8
0
 62
     4
 10
6.97
 20
2.44607
 30
0.0
 11
6.95529
 21
2.52035
 31
0.0
  0
LINE
  8
0
 62
     4
 10
6.95529
 20
2.52035
 30
0.0
 11
6.91319
 21
2.58317
 31
0.0
  0
LINE
  8
0
 62
     4
 10
0.584636
 20
1.15153
 30
0.0
 11
0.179144
 21
1.15153
 31
0.0
  0
LINE
  8
0
 62
     4
 10
0.179144
 20
1.15153
 30
0.0
 11
0.179144
 21
1.28933
 31
0.0
  0
LINE
  8
0
 62
     4
 10
0.179144
 20
1.28933
 30
0.0
 11
0.584636
 21
1.28933
 31
0.0
  0
LINE
  8
0
 62
     4
 10
0.584636
 20
1.28933
 30
0.0
 11
0.584636
 21
1.15153
 31
0.0
  0
LINE
  8
0
 62
     4
 10
4.77756
 20
1.08659
 30
0.0
 11
4.77756
 21
1.17122
 31
0.0
  0
LINE
  8
0
 62
     4
 10
4.77756
 20
1.17122
 30
0.0
 11
4.67247
 21
1.17122
 31
0.0
  0
LINE
  8
0
 62
     4
 10
4.67247
 20
1.17122
 30
0.0
 11
4.65158
 21
1.1569
 31
0.0
  0
LINE
  8
0
 62
     4
 10
4.65158
 20
1.1569
 30
0.0
 11
4.62597
 21
1.15158
 31
0.0
  0
LINE
  8
0
 62
     4
 10
4.62597
 20
1.15158
 30
0.0
 11
4.60069
 21
1.15674
 31
0.0
  0
LINE
  8
0
 62
     4
 10
4.60069
 20
1.15674
 30
0.0
 11
4.58003
 21
1.17063
 31
0.0
  0
LINE
  8
0
 62
     4
 10
4.58003
 20
1.17063
 30
0.0
 11
4.56614
 21
1.1913
 31
0.0
  0
LINE
  8
0
 62
     4
 10
4.56614
 20
1.1913
 30
0.0
 11
4.56104
 21
1.21652
 31
0.0
  0
LINE
  8
0
 62
     4
 10
4.56104
 20
1.21652
 30
0.0
 11
4.56614
 21
1.24186
 31
0.0
  0
LINE
  8
0
 62
     4
 10
4.56614
 20
1.24186
 30
0.0
 11
4.58003
 21
1.26248
 31
0.0
  0
LINE
  8
0
 62
     4
 10
4.58003
 20
1.26248
 30
0.0
 11
4.60069
 21
1.27642
 31
0.0
  0
LINE
  8
0
 62
     4
 10
4.60069
 20
1.27642
 30
0.0
 11
4.62597
 21
1.28147
 31
0.0
  0
LINE
  8
0
 62
     4
 10
4.62597
 20
1.28147
 30
0.0
 11
4.65158
 21
1.2762
 31
0.0
  0
LINE
  8
0
 62
     4
 10
4.65158
 20
1.2762
 30
0.0
 11
4.67247
 21
1.26177
 31
0.0
  0
LINE
  8
0
 62
     4
 10
4.67247
 20
1.26177
 30
0.0
 11
4.77756
 21
1.26177
 31
0.0
  0
LINE
  8
0
 62
     4
 10
4.77756
 20
1.26177
 30
0.0
 11
4.77756
 21
1.32878
 31
0.0
  0
LINE
  8
0
 62
     4
 10
4.77756
 20
1.32878
 30
0.0
 11
4.75982
 21
1.34641
 31
0.0
  0
LINE
  8
0
 62
     4
 10
4.75982
 20
1.34641
 30
0.0
 11
4.35829
 21
1.34641
 31
0.0
  0
LINE
  8
0
 62
     4
 10
4.35829
 20
1.34641
 30
0.0
 11
4.28738
 21
1.26378
 31
0.0
  0
LINE
  8
0
 62
     4
 10
4.28738
 20
1.26378
 30
0.0
 11
4.26378
 21
1.28738
 31
0.0
  0
LINE
  8
0
 62
     4
 10
4.26378
 20
1.28738
 30
0.0
 11
4.20469
 21
1.29921
 31
0.0
  0
LINE
  8
0
 62
     4
 10
4.20469
 20
1.29921
 30
0.0
 11
3.94488
 21
1.29921
 31
0.0
  0
LINE
  8
0
 62
     4
 10
3.94488
 20
1.29921
 30
0.0
 11
3.89762
 21
1.33464
 31
0.0
  0
LINE
  8
0
 62
     4
 10
3.89762
 20
1.33464
 30
0.0
 11
3.67324
 21
1.33464
 31
0.0
  0
LINE
  8
0
 62
     4
 10
3.67324
 20
1.33464
 30
0.0
 11
3.62597
 21
1.29921
 31
0.0
  0
LINE
  8
0
 62
     4
 10
3.62597
 20
1.29921
 30
0.0
 11
3.57872
 21
1.33464
 31
0.0
  0
LINE
  8
0
 62
     4
 10
3.57872
 20
1.33464
 30
0.0
 11
2.98817
 21
1.33464
 31
0.0
  0
LINE
  8
0
 62
     4
 10
2.98817
 20
1.33464
 30
0.0
 11
2.94092
 21
1.29921
 31
0.0
  0
LINE
  8
0
 62
     4
 10
2.94092
 20
1.29921
 30
0.0
 11
2.89372
 21
1.33464
 31
0.0
  0
LINE
  8
0
 62
     4
 10
2.89372
 20
1.33464
 30
0.0
 11
2.63385
 21
1.33464
 31
0.0
  0
LINE
  8
0
 62
     4
 10
2.63385
 20
1.33464
 30
0.0
 11
2.58658
 21
1.29921
 31
0.0
  0
LINE
  8
0
 62
     4
 10
2.58658
 20
1.29921
 30
0.0
 11
2.22049
 21
1.29921
 31
0.0
  0
LINE
  8
0
 62
     4
 10
2.22049
 20
1.29921
 30
0.0
 11
2.17324
 21
1.33464
 31
0.0
  0
LINE
  8
0
 62
     4
 10
2.17324
 20
1.33464
 30
0.0
 11
2.04329
 21
1.33464
 31
0.0
  0
LINE
  8
0
 62
     4
 10
2.04329
 20
1.33464
 30
0.0
 11
2.00786
 21
1.35829
 31
0.0
  0
LINE
  8
0
 62
     4
 10
2.00786
 20
1.35829
 30
0.0
 11
1.85433
 21
1.35829
 31
0.0
  0
LINE
  8
0
 62
     4
 10
1.85433
 20
1.35829
 30
0.0
 11
1.83072
 21
1.33464
 31
0.0
  0
LINE
  8
0
 62
     4
 10
1.83072
 20
1.33464
 30
0.0
 11
1.8189
 21
1.25195
 31
0.0
  0
LINE
  8
0
 62
     4
 10
1.8189
 20
1.25195
 30
0.0
 11
1.79531
 21
1.27561
 31
0.0
  0
LINE
  8
0
 62
     4
 10
1.79531
 20
1.27561
 30
0.0
 11
1.4764
 21
1.28738
 31
0.0
  0
LINE
  8
0
 62
     4
 10
1.4764
 20
1.28738
 30
0.0
 11
1.42914
 21
1.35829
 31
0.0
  0
LINE
  8
0
 62
     4
 10
1.42914
 20
1.35829
 30
0.0
 11
1.03939
 21
1.35829
 31
0.0
  0
LINE
  8
0
 62
     4
 10
1.03939
 20
1.35829
 30
0.0
 11
0.980306
 21
1.31098
 31
0.0
  0
LINE
  8
0
 62
     4
 10
0.980306
 20
1.31098
 30
0.0
 11
0.862196
 21
1.34641
 31
0.0
  0
LINE
  8
0
 62
     4
 10
0.862196
 20
1.34641
 30
0.0
 11
0.720486
 21
1.34641
 31
0.0
  0
LINE
  8
0
 62
     4
 10
0.720486
 20
1.34641
 30
0.0
 11
0.685058
 21
1.32281
 31
0.0
  0
LINE
  8
0
 62
     4
 10
0.685058
 20
1.32281
 30
0.0
 11
0.661404
 21
1.34641
 31
0.0
  0
LINE
  8
0
 62
     4
 10
0.661404
 20
1.34641
 30
0.0
 11
0.602376
 21
1.35829
 31
0.0
  0
LINE
  8
0
 62
     4
 10
0.602376
 20
1.35829
 30
0.0
 11
0.0590278
 21
1.35829
 31
0.0
  0
LINE
  8
0
 62
     4
 10
0.0590278
 20
1.35829
 30
0.0
 11
0
 21
1.29921
 31
0.0
  0
LINE
  8
0
 62
     4
 10
0
 20
1.29921
 30
0.0
 11
0.0118273
 21
1.08659
 31
0.0
  0
LINE
  8
0
 62
     4
 10
0.0118273
 20
1.08659
 30
0.0
 11
0.0590278
 21
1.03933
 31
0.0
  0
LINE
  8
0
 62
     4
 10
0.0590278
 20
1.03933
 30
0.0
 11
0.649631
 21
1.03933
 31
0.0
  0
LINE
  8
0
 62
     4
 10
0.649631
 20
1.03933
 30
0.0
 11
0.956706
 21
1.07476
 31
0.0
  0
LINE
  8
0
 62
     4
 10
0.956706
 20
1.07476
 30
0.0
 11
1.00396
 21
1.05116
 31
0.0
  0
LINE
  8
0
 62
     4
 10
1.00396
 20
1.05116
 30
0.0
 11
1.13384
 21
1.05116
 31
0.0
  0
LINE
  8
0
 62
     4
 10
1.13384
 20
1.05116
 30
0.0
 11
1.16927
 21
1.07476
 31
0.0
  0
LINE
  8
0
 62
     4
 10
1.16927
 20
1.07476
 30
0.0
 11
1.34646
 21
1.05116
 31
0.0
  0
LINE
  8
0
 62
     4
 10
1.34646
 20
1.05116
 30
0.0
 11
1.59451
 21
1.05116
 31
0.0
  0
LINE
  8
0
 62
     4
 10
1.59451
 20
1.05116
 30
0.0
 11
1.64171
 21
1.12202
 31
0.0
  0
LINE
  8
0
 62
     4
 10
1.64171
 20
1.12202
 30
0.0
 11
1.79531
 21
1.12202
 31
0.0
  0
LINE
  8
0
 62
     4
 10
1.79531
 20
1.12202
 30
0.0
 11
1.8189
 21
1.14567
 31
0.0
  0
LINE
  8
0
 62
     4
 10
1.8189
 20
1.14567
 30
0.0
 11
1.88975
 21
1.11019
 31
0.0
  0
LINE
  8
0
 62
     4
 10
1.88975
 20
1.11019
 30
0.0
 11
1.94883
 21
1.05116
 31
0.0
  0
LINE
  8
0
 62
     4
 10
1.94883
 20
1.05116
 30
0.0
 11
3.80317
 21
1.06299
 31
0.0
  0
LINE
  8
0
 62
     4
 10
3.80317
 20
1.06299
 30
0.0
 11
4.26378
 21
1.03933
 31
0.0
  0
LINE
  8
0
 62
     4
 10
4.26378
 20
1.03933
 30
0.0
 11
4.29921
 21
1.07476
 31
0.0
  0
LINE
  8
0
 62
     4
 10
4.29921
 20
1.07476
 30
0.0
 11
4.32281
 21
1.05116
 31
0.0
  0
LINE
  8
0
 62
     4
 10
4.32281
 20
1.05116
 30
0.0
 11
4.64171
 21
1.03933
 31
0.0
  0
LINE
  8
0
 62
     4
 10
4.64171
 20
1.03933
 30
0.0
 11
4.75982
 21
1.05116
 31
0.0
  0
LINE
  8
0
 62
     4
 10
4.75982
 20
1.05116
 30
0.0
 11
4.78347
 21
1.07476
 31
0.0
  0
LINE
  8
0
 62
     4
 10
4.78347
 20
1.07476
 30
0.0
 11
4.78347
 21
1.08659
 31
0.0
  0
LINE
  8
0
 62
     4
 10
4.78347
 20
1.08659
 30
0.0
 11
4.77756
 21
1.08659
 31
0.0
  0
ENDSEC
  0
EOF
