  0
SECTION
  2
HEADER
  9
$ACADVER
  1
AC1009
  9
$EXTMIN
 10
0.0
 20
0.0
 30
0.0
  9
$EXTMAX
 10
1000.0
 20
1000.0
 30
0.0
  9
$FILLMODE
 70
 0
  9
$SPLFRAME
 70
 1
  0
ENDSEC
  0
SECTION
  2
TABLES
  0
TABLE
  2
LAYER
 70
1
  0
LAYER
  2
0
 70
     0
 62
     7
  6
CONTINUOUS
  0
ENDTAB
  0
ENDSEC
  0
SECTION
  2
ENTITIES
  0
LINE
  8
0
 62
     160
 10
6.24408
 20
-0
 30
0.0
 11
5.58268
 21
-0
 31
0.0
  0
LINE
  8
0
 62
     160
 10
5.58268
 20
-0
 30
0.0
 11
5.5771
 21
0.00227864
 31
0.0
  0
LINE
  8
0
 62
     160
 10
5.5771
 20
0.00227864
 30
0.0
 11
5.5535
 21
0.0259332
 31
0.0
  0
LINE
  8
0
 62
     160
 10
5.5535
 20
0.0259332
 30
0.0
 11
5.55117
 21
0.0314669
 31
0.0
  0
LINE
  8
0
 62
     160
 10
5.55117
 20
0.0314669
 30
0.0
 11
5.55117
 21
0.267686
 31
0.0
  0
LINE
  8
0
 62
     160
 10
5.55117
 20
0.267686
 30
0.0
 11
5.5535
 21
0.273275
 31
0.0
  0
LINE
  8
0
 62
     160
 10
5.5535
 20
0.273275
 30
0.0
 11
5.5771
 21
0.296929
 31
0.0
  0
LINE
  8
0
 62
     160
 10
5.5771
 20
0.296929
 30
0.0
 11
5.58268
 21
0.299208
 31
0.0
  0
LINE
  8
0
 62
     160
 10
5.58268
 20
0.299208
 30
0.0
 11
5.73622
 21
0.299208
 31
0.0
  0
LINE
  8
0
 62
     160
 10
5.73622
 20
0.299208
 30
0.0
 11
5.73622
 21
0.283475
 31
0.0
  0
LINE
  8
0
 62
     160
 10
5.73622
 20
0.283475
 30
0.0
 11
5.58594
 21
0.283475
 31
0.0
  0
LINE
  8
0
 62
     160
 10
5.58594
 20
0.283475
 30
0.0
 11
5.56689
 21
0.264432
 31
0.0
  0
LINE
  8
0
 62
     160
 10
5.56689
 20
0.264432
 30
0.0
 11
5.56689
 21
0.0347765
 31
0.0
  0
LINE
  8
0
 62
     160
 10
5.56689
 20
0.0347765
 30
0.0
 11
5.58594
 21
0.0157335
 31
0.0
  0
LINE
  8
0
 62
     160
 10
5.58594
 20
0.0157335
 30
0.0
 11
6.24083
 21
0.0157335
 31
0.0
  0
LINE
  8
0
 62
     160
 10
6.24083
 20
0.0157335
 30
0.0
 11
6.27165
 21
0.0465494
 31
0.0
  0
LINE
  8
0
 62
     160
 10
6.27165
 20
0.0465494
 30
0.0
 11
6.27165
 21
0.218588
 31
0.0
  0
LINE
  8
0
 62
     160
 10
6.27165
 20
0.218588
 30
0.0
 11
6.23921
 21
0.283475
 31
0.0
  0
LINE
  8
0
 62
     160
 10
6.23921
 20
0.283475
 30
0.0
 11
6.18506
 21
0.283475
 31
0.0
  0
LINE
  8
0
 62
     160
 10
6.18506
 20
0.283475
 30
0.0
 11
6.18506
 21
0.299208
 31
0.0
  0
LINE
  8
0
 62
     160
 10
6.18506
 20
0.299208
 30
0.0
 11
6.24408
 21
0.299208
 31
0.0
  0
LINE
  8
0
 62
     160
 10
6.24408
 20
0.299208
 30
0.0
 11
6.25114
 21
0.294868
 31
0.0
  0
LINE
  8
0
 62
     160
 10
6.25114
 20
0.294868
 30
0.0
 11
6.28657
 21
0.224013
 31
0.0
  0
LINE
  8
0
 62
     160
 10
6.28657
 20
0.224013
 30
0.0
 11
6.28738
 21
0.220486
 31
0.0
  0
LINE
  8
0
 62
     160
 10
6.28738
 20
0.220486
 30
0.0
 11
6.28738
 21
0.0432943
 31
0.0
  0
LINE
  8
0
 62
     160
 10
6.28738
 20
0.0432943
 30
0.0
 11
6.2851
 21
0.0377604
 31
0.0
  0
LINE
  8
0
 62
     160
 10
6.2851
 20
0.0377604
 30
0.0
 11
6.24968
 21
0.00227864
 31
0.0
  0
LINE
  8
0
 62
     160
 10
6.24968
 20
0.00227864
 30
0.0
 11
6.24408
 21
-0
 31
0.0
  0
LINE
  8
0
 62
     160
 10
4.29525
 20
1.26378
 30
0.0
 11
4.28971
 21
1.26611
 31
0.0
  0
LINE
  8
0
 62
     160
 10
4.28971
 20
1.26611
 30
0.0
 11
4.26779
 21
1.28803
 31
0.0
  0
LINE
  8
0
 62
     160
 10
4.26779
 20
1.28803
 30
0.0
 11
4.21181
 21
1.29921
 31
0.0
  0
LINE
  8
0
 62
     160
 10
4.21181
 20
1.29921
 30
0.0
 11
4.03543
 21
1.29921
 31
0.0
  0
LINE
  8
0
 62
     160
 10
4.03543
 20
1.29921
 30
0.0
 11
4.03543
 21
1.31494
 31
0.0
  0
LINE
  8
0
 62
     160
 10
4.03543
 20
1.31494
 30
0.0
 11
4.21262
 21
1.31494
 31
0.0
  0
LINE
  8
0
 62
     160
 10
4.21262
 20
1.31494
 30
0.0
 11
4.21414
 21
1.31478
 31
0.0
  0
LINE
  8
0
 62
     160
 10
4.21414
 20
1.31478
 30
0.0
 11
4.27322
 21
1.30301
 31
0.0
  0
LINE
  8
0
 62
     160
 10
4.27322
 20
1.30301
 30
0.0
 11
4.27724
 21
1.30084
 31
0.0
  0
LINE
  8
0
 62
     160
 10
4.27724
 20
1.30084
 30
0.0
 11
4.29482
 21
1.28326
 31
0.0
  0
LINE
  8
0
 62
     160
 10
4.29482
 20
1.28326
 30
0.0
 11
4.36014
 21
1.35943
 31
0.0
  0
LINE
  8
0
 62
     160
 10
4.36014
 20
1.35943
 30
0.0
 11
4.36638
 21
1.3622
 31
0.0
  0
LINE
  8
0
 62
     160
 10
4.36638
 20
1.3622
 30
0.0
 11
4.77974
 21
1.35042
 31
0.0
  0
LINE
  8
0
 62
     160
 10
4.77974
 20
1.35042
 30
0.0
 11
4.77929
 21
1.33464
 31
0.0
  0
LINE
  8
0
 62
     160
 10
4.77929
 20
1.33464
 30
0.0
 11
4.36968
 21
1.34635
 31
0.0
  0
LINE
  8
0
 62
     160
 10
4.36968
 20
1.34635
 30
0.0
 11
4.30126
 21
1.26655
 31
0.0
  0
LINE
  8
0
 62
     160
 10
4.30126
 20
1.26655
 30
0.0
 11
4.29557
 21
1.26378
 31
0.0
  0
LINE
  8
0
 62
     160
 10
4.29557
 20
1.26378
 30
0.0
 11
4.29525
 21
1.26378
 31
0.0
  0
LINE
  8
0
 62
     160
 10
6.18506
 20
1.45275
 30
0.0
 11
6.47379
 21
1.45275
 31
0.0
  0
LINE
  8
0
 62
     160
 10
6.47379
 20
1.45275
 30
0.0
 11
6.47379
 21
1.46853
 31
0.0
  0
LINE
  8
0
 62
     160
 10
6.47379
 20
1.46853
 30
0.0
 11
6.18506
 21
1.46853
 31
0.0
  0
LINE
  8
0
 62
     160
 10
6.18506
 20
1.46853
 30
0.0
 11
6.18506
 21
1.45275
 31
0.0
  0
LINE
  8
0
 62
     160
 10
4.03543
 20
1.45275
 30
0.0
 11
5.73622
 21
1.45275
 31
0.0
  0
LINE
  8
0
 62
     160
 10
5.73622
 20
1.45275
 30
0.0
 11
5.73622
 21
1.46853
 31
0.0
  0
LINE
  8
0
 62
     160
 10
5.73622
 20
1.46853
 30
0.0
 11
4.03543
 21
1.46853
 31
0.0
  0
LINE
  8
0
 62
     160
 10
4.03543
 20
1.46853
 30
0.0
 11
4.03543
 21
1.45275
 31
0.0
  0
LINE
  8
0
 62
     160
 10
0.0157335
 20
1.48753
 30
0.0
 11
0.0157335
 21
5.16601
 31
0.0
  0
LINE
  8
0
 62
     160
 10
0.0157335
 20
5.16601
 30
0.0
 11
0.0347765
 21
5.18506
 31
0.0
  0
LINE
  8
0
 62
     160
 10
0.0347765
 20
5.18506
 30
0.0
 11
6.47374
 21
5.18506
 31
0.0
  0
LINE
  8
0
 62
     160
 10
6.47374
 20
5.18506
 30
0.0
 11
6.47374
 21
5.20079
 31
0.0
  0
LINE
  8
0
 62
     160
 10
6.47374
 20
5.20079
 30
0.0
 11
0.0315213
 21
5.20079
 31
0.0
  0
LINE
  8
0
 62
     160
 10
0.0315213
 20
5.20079
 30
0.0
 11
0.0259332
 21
5.19846
 31
0.0
  0
LINE
  8
0
 62
     160
 10
0.0259332
 20
5.19846
 30
0.0
 11
0.0023329
 21
5.17486
 31
0.0
  0
LINE
  8
0
 62
     160
 10
0.0023329
 20
5.17486
 30
0.0
 11
0
 21
5.16928
 31
0.0
  0
LINE
  8
0
 62
     160
 10
0
 20
5.16928
 30
0.0
 11
0
 21
1.48426
 31
0.0
  0
LINE
  8
0
 62
     160
 10
0
 20
1.48426
 30
0.0
 11
0.0023329
 21
1.47868
 31
0.0
  0
LINE
  8
0
 62
     160
 10
0.0023329
 20
1.47868
 30
0.0
 11
0.0259332
 21
1.45508
 31
0.0
  0
LINE
  8
0
 62
     160
 10
0.0259332
 20
1.45508
 30
0.0
 11
0.0315213
 21
1.45275
 31
0.0
  0
LINE
  8
0
 62
     160
 10
0.0315213
 20
1.45275
 30
0.0
 11
3.58658
 21
1.45275
 31
0.0
  0
LINE
  8
0
 62
     160
 10
3.58658
 20
1.45275
 30
0.0
 11
3.58658
 21
1.46853
 31
0.0
  0
LINE
  8
0
 62
     160
 10
3.58658
 20
1.46853
 30
0.0
 11
0.0347765
 21
1.46853
 31
0.0
  0
LINE
  8
0
 62
     160
 10
0.0347765
 20
1.46853
 30
0.0
 11
0.0157335
 21
1.48753
 31
0.0
  0
LINE
  8
0
 62
     160
 10
4.77664
 20
1.09451
 30
0.0
 11
4.76258
 21
1.06646
 31
0.0
  0
LINE
  8
0
 62
     160
 10
4.76258
 20
1.06646
 30
0.0
 11
4.6499
 21
1.05512
 31
0.0
  0
LINE
  8
0
 62
     160
 10
4.6499
 20
1.05512
 30
0.0
 11
4.3341
 21
1.06679
 31
0.0
  0
LINE
  8
0
 62
     160
 10
4.3341
 20
1.06679
 30
0.0
 11
4.31267
 21
1.08827
 31
0.0
  0
LINE
  8
0
 62
     160
 10
4.31267
 20
1.08827
 30
0.0
 11
4.30149
 21
1.08827
 31
0.0
  0
LINE
  8
0
 62
     160
 10
4.30149
 20
1.08827
 30
0.0
 11
4.26856
 21
1.05528
 31
0.0
  0
LINE
  8
0
 62
     160
 10
4.26856
 20
1.05528
 30
0.0
 11
3.81099
 21
1.07872
 31
0.0
  0
LINE
  8
0
 62
     160
 10
3.81099
 20
1.07872
 30
0.0
 11
1.9599
 21
1.06695
 31
0.0
  0
LINE
  8
0
 62
     160
 10
1.9599
 20
1.06695
 30
0.0
 11
1.90321
 21
1.1237
 31
0.0
  0
LINE
  8
0
 62
     160
 10
1.90321
 20
1.1237
 30
0.0
 11
1.90115
 21
1.12516
 31
0.0
  0
LINE
  8
0
 62
     160
 10
1.90115
 20
1.12516
 30
0.0
 11
1.83029
 21
1.16059
 31
0.0
  0
LINE
  8
0
 62
     160
 10
1.83029
 20
1.16059
 30
0.0
 11
1.82118
 21
1.15913
 31
0.0
  0
LINE
  8
0
 62
     160
 10
1.82118
 20
1.15913
 30
0.0
 11
1.79992
 21
1.1378
 31
0.0
  0
LINE
  8
0
 62
     160
 10
1.79992
 20
1.1378
 30
0.0
 11
1.64958
 21
1.1378
 31
0.0
  0
LINE
  8
0
 62
     160
 10
1.64958
 20
1.1378
 30
0.0
 11
1.64307
 21
1.13428
 31
0.0
  0
LINE
  8
0
 62
     160
 10
1.64307
 20
1.13428
 30
0.0
 11
1.59814
 21
1.06695
 31
0.0
  0
LINE
  8
0
 62
     160
 10
1.59814
 20
1.06695
 30
0.0
 11
1.35536
 21
1.06684
 31
0.0
  0
LINE
  8
0
 62
     160
 10
1.35536
 20
1.06684
 30
0.0
 11
1.17822
 21
1.09049
 31
0.0
  0
LINE
  8
0
 62
     160
 10
1.17822
 20
1.09049
 30
0.0
 11
1.1728
 21
1.08925
 31
0.0
  0
LINE
  8
0
 62
     160
 10
1.1728
 20
1.08925
 30
0.0
 11
1.13932
 21
1.06695
 31
0.0
  0
LINE
  8
0
 62
     160
 10
1.13932
 20
1.06695
 30
0.0
 11
1.01367
 21
1.06695
 31
0.0
  0
LINE
  8
0
 62
     160
 10
1.01367
 20
1.06695
 30
0.0
 11
0.968099
 21
1.08973
 31
0.0
  0
LINE
  8
0
 62
     160
 10
0.968099
 20
1.08973
 30
0.0
 11
0.96365
 21
1.09049
 31
0.0
  0
LINE
  8
0
 62
     160
 10
0.96365
 20
1.09049
 30
0.0
 11
0.657497
 21
1.05512
 31
0.0
  0
LINE
  8
0
 62
     160
 10
0.657497
 20
1.05512
 30
0.0
 11
0.070204
 21
1.05512
 31
0.0
  0
LINE
  8
0
 62
     160
 10
0.070204
 20
1.05512
 30
0.0
 11
0.0273981
 21
1.09793
 31
0.0
  0
LINE
  8
0
 62
     160
 10
0.0273981
 20
1.09793
 30
0.0
 11
0.0159506
 21
1.30398
 31
0.0
  0
LINE
  8
0
 62
     160
 10
0.0159506
 20
1.30398
 30
0.0
 11
0.070204
 21
1.35829
 31
0.0
  0
LINE
  8
0
 62
     160
 10
0.070204
 20
1.35829
 30
0.0
 11
0.609483
 21
1.35829
 31
0.0
  0
LINE
  8
0
 62
     160
 10
0.609483
 20
1.35829
 30
0.0
 11
0.665419
 21
1.34706
 31
0.0
  0
LINE
  8
0
 62
     160
 10
0.665419
 20
1.34706
 30
0.0
 11
0.687338
 21
1.32514
 31
0.0
  0
LINE
  8
0
 62
     160
 10
0.687338
 20
1.32514
 30
0.0
 11
0.697265
 21
1.32416
 31
0.0
  0
LINE
  8
0
 62
     160
 10
0.697265
 20
1.32416
 30
0.0
 11
0.73074
 21
1.34646
 31
0.0
  0
LINE
  8
0
 62
     160
 10
0.73074
 20
1.34646
 30
0.0
 11
0.868924
 21
1.34646
 31
0.0
  0
LINE
  8
0
 62
     160
 10
0.868924
 20
1.34646
 30
0.0
 11
0.985894
 21
1.31136
 31
0.0
  0
LINE
  8
0
 62
     160
 10
0.985894
 20
1.31136
 30
0.0
 11
0.99311
 21
1.31277
 31
0.0
  0
LINE
  8
0
 62
     160
 10
0.99311
 20
1.31277
 30
0.0
 11
1.05002
 21
1.35829
 31
0.0
  0
LINE
  8
0
 62
     160
 10
1.05002
 20
1.35829
 30
0.0
 11
1.43278
 21
1.35829
 31
0.0
  0
LINE
  8
0
 62
     160
 10
1.43278
 20
1.35829
 30
0.0
 11
1.47771
 21
1.29091
 31
0.0
  0
LINE
  8
0
 62
     160
 10
1.47771
 20
1.29091
 30
0.0
 11
1.48394
 21
1.28738
 31
0.0
  0
LINE
  8
0
 62
     160
 10
1.48394
 20
1.28738
 30
0.0
 11
1.79975
 21
1.27572
 31
0.0
  0
LINE
  8
0
 62
     160
 10
1.79975
 20
1.27572
 30
0.0
 11
1.82118
 21
1.25429
 31
0.0
  0
LINE
  8
0
 62
     160
 10
1.82118
 20
1.25429
 30
0.0
 11
1.82926
 21
1.25239
 31
0.0
  0
LINE
  8
0
 62
     160
 10
1.82926
 20
1.25239
 30
0.0
 11
1.83458
 21
1.25873
 31
0.0
  0
LINE
  8
0
 62
     160
 10
1.83458
 20
1.25873
 30
0.0
 11
1.84603
 21
1.33881
 31
0.0
  0
LINE
  8
0
 62
     160
 10
1.84603
 20
1.33881
 30
0.0
 11
1.86524
 21
1.35802
 31
0.0
  0
LINE
  8
0
 62
     160
 10
1.86524
 20
1.35802
 30
0.0
 11
2.17822
 21
1.33485
 31
0.0
  0
LINE
  8
0
 62
     160
 10
2.17822
 20
1.33485
 30
0.0
 11
2.22364
 21
1.30078
 31
0.0
  0
LINE
  8
0
 62
     160
 10
2.22364
 20
1.30078
 30
0.0
 11
2.22835
 21
1.29921
 31
0.0
  0
LINE
  8
0
 62
     160
 10
2.22835
 20
1.29921
 30
0.0
 11
2.59451
 21
1.29921
 31
0.0
  0
LINE
  8
0
 62
     160
 10
2.59451
 20
1.29921
 30
0.0
 11
2.59924
 21
1.30078
 31
0.0
  0
LINE
  8
0
 62
     160
 10
2.59924
 20
1.30078
 30
0.0
 11
2.64438
 21
1.33464
 31
0.0
  0
LINE
  8
0
 62
     160
 10
2.64438
 20
1.33464
 30
0.0
 11
2.89893
 21
1.33464
 31
0.0
  0
LINE
  8
0
 62
     160
 10
2.89893
 20
1.33464
 30
0.0
 11
2.94413
 21
1.30078
 31
0.0
  0
LINE
  8
0
 62
     160
 10
2.94413
 20
1.30078
 30
0.0
 11
2.95356
 21
1.30078
 31
0.0
  0
LINE
  8
0
 62
     160
 10
2.95356
 20
1.30078
 30
0.0
 11
2.99869
 21
1.33464
 31
0.0
  0
LINE
  8
0
 62
     160
 10
2.99869
 20
1.33464
 30
0.0
 11
3.58658
 21
1.33464
 31
0.0
  0
LINE
  8
0
 62
     160
 10
3.58658
 20
1.33464
 30
0.0
 11
3.58658
 21
1.35042
 31
0.0
  0
LINE
  8
0
 62
     160
 10
3.58658
 20
1.35042
 30
0.0
 11
2.99604
 21
1.35042
 31
0.0
  0
LINE
  8
0
 62
     160
 10
2.99604
 20
1.35042
 30
0.0
 11
2.99132
 21
1.34885
 31
0.0
  0
LINE
  8
0
 62
     160
 10
2.99132
 20
1.34885
 30
0.0
 11
2.94883
 21
1.31695
 31
0.0
  0
LINE
  8
0
 62
     160
 10
2.94883
 20
1.31695
 30
0.0
 11
2.90631
 21
1.34885
 31
0.0
  0
LINE
  8
0
 62
     160
 10
2.90631
 20
1.34885
 30
0.0
 11
2.90158
 21
1.35042
 31
0.0
  0
LINE
  8
0
 62
     160
 10
2.90158
 20
1.35042
 30
0.0
 11
2.64171
 21
1.35042
 31
0.0
  0
LINE
  8
0
 62
     160
 10
2.64171
 20
1.35042
 30
0.0
 11
2.63699
 21
1.34885
 31
0.0
  0
LINE
  8
0
 62
     160
 10
2.63699
 20
1.34885
 30
0.0
 11
2.59185
 21
1.31494
 31
0.0
  0
LINE
  8
0
 62
     160
 10
2.59185
 20
1.31494
 30
0.0
 11
2.23096
 21
1.31494
 31
0.0
  0
LINE
  8
0
 62
     160
 10
2.23096
 20
1.31494
 30
0.0
 11
2.18582
 21
1.34885
 31
0.0
  0
LINE
  8
0
 62
     160
 10
2.18582
 20
1.34885
 30
0.0
 11
2.18169
 21
1.35037
 31
0.0
  0
LINE
  8
0
 62
     160
 10
2.18169
 20
1.35037
 30
0.0
 11
1.86279
 21
1.37397
 31
0.0
  0
LINE
  8
0
 62
     160
 10
1.86279
 20
1.37397
 30
0.0
 11
1.85667
 21
1.37169
 31
0.0
  0
LINE
  8
0
 62
     160
 10
1.85667
 20
1.37169
 30
0.0
 11
1.83301
 21
1.34809
 31
0.0
  0
LINE
  8
0
 62
     160
 10
1.83301
 20
1.34809
 30
0.0
 11
1.83078
 21
1.34364
 31
0.0
  0
LINE
  8
0
 62
     160
 10
1.83078
 20
1.34364
 30
0.0
 11
1.82118
 21
1.27653
 31
0.0
  0
LINE
  8
0
 62
     160
 10
1.82118
 20
1.27653
 30
0.0
 11
1.80871
 21
1.28906
 31
0.0
  0
LINE
  8
0
 62
     160
 10
1.80871
 20
1.28906
 30
0.0
 11
1.80344
 21
1.29134
 31
0.0
  0
LINE
  8
0
 62
     160
 10
1.80344
 20
1.29134
 30
0.0
 11
1.48856
 21
1.30301
 31
0.0
  0
LINE
  8
0
 62
     160
 10
1.48856
 20
1.30301
 30
0.0
 11
1.44358
 21
1.3705
 31
0.0
  0
LINE
  8
0
 62
     160
 10
1.44358
 20
1.3705
 30
0.0
 11
1.43701
 21
1.37402
 31
0.0
  0
LINE
  8
0
 62
     160
 10
1.43701
 20
1.37402
 30
0.0
 11
1.04725
 21
1.37402
 31
0.0
  0
LINE
  8
0
 62
     160
 10
1.04725
 20
1.37402
 30
0.0
 11
1.04232
 21
1.37229
 31
0.0
  0
LINE
  8
0
 62
     160
 10
1.04232
 20
1.37229
 30
0.0
 11
0.98649
 21
1.32764
 31
0.0
  0
LINE
  8
0
 62
     160
 10
0.98649
 20
1.32764
 30
0.0
 11
0.872342
 21
1.36187
 31
0.0
  0
LINE
  8
0
 62
     160
 10
0.872342
 20
1.36187
 30
0.0
 11
0.870063
 21
1.3622
 31
0.0
  0
LINE
  8
0
 62
     160
 10
0.870063
 20
1.3622
 30
0.0
 11
0.728353
 21
1.3622
 31
0.0
  0
LINE
  8
0
 62
     160
 10
0.728353
 20
1.3622
 30
0.0
 11
0.723958
 21
1.36089
 31
0.0
  0
LINE
  8
0
 62
     160
 10
0.723958
 20
1.36089
 30
0.0
 11
0.693901
 21
1.34082
 31
0.0
  0
LINE
  8
0
 62
     160
 10
0.693901
 20
1.34082
 30
0.0
 11
0.674858
 21
1.35992
 31
0.0
  0
LINE
  8
0
 62
     160
 10
0.674858
 20
1.35992
 30
0.0
 11
0.670844
 21
1.36203
 31
0.0
  0
LINE
  8
0
 62
     160
 10
0.670844
 20
1.36203
 30
0.0
 11
0.611763
 21
1.37386
 31
0.0
  0
LINE
  8
0
 62
     160
 10
0.611763
 20
1.37386
 30
0.0
 11
0.610243
 21
1.37402
 31
0.0
  0
LINE
  8
0
 62
     160
 10
0.610243
 20
1.37402
 30
0.0
 11
0.0669488
 21
1.37402
 31
0.0
  0
LINE
  8
0
 62
     160
 10
0.0669488
 20
1.37402
 30
0.0
 11
0.0613607
 21
1.37169
 31
0.0
  0
LINE
  8
0
 62
     160
 10
0.0613607
 20
1.37169
 30
0.0
 11
0.0023329
 21
1.31266
 31
0.0
  0
LINE
  8
0
 62
     160
 10
0.0023329
 20
1.31266
 30
0.0
 11
0
 21
1.30664
 31
0.0
  0
LINE
  8
0
 62
     160
 10
0
 20
1.30664
 30
0.0
 11
0.0118273
 21
1.09407
 31
0.0
  0
LINE
  8
0
 62
     160
 10
0.0118273
 20
1.09407
 30
0.0
 11
0.0141058
 21
1.08892
 31
0.0
  0
LINE
  8
0
 62
     160
 10
0.0141058
 20
1.08892
 30
0.0
 11
0.0613607
 21
1.04167
 31
0.0
  0
LINE
  8
0
 62
     160
 10
0.0613607
 20
1.04167
 30
0.0
 11
0.0669488
 21
1.03939
 31
0.0
  0
LINE
  8
0
 62
     160
 10
0.0669488
 20
1.03939
 30
0.0
 11
0.658365
 21
1.03944
 31
0.0
  0
LINE
  8
0
 62
     160
 10
0.658365
 20
1.03944
 30
0.0
 11
0.963163
 21
1.0746
 31
0.0
  0
LINE
  8
0
 62
     160
 10
0.963163
 20
1.0746
 30
0.0
 11
1.0083
 21
1.05203
 31
0.0
  0
LINE
  8
0
 62
     160
 10
1.0083
 20
1.05203
 30
0.0
 11
1.01183
 21
1.05116
 31
0.0
  0
LINE
  8
0
 62
     160
 10
1.01183
 20
1.05116
 30
0.0
 11
1.14171
 21
1.05116
 31
0.0
  0
LINE
  8
0
 62
     160
 10
1.14171
 20
1.05116
 30
0.0
 11
1.1461
 21
1.05252
 31
0.0
  0
LINE
  8
0
 62
     160
 10
1.1461
 20
1.05252
 30
0.0
 11
1.17909
 21
1.07449
 31
0.0
  0
LINE
  8
0
 62
     160
 10
1.17909
 20
1.07449
 30
0.0
 11
1.35433
 21
1.05116
 31
0.0
  0
LINE
  8
0
 62
     160
 10
1.35433
 20
1.05116
 30
0.0
 11
1.60238
 21
1.05116
 31
0.0
  0
LINE
  8
0
 62
     160
 10
1.60238
 20
1.05116
 30
0.0
 11
1.60889
 21
1.05469
 31
0.0
  0
LINE
  8
0
 62
     160
 10
1.60889
 20
1.05469
 30
0.0
 11
1.65381
 21
1.12207
 31
0.0
  0
LINE
  8
0
 62
     160
 10
1.65381
 20
1.12207
 30
0.0
 11
1.80317
 21
1.12207
 31
0.0
  0
LINE
  8
0
 62
     160
 10
1.80317
 20
1.12207
 30
0.0
 11
1.80871
 21
1.12435
 31
0.0
  0
LINE
  8
0
 62
     160
 10
1.80871
 20
1.12435
 30
0.0
 11
1.82835
 21
1.14399
 31
0.0
  0
LINE
  8
0
 62
     160
 10
1.82835
 20
1.14399
 30
0.0
 11
1.89296
 21
1.11165
 31
0.0
  0
LINE
  8
0
 62
     160
 10
1.89296
 20
1.11165
 30
0.0
 11
1.95111
 21
1.05349
 31
0.0
  0
LINE
  8
0
 62
     160
 10
1.95111
 20
1.05349
 30
0.0
 11
1.95676
 21
1.05116
 31
0.0
  0
LINE
  8
0
 62
     160
 10
1.95676
 20
1.05116
 30
0.0
 11
3.8106
 21
1.06299
 31
0.0
  0
LINE
  8
0
 62
     160
 10
3.8106
 20
1.06299
 30
0.0
 11
4.27126
 21
1.03939
 31
0.0
  0
LINE
  8
0
 62
     160
 10
4.27126
 20
1.03939
 30
0.0
 11
4.27165
 21
1.03939
 31
0.0
  0
LINE
  8
0
 62
     160
 10
4.27165
 20
1.03939
 30
0.0
 11
4.27724
 21
1.04167
 31
0.0
  0
LINE
  8
0
 62
     160
 10
4.27724
 20
1.04167
 30
0.0
 11
4.30707
 21
1.07156
 31
0.0
  0
LINE
  8
0
 62
     160
 10
4.30707
 20
1.07156
 30
0.0
 11
4.32514
 21
1.05349
 31
0.0
  0
LINE
  8
0
 62
     160
 10
4.32514
 20
1.05349
 30
0.0
 11
4.3304
 21
1.05116
 31
0.0
  0
LINE
  8
0
 62
     160
 10
4.3304
 20
1.05116
 30
0.0
 11
4.65039
 21
1.03944
 31
0.0
  0
LINE
  8
0
 62
     160
 10
4.65039
 20
1.03944
 30
0.0
 11
4.7685
 21
1.05122
 31
0.0
  0
LINE
  8
0
 62
     160
 10
4.7685
 20
1.05122
 30
0.0
 11
4.77474
 21
1.05556
 31
0.0
  0
LINE
  8
0
 62
     160
 10
4.77474
 20
1.05556
 30
0.0
 11
4.79422
 21
1.09451
 31
0.0
  0
LINE
  8
0
 62
     160
 10
4.79422
 20
1.09451
 30
0.0
 11
4.77664
 21
1.09451
 31
0.0
  0
ENDSEC
  0
EOF
