solid OpenSCAD_Model
  facet normal -1 0 0
    outer loop
      vertex 0 5.1 1.4
      vertex 0 5.7 0
      vertex 0 0.6 1.4
    endloop
  endfacet
  facet normal -1 0 0
    outer loop
      vertex 0 0 0
      vertex 0 0 2.6
      vertex 0 0.6 1.4
    endloop
  endfacet
  facet normal -1 0 0
    outer loop
      vertex 0 0 0
      vertex 0 0.6 1.4
      vertex 0 5.7 0
    endloop
  endfacet
  facet normal -1 0 0
    outer loop
      vertex 0 5.7 0
      vertex 0 5.1 1.4
      vertex 0 5.1 2.6
    endloop
  endfacet
  facet normal -1 0 0
    outer loop
      vertex 0 5.7 0
      vertex 0 5.1 2.6
      vertex 0 5.7 2.6
    endloop
  endfacet
  facet normal -1 0 0
    outer loop
      vertex 0 0.6 1.4
      vertex 0 0 2.6
      vertex 0 0.6 2.6
    endloop
  endfacet
  facet normal 0 -1 0
    outer loop
      vertex 0 0 2.6
      vertex 0 0 0
      vertex 128.7 0 0
    endloop
  endfacet
  facet normal 0 -1 0
    outer loop
      vertex 128.7 0 2.6
      vertex 0 0 2.6
      vertex 128.7 0 0
    endloop
  endfacet
  facet normal 0 0 -1
    outer loop
      vertex 0 0 0
      vertex 0 5.7 0
      vertex 128.7 0 0
    endloop
  endfacet
  facet normal 0 0 -1
    outer loop
      vertex 128.7 0 0
      vertex 0 5.7 0
      vertex 128.7 5.7 0
    endloop
  endfacet
  facet normal 0 1 0
    outer loop
      vertex 0 5.7 0
      vertex 0 5.7 2.6
      vertex 128.7 5.7 0
    endloop
  endfacet
  facet normal 0 1 0
    outer loop
      vertex 128.7 5.7 0
      vertex 0 5.7 2.6
      vertex 128.7 5.7 2.6
    endloop
  endfacet
  facet normal 0 0 1
    outer loop
      vertex 0 5.7 2.6
      vertex 0 5.1 2.6
      vertex 128.7 5.1 2.6
    endloop
  endfacet
  facet normal 0 0 1
    outer loop
      vertex 128.7 5.7 2.6
      vertex 0 5.7 2.6
      vertex 128.7 5.1 2.6
    endloop
  endfacet
  facet normal 0 -1 0
    outer loop
      vertex 0 5.1 2.6
      vertex 0 5.1 1.4
      vertex 128.7 5.1 1.4
    endloop
  endfacet
  facet normal 0 -1 0
    outer loop
      vertex 128.7 5.1 2.6
      vertex 0 5.1 2.6
      vertex 128.7 5.1 1.4
    endloop
  endfacet
  facet normal 0 0 1
    outer loop
      vertex 0 5.1 1.4
      vertex 0 0.6 1.4
      vertex 128.7 0.6 1.4
    endloop
  endfacet
  facet normal 0 0 1
    outer loop
      vertex 128.7 5.1 1.4
      vertex 0 5.1 1.4
      vertex 128.7 0.6 1.4
    endloop
  endfacet
  facet normal 0 1 0
    outer loop
      vertex 0 0.6 1.4
      vertex 0 0.6 2.6
      vertex 128.7 0.6 1.4
    endloop
  endfacet
  facet normal 0 1 0
    outer loop
      vertex 128.7 0.6 1.4
      vertex 0 0.6 2.6
      vertex 128.7 0.6 2.6
    endloop
  endfacet
  facet normal 0 0 1
    outer loop
      vertex 0 0.6 2.6
      vertex 0 0 2.6
      vertex 128.7 0 2.6
    endloop
  endfacet
  facet normal 0 0 1
    outer loop
      vertex 128.7 0.6 2.6
      vertex 0 0.6 2.6
      vertex 128.7 0 2.6
    endloop
  endfacet
  facet normal 1 0 0
    outer loop
      vertex 128.7 0.6 1.4
      vertex 128.7 0 0
      vertex 128.7 5.7 0
    endloop
  endfacet
  facet normal 1 0 0
    outer loop
      vertex 128.7 0.6 1.4
      vertex 128.7 0.6 2.6
      vertex 128.7 0 2.6
    endloop
  endfacet
  facet normal 1 0 0
    outer loop
      vertex 128.7 5.7 2.6
      vertex 128.7 5.1 2.6
      vertex 128.7 5.7 0
    endloop
  endfacet
  facet normal 1 0 0
    outer loop
      vertex 128.7 5.1 2.6
      vertex 128.7 5.1 1.4
      vertex 128.7 5.7 0
    endloop
  endfacet
  facet normal 1 0 0
    outer loop
      vertex 128.7 0 2.6
      vertex 128.7 0 0
      vertex 128.7 0.6 1.4
    endloop
  endfacet
  facet normal 1 0 0
    outer loop
      vertex 128.7 5.1 1.4
      vertex 128.7 0.6 1.4
      vertex 128.7 5.7 0
    endloop
  endfacet
endsolid OpenSCAD_Model
