  0
SECTION
  2
HEADER
  9
$ACADVER
  1
AC1009
  9
$EXTMIN
 10
0.0
 20
0.0
 30
0.0
  9
$EXTMAX
 10
1000.0
 20
1000.0
 30
0.0
  9
$FILLMODE
 70
 0
  9
$SPLFRAME
 70
 1
  0
ENDSEC
  0
SECTION
  2
TABLES
  0
TABLE
  2
LAYER
 70
1
  0
LAYER
  2
0
 70
     0
 62
     7
  6
CONTINUOUS
  0
ENDTAB
  0
ENDSEC
  0
SECTION
  2
ENTITIES
  0
LINE
  8
0
 62
     4
 10
5.93506
 20
0.106282
 30
0.0
 11
5.93506
 21
0.25
 31
0.0
  0
LINE
  8
0
 62
     4
 10
5.93506
 20
0.25
 30
0.0
 11
5.82992
 21
0.25
 31
0.0
  0
LINE
  8
0
 62
     4
 10
5.82992
 20
0.25
 30
0.0
 11
5.80908
 21
0.235622
 31
0.0
  0
LINE
  8
0
 62
     4
 10
5.80908
 20
0.235622
 30
0.0
 11
5.78347
 21
0.230306
 31
0.0
  0
LINE
  8
0
 62
     4
 10
5.78347
 20
0.230306
 30
0.0
 11
5.75814
 21
0.23546
 31
0.0
  0
LINE
  8
0
 62
     4
 10
5.75814
 20
0.23546
 30
0.0
 11
5.73747
 21
0.249349
 31
0.0
  0
LINE
  8
0
 62
     4
 10
5.73747
 20
0.249349
 30
0.0
 11
5.72358
 21
0.270019
 31
0.0
  0
LINE
  8
0
 62
     4
 10
5.72358
 20
0.270019
 30
0.0
 11
5.71847
 21
0.295247
 31
0.0
  0
LINE
  8
0
 62
     4
 10
5.71847
 20
0.295247
 30
0.0
 11
5.72358
 21
0.320583
 31
0.0
  0
LINE
  8
0
 62
     4
 10
5.72358
 20
0.320583
 30
0.0
 11
5.73747
 21
0.341254
 31
0.0
  0
LINE
  8
0
 62
     4
 10
5.73747
 20
0.341254
 30
0.0
 11
5.75814
 21
0.355143
 31
0.0
  0
LINE
  8
0
 62
     4
 10
5.75814
 20
0.355143
 30
0.0
 11
5.78347
 21
0.360243
 31
0.0
  0
LINE
  8
0
 62
     4
 10
5.78347
 20
0.360243
 30
0.0
 11
5.80908
 21
0.354981
 31
0.0
  0
LINE
  8
0
 62
     4
 10
5.80908
 20
0.354981
 30
0.0
 11
5.82992
 21
0.340549
 31
0.0
  0
LINE
  8
0
 62
     4
 10
5.82992
 20
0.340549
 30
0.0
 11
5.93506
 21
0.340549
 31
0.0
  0
LINE
  8
0
 62
     4
 10
5.93506
 20
0.340549
 30
0.0
 11
5.93506
 21
0.484267
 31
0.0
  0
LINE
  8
0
 62
     4
 10
5.93506
 20
0.484267
 30
0.0
 11
5.94097
 21
0.484267
 31
0.0
  0
LINE
  8
0
 62
     4
 10
5.94097
 20
0.484267
 30
0.0
 11
5.94097
 21
0.519694
 31
0.0
  0
LINE
  8
0
 62
     4
 10
5.94097
 20
0.519694
 30
0.0
 11
5.91732
 21
0.543294
 31
0.0
  0
LINE
  8
0
 62
     4
 10
5.91732
 20
0.543294
 30
0.0
 11
5.59842
 21
0.543294
 31
0.0
  0
LINE
  8
0
 62
     4
 10
5.59842
 20
0.543294
 30
0.0
 11
5.57482
 21
0.519694
 31
0.0
  0
LINE
  8
0
 62
     4
 10
5.57482
 20
0.519694
 30
0.0
 11
5.57482
 21
0.200792
 31
0.0
  0
LINE
  8
0
 62
     4
 10
5.57482
 20
0.200792
 30
0.0
 11
5.62207
 21
0.153537
 31
0.0
  0
LINE
  8
0
 62
     4
 10
5.62207
 20
0.153537
 30
0.0
 11
5.62207
 21
0.0236003
 31
0.0
  0
LINE
  8
0
 62
     4
 10
5.62207
 20
0.0236003
 30
0.0
 11
5.64567
 21
-0
 31
0.0
  0
LINE
  8
0
 62
     4
 10
5.64567
 20
-0
 30
0.0
 11
5.91732
 21
-0
 31
0.0
  0
LINE
  8
0
 62
     4
 10
5.91732
 20
-0
 30
0.0
 11
5.94097
 21
0.0236003
 31
0.0
  0
LINE
  8
0
 62
     4
 10
5.94097
 20
0.0236003
 30
0.0
 11
5.94097
 21
0.106282
 31
0.0
  0
LINE
  8
0
 62
     4
 10
5.94097
 20
0.106282
 30
0.0
 11
5.93506
 21
0.106282
 31
0.0
  0
LINE
  8
0
 62
     4
 10
0.26774
 20
0.206706
 30
0.0
 11
0.240886
 21
0.212131
 31
0.0
  0
LINE
  8
0
 62
     4
 10
0.240886
 20
0.212131
 30
0.0
 11
0.219021
 21
0.226887
 31
0.0
  0
LINE
  8
0
 62
     4
 10
0.219021
 20
0.226887
 30
0.0
 11
0.20421
 21
0.248807
 31
0.0
  0
LINE
  8
0
 62
     4
 10
0.20421
 20
0.248807
 30
0.0
 11
0.198839
 21
0.275608
 31
0.0
  0
LINE
  8
0
 62
     4
 10
0.198839
 20
0.275608
 30
0.0
 11
0.20421
 21
0.302463
 31
0.0
  0
LINE
  8
0
 62
     4
 10
0.20421
 20
0.302463
 30
0.0
 11
0.219021
 21
0.324328
 31
0.0
  0
LINE
  8
0
 62
     4
 10
0.219021
 20
0.324328
 30
0.0
 11
0.240886
 21
0.339085
 31
0.0
  0
LINE
  8
0
 62
     4
 10
0.240886
 20
0.339085
 30
0.0
 11
0.26774
 21
0.344456
 31
0.0
  0
LINE
  8
0
 62
     4
 10
0.26774
 20
0.344456
 30
0.0
 11
0.294542
 21
0.339085
 31
0.0
  0
LINE
  8
0
 62
     4
 10
0.294542
 20
0.339085
 30
0.0
 11
0.316461
 21
0.324328
 31
0.0
  0
LINE
  8
0
 62
     4
 10
0.316461
 20
0.324328
 30
0.0
 11
0.331218
 21
0.302463
 31
0.0
  0
LINE
  8
0
 62
     4
 10
0.331218
 20
0.302463
 30
0.0
 11
0.336643
 21
0.275608
 31
0.0
  0
LINE
  8
0
 62
     4
 10
0.336643
 20
0.275608
 30
0.0
 11
0.331218
 21
0.248807
 31
0.0
  0
LINE
  8
0
 62
     4
 10
0.331218
 20
0.248807
 30
0.0
 11
0.316461
 21
0.226887
 31
0.0
  0
LINE
  8
0
 62
     4
 10
0.316461
 20
0.226887
 30
0.0
 11
0.294542
 21
0.212131
 31
0.0
  0
LINE
  8
0
 62
     4
 10
0.294542
 20
0.212131
 30
0.0
 11
0.26774
 21
0.206706
 31
0.0
  0
LINE
  8
0
 62
     4
 10
0.330729
 20
0.484213
 30
0.0
 11
0.177192
 21
0.484213
 31
0.0
  0
LINE
  8
0
 62
     4
 10
0.177192
 20
0.484213
 30
0.0
 11
0
 21
0.247993
 31
0.0
  0
LINE
  8
0
 62
     4
 10
0
 20
0.247993
 30
0.0
 11
0
 21
0.129883
 31
0.0
  0
LINE
  8
0
 62
     4
 10
0
 20
0.129883
 30
0.0
 11
0.0236003
 21
0.106282
 31
0.0
  0
LINE
  8
0
 62
     4
 10
0.0236003
 20
0.106282
 30
0.0
 11
0.484267
 21
0.106282
 31
0.0
  0
LINE
  8
0
 62
     4
 10
0.484267
 20
0.106282
 30
0.0
 11
0.507867
 21
0.129883
 31
0.0
  0
LINE
  8
0
 62
     4
 10
0.507867
 20
0.129883
 30
0.0
 11
0.507867
 21
0.247993
 31
0.0
  0
LINE
  8
0
 62
     4
 10
0.507867
 20
0.247993
 30
0.0
 11
0.330729
 21
0.484213
 31
0.0
  0
ENDSEC
  0
EOF
