  0
SECTION
  2
HEADER
  9
$ACADVER
  1
AC1009
  9
$EXTMIN
 10
0.0
 20
0.0
 30
0.0
  9
$EXTMAX
 10
1000.0
 20
1000.0
 30
0.0
  9
$FILLMODE
 70
 0
  9
$SPLFRAME
 70
 1
  0
ENDSEC
  0
SECTION
  2
TABLES
  0
TABLE
  2
LAYER
 70
1
  0
LAYER
  2
0
 70
     0
 62
     7
  6
CONTINUOUS
  0
ENDTAB
  0
ENDSEC
  0
SECTION
  2
ENTITIES
  0
LINE
  8
0
 62
     160
 10
0.0315213
 20
0.106282
 30
0.0
 11
0.0259332
 21
0.108615
 31
0.0
  0
LINE
  8
0
 62
     160
 10
0.0259332
 20
0.108615
 30
0.0
 11
0.0023329
 21
0.132216
 31
0.0
  0
LINE
  8
0
 62
     160
 10
0.0023329
 20
0.132216
 30
0.0
 11
0
 21
0.137804
 31
0.0
  0
LINE
  8
0
 62
     160
 10
0
 20
0.137804
 30
0.0
 11
0
 21
0.255914
 31
0.0
  0
LINE
  8
0
 62
     160
 10
0
 20
0.255914
 30
0.0
 11
0.00157335
 21
0.260633
 31
0.0
  0
LINE
  8
0
 62
     160
 10
0.00157335
 20
0.260633
 30
0.0
 11
0.178765
 21
0.496853
 31
0.0
  0
LINE
  8
0
 62
     160
 10
0.178765
 20
0.496853
 30
0.0
 11
0.185058
 21
0.5
 31
0.0
  0
LINE
  8
0
 62
     160
 10
0.185058
 20
0.5
 30
0.0
 11
0.338596
 21
0.5
 31
0.0
  0
LINE
  8
0
 62
     160
 10
0.338596
 20
0.5
 30
0.0
 11
0.344889
 21
0.496853
 31
0.0
  0
LINE
  8
0
 62
     160
 10
0.344889
 20
0.496853
 30
0.0
 11
0.460015
 21
0.343317
 31
0.0
  0
LINE
  8
0
 62
     160
 10
0.460015
 20
0.343317
 30
0.0
 11
0.447428
 21
0.333822
 31
0.0
  0
LINE
  8
0
 62
     160
 10
0.447428
 20
0.333822
 30
0.0
 11
0.334636
 21
0.484267
 31
0.0
  0
LINE
  8
0
 62
     160
 10
0.334636
 20
0.484267
 30
0.0
 11
0.188965
 21
0.484267
 31
0.0
  0
LINE
  8
0
 62
     160
 10
0.188965
 20
0.484267
 30
0.0
 11
0.0157335
 21
0.253256
 31
0.0
  0
LINE
  8
0
 62
     160
 10
0.0157335
 20
0.253256
 30
0.0
 11
0.0157335
 21
0.141058
 31
0.0
  0
LINE
  8
0
 62
     160
 10
0.0157335
 20
0.141058
 30
0.0
 11
0.0346679
 21
0.122125
 31
0.0
  0
LINE
  8
0
 62
     160
 10
0.0346679
 20
0.122125
 30
0.0
 11
0.499294
 21
0.122016
 31
0.0
  0
LINE
  8
0
 62
     160
 10
0.499294
 20
0.122016
 30
0.0
 11
0.499675
 21
0.106282
 31
0.0
  0
LINE
  8
0
 62
     160
 10
0.499675
 20
0.106282
 30
0.0
 11
0.031684
 21
0.106282
 31
0.0
  0
LINE
  8
0
 62
     160
 10
0.031684
 20
0.106282
 30
0.0
 11
0.0315213
 21
0.106282
 31
0.0
  0
LINE
  8
0
 62
     160
 10
5.92518
 20
-0
 30
0.0
 11
5.65354
 21
-0
 31
0.0
  0
LINE
  8
0
 62
     160
 10
5.65354
 20
-0
 30
0.0
 11
5.64794
 21
0.0023329
 31
0.0
  0
LINE
  8
0
 62
     160
 10
5.64794
 20
0.0023329
 30
0.0
 11
5.62435
 21
0.0259332
 31
0.0
  0
LINE
  8
0
 62
     160
 10
5.62435
 20
0.0259332
 30
0.0
 11
5.62207
 21
0.0314669
 31
0.0
  0
LINE
  8
0
 62
     160
 10
5.62207
 20
0.0314669
 30
0.0
 11
5.62207
 21
0.125977
 31
0.0
  0
LINE
  8
0
 62
     160
 10
5.62207
 20
0.125977
 30
0.0
 11
5.63781
 21
0.125977
 31
0.0
  0
LINE
  8
0
 62
     160
 10
5.63781
 20
0.125977
 30
0.0
 11
5.63781
 21
0.0347765
 31
0.0
  0
LINE
  8
0
 62
     160
 10
5.63781
 20
0.0347765
 30
0.0
 11
5.65679
 21
0.0157335
 31
0.0
  0
LINE
  8
0
 62
     160
 10
5.65679
 20
0.0157335
 30
0.0
 11
5.92193
 21
0.0157335
 31
0.0
  0
LINE
  8
0
 62
     160
 10
5.92193
 20
0.0157335
 30
0.0
 11
5.94092
 21
0.0347765
 31
0.0
  0
LINE
  8
0
 62
     160
 10
5.94092
 20
0.0347765
 30
0.0
 11
5.94092
 21
0.114149
 31
0.0
  0
LINE
  8
0
 62
     160
 10
5.94092
 20
0.114149
 30
0.0
 11
5.95671
 21
0.114149
 31
0.0
  0
LINE
  8
0
 62
     160
 10
5.95671
 20
0.114149
 30
0.0
 11
5.95671
 21
0.0314669
 31
0.0
  0
LINE
  8
0
 62
     160
 10
5.95671
 20
0.0314669
 30
0.0
 11
5.95437
 21
0.0259332
 31
0.0
  0
LINE
  8
0
 62
     160
 10
5.95437
 20
0.0259332
 30
0.0
 11
5.93078
 21
0.0023329
 31
0.0
  0
LINE
  8
0
 62
     160
 10
5.93078
 20
0.0023329
 30
0.0
 11
5.92518
 21
-0
 31
0.0
  0
LINE
  8
0
 62
     160
 10
5.59056
 20
0.338596
 30
0.0
 11
5.57482
 21
0.338596
 31
0.0
  0
LINE
  8
0
 62
     160
 10
5.57482
 20
0.338596
 30
0.0
 11
5.57482
 21
0.527561
 31
0.0
  0
LINE
  8
0
 62
     160
 10
5.57482
 20
0.527561
 30
0.0
 11
5.5771
 21
0.533149
 31
0.0
  0
LINE
  8
0
 62
     160
 10
5.5771
 20
0.533149
 30
0.0
 11
5.60075
 21
0.556749
 31
0.0
  0
LINE
  8
0
 62
     160
 10
5.60075
 20
0.556749
 30
0.0
 11
5.60628
 21
0.559028
 31
0.0
  0
LINE
  8
0
 62
     160
 10
5.60628
 20
0.559028
 30
0.0
 11
5.92518
 21
0.559028
 31
0.0
  0
LINE
  8
0
 62
     160
 10
5.92518
 20
0.559028
 30
0.0
 11
5.93078
 21
0.556749
 31
0.0
  0
LINE
  8
0
 62
     160
 10
5.93078
 20
0.556749
 30
0.0
 11
5.95437
 21
0.533149
 31
0.0
  0
LINE
  8
0
 62
     160
 10
5.95437
 20
0.533149
 30
0.0
 11
5.95671
 21
0.527561
 31
0.0
  0
LINE
  8
0
 62
     160
 10
5.95671
 20
0.527561
 30
0.0
 11
5.95671
 21
0.468479
 31
0.0
  0
LINE
  8
0
 62
     160
 10
5.95671
 20
0.468479
 30
0.0
 11
5.94092
 21
0.468479
 31
0.0
  0
LINE
  8
0
 62
     160
 10
5.94092
 20
0.468479
 30
0.0
 11
5.94092
 21
0.524306
 31
0.0
  0
LINE
  8
0
 62
     160
 10
5.94092
 20
0.524306
 30
0.0
 11
5.92193
 21
0.543294
 31
0.0
  0
LINE
  8
0
 62
     160
 10
5.92193
 20
0.543294
 30
0.0
 11
5.60954
 21
0.543294
 31
0.0
  0
LINE
  8
0
 62
     160
 10
5.60954
 20
0.543294
 30
0.0
 11
5.59056
 21
0.524306
 31
0.0
  0
LINE
  8
0
 62
     160
 10
5.59056
 20
0.524306
 30
0.0
 11
5.59056
 21
0.338596
 31
0.0
  0
ENDSEC
  0
EOF
