  0
SECTION
  2
HEADER
  9
$ACADVER
  1
AC1009
  9
$EXTMIN
 10
0.0
 20
0.0
 30
0.0
  9
$EXTMAX
 10
1000.0
 20
1000.0
 30
0.0
  9
$FILLMODE
 70
 0
  9
$SPLFRAME
 70
 1
  0
ENDSEC
  0
SECTION
  2
TABLES
  0
TABLE
  2
LAYER
 70
1
  0
LAYER
  2
0
 70
     0
 62
     7
  6
CONTINUOUS
  0
ENDTAB
  0
ENDSEC
  0
SECTION
  2
ENTITIES
  0
LINE
  8
0
 62
     4
 10
0.820856
 20
0.498047
 30
0.0
 11
0.415364
 21
0.498047
 31
0.0
  0
LINE
  8
0
 62
     4
 10
0.415364
 20
0.498047
 30
0.0
 11
0.415364
 21
0.903538
 31
0.0
  0
LINE
  8
0
 62
     4
 10
0.415364
 20
0.903538
 30
0.0
 11
0.820856
 21
0.903538
 31
0.0
  0
LINE
  8
0
 62
     4
 10
0.820856
 20
0.903538
 30
0.0
 11
0.820856
 21
0.498047
 31
0.0
  0
LINE
  8
0
 62
     4
 10
1.31103
 20
1.28738
 30
0.0
 11
1.28738
 21
1.31103
 31
0.0
  0
LINE
  8
0
 62
     4
 10
1.28738
 20
1.31103
 30
0.0
 11
0.0236003
 21
1.31103
 31
0.0
  0
LINE
  8
0
 62
     4
 10
0.0236003
 20
1.31103
 30
0.0
 11
0
 21
1.28738
 31
0.0
  0
LINE
  8
0
 62
     4
 10
0
 20
1.28738
 30
0.0
 11
0
 21
0.472439
 31
0.0
  0
LINE
  8
0
 62
     4
 10
0
 20
0.472439
 30
0.0
 11
0.00585938
 21
0.472439
 31
0.0
  0
LINE
  8
0
 62
     4
 10
0.00585938
 20
0.472439
 30
0.0
 11
0.00585938
 21
0.281521
 31
0.0
  0
LINE
  8
0
 62
     4
 10
0.00585938
 20
0.281521
 30
0.0
 11
0.111003
 21
0.281521
 31
0.0
  0
LINE
  8
0
 62
     4
 10
0.111003
 20
0.281521
 30
0.0
 11
0.131782
 21
0.295899
 31
0.0
  0
LINE
  8
0
 62
     4
 10
0.131782
 20
0.295899
 30
0.0
 11
0.157497
 21
0.301161
 31
0.0
  0
LINE
  8
0
 62
     4
 10
0.157497
 20
0.301161
 30
0.0
 11
0.182725
 21
0.296115
 31
0.0
  0
LINE
  8
0
 62
     4
 10
0.182725
 20
0.296115
 30
0.0
 11
0.203396
 21
0.282172
 31
0.0
  0
LINE
  8
0
 62
     4
 10
0.203396
 20
0.282172
 30
0.0
 11
0.217285
 21
0.261556
 31
0.0
  0
LINE
  8
0
 62
     4
 10
0.217285
 20
0.261556
 30
0.0
 11
0.222439
 21
0.236219
 31
0.0
  0
LINE
  8
0
 62
     4
 10
0.222439
 20
0.236219
 30
0.0
 11
0.217285
 21
0.210992
 31
0.0
  0
LINE
  8
0
 62
     4
 10
0.217285
 20
0.210992
 30
0.0
 11
0.203396
 21
0.190321
 31
0.0
  0
LINE
  8
0
 62
     4
 10
0.203396
 20
0.190321
 30
0.0
 11
0.182725
 21
0.176432
 31
0.0
  0
LINE
  8
0
 62
     4
 10
0.182725
 20
0.176432
 30
0.0
 11
0.157497
 21
0.171278
 31
0.0
  0
LINE
  8
0
 62
     4
 10
0.157497
 20
0.171278
 30
0.0
 11
0.131782
 21
0.176594
 31
0.0
  0
LINE
  8
0
 62
     4
 10
0.131782
 20
0.176594
 30
0.0
 11
0.111003
 21
0.190918
 31
0.0
  0
LINE
  8
0
 62
     4
 10
0.111003
 20
0.190918
 30
0.0
 11
0.00585938
 21
0.190918
 31
0.0
  0
LINE
  8
0
 62
     4
 10
0.00585938
 20
0.190918
 30
0.0
 11
0.00585938
 21
0.0177408
 31
0.0
  0
LINE
  8
0
 62
     4
 10
0.00585938
 20
0.0177408
 30
0.0
 11
0.0236003
 21
-0
 31
0.0
  0
LINE
  8
0
 62
     4
 10
0.0236003
 20
-0
 30
0.0
 11
1.28738
 21
-0
 31
0.0
  0
LINE
  8
0
 62
     4
 10
1.28738
 20
-0
 30
0.0
 11
1.31103
 21
0.0236003
 31
0.0
  0
LINE
  8
0
 62
     4
 10
1.31103
 20
0.0236003
 30
0.0
 11
1.31103
 21
0.537381
 31
0.0
  0
LINE
  8
0
 62
     4
 10
1.31103
 20
0.537381
 30
0.0
 11
1.31103
 21
0.998047
 31
0.0
  0
LINE
  8
0
 62
     4
 10
1.31103
 20
0.998047
 30
0.0
 11
1.31103
 21
1.28738
 31
0.0
  0
LINE
  8
0
 62
     4
 10
3.43896
 20
0.596463
 30
0.0
 11
3.23031
 21
0.596463
 31
0.0
  0
LINE
  8
0
 62
     4
 10
3.23031
 20
0.596463
 30
0.0
 11
3.23031
 21
0.805122
 31
0.0
  0
LINE
  8
0
 62
     4
 10
3.23031
 20
0.805122
 30
0.0
 11
3.43896
 21
0.805122
 31
0.0
  0
LINE
  8
0
 62
     4
 10
3.43896
 20
0.805122
 30
0.0
 11
3.43896
 21
0.596463
 31
0.0
  0
LINE
  8
0
 62
     4
 10
5.18506
 20
1.00391
 30
0.0
 11
4.94883
 21
1.00391
 31
0.0
  0
LINE
  8
0
 62
     4
 10
4.94883
 20
1.00391
 30
0.0
 11
4.88975
 21
0.897624
 31
0.0
  0
LINE
  8
0
 62
     4
 10
4.88975
 20
0.897624
 30
0.0
 11
4.85433
 21
0.933051
 31
0.0
  0
LINE
  8
0
 62
     4
 10
4.85433
 20
0.933051
 30
0.0
 11
4.85433
 21
0.992133
 31
0.0
  0
LINE
  8
0
 62
     4
 10
4.85433
 20
0.992133
 30
0.0
 11
4.83072
 21
1.01573
 31
0.0
  0
LINE
  8
0
 62
     4
 10
4.83072
 20
1.01573
 30
0.0
 11
4.62993
 21
1.01573
 31
0.0
  0
LINE
  8
0
 62
     4
 10
4.62993
 20
1.01573
 30
0.0
 11
4.57086
 21
0.944878
 31
0.0
  0
LINE
  8
0
 62
     4
 10
4.57086
 20
0.944878
 30
0.0
 11
4.5
 21
0.968479
 31
0.0
  0
LINE
  8
0
 62
     4
 10
4.5
 20
0.968479
 30
0.0
 11
4.26378
 21
0.968479
 31
0.0
  0
LINE
  8
0
 62
     4
 10
4.26378
 20
0.968479
 30
0.0
 11
4.21653
 21
1.00391
 31
0.0
  0
LINE
  8
0
 62
     4
 10
4.21653
 20
1.00391
 30
0.0
 11
4.01574
 21
1.00391
 31
0.0
  0
LINE
  8
0
 62
     4
 10
4.01574
 20
1.00391
 30
0.0
 11
3.98031
 21
0.98036
 31
0.0
  0
LINE
  8
0
 62
     4
 10
3.98031
 20
0.98036
 30
0.0
 11
3.93306
 21
1.00391
 31
0.0
  0
LINE
  8
0
 62
     4
 10
3.93306
 20
1.00391
 30
0.0
 11
3.40158
 21
1.00391
 31
0.0
  0
LINE
  8
0
 62
     4
 10
3.40158
 20
1.00391
 30
0.0
 11
3.36615
 21
0.98036
 31
0.0
  0
LINE
  8
0
 62
     4
 10
3.36615
 20
0.98036
 30
0.0
 11
3.33072
 21
1.00391
 31
0.0
  0
LINE
  8
0
 62
     4
 10
3.33072
 20
1.00391
 30
0.0
 11
3.03543
 21
1.01573
 31
0.0
  0
LINE
  8
0
 62
     4
 10
3.03543
 20
1.01573
 30
0.0
 11
3.01183
 21
0.992133
 31
0.0
  0
LINE
  8
0
 62
     4
 10
3.01183
 20
0.992133
 30
0.0
 11
3.01183
 21
0.814942
 31
0.0
  0
LINE
  8
0
 62
     4
 10
3.01183
 20
0.814942
 30
0.0
 11
3.07086
 21
0.76774
 31
0.0
  0
LINE
  8
0
 62
     4
 10
3.07086
 20
0.76774
 30
0.0
 11
3.01183
 21
0.73226
 31
0.0
  0
LINE
  8
0
 62
     4
 10
3.01183
 20
0.73226
 30
0.0
 11
2.98817
 21
0.755914
 31
0.0
  0
LINE
  8
0
 62
     4
 10
2.98817
 20
0.755914
 30
0.0
 11
2.98817
 21
0.956706
 31
0.0
  0
LINE
  8
0
 62
     4
 10
2.98817
 20
0.956706
 30
0.0
 11
2.95275
 21
0.992133
 31
0.0
  0
LINE
  8
0
 62
     4
 10
2.95275
 20
0.992133
 30
0.0
 11
2.83464
 21
0.992133
 31
0.0
  0
LINE
  8
0
 62
     4
 10
2.83464
 20
0.992133
 30
0.0
 11
2.79921
 21
0.968479
 31
0.0
  0
LINE
  8
0
 62
     4
 10
2.79921
 20
0.968479
 30
0.0
 11
2.63385
 21
0.968479
 31
0.0
  0
LINE
  8
0
 62
     4
 10
2.63385
 20
0.968479
 30
0.0
 11
2.58658
 21
1.00391
 31
0.0
  0
LINE
  8
0
 62
     4
 10
2.58658
 20
1.00391
 30
0.0
 11
2.46847
 21
1.00391
 31
0.0
  0
LINE
  8
0
 62
     4
 10
2.46847
 20
1.00391
 30
0.0
 11
2.42122
 21
0.968479
 31
0.0
  0
LINE
  8
0
 62
     4
 10
2.42122
 20
0.968479
 30
0.0
 11
2.26768
 21
0.968479
 31
0.0
  0
LINE
  8
0
 62
     4
 10
2.26768
 20
0.968479
 30
0.0
 11
2.22043
 21
1.00391
 31
0.0
  0
LINE
  8
0
 62
     4
 10
2.22043
 20
1.00391
 30
0.0
 11
2.04329
 21
1.00391
 31
0.0
  0
LINE
  8
0
 62
     4
 10
2.04329
 20
1.00391
 30
0.0
 11
1.99604
 21
0.968479
 31
0.0
  0
LINE
  8
0
 62
     4
 10
1.99604
 20
0.968479
 30
0.0
 11
1.66531
 21
0.968479
 31
0.0
  0
LINE
  8
0
 62
     4
 10
1.66531
 20
0.968479
 30
0.0
 11
1.64171
 21
0.992133
 31
0.0
  0
LINE
  8
0
 62
     4
 10
1.64171
 20
0.992133
 30
0.0
 11
1.65354
 21
1.00391
 31
0.0
  0
LINE
  8
0
 62
     4
 10
1.65354
 20
1.00391
 30
0.0
 11
1.71262
 21
1.00391
 31
0.0
  0
LINE
  8
0
 62
     4
 10
1.71262
 20
1.00391
 30
0.0
 11
1.75982
 21
1.03939
 31
0.0
  0
LINE
  8
0
 62
     4
 10
1.75982
 20
1.03939
 30
0.0
 11
1.8661
 21
1.01573
 31
0.0
  0
LINE
  8
0
 62
     4
 10
1.8661
 20
1.01573
 30
0.0
 11
2.3386
 21
1.02756
 31
0.0
  0
LINE
  8
0
 62
     4
 10
2.3386
 20
1.02756
 30
0.0
 11
2.38579
 21
1.07482
 31
0.0
  0
LINE
  8
0
 62
     4
 10
2.38579
 20
1.07482
 30
0.0
 11
2.38579
 21
1.21652
 31
0.0
  0
LINE
  8
0
 62
     4
 10
2.38579
 20
1.21652
 30
0.0
 11
2.35038
 21
1.27561
 31
0.0
  0
LINE
  8
0
 62
     4
 10
2.35038
 20
1.27561
 30
0.0
 11
1.71262
 21
1.27561
 31
0.0
  0
LINE
  8
0
 62
     4
 10
1.71262
 20
1.27561
 30
0.0
 11
1.67719
 21
1.25195
 31
0.0
  0
LINE
  8
0
 62
     4
 10
1.67719
 20
1.25195
 30
0.0
 11
1.58262
 21
1.25195
 31
0.0
  0
LINE
  8
0
 62
     4
 10
1.58262
 20
1.25195
 30
0.0
 11
1.54719
 21
1.27561
 31
0.0
  0
LINE
  8
0
 62
     4
 10
1.54719
 20
1.27561
 30
0.0
 11
1.40549
 21
1.27561
 31
0.0
  0
LINE
  8
0
 62
     4
 10
1.40549
 20
1.27561
 30
0.0
 11
1.35824
 21
1.19293
 31
0.0
  0
LINE
  8
0
 62
     4
 10
1.35824
 20
1.19293
 30
0.0
 11
1.35824
 21
1.06299
 31
0.0
  0
LINE
  8
0
 62
     4
 10
1.35824
 20
1.06299
 30
0.0
 11
1.38189
 21
1.03939
 31
0.0
  0
LINE
  8
0
 62
     4
 10
1.38189
 20
1.03939
 30
0.0
 11
1.46451
 21
1.03939
 31
0.0
  0
LINE
  8
0
 62
     4
 10
1.46451
 20
1.03939
 30
0.0
 11
1.53543
 21
1.01573
 31
0.0
  0
LINE
  8
0
 62
     4
 10
1.53543
 20
1.01573
 30
0.0
 11
1.40549
 21
1.00391
 31
0.0
  0
LINE
  8
0
 62
     4
 10
1.40549
 20
1.00391
 30
0.0
 11
1.37006
 21
0.968479
 31
0.0
  0
LINE
  8
0
 62
     4
 10
1.37006
 20
0.968479
 30
0.0
 11
1.37006
 21
0.76774
 31
0.0
  0
LINE
  8
0
 62
     4
 10
1.37006
 20
0.76774
 30
0.0
 11
1.38189
 21
0.755914
 31
0.0
  0
LINE
  8
0
 62
     4
 10
1.38189
 20
0.755914
 30
0.0
 11
1.37006
 21
0.714518
 31
0.0
  0
LINE
  8
0
 62
     4
 10
1.37006
 20
0.714518
 30
0.0
 11
1.37006
 21
0.537381
 31
0.0
  0
LINE
  8
0
 62
     4
 10
1.37006
 20
0.537381
 30
0.0
 11
1.35824
 21
0.537381
 31
0.0
  0
LINE
  8
0
 62
     4
 10
1.35824
 20
0.537381
 30
0.0
 11
1.35824
 21
0.519694
 31
0.0
  0
LINE
  8
0
 62
     4
 10
1.35824
 20
0.519694
 30
0.0
 11
1.40549
 21
0.484267
 31
0.0
  0
LINE
  8
0
 62
     4
 10
1.40549
 20
0.484267
 30
0.0
 11
3.64963
 21
0.484267
 31
0.0
  0
LINE
  8
0
 62
     4
 10
3.64963
 20
0.484267
 30
0.0
 11
3.67324
 21
0.507867
 31
0.0
  0
LINE
  8
0
 62
     4
 10
3.67324
 20
0.507867
 30
0.0
 11
3.67324
 21
0.649631
 31
0.0
  0
LINE
  8
0
 62
     4
 10
3.67324
 20
0.649631
 30
0.0
 11
3.57872
 21
0.720486
 31
0.0
  0
LINE
  8
0
 62
     4
 10
3.57872
 20
0.720486
 30
0.0
 11
3.60238
 21
0.744086
 31
0.0
  0
LINE
  8
0
 62
     4
 10
3.60238
 20
0.744086
 30
0.0
 11
4.13385
 21
0.744086
 31
0.0
  0
LINE
  8
0
 62
     4
 10
4.13385
 20
0.744086
 30
0.0
 11
4.55908
 21
0.720486
 31
0.0
  0
LINE
  8
0
 62
     4
 10
4.55908
 20
0.720486
 30
0.0
 11
4.58268
 21
0.744086
 31
0.0
  0
LINE
  8
0
 62
     4
 10
4.58268
 20
0.744086
 30
0.0
 11
5.20865
 21
0.744086
 31
0.0
  0
LINE
  8
0
 62
     4
 10
5.20865
 20
0.744086
 30
0.0
 11
5.24408
 21
0.791342
 31
0.0
  0
LINE
  8
0
 62
     4
 10
5.24408
 20
0.791342
 30
0.0
 11
5.24408
 21
0.956706
 31
0.0
  0
LINE
  8
0
 62
     4
 10
5.24408
 20
0.956706
 30
0.0
 11
5.18506
 21
1.00391
 31
0.0
  0
ENDSEC
  0
EOF
