  0
SECTION
  2
HEADER
  9
$ACADVER
  1
AC1009
  9
$EXTMIN
 10
0.0
 20
0.0
 30
0.0
  9
$EXTMAX
 10
1000.0
 20
1000.0
 30
0.0
  9
$FILLMODE
 70
 0
  9
$SPLFRAME
 70
 1
  0
ENDSEC
  0
SECTION
  2
TABLES
  0
TABLE
  2
LAYER
 70
1
  0
LAYER
  2
0
 70
     0
 62
     7
  6
CONTINUOUS
  0
ENDTAB
  0
ENDSEC
  0
SECTION
  2
ENTITIES
  0
LINE
  8
0
 62
     160
 10
1.7315
 20
1.00629
 30
0.0
 11
1.77436
 21
1.03847
 31
0.0
  0
LINE
  8
0
 62
     160
 10
1.77436
 20
1.03847
 30
0.0
 11
1.86513
 21
1.01834
 31
0.0
  0
LINE
  8
0
 62
     160
 10
1.86513
 20
1.01834
 30
0.0
 11
1.87028
 21
1.0414
 31
0.0
  0
LINE
  8
0
 62
     160
 10
1.87028
 20
1.0414
 30
0.0
 11
1.77419
 21
1.06272
 31
0.0
  0
LINE
  8
0
 62
     160
 10
1.77419
 20
1.06272
 30
0.0
 11
1.76454
 21
1.06066
 31
0.0
  0
LINE
  8
0
 62
     160
 10
1.76454
 20
1.06066
 30
0.0
 11
1.71961
 21
1.02691
 31
0.0
  0
LINE
  8
0
 62
     160
 10
1.71961
 20
1.02691
 30
0.0
 11
1.65158
 21
1.01557
 31
0.0
  0
LINE
  8
0
 62
     160
 10
1.65158
 20
1.01557
 30
0.0
 11
1.64225
 21
1.00754
 31
0.0
  0
LINE
  8
0
 62
     160
 10
1.64225
 20
1.00754
 30
0.0
 11
1.64518
 21
0.995606
 31
0.0
  0
LINE
  8
0
 62
     160
 10
1.64518
 20
0.995606
 30
0.0
 11
1.66878
 21
0.971951
 31
0.0
  0
LINE
  8
0
 62
     160
 10
1.66878
 20
0.971951
 30
0.0
 11
1.67714
 21
0.968479
 31
0.0
  0
LINE
  8
0
 62
     160
 10
1.67714
 20
0.968479
 30
0.0
 11
1.74214
 21
0.968479
 31
0.0
  0
LINE
  8
0
 62
     160
 10
1.74214
 20
0.968479
 30
0.0
 11
1.74214
 21
0.992133
 31
0.0
  0
LINE
  8
0
 62
     160
 10
1.74214
 20
0.992133
 30
0.0
 11
1.68201
 21
0.992133
 31
0.0
  0
LINE
  8
0
 62
     160
 10
1.68201
 20
0.992133
 30
0.0
 11
1.67811
 21
0.996039
 31
0.0
  0
LINE
  8
0
 62
     160
 10
1.67811
 20
0.996039
 30
0.0
 11
1.72635
 21
1.00407
 31
0.0
  0
LINE
  8
0
 62
     160
 10
1.72635
 20
1.00407
 30
0.0
 11
1.7315
 21
1.00629
 31
0.0
  0
LINE
  8
0
 62
     160
 10
1.1894
 20
1.33464
 30
0.0
 11
1.01346
 21
1.33464
 31
0.0
  0
LINE
  8
0
 62
     160
 10
1.01346
 20
1.33464
 30
0.0
 11
1.01346
 21
1.31103
 31
0.0
  0
LINE
  8
0
 62
     160
 10
1.01346
 20
1.31103
 30
0.0
 11
1.1894
 21
1.31103
 31
0.0
  0
LINE
  8
0
 62
     160
 10
1.1894
 20
1.31103
 30
0.0
 11
1.1894
 21
1.33464
 31
0.0
  0
LINE
  8
0
 62
     160
 10
1.31098
 20
0.0403103
 30
0.0
 11
1.29427
 21
0.0236544
 31
0.0
  0
LINE
  8
0
 62
     160
 10
1.29427
 20
0.0236544
 30
0.0
 11
1.14784
 21
0.0236544
 31
0.0
  0
LINE
  8
0
 62
     160
 10
1.14784
 20
0.0236544
 30
0.0
 11
1.14784
 21
-0
 31
0.0
  0
LINE
  8
0
 62
     160
 10
1.14784
 20
-0
 30
0.0
 11
1.29921
 21
-0
 31
0.0
  0
LINE
  8
0
 62
     160
 10
1.29921
 20
-0
 30
0.0
 11
1.30756
 21
0.00341797
 31
0.0
  0
LINE
  8
0
 62
     160
 10
1.30756
 20
0.00341797
 30
0.0
 11
1.33116
 21
0.0270725
 31
0.0
  0
LINE
  8
0
 62
     160
 10
1.33116
 20
0.0270725
 30
0.0
 11
1.33464
 21
0.0354275
 31
0.0
  0
LINE
  8
0
 62
     160
 10
1.33464
 20
0.0354275
 30
0.0
 11
1.33464
 21
0.0487196
 31
0.0
  0
LINE
  8
0
 62
     160
 10
1.33464
 20
0.0487196
 30
0.0
 11
1.31098
 21
0.0487196
 31
0.0
  0
LINE
  8
0
 62
     160
 10
1.31098
 20
0.0487196
 30
0.0
 11
1.31098
 21
0.0403103
 31
0.0
  0
LINE
  8
0
 62
     160
 10
1.31098
 20
0.444878
 30
0.0
 11
1.33464
 21
0.444878
 31
0.0
  0
LINE
  8
0
 62
     160
 10
1.33464
 20
0.444878
 30
0.0
 11
1.33464
 21
0.543294
 31
0.0
  0
LINE
  8
0
 62
     160
 10
1.33464
 20
0.543294
 30
0.0
 11
1.31098
 21
0.543294
 31
0.0
  0
LINE
  8
0
 62
     160
 10
1.31098
 20
0.543294
 30
0.0
 11
1.31098
 21
0.444878
 31
0.0
  0
LINE
  8
0
 62
     160
 10
1.95882
 20
1.29921
 30
0.0
 11
1.80638
 21
1.29921
 31
0.0
  0
LINE
  8
0
 62
     160
 10
1.80638
 20
1.29921
 30
0.0
 11
1.80638
 21
1.27561
 31
0.0
  0
LINE
  8
0
 62
     160
 10
1.80638
 20
1.27561
 30
0.0
 11
1.95882
 21
1.27561
 31
0.0
  0
LINE
  8
0
 62
     160
 10
1.95882
 20
1.27561
 30
0.0
 11
1.95882
 21
1.29921
 31
0.0
  0
LINE
  8
0
 62
     160
 10
1.37842
 20
0.55165
 30
0.0
 11
1.36171
 21
0.534939
 31
0.0
  0
LINE
  8
0
 62
     160
 10
1.36171
 20
0.534939
 30
0.0
 11
1.40896
 21
0.487685
 31
0.0
  0
LINE
  8
0
 62
     160
 10
1.40896
 20
0.487685
 30
0.0
 11
1.41732
 21
0.484267
 31
0.0
  0
LINE
  8
0
 62
     160
 10
1.41732
 20
0.484267
 30
0.0
 11
1.44894
 21
0.484267
 31
0.0
  0
LINE
  8
0
 62
     160
 10
1.44894
 20
0.484267
 30
0.0
 11
1.44894
 21
0.507867
 31
0.0
  0
LINE
  8
0
 62
     160
 10
1.44894
 20
0.507867
 30
0.0
 11
1.42219
 21
0.507867
 31
0.0
  0
LINE
  8
0
 62
     160
 10
1.42219
 20
0.507867
 30
0.0
 11
1.37842
 21
0.55165
 31
0.0
  0
LINE
  8
0
 62
     160
 10
1.31098
 20
0.992133
 30
0.0
 11
1.33464
 21
0.992133
 31
0.0
  0
LINE
  8
0
 62
     160
 10
1.33464
 20
0.992133
 30
0.0
 11
1.33464
 21
1.09055
 31
0.0
  0
LINE
  8
0
 62
     160
 10
1.33464
 20
1.09055
 30
0.0
 11
1.31098
 21
1.09055
 31
0.0
  0
LINE
  8
0
 62
     160
 10
1.31098
 20
1.09055
 30
0.0
 11
1.31098
 21
0.992133
 31
0.0
  0
LINE
  8
0
 62
     160
 10
1.55094
 20
1.03879
 30
0.0
 11
1.48008
 21
1.06239
 31
0.0
  0
LINE
  8
0
 62
     160
 10
1.48008
 20
1.06239
 30
0.0
 11
1.47635
 21
1.06299
 31
0.0
  0
LINE
  8
0
 62
     160
 10
1.47635
 20
1.06299
 30
0.0
 11
1.3986
 21
1.06299
 31
0.0
  0
LINE
  8
0
 62
     160
 10
1.3986
 20
1.06299
 30
0.0
 11
1.38189
 21
1.0797
 31
0.0
  0
LINE
  8
0
 62
     160
 10
1.38189
 20
1.0797
 30
0.0
 11
1.38189
 21
1.17323
 31
0.0
  0
LINE
  8
0
 62
     160
 10
1.38189
 20
1.17323
 30
0.0
 11
1.35824
 21
1.17323
 31
0.0
  0
LINE
  8
0
 62
     160
 10
1.35824
 20
1.17323
 30
0.0
 11
1.35824
 21
1.07482
 31
0.0
  0
LINE
  8
0
 62
     160
 10
1.35824
 20
1.07482
 30
0.0
 11
1.36171
 21
1.06646
 31
0.0
  0
LINE
  8
0
 62
     160
 10
1.36171
 20
1.06646
 30
0.0
 11
1.38536
 21
1.04286
 31
0.0
  0
LINE
  8
0
 62
     160
 10
1.38536
 20
1.04286
 30
0.0
 11
1.39372
 21
1.03939
 31
0.0
  0
LINE
  8
0
 62
     160
 10
1.39372
 20
1.03939
 30
0.0
 11
1.47444
 21
1.03939
 31
0.0
  0
LINE
  8
0
 62
     160
 10
1.47444
 20
1.03939
 30
0.0
 11
1.48996
 21
1.03423
 31
0.0
  0
LINE
  8
0
 62
     160
 10
1.48996
 20
1.03423
 30
0.0
 11
1.41624
 21
1.02751
 31
0.0
  0
LINE
  8
0
 62
     160
 10
1.41624
 20
1.02751
 30
0.0
 11
1.40896
 21
1.02409
 31
0.0
  0
LINE
  8
0
 62
     160
 10
1.40896
 20
1.02409
 30
0.0
 11
1.38536
 21
1.00049
 31
0.0
  0
LINE
  8
0
 62
     160
 10
1.38536
 20
1.00049
 30
0.0
 11
1.40207
 21
0.983778
 31
0.0
  0
LINE
  8
0
 62
     160
 10
1.40207
 20
0.983778
 30
0.0
 11
1.42264
 21
1.00434
 31
0.0
  0
LINE
  8
0
 62
     160
 10
1.42264
 20
1.00434
 30
0.0
 11
1.54829
 21
1.01579
 31
0.0
  0
LINE
  8
0
 62
     160
 10
1.54829
 20
1.01579
 30
0.0
 11
1.55897
 21
1.0262
 31
0.0
  0
LINE
  8
0
 62
     160
 10
1.55897
 20
1.0262
 30
0.0
 11
1.55094
 21
1.03879
 31
0.0
  0
LINE
  8
0
 62
     160
 10
0.133843
 20
1.33464
 30
0.0
 11
0.0354275
 21
1.33464
 31
0.0
  0
LINE
  8
0
 62
     160
 10
0.0354275
 20
1.33464
 30
0.0
 11
0.0270725
 21
1.33116
 31
0.0
  0
LINE
  8
0
 62
     160
 10
0.0270725
 20
1.33116
 30
0.0
 11
0.00347222
 21
1.30756
 31
0.0
  0
LINE
  8
0
 62
     160
 10
0.00347222
 20
1.30756
 30
0.0
 11
0
 21
1.29921
 31
0.0
  0
LINE
  8
0
 62
     160
 10
0
 20
1.29921
 30
0.0
 11
0
 21
1.23416
 31
0.0
  0
LINE
  8
0
 62
     160
 10
0
 20
1.23416
 30
0.0
 11
0.0236003
 21
1.23416
 31
0.0
  0
LINE
  8
0
 62
     160
 10
0.0236003
 20
1.23416
 30
0.0
 11
0.0236003
 21
1.29432
 31
0.0
  0
LINE
  8
0
 62
     160
 10
0.0236003
 20
1.29432
 30
0.0
 11
0.0403103
 21
1.31103
 31
0.0
  0
LINE
  8
0
 62
     160
 10
0.0403103
 20
1.31103
 30
0.0
 11
0.133843
 21
1.31103
 31
0.0
  0
LINE
  8
0
 62
     160
 10
0.133843
 20
1.31103
 30
0.0
 11
0.133843
 21
1.33464
 31
0.0
  0
LINE
  8
0
 62
     160
 10
0
 20
0.829101
 30
0.0
 11
0.0236003
 21
0.829101
 31
0.0
  0
LINE
  8
0
 62
     160
 10
0.0236003
 20
0.829101
 30
0.0
 11
0.0236003
 21
0.964139
 31
0.0
  0
LINE
  8
0
 62
     160
 10
0.0236003
 20
0.964139
 30
0.0
 11
0
 21
0.964139
 31
0.0
  0
LINE
  8
0
 62
     160
 10
0
 20
0.964139
 30
0.0
 11
0
 21
0.829101
 31
0.0
  0
LINE
  8
0
 62
     160
 10
1.38032
 20
1.19889
 30
0.0
 11
1.42415
 21
1.27561
 31
0.0
  0
LINE
  8
0
 62
     160
 10
1.42415
 20
1.27561
 30
0.0
 11
1.51574
 21
1.27561
 31
0.0
  0
LINE
  8
0
 62
     160
 10
1.51574
 20
1.27561
 30
0.0
 11
1.51574
 21
1.29921
 31
0.0
  0
LINE
  8
0
 62
     160
 10
1.51574
 20
1.29921
 30
0.0
 11
1.41732
 21
1.29921
 31
0.0
  0
LINE
  8
0
 62
     160
 10
1.41732
 20
1.29921
 30
0.0
 11
1.40707
 21
1.29329
 31
0.0
  0
LINE
  8
0
 62
     160
 10
1.40707
 20
1.29329
 30
0.0
 11
1.35981
 21
1.21061
 31
0.0
  0
LINE
  8
0
 62
     160
 10
1.35981
 20
1.21061
 30
0.0
 11
1.35824
 21
1.20475
 31
0.0
  0
LINE
  8
0
 62
     160
 10
1.35824
 20
1.20475
 30
0.0
 11
1.35824
 21
1.20155
 31
0.0
  0
LINE
  8
0
 62
     160
 10
1.35824
 20
1.20155
 30
0.0
 11
1.37565
 21
1.20155
 31
0.0
  0
LINE
  8
0
 62
     160
 10
1.37565
 20
1.20155
 30
0.0
 11
1.38032
 21
1.19889
 31
0.0
  0
LINE
  8
0
 62
     160
 10
0.661621
 20
1.33464
 30
0.0
 11
0.485678
 21
1.33464
 31
0.0
  0
LINE
  8
0
 62
     160
 10
0.485678
 20
1.33464
 30
0.0
 11
0.485678
 21
1.31103
 31
0.0
  0
LINE
  8
0
 62
     160
 10
0.485678
 20
1.31103
 30
0.0
 11
0.661621
 21
1.31103
 31
0.0
  0
LINE
  8
0
 62
     160
 10
0.661621
 20
1.31103
 30
0.0
 11
0.661621
 21
1.33464
 31
0.0
  0
LINE
  8
0
 62
     160
 10
0.553603
 20
-0
 30
0.0
 11
0.751682
 21
-0
 31
0.0
  0
LINE
  8
0
 62
     160
 10
0.751682
 20
-0
 30
0.0
 11
0.751682
 21
0.0236544
 31
0.0
  0
LINE
  8
0
 62
     160
 10
0.751682
 20
0.0236544
 30
0.0
 11
0.553603
 21
0.0236544
 31
0.0
  0
LINE
  8
0
 62
     160
 10
0.553603
 20
0.0236544
 30
0.0
 11
0.553603
 21
-0
 31
0.0
  0
LINE
  8
0
 62
     160
 10
0
 20
0.484267
 30
0.0
 11
0.0236003
 21
0.484267
 31
0.0
  0
LINE
  8
0
 62
     160
 10
0.0236003
 20
0.484267
 30
0.0
 11
0.0236003
 21
0.559028
 31
0.0
  0
LINE
  8
0
 62
     160
 10
0.0236003
 20
0.559028
 30
0.0
 11
0
 21
0.559028
 31
0.0
  0
LINE
  8
0
 62
     160
 10
0
 20
0.559028
 30
0.0
 11
0
 21
0.484267
 31
0.0
  0
LINE
  8
0
 62
     160
 10
3.03543
 20
0.999024
 30
0.0
 11
3.05192
 21
1.01557
 31
0.0
  0
LINE
  8
0
 62
     160
 10
3.05192
 20
1.01557
 30
0.0
 11
3.14513
 21
1.01183
 31
0.0
  0
LINE
  8
0
 62
     160
 10
3.14513
 20
1.01183
 30
0.0
 11
3.14606
 21
1.03543
 31
0.0
  0
LINE
  8
0
 62
     160
 10
3.14606
 20
1.03543
 30
0.0
 11
3.04769
 21
1.03939
 31
0.0
  0
LINE
  8
0
 62
     160
 10
3.04769
 20
1.03939
 30
0.0
 11
3.0389
 21
1.03592
 31
0.0
  0
LINE
  8
0
 62
     160
 10
3.0389
 20
1.03592
 30
0.0
 11
3.01525
 21
1.01232
 31
0.0
  0
LINE
  8
0
 62
     160
 10
3.01525
 20
1.01232
 30
0.0
 11
3.01178
 21
1.00396
 31
0.0
  0
LINE
  8
0
 62
     160
 10
3.01178
 20
1.00396
 30
0.0
 11
3.01178
 21
0.938911
 31
0.0
  0
LINE
  8
0
 62
     160
 10
3.01178
 20
0.938911
 30
0.0
 11
3.03543
 21
0.938911
 31
0.0
  0
LINE
  8
0
 62
     160
 10
3.03543
 20
0.938911
 30
0.0
 11
3.03543
 21
0.999024
 31
0.0
  0
LINE
  8
0
 62
     160
 10
0.0590278
 20
-0
 30
0.0
 11
0.157497
 21
-0
 31
0.0
  0
LINE
  8
0
 62
     160
 10
0.157497
 20
-0
 30
0.0
 11
0.157497
 21
0.0236544
 31
0.0
  0
LINE
  8
0
 62
     160
 10
0.157497
 20
0.0236544
 30
0.0
 11
0.0590278
 21
0.0236544
 31
0.0
  0
LINE
  8
0
 62
     160
 10
0.0590278
 20
0.0236544
 30
0.0
 11
0.0590278
 21
-0
 31
0.0
  0
LINE
  8
0
 62
     160
 10
1.86513
 20
0.484267
 30
0.0
 11
2.07324
 21
0.484267
 31
0.0
  0
LINE
  8
0
 62
     160
 10
2.07324
 20
0.484267
 30
0.0
 11
2.07324
 21
0.507867
 31
0.0
  0
LINE
  8
0
 62
     160
 10
2.07324
 20
0.507867
 30
0.0
 11
1.86513
 21
0.507867
 31
0.0
  0
LINE
  8
0
 62
     160
 10
1.86513
 20
0.507867
 30
0.0
 11
1.86513
 21
0.484267
 31
0.0
  0
LINE
  8
0
 62
     160
 10
4.5861
 20
0.764268
 30
0.0
 11
4.56625
 21
0.744358
 31
0.0
  0
LINE
  8
0
 62
     160
 10
4.56625
 20
0.744358
 30
0.0
 11
4.47325
 21
0.749567
 31
0.0
  0
LINE
  8
0
 62
     160
 10
4.47325
 20
0.749567
 30
0.0
 11
4.47194
 21
0.725965
 31
0.0
  0
LINE
  8
0
 62
     160
 10
4.47194
 20
0.725965
 30
0.0
 11
4.57021
 21
0.720486
 31
0.0
  0
LINE
  8
0
 62
     160
 10
4.57021
 20
0.720486
 30
0.0
 11
4.57086
 21
0.720486
 31
0.0
  0
LINE
  8
0
 62
     160
 10
4.57086
 20
0.720486
 30
0.0
 11
4.57921
 21
0.723958
 31
0.0
  0
LINE
  8
0
 62
     160
 10
4.57921
 20
0.723958
 30
0.0
 11
4.59933
 21
0.744086
 31
0.0
  0
LINE
  8
0
 62
     160
 10
4.59933
 20
0.744086
 30
0.0
 11
4.69287
 21
0.744086
 31
0.0
  0
LINE
  8
0
 62
     160
 10
4.69287
 20
0.744086
 30
0.0
 11
4.69287
 21
0.76774
 31
0.0
  0
LINE
  8
0
 62
     160
 10
4.69287
 20
0.76774
 30
0.0
 11
4.59446
 21
0.76774
 31
0.0
  0
LINE
  8
0
 62
     160
 10
4.59446
 20
0.76774
 30
0.0
 11
4.5861
 21
0.764268
 31
0.0
  0
LINE
  8
0
 62
     160
 10
4.03114
 20
1.00391
 30
0.0
 11
4.08339
 21
1.00391
 31
0.0
  0
LINE
  8
0
 62
     160
 10
4.08339
 20
1.00391
 30
0.0
 11
4.08339
 21
1.02756
 31
0.0
  0
LINE
  8
0
 62
     160
 10
4.08339
 20
1.02756
 30
0.0
 11
4.02756
 21
1.02756
 31
0.0
  0
LINE
  8
0
 62
     160
 10
4.02756
 20
1.02756
 30
0.0
 11
4.021
 21
1.02555
 31
0.0
  0
LINE
  8
0
 62
     160
 10
4.021
 20
1.02555
 30
0.0
 11
3.99126
 21
1.00575
 31
0.0
  0
LINE
  8
0
 62
     160
 10
3.99126
 20
1.00575
 30
0.0
 11
3.95014
 21
1.02631
 31
0.0
  0
LINE
  8
0
 62
     160
 10
3.95014
 20
1.02631
 30
0.0
 11
3.94488
 21
1.02756
 31
0.0
  0
LINE
  8
0
 62
     160
 10
3.94488
 20
1.02756
 30
0.0
 11
3.89925
 21
1.02756
 31
0.0
  0
LINE
  8
0
 62
     160
 10
3.89925
 20
1.02756
 30
0.0
 11
3.89925
 21
1.00391
 31
0.0
  0
LINE
  8
0
 62
     160
 10
3.89925
 20
1.00391
 30
0.0
 11
3.94206
 21
1.00391
 31
0.0
  0
LINE
  8
0
 62
     160
 10
3.94206
 20
1.00391
 30
0.0
 11
3.98682
 21
0.981554
 31
0.0
  0
LINE
  8
0
 62
     160
 10
3.98682
 20
0.981554
 30
0.0
 11
3.99214
 21
0.980306
 31
0.0
  0
LINE
  8
0
 62
     160
 10
3.99214
 20
0.980306
 30
0.0
 11
3.99864
 21
0.982314
 31
0.0
  0
LINE
  8
0
 62
     160
 10
3.99864
 20
0.982314
 30
0.0
 11
4.03114
 21
1.00391
 31
0.0
  0
LINE
  8
0
 62
     160
 10
4.63265
 20
1.0351
 30
0.0
 11
4.57878
 21
0.970432
 31
0.0
  0
LINE
  8
0
 62
     160
 10
4.57878
 20
0.970432
 30
0.0
 11
4.51551
 21
0.991536
 31
0.0
  0
LINE
  8
0
 62
     160
 10
4.51551
 20
0.991536
 30
0.0
 11
4.51183
 21
0.992133
 31
0.0
  0
LINE
  8
0
 62
     160
 10
4.51183
 20
0.992133
 30
0.0
 11
4.48807
 21
0.992133
 31
0.0
  0
LINE
  8
0
 62
     160
 10
4.48807
 20
0.992133
 30
0.0
 11
4.48807
 21
0.968479
 31
0.0
  0
LINE
  8
0
 62
     160
 10
4.48807
 20
0.968479
 30
0.0
 11
4.50988
 21
0.968479
 31
0.0
  0
LINE
  8
0
 62
     160
 10
4.50988
 20
0.968479
 30
0.0
 11
4.57894
 21
0.945475
 31
0.0
  0
LINE
  8
0
 62
     160
 10
4.57894
 20
0.945475
 30
0.0
 11
4.58268
 21
0.944878
 31
0.0
  0
LINE
  8
0
 62
     160
 10
4.58268
 20
0.944878
 30
0.0
 11
4.59174
 21
0.94911
 31
0.0
  0
LINE
  8
0
 62
     160
 10
4.59174
 20
0.94911
 30
0.0
 11
4.64725
 21
1.01573
 31
0.0
  0
LINE
  8
0
 62
     160
 10
4.64725
 20
1.01573
 30
0.0
 11
4.74013
 21
1.01573
 31
0.0
  0
LINE
  8
0
 62
     160
 10
4.74013
 20
1.01573
 30
0.0
 11
4.74013
 21
1.03939
 31
0.0
  0
LINE
  8
0
 62
     160
 10
4.74013
 20
1.03939
 30
0.0
 11
4.64171
 21
1.03939
 31
0.0
  0
LINE
  8
0
 62
     160
 10
4.64171
 20
1.03939
 30
0.0
 11
4.63265
 21
1.0351
 31
0.0
  0
LINE
  8
0
 62
     160
 10
4.95031
 20
1.02148
 30
0.0
 11
4.89882
 21
0.928874
 31
0.0
  0
LINE
  8
0
 62
     160
 10
4.89882
 20
0.928874
 30
0.0
 11
4.87793
 21
0.949761
 31
0.0
  0
LINE
  8
0
 62
     160
 10
4.87793
 20
0.949761
 30
0.0
 11
4.87793
 21
0.993218
 31
0.0
  0
LINE
  8
0
 62
     160
 10
4.87793
 20
0.993218
 30
0.0
 11
4.85433
 21
0.993218
 31
0.0
  0
LINE
  8
0
 62
     160
 10
4.85433
 20
0.993218
 30
0.0
 11
4.85433
 21
0.944878
 31
0.0
  0
LINE
  8
0
 62
     160
 10
4.85433
 20
0.944878
 30
0.0
 11
4.85781
 21
0.936524
 31
0.0
  0
LINE
  8
0
 62
     160
 10
4.85781
 20
0.936524
 30
0.0
 11
4.89322
 21
0.901096
 31
0.0
  0
LINE
  8
0
 62
     160
 10
4.89322
 20
0.901096
 30
0.0
 11
4.90158
 21
0.897624
 31
0.0
  0
LINE
  8
0
 62
     160
 10
4.90158
 20
0.897624
 30
0.0
 11
4.90321
 21
0.897786
 31
0.0
  0
LINE
  8
0
 62
     160
 10
4.90321
 20
0.897786
 30
0.0
 11
4.91189
 21
0.9037
 31
0.0
  0
LINE
  8
0
 62
     160
 10
4.91189
 20
0.9037
 30
0.0
 11
4.96756
 21
1.00391
 31
0.0
  0
LINE
  8
0
 62
     160
 10
4.96756
 20
1.00391
 30
0.0
 11
5.05903
 21
1.00391
 31
0.0
  0
LINE
  8
0
 62
     160
 10
5.05903
 20
1.00391
 30
0.0
 11
5.05903
 21
1.02756
 31
0.0
  0
LINE
  8
0
 62
     160
 10
5.05903
 20
1.02756
 30
0.0
 11
4.96061
 21
1.02756
 31
0.0
  0
LINE
  8
0
 62
     160
 10
4.96061
 20
1.02756
 30
0.0
 11
4.95031
 21
1.02148
 31
0.0
  0
LINE
  8
0
 62
     160
 10
3.6085
 20
0.733561
 30
0.0
 11
3.61903
 21
0.744086
 31
0.0
  0
LINE
  8
0
 62
     160
 10
3.61903
 20
0.744086
 30
0.0
 11
3.67914
 21
0.744086
 31
0.0
  0
LINE
  8
0
 62
     160
 10
3.67914
 20
0.744086
 30
0.0
 11
3.67914
 21
0.76774
 31
0.0
  0
LINE
  8
0
 62
     160
 10
3.67914
 20
0.76774
 30
0.0
 11
3.61415
 21
0.76774
 31
0.0
  0
LINE
  8
0
 62
     160
 10
3.61415
 20
0.76774
 30
0.0
 11
3.60579
 21
0.764268
 31
0.0
  0
LINE
  8
0
 62
     160
 10
3.60579
 20
0.764268
 30
0.0
 11
3.58219
 21
0.740668
 31
0.0
  0
LINE
  8
0
 62
     160
 10
3.58219
 20
0.740668
 30
0.0
 11
3.57872
 21
0.731446
 31
0.0
  0
LINE
  8
0
 62
     160
 10
3.57872
 20
0.731446
 30
0.0
 11
3.58344
 21
0.722819
 31
0.0
  0
LINE
  8
0
 62
     160
 10
3.58344
 20
0.722819
 30
0.0
 11
3.67318
 21
0.655544
 31
0.0
  0
LINE
  8
0
 62
     160
 10
3.67318
 20
0.655544
 30
0.0
 11
3.67318
 21
0.562989
 31
0.0
  0
LINE
  8
0
 62
     160
 10
3.67318
 20
0.562989
 30
0.0
 11
3.69683
 21
0.562989
 31
0.0
  0
LINE
  8
0
 62
     160
 10
3.69683
 20
0.562989
 30
0.0
 11
3.69683
 21
0.661404
 31
0.0
  0
LINE
  8
0
 62
     160
 10
3.69683
 20
0.661404
 30
0.0
 11
3.69211
 21
0.670844
 31
0.0
  0
LINE
  8
0
 62
     160
 10
3.69211
 20
0.670844
 30
0.0
 11
3.6085
 21
0.733561
 31
0.0
  0
LINE
  8
0
 62
     160
 10
5.26329
 20
0.977756
 30
0.0
 11
5.20421
 21
1.02496
 31
0.0
  0
LINE
  8
0
 62
     160
 10
5.20421
 20
1.02496
 30
0.0
 11
5.19683
 21
1.02756
 31
0.0
  0
LINE
  8
0
 62
     160
 10
5.19683
 20
1.02756
 30
0.0
 11
5.17404
 21
1.02756
 31
0.0
  0
LINE
  8
0
 62
     160
 10
5.17404
 20
1.02756
 30
0.0
 11
5.17404
 21
1.00391
 31
0.0
  0
LINE
  8
0
 62
     160
 10
5.17404
 20
1.00391
 30
0.0
 11
5.19271
 21
1.00391
 31
0.0
  0
LINE
  8
0
 62
     160
 10
5.19271
 20
1.00391
 30
0.0
 11
5.24408
 21
0.962836
 31
0.0
  0
LINE
  8
0
 62
     160
 10
5.24408
 20
0.962836
 30
0.0
 11
5.24408
 21
0.870063
 31
0.0
  0
LINE
  8
0
 62
     160
 10
5.24408
 20
0.870063
 30
0.0
 11
5.26768
 21
0.870063
 31
0.0
  0
LINE
  8
0
 62
     160
 10
5.26768
 20
0.870063
 30
0.0
 11
5.26768
 21
0.968533
 31
0.0
  0
LINE
  8
0
 62
     160
 10
5.26768
 20
0.968533
 30
0.0
 11
5.26329
 21
0.977756
 31
0.0
  0
LINE
  8
0
 62
     160
 10
5.24408
 20
0.807075
 30
0.0
 11
5.21457
 21
0.76774
 31
0.0
  0
LINE
  8
0
 62
     160
 10
5.21457
 20
0.76774
 30
0.0
 11
5.12201
 21
0.76774
 31
0.0
  0
LINE
  8
0
 62
     160
 10
5.12201
 20
0.76774
 30
0.0
 11
5.12201
 21
0.744086
 31
0.0
  0
LINE
  8
0
 62
     160
 10
5.12201
 20
0.744086
 30
0.0
 11
5.22049
 21
0.744086
 31
0.0
  0
LINE
  8
0
 62
     160
 10
5.22049
 20
0.744086
 30
0.0
 11
5.22993
 21
0.748807
 31
0.0
  0
LINE
  8
0
 62
     160
 10
5.22993
 20
0.748807
 30
0.0
 11
5.26535
 21
0.796061
 31
0.0
  0
LINE
  8
0
 62
     160
 10
5.26535
 20
0.796061
 30
0.0
 11
5.26768
 21
0.803168
 31
0.0
  0
LINE
  8
0
 62
     160
 10
5.26768
 20
0.803168
 30
0.0
 11
5.26768
 21
0.842557
 31
0.0
  0
LINE
  8
0
 62
     160
 10
5.26768
 20
0.842557
 30
0.0
 11
5.24408
 21
0.842557
 31
0.0
  0
LINE
  8
0
 62
     160
 10
5.24408
 20
0.842557
 30
0.0
 11
5.24408
 21
0.807075
 31
0.0
  0
LINE
  8
0
 62
     160
 10
3.99675
 20
0.744086
 30
0.0
 11
4.14501
 21
0.74414
 31
0.0
  0
LINE
  8
0
 62
     160
 10
4.14501
 20
0.74414
 30
0.0
 11
4.15483
 21
0.743599
 31
0.0
  0
LINE
  8
0
 62
     160
 10
4.15483
 20
0.743599
 30
0.0
 11
4.15614
 21
0.767144
 31
0.0
  0
LINE
  8
0
 62
     160
 10
4.15614
 20
0.767144
 30
0.0
 11
3.99675
 21
0.76774
 31
0.0
  0
LINE
  8
0
 62
     160
 10
3.99675
 20
0.76774
 30
0.0
 11
3.99675
 21
0.744086
 31
0.0
  0
LINE
  8
0
 62
     160
 10
2.37229
 20
1.29351
 30
0.0
 11
2.36219
 21
1.29921
 31
0.0
  0
LINE
  8
0
 62
     160
 10
2.36219
 20
1.29921
 30
0.0
 11
2.26372
 21
1.29921
 31
0.0
  0
LINE
  8
0
 62
     160
 10
2.26372
 20
1.29921
 30
0.0
 11
2.26372
 21
1.27561
 31
0.0
  0
LINE
  8
0
 62
     160
 10
2.26372
 20
1.27561
 30
0.0
 11
2.35547
 21
1.27561
 31
0.0
  0
LINE
  8
0
 62
     160
 10
2.35547
 20
1.27561
 30
0.0
 11
2.38579
 21
1.2251
 31
0.0
  0
LINE
  8
0
 62
     160
 10
2.38579
 20
1.2251
 30
0.0
 11
2.38579
 21
1.19884
 31
0.0
  0
LINE
  8
0
 62
     160
 10
2.38579
 20
1.19884
 30
0.0
 11
2.40944
 21
1.19884
 31
0.0
  0
LINE
  8
0
 62
     160
 10
2.40944
 20
1.19884
 30
0.0
 11
2.40944
 21
1.22835
 31
0.0
  0
LINE
  8
0
 62
     160
 10
2.40944
 20
1.22835
 30
0.0
 11
2.40776
 21
1.23443
 31
0.0
  0
LINE
  8
0
 62
     160
 10
2.40776
 20
1.23443
 30
0.0
 11
2.37229
 21
1.29351
 31
0.0
  0
LINE
  8
0
 62
     160
 10
2.48947
 20
0.484267
 30
0.0
 11
2.6976
 21
0.484267
 31
0.0
  0
LINE
  8
0
 62
     160
 10
2.6976
 20
0.484267
 30
0.0
 11
2.6976
 21
0.507867
 31
0.0
  0
LINE
  8
0
 62
     160
 10
2.6976
 20
0.507867
 30
0.0
 11
2.48947
 21
0.507867
 31
0.0
  0
LINE
  8
0
 62
     160
 10
2.48947
 20
0.507867
 30
0.0
 11
2.48947
 21
0.484267
 31
0.0
  0
LINE
  8
0
 62
     160
 10
2.26486
 20
1.02539
 30
0.0
 11
2.26426
 21
1.04904
 31
0.0
  0
LINE
  8
0
 62
     160
 10
2.26426
 20
1.04904
 30
0.0
 11
2.13189
 21
1.04574
 31
0.0
  0
LINE
  8
0
 62
     160
 10
2.13189
 20
1.04574
 30
0.0
 11
2.13238
 21
1.02756
 31
0.0
  0
LINE
  8
0
 62
     160
 10
2.13238
 20
1.02756
 30
0.0
 11
2.09603
 21
1.02756
 31
0.0
  0
LINE
  8
0
 62
     160
 10
2.09603
 20
1.02756
 30
0.0
 11
2.09603
 21
1.00391
 31
0.0
  0
LINE
  8
0
 62
     160
 10
2.09603
 20
1.00391
 30
0.0
 11
2.22835
 21
1.00391
 31
0.0
  0
LINE
  8
0
 62
     160
 10
2.22835
 20
1.00391
 30
0.0
 11
2.26247
 21
0.978353
 31
0.0
  0
LINE
  8
0
 62
     160
 10
2.26247
 20
0.978353
 30
0.0
 11
2.27664
 21
0.997233
 31
0.0
  0
LINE
  8
0
 62
     160
 10
2.27664
 20
0.997233
 30
0.0
 11
2.2399
 21
1.02479
 31
0.0
  0
LINE
  8
0
 62
     160
 10
2.2399
 20
1.02479
 30
0.0
 11
2.26486
 21
1.02539
 31
0.0
  0
LINE
  8
0
 62
     160
 10
3.11376
 20
0.484267
 30
0.0
 11
3.32189
 21
0.484267
 31
0.0
  0
LINE
  8
0
 62
     160
 10
3.32189
 20
0.484267
 30
0.0
 11
3.32189
 21
0.507867
 31
0.0
  0
LINE
  8
0
 62
     160
 10
3.32189
 20
0.507867
 30
0.0
 11
3.11376
 21
0.507867
 31
0.0
  0
LINE
  8
0
 62
     160
 10
3.11376
 20
0.507867
 30
0.0
 11
3.11376
 21
0.484267
 31
0.0
  0
LINE
  8
0
 62
     160
 10
2.62349
 20
1.01172
 30
0.0
 11
2.60932
 21
0.992785
 31
0.0
  0
LINE
  8
0
 62
     160
 10
2.60932
 20
0.992785
 30
0.0
 11
2.63857
 21
0.970865
 31
0.0
  0
LINE
  8
0
 62
     160
 10
2.63857
 20
0.970865
 30
0.0
 11
2.64567
 21
0.968479
 31
0.0
  0
LINE
  8
0
 62
     160
 10
2.64567
 20
0.968479
 30
0.0
 11
2.79194
 21
0.968479
 31
0.0
  0
LINE
  8
0
 62
     160
 10
2.79194
 20
0.968479
 30
0.0
 11
2.79194
 21
0.992133
 31
0.0
  0
LINE
  8
0
 62
     160
 10
2.79194
 20
0.992133
 30
0.0
 11
2.64958
 21
0.992133
 31
0.0
  0
LINE
  8
0
 62
     160
 10
2.64958
 20
0.992133
 30
0.0
 11
2.62349
 21
1.01172
 31
0.0
  0
LINE
  8
0
 62
     160
 10
3.40679
 20
1.02555
 30
0.0
 11
3.37793
 21
1.00635
 31
0.0
  0
LINE
  8
0
 62
     160
 10
3.37793
 20
1.00635
 30
0.0
 11
3.34907
 21
1.02555
 31
0.0
  0
LINE
  8
0
 62
     160
 10
3.34907
 20
1.02555
 30
0.0
 11
3.34299
 21
1.02756
 31
0.0
  0
LINE
  8
0
 62
     160
 10
3.34299
 20
1.02756
 30
0.0
 11
3.28717
 21
1.02978
 31
0.0
  0
LINE
  8
0
 62
     160
 10
3.28717
 20
1.02978
 30
0.0
 11
3.28624
 21
1.00618
 31
0.0
  0
LINE
  8
0
 62
     160
 10
3.28624
 20
1.00618
 30
0.0
 11
3.33871
 21
1.00407
 31
0.0
  0
LINE
  8
0
 62
     160
 10
3.33871
 20
1.00407
 30
0.0
 11
3.37136
 21
0.982314
 31
0.0
  0
LINE
  8
0
 62
     160
 10
3.37136
 20
0.982314
 30
0.0
 11
3.37793
 21
0.980306
 31
0.0
  0
LINE
  8
0
 62
     160
 10
3.37793
 20
0.980306
 30
0.0
 11
3.3845
 21
0.982314
 31
0.0
  0
LINE
  8
0
 62
     160
 10
3.3845
 20
0.982314
 30
0.0
 11
3.41694
 21
1.00391
 31
0.0
  0
LINE
  8
0
 62
     160
 10
3.41694
 20
1.00391
 30
0.0
 11
3.46924
 21
1.00391
 31
0.0
  0
LINE
  8
0
 62
     160
 10
3.46924
 20
1.00391
 30
0.0
 11
3.46924
 21
1.02756
 31
0.0
  0
LINE
  8
0
 62
     160
 10
3.46924
 20
1.02756
 30
0.0
 11
3.41336
 21
1.02756
 31
0.0
  0
LINE
  8
0
 62
     160
 10
3.41336
 20
1.02756
 30
0.0
 11
3.40679
 21
1.02555
 31
0.0
  0
LINE
  8
0
 62
     160
 10
3.02544
 20
0.758951
 30
0.0
 11
3.01178
 21
0.772624
 31
0.0
  0
LINE
  8
0
 62
     160
 10
3.01178
 20
0.772624
 30
0.0
 11
3.01178
 21
0.826768
 31
0.0
  0
LINE
  8
0
 62
     160
 10
3.01178
 20
0.826768
 30
0.0
 11
3.01622
 21
0.817546
 31
0.0
  0
LINE
  8
0
 62
     160
 10
3.01622
 20
0.817546
 30
0.0
 11
3.06201
 21
0.780925
 31
0.0
  0
LINE
  8
0
 62
     160
 10
3.06201
 20
0.780925
 30
0.0
 11
3.02544
 21
0.758951
 31
0.0
  0
LINE
  8
0
 62
     160
 10
3.03543
 20
0.832465
 30
0.0
 11
3.03543
 21
0.925185
 31
0.0
  0
LINE
  8
0
 62
     160
 10
3.03543
 20
0.925185
 30
0.0
 11
3.01178
 21
0.925185
 31
0.0
  0
LINE
  8
0
 62
     160
 10
3.01178
 20
0.925185
 30
0.0
 11
3.01178
 21
0.832736
 31
0.0
  0
LINE
  8
0
 62
     160
 10
3.01178
 20
0.832736
 30
0.0
 11
2.98817
 21
0.832736
 31
0.0
  0
LINE
  8
0
 62
     160
 10
2.98817
 20
0.832736
 30
0.0
 11
2.98817
 21
0.76774
 31
0.0
  0
LINE
  8
0
 62
     160
 10
2.98817
 20
0.76774
 30
0.0
 11
2.99164
 21
0.759386
 31
0.0
  0
LINE
  8
0
 62
     160
 10
2.99164
 20
0.759386
 30
0.0
 11
3.01525
 21
0.735732
 31
0.0
  0
LINE
  8
0
 62
     160
 10
3.01525
 20
0.735732
 30
0.0
 11
3.0236
 21
0.73226
 31
0.0
  0
LINE
  8
0
 62
     160
 10
3.0236
 20
0.73226
 30
0.0
 11
3.02968
 21
0.733942
 31
0.0
  0
LINE
  8
0
 62
     160
 10
3.02968
 20
0.733942
 30
0.0
 11
3.08876
 21
0.769368
 31
0.0
  0
LINE
  8
0
 62
     160
 10
3.08876
 20
0.769368
 30
0.0
 11
3.09446
 21
0.7787
 31
0.0
  0
LINE
  8
0
 62
     160
 10
3.09446
 20
0.7787
 30
0.0
 11
3.09006
 21
0.788738
 31
0.0
  0
LINE
  8
0
 62
     160
 10
3.09006
 20
0.788738
 30
0.0
 11
3.03543
 21
0.832465
 31
0.0
  0
ENDSEC
  0
EOF
