  0
SECTION
  2
HEADER
  9
$ACADVER
  1
AC1009
  9
$EXTMIN
 10
0.0
 20
0.0
 30
0.0
  9
$EXTMAX
 10
1000.0
 20
1000.0
 30
0.0
  9
$FILLMODE
 70
 0
  9
$SPLFRAME
 70
 1
  0
ENDSEC
  0
SECTION
  2
TABLES
  0
TABLE
  2
LAYER
 70
1
  0
LAYER
  2
0
 70
     0
 62
     7
  6
CONTINUOUS
  0
ENDTAB
  0
ENDSEC
  0
SECTION
  2
ENTITIES
  0
LINE
  8
0
 62
     160
 10
1.31103
 20
0.0347765
 30
0.0
 11
1.29199
 21
0.0157335
 31
0.0
  0
LINE
  8
0
 62
     160
 10
1.29199
 20
0.0157335
 30
0.0
 11
0.0551215
 21
0.0157335
 31
0.0
  0
LINE
  8
0
 62
     160
 10
0.0551215
 20
0.0157335
 30
0.0
 11
0.0551215
 21
-0
 31
0.0
  0
LINE
  8
0
 62
     160
 10
0.0551215
 20
-0
 30
0.0
 11
1.29525
 21
-0
 31
0.0
  0
LINE
  8
0
 62
     160
 10
1.29525
 20
-0
 30
0.0
 11
1.30084
 21
0.00227864
 31
0.0
  0
LINE
  8
0
 62
     160
 10
1.30084
 20
0.00227864
 30
0.0
 11
1.32444
 21
0.0259332
 31
0.0
  0
LINE
  8
0
 62
     160
 10
1.32444
 20
0.0259332
 30
0.0
 11
1.32677
 21
0.0315213
 31
0.0
  0
LINE
  8
0
 62
     160
 10
1.32677
 20
0.0315213
 30
0.0
 11
1.32677
 21
0.539387
 31
0.0
  0
LINE
  8
0
 62
     160
 10
1.32677
 20
0.539387
 30
0.0
 11
1.31103
 21
0.539387
 31
0.0
  0
LINE
  8
0
 62
     160
 10
1.31103
 20
0.539387
 30
0.0
 11
1.31103
 21
0.0347765
 31
0.0
  0
LINE
  8
0
 62
     160
 10
5.25689
 20
0.970757
 30
0.0
 11
5.19781
 21
1.01796
 31
0.0
  0
LINE
  8
0
 62
     160
 10
5.19781
 20
1.01796
 30
0.0
 11
5.19293
 21
1.01969
 31
0.0
  0
LINE
  8
0
 62
     160
 10
5.19293
 20
1.01969
 30
0.0
 11
4.95671
 21
1.01969
 31
0.0
  0
LINE
  8
0
 62
     160
 10
4.95671
 20
1.01969
 30
0.0
 11
4.94982
 21
1.01563
 31
0.0
  0
LINE
  8
0
 62
     160
 10
4.94982
 20
1.01563
 30
0.0
 11
4.89583
 21
0.918511
 31
0.0
  0
LINE
  8
0
 62
     160
 10
4.89583
 20
0.918511
 30
0.0
 11
4.87007
 21
0.944228
 31
0.0
  0
LINE
  8
0
 62
     160
 10
4.87007
 20
0.944228
 30
0.0
 11
4.87007
 21
1
 31
0.0
  0
LINE
  8
0
 62
     160
 10
4.87007
 20
1
 30
0.0
 11
4.86778
 21
1.00559
 31
0.0
  0
LINE
  8
0
 62
     160
 10
4.86778
 20
1.00559
 30
0.0
 11
4.84413
 21
1.02919
 31
0.0
  0
LINE
  8
0
 62
     160
 10
4.84413
 20
1.02919
 30
0.0
 11
4.8386
 21
1.03152
 31
0.0
  0
LINE
  8
0
 62
     160
 10
4.8386
 20
1.03152
 30
0.0
 11
4.63781
 21
1.03152
 31
0.0
  0
LINE
  8
0
 62
     160
 10
4.63781
 20
1.03152
 30
0.0
 11
4.63172
 21
1.0287
 31
0.0
  0
LINE
  8
0
 62
     160
 10
4.63172
 20
1.0287
 30
0.0
 11
4.57611
 21
0.961914
 31
0.0
  0
LINE
  8
0
 62
     160
 10
4.57611
 20
0.961914
 30
0.0
 11
4.51036
 21
0.983832
 31
0.0
  0
LINE
  8
0
 62
     160
 10
4.51036
 20
0.983832
 30
0.0
 11
4.50786
 21
0.984267
 31
0.0
  0
LINE
  8
0
 62
     160
 10
4.50786
 20
0.984267
 30
0.0
 11
4.27425
 21
0.984267
 31
0.0
  0
LINE
  8
0
 62
     160
 10
4.27425
 20
0.984267
 30
0.0
 11
4.22911
 21
1.01812
 31
0.0
  0
LINE
  8
0
 62
     160
 10
4.22911
 20
1.01812
 30
0.0
 11
4.22439
 21
1.01969
 31
0.0
  0
LINE
  8
0
 62
     160
 10
4.22439
 20
1.01969
 30
0.0
 11
4.0236
 21
1.01969
 31
0.0
  0
LINE
  8
0
 62
     160
 10
4.0236
 20
1.01969
 30
0.0
 11
4.01926
 21
1.01839
 31
0.0
  0
LINE
  8
0
 62
     160
 10
4.01926
 20
1.01839
 30
0.0
 11
3.98763
 21
0.997288
 31
0.0
  0
LINE
  8
0
 62
     160
 10
3.98763
 20
0.997288
 30
0.0
 11
3.94444
 21
1.01888
 31
0.0
  0
LINE
  8
0
 62
     160
 10
3.94444
 20
1.01888
 30
0.0
 11
3.94092
 21
1.01969
 31
0.0
  0
LINE
  8
0
 62
     160
 10
3.94092
 20
1.01969
 30
0.0
 11
3.40944
 21
1.01969
 31
0.0
  0
LINE
  8
0
 62
     160
 10
3.40944
 20
1.01969
 30
0.0
 11
3.40506
 21
1.01839
 31
0.0
  0
LINE
  8
0
 62
     160
 10
3.40506
 20
1.01839
 30
0.0
 11
3.37403
 21
0.997667
 31
0.0
  0
LINE
  8
0
 62
     160
 10
3.37403
 20
0.997667
 30
0.0
 11
3.34293
 21
1.01839
 31
0.0
  0
LINE
  8
0
 62
     160
 10
3.34293
 20
1.01839
 30
0.0
 11
3.33886
 21
1.01969
 31
0.0
  0
LINE
  8
0
 62
     160
 10
3.33886
 20
1.01969
 30
0.0
 11
3.04363
 21
1.03152
 31
0.0
  0
LINE
  8
0
 62
     160
 10
3.04363
 20
1.03152
 30
0.0
 11
3.03776
 21
1.02919
 31
0.0
  0
LINE
  8
0
 62
     160
 10
3.03776
 20
1.02919
 30
0.0
 11
3.01411
 21
1.00559
 31
0.0
  0
LINE
  8
0
 62
     160
 10
3.01411
 20
1.00559
 30
0.0
 11
3.01183
 21
1
 31
0.0
  0
LINE
  8
0
 62
     160
 10
3.01183
 20
1
 30
0.0
 11
3.01183
 21
0.822863
 31
0.0
  0
LINE
  8
0
 62
     160
 10
3.01183
 20
0.822863
 30
0.0
 11
3.01475
 21
0.816678
 31
0.0
  0
LINE
  8
0
 62
     160
 10
3.01475
 20
0.816678
 30
0.0
 11
3.065
 21
0.776531
 31
0.0
  0
LINE
  8
0
 62
     160
 10
3.065
 20
0.776531
 30
0.0
 11
3.02089
 21
0.750108
 31
0.0
  0
LINE
  8
0
 62
     160
 10
3.02089
 20
0.750108
 30
0.0
 11
3.0039
 21
0.767036
 31
0.0
  0
LINE
  8
0
 62
     160
 10
3.0039
 20
0.767036
 30
0.0
 11
3.0039
 21
0.964572
 31
0.0
  0
LINE
  8
0
 62
     160
 10
3.0039
 20
0.964572
 30
0.0
 11
3.00163
 21
0.970161
 31
0.0
  0
LINE
  8
0
 62
     160
 10
3.00163
 20
0.970161
 30
0.0
 11
2.96619
 21
1.00559
 31
0.0
  0
LINE
  8
0
 62
     160
 10
2.96619
 20
1.00559
 30
0.0
 11
2.96061
 21
1.00792
 31
0.0
  0
LINE
  8
0
 62
     160
 10
2.96061
 20
1.00792
 30
0.0
 11
2.8425
 21
1.00792
 31
0.0
  0
LINE
  8
0
 62
     160
 10
2.8425
 20
1.00792
 30
0.0
 11
2.83817
 21
1.00657
 31
0.0
  0
LINE
  8
0
 62
     160
 10
2.83817
 20
1.00657
 30
0.0
 11
2.80469
 21
0.984267
 31
0.0
  0
LINE
  8
0
 62
     160
 10
2.80469
 20
0.984267
 30
0.0
 11
2.64438
 21
0.984267
 31
0.0
  0
LINE
  8
0
 62
     160
 10
2.64438
 20
0.984267
 30
0.0
 11
2.59918
 21
1.01812
 31
0.0
  0
LINE
  8
0
 62
     160
 10
2.59918
 20
1.01812
 30
0.0
 11
2.59446
 21
1.01969
 31
0.0
  0
LINE
  8
0
 62
     160
 10
2.59446
 20
1.01969
 30
0.0
 11
2.47635
 21
1.01969
 31
0.0
  0
LINE
  8
0
 62
     160
 10
2.47635
 20
1.01969
 30
0.0
 11
2.47163
 21
1.01812
 31
0.0
  0
LINE
  8
0
 62
     160
 10
2.47163
 20
1.01812
 30
0.0
 11
2.42649
 21
0.984267
 31
0.0
  0
LINE
  8
0
 62
     160
 10
2.42649
 20
0.984267
 30
0.0
 11
2.27821
 21
0.984267
 31
0.0
  0
LINE
  8
0
 62
     160
 10
2.27821
 20
0.984267
 30
0.0
 11
2.23307
 21
1.01812
 31
0.0
  0
LINE
  8
0
 62
     160
 10
2.23307
 20
1.01812
 30
0.0
 11
2.22835
 21
1.01969
 31
0.0
  0
LINE
  8
0
 62
     160
 10
2.22835
 20
1.01969
 30
0.0
 11
2.05117
 21
1.01969
 31
0.0
  0
LINE
  8
0
 62
     160
 10
2.05117
 20
1.01969
 30
0.0
 11
2.04644
 21
1.01812
 31
0.0
  0
LINE
  8
0
 62
     160
 10
2.04644
 20
1.01812
 30
0.0
 11
2.00131
 21
0.984267
 31
0.0
  0
LINE
  8
0
 62
     160
 10
2.00131
 20
0.984267
 30
0.0
 11
1.67649
 21
0.984267
 31
0.0
  0
LINE
  8
0
 62
     160
 10
1.67649
 20
0.984267
 30
0.0
 11
1.66596
 21
0.994738
 31
0.0
  0
LINE
  8
0
 62
     160
 10
1.66596
 20
0.994738
 30
0.0
 11
1.72179
 21
1.00407
 31
0.0
  0
LINE
  8
0
 62
     160
 10
1.72179
 20
1.00407
 30
0.0
 11
1.72521
 21
1.00553
 31
0.0
  0
LINE
  8
0
 62
     160
 10
1.72521
 20
1.00553
 30
0.0
 11
1.76953
 21
1.03879
 31
0.0
  0
LINE
  8
0
 62
     160
 10
1.76953
 20
1.03879
 30
0.0
 11
1.87229
 21
1.01595
 31
0.0
  0
LINE
  8
0
 62
     160
 10
1.87229
 20
1.01595
 30
0.0
 11
1.87418
 21
1.01579
 31
0.0
  0
LINE
  8
0
 62
     160
 10
1.87418
 20
1.01579
 30
0.0
 11
2.34663
 21
1.02756
 31
0.0
  0
LINE
  8
0
 62
     160
 10
2.34663
 20
1.02756
 30
0.0
 11
2.352
 21
1.02989
 31
0.0
  0
LINE
  8
0
 62
     160
 10
2.352
 20
1.02989
 30
0.0
 11
2.39925
 21
1.07715
 31
0.0
  0
LINE
  8
0
 62
     160
 10
2.39925
 20
1.07715
 30
0.0
 11
2.40158
 21
1.08268
 31
0.0
  0
LINE
  8
0
 62
     160
 10
2.40158
 20
1.08268
 30
0.0
 11
2.40158
 21
1.22445
 31
0.0
  0
LINE
  8
0
 62
     160
 10
2.40158
 20
1.22445
 30
0.0
 11
2.40044
 21
1.22852
 31
0.0
  0
LINE
  8
0
 62
     160
 10
2.40044
 20
1.22852
 30
0.0
 11
2.36501
 21
1.28754
 31
0.0
  0
LINE
  8
0
 62
     160
 10
2.36501
 20
1.28754
 30
0.0
 11
2.35824
 21
1.29134
 31
0.0
  0
LINE
  8
0
 62
     160
 10
2.35824
 20
1.29134
 30
0.0
 11
1.72049
 21
1.29134
 31
0.0
  0
LINE
  8
0
 62
     160
 10
1.72049
 20
1.29134
 30
0.0
 11
1.7161
 21
1.29004
 31
0.0
  0
LINE
  8
0
 62
     160
 10
1.7161
 20
1.29004
 30
0.0
 11
1.68267
 21
1.26774
 31
0.0
  0
LINE
  8
0
 62
     160
 10
1.68267
 20
1.26774
 30
0.0
 11
1.59293
 21
1.26774
 31
0.0
  0
LINE
  8
0
 62
     160
 10
1.59293
 20
1.26774
 30
0.0
 11
1.55946
 21
1.29004
 31
0.0
  0
LINE
  8
0
 62
     160
 10
1.55946
 20
1.29004
 30
0.0
 11
1.55513
 21
1.29134
 31
0.0
  0
LINE
  8
0
 62
     160
 10
1.55513
 20
1.29134
 30
0.0
 11
1.41336
 21
1.29134
 31
0.0
  0
LINE
  8
0
 62
     160
 10
1.41336
 20
1.29134
 30
0.0
 11
1.40653
 21
1.28738
 31
0.0
  0
LINE
  8
0
 62
     160
 10
1.40653
 20
1.28738
 30
0.0
 11
1.35932
 21
1.2047
 31
0.0
  0
LINE
  8
0
 62
     160
 10
1.35932
 20
1.2047
 30
0.0
 11
1.35824
 21
1.20079
 31
0.0
  0
LINE
  8
0
 62
     160
 10
1.35824
 20
1.20079
 30
0.0
 11
1.35824
 21
1.07086
 31
0.0
  0
LINE
  8
0
 62
     160
 10
1.35824
 20
1.07086
 30
0.0
 11
1.36057
 21
1.06532
 31
0.0
  0
LINE
  8
0
 62
     160
 10
1.36057
 20
1.06532
 30
0.0
 11
1.38422
 21
1.04172
 31
0.0
  0
LINE
  8
0
 62
     160
 10
1.38422
 20
1.04172
 30
0.0
 11
1.38975
 21
1.03939
 31
0.0
  0
LINE
  8
0
 62
     160
 10
1.38975
 20
1.03939
 30
0.0
 11
1.47114
 21
1.03939
 31
0.0
  0
LINE
  8
0
 62
     160
 10
1.47114
 20
1.03939
 30
0.0
 11
1.5051
 21
1.02805
 31
0.0
  0
LINE
  8
0
 62
     160
 10
1.5051
 20
1.02805
 30
0.0
 11
1.41265
 21
1.01964
 31
0.0
  0
LINE
  8
0
 62
     160
 10
1.41265
 20
1.01964
 30
0.0
 11
1.40776
 21
1.01742
 31
0.0
  0
LINE
  8
0
 62
     160
 10
1.40776
 20
1.01742
 30
0.0
 11
1.38417
 21
0.993761
 31
0.0
  0
LINE
  8
0
 62
     160
 10
1.38417
 20
0.993761
 30
0.0
 11
1.39535
 21
0.982639
 31
0.0
  0
LINE
  8
0
 62
     160
 10
1.39535
 20
0.982639
 30
0.0
 11
1.41694
 21
1.00423
 31
0.0
  0
LINE
  8
0
 62
     160
 10
1.41694
 20
1.00423
 30
0.0
 11
1.54406
 21
1.01579
 31
0.0
  0
LINE
  8
0
 62
     160
 10
1.54406
 20
1.01579
 30
0.0
 11
1.55117
 21
1.02273
 31
0.0
  0
LINE
  8
0
 62
     160
 10
1.55117
 20
1.02273
 30
0.0
 11
1.54579
 21
1.03109
 31
0.0
  0
LINE
  8
0
 62
     160
 10
1.54579
 20
1.03109
 30
0.0
 11
1.47493
 21
1.05474
 31
0.0
  0
LINE
  8
0
 62
     160
 10
1.47493
 20
1.05474
 30
0.0
 11
1.47244
 21
1.05512
 31
0.0
  0
LINE
  8
0
 62
     160
 10
1.47244
 20
1.05512
 30
0.0
 11
1.39301
 21
1.05512
 31
0.0
  0
LINE
  8
0
 62
     160
 10
1.39301
 20
1.05512
 30
0.0
 11
1.37402
 21
1.07411
 31
0.0
  0
LINE
  8
0
 62
     160
 10
1.37402
 20
1.07411
 30
0.0
 11
1.37402
 21
1.19873
 31
0.0
  0
LINE
  8
0
 62
     160
 10
1.37402
 20
1.19873
 30
0.0
 11
1.41797
 21
1.27561
 31
0.0
  0
LINE
  8
0
 62
     160
 10
1.41797
 20
1.27561
 30
0.0
 11
1.55274
 21
1.27561
 31
0.0
  0
LINE
  8
0
 62
     160
 10
1.55274
 20
1.27561
 30
0.0
 11
1.58615
 21
1.25331
 31
0.0
  0
LINE
  8
0
 62
     160
 10
1.58615
 20
1.25331
 30
0.0
 11
1.59056
 21
1.25201
 31
0.0
  0
LINE
  8
0
 62
     160
 10
1.59056
 20
1.25201
 30
0.0
 11
1.68506
 21
1.25201
 31
0.0
  0
LINE
  8
0
 62
     160
 10
1.68506
 20
1.25201
 30
0.0
 11
1.6894
 21
1.25331
 31
0.0
  0
LINE
  8
0
 62
     160
 10
1.6894
 20
1.25331
 30
0.0
 11
1.72287
 21
1.27561
 31
0.0
  0
LINE
  8
0
 62
     160
 10
1.72287
 20
1.27561
 30
0.0
 11
2.35379
 21
1.27561
 31
0.0
  0
LINE
  8
0
 62
     160
 10
2.35379
 20
1.27561
 30
0.0
 11
2.38579
 21
1.22228
 31
0.0
  0
LINE
  8
0
 62
     160
 10
2.38579
 20
1.22228
 30
0.0
 11
2.38579
 21
1.08599
 31
0.0
  0
LINE
  8
0
 62
     160
 10
2.38579
 20
1.08599
 30
0.0
 11
2.3431
 21
1.04324
 31
0.0
  0
LINE
  8
0
 62
     160
 10
2.3431
 20
1.04324
 30
0.0
 11
1.87478
 21
1.03152
 31
0.0
  0
LINE
  8
0
 62
     160
 10
1.87478
 20
1.03152
 30
0.0
 11
1.76942
 21
1.05496
 31
0.0
  0
LINE
  8
0
 62
     160
 10
1.76942
 20
1.05496
 30
0.0
 11
1.76297
 21
1.05355
 31
0.0
  0
LINE
  8
0
 62
     160
 10
1.76297
 20
1.05355
 30
0.0
 11
1.71729
 21
1.01926
 31
0.0
  0
LINE
  8
0
 62
     160
 10
1.71729
 20
1.01926
 30
0.0
 11
1.64833
 21
1.00776
 31
0.0
  0
LINE
  8
0
 62
     160
 10
1.64833
 20
1.00776
 30
0.0
 11
1.64208
 21
1.00244
 31
0.0
  0
LINE
  8
0
 62
     160
 10
1.64208
 20
1.00244
 30
0.0
 11
1.64404
 21
0.994467
 31
0.0
  0
LINE
  8
0
 62
     160
 10
1.64404
 20
0.994467
 30
0.0
 11
1.66764
 21
0.970811
 31
0.0
  0
LINE
  8
0
 62
     160
 10
1.66764
 20
0.970811
 30
0.0
 11
1.67324
 21
0.968533
 31
0.0
  0
LINE
  8
0
 62
     160
 10
1.67324
 20
0.968533
 30
0.0
 11
2.0039
 21
0.968533
 31
0.0
  0
LINE
  8
0
 62
     160
 10
2.0039
 20
0.968533
 30
0.0
 11
2.00863
 21
0.970107
 31
0.0
  0
LINE
  8
0
 62
     160
 10
2.00863
 20
0.970107
 30
0.0
 11
2.05376
 21
1.00396
 31
0.0
  0
LINE
  8
0
 62
     160
 10
2.05376
 20
1.00396
 30
0.0
 11
2.22575
 21
1.00396
 31
0.0
  0
LINE
  8
0
 62
     160
 10
2.22575
 20
1.00396
 30
0.0
 11
2.27089
 21
0.970107
 31
0.0
  0
LINE
  8
0
 62
     160
 10
2.27089
 20
0.970107
 30
0.0
 11
2.27561
 21
0.968533
 31
0.0
  0
LINE
  8
0
 62
     160
 10
2.27561
 20
0.968533
 30
0.0
 11
2.42914
 21
0.968533
 31
0.0
  0
LINE
  8
0
 62
     160
 10
2.42914
 20
0.968533
 30
0.0
 11
2.43386
 21
0.970107
 31
0.0
  0
LINE
  8
0
 62
     160
 10
2.43386
 20
0.970107
 30
0.0
 11
2.479
 21
1.00396
 31
0.0
  0
LINE
  8
0
 62
     160
 10
2.479
 20
1.00396
 30
0.0
 11
2.59185
 21
1.00396
 31
0.0
  0
LINE
  8
0
 62
     160
 10
2.59185
 20
1.00396
 30
0.0
 11
2.63699
 21
0.970107
 31
0.0
  0
LINE
  8
0
 62
     160
 10
2.63699
 20
0.970107
 30
0.0
 11
2.64171
 21
0.968533
 31
0.0
  0
LINE
  8
0
 62
     160
 10
2.64171
 20
0.968533
 30
0.0
 11
2.80707
 21
0.968533
 31
0.0
  0
LINE
  8
0
 62
     160
 10
2.80707
 20
0.968533
 30
0.0
 11
2.81147
 21
0.969835
 31
0.0
  0
LINE
  8
0
 62
     160
 10
2.81147
 20
0.969835
 30
0.0
 11
2.84489
 21
0.992133
 31
0.0
  0
LINE
  8
0
 62
     160
 10
2.84489
 20
0.992133
 30
0.0
 11
2.95736
 21
0.992133
 31
0.0
  0
LINE
  8
0
 62
     160
 10
2.95736
 20
0.992133
 30
0.0
 11
2.98817
 21
0.961317
 31
0.0
  0
LINE
  8
0
 62
     160
 10
2.98817
 20
0.961317
 30
0.0
 11
2.98817
 21
0.763781
 31
0.0
  0
LINE
  8
0
 62
     160
 10
2.98817
 20
0.763781
 30
0.0
 11
2.9905
 21
0.758247
 31
0.0
  0
LINE
  8
0
 62
     160
 10
2.9905
 20
0.758247
 30
0.0
 11
3.01411
 21
0.734592
 31
0.0
  0
LINE
  8
0
 62
     160
 10
3.01411
 20
0.734592
 30
0.0
 11
3.02376
 21
0.733399
 31
0.0
  0
LINE
  8
0
 62
     160
 10
3.02376
 20
0.733399
 30
0.0
 11
3.08279
 21
0.768826
 31
0.0
  0
LINE
  8
0
 62
     160
 10
3.08279
 20
0.768826
 30
0.0
 11
3.08658
 21
0.775065
 31
0.0
  0
LINE
  8
0
 62
     160
 10
3.08658
 20
0.775065
 30
0.0
 11
3.08365
 21
0.781739
 31
0.0
  0
LINE
  8
0
 62
     160
 10
3.08365
 20
0.781739
 30
0.0
 11
3.02756
 21
0.82666
 31
0.0
  0
LINE
  8
0
 62
     160
 10
3.02756
 20
0.82666
 30
0.0
 11
3.02756
 21
0.996744
 31
0.0
  0
LINE
  8
0
 62
     160
 10
3.02756
 20
0.996744
 30
0.0
 11
3.04644
 21
1.01563
 31
0.0
  0
LINE
  8
0
 62
     160
 10
3.04644
 20
1.01563
 30
0.0
 11
3.33604
 21
1.00402
 31
0.0
  0
LINE
  8
0
 62
     160
 10
3.33604
 20
1.00402
 30
0.0
 11
3.36963
 21
0.981663
 31
0.0
  0
LINE
  8
0
 62
     160
 10
3.36963
 20
0.981663
 30
0.0
 11
3.37836
 21
0.981663
 31
0.0
  0
LINE
  8
0
 62
     160
 10
3.37836
 20
0.981663
 30
0.0
 11
3.41183
 21
1.00396
 31
0.0
  0
LINE
  8
0
 62
     160
 10
3.41183
 20
1.00396
 30
0.0
 11
3.93907
 21
1.00396
 31
0.0
  0
LINE
  8
0
 62
     160
 10
3.93907
 20
1.00396
 30
0.0
 11
3.98465
 21
0.981174
 31
0.0
  0
LINE
  8
0
 62
     160
 10
3.98465
 20
0.981174
 30
0.0
 11
3.99257
 21
0.981663
 31
0.0
  0
LINE
  8
0
 62
     160
 10
3.99257
 20
0.981663
 30
0.0
 11
4.02599
 21
1.00396
 31
0.0
  0
LINE
  8
0
 62
     160
 10
4.02599
 20
1.00396
 30
0.0
 11
4.22179
 21
1.00396
 31
0.0
  0
LINE
  8
0
 62
     160
 10
4.22179
 20
1.00396
 30
0.0
 11
4.26693
 21
0.970107
 31
0.0
  0
LINE
  8
0
 62
     160
 10
4.26693
 20
0.970107
 30
0.0
 11
4.27165
 21
0.968533
 31
0.0
  0
LINE
  8
0
 62
     160
 10
4.27165
 20
0.968533
 30
0.0
 11
4.50662
 21
0.968533
 31
0.0
  0
LINE
  8
0
 62
     160
 10
4.50662
 20
0.968533
 30
0.0
 11
4.57622
 21
0.945313
 31
0.0
  0
LINE
  8
0
 62
     160
 10
4.57622
 20
0.945313
 30
0.0
 11
4.58479
 21
0.9477
 31
0.0
  0
LINE
  8
0
 62
     160
 10
4.58479
 20
0.9477
 30
0.0
 11
4.6415
 21
1.01579
 31
0.0
  0
LINE
  8
0
 62
     160
 10
4.6415
 20
1.01579
 30
0.0
 11
4.83535
 21
1.01579
 31
0.0
  0
LINE
  8
0
 62
     160
 10
4.83535
 20
1.01579
 30
0.0
 11
4.85433
 21
0.996744
 31
0.0
  0
LINE
  8
0
 62
     160
 10
4.85433
 20
0.996744
 30
0.0
 11
4.85433
 21
0.940972
 31
0.0
  0
LINE
  8
0
 62
     160
 10
4.85433
 20
0.940972
 30
0.0
 11
4.85667
 21
0.935385
 31
0.0
  0
LINE
  8
0
 62
     160
 10
4.85667
 20
0.935385
 30
0.0
 11
4.89208
 21
0.899957
 31
0.0
  0
LINE
  8
0
 62
     160
 10
4.89208
 20
0.899957
 30
0.0
 11
4.89871
 21
0.897732
 31
0.0
  0
LINE
  8
0
 62
     160
 10
4.89871
 20
0.897732
 30
0.0
 11
4.90451
 21
0.901693
 31
0.0
  0
LINE
  8
0
 62
     160
 10
4.90451
 20
0.901693
 30
0.0
 11
4.96132
 21
1.00396
 31
0.0
  0
LINE
  8
0
 62
     160
 10
4.96132
 20
1.00396
 30
0.0
 11
5.19015
 21
1.00396
 31
0.0
  0
LINE
  8
0
 62
     160
 10
5.19015
 20
1.00396
 30
0.0
 11
5.24408
 21
0.960829
 31
0.0
  0
LINE
  8
0
 62
     160
 10
5.24408
 20
0.960829
 30
0.0
 11
5.24408
 21
0.801867
 31
0.0
  0
LINE
  8
0
 62
     160
 10
5.24408
 20
0.801867
 30
0.0
 11
5.21262
 21
0.759874
 31
0.0
  0
LINE
  8
0
 62
     160
 10
5.21262
 20
0.759874
 30
0.0
 11
4.59056
 21
0.759874
 31
0.0
  0
LINE
  8
0
 62
     160
 10
4.59056
 20
0.759874
 30
0.0
 11
4.58496
 21
0.757542
 31
0.0
  0
LINE
  8
0
 62
     160
 10
4.58496
 20
0.757542
 30
0.0
 11
4.56386
 21
0.736436
 31
0.0
  0
LINE
  8
0
 62
     160
 10
4.56386
 20
0.736436
 30
0.0
 11
4.14171
 21
0.759874
 31
0.0
  0
LINE
  8
0
 62
     160
 10
4.14171
 20
0.759874
 30
0.0
 11
3.61025
 21
0.759874
 31
0.0
  0
LINE
  8
0
 62
     160
 10
3.61025
 20
0.759874
 30
0.0
 11
3.60465
 21
0.757542
 31
0.0
  0
LINE
  8
0
 62
     160
 10
3.60465
 20
0.757542
 30
0.0
 11
3.58106
 21
0.733942
 31
0.0
  0
LINE
  8
0
 62
     160
 10
3.58106
 20
0.733942
 30
0.0
 11
3.57878
 21
0.72781
 31
0.0
  0
LINE
  8
0
 62
     160
 10
3.57878
 20
0.72781
 30
0.0
 11
3.58187
 21
0.72206
 31
0.0
  0
LINE
  8
0
 62
     160
 10
3.58187
 20
0.72206
 30
0.0
 11
3.67324
 21
0.653537
 31
0.0
  0
LINE
  8
0
 62
     160
 10
3.67324
 20
0.653537
 30
0.0
 11
3.67324
 21
0.518989
 31
0.0
  0
LINE
  8
0
 62
     160
 10
3.67324
 20
0.518989
 30
0.0
 11
3.65424
 21
0.500054
 31
0.0
  0
LINE
  8
0
 62
     160
 10
3.65424
 20
0.500054
 30
0.0
 11
1.41661
 21
0.500054
 31
0.0
  0
LINE
  8
0
 62
     160
 10
1.41661
 20
0.500054
 30
0.0
 11
1.37169
 21
0.544922
 31
0.0
  0
LINE
  8
0
 62
     160
 10
1.37169
 20
0.544922
 30
0.0
 11
1.36057
 21
0.5338
 31
0.0
  0
LINE
  8
0
 62
     160
 10
1.36057
 20
0.5338
 30
0.0
 11
1.40776
 21
0.4866
 31
0.0
  0
LINE
  8
0
 62
     160
 10
1.40776
 20
0.4866
 30
0.0
 11
1.41336
 21
0.484267
 31
0.0
  0
LINE
  8
0
 62
     160
 10
1.41336
 20
0.484267
 30
0.0
 11
3.6575
 21
0.484267
 31
0.0
  0
LINE
  8
0
 62
     160
 10
3.6575
 20
0.484267
 30
0.0
 11
3.66303
 21
0.4866
 31
0.0
  0
LINE
  8
0
 62
     160
 10
3.66303
 20
0.4866
 30
0.0
 11
3.68664
 21
0.5102
 31
0.0
  0
LINE
  8
0
 62
     160
 10
3.68664
 20
0.5102
 30
0.0
 11
3.68896
 21
0.515733
 31
0.0
  0
LINE
  8
0
 62
     160
 10
3.68896
 20
0.515733
 30
0.0
 11
3.68896
 21
0.657497
 31
0.0
  0
LINE
  8
0
 62
     160
 10
3.68896
 20
0.657497
 30
0.0
 11
3.68582
 21
0.663792
 31
0.0
  0
LINE
  8
0
 62
     160
 10
3.68582
 20
0.663792
 30
0.0
 11
3.59858
 21
0.729221
 31
0.0
  0
LINE
  8
0
 62
     160
 10
3.59858
 20
0.729221
 30
0.0
 11
3.6135
 21
0.74414
 31
0.0
  0
LINE
  8
0
 62
     160
 10
3.6135
 20
0.74414
 30
0.0
 11
4.14128
 21
0.74414
 31
0.0
  0
LINE
  8
0
 62
     160
 10
4.14128
 20
0.74414
 30
0.0
 11
4.56651
 21
0.72054
 31
0.0
  0
LINE
  8
0
 62
     160
 10
4.56651
 20
0.72054
 30
0.0
 11
4.57254
 21
0.722819
 31
0.0
  0
LINE
  8
0
 62
     160
 10
4.57254
 20
0.722819
 30
0.0
 11
4.59381
 21
0.74414
 31
0.0
  0
LINE
  8
0
 62
     160
 10
4.59381
 20
0.74414
 30
0.0
 11
5.21653
 21
0.74414
 31
0.0
  0
LINE
  8
0
 62
     160
 10
5.21653
 20
0.74414
 30
0.0
 11
5.22282
 21
0.747287
 31
0.0
  0
LINE
  8
0
 62
     160
 10
5.22282
 20
0.747287
 30
0.0
 11
5.25825
 21
0.794487
 31
0.0
  0
LINE
  8
0
 62
     160
 10
5.25825
 20
0.794487
 30
0.0
 11
5.25988
 21
0.799208
 31
0.0
  0
LINE
  8
0
 62
     160
 10
5.25988
 20
0.799208
 30
0.0
 11
5.25988
 21
0.964572
 31
0.0
  0
LINE
  8
0
 62
     160
 10
5.25988
 20
0.964572
 30
0.0
 11
5.25689
 21
0.970757
 31
0.0
  0
LINE
  8
0
 62
     160
 10
1.30084
 20
1.32449
 30
0.0
 11
1.29525
 21
1.32677
 31
0.0
  0
LINE
  8
0
 62
     160
 10
1.29525
 20
1.32677
 30
0.0
 11
0.0314669
 21
1.32677
 31
0.0
  0
LINE
  8
0
 62
     160
 10
0.0314669
 20
1.32677
 30
0.0
 11
0.0258789
 21
1.32449
 31
0.0
  0
LINE
  8
0
 62
     160
 10
0.0258789
 20
1.32449
 30
0.0
 11
0.0023329
 21
1.30084
 31
0.0
  0
LINE
  8
0
 62
     160
 10
0.0023329
 20
1.30084
 30
0.0
 11
0
 21
1.2953
 31
0.0
  0
LINE
  8
0
 62
     160
 10
0
 20
1.2953
 30
0.0
 11
0
 21
0.48036
 31
0.0
  0
LINE
  8
0
 62
     160
 10
0
 20
0.48036
 30
0.0
 11
0.0157335
 21
0.48036
 31
0.0
  0
LINE
  8
0
 62
     160
 10
0.0157335
 20
0.48036
 30
0.0
 11
0.0157335
 21
1.29205
 31
0.0
  0
LINE
  8
0
 62
     160
 10
0.0157335
 20
1.29205
 30
0.0
 11
0.0347222
 21
1.31103
 31
0.0
  0
LINE
  8
0
 62
     160
 10
0.0347222
 20
1.31103
 30
0.0
 11
1.29199
 21
1.31103
 31
0.0
  0
LINE
  8
0
 62
     160
 10
1.29199
 20
1.31103
 30
0.0
 11
1.31103
 21
1.29205
 31
0.0
  0
LINE
  8
0
 62
     160
 10
1.31103
 20
1.29205
 30
0.0
 11
1.31103
 21
0.988226
 31
0.0
  0
LINE
  8
0
 62
     160
 10
1.31103
 20
0.988226
 30
0.0
 11
1.32677
 21
0.988226
 31
0.0
  0
LINE
  8
0
 62
     160
 10
1.32677
 20
0.988226
 30
0.0
 11
1.32677
 21
1.2953
 31
0.0
  0
LINE
  8
0
 62
     160
 10
1.32677
 20
1.2953
 30
0.0
 11
1.32444
 21
1.30084
 31
0.0
  0
LINE
  8
0
 62
     160
 10
1.32444
 20
1.30084
 30
0.0
 11
1.30084
 21
1.32449
 31
0.0
  0
ENDSEC
  0
EOF
