  0
SECTION
  2
HEADER
  9
$ACADVER
  1
AC1009
  9
$EXTMIN
 10
0.0
 20
0.0
 30
0.0
  9
$EXTMAX
 10
1000.0
 20
1000.0
 30
0.0
  9
$FILLMODE
 70
 0
  9
$SPLFRAME
 70
 1
  0
ENDSEC
  0
SECTION
  2
TABLES
  0
TABLE
  2
LAYER
 70
1
  0
LAYER
  2
0
 70
     0
 62
     7
  6
CONTINUOUS
  0
ENDTAB
  0
ENDSEC
  0
SECTION
  2
ENTITIES
  0
LINE
  8
0
 62
     4
 10
0.169217
 20
0.168024
 30
0.0
 11
0.143121
 21
0.173286
 31
0.0
  0
LINE
  8
0
 62
     4
 10
0.143121
 20
0.173286
 30
0.0
 11
0.121853
 21
0.187662
 31
0.0
  0
LINE
  8
0
 62
     4
 10
0.121853
 20
0.187662
 30
0.0
 11
0.10753
 21
0.208931
 31
0.0
  0
LINE
  8
0
 62
     4
 10
0.10753
 20
0.208931
 30
0.0
 11
0.102268
 21
0.234918
 31
0.0
  0
LINE
  8
0
 62
     4
 10
0.102268
 20
0.234918
 30
0.0
 11
0.10753
 21
0.261014
 31
0.0
  0
LINE
  8
0
 62
     4
 10
0.10753
 20
0.261014
 30
0.0
 11
0.121853
 21
0.282281
 31
0.0
  0
LINE
  8
0
 62
     4
 10
0.121853
 20
0.282281
 30
0.0
 11
0.143121
 21
0.296604
 31
0.0
  0
LINE
  8
0
 62
     4
 10
0.143121
 20
0.296604
 30
0.0
 11
0.169217
 21
0.301867
 31
0.0
  0
LINE
  8
0
 62
     4
 10
0.169217
 20
0.301867
 30
0.0
 11
0.195258
 21
0.296604
 31
0.0
  0
LINE
  8
0
 62
     4
 10
0.195258
 20
0.296604
 30
0.0
 11
0.216525
 21
0.282281
 31
0.0
  0
LINE
  8
0
 62
     4
 10
0.216525
 20
0.282281
 30
0.0
 11
0.230849
 21
0.261014
 31
0.0
  0
LINE
  8
0
 62
     4
 10
0.230849
 20
0.261014
 30
0.0
 11
0.236165
 21
0.234918
 31
0.0
  0
LINE
  8
0
 62
     4
 10
0.236165
 20
0.234918
 30
0.0
 11
0.230849
 21
0.208931
 31
0.0
  0
LINE
  8
0
 62
     4
 10
0.230849
 20
0.208931
 30
0.0
 11
0.216525
 21
0.187662
 31
0.0
  0
LINE
  8
0
 62
     4
 10
0.216525
 20
0.187662
 30
0.0
 11
0.195258
 21
0.173286
 31
0.0
  0
LINE
  8
0
 62
     4
 10
0.195258
 20
0.173286
 30
0.0
 11
0.169217
 21
0.168024
 31
0.0
  0
LINE
  8
0
 62
     4
 10
0.763564
 20
0.696506
 30
0.0
 11
0.789551
 21
0.691243
 31
0.0
  0
LINE
  8
0
 62
     4
 10
0.789551
 20
0.691243
 30
0.0
 11
0.810818
 21
0.676921
 31
0.0
  0
LINE
  8
0
 62
     4
 10
0.810818
 20
0.676921
 30
0.0
 11
0.825196
 21
0.655653
 31
0.0
  0
LINE
  8
0
 62
     4
 10
0.825196
 20
0.655653
 30
0.0
 11
0.830458
 21
0.629557
 31
0.0
  0
LINE
  8
0
 62
     4
 10
0.830458
 20
0.629557
 30
0.0
 11
0.825196
 21
0.603569
 31
0.0
  0
LINE
  8
0
 62
     4
 10
0.825196
 20
0.603569
 30
0.0
 11
0.810818
 21
0.582303
 31
0.0
  0
LINE
  8
0
 62
     4
 10
0.810818
 20
0.582303
 30
0.0
 11
0.789551
 21
0.567925
 31
0.0
  0
LINE
  8
0
 62
     4
 10
0.789551
 20
0.567925
 30
0.0
 11
0.763564
 21
0.562662
 31
0.0
  0
LINE
  8
0
 62
     4
 10
0.763564
 20
0.562662
 30
0.0
 11
0.737468
 21
0.567925
 31
0.0
  0
LINE
  8
0
 62
     4
 10
0.737468
 20
0.567925
 30
0.0
 11
0.7162
 21
0.582303
 31
0.0
  0
LINE
  8
0
 62
     4
 10
0.7162
 20
0.582303
 30
0.0
 11
0.701822
 21
0.603569
 31
0.0
  0
LINE
  8
0
 62
     4
 10
0.701822
 20
0.603569
 30
0.0
 11
0.696614
 21
0.629557
 31
0.0
  0
LINE
  8
0
 62
     4
 10
0.696614
 20
0.629557
 30
0.0
 11
0.701822
 21
0.655653
 31
0.0
  0
LINE
  8
0
 62
     4
 10
0.701822
 20
0.655653
 30
0.0
 11
0.7162
 21
0.676921
 31
0.0
  0
LINE
  8
0
 62
     4
 10
0.7162
 20
0.676921
 30
0.0
 11
0.737468
 21
0.691243
 31
0.0
  0
LINE
  8
0
 62
     4
 10
0.737468
 20
0.691243
 30
0.0
 11
0.763564
 21
0.696506
 31
0.0
  0
LINE
  8
0
 62
     4
 10
3.80604
 20
0.516872
 30
0.0
 11
3.57107
 21
0.516872
 31
0.0
  0
LINE
  8
0
 62
     4
 10
3.57107
 20
0.516872
 30
0.0
 11
3.51238
 21
0.411133
 31
0.0
  0
LINE
  8
0
 62
     4
 10
3.51238
 20
0.411133
 30
0.0
 11
3.47711
 21
0.446397
 31
0.0
  0
LINE
  8
0
 62
     4
 10
3.47711
 20
0.446397
 30
0.0
 11
3.47711
 21
0.5051
 31
0.0
  0
LINE
  8
0
 62
     4
 10
3.47711
 20
0.5051
 30
0.0
 11
3.45361
 21
0.528592
 31
0.0
  0
LINE
  8
0
 62
     4
 10
3.45361
 20
0.528592
 30
0.0
 11
3.2539
 21
0.528592
 31
0.0
  0
LINE
  8
0
 62
     4
 10
3.2539
 20
0.528592
 30
0.0
 11
3.19515
 21
0.458117
 31
0.0
  0
LINE
  8
0
 62
     4
 10
3.19515
 20
0.458117
 30
0.0
 11
3.12468
 21
0.481662
 31
0.0
  0
LINE
  8
0
 62
     4
 10
3.12468
 20
0.481662
 30
0.0
 11
2.88975
 21
0.481662
 31
0.0
  0
LINE
  8
0
 62
     4
 10
2.88975
 20
0.481662
 30
0.0
 11
2.84278
 21
0.516872
 31
0.0
  0
LINE
  8
0
 62
     4
 10
2.84278
 20
0.516872
 30
0.0
 11
2.64307
 21
0.516872
 31
0.0
  0
LINE
  8
0
 62
     4
 10
2.64307
 20
0.516872
 30
0.0
 11
2.60781
 21
0.493381
 31
0.0
  0
LINE
  8
0
 62
     4
 10
2.60781
 20
0.493381
 30
0.0
 11
2.56082
 21
0.516872
 31
0.0
  0
LINE
  8
0
 62
     4
 10
2.56082
 20
0.516872
 30
0.0
 11
2.03222
 21
0.516872
 31
0.0
  0
LINE
  8
0
 62
     4
 10
2.03222
 20
0.516872
 30
0.0
 11
1.99696
 21
0.493381
 31
0.0
  0
LINE
  8
0
 62
     4
 10
1.99696
 20
0.493381
 30
0.0
 11
1.96175
 21
0.516872
 31
0.0
  0
LINE
  8
0
 62
     4
 10
1.96175
 20
0.516872
 30
0.0
 11
1.66808
 21
0.528592
 31
0.0
  0
LINE
  8
0
 62
     4
 10
1.66808
 20
0.528592
 30
0.0
 11
1.64458
 21
0.5051
 31
0.0
  0
LINE
  8
0
 62
     4
 10
1.64458
 20
0.5051
 30
0.0
 11
1.64458
 21
0.328939
 31
0.0
  0
LINE
  8
0
 62
     4
 10
1.64458
 20
0.328939
 30
0.0
 11
1.70329
 21
0.281956
 31
0.0
  0
LINE
  8
0
 62
     4
 10
1.70329
 20
0.281956
 30
0.0
 11
1.64458
 21
0.24669
 31
0.0
  0
LINE
  8
0
 62
     4
 10
1.64458
 20
0.24669
 30
0.0
 11
1.6211
 21
0.270182
 31
0.0
  0
LINE
  8
0
 62
     4
 10
1.6211
 20
0.270182
 30
0.0
 11
1.6211
 21
0.469889
 31
0.0
  0
LINE
  8
0
 62
     4
 10
1.6211
 20
0.469889
 30
0.0
 11
1.58583
 21
0.5051
 31
0.0
  0
LINE
  8
0
 62
     4
 10
1.58583
 20
0.5051
 30
0.0
 11
1.46838
 21
0.5051
 31
0.0
  0
LINE
  8
0
 62
     4
 10
1.46838
 20
0.5051
 30
0.0
 11
1.43317
 21
0.481662
 31
0.0
  0
LINE
  8
0
 62
     4
 10
1.43317
 20
0.481662
 30
0.0
 11
1.26866
 21
0.481662
 31
0.0
  0
LINE
  8
0
 62
     4
 10
1.26866
 20
0.481662
 30
0.0
 11
1.22168
 21
0.516872
 31
0.0
  0
LINE
  8
0
 62
     4
 10
1.22168
 20
0.516872
 30
0.0
 11
1.10422
 21
0.516872
 31
0.0
  0
LINE
  8
0
 62
     4
 10
1.10422
 20
0.516872
 30
0.0
 11
1.05724
 21
0.481662
 31
0.0
  0
LINE
  8
0
 62
     4
 10
1.05724
 20
0.481662
 30
0.0
 11
0.904514
 21
0.481662
 31
0.0
  0
LINE
  8
0
 62
     4
 10
0.904514
 20
0.481662
 30
0.0
 11
0.857531
 21
0.516872
 31
0.0
  0
LINE
  8
0
 62
     4
 10
0.857531
 20
0.516872
 30
0.0
 11
0.681315
 21
0.516872
 31
0.0
  0
LINE
  8
0
 62
     4
 10
0.681315
 20
0.516872
 30
0.0
 11
0.634332
 21
0.481662
 31
0.0
  0
LINE
  8
0
 62
     4
 10
0.634332
 20
0.481662
 30
0.0
 11
0.305393
 21
0.481662
 31
0.0
  0
LINE
  8
0
 62
     4
 10
0.305393
 20
0.481662
 30
0.0
 11
0.281901
 21
0.5051
 31
0.0
  0
LINE
  8
0
 62
     4
 10
0.281901
 20
0.5051
 30
0.0
 11
0.293674
 21
0.516872
 31
0.0
  0
LINE
  8
0
 62
     4
 10
0.293674
 20
0.516872
 30
0.0
 11
0.352431
 21
0.516872
 31
0.0
  0
LINE
  8
0
 62
     4
 10
0.352431
 20
0.516872
 30
0.0
 11
0.399414
 21
0.552083
 31
0.0
  0
LINE
  8
0
 62
     4
 10
0.399414
 20
0.552083
 30
0.0
 11
0.5051
 21
0.528592
 31
0.0
  0
LINE
  8
0
 62
     4
 10
0.5051
 20
0.528592
 30
0.0
 11
0.974989
 21
0.540364
 31
0.0
  0
LINE
  8
0
 62
     4
 10
0.974989
 20
0.540364
 30
0.0
 11
1.02197
 21
0.587349
 31
0.0
  0
LINE
  8
0
 62
     4
 10
1.02197
 20
0.587349
 30
0.0
 11
1.02197
 21
0.728299
 31
0.0
  0
LINE
  8
0
 62
     4
 10
1.02197
 20
0.728299
 30
0.0
 11
0.986762
 21
0.787056
 31
0.0
  0
LINE
  8
0
 62
     4
 10
0.986762
 20
0.787056
 30
0.0
 11
0.534506
 21
0.787056
 31
0.0
  0
LINE
  8
0
 62
     4
 10
0.534506
 20
0.787056
 30
0.0
 11
0.352431
 21
0.787056
 31
0.0
  0
LINE
  8
0
 62
     4
 10
0.352431
 20
0.787056
 30
0.0
 11
0.317165
 21
0.763564
 31
0.0
  0
LINE
  8
0
 62
     4
 10
0.317165
 20
0.763564
 30
0.0
 11
0.223199
 21
0.763564
 31
0.0
  0
LINE
  8
0
 62
     4
 10
0.223199
 20
0.763564
 30
0.0
 11
0.187933
 21
0.787056
 31
0.0
  0
LINE
  8
0
 62
     4
 10
0.187933
 20
0.787056
 30
0.0
 11
0.0469835
 21
0.787056
 31
0.0
  0
LINE
  8
0
 62
     4
 10
0.0469835
 20
0.787056
 30
0.0
 11
0
 21
0.704807
 31
0.0
  0
LINE
  8
0
 62
     4
 10
0
 20
0.704807
 30
0.0
 11
0
 21
0.575575
 31
0.0
  0
LINE
  8
0
 62
     4
 10
0
 20
0.575575
 30
0.0
 11
0.0234918
 21
0.552083
 31
0.0
  0
LINE
  8
0
 62
     4
 10
0.0234918
 20
0.552083
 30
0.0
 11
0.10574
 21
0.552083
 31
0.0
  0
LINE
  8
0
 62
     4
 10
0.10574
 20
0.552083
 30
0.0
 11
0.176215
 21
0.528592
 31
0.0
  0
LINE
  8
0
 62
     4
 10
0.176215
 20
0.528592
 30
0.0
 11
0.0469835
 21
0.516872
 31
0.0
  0
LINE
  8
0
 62
     4
 10
0.0469835
 20
0.516872
 30
0.0
 11
0
 21
0.469889
 31
0.0
  0
LINE
  8
0
 62
     4
 10
0
 20
0.469889
 30
0.0
 11
0
 21
0.463975
 31
0.0
  0
LINE
  8
0
 62
     4
 10
0
 20
0.463975
 30
0.0
 11
0.0117188
 21
0.463975
 31
0.0
  0
LINE
  8
0
 62
     4
 10
0.0117188
 20
0.463975
 30
0.0
 11
0.0117188
 21
0.281956
 31
0.0
  0
LINE
  8
0
 62
     4
 10
0.0117188
 20
0.281956
 30
0.0
 11
0.0234918
 21
0.270182
 31
0.0
  0
LINE
  8
0
 62
     4
 10
0.0234918
 20
0.270182
 30
0.0
 11
0.0117188
 21
0.229058
 31
0.0
  0
LINE
  8
0
 62
     4
 10
0.0117188
 20
0.229058
 30
0.0
 11
0.0117188
 21
0.0264214
 31
0.0
  0
LINE
  8
0
 62
     4
 10
0.0117188
 20
0.0264214
 30
0.0
 11
0.0469835
 21
-0
 31
0.0
  0
LINE
  8
0
 62
     4
 10
0.0469835
 20
-0
 30
0.0
 11
2.27892
 21
-0
 31
0.0
  0
LINE
  8
0
 62
     4
 10
2.27892
 20
-0
 30
0.0
 11
2.3024
 21
0.0234918
 31
0.0
  0
LINE
  8
0
 62
     4
 10
2.3024
 20
0.0234918
 30
0.0
 11
2.3024
 21
0.164442
 31
0.0
  0
LINE
  8
0
 62
     4
 10
2.3024
 20
0.164442
 30
0.0
 11
2.20844
 21
0.234918
 31
0.0
  0
LINE
  8
0
 62
     4
 10
2.20844
 20
0.234918
 30
0.0
 11
2.23193
 21
0.258464
 31
0.0
  0
LINE
  8
0
 62
     4
 10
2.23193
 20
0.258464
 30
0.0
 11
2.76053
 21
0.258464
 31
0.0
  0
LINE
  8
0
 62
     4
 10
2.76053
 20
0.258464
 30
0.0
 11
3.18343
 21
0.234918
 31
0.0
  0
LINE
  8
0
 62
     4
 10
3.18343
 20
0.234918
 30
0.0
 11
3.20692
 21
0.258464
 31
0.0
  0
LINE
  8
0
 62
     4
 10
3.20692
 20
0.258464
 30
0.0
 11
3.82954
 21
0.258464
 31
0.0
  0
LINE
  8
0
 62
     4
 10
3.82954
 20
0.258464
 30
0.0
 11
3.86475
 21
0.305447
 31
0.0
  0
LINE
  8
0
 62
     4
 10
3.86475
 20
0.305447
 30
0.0
 11
3.86475
 21
0.469889
 31
0.0
  0
LINE
  8
0
 62
     4
 10
3.86475
 20
0.469889
 30
0.0
 11
3.80604
 21
0.516872
 31
0.0
  0
ENDSEC
  0
EOF
