  0
SECTION
  2
HEADER
  9
$ACADVER
  1
AC1009
  9
$EXTMIN
 10
0.0
 20
0.0
 30
0.0
  9
$EXTMAX
 10
1000.0
 20
1000.0
 30
0.0
  9
$FILLMODE
 70
 0
  9
$SPLFRAME
 70
 1
  0
ENDSEC
  0
SECTION
  2
TABLES
  0
TABLE
  2
LAYER
 70
1
  0
LAYER
  2
0
 70
     0
 62
     7
  6
CONTINUOUS
  0
ENDTAB
  0
ENDSEC
  0
SECTION
  2
ENTITIES
  0
LINE
  8
0
 62
     160
 10
1.00125
 20
0.540364
 30
0.0
 11
1.01866
 21
0.547851
 31
0.0
  0
LINE
  8
0
 62
     160
 10
1.01866
 20
0.547851
 30
0.0
 11
1.06565
 21
0.594835
 31
0.0
  0
LINE
  8
0
 62
     160
 10
1.06565
 20
0.594835
 30
0.0
 11
1.07319
 21
0.612956
 31
0.0
  0
LINE
  8
0
 62
     160
 10
1.07319
 20
0.612956
 30
0.0
 11
1.07319
 21
0.753906
 31
0.0
  0
LINE
  8
0
 62
     160
 10
1.07319
 20
0.753906
 30
0.0
 11
1.06944
 21
0.767144
 31
0.0
  0
LINE
  8
0
 62
     160
 10
1.06944
 20
0.767144
 30
0.0
 11
1.04595
 21
0.805935
 31
0.0
  0
LINE
  8
0
 62
     160
 10
1.04595
 20
0.805935
 30
0.0
 11
1.00223
 21
0.779406
 31
0.0
  0
LINE
  8
0
 62
     160
 10
1.00223
 20
0.779406
 30
0.0
 11
1.02197
 21
0.746744
 31
0.0
  0
LINE
  8
0
 62
     160
 10
1.02197
 20
0.746744
 30
0.0
 11
1.02197
 21
0.623535
 31
0.0
  0
LINE
  8
0
 62
     160
 10
1.02197
 20
0.623535
 30
0.0
 11
0.989746
 21
0.591254
 31
0.0
  0
LINE
  8
0
 62
     160
 10
0.989746
 20
0.591254
 30
0.0
 11
0.96799
 21
0.590711
 31
0.0
  0
LINE
  8
0
 62
     160
 10
0.96799
 20
0.590711
 30
0.0
 11
0.969239
 21
0.539551
 31
0.0
  0
LINE
  8
0
 62
     160
 10
0.969239
 20
0.539551
 30
0.0
 11
1.00125
 21
0.540364
 31
0.0
  0
LINE
  8
0
 62
     160
 10
0.409614
 20
0.598144
 30
0.0
 11
0.367622
 21
0.566678
 31
0.0
  0
LINE
  8
0
 62
     160
 10
0.367622
 20
0.566678
 30
0.0
 11
0.303331
 21
0.555935
 31
0.0
  0
LINE
  8
0
 62
     160
 10
0.303331
 20
0.555935
 30
0.0
 11
0.290744
 21
0.550076
 31
0.0
  0
LINE
  8
0
 62
     160
 10
0.290744
 20
0.550076
 30
0.0
 11
0.283149
 21
0.538519
 31
0.0
  0
LINE
  8
0
 62
     160
 10
0.283149
 20
0.538519
 30
0.0
 11
0.289442
 21
0.512642
 31
0.0
  0
LINE
  8
0
 62
     160
 10
0.289442
 20
0.512642
 30
0.0
 11
0.312933
 21
0.48915
 31
0.0
  0
LINE
  8
0
 62
     160
 10
0.312933
 20
0.48915
 30
0.0
 11
0.331
 21
0.481608
 31
0.0
  0
LINE
  8
0
 62
     160
 10
0.331
 20
0.481608
 30
0.0
 11
0.396213
 21
0.481608
 31
0.0
  0
LINE
  8
0
 62
     160
 10
0.396213
 20
0.481608
 30
0.0
 11
0.396213
 21
0.524143
 31
0.0
  0
LINE
  8
0
 62
     160
 10
0.396213
 20
0.524143
 30
0.0
 11
0.430935
 21
0.550185
 31
0.0
  0
LINE
  8
0
 62
     160
 10
0.430935
 20
0.550185
 30
0.0
 11
0.515517
 21
0.531358
 31
0.0
  0
LINE
  8
0
 62
     160
 10
0.515517
 20
0.531358
 30
0.0
 11
0.526585
 21
0.581326
 31
0.0
  0
LINE
  8
0
 62
     160
 10
0.526585
 20
0.581326
 30
0.0
 11
0.430501
 21
0.602701
 31
0.0
  0
LINE
  8
0
 62
     160
 10
0.430501
 20
0.602701
 30
0.0
 11
0.409614
 21
0.598144
 31
0.0
  0
LINE
  8
0
 62
     160
 10
0.898492
 20
0.562933
 30
0.0
 11
0.883137
 21
0.568033
 31
0.0
  0
LINE
  8
0
 62
     160
 10
0.883137
 20
0.568033
 30
0.0
 11
0.85281
 21
0.568033
 31
0.0
  0
LINE
  8
0
 62
     160
 10
0.85281
 20
0.568033
 30
0.0
 11
0.85281
 21
0.516872
 31
0.0
  0
LINE
  8
0
 62
     160
 10
0.85281
 20
0.516872
 30
0.0
 11
0.874567
 21
0.516872
 31
0.0
  0
LINE
  8
0
 62
     160
 10
0.874567
 20
0.516872
 30
0.0
 11
0.914768
 21
0.486763
 31
0.0
  0
LINE
  8
0
 62
     160
 10
0.914768
 20
0.486763
 30
0.0
 11
0.930122
 21
0.481608
 31
0.0
  0
LINE
  8
0
 62
     160
 10
0.930122
 20
0.481608
 30
0.0
 11
1.07525
 21
0.481608
 31
0.0
  0
LINE
  8
0
 62
     160
 10
1.07525
 20
0.481608
 30
0.0
 11
1.07525
 21
0.532824
 31
0.0
  0
LINE
  8
0
 62
     160
 10
1.07525
 20
0.532824
 30
0.0
 11
0.938639
 21
0.532824
 31
0.0
  0
LINE
  8
0
 62
     160
 10
0.938639
 20
0.532824
 30
0.0
 11
0.898492
 21
0.562933
 31
0.0
  0
LINE
  8
0
 62
     160
 10
1.67415
 20
0.304525
 30
0.0
 11
1.67225
 21
0.306369
 31
0.0
  0
LINE
  8
0
 62
     160
 10
1.67225
 20
0.306369
 30
0.0
 11
1.67225
 21
0.320042
 31
0.0
  0
LINE
  8
0
 62
     160
 10
1.67225
 20
0.320042
 30
0.0
 11
1.68419
 21
0.310547
 31
0.0
  0
LINE
  8
0
 62
     160
 10
1.68419
 20
0.310547
 30
0.0
 11
1.67415
 21
0.304525
 31
0.0
  0
LINE
  8
0
 62
     160
 10
1.69575
 20
0.366808
 30
0.0
 11
1.69575
 21
0.452963
 31
0.0
  0
LINE
  8
0
 62
     160
 10
1.69575
 20
0.452963
 30
0.0
 11
1.67225
 21
0.452963
 31
0.0
  0
LINE
  8
0
 62
     160
 10
1.67225
 20
0.452963
 30
0.0
 11
1.67225
 21
0.465549
 31
0.0
  0
LINE
  8
0
 62
     160
 10
1.67225
 20
0.465549
 30
0.0
 11
1.69575
 21
0.465549
 31
0.0
  0
LINE
  8
0
 62
     160
 10
1.69575
 20
0.465549
 30
0.0
 11
1.69575
 21
0.520128
 31
0.0
  0
LINE
  8
0
 62
     160
 10
1.69575
 20
0.520128
 30
0.0
 11
1.70383
 21
0.528211
 31
0.0
  0
LINE
  8
0
 62
     160
 10
1.70383
 20
0.528211
 30
0.0
 11
1.79096
 21
0.524685
 31
0.0
  0
LINE
  8
0
 62
     160
 10
1.79096
 20
0.524685
 30
0.0
 11
1.79303
 21
0.575846
 31
0.0
  0
LINE
  8
0
 62
     160
 10
1.79303
 20
0.575846
 30
0.0
 11
1.69467
 21
0.579753
 31
0.0
  0
LINE
  8
0
 62
     160
 10
1.69467
 20
0.579753
 30
0.0
 11
1.67557
 21
0.572319
 31
0.0
  0
LINE
  8
0
 62
     160
 10
1.67557
 20
0.572319
 30
0.0
 11
1.65207
 21
0.548828
 31
0.0
  0
LINE
  8
0
 62
     160
 10
1.65207
 20
0.548828
 30
0.0
 11
1.64486
 21
0.533475
 31
0.0
  0
LINE
  8
0
 62
     160
 10
1.64486
 20
0.533475
 30
0.0
 11
1.6295
 21
0.548828
 31
0.0
  0
LINE
  8
0
 62
     160
 10
1.6295
 20
0.548828
 30
0.0
 11
1.61143
 21
0.556315
 31
0.0
  0
LINE
  8
0
 62
     160
 10
1.61143
 20
0.556315
 30
0.0
 11
1.51303
 21
0.556315
 31
0.0
  0
LINE
  8
0
 62
     160
 10
1.51303
 20
0.556315
 30
0.0
 11
1.51303
 21
0.5051
 31
0.0
  0
LINE
  8
0
 62
     160
 10
1.51303
 20
0.5051
 30
0.0
 11
1.60086
 21
0.5051
 31
0.0
  0
LINE
  8
0
 62
     160
 10
1.60086
 20
0.5051
 30
0.0
 11
1.6211
 21
0.484864
 31
0.0
  0
LINE
  8
0
 62
     160
 10
1.6211
 20
0.484864
 30
0.0
 11
1.6211
 21
0.446886
 31
0.0
  0
LINE
  8
0
 62
     160
 10
1.6211
 20
0.446886
 30
0.0
 11
1.64458
 21
0.446886
 31
0.0
  0
LINE
  8
0
 62
     160
 10
1.64458
 20
0.446886
 30
0.0
 11
1.64458
 21
0.394206
 31
0.0
  0
LINE
  8
0
 62
     160
 10
1.64458
 20
0.394206
 30
0.0
 11
1.6211
 21
0.394206
 31
0.0
  0
LINE
  8
0
 62
     160
 10
1.6211
 20
0.394206
 30
0.0
 11
1.6211
 21
0.29579
 31
0.0
  0
LINE
  8
0
 62
     160
 10
1.6211
 20
0.29579
 30
0.0
 11
1.62858
 21
0.277669
 31
0.0
  0
LINE
  8
0
 62
     160
 10
1.62858
 20
0.277669
 30
0.0
 11
1.65207
 21
0.254178
 31
0.0
  0
LINE
  8
0
 62
     160
 10
1.65207
 20
0.254178
 30
0.0
 11
1.67019
 21
0.24669
 31
0.0
  0
LINE
  8
0
 62
     160
 10
1.67019
 20
0.24669
 30
0.0
 11
1.68332
 21
0.250325
 31
0.0
  0
LINE
  8
0
 62
     160
 10
1.68332
 20
0.250325
 30
0.0
 11
1.74208
 21
0.28559
 31
0.0
  0
LINE
  8
0
 62
     160
 10
1.74208
 20
0.28559
 30
0.0
 11
1.75444
 21
0.305826
 31
0.0
  0
LINE
  8
0
 62
     160
 10
1.75444
 20
0.305826
 30
0.0
 11
1.7449
 21
0.327528
 31
0.0
  0
LINE
  8
0
 62
     160
 10
1.7449
 20
0.327528
 30
0.0
 11
1.69575
 21
0.366808
 31
0.0
  0
LINE
  8
0
 62
     160
 10
2.04363
 20
0.563747
 30
0.0
 11
2.02257
 21
0.54975
 31
0.0
  0
LINE
  8
0
 62
     160
 10
2.02257
 20
0.54975
 30
0.0
 11
2.00151
 21
0.563747
 31
0.0
  0
LINE
  8
0
 62
     160
 10
2.00151
 20
0.563747
 30
0.0
 11
1.98833
 21
0.568033
 31
0.0
  0
LINE
  8
0
 62
     160
 10
1.98833
 20
0.568033
 30
0.0
 11
1.93235
 21
0.570258
 31
0.0
  0
LINE
  8
0
 62
     160
 10
1.93235
 20
0.570258
 30
0.0
 11
1.93028
 21
0.519151
 31
0.0
  0
LINE
  8
0
 62
     160
 10
1.93028
 20
0.519151
 30
0.0
 11
1.97911
 21
0.517199
 31
0.0
  0
LINE
  8
0
 62
     160
 10
1.97911
 20
0.517199
 30
0.0
 11
2.00836
 21
0.497667
 31
0.0
  0
LINE
  8
0
 62
     160
 10
2.00836
 20
0.497667
 30
0.0
 11
2.02257
 21
0.493381
 31
0.0
  0
LINE
  8
0
 62
     160
 10
2.02257
 20
0.493381
 30
0.0
 11
2.03678
 21
0.497667
 31
0.0
  0
LINE
  8
0
 62
     160
 10
2.03678
 20
0.497667
 30
0.0
 11
2.06554
 21
0.516872
 31
0.0
  0
LINE
  8
0
 62
     160
 10
2.06554
 20
0.516872
 30
0.0
 11
2.11388
 21
0.516872
 31
0.0
  0
LINE
  8
0
 62
     160
 10
2.11388
 20
0.516872
 30
0.0
 11
2.11388
 21
0.568033
 31
0.0
  0
LINE
  8
0
 62
     160
 10
2.11388
 20
0.568033
 30
0.0
 11
2.05778
 21
0.568033
 31
0.0
  0
LINE
  8
0
 62
     160
 10
2.05778
 20
0.568033
 30
0.0
 11
2.04363
 21
0.563747
 31
0.0
  0
LINE
  8
0
 62
     160
 10
2.67638
 20
0.516872
 30
0.0
 11
2.72472
 21
0.516872
 31
0.0
  0
LINE
  8
0
 62
     160
 10
2.72472
 20
0.516872
 30
0.0
 11
2.72472
 21
0.568033
 31
0.0
  0
LINE
  8
0
 62
     160
 10
2.72472
 20
0.568033
 30
0.0
 11
2.66868
 21
0.568033
 31
0.0
  0
LINE
  8
0
 62
     160
 10
2.66868
 20
0.568033
 30
0.0
 11
2.65446
 21
0.563747
 31
0.0
  0
LINE
  8
0
 62
     160
 10
2.65446
 20
0.563747
 30
0.0
 11
2.63157
 21
0.548503
 31
0.0
  0
LINE
  8
0
 62
     160
 10
2.63157
 20
0.548503
 30
0.0
 11
2.59787
 21
0.565375
 31
0.0
  0
LINE
  8
0
 62
     160
 10
2.59787
 20
0.565375
 30
0.0
 11
2.58643
 21
0.568033
 31
0.0
  0
LINE
  8
0
 62
     160
 10
2.58643
 20
0.568033
 30
0.0
 11
2.54053
 21
0.568033
 31
0.0
  0
LINE
  8
0
 62
     160
 10
2.54053
 20
0.568033
 30
0.0
 11
2.54053
 21
0.516872
 31
0.0
  0
LINE
  8
0
 62
     160
 10
2.54053
 20
0.516872
 30
0.0
 11
2.5804
 21
0.516872
 31
0.0
  0
LINE
  8
0
 62
     160
 10
2.5804
 20
0.516872
 30
0.0
 11
2.62196
 21
0.496094
 31
0.0
  0
LINE
  8
0
 62
     160
 10
2.62196
 20
0.496094
 30
0.0
 11
2.6334
 21
0.493381
 31
0.0
  0
LINE
  8
0
 62
     160
 10
2.6334
 20
0.493381
 30
0.0
 11
2.64762
 21
0.497667
 31
0.0
  0
LINE
  8
0
 62
     160
 10
2.64762
 20
0.497667
 30
0.0
 11
2.67638
 21
0.516872
 31
0.0
  0
LINE
  8
0
 62
     160
 10
3.25988
 20
0.570583
 30
0.0
 11
3.21229
 21
0.51351
 31
0.0
  0
LINE
  8
0
 62
     160
 10
3.21229
 20
0.51351
 30
0.0
 11
3.15836
 21
0.531521
 31
0.0
  0
LINE
  8
0
 62
     160
 10
3.15836
 20
0.531521
 30
0.0
 11
3.15028
 21
0.532824
 31
0.0
  0
LINE
  8
0
 62
     160
 10
3.15028
 20
0.532824
 30
0.0
 11
3.12614
 21
0.532824
 31
0.0
  0
LINE
  8
0
 62
     160
 10
3.12614
 20
0.532824
 30
0.0
 11
3.12614
 21
0.481608
 31
0.0
  0
LINE
  8
0
 62
     160
 10
3.12614
 20
0.481608
 30
0.0
 11
3.14611
 21
0.481608
 31
0.0
  0
LINE
  8
0
 62
     160
 10
3.14611
 20
0.481608
 30
0.0
 11
3.21267
 21
0.459472
 31
0.0
  0
LINE
  8
0
 62
     160
 10
3.21267
 20
0.459472
 30
0.0
 11
3.22076
 21
0.458117
 31
0.0
  0
LINE
  8
0
 62
     160
 10
3.22076
 20
0.458117
 30
0.0
 11
3.2404
 21
0.467339
 31
0.0
  0
LINE
  8
0
 62
     160
 10
3.2404
 20
0.467339
 30
0.0
 11
3.2915
 21
0.528592
 31
0.0
  0
LINE
  8
0
 62
     160
 10
3.2915
 20
0.528592
 30
0.0
 11
3.37793
 21
0.528592
 31
0.0
  0
LINE
  8
0
 62
     160
 10
3.37793
 20
0.528592
 30
0.0
 11
3.37793
 21
0.579807
 31
0.0
  0
LINE
  8
0
 62
     160
 10
3.37793
 20
0.579807
 30
0.0
 11
3.27951
 21
0.579807
 31
0.0
  0
LINE
  8
0
 62
     160
 10
3.27951
 20
0.579807
 30
0.0
 11
3.25988
 21
0.570583
 31
0.0
  0
LINE
  8
0
 62
     160
 10
3.57433
 20
0.554904
 30
0.0
 11
3.53207
 21
0.478787
 31
0.0
  0
LINE
  8
0
 62
     160
 10
3.53207
 20
0.478787
 30
0.0
 11
3.52826
 21
0.482585
 31
0.0
  0
LINE
  8
0
 62
     160
 10
3.52826
 20
0.482585
 30
0.0
 11
3.52826
 21
0.530707
 31
0.0
  0
LINE
  8
0
 62
     160
 10
3.52826
 20
0.530707
 30
0.0
 11
3.52078
 21
0.548828
 31
0.0
  0
LINE
  8
0
 62
     160
 10
3.52078
 20
0.548828
 30
0.0
 11
3.49729
 21
0.572319
 31
0.0
  0
LINE
  8
0
 62
     160
 10
3.49729
 20
0.572319
 30
0.0
 11
3.47922
 21
0.579807
 31
0.0
  0
LINE
  8
0
 62
     160
 10
3.47922
 20
0.579807
 30
0.0
 11
3.47271
 21
0.579807
 31
0.0
  0
LINE
  8
0
 62
     160
 10
3.47271
 20
0.579807
 30
0.0
 11
3.47271
 21
0.547743
 31
0.0
  0
LINE
  8
0
 62
     160
 10
3.47271
 20
0.547743
 30
0.0
 11
3.4611
 21
0.536133
 31
0.0
  0
LINE
  8
0
 62
     160
 10
3.4611
 20
0.536133
 30
0.0
 11
3.47711
 21
0.520128
 31
0.0
  0
LINE
  8
0
 62
     160
 10
3.47711
 20
0.520128
 30
0.0
 11
3.47711
 21
0.471951
 31
0.0
  0
LINE
  8
0
 62
     160
 10
3.47711
 20
0.471951
 30
0.0
 11
3.4846
 21
0.453885
 31
0.0
  0
LINE
  8
0
 62
     160
 10
3.4846
 20
0.453885
 30
0.0
 11
3.51986
 21
0.418674
 31
0.0
  0
LINE
  8
0
 62
     160
 10
3.51986
 20
0.418674
 30
0.0
 11
3.53792
 21
0.411133
 31
0.0
  0
LINE
  8
0
 62
     160
 10
3.53792
 20
0.411133
 30
0.0
 11
3.5415
 21
0.411404
 31
0.0
  0
LINE
  8
0
 62
     160
 10
3.5415
 20
0.411404
 30
0.0
 11
3.56033
 21
0.424317
 31
0.0
  0
LINE
  8
0
 62
     160
 10
3.56033
 20
0.424317
 30
0.0
 11
3.61171
 21
0.516872
 31
0.0
  0
LINE
  8
0
 62
     160
 10
3.61171
 20
0.516872
 30
0.0
 11
3.6951
 21
0.516872
 31
0.0
  0
LINE
  8
0
 62
     160
 10
3.6951
 20
0.516872
 30
0.0
 11
3.6951
 21
0.568033
 31
0.0
  0
LINE
  8
0
 62
     160
 10
3.6951
 20
0.568033
 30
0.0
 11
3.59668
 21
0.568033
 31
0.0
  0
LINE
  8
0
 62
     160
 10
3.59668
 20
0.568033
 30
0.0
 11
3.57433
 21
0.554904
 31
0.0
  0
LINE
  8
0
 62
     160
 10
3.90636
 20
0.515463
 30
0.0
 11
3.8476
 21
0.562446
 31
0.0
  0
LINE
  8
0
 62
     160
 10
3.8476
 20
0.562446
 30
0.0
 11
3.8316
 21
0.568033
 31
0.0
  0
LINE
  8
0
 62
     160
 10
3.8316
 20
0.568033
 30
0.0
 11
3.80843
 21
0.568033
 31
0.0
  0
LINE
  8
0
 62
     160
 10
3.80843
 20
0.568033
 30
0.0
 11
3.80843
 21
0.516872
 31
0.0
  0
LINE
  8
0
 62
     160
 10
3.80843
 20
0.516872
 30
0.0
 11
3.82264
 21
0.516872
 31
0.0
  0
LINE
  8
0
 62
     160
 10
3.82264
 20
0.516872
 30
0.0
 11
3.86475
 21
0.483182
 31
0.0
  0
LINE
  8
0
 62
     160
 10
3.86475
 20
0.483182
 30
0.0
 11
3.86475
 21
0.397026
 31
0.0
  0
LINE
  8
0
 62
     160
 10
3.86475
 20
0.397026
 30
0.0
 11
3.91596
 21
0.397026
 31
0.0
  0
LINE
  8
0
 62
     160
 10
3.91596
 20
0.397026
 30
0.0
 11
3.91596
 21
0.495443
 31
0.0
  0
LINE
  8
0
 62
     160
 10
3.91596
 20
0.495443
 30
0.0
 11
3.90636
 21
0.515463
 31
0.0
  0
LINE
  8
0
 62
     160
 10
3.86475
 20
0.339518
 30
0.0
 11
3.84229
 21
0.309625
 31
0.0
  0
LINE
  8
0
 62
     160
 10
3.84229
 20
0.309625
 30
0.0
 11
3.75667
 21
0.309625
 31
0.0
  0
LINE
  8
0
 62
     160
 10
3.75667
 20
0.309625
 30
0.0
 11
3.75667
 21
0.25841
 31
0.0
  0
LINE
  8
0
 62
     160
 10
3.75667
 20
0.25841
 30
0.0
 11
3.85508
 21
0.25841
 31
0.0
  0
LINE
  8
0
 62
     160
 10
3.85508
 20
0.25841
 30
0.0
 11
3.87554
 21
0.268664
 31
0.0
  0
LINE
  8
0
 62
     160
 10
3.87554
 20
0.268664
 30
0.0
 11
3.91081
 21
0.315647
 31
0.0
  0
LINE
  8
0
 62
     160
 10
3.91081
 20
0.315647
 30
0.0
 11
3.91596
 21
0.331
 31
0.0
  0
LINE
  8
0
 62
     160
 10
3.91596
 20
0.331
 30
0.0
 11
3.91596
 21
0.370714
 31
0.0
  0
LINE
  8
0
 62
     160
 10
3.91596
 20
0.370714
 30
0.0
 11
3.86475
 21
0.370714
 31
0.0
  0
LINE
  8
0
 62
     160
 10
3.86475
 20
0.370714
 30
0.0
 11
3.86475
 21
0.339518
 31
0.0
  0
LINE
  8
0
 62
     160
 10
3.21442
 20
0.302138
 30
0.0
 11
3.199
 21
0.286729
 31
0.0
  0
LINE
  8
0
 62
     160
 10
3.199
 20
0.286729
 30
0.0
 11
3.11214
 21
0.291558
 31
0.0
  0
LINE
  8
0
 62
     160
 10
3.11214
 20
0.291558
 30
0.0
 11
3.10932
 21
0.240451
 31
0.0
  0
LINE
  8
0
 62
     160
 10
3.10932
 20
0.240451
 30
0.0
 11
3.20757
 21
0.234972
 31
0.0
  0
LINE
  8
0
 62
     160
 10
3.20757
 20
0.234972
 30
0.0
 11
3.20904
 21
0.234918
 31
0.0
  0
LINE
  8
0
 62
     160
 10
3.20904
 20
0.234918
 30
0.0
 11
3.22711
 21
0.242458
 31
0.0
  0
LINE
  8
0
 62
     160
 10
3.22711
 20
0.242458
 30
0.0
 11
3.24311
 21
0.25841
 31
0.0
  0
LINE
  8
0
 62
     160
 10
3.24311
 20
0.25841
 30
0.0
 11
3.29769
 21
0.25841
 31
0.0
  0
LINE
  8
0
 62
     160
 10
3.29769
 20
0.25841
 30
0.0
 11
3.29769
 21
0.309625
 31
0.0
  0
LINE
  8
0
 62
     160
 10
3.29769
 20
0.309625
 30
0.0
 11
3.23247
 21
0.309625
 31
0.0
  0
LINE
  8
0
 62
     160
 10
3.23247
 20
0.309625
 30
0.0
 11
3.21442
 21
0.302138
 31
0.0
  0
LINE
  8
0
 62
     160
 10
2.78614
 20
0.309625
 30
0.0
 11
2.63813
 21
0.309625
 31
0.0
  0
LINE
  8
0
 62
     160
 10
2.63813
 20
0.309625
 30
0.0
 11
2.63813
 21
0.25841
 31
0.0
  0
LINE
  8
0
 62
     160
 10
2.63813
 20
0.25841
 30
0.0
 11
2.78543
 21
0.25841
 31
0.0
  0
LINE
  8
0
 62
     160
 10
2.78543
 20
0.25841
 30
0.0
 11
2.79438
 21
0.257921
 31
0.0
  0
LINE
  8
0
 62
     160
 10
2.79438
 20
0.257921
 30
0.0
 11
2.79725
 21
0.309028
 31
0.0
  0
LINE
  8
0
 62
     160
 10
2.79725
 20
0.309028
 30
0.0
 11
2.78754
 21
0.309571
 31
0.0
  0
LINE
  8
0
 62
     160
 10
2.78754
 20
0.309571
 30
0.0
 11
2.78614
 21
0.309625
 31
0.0
  0
LINE
  8
0
 62
     160
 10
2.34338
 20
0.210503
 30
0.0
 11
2.27946
 21
0.25841
 31
0.0
  0
LINE
  8
0
 62
     160
 10
2.27946
 20
0.25841
 30
0.0
 11
2.32269
 21
0.25841
 31
0.0
  0
LINE
  8
0
 62
     160
 10
2.32269
 20
0.25841
 30
0.0
 11
2.32269
 21
0.309625
 31
0.0
  0
LINE
  8
0
 62
     160
 10
2.32269
 20
0.309625
 30
0.0
 11
2.25749
 21
0.309625
 31
0.0
  0
LINE
  8
0
 62
     160
 10
2.25749
 20
0.309625
 30
0.0
 11
2.23942
 21
0.302138
 31
0.0
  0
LINE
  8
0
 62
     160
 10
2.23942
 20
0.302138
 30
0.0
 11
2.21593
 21
0.278646
 31
0.0
  0
LINE
  8
0
 62
     160
 10
2.21593
 20
0.278646
 30
0.0
 11
2.2085
 21
0.258735
 31
0.0
  0
LINE
  8
0
 62
     160
 10
2.2085
 20
0.258735
 30
0.0
 11
2.21864
 21
0.240072
 31
0.0
  0
LINE
  8
0
 62
     160
 10
2.21864
 20
0.240072
 30
0.0
 11
2.3024
 21
0.177246
 31
0.0
  0
LINE
  8
0
 62
     160
 10
2.3024
 20
0.177246
 30
0.0
 11
2.3024
 21
0.0916342
 31
0.0
  0
LINE
  8
0
 62
     160
 10
2.3024
 20
0.0916342
 30
0.0
 11
2.35357
 21
0.0916342
 31
0.0
  0
LINE
  8
0
 62
     160
 10
2.35357
 20
0.0916342
 30
0.0
 11
2.35357
 21
0.19005
 31
0.0
  0
LINE
  8
0
 62
     160
 10
2.35357
 20
0.19005
 30
0.0
 11
2.34338
 21
0.210503
 31
0.0
  0
LINE
  8
0
 62
     160
 10
1.18804
 20
-0
 30
0.0
 11
1.38672
 21
-0
 31
0.0
  0
LINE
  8
0
 62
     160
 10
1.38672
 20
-0
 30
0.0
 11
1.38672
 21
0.051161
 31
0.0
  0
LINE
  8
0
 62
     160
 10
1.38672
 20
0.051161
 30
0.0
 11
1.18804
 21
0.051161
 31
0.0
  0
LINE
  8
0
 62
     160
 10
1.18804
 20
0.051161
 30
0.0
 11
1.18804
 21
-0
 31
0.0
  0
LINE
  8
0
 62
     160
 10
0.591906
 20
-0
 30
0.0
 11
0.790582
 21
-0
 31
0.0
  0
LINE
  8
0
 62
     160
 10
0.790582
 20
-0
 30
0.0
 11
0.790582
 21
0.051161
 31
0.0
  0
LINE
  8
0
 62
     160
 10
0.790582
 20
0.051161
 30
0.0
 11
0.591906
 21
0.051161
 31
0.0
  0
LINE
  8
0
 62
     160
 10
0.591906
 20
0.051161
 30
0.0
 11
0.591906
 21
-0
 31
0.0
  0
LINE
  8
0
 62
     160
 10
1.78413
 20
-0
 30
0.0
 11
1.98286
 21
-0
 31
0.0
  0
LINE
  8
0
 62
     160
 10
1.98286
 20
-0
 30
0.0
 11
1.98286
 21
0.051161
 31
0.0
  0
LINE
  8
0
 62
     160
 10
1.98286
 20
0.051161
 30
0.0
 11
1.78413
 21
0.051161
 31
0.0
  0
LINE
  8
0
 62
     160
 10
1.78413
 20
0.051161
 30
0.0
 11
1.78413
 21
-0
 31
0.0
  0
LINE
  8
0
 62
     160
 10
0.0960829
 20
-0
 30
0.0
 11
0.194499
 21
-0
 31
0.0
  0
LINE
  8
0
 62
     160
 10
0.194499
 20
-0
 30
0.0
 11
0.194499
 21
0.051161
 31
0.0
  0
LINE
  8
0
 62
     160
 10
0.194499
 20
0.051161
 30
0.0
 11
0.0960829
 21
0.051161
 31
0.0
  0
LINE
  8
0
 62
     160
 10
0.0960829
 20
0.051161
 30
0.0
 11
0.0960829
 21
-0
 31
0.0
  0
LINE
  8
0
 62
     160
 10
0.0786675
 20
0.568739
 30
0.0
 11
0.0702582
 21
0.567979
 31
0.0
  0
LINE
  8
0
 62
     160
 10
0.0702582
 20
0.567979
 30
0.0
 11
0.0544706
 21
0.560547
 31
0.0
  0
LINE
  8
0
 62
     160
 10
0.0544706
 20
0.560547
 30
0.0
 11
0.00748697
 21
0.513564
 31
0.0
  0
LINE
  8
0
 62
     160
 10
0.00748697
 20
0.513564
 30
0.0
 11
0
 21
0.495443
 31
0.0
  0
LINE
  8
0
 62
     160
 10
0
 20
0.495443
 30
0.0
 11
0
 21
0.471951
 31
0.0
  0
LINE
  8
0
 62
     160
 10
0
 20
0.471951
 30
0.0
 11
0.051161
 21
0.471951
 31
0.0
  0
LINE
  8
0
 62
     160
 10
0.051161
 20
0.471951
 30
0.0
 11
0.051161
 21
0.484864
 31
0.0
  0
LINE
  8
0
 62
     160
 10
0.051161
 20
0.484864
 30
0.0
 11
0.0906575
 21
0.52436
 31
0.0
  0
LINE
  8
0
 62
     160
 10
0.0906575
 20
0.52436
 30
0.0
 11
0.0819228
 21
0.533094
 31
0.0
  0
LINE
  8
0
 62
     160
 10
0.0819228
 20
0.533094
 30
0.0
 11
0.0786675
 21
0.568739
 31
0.0
  0
LINE
  8
0
 62
     160
 10
0.209853
 20
0.578504
 30
0.0
 11
0.139378
 21
0.601997
 31
0.0
  0
LINE
  8
0
 62
     160
 10
0.139378
 20
0.601997
 30
0.0
 11
0.131293
 21
0.603299
 31
0.0
  0
LINE
  8
0
 62
     160
 10
0.131293
 20
0.603299
 30
0.0
 11
0.107205
 21
0.603299
 31
0.0
  0
LINE
  8
0
 62
     160
 10
0.107205
 20
0.603299
 30
0.0
 11
0.107205
 21
0.571289
 31
0.0
  0
LINE
  8
0
 62
     160
 10
0.107205
 20
0.571289
 30
0.0
 11
0.101454
 21
0.570801
 31
0.0
  0
LINE
  8
0
 62
     160
 10
0.101454
 20
0.570801
 30
0.0
 11
0.106066
 21
0.519803
 31
0.0
  0
LINE
  8
0
 62
     160
 10
0.106066
 20
0.519803
 30
0.0
 11
0.204101
 21
0.5287
 31
0.0
  0
LINE
  8
0
 62
     160
 10
0.204101
 20
0.5287
 30
0.0
 11
0.219618
 21
0.535915
 31
0.0
  0
LINE
  8
0
 62
     160
 10
0.219618
 20
0.535915
 30
0.0
 11
0.227214
 21
0.551269
 31
0.0
  0
LINE
  8
0
 62
     160
 10
0.227214
 20
0.551269
 30
0.0
 11
0.223361
 21
0.567979
 31
0.0
  0
LINE
  8
0
 62
     160
 10
0.223361
 20
0.567979
 30
0.0
 11
0.209853
 21
0.578504
 31
0.0
  0
LINE
  8
0
 62
     160
 10
0.0477974
 20
0.717719
 30
0.0
 11
0.0874024
 21
0.787056
 31
0.0
  0
LINE
  8
0
 62
     160
 10
0.0874024
 20
0.787056
 30
0.0
 11
0.171007
 21
0.787056
 31
0.0
  0
LINE
  8
0
 62
     160
 10
0.171007
 20
0.787056
 30
0.0
 11
0.171007
 21
0.838217
 31
0.0
  0
LINE
  8
0
 62
     160
 10
0.171007
 20
0.838217
 30
0.0
 11
0.0725911
 21
0.838217
 31
0.0
  0
LINE
  8
0
 62
     160
 10
0.0725911
 20
0.838217
 30
0.0
 11
0.0503472
 21
0.825358
 31
0.0
  0
LINE
  8
0
 62
     160
 10
0.0503472
 20
0.825358
 30
0.0
 11
0.00336372
 21
0.74311
 31
0.0
  0
LINE
  8
0
 62
     160
 10
0.00336372
 20
0.74311
 30
0.0
 11
0
 21
0.730414
 31
0.0
  0
LINE
  8
0
 62
     160
 10
0
 20
0.730414
 30
0.0
 11
0
 21
0.726671
 31
0.0
  0
LINE
  8
0
 62
     160
 10
0
 20
0.726671
 30
0.0
 11
0.0321181
 21
0.726671
 31
0.0
  0
LINE
  8
0
 62
     160
 10
0.0321181
 20
0.726671
 30
0.0
 11
0.0477974
 21
0.717719
 31
0.0
  0
LINE
  8
0
 62
     160
 10
0.479275
 20
0.787056
 30
0.0
 11
0.577692
 21
0.787056
 31
0.0
  0
LINE
  8
0
 62
     160
 10
0.577692
 20
0.787056
 30
0.0
 11
0.577692
 21
0.838217
 31
0.0
  0
LINE
  8
0
 62
     160
 10
0.577692
 20
0.838217
 30
0.0
 11
0.479275
 21
0.838217
 31
0.0
  0
LINE
  8
0
 62
     160
 10
0.479275
 20
0.838217
 30
0.0
 11
0.479275
 21
0.787056
 31
0.0
  0
ENDSEC
  0
EOF
