  0
SECTION
  2
HEADER
  9
$ACADVER
  1
AC1009
  9
$EXTMIN
 10
0.0
 20
0.0
 30
0.0
  9
$EXTMAX
 10
1000.0
 20
1000.0
 30
0.0
  9
$FILLMODE
 70
 0
  9
$SPLFRAME
 70
 1
  0
ENDSEC
  0
SECTION
  2
TABLES
  0
TABLE
  2
LAYER
 70
1
  0
LAYER
  2
0
 70
     0
 62
     7
  6
CONTINUOUS
  0
ENDTAB
  0
ENDSEC
  0
SECTION
  2
ENTITIES
  0
LINE
  8
0
 62
     160
 10
1.6945
 20
0.295139
 30
0.0
 11
1.65821
 21
0.273383
 31
0.0
  0
LINE
  8
0
 62
     160
 10
1.65821
 20
0.273383
 30
0.0
 11
1.64469
 21
0.286892
 31
0.0
  0
LINE
  8
0
 62
     160
 10
1.64469
 20
0.286892
 30
0.0
 11
1.64469
 21
0.339031
 31
0.0
  0
LINE
  8
0
 62
     160
 10
1.64469
 20
0.339031
 30
0.0
 11
1.64903
 21
0.331489
 31
0.0
  0
LINE
  8
0
 62
     160
 10
1.64903
 20
0.331489
 30
0.0
 11
1.6945
 21
0.295139
 31
0.0
  0
LINE
  8
0
 62
     160
 10
0.642199
 20
0.505262
 30
0.0
 11
0.322103
 21
0.505262
 31
0.0
  0
LINE
  8
0
 62
     160
 10
0.322103
 20
0.505262
 30
0.0
 11
0.318306
 21
0.50906
 31
0.0
  0
LINE
  8
0
 62
     160
 10
0.318306
 20
0.50906
 30
0.0
 11
0.366157
 21
0.517036
 31
0.0
  0
LINE
  8
0
 62
     160
 10
0.366157
 20
0.517036
 30
0.0
 11
0.371311
 21
0.51926
 31
0.0
  0
LINE
  8
0
 62
     160
 10
0.371311
 20
0.51926
 30
0.0
 11
0.413954
 21
0.551215
 31
0.0
  0
LINE
  8
0
 62
     160
 10
0.413954
 20
0.551215
 30
0.0
 11
0.514378
 21
0.528917
 31
0.0
  0
LINE
  8
0
 62
     160
 10
0.514378
 20
0.528917
 30
0.0
 11
0.517253
 21
0.528646
 31
0.0
  0
LINE
  8
0
 62
     160
 10
0.517253
 20
0.528646
 30
0.0
 11
0.678765
 21
0.532661
 31
0.0
  0
LINE
  8
0
 62
     160
 10
0.678765
 20
0.532661
 30
0.0
 11
0.642199
 21
0.505262
 31
0.0
  0
LINE
  8
0
 62
     160
 10
3.88396
 20
0.490886
 30
0.0
 11
3.82519
 21
0.537924
 31
0.0
  0
LINE
  8
0
 62
     160
 10
3.82519
 20
0.537924
 30
0.0
 11
3.81782
 21
0.540474
 31
0.0
  0
LINE
  8
0
 62
     160
 10
3.81782
 20
0.540474
 30
0.0
 11
3.5829
 21
0.540474
 31
0.0
  0
LINE
  8
0
 62
     160
 10
3.5829
 20
0.540474
 30
0.0
 11
3.5726
 21
0.534397
 31
0.0
  0
LINE
  8
0
 62
     160
 10
3.5726
 20
0.534397
 30
0.0
 11
3.52143
 21
0.442383
 31
0.0
  0
LINE
  8
0
 62
     160
 10
3.52143
 20
0.442383
 30
0.0
 11
3.50071
 21
0.463108
 31
0.0
  0
LINE
  8
0
 62
     160
 10
3.50071
 20
0.463108
 30
0.0
 11
3.50071
 21
0.516928
 31
0.0
  0
LINE
  8
0
 62
     160
 10
3.50071
 20
0.516928
 30
0.0
 11
3.49729
 21
0.525282
 31
0.0
  0
LINE
  8
0
 62
     160
 10
3.49729
 20
0.525282
 30
0.0
 11
3.47379
 21
0.548774
 31
0.0
  0
LINE
  8
0
 62
     160
 10
3.47379
 20
0.548774
 30
0.0
 11
3.46544
 21
0.552246
 31
0.0
  0
LINE
  8
0
 62
     160
 10
3.46544
 20
0.552246
 30
0.0
 11
3.26574
 21
0.552246
 31
0.0
  0
LINE
  8
0
 62
     160
 10
3.26574
 20
0.552246
 30
0.0
 11
3.25667
 21
0.548014
 31
0.0
  0
LINE
  8
0
 62
     160
 10
3.25667
 20
0.548014
 30
0.0
 11
3.20307
 21
0.483669
 31
0.0
  0
LINE
  8
0
 62
     160
 10
3.20307
 20
0.483669
 30
0.0
 11
3.14025
 21
0.504665
 31
0.0
  0
LINE
  8
0
 62
     160
 10
3.14025
 20
0.504665
 30
0.0
 11
3.1365
 21
0.505262
 31
0.0
  0
LINE
  8
0
 62
     160
 10
3.1365
 20
0.505262
 30
0.0
 11
2.90549
 21
0.505262
 31
0.0
  0
LINE
  8
0
 62
     160
 10
2.90549
 20
0.505262
 30
0.0
 11
2.86165
 21
0.53814
 31
0.0
  0
LINE
  8
0
 62
     160
 10
2.86165
 20
0.53814
 30
0.0
 11
2.8546
 21
0.540474
 31
0.0
  0
LINE
  8
0
 62
     160
 10
2.8546
 20
0.540474
 30
0.0
 11
2.65489
 21
0.540474
 31
0.0
  0
LINE
  8
0
 62
     160
 10
2.65489
 20
0.540474
 30
0.0
 11
2.64833
 21
0.538519
 31
0.0
  0
LINE
  8
0
 62
     160
 10
2.64833
 20
0.538519
 30
0.0
 11
2.61882
 21
0.518826
 31
0.0
  0
LINE
  8
0
 62
     160
 10
2.61882
 20
0.518826
 30
0.0
 11
2.5779
 21
0.539225
 31
0.0
  0
LINE
  8
0
 62
     160
 10
2.5779
 20
0.539225
 30
0.0
 11
2.57264
 21
0.540474
 31
0.0
  0
LINE
  8
0
 62
     160
 10
2.57264
 20
0.540474
 30
0.0
 11
2.04406
 21
0.540474
 31
0.0
  0
LINE
  8
0
 62
     160
 10
2.04406
 20
0.540474
 30
0.0
 11
2.03749
 21
0.538519
 31
0.0
  0
LINE
  8
0
 62
     160
 10
2.03749
 20
0.538519
 30
0.0
 11
2.00879
 21
0.519368
 31
0.0
  0
LINE
  8
0
 62
     160
 10
2.00879
 20
0.519368
 30
0.0
 11
1.98008
 21
0.538519
 31
0.0
  0
LINE
  8
0
 62
     160
 10
1.98008
 20
0.538519
 30
0.0
 11
1.97401
 21
0.540474
 31
0.0
  0
LINE
  8
0
 62
     160
 10
1.97401
 20
0.540474
 30
0.0
 11
1.68033
 21
0.552246
 31
0.0
  0
LINE
  8
0
 62
     160
 10
1.68033
 20
0.552246
 30
0.0
 11
1.67156
 21
0.548774
 31
0.0
  0
LINE
  8
0
 62
     160
 10
1.67156
 20
0.548774
 30
0.0
 11
1.64806
 21
0.525282
 31
0.0
  0
LINE
  8
0
 62
     160
 10
1.64806
 20
0.525282
 30
0.0
 11
1.64458
 21
0.516928
 31
0.0
  0
LINE
  8
0
 62
     160
 10
1.64458
 20
0.516928
 30
0.0
 11
1.64458
 21
0.483399
 31
0.0
  0
LINE
  8
0
 62
     160
 10
1.64458
 20
0.483399
 30
0.0
 11
1.64128
 21
0.490017
 31
0.0
  0
LINE
  8
0
 62
     160
 10
1.64128
 20
0.490017
 30
0.0
 11
1.60601
 21
0.525282
 31
0.0
  0
LINE
  8
0
 62
     160
 10
1.60601
 20
0.525282
 30
0.0
 11
1.59765
 21
0.528754
 31
0.0
  0
LINE
  8
0
 62
     160
 10
1.59765
 20
0.528754
 30
0.0
 11
1.48019
 21
0.528754
 31
0.0
  0
LINE
  8
0
 62
     160
 10
1.48019
 20
0.528754
 30
0.0
 11
1.47364
 21
0.526747
 31
0.0
  0
LINE
  8
0
 62
     160
 10
1.47364
 20
0.526747
 30
0.0
 11
1.44135
 21
0.505262
 31
0.0
  0
LINE
  8
0
 62
     160
 10
1.44135
 20
0.505262
 30
0.0
 11
1.2844
 21
0.505262
 31
0.0
  0
LINE
  8
0
 62
     160
 10
1.2844
 20
0.505262
 30
0.0
 11
1.24061
 21
0.53814
 31
0.0
  0
LINE
  8
0
 62
     160
 10
1.24061
 20
0.53814
 30
0.0
 11
1.23351
 21
0.540474
 31
0.0
  0
LINE
  8
0
 62
     160
 10
1.23351
 20
0.540474
 30
0.0
 11
1.11605
 21
0.540474
 31
0.0
  0
LINE
  8
0
 62
     160
 10
1.11605
 20
0.540474
 30
0.0
 11
1.10894
 21
0.53814
 31
0.0
  0
LINE
  8
0
 62
     160
 10
1.10894
 20
0.53814
 30
0.0
 11
1.0651
 21
0.505262
 31
0.0
  0
LINE
  8
0
 62
     160
 10
1.0651
 20
0.505262
 30
0.0
 11
0.920247
 21
0.505262
 31
0.0
  0
LINE
  8
0
 62
     160
 10
0.920247
 20
0.505262
 30
0.0
 11
0.877115
 21
0.537597
 31
0.0
  0
LINE
  8
0
 62
     160
 10
0.877115
 20
0.537597
 30
0.0
 11
0.987087
 21
0.540364
 31
0.0
  0
LINE
  8
0
 62
     160
 10
0.987087
 20
0.540364
 30
0.0
 11
0.995171
 21
0.543836
 31
0.0
  0
LINE
  8
0
 62
     160
 10
0.995171
 20
0.543836
 30
0.0
 11
1.04216
 21
0.590821
 31
0.0
  0
LINE
  8
0
 62
     160
 10
1.04216
 20
0.590821
 30
0.0
 11
1.04563
 21
0.599175
 31
0.0
  0
LINE
  8
0
 62
     160
 10
1.04563
 20
0.599175
 30
0.0
 11
1.04563
 21
0.740126
 31
0.0
  0
LINE
  8
0
 62
     160
 10
1.04563
 20
0.740126
 30
0.0
 11
1.04389
 21
0.746257
 31
0.0
  0
LINE
  8
0
 62
     160
 10
1.04389
 20
0.746257
 30
0.0
 11
1.0204
 21
0.784993
 31
0.0
  0
LINE
  8
0
 62
     160
 10
1.0204
 20
0.784993
 30
0.0
 11
1.00022
 21
0.772786
 31
0.0
  0
LINE
  8
0
 62
     160
 10
1.00022
 20
0.772786
 30
0.0
 11
1.02197
 21
0.736817
 31
0.0
  0
LINE
  8
0
 62
     160
 10
1.02197
 20
0.736817
 30
0.0
 11
1.02197
 21
0.604058
 31
0.0
  0
LINE
  8
0
 62
     160
 10
1.02197
 20
0.604058
 30
0.0
 11
0.981825
 21
0.563857
 31
0.0
  0
LINE
  8
0
 62
     160
 10
0.981825
 20
0.563857
 30
0.0
 11
0.518067
 21
0.552246
 31
0.0
  0
LINE
  8
0
 62
     160
 10
0.518067
 20
0.552246
 30
0.0
 11
0.413792
 21
0.575467
 31
0.0
  0
LINE
  8
0
 62
     160
 10
0.413792
 20
0.575467
 30
0.0
 11
0.404135
 21
0.57335
 31
0.0
  0
LINE
  8
0
 62
     160
 10
0.404135
 20
0.57335
 30
0.0
 11
0.359429
 21
0.539876
 31
0.0
  0
LINE
  8
0
 62
     160
 10
0.359429
 20
0.539876
 30
0.0
 11
0.291829
 21
0.528592
 31
0.0
  0
LINE
  8
0
 62
     160
 10
0.291829
 20
0.528592
 30
0.0
 11
0.282497
 21
0.520562
 31
0.0
  0
LINE
  8
0
 62
     160
 10
0.282497
 20
0.520562
 30
0.0
 11
0.285374
 21
0.508572
 31
0.0
  0
LINE
  8
0
 62
     160
 10
0.285374
 20
0.508572
 30
0.0
 11
0.308865
 21
0.485081
 31
0.0
  0
LINE
  8
0
 62
     160
 10
0.308865
 20
0.485081
 30
0.0
 11
0.317219
 21
0.481608
 31
0.0
  0
LINE
  8
0
 62
     160
 10
0.317219
 20
0.481608
 30
0.0
 11
0.646158
 21
0.481608
 31
0.0
  0
LINE
  8
0
 62
     160
 10
0.646158
 20
0.481608
 30
0.0
 11
0.653211
 21
0.483996
 31
0.0
  0
LINE
  8
0
 62
     160
 10
0.653211
 20
0.483996
 30
0.0
 11
0.697103
 21
0.516872
 31
0.0
  0
LINE
  8
0
 62
     160
 10
0.697103
 20
0.516872
 30
0.0
 11
0.865397
 21
0.516872
 31
0.0
  0
LINE
  8
0
 62
     160
 10
0.865397
 20
0.516872
 30
0.0
 11
0.909233
 21
0.483996
 31
0.0
  0
LINE
  8
0
 62
     160
 10
0.909233
 20
0.483996
 30
0.0
 11
0.916342
 21
0.481608
 31
0.0
  0
LINE
  8
0
 62
     160
 10
0.916342
 20
0.481608
 30
0.0
 11
1.06907
 21
0.481608
 31
0.0
  0
LINE
  8
0
 62
     160
 10
1.06907
 20
0.481608
 30
0.0
 11
1.07612
 21
0.483996
 31
0.0
  0
LINE
  8
0
 62
     160
 10
1.07612
 20
0.483996
 30
0.0
 11
1.11995
 21
0.516872
 31
0.0
  0
LINE
  8
0
 62
     160
 10
1.11995
 20
0.516872
 30
0.0
 11
1.22955
 21
0.516872
 31
0.0
  0
LINE
  8
0
 62
     160
 10
1.22955
 20
0.516872
 30
0.0
 11
1.27338
 21
0.483996
 31
0.0
  0
LINE
  8
0
 62
     160
 10
1.27338
 20
0.483996
 30
0.0
 11
1.28049
 21
0.481608
 31
0.0
  0
LINE
  8
0
 62
     160
 10
1.28049
 20
0.481608
 30
0.0
 11
1.44493
 21
0.481608
 31
0.0
  0
LINE
  8
0
 62
     160
 10
1.44493
 20
0.481608
 30
0.0
 11
1.4515
 21
0.483615
 31
0.0
  0
LINE
  8
0
 62
     160
 10
1.4515
 20
0.483615
 30
0.0
 11
1.48378
 21
0.5051
 31
0.0
  0
LINE
  8
0
 62
     160
 10
1.48378
 20
0.5051
 30
0.0
 11
1.59278
 21
0.5051
 31
0.0
  0
LINE
  8
0
 62
     160
 10
1.59278
 20
0.5051
 30
0.0
 11
1.6211
 21
0.476779
 31
0.0
  0
LINE
  8
0
 62
     160
 10
1.6211
 20
0.476779
 30
0.0
 11
1.6211
 21
0.28201
 31
0.0
  0
LINE
  8
0
 62
     160
 10
1.6211
 20
0.28201
 30
0.0
 11
1.62457
 21
0.273654
 31
0.0
  0
LINE
  8
0
 62
     160
 10
1.62457
 20
0.273654
 30
0.0
 11
1.64806
 21
0.250162
 31
0.0
  0
LINE
  8
0
 62
     160
 10
1.64806
 20
0.250162
 30
0.0
 11
1.66249
 21
0.248372
 31
0.0
  0
LINE
  8
0
 62
     160
 10
1.66249
 20
0.248372
 30
0.0
 11
1.72119
 21
0.283583
 31
0.0
  0
LINE
  8
0
 62
     160
 10
1.72119
 20
0.283583
 30
0.0
 11
1.72689
 21
0.292969
 31
0.0
  0
LINE
  8
0
 62
     160
 10
1.72689
 20
0.292969
 30
0.0
 11
1.7225
 21
0.302951
 31
0.0
  0
LINE
  8
0
 62
     160
 10
1.7225
 20
0.302951
 30
0.0
 11
1.66818
 21
0.346408
 31
0.0
  0
LINE
  8
0
 62
     160
 10
1.66818
 20
0.346408
 30
0.0
 11
1.66818
 21
0.512044
 31
0.0
  0
LINE
  8
0
 62
     160
 10
1.66818
 20
0.512044
 30
0.0
 11
1.68457
 21
0.528429
 31
0.0
  0
LINE
  8
0
 62
     160
 10
1.68457
 20
0.528429
 30
0.0
 11
1.96978
 21
0.517036
 31
0.0
  0
LINE
  8
0
 62
     160
 10
1.96978
 20
0.517036
 30
0.0
 11
2.00222
 21
0.495389
 31
0.0
  0
LINE
  8
0
 62
     160
 10
2.00222
 20
0.495389
 30
0.0
 11
2.01535
 21
0.495389
 31
0.0
  0
LINE
  8
0
 62
     160
 10
2.01535
 20
0.495389
 30
0.0
 11
2.04764
 21
0.516872
 31
0.0
  0
LINE
  8
0
 62
     160
 10
2.04764
 20
0.516872
 30
0.0
 11
2.56988
 21
0.516872
 31
0.0
  0
LINE
  8
0
 62
     160
 10
2.56988
 20
0.516872
 30
0.0
 11
2.61436
 21
0.494629
 31
0.0
  0
LINE
  8
0
 62
     160
 10
2.61436
 20
0.494629
 30
0.0
 11
2.62619
 21
0.495389
 31
0.0
  0
LINE
  8
0
 62
     160
 10
2.62619
 20
0.495389
 30
0.0
 11
2.65847
 21
0.516872
 31
0.0
  0
LINE
  8
0
 62
     160
 10
2.65847
 20
0.516872
 30
0.0
 11
2.85064
 21
0.516872
 31
0.0
  0
LINE
  8
0
 62
     160
 10
2.85064
 20
0.516872
 30
0.0
 11
2.89447
 21
0.483996
 31
0.0
  0
LINE
  8
0
 62
     160
 10
2.89447
 20
0.483996
 30
0.0
 11
2.90158
 21
0.481608
 31
0.0
  0
LINE
  8
0
 62
     160
 10
2.90158
 20
0.481608
 30
0.0
 11
3.1346
 21
0.481608
 31
0.0
  0
LINE
  8
0
 62
     160
 10
3.1346
 20
0.481608
 30
0.0
 11
3.20324
 21
0.458713
 31
0.0
  0
LINE
  8
0
 62
     160
 10
3.20324
 20
0.458713
 30
0.0
 11
3.21604
 21
0.462403
 31
0.0
  0
LINE
  8
0
 62
     160
 10
3.21604
 20
0.462403
 30
0.0
 11
3.27126
 21
0.528592
 31
0.0
  0
LINE
  8
0
 62
     160
 10
3.27126
 20
0.528592
 30
0.0
 11
3.4605
 21
0.528592
 31
0.0
  0
LINE
  8
0
 62
     160
 10
3.4605
 20
0.528592
 30
0.0
 11
3.47711
 21
0.512044
 31
0.0
  0
LINE
  8
0
 62
     160
 10
3.47711
 20
0.512044
 30
0.0
 11
3.47711
 21
0.458171
 31
0.0
  0
LINE
  8
0
 62
     160
 10
3.47711
 20
0.458171
 30
0.0
 11
3.48058
 21
0.449815
 31
0.0
  0
LINE
  8
0
 62
     160
 10
3.48058
 20
0.449815
 30
0.0
 11
3.51579
 21
0.414606
 31
0.0
  0
LINE
  8
0
 62
     160
 10
3.51579
 20
0.414606
 30
0.0
 11
3.52582
 21
0.411242
 31
0.0
  0
LINE
  8
0
 62
     160
 10
3.52582
 20
0.411242
 30
0.0
 11
3.5345
 21
0.41721
 31
0.0
  0
LINE
  8
0
 62
     160
 10
3.5345
 20
0.41721
 30
0.0
 11
3.58985
 21
0.516872
 31
0.0
  0
LINE
  8
0
 62
     160
 10
3.58985
 20
0.516872
 30
0.0
 11
3.81369
 21
0.516872
 31
0.0
  0
LINE
  8
0
 62
     160
 10
3.81369
 20
0.516872
 30
0.0
 11
3.86475
 21
0.476019
 31
0.0
  0
LINE
  8
0
 62
     160
 10
3.86475
 20
0.476019
 30
0.0
 11
3.86475
 21
0.321181
 31
0.0
  0
LINE
  8
0
 62
     160
 10
3.86475
 20
0.321181
 30
0.0
 11
3.83544
 21
0.282064
 31
0.0
  0
LINE
  8
0
 62
     160
 10
3.83544
 20
0.282064
 30
0.0
 11
3.21875
 21
0.282064
 31
0.0
  0
LINE
  8
0
 62
     160
 10
3.21875
 20
0.282064
 30
0.0
 11
3.21039
 21
0.278592
 31
0.0
  0
LINE
  8
0
 62
     160
 10
3.21039
 20
0.278592
 30
0.0
 11
3.19065
 21
0.258843
 31
0.0
  0
LINE
  8
0
 62
     160
 10
3.19065
 20
0.258843
 30
0.0
 11
2.77235
 21
0.282064
 31
0.0
  0
LINE
  8
0
 62
     160
 10
2.77235
 20
0.282064
 30
0.0
 11
2.24376
 21
0.282064
 31
0.0
  0
LINE
  8
0
 62
     160
 10
2.24376
 20
0.282064
 30
0.0
 11
2.2354
 21
0.278592
 31
0.0
  0
LINE
  8
0
 62
     160
 10
2.2354
 20
0.278592
 30
0.0
 11
2.21192
 21
0.2551
 31
0.0
  0
LINE
  8
0
 62
     160
 10
2.21192
 20
0.2551
 30
0.0
 11
2.20844
 21
0.245931
 31
0.0
  0
LINE
  8
0
 62
     160
 10
2.20844
 20
0.245931
 30
0.0
 11
2.21317
 21
0.237304
 31
0.0
  0
LINE
  8
0
 62
     160
 10
2.21317
 20
0.237304
 30
0.0
 11
2.3024
 21
0.170356
 31
0.0
  0
LINE
  8
0
 62
     160
 10
2.3024
 20
0.170356
 30
0.0
 11
2.3024
 21
0.0402018
 31
0.0
  0
LINE
  8
0
 62
     160
 10
2.3024
 20
0.0402018
 30
0.0
 11
2.28581
 21
0.0236003
 31
0.0
  0
LINE
  8
0
 62
     160
 10
2.28581
 20
0.0236003
 30
0.0
 11
0.0823025
 21
0.0236003
 31
0.0
  0
LINE
  8
0
 62
     160
 10
0.0823025
 20
0.0236003
 30
0.0
 11
0.0823025
 21
-0
 31
0.0
  0
LINE
  8
0
 62
     160
 10
0.0823025
 20
-0
 30
0.0
 11
2.29075
 21
-0
 31
0.0
  0
LINE
  8
0
 62
     160
 10
2.29075
 20
-0
 30
0.0
 11
2.2991
 21
0.00347222
 31
0.0
  0
LINE
  8
0
 62
     160
 10
2.2991
 20
0.00347222
 30
0.0
 11
2.3226
 21
0.026964
 31
0.0
  0
LINE
  8
0
 62
     160
 10
2.3226
 20
0.026964
 30
0.0
 11
2.32601
 21
0.035319
 31
0.0
  0
LINE
  8
0
 62
     160
 10
2.32601
 20
0.035319
 30
0.0
 11
2.32601
 21
0.176269
 31
0.0
  0
LINE
  8
0
 62
     160
 10
2.32601
 20
0.176269
 30
0.0
 11
2.32129
 21
0.18571
 31
0.0
  0
LINE
  8
0
 62
     160
 10
2.32129
 20
0.18571
 30
0.0
 11
2.23822
 21
0.248047
 31
0.0
  0
LINE
  8
0
 62
     160
 10
2.23822
 20
0.248047
 30
0.0
 11
2.24864
 21
0.25841
 31
0.0
  0
LINE
  8
0
 62
     160
 10
2.24864
 20
0.25841
 30
0.0
 11
2.77169
 21
0.258464
 31
0.0
  0
LINE
  8
0
 62
     160
 10
2.77169
 20
0.258464
 30
0.0
 11
3.19461
 21
0.234972
 31
0.0
  0
LINE
  8
0
 62
     160
 10
3.19461
 20
0.234972
 30
0.0
 11
3.20361
 21
0.23839
 31
0.0
  0
LINE
  8
0
 62
     160
 10
3.20361
 20
0.23839
 30
0.0
 11
3.22364
 21
0.25841
 31
0.0
  0
LINE
  8
0
 62
     160
 10
3.22364
 20
0.25841
 30
0.0
 11
3.84131
 21
0.25841
 31
0.0
  0
LINE
  8
0
 62
     160
 10
3.84131
 20
0.25841
 30
0.0
 11
3.85081
 21
0.263129
 31
0.0
  0
LINE
  8
0
 62
     160
 10
3.85081
 20
0.263129
 30
0.0
 11
3.88601
 21
0.310113
 31
0.0
  0
LINE
  8
0
 62
     160
 10
3.88601
 20
0.310113
 30
0.0
 11
3.8884
 21
0.317219
 31
0.0
  0
LINE
  8
0
 62
     160
 10
3.8884
 20
0.317219
 30
0.0
 11
3.8884
 21
0.481662
 31
0.0
  0
LINE
  8
0
 62
     160
 10
3.8884
 20
0.481662
 30
0.0
 11
3.88396
 21
0.490886
 31
0.0
  0
LINE
  8
0
 62
     160
 10
0.199761
 20
0.539063
 30
0.0
 11
0.191732
 21
0.55165
 31
0.0
  0
LINE
  8
0
 62
     160
 10
0.191732
 20
0.55165
 30
0.0
 11
0.121257
 21
0.575142
 31
0.0
  0
LINE
  8
0
 62
     160
 10
0.121257
 20
0.575142
 30
0.0
 11
0.117513
 21
0.575737
 31
0.0
  0
LINE
  8
0
 62
     160
 10
0.117513
 20
0.575737
 30
0.0
 11
0.0402018
 21
0.575737
 31
0.0
  0
LINE
  8
0
 62
     160
 10
0.0402018
 20
0.575737
 30
0.0
 11
0.0236003
 21
0.592285
 31
0.0
  0
LINE
  8
0
 62
     160
 10
0.0236003
 20
0.592285
 30
0.0
 11
0.0236003
 21
0.713488
 31
0.0
  0
LINE
  8
0
 62
     160
 10
0.0236003
 20
0.713488
 30
0.0
 11
0.0656467
 21
0.787056
 31
0.0
  0
LINE
  8
0
 62
     160
 10
0.0656467
 20
0.787056
 30
0.0
 11
0.196181
 21
0.787056
 31
0.0
  0
LINE
  8
0
 62
     160
 10
0.196181
 20
0.787056
 30
0.0
 11
0.228461
 21
0.765517
 31
0.0
  0
LINE
  8
0
 62
     160
 10
0.228461
 20
0.765517
 30
0.0
 11
0.235026
 21
0.763564
 31
0.0
  0
LINE
  8
0
 62
     160
 10
0.235026
 20
0.763564
 30
0.0
 11
0.328993
 21
0.763564
 31
0.0
  0
LINE
  8
0
 62
     160
 10
0.328993
 20
0.763564
 30
0.0
 11
0.335503
 21
0.765517
 31
0.0
  0
LINE
  8
0
 62
     160
 10
0.335503
 20
0.765517
 30
0.0
 11
0.367785
 21
0.787056
 31
0.0
  0
LINE
  8
0
 62
     160
 10
0.367785
 20
0.787056
 30
0.0
 11
0.563911
 21
0.787056
 31
0.0
  0
LINE
  8
0
 62
     160
 10
0.563911
 20
0.787056
 30
0.0
 11
0.563911
 21
0.810656
 31
0.0
  0
LINE
  8
0
 62
     160
 10
0.563911
 20
0.810656
 30
0.0
 11
0.364204
 21
0.810656
 31
0.0
  0
LINE
  8
0
 62
     160
 10
0.364204
 20
0.810656
 30
0.0
 11
0.357693
 21
0.808703
 31
0.0
  0
LINE
  8
0
 62
     160
 10
0.357693
 20
0.808703
 30
0.0
 11
0.325413
 21
0.787164
 31
0.0
  0
LINE
  8
0
 62
     160
 10
0.325413
 20
0.787164
 30
0.0
 11
0.238553
 21
0.787164
 31
0.0
  0
LINE
  8
0
 62
     160
 10
0.238553
 20
0.787164
 30
0.0
 11
0.206326
 21
0.808703
 31
0.0
  0
LINE
  8
0
 62
     160
 10
0.206326
 20
0.808703
 30
0.0
 11
0.199761
 21
0.810656
 31
0.0
  0
LINE
  8
0
 62
     160
 10
0.199761
 20
0.810656
 30
0.0
 11
0.0588108
 21
0.810656
 31
0.0
  0
LINE
  8
0
 62
     160
 10
0.0588108
 20
0.810656
 30
0.0
 11
0.0485568
 21
0.804742
 31
0.0
  0
LINE
  8
0
 62
     160
 10
0.0485568
 20
0.804742
 30
0.0
 11
0.00157335
 21
0.722493
 31
0.0
  0
LINE
  8
0
 62
     160
 10
0.00157335
 20
0.722493
 30
0.0
 11
0
 21
0.716635
 31
0.0
  0
LINE
  8
0
 62
     160
 10
0
 20
0.716635
 30
0.0
 11
0
 21
0.587403
 31
0.0
  0
LINE
  8
0
 62
     160
 10
0
 20
0.587403
 30
0.0
 11
0.00347222
 21
0.579047
 31
0.0
  0
LINE
  8
0
 62
     160
 10
0.00347222
 20
0.579047
 30
0.0
 11
0.026964
 21
0.555556
 31
0.0
  0
LINE
  8
0
 62
     160
 10
0.026964
 20
0.555556
 30
0.0
 11
0.035319
 21
0.552083
 31
0.0
  0
LINE
  8
0
 62
     160
 10
0.035319
 20
0.552083
 30
0.0
 11
0.115614
 21
0.552083
 31
0.0
  0
LINE
  8
0
 62
     160
 10
0.115614
 20
0.552083
 30
0.0
 11
0.130697
 21
0.547092
 31
0.0
  0
LINE
  8
0
 62
     160
 10
0.130697
 20
0.547092
 30
0.0
 11
0.0577257
 21
0.540419
 31
0.0
  0
LINE
  8
0
 62
     160
 10
0.0577257
 20
0.540419
 30
0.0
 11
0.0504557
 21
0.537056
 31
0.0
  0
LINE
  8
0
 62
     160
 10
0.0504557
 20
0.537056
 30
0.0
 11
0.00347222
 21
0.490017
 31
0.0
  0
LINE
  8
0
 62
     160
 10
0.00347222
 20
0.490017
 30
0.0
 11
0
 21
0.481662
 31
0.0
  0
LINE
  8
0
 62
     160
 10
0
 20
0.481662
 30
0.0
 11
0
 21
0.458171
 31
0.0
  0
LINE
  8
0
 62
     160
 10
0
 20
0.458171
 30
0.0
 11
0.0236003
 21
0.458171
 31
0.0
  0
LINE
  8
0
 62
     160
 10
0.0236003
 20
0.458171
 30
0.0
 11
0.0236003
 21
0.476779
 31
0.0
  0
LINE
  8
0
 62
     160
 10
0.0236003
 20
0.476779
 30
0.0
 11
0.0641276
 21
0.517307
 31
0.0
  0
LINE
  8
0
 62
     160
 10
0.0641276
 20
0.517307
 30
0.0
 11
0.189074
 21
0.528646
 31
0.0
  0
LINE
  8
0
 62
     160
 10
0.189074
 20
0.528646
 30
0.0
 11
0.199761
 21
0.539063
 31
0.0
  0
ENDSEC
  0
EOF
