  0
SECTION
  2
HEADER
  9
$ACADVER
  1
AC1009
  9
$EXTMIN
 10
0.0
 20
0.0
 30
0.0
  9
$EXTMAX
 10
1000.0
 20
1000.0
 30
0.0
  9
$FILLMODE
 70
 0
  9
$SPLFRAME
 70
 1
  0
ENDSEC
  0
SECTION
  2
TABLES
  0
TABLE
  2
LAYER
 70
1
  0
LAYER
  2
0
 70
     0
 62
     7
  6
CONTINUOUS
  0
ENDTAB
  0
ENDSEC
  0
SECTION
  2
ENTITIES
  0
LINE
  8
0
 62
     4
 10
0.763564
 20
0.133681
 30
0.0
 11
0.737468
 21
0.138943
 31
0.0
  0
LINE
  8
0
 62
     4
 10
0.737468
 20
0.138943
 30
0.0
 11
0.7162
 21
0.153321
 31
0.0
  0
LINE
  8
0
 62
     4
 10
0.7162
 20
0.153321
 30
0.0
 11
0.701878
 21
0.174588
 31
0.0
  0
LINE
  8
0
 62
     4
 10
0.701878
 20
0.174588
 30
0.0
 11
0.696614
 21
0.200575
 31
0.0
  0
LINE
  8
0
 62
     4
 10
0.696614
 20
0.200575
 30
0.0
 11
0.701878
 21
0.226671
 31
0.0
  0
LINE
  8
0
 62
     4
 10
0.701878
 20
0.226671
 30
0.0
 11
0.7162
 21
0.247939
 31
0.0
  0
LINE
  8
0
 62
     4
 10
0.7162
 20
0.247939
 30
0.0
 11
0.737468
 21
0.262315
 31
0.0
  0
LINE
  8
0
 62
     4
 10
0.737468
 20
0.262315
 30
0.0
 11
0.763564
 21
0.267524
 31
0.0
  0
LINE
  8
0
 62
     4
 10
0.763564
 20
0.267524
 30
0.0
 11
0.789551
 21
0.262315
 31
0.0
  0
LINE
  8
0
 62
     4
 10
0.789551
 20
0.262315
 30
0.0
 11
0.810818
 21
0.247939
 31
0.0
  0
LINE
  8
0
 62
     4
 10
0.810818
 20
0.247939
 30
0.0
 11
0.825196
 21
0.226671
 31
0.0
  0
LINE
  8
0
 62
     4
 10
0.825196
 20
0.226671
 30
0.0
 11
0.830458
 21
0.200575
 31
0.0
  0
LINE
  8
0
 62
     4
 10
0.830458
 20
0.200575
 30
0.0
 11
0.825196
 21
0.174588
 31
0.0
  0
LINE
  8
0
 62
     4
 10
0.825196
 20
0.174588
 30
0.0
 11
0.810818
 21
0.153321
 31
0.0
  0
LINE
  8
0
 62
     4
 10
0.810818
 20
0.153321
 30
0.0
 11
0.789551
 21
0.138943
 31
0.0
  0
LINE
  8
0
 62
     4
 10
0.789551
 20
0.138943
 30
0.0
 11
0.763564
 21
0.133681
 31
0.0
  0
LINE
  8
0
 62
     4
 10
0.294596
 20
0.367731
 30
0.0
 11
0.2685
 21
0.372993
 31
0.0
  0
LINE
  8
0
 62
     4
 10
0.2685
 20
0.372993
 30
0.0
 11
0.247233
 21
0.387369
 31
0.0
  0
LINE
  8
0
 62
     4
 10
0.247233
 20
0.387369
 30
0.0
 11
0.232856
 21
0.408638
 31
0.0
  0
LINE
  8
0
 62
     4
 10
0.232856
 20
0.408638
 30
0.0
 11
0.227647
 21
0.434625
 31
0.0
  0
LINE
  8
0
 62
     4
 10
0.227647
 20
0.434625
 30
0.0
 11
0.232856
 21
0.460721
 31
0.0
  0
LINE
  8
0
 62
     4
 10
0.232856
 20
0.460721
 30
0.0
 11
0.247233
 21
0.481987
 31
0.0
  0
LINE
  8
0
 62
     4
 10
0.247233
 20
0.481987
 30
0.0
 11
0.2685
 21
0.496365
 31
0.0
  0
LINE
  8
0
 62
     4
 10
0.2685
 20
0.496365
 30
0.0
 11
0.294596
 21
0.501574
 31
0.0
  0
LINE
  8
0
 62
     4
 10
0.294596
 20
0.501574
 30
0.0
 11
0.320583
 21
0.496365
 31
0.0
  0
LINE
  8
0
 62
     4
 10
0.320583
 20
0.496365
 30
0.0
 11
0.341851
 21
0.481987
 31
0.0
  0
LINE
  8
0
 62
     4
 10
0.341851
 20
0.481987
 30
0.0
 11
0.356228
 21
0.460721
 31
0.0
  0
LINE
  8
0
 62
     4
 10
0.356228
 20
0.460721
 30
0.0
 11
0.36149
 21
0.434625
 31
0.0
  0
LINE
  8
0
 62
     4
 10
0.36149
 20
0.434625
 30
0.0
 11
0.356228
 21
0.408638
 31
0.0
  0
LINE
  8
0
 62
     4
 10
0.356228
 20
0.408638
 30
0.0
 11
0.341851
 21
0.387369
 31
0.0
  0
LINE
  8
0
 62
     4
 10
0.341851
 20
0.387369
 30
0.0
 11
0.320583
 21
0.372993
 31
0.0
  0
LINE
  8
0
 62
     4
 10
0.320583
 20
0.372993
 30
0.0
 11
0.294596
 21
0.367731
 31
0.0
  0
LINE
  8
0
 62
     4
 10
3.39486
 20
0.211426
 30
0.0
 11
3.37136
 21
0.25841
 31
0.0
  0
LINE
  8
0
 62
     4
 10
3.37136
 20
0.25841
 30
0.0
 11
3.31267
 21
0.305447
 31
0.0
  0
LINE
  8
0
 62
     4
 10
3.31267
 20
0.305447
 30
0.0
 11
3.00722
 21
0.305447
 31
0.0
  0
LINE
  8
0
 62
     4
 10
3.00722
 20
0.305447
 30
0.0
 11
2.96024
 21
0.270182
 31
0.0
  0
LINE
  8
0
 62
     4
 10
2.96024
 20
0.270182
 30
0.0
 11
2.92503
 21
0.293674
 31
0.0
  0
LINE
  8
0
 62
     4
 10
2.92503
 20
0.293674
 30
0.0
 11
2.80751
 21
0.281956
 31
0.0
  0
LINE
  8
0
 62
     4
 10
2.80751
 20
0.281956
 30
0.0
 11
2.78401
 21
0.305447
 31
0.0
  0
LINE
  8
0
 62
     4
 10
2.78401
 20
0.305447
 30
0.0
 11
2.66656
 21
0.305447
 31
0.0
  0
LINE
  8
0
 62
     4
 10
2.66656
 20
0.305447
 30
0.0
 11
2.63129
 21
0.281956
 31
0.0
  0
LINE
  8
0
 62
     4
 10
2.63129
 20
0.281956
 30
0.0
 11
2.5726
 21
0.281956
 31
0.0
  0
LINE
  8
0
 62
     4
 10
2.5726
 20
0.281956
 30
0.0
 11
2.53733
 21
0.305447
 31
0.0
  0
LINE
  8
0
 62
     4
 10
2.53733
 20
0.305447
 30
0.0
 11
1.98525
 21
0.293674
 31
0.0
  0
LINE
  8
0
 62
     4
 10
1.98525
 20
0.293674
 30
0.0
 11
1.92649
 21
0.234918
 31
0.0
  0
LINE
  8
0
 62
     4
 10
1.92649
 20
0.234918
 30
0.0
 11
1.8795
 21
0.317165
 31
0.0
  0
LINE
  8
0
 62
     4
 10
1.8795
 20
0.317165
 30
0.0
 11
1.76204
 21
0.317165
 31
0.0
  0
LINE
  8
0
 62
     4
 10
1.76204
 20
0.317165
 30
0.0
 11
1.70329
 21
0.281956
 31
0.0
  0
LINE
  8
0
 62
     4
 10
1.70329
 20
0.281956
 30
0.0
 11
1.64458
 21
0.281956
 31
0.0
  0
LINE
  8
0
 62
     4
 10
1.64458
 20
0.281956
 30
0.0
 11
1.6211
 21
0.25841
 31
0.0
  0
LINE
  8
0
 62
     4
 10
1.6211
 20
0.25841
 30
0.0
 11
1.60932
 21
0.187933
 31
0.0
  0
LINE
  8
0
 62
     4
 10
1.60932
 20
0.187933
 30
0.0
 11
1.55062
 21
0.223199
 31
0.0
  0
LINE
  8
0
 62
     4
 10
1.55062
 20
0.223199
 30
0.0
 11
1.55062
 21
0.25841
 31
0.0
  0
LINE
  8
0
 62
     4
 10
1.55062
 20
0.25841
 30
0.0
 11
1.52713
 21
0.281956
 31
0.0
  0
LINE
  8
0
 62
     4
 10
1.52713
 20
0.281956
 30
0.0
 11
1.4566
 21
0.293674
 31
0.0
  0
LINE
  8
0
 62
     4
 10
1.4566
 20
0.293674
 30
0.0
 11
0.916288
 21
0.270182
 31
0.0
  0
LINE
  8
0
 62
     4
 10
0.916288
 20
0.270182
 30
0.0
 11
0.869303
 21
0.293674
 31
0.0
  0
LINE
  8
0
 62
     4
 10
0.869303
 20
0.293674
 30
0.0
 11
0.599121
 21
0.293674
 31
0.0
  0
LINE
  8
0
 62
     4
 10
0.599121
 20
0.293674
 30
0.0
 11
0.563857
 21
0.25841
 31
0.0
  0
LINE
  8
0
 62
     4
 10
0.563857
 20
0.25841
 30
0.0
 11
0.422906
 21
0.25841
 31
0.0
  0
LINE
  8
0
 62
     4
 10
0.422906
 20
0.25841
 30
0.0
 11
0.328885
 21
0.305447
 31
0.0
  0
LINE
  8
0
 62
     4
 10
0.328885
 20
0.305447
 30
0.0
 11
0.375922
 21
0.328939
 31
0.0
  0
LINE
  8
0
 62
     4
 10
0.375922
 20
0.328939
 30
0.0
 11
0.434625
 21
0.305447
 31
0.0
  0
LINE
  8
0
 62
     4
 10
0.434625
 20
0.305447
 30
0.0
 11
0.916288
 21
0.328939
 31
0.0
  0
LINE
  8
0
 62
     4
 10
0.916288
 20
0.328939
 30
0.0
 11
0.939779
 21
0.36415
 31
0.0
  0
LINE
  8
0
 62
     4
 10
0.939779
 20
0.36415
 30
0.0
 11
0.939779
 21
0.5051
 31
0.0
  0
LINE
  8
0
 62
     4
 10
0.939779
 20
0.5051
 30
0.0
 11
0.904514
 21
0.563857
 31
0.0
  0
LINE
  8
0
 62
     4
 10
0.904514
 20
0.563857
 30
0.0
 11
0.352431
 21
0.563857
 31
0.0
  0
LINE
  8
0
 62
     4
 10
0.352431
 20
0.563857
 30
0.0
 11
0.317165
 21
0.540364
 31
0.0
  0
LINE
  8
0
 62
     4
 10
0.317165
 20
0.540364
 30
0.0
 11
0.234918
 21
0.540364
 31
0.0
  0
LINE
  8
0
 62
     4
 10
0.234918
 20
0.540364
 30
0.0
 11
0.199707
 21
0.563857
 31
0.0
  0
LINE
  8
0
 62
     4
 10
0.199707
 20
0.563857
 30
0.0
 11
0.137098
 21
0.563857
 31
0.0
  0
LINE
  8
0
 62
     4
 10
0.137098
 20
0.563857
 30
0.0
 11
0.137098
 21
0.307889
 31
0.0
  0
LINE
  8
0
 62
     4
 10
0.137098
 20
0.307889
 30
0.0
 11
0.164442
 21
0.305447
 31
0.0
  0
LINE
  8
0
 62
     4
 10
0.164442
 20
0.305447
 30
0.0
 11
0.0234918
 21
0.281956
 31
0.0
  0
LINE
  8
0
 62
     4
 10
0.0234918
 20
0.281956
 30
0.0
 11
0
 21
0.211426
 31
0.0
  0
LINE
  8
0
 62
     4
 10
0
 20
0.211426
 30
0.0
 11
0
 21
0.0587022
 31
0.0
  0
LINE
  8
0
 62
     4
 10
0
 20
0.0587022
 30
0.0
 11
0.117459
 21
-0
 31
0.0
  0
LINE
  8
0
 62
     4
 10
0.117459
 20
-0
 30
0.0
 11
0.25841
 21
-0
 31
0.0
  0
LINE
  8
0
 62
     4
 10
0.25841
 20
-0
 30
0.0
 11
0.305393
 21
0.0352106
 31
0.0
  0
LINE
  8
0
 62
     4
 10
0.305393
 20
0.0352106
 30
0.0
 11
0.526639
 21
0.0332574
 31
0.0
  0
LINE
  8
0
 62
     4
 10
0.526639
 20
0.0332574
 30
0.0
 11
0.526639
 21
0.0431315
 31
0.0
  0
LINE
  8
0
 62
     4
 10
0.526639
 20
0.0431315
 30
0.0
 11
1.00049
 21
0.0431315
 31
0.0
  0
LINE
  8
0
 62
     4
 10
1.00049
 20
0.0431315
 30
0.0
 11
1.00049
 21
0.0289714
 31
0.0
  0
LINE
  8
0
 62
     4
 10
1.00049
 20
0.0289714
 30
0.0
 11
1.60932
 21
0.0234918
 31
0.0
  0
LINE
  8
0
 62
     4
 10
1.60932
 20
0.0234918
 30
0.0
 11
1.64458
 21
0.0469835
 31
0.0
  0
LINE
  8
0
 62
     4
 10
1.64458
 20
0.0469835
 30
0.0
 11
1.66808
 21
0.0234918
 31
0.0
  0
LINE
  8
0
 62
     4
 10
1.66808
 20
0.0234918
 30
0.0
 11
1.79731
 21
0.0234918
 31
0.0
  0
LINE
  8
0
 62
     4
 10
1.79731
 20
0.0234918
 30
0.0
 11
1.86778
 21
0.0822483
 31
0.0
  0
LINE
  8
0
 62
     4
 10
1.86778
 20
0.0822483
 30
0.0
 11
1.92649
 21
0.0822483
 31
0.0
  0
LINE
  8
0
 62
     4
 10
1.92649
 20
0.0822483
 30
0.0
 11
1.97347
 21
0.0352106
 31
0.0
  0
LINE
  8
0
 62
     4
 10
1.97347
 20
0.0352106
 30
0.0
 11
2.27892
 21
0.0117188
 31
0.0
  0
LINE
  8
0
 62
     4
 10
2.27892
 20
0.0117188
 30
0.0
 11
2.53733
 21
0.0117188
 31
0.0
  0
LINE
  8
0
 62
     4
 10
2.53733
 20
0.0117188
 30
0.0
 11
2.5726
 21
0.0352106
 31
0.0
  0
LINE
  8
0
 62
     4
 10
2.5726
 20
0.0352106
 30
0.0
 11
3.41835
 21
0.0234918
 31
0.0
  0
LINE
  8
0
 62
     4
 10
3.41835
 20
0.0234918
 30
0.0
 11
3.44183
 21
0.0469835
 31
0.0
  0
LINE
  8
0
 62
     4
 10
3.44183
 20
0.0469835
 30
0.0
 11
3.44183
 21
0.187933
 31
0.0
  0
LINE
  8
0
 62
     4
 10
3.44183
 20
0.187933
 30
0.0
 11
3.39486
 21
0.211426
 31
0.0
  0
ENDSEC
  0
EOF
