  0
SECTION
  2
HEADER
  9
$ACADVER
  1
AC1009
  9
$EXTMIN
 10
0.0
 20
0.0
 30
0.0
  9
$EXTMAX
 10
1000.0
 20
1000.0
 30
0.0
  9
$FILLMODE
 70
 0
  9
$SPLFRAME
 70
 1
  0
ENDSEC
  0
SECTION
  2
TABLES
  0
TABLE
  2
LAYER
 70
1
  0
LAYER
  2
0
 70
     0
 62
     7
  6
CONTINUOUS
  0
ENDTAB
  0
ENDSEC
  0
SECTION
  2
ENTITIES
  0
LINE
  8
0
 62
     160
 10
0.439888
 20
0.0223525
 30
0.0
 11
0.538303
 21
0.0213758
 31
0.0
  0
LINE
  8
0
 62
     160
 10
0.538303
 20
0.0213758
 30
0.0
 11
0.538574
 21
0.0450304
 31
0.0
  0
LINE
  8
0
 62
     160
 10
0.538574
 20
0.0450304
 30
0.0
 11
0.440158
 21
0.0459526
 31
0.0
  0
LINE
  8
0
 62
     160
 10
0.440158
 20
0.0459526
 30
0.0
 11
0.439888
 21
0.0223525
 31
0.0
  0
LINE
  8
0
 62
     160
 10
0.0236003
 20
0.157226
 30
0.0
 11
0
 21
0.157226
 31
0.0
  0
LINE
  8
0
 62
     160
 10
0
 20
0.157226
 30
0.0
 11
0
 21
0.0588108
 31
0.0
  0
LINE
  8
0
 62
     160
 10
0
 20
0.0588108
 30
0.0
 11
0.00651042
 21
0.0482314
 31
0.0
  0
LINE
  8
0
 62
     160
 10
0.00651042
 20
0.0482314
 30
0.0
 11
0.0945637
 21
0.00423178
 31
0.0
  0
LINE
  8
0
 62
     160
 10
0.0945637
 20
0.00423178
 30
0.0
 11
0.105143
 21
0.0253364
 31
0.0
  0
LINE
  8
0
 62
     160
 10
0.105143
 20
0.0253364
 30
0.0
 11
0.0236003
 21
0.0660807
 31
0.0
  0
LINE
  8
0
 62
     160
 10
0.0236003
 20
0.0660807
 30
0.0
 11
0.0236003
 21
0.157226
 31
0.0
  0
LINE
  8
0
 62
     160
 10
0.0236003
 20
0.209581
 30
0.0
 11
0.0464953
 21
0.278267
 31
0.0
  0
LINE
  8
0
 62
     160
 10
0.0464953
 20
0.278267
 30
0.0
 11
0.0240886
 21
0.285753
 31
0.0
  0
LINE
  8
0
 62
     160
 10
0.0240886
 20
0.285753
 30
0.0
 11
0.000596789
 21
0.215224
 31
0.0
  0
LINE
  8
0
 62
     160
 10
0.000596789
 20
0.215224
 30
0.0
 11
0
 21
0.187392
 31
0.0
  0
LINE
  8
0
 62
     160
 10
0
 20
0.187392
 30
0.0
 11
0.0236003
 21
0.187392
 31
0.0
  0
LINE
  8
0
 62
     160
 10
0.0236003
 20
0.187392
 30
0.0
 11
0.0236003
 21
0.209581
 31
0.0
  0
LINE
  8
0
 62
     160
 10
0.210775
 20
0.575683
 30
0.0
 11
0.148167
 21
0.571778
 31
0.0
  0
LINE
  8
0
 62
     160
 10
0.148167
 20
0.571778
 30
0.0
 11
0.149631
 21
0.548232
 31
0.0
  0
LINE
  8
0
 62
     160
 10
0.149631
 20
0.548232
 30
0.0
 11
0.208279
 21
0.551867
 31
0.0
  0
LINE
  8
0
 62
     160
 10
0.208279
 20
0.551867
 30
0.0
 11
0.234646
 21
0.534289
 31
0.0
  0
LINE
  8
0
 62
     160
 10
0.234646
 20
0.534289
 30
0.0
 11
0.247775
 21
0.553928
 31
0.0
  0
LINE
  8
0
 62
     160
 10
0.247775
 20
0.553928
 30
0.0
 11
0.218044
 21
0.573731
 31
0.0
  0
LINE
  8
0
 62
     160
 10
0.218044
 20
0.573731
 30
0.0
 11
0.210775
 21
0.575683
 31
0.0
  0
LINE
  8
0
 62
     160
 10
0.46696
 20
0.552083
 30
0.0
 11
0.583931
 21
0.552083
 31
0.0
  0
LINE
  8
0
 62
     160
 10
0.583931
 20
0.552083
 30
0.0
 11
0.583931
 21
0.575737
 31
0.0
  0
LINE
  8
0
 62
     160
 10
0.583931
 20
0.575737
 30
0.0
 11
0.46696
 21
0.575737
 31
0.0
  0
LINE
  8
0
 62
     160
 10
0.46696
 20
0.575737
 30
0.0
 11
0.46696
 21
0.552083
 31
0.0
  0
LINE
  8
0
 62
     160
 10
0.939779
 20
0.501899
 30
0.0
 11
0.939779
 21
0.475261
 31
0.0
  0
LINE
  8
0
 62
     160
 10
0.939779
 20
0.475261
 30
0.0
 11
0.963379
 21
0.475261
 31
0.0
  0
LINE
  8
0
 62
     160
 10
0.963379
 20
0.475261
 30
0.0
 11
0.963379
 21
0.505208
 31
0.0
  0
LINE
  8
0
 62
     160
 10
0.963379
 20
0.505208
 30
0.0
 11
0.961697
 21
0.511285
 31
0.0
  0
LINE
  8
0
 62
     160
 10
0.961697
 20
0.511285
 30
0.0
 11
0.926432
 21
0.569988
 31
0.0
  0
LINE
  8
0
 62
     160
 10
0.926432
 20
0.569988
 30
0.0
 11
0.916342
 21
0.575737
 31
0.0
  0
LINE
  8
0
 62
     160
 10
0.916342
 20
0.575737
 30
0.0
 11
0.817925
 21
0.575737
 31
0.0
  0
LINE
  8
0
 62
     160
 10
0.817925
 20
0.575737
 30
0.0
 11
0.817925
 21
0.552083
 31
0.0
  0
LINE
  8
0
 62
     160
 10
0.817925
 20
0.552083
 30
0.0
 11
0.909614
 21
0.552083
 31
0.0
  0
LINE
  8
0
 62
     160
 10
0.909614
 20
0.552083
 30
0.0
 11
0.939779
 21
0.501899
 31
0.0
  0
LINE
  8
0
 62
     160
 10
0.937879
 20
0.322428
 30
0.0
 11
0.961426
 21
0.357693
 31
0.0
  0
LINE
  8
0
 62
     160
 10
0.961426
 20
0.357693
 30
0.0
 11
0.963379
 21
0.364258
 31
0.0
  0
LINE
  8
0
 62
     160
 10
0.963379
 20
0.364258
 30
0.0
 11
0.963379
 21
0.420301
 31
0.0
  0
LINE
  8
0
 62
     160
 10
0.963379
 20
0.420301
 30
0.0
 11
0.939779
 21
0.420301
 31
0.0
  0
LINE
  8
0
 62
     160
 10
0.939779
 20
0.420301
 30
0.0
 11
0.939779
 21
0.367839
 31
0.0
  0
LINE
  8
0
 62
     160
 10
0.939779
 20
0.367839
 30
0.0
 11
0.92155
 21
0.340494
 31
0.0
  0
LINE
  8
0
 62
     160
 10
0.92155
 20
0.340494
 30
0.0
 11
0.82921
 21
0.335992
 31
0.0
  0
LINE
  8
0
 62
     160
 10
0.82921
 20
0.335992
 30
0.0
 11
0.83035
 21
0.312392
 31
0.0
  0
LINE
  8
0
 62
     160
 10
0.83035
 20
0.312392
 30
0.0
 11
0.928657
 21
0.317165
 31
0.0
  0
LINE
  8
0
 62
     160
 10
0.928657
 20
0.317165
 30
0.0
 11
0.937879
 21
0.322428
 31
0.0
  0
LINE
  8
0
 62
     160
 10
0.388238
 20
0.316026
 30
0.0
 11
0.442057
 21
0.294542
 31
0.0
  0
LINE
  8
0
 62
     160
 10
0.442057
 20
0.294542
 30
0.0
 11
0.447049
 21
0.293674
 31
0.0
  0
LINE
  8
0
 62
     160
 10
0.447049
 20
0.293674
 30
0.0
 11
0.48215
 21
0.29541
 31
0.0
  0
LINE
  8
0
 62
     160
 10
0.48215
 20
0.29541
 30
0.0
 11
0.481011
 21
0.319011
 31
0.0
  0
LINE
  8
0
 62
     160
 10
0.481011
 20
0.319011
 30
0.0
 11
0.44846
 21
0.317383
 31
0.0
  0
LINE
  8
0
 62
     160
 10
0.44846
 20
0.317383
 30
0.0
 11
0.39209
 21
0.339953
 31
0.0
  0
LINE
  8
0
 62
     160
 10
0.39209
 20
0.339953
 30
0.0
 11
0.382433
 21
0.339518
 31
0.0
  0
LINE
  8
0
 62
     160
 10
0.382433
 20
0.339518
 30
0.0
 11
0.335449
 21
0.316026
 31
0.0
  0
LINE
  8
0
 62
     160
 10
0.335449
 20
0.316026
 30
0.0
 11
0.335449
 21
0.294922
 31
0.0
  0
LINE
  8
0
 62
     160
 10
0.335449
 20
0.294922
 30
0.0
 11
0.423503
 21
0.250922
 31
0.0
  0
LINE
  8
0
 62
     160
 10
0.423503
 20
0.250922
 30
0.0
 11
0.434028
 21
0.272026
 31
0.0
  0
LINE
  8
0
 62
     160
 10
0.434028
 20
0.272026
 30
0.0
 11
0.367133
 21
0.305501
 31
0.0
  0
LINE
  8
0
 62
     160
 10
0.367133
 20
0.305501
 30
0.0
 11
0.388238
 21
0.316026
 31
0.0
  0
LINE
  8
0
 62
     160
 10
1.06879
 20
0.288194
 30
0.0
 11
0.93061
 21
0.282172
 31
0.0
  0
LINE
  8
0
 62
     160
 10
0.93061
 20
0.282172
 30
0.0
 11
0.886393
 21
0.304308
 31
0.0
  0
LINE
  8
0
 62
     160
 10
0.886393
 20
0.304308
 30
0.0
 11
0.881076
 21
0.305556
 31
0.0
  0
LINE
  8
0
 62
     160
 10
0.881076
 20
0.305556
 30
0.0
 11
0.854492
 21
0.305556
 31
0.0
  0
LINE
  8
0
 62
     160
 10
0.854492
 20
0.305556
 30
0.0
 11
0.854492
 21
0.281901
 31
0.0
  0
LINE
  8
0
 62
     160
 10
0.854492
 20
0.281901
 30
0.0
 11
0.87831
 21
0.281901
 31
0.0
  0
LINE
  8
0
 62
     160
 10
0.87831
 20
0.281901
 30
0.0
 11
0.922797
 21
0.259657
 31
0.0
  0
LINE
  8
0
 62
     160
 10
0.922797
 20
0.259657
 30
0.0
 11
0.928603
 21
0.258464
 31
0.0
  0
LINE
  8
0
 62
     160
 10
0.928603
 20
0.258464
 30
0.0
 11
1.06982
 21
0.264594
 31
0.0
  0
LINE
  8
0
 62
     160
 10
1.06982
 20
0.264594
 30
0.0
 11
1.06879
 21
0.288194
 31
0.0
  0
LINE
  8
0
 62
     160
 10
1.63281
 20
0.186089
 30
0.0
 11
1.64393
 21
0.252821
 31
0.0
  0
LINE
  8
0
 62
     160
 10
1.64393
 20
0.252821
 30
0.0
 11
1.66032
 21
0.269206
 31
0.0
  0
LINE
  8
0
 62
     160
 10
1.66032
 20
0.269206
 30
0.0
 11
1.64361
 21
0.285915
 31
0.0
  0
LINE
  8
0
 62
     160
 10
1.64361
 20
0.285915
 30
0.0
 11
1.62457
 21
0.266872
 31
0.0
  0
LINE
  8
0
 62
     160
 10
1.62457
 20
0.266872
 30
0.0
 11
1.62125
 21
0.260417
 31
0.0
  0
LINE
  8
0
 62
     160
 10
1.62125
 20
0.260417
 30
0.0
 11
1.61236
 21
0.207086
 31
0.0
  0
LINE
  8
0
 62
     160
 10
1.61236
 20
0.207086
 30
0.0
 11
1.57422
 21
0.229926
 31
0.0
  0
LINE
  8
0
 62
     160
 10
1.57422
 20
0.229926
 30
0.0
 11
1.57422
 21
0.258518
 31
0.0
  0
LINE
  8
0
 62
     160
 10
1.57422
 20
0.258518
 30
0.0
 11
1.57075
 21
0.266872
 31
0.0
  0
LINE
  8
0
 62
     160
 10
1.57075
 20
0.266872
 30
0.0
 11
1.54725
 21
0.290364
 31
0.0
  0
LINE
  8
0
 62
     160
 10
1.54725
 20
0.290364
 30
0.0
 11
1.54085
 21
0.293674
 31
0.0
  0
LINE
  8
0
 62
     160
 10
1.54085
 20
0.293674
 30
0.0
 11
1.51128
 21
0.298557
 31
0.0
  0
LINE
  8
0
 62
     160
 10
1.51128
 20
0.298557
 30
0.0
 11
1.50743
 21
0.275282
 31
0.0
  0
LINE
  8
0
 62
     160
 10
1.50743
 20
0.275282
 30
0.0
 11
1.53326
 21
0.270942
 31
0.0
  0
LINE
  8
0
 62
     160
 10
1.53326
 20
0.270942
 30
0.0
 11
1.55062
 21
0.253581
 31
0.0
  0
LINE
  8
0
 62
     160
 10
1.55062
 20
0.253581
 30
0.0
 11
1.55062
 21
0.223253
 31
0.0
  0
LINE
  8
0
 62
     160
 10
1.55062
 20
0.223253
 30
0.0
 11
1.55632
 21
0.213108
 31
0.0
  0
LINE
  8
0
 62
     160
 10
1.55632
 20
0.213108
 30
0.0
 11
1.61507
 21
0.177897
 31
0.0
  0
LINE
  8
0
 62
     160
 10
1.61507
 20
0.177897
 30
0.0
 11
1.63281
 21
0.186089
 31
0.0
  0
LINE
  8
0
 62
     160
 10
1.92806
 20
0.229167
 30
0.0
 11
1.94667
 21
0.226671
 31
0.0
  0
LINE
  8
0
 62
     160
 10
1.94667
 20
0.226671
 30
0.0
 11
2.00206
 21
0.28201
 31
0.0
  0
LINE
  8
0
 62
     160
 10
2.00206
 20
0.28201
 30
0.0
 11
2.01264
 21
0.282281
 31
0.0
  0
LINE
  8
0
 62
     160
 10
2.01264
 20
0.282281
 30
0.0
 11
2.01215
 21
0.305881
 31
0.0
  0
LINE
  8
0
 62
     160
 10
2.01215
 20
0.305881
 30
0.0
 11
1.99681
 21
0.305556
 31
0.0
  0
LINE
  8
0
 62
     160
 10
1.99681
 20
0.305556
 30
0.0
 11
1.98872
 21
0.302083
 31
0.0
  0
LINE
  8
0
 62
     160
 10
1.98872
 20
0.302083
 30
0.0
 11
1.94092
 21
0.254286
 31
0.0
  0
LINE
  8
0
 62
     160
 10
1.94092
 20
0.254286
 30
0.0
 11
1.90158
 21
0.323079
 31
0.0
  0
LINE
  8
0
 62
     160
 10
1.90158
 20
0.323079
 30
0.0
 11
1.89133
 21
0.329047
 31
0.0
  0
LINE
  8
0
 62
     160
 10
1.89133
 20
0.329047
 30
0.0
 11
1.79292
 21
0.329047
 31
0.0
  0
LINE
  8
0
 62
     160
 10
1.79292
 20
0.329047
 30
0.0
 11
1.79292
 21
0.305393
 31
0.0
  0
LINE
  8
0
 62
     160
 10
1.79292
 20
0.305393
 30
0.0
 11
1.8845
 21
0.305393
 31
0.0
  0
LINE
  8
0
 62
     160
 10
1.8845
 20
0.305393
 30
0.0
 11
1.92806
 21
0.229167
 31
0.0
  0
LINE
  8
0
 62
     160
 10
2.45161
 20
0.315212
 30
0.0
 11
2.30512
 21
0.312121
 31
0.0
  0
LINE
  8
0
 62
     160
 10
2.30512
 20
0.312121
 30
0.0
 11
2.30567
 21
0.288519
 31
0.0
  0
LINE
  8
0
 62
     160
 10
2.30567
 20
0.288519
 30
0.0
 11
2.45215
 21
0.291612
 31
0.0
  0
LINE
  8
0
 62
     160
 10
2.45215
 20
0.291612
 30
0.0
 11
2.45161
 21
0.315212
 31
0.0
  0
LINE
  8
0
 62
     160
 10
3.01199
 20
0.314942
 30
0.0
 11
2.97163
 21
0.284722
 31
0.0
  0
LINE
  8
0
 62
     160
 10
2.97163
 20
0.284722
 30
0.0
 11
2.94336
 21
0.303549
 31
0.0
  0
LINE
  8
0
 62
     160
 10
2.94336
 20
0.303549
 30
0.0
 11
2.93565
 21
0.305501
 31
0.0
  0
LINE
  8
0
 62
     160
 10
2.93565
 20
0.305501
 30
0.0
 11
2.82374
 21
0.294325
 31
0.0
  0
LINE
  8
0
 62
     160
 10
2.82374
 20
0.294325
 30
0.0
 11
2.80419
 21
0.313857
 31
0.0
  0
LINE
  8
0
 62
     160
 10
2.80419
 20
0.313857
 30
0.0
 11
2.79585
 21
0.317275
 31
0.0
  0
LINE
  8
0
 62
     160
 10
2.79585
 20
0.317275
 30
0.0
 11
2.73062
 21
0.317275
 31
0.0
  0
LINE
  8
0
 62
     160
 10
2.73062
 20
0.317275
 30
0.0
 11
2.73062
 21
0.293674
 31
0.0
  0
LINE
  8
0
 62
     160
 10
2.73062
 20
0.293674
 30
0.0
 11
2.79096
 21
0.293674
 31
0.0
  0
LINE
  8
0
 62
     160
 10
2.79096
 20
0.293674
 30
0.0
 11
2.81099
 21
0.273654
 31
0.0
  0
LINE
  8
0
 62
     160
 10
2.81099
 20
0.273654
 30
0.0
 11
2.82053
 21
0.270236
 31
0.0
  0
LINE
  8
0
 62
     160
 10
2.82053
 20
0.270236
 30
0.0
 11
2.93375
 21
0.281575
 31
0.0
  0
LINE
  8
0
 62
     160
 10
2.93375
 20
0.281575
 30
0.0
 11
2.9655
 21
0.260417
 31
0.0
  0
LINE
  8
0
 62
     160
 10
2.9655
 20
0.260417
 30
0.0
 11
2.97911
 21
0.260796
 31
0.0
  0
LINE
  8
0
 62
     160
 10
2.97911
 20
0.260796
 30
0.0
 11
3.023
 21
0.293674
 31
0.0
  0
LINE
  8
0
 62
     160
 10
3.023
 20
0.293674
 30
0.0
 11
3.05875
 21
0.293674
 31
0.0
  0
LINE
  8
0
 62
     160
 10
3.05875
 20
0.293674
 30
0.0
 11
3.05875
 21
0.317275
 31
0.0
  0
LINE
  8
0
 62
     160
 10
3.05875
 20
0.317275
 30
0.0
 11
3.01904
 21
0.317275
 31
0.0
  0
LINE
  8
0
 62
     160
 10
3.01904
 20
0.317275
 30
0.0
 11
3.01199
 21
0.314942
 31
0.0
  0
LINE
  8
0
 62
     160
 10
3.45893
 20
0.198568
 30
0.0
 11
3.41547
 21
0.220324
 31
0.0
  0
LINE
  8
0
 62
     160
 10
3.41547
 20
0.220324
 30
0.0
 11
3.39675
 21
0.257867
 31
0.0
  0
LINE
  8
0
 62
     160
 10
3.39675
 20
0.257867
 30
0.0
 11
3.3756
 21
0.247288
 31
0.0
  0
LINE
  8
0
 62
     160
 10
3.3756
 20
0.247288
 30
0.0
 11
3.39611
 21
0.206218
 31
0.0
  0
LINE
  8
0
 62
     160
 10
3.39611
 20
0.206218
 30
0.0
 11
3.40142
 21
0.200956
 31
0.0
  0
LINE
  8
0
 62
     160
 10
3.40142
 20
0.200956
 30
0.0
 11
3.44183
 21
0.180718
 31
0.0
  0
LINE
  8
0
 62
     160
 10
3.44183
 20
0.180718
 30
0.0
 11
3.44183
 21
0.0519206
 31
0.0
  0
LINE
  8
0
 62
     160
 10
3.44183
 20
0.0519206
 30
0.0
 11
3.42535
 21
0.0354275
 31
0.0
  0
LINE
  8
0
 62
     160
 10
3.42535
 20
0.0354275
 30
0.0
 11
3.33192
 21
0.0367296
 31
0.0
  0
LINE
  8
0
 62
     160
 10
3.33192
 20
0.0367296
 30
0.0
 11
3.3316
 21
0.0131293
 31
0.0
  0
LINE
  8
0
 62
     160
 10
3.3316
 20
0.0131293
 30
0.0
 11
3.43001
 21
0.0117188
 31
0.0
  0
LINE
  8
0
 62
     160
 10
3.43001
 20
0.0117188
 30
0.0
 11
3.43853
 21
0.015191
 31
0.0
  0
LINE
  8
0
 62
     160
 10
3.43853
 20
0.015191
 30
0.0
 11
3.46203
 21
0.0386828
 31
0.0
  0
LINE
  8
0
 62
     160
 10
3.46203
 20
0.0386828
 30
0.0
 11
3.4655
 21
0.0470378
 31
0.0
  0
LINE
  8
0
 62
     160
 10
3.4655
 20
0.0470378
 30
0.0
 11
3.4655
 21
0.188043
 31
0.0
  0
LINE
  8
0
 62
     160
 10
3.4655
 20
0.188043
 30
0.0
 11
3.45893
 21
0.198568
 31
0.0
  0
LINE
  8
0
 62
     160
 10
2.347
 20
-0
 30
0.0
 11
2.51232
 21
-0
 31
0.0
  0
LINE
  8
0
 62
     160
 10
2.51232
 20
-0
 30
0.0
 11
2.51232
 21
0.0236003
 31
0.0
  0
LINE
  8
0
 62
     160
 10
2.51232
 20
0.0236003
 30
0.0
 11
2.347
 21
0.0236003
 31
0.0
  0
LINE
  8
0
 62
     160
 10
2.347
 20
0.0236003
 30
0.0
 11
2.347
 21
-0
 31
0.0
  0
LINE
  8
0
 62
     160
 10
2.83567
 20
0.0199653
 30
0.0
 11
3.00097
 21
0.0176867
 31
0.0
  0
LINE
  8
0
 62
     160
 10
3.00097
 20
0.0176867
 30
0.0
 11
3.00131
 21
0.0413411
 31
0.0
  0
LINE
  8
0
 62
     160
 10
3.00131
 20
0.0413411
 30
0.0
 11
2.83599
 21
0.0436197
 31
0.0
  0
LINE
  8
0
 62
     160
 10
2.83599
 20
0.0436197
 30
0.0
 11
2.83567
 21
0.0199653
 31
0.0
  0
LINE
  8
0
 62
     160
 10
1.94667
 20
0.0906575
 30
0.0
 11
1.93832
 21
0.0941297
 31
0.0
  0
LINE
  8
0
 62
     160
 10
1.93832
 20
0.0941297
 30
0.0
 11
1.87961
 21
0.0941297
 31
0.0
  0
LINE
  8
0
 62
     160
 10
1.87961
 20
0.0941297
 30
0.0
 11
1.87201
 21
0.0914171
 31
0.0
  0
LINE
  8
0
 62
     160
 10
1.87201
 20
0.0914171
 30
0.0
 11
1.84153
 21
0.0659722
 31
0.0
  0
LINE
  8
0
 62
     160
 10
1.84153
 20
0.0659722
 30
0.0
 11
1.85667
 21
0.0477974
 31
0.0
  0
LINE
  8
0
 62
     160
 10
1.85667
 20
0.0477974
 30
0.0
 11
1.88385
 21
0.0704753
 31
0.0
  0
LINE
  8
0
 62
     160
 10
1.88385
 20
0.0704753
 30
0.0
 11
1.93343
 21
0.0704753
 31
0.0
  0
LINE
  8
0
 62
     160
 10
1.93343
 20
0.0704753
 30
0.0
 11
1.97694
 21
0.026964
 31
0.0
  0
LINE
  8
0
 62
     160
 10
1.97694
 20
0.026964
 30
0.0
 11
1.98438
 21
0.023546
 31
0.0
  0
LINE
  8
0
 62
     160
 10
1.98438
 20
0.023546
 30
0.0
 11
2.01628
 21
0.0211046
 31
0.0
  0
LINE
  8
0
 62
     160
 10
2.01628
 20
0.0211046
 30
0.0
 11
2.01807
 21
0.0446506
 31
0.0
  0
LINE
  8
0
 62
     160
 10
2.01807
 20
0.0446506
 30
0.0
 11
1.99056
 21
0.0467122
 31
0.0
  0
LINE
  8
0
 62
     160
 10
1.99056
 20
0.0467122
 30
0.0
 11
1.94667
 21
0.0906575
 31
0.0
  0
LINE
  8
0
 62
     160
 10
1.66476
 20
0.0553928
 30
0.0
 11
1.64985
 21
0.0568576
 31
0.0
  0
LINE
  8
0
 62
     160
 10
1.64985
 20
0.0568576
 30
0.0
 11
1.61763
 21
0.0353733
 31
0.0
  0
LINE
  8
0
 62
     160
 10
1.61763
 20
0.0353733
 30
0.0
 11
1.56521
 21
0.0359158
 31
0.0
  0
LINE
  8
0
 62
     160
 10
1.56521
 20
0.0359158
 30
0.0
 11
1.565
 21
0.0122613
 31
0.0
  0
LINE
  8
0
 62
     160
 10
1.565
 20
0.0122613
 30
0.0
 11
1.62104
 21
0.0117188
 31
0.0
  0
LINE
  8
0
 62
     160
 10
1.62104
 20
0.0117188
 30
0.0
 11
1.62771
 21
0.0137261
 31
0.0
  0
LINE
  8
0
 62
     160
 10
1.62771
 20
0.0137261
 30
0.0
 11
1.65489
 21
0.0318468
 31
0.0
  0
LINE
  8
0
 62
     160
 10
1.65489
 20
0.0318468
 30
0.0
 11
1.67156
 21
0.015191
 31
0.0
  0
LINE
  8
0
 62
     160
 10
1.67156
 20
0.015191
 30
0.0
 11
1.6799
 21
0.0117188
 31
0.0
  0
LINE
  8
0
 62
     160
 10
1.6799
 20
0.0117188
 30
0.0
 11
1.74507
 21
0.0117188
 31
0.0
  0
LINE
  8
0
 62
     160
 10
1.74507
 20
0.0117188
 30
0.0
 11
1.74507
 21
0.0353733
 31
0.0
  0
LINE
  8
0
 62
     160
 10
1.74507
 20
0.0353733
 30
0.0
 11
1.68479
 21
0.0353733
 31
0.0
  0
LINE
  8
0
 62
     160
 10
1.68479
 20
0.0353733
 30
0.0
 11
1.66476
 21
0.0553928
 31
0.0
  0
LINE
  8
0
 62
     160
 10
1.0102
 20
0.0176324
 30
0.0
 11
1.10862
 21
0.0166558
 31
0.0
  0
LINE
  8
0
 62
     160
 10
1.10862
 20
0.0166558
 30
0.0
 11
1.10883
 21
0.0403103
 31
0.0
  0
LINE
  8
0
 62
     160
 10
1.10883
 20
0.0403103
 30
0.0
 11
1.01042
 21
0.0412326
 31
0.0
  0
LINE
  8
0
 62
     160
 10
1.01042
 20
0.0412326
 30
0.0
 11
1.0102
 21
0.0176324
 31
0.0
  0
ENDSEC
  0
EOF
