  0
SECTION
  2
HEADER
  9
$ACADVER
  1
AC1009
  9
$EXTMIN
 10
0.0
 20
0.0
 30
0.0
  9
$EXTMAX
 10
1000.0
 20
1000.0
 30
0.0
  9
$FILLMODE
 70
 0
  9
$SPLFRAME
 70
 1
  0
ENDSEC
  0
SECTION
  2
TABLES
  0
TABLE
  2
LAYER
 70
1
  0
LAYER
  2
0
 70
     0
 62
     7
  6
CONTINUOUS
  0
ENDTAB
  0
ENDSEC
  0
SECTION
  2
ENTITIES
  0
LINE
  8
0
 62
     160
 10
0.538411
 20
0.0567492
 30
0.0
 11
0.317329
 21
0.058865
 31
0.0
  0
LINE
  8
0
 62
     160
 10
0.317329
 20
0.058865
 30
0.0
 11
0.310167
 21
0.0564779
 31
0.0
  0
LINE
  8
0
 62
     160
 10
0.310167
 20
0.0564779
 30
0.0
 11
0.266331
 21
0.0236003
 31
0.0
  0
LINE
  8
0
 62
     160
 10
0.266331
 20
0.0236003
 30
0.0
 11
0.132053
 21
0.0236003
 31
0.0
  0
LINE
  8
0
 62
     160
 10
0.132053
 20
0.0236003
 30
0.0
 11
0.0236003
 21
0.0778538
 31
0.0
  0
LINE
  8
0
 62
     160
 10
0.0236003
 20
0.0778538
 30
0.0
 11
0.0236003
 21
0.221354
 31
0.0
  0
LINE
  8
0
 62
     160
 10
0.0236003
 20
0.221354
 30
0.0
 11
0.0442708
 21
0.283257
 31
0.0
  0
LINE
  8
0
 62
     160
 10
0.0442708
 20
0.283257
 30
0.0
 11
0.148926
 21
0.300726
 31
0.0
  0
LINE
  8
0
 62
     160
 10
0.148926
 20
0.300726
 30
0.0
 11
0.148926
 21
0.315212
 31
0.0
  0
LINE
  8
0
 62
     160
 10
0.148926
 20
0.315212
 30
0.0
 11
0.0678168
 21
0.315212
 31
0.0
  0
LINE
  8
0
 62
     160
 10
0.0678168
 20
0.315212
 30
0.0
 11
0.0837131
 21
0.313803
 31
0.0
  0
LINE
  8
0
 62
     160
 10
0.0837131
 20
0.313803
 30
0.0
 11
0.0333658
 21
0.305393
 31
0.0
  0
LINE
  8
0
 62
     160
 10
0.0333658
 20
0.305393
 30
0.0
 11
0.0240886
 21
0.297472
 31
0.0
  0
LINE
  8
0
 62
     160
 10
0.0240886
 20
0.297472
 30
0.0
 11
0.000596789
 21
0.226997
 31
0.0
  0
LINE
  8
0
 62
     160
 10
0.000596789
 20
0.226997
 30
0.0
 11
0
 21
0.0705294
 31
0.0
  0
LINE
  8
0
 62
     160
 10
0
 20
0.0705294
 30
0.0
 11
0.00651042
 21
0.0599501
 31
0.0
  0
LINE
  8
0
 62
     160
 10
0.00651042
 20
0.0599501
 30
0.0
 11
0.123969
 21
0.00124783
 31
0.0
  0
LINE
  8
0
 62
     160
 10
0.123969
 20
0.00124783
 30
0.0
 11
0.129286
 21
-0
 31
0.0
  0
LINE
  8
0
 62
     160
 10
0.129286
 20
-0
 30
0.0
 11
0.270236
 21
-0
 31
0.0
  0
LINE
  8
0
 62
     160
 10
0.270236
 20
-0
 30
0.0
 11
0.277344
 21
0.00238715
 31
0.0
  0
LINE
  8
0
 62
     160
 10
0.277344
 20
0.00238715
 30
0.0
 11
0.321126
 21
0.0352106
 31
0.0
  0
LINE
  8
0
 62
     160
 10
0.321126
 20
0.0352106
 30
0.0
 11
0.538411
 21
0.0331489
 31
0.0
  0
LINE
  8
0
 62
     160
 10
0.538411
 20
0.0331489
 30
0.0
 11
0.538411
 21
0.0567492
 31
0.0
  0
LINE
  8
0
 62
     160
 10
0.570801
 20
0.282064
 30
0.0
 11
0.4375
 21
0.282064
 31
0.0
  0
LINE
  8
0
 62
     160
 10
0.4375
 20
0.282064
 30
0.0
 11
0.367133
 21
0.317219
 31
0.0
  0
LINE
  8
0
 62
     160
 10
0.367133
 20
0.317219
 30
0.0
 11
0.388238
 21
0.3278
 31
0.0
  0
LINE
  8
0
 62
     160
 10
0.388238
 20
0.3278
 30
0.0
 11
0.442057
 21
0.306261
 31
0.0
  0
LINE
  8
0
 62
     160
 10
0.442057
 20
0.306261
 30
0.0
 11
0.447049
 21
0.305447
 31
0.0
  0
LINE
  8
0
 62
     160
 10
0.447049
 20
0.305447
 30
0.0
 11
0.601725
 21
0.312989
 31
0.0
  0
LINE
  8
0
 62
     160
 10
0.601725
 20
0.312989
 30
0.0
 11
0.570801
 21
0.282064
 31
0.0
  0
LINE
  8
0
 62
     160
 10
3.45893
 20
0.21034
 30
0.0
 11
3.41547
 21
0.232042
 31
0.0
  0
LINE
  8
0
 62
     160
 10
3.41547
 20
0.232042
 30
0.0
 11
3.39378
 21
0.275553
 31
0.0
  0
LINE
  8
0
 62
     160
 10
3.39378
 20
0.275553
 30
0.0
 11
3.39057
 21
0.27946
 31
0.0
  0
LINE
  8
0
 62
     160
 10
3.39057
 20
0.27946
 30
0.0
 11
3.33188
 21
0.326443
 31
0.0
  0
LINE
  8
0
 62
     160
 10
3.33188
 20
0.326443
 30
0.0
 11
3.32449
 21
0.329047
 31
0.0
  0
LINE
  8
0
 62
     160
 10
3.32449
 20
0.329047
 30
0.0
 11
3.01904
 21
0.329047
 31
0.0
  0
LINE
  8
0
 62
     160
 10
3.01904
 20
0.329047
 30
0.0
 11
3.01199
 21
0.32666
 31
0.0
  0
LINE
  8
0
 62
     160
 10
3.01199
 20
0.32666
 30
0.0
 11
2.97163
 21
0.296442
 31
0.0
  0
LINE
  8
0
 62
     160
 10
2.97163
 20
0.296442
 30
0.0
 11
2.94336
 21
0.315321
 31
0.0
  0
LINE
  8
0
 62
     160
 10
2.94336
 20
0.315321
 30
0.0
 11
2.93565
 21
0.317219
 31
0.0
  0
LINE
  8
0
 62
     160
 10
2.93565
 20
0.317219
 30
0.0
 11
2.82374
 21
0.306044
 31
0.0
  0
LINE
  8
0
 62
     160
 10
2.82374
 20
0.306044
 30
0.0
 11
2.80419
 21
0.325575
 31
0.0
  0
LINE
  8
0
 62
     160
 10
2.80419
 20
0.325575
 30
0.0
 11
2.79585
 21
0.329047
 31
0.0
  0
LINE
  8
0
 62
     160
 10
2.79585
 20
0.329047
 30
0.0
 11
2.67839
 21
0.329047
 31
0.0
  0
LINE
  8
0
 62
     160
 10
2.67839
 20
0.329047
 30
0.0
 11
2.67182
 21
0.32704
 31
0.0
  0
LINE
  8
0
 62
     160
 10
2.67182
 20
0.32704
 30
0.0
 11
2.63954
 21
0.305556
 31
0.0
  0
LINE
  8
0
 62
     160
 10
2.63954
 20
0.305556
 30
0.0
 11
2.588
 21
0.305556
 31
0.0
  0
LINE
  8
0
 62
     160
 10
2.588
 20
0.305556
 30
0.0
 11
2.55572
 21
0.32704
 31
0.0
  0
LINE
  8
0
 62
     160
 10
2.55572
 20
0.32704
 30
0.0
 11
2.54889
 21
0.329047
 31
0.0
  0
LINE
  8
0
 62
     160
 10
2.54889
 20
0.329047
 30
0.0
 11
1.99681
 21
0.317275
 31
0.0
  0
LINE
  8
0
 62
     160
 10
1.99681
 20
0.317275
 30
0.0
 11
1.98872
 21
0.313857
 31
0.0
  0
LINE
  8
0
 62
     160
 10
1.98872
 20
0.313857
 30
0.0
 11
1.94092
 21
0.266058
 31
0.0
  0
LINE
  8
0
 62
     160
 10
1.94092
 20
0.266058
 30
0.0
 11
1.90158
 21
0.334853
 31
0.0
  0
LINE
  8
0
 62
     160
 10
1.90158
 20
0.334853
 30
0.0
 11
1.89133
 21
0.340767
 31
0.0
  0
LINE
  8
0
 62
     160
 10
1.89133
 20
0.340767
 30
0.0
 11
1.77388
 21
0.340767
 31
0.0
  0
LINE
  8
0
 62
     160
 10
1.77388
 20
0.340767
 30
0.0
 11
1.76779
 21
0.339085
 31
0.0
  0
LINE
  8
0
 62
     160
 10
1.76779
 20
0.339085
 30
0.0
 11
1.71186
 21
0.305556
 31
0.0
  0
LINE
  8
0
 62
     160
 10
1.71186
 20
0.305556
 30
0.0
 11
1.65642
 21
0.305556
 31
0.0
  0
LINE
  8
0
 62
     160
 10
1.65642
 20
0.305556
 30
0.0
 11
1.64806
 21
0.302083
 31
0.0
  0
LINE
  8
0
 62
     160
 10
1.64806
 20
0.302083
 30
0.0
 11
1.62457
 21
0.278592
 31
0.0
  0
LINE
  8
0
 62
     160
 10
1.62457
 20
0.278592
 30
0.0
 11
1.62125
 21
0.27219
 31
0.0
  0
LINE
  8
0
 62
     160
 10
1.62125
 20
0.27219
 30
0.0
 11
1.61236
 21
0.218804
 31
0.0
  0
LINE
  8
0
 62
     160
 10
1.61236
 20
0.218804
 30
0.0
 11
1.57422
 21
0.241699
 31
0.0
  0
LINE
  8
0
 62
     160
 10
1.57422
 20
0.241699
 30
0.0
 11
1.57422
 21
0.270236
 31
0.0
  0
LINE
  8
0
 62
     160
 10
1.57422
 20
0.270236
 30
0.0
 11
1.57075
 21
0.278592
 31
0.0
  0
LINE
  8
0
 62
     160
 10
1.57075
 20
0.278592
 30
0.0
 11
1.54725
 21
0.302083
 31
0.0
  0
LINE
  8
0
 62
     160
 10
1.54725
 20
0.302083
 30
0.0
 11
1.54085
 21
0.305393
 31
0.0
  0
LINE
  8
0
 62
     160
 10
1.54085
 20
0.305393
 30
0.0
 11
1.47037
 21
0.317165
 31
0.0
  0
LINE
  8
0
 62
     160
 10
1.47037
 20
0.317165
 30
0.0
 11
1.46793
 21
0.317275
 31
0.0
  0
LINE
  8
0
 62
     160
 10
1.46793
 20
0.317275
 30
0.0
 11
0.93061
 21
0.293946
 31
0.0
  0
LINE
  8
0
 62
     160
 10
0.93061
 20
0.293946
 30
0.0
 11
0.886393
 21
0.316026
 31
0.0
  0
LINE
  8
0
 62
     160
 10
0.886393
 20
0.316026
 30
0.0
 11
0.881076
 21
0.317275
 31
0.0
  0
LINE
  8
0
 62
     160
 10
0.881076
 20
0.317275
 30
0.0
 11
0.690213
 21
0.317275
 31
0.0
  0
LINE
  8
0
 62
     160
 10
0.690213
 20
0.317275
 30
0.0
 11
0.928657
 21
0.328939
 31
0.0
  0
LINE
  8
0
 62
     160
 10
0.928657
 20
0.328939
 30
0.0
 11
0.937879
 21
0.334147
 31
0.0
  0
LINE
  8
0
 62
     160
 10
0.937879
 20
0.334147
 30
0.0
 11
0.961426
 21
0.369413
 31
0.0
  0
LINE
  8
0
 62
     160
 10
0.961426
 20
0.369413
 30
0.0
 11
0.963379
 21
0.375976
 31
0.0
  0
LINE
  8
0
 62
     160
 10
0.963379
 20
0.375976
 30
0.0
 11
0.963379
 21
0.516928
 31
0.0
  0
LINE
  8
0
 62
     160
 10
0.963379
 20
0.516928
 30
0.0
 11
0.961697
 21
0.523003
 31
0.0
  0
LINE
  8
0
 62
     160
 10
0.961697
 20
0.523003
 30
0.0
 11
0.926432
 21
0.58176
 31
0.0
  0
LINE
  8
0
 62
     160
 10
0.926432
 20
0.58176
 30
0.0
 11
0.916342
 21
0.587457
 31
0.0
  0
LINE
  8
0
 62
     160
 10
0.916342
 20
0.587457
 30
0.0
 11
0.364204
 21
0.587457
 31
0.0
  0
LINE
  8
0
 62
     160
 10
0.364204
 20
0.587457
 30
0.0
 11
0.357693
 21
0.585503
 31
0.0
  0
LINE
  8
0
 62
     160
 10
0.357693
 20
0.585503
 30
0.0
 11
0.325413
 21
0.563965
 31
0.0
  0
LINE
  8
0
 62
     160
 10
0.325413
 20
0.563965
 30
0.0
 11
0.250325
 21
0.563965
 31
0.0
  0
LINE
  8
0
 62
     160
 10
0.250325
 20
0.563965
 30
0.0
 11
0.218044
 21
0.585503
 31
0.0
  0
LINE
  8
0
 62
     160
 10
0.218044
 20
0.585503
 30
0.0
 11
0.210775
 21
0.587457
 31
0.0
  0
LINE
  8
0
 62
     160
 10
0.210775
 20
0.587457
 30
0.0
 11
0.148926
 21
0.583604
 31
0.0
  0
LINE
  8
0
 62
     160
 10
0.148926
 20
0.583604
 30
0.0
 11
0.148926
 21
0.577692
 31
0.0
  0
LINE
  8
0
 62
     160
 10
0.148926
 20
0.577692
 30
0.0
 11
0.148926
 21
0.559896
 31
0.0
  0
LINE
  8
0
 62
     160
 10
0.148926
 20
0.559896
 30
0.0
 11
0.208279
 21
0.563639
 31
0.0
  0
LINE
  8
0
 62
     160
 10
0.208279
 20
0.563639
 30
0.0
 11
0.240181
 21
0.542372
 31
0.0
  0
LINE
  8
0
 62
     160
 10
0.240181
 20
0.542372
 30
0.0
 11
0.246744
 21
0.540364
 31
0.0
  0
LINE
  8
0
 62
     160
 10
0.246744
 20
0.540364
 30
0.0
 11
0.328993
 21
0.540364
 31
0.0
  0
LINE
  8
0
 62
     160
 10
0.328993
 20
0.540364
 30
0.0
 11
0.335503
 21
0.542372
 31
0.0
  0
LINE
  8
0
 62
     160
 10
0.335503
 20
0.542372
 30
0.0
 11
0.367785
 21
0.563857
 31
0.0
  0
LINE
  8
0
 62
     160
 10
0.367785
 20
0.563857
 30
0.0
 11
0.909614
 21
0.563857
 31
0.0
  0
LINE
  8
0
 62
     160
 10
0.909614
 20
0.563857
 30
0.0
 11
0.939779
 21
0.513672
 31
0.0
  0
LINE
  8
0
 62
     160
 10
0.939779
 20
0.513672
 30
0.0
 11
0.939779
 21
0.379557
 31
0.0
  0
LINE
  8
0
 62
     160
 10
0.939779
 20
0.379557
 30
0.0
 11
0.92155
 21
0.352214
 31
0.0
  0
LINE
  8
0
 62
     160
 10
0.92155
 20
0.352214
 30
0.0
 11
0.44846
 21
0.329156
 31
0.0
  0
LINE
  8
0
 62
     160
 10
0.44846
 20
0.329156
 30
0.0
 11
0.39209
 21
0.351671
 31
0.0
  0
LINE
  8
0
 62
     160
 10
0.39209
 20
0.351671
 30
0.0
 11
0.382433
 21
0.351292
 31
0.0
  0
LINE
  8
0
 62
     160
 10
0.382433
 20
0.351292
 30
0.0
 11
0.335449
 21
0.3278
 31
0.0
  0
LINE
  8
0
 62
     160
 10
0.335449
 20
0.3278
 30
0.0
 11
0.335449
 21
0.30664
 31
0.0
  0
LINE
  8
0
 62
     160
 10
0.335449
 20
0.30664
 30
0.0
 11
0.429417
 21
0.259657
 31
0.0
  0
LINE
  8
0
 62
     160
 10
0.429417
 20
0.259657
 30
0.0
 11
0.434679
 21
0.25841
 31
0.0
  0
LINE
  8
0
 62
     160
 10
0.434679
 20
0.25841
 30
0.0
 11
0.575683
 21
0.25841
 31
0.0
  0
LINE
  8
0
 62
     160
 10
0.575683
 20
0.25841
 30
0.0
 11
0.584039
 21
0.261882
 31
0.0
  0
LINE
  8
0
 62
     160
 10
0.584039
 20
0.261882
 30
0.0
 11
0.615776
 21
0.293674
 31
0.0
  0
LINE
  8
0
 62
     160
 10
0.615776
 20
0.293674
 30
0.0
 11
0.87831
 21
0.293674
 31
0.0
  0
LINE
  8
0
 62
     160
 10
0.87831
 20
0.293674
 30
0.0
 11
0.922797
 21
0.271431
 31
0.0
  0
LINE
  8
0
 62
     160
 10
0.922797
 20
0.271431
 30
0.0
 11
0.928603
 21
0.270182
 31
0.0
  0
LINE
  8
0
 62
     160
 10
0.928603
 20
0.270182
 30
0.0
 11
1.46772
 21
0.293619
 31
0.0
  0
LINE
  8
0
 62
     160
 10
1.46772
 20
0.293619
 30
0.0
 11
1.53326
 21
0.282715
 31
0.0
  0
LINE
  8
0
 62
     160
 10
1.53326
 20
0.282715
 30
0.0
 11
1.55062
 21
0.265354
 31
0.0
  0
LINE
  8
0
 62
     160
 10
1.55062
 20
0.265354
 30
0.0
 11
1.55062
 21
0.235026
 31
0.0
  0
LINE
  8
0
 62
     160
 10
1.55062
 20
0.235026
 30
0.0
 11
1.55632
 21
0.224881
 31
0.0
  0
LINE
  8
0
 62
     160
 10
1.55632
 20
0.224881
 30
0.0
 11
1.61507
 21
0.189615
 31
0.0
  0
LINE
  8
0
 62
     160
 10
1.61507
 20
0.189615
 30
0.0
 11
1.63281
 21
0.197808
 31
0.0
  0
LINE
  8
0
 62
     160
 10
1.63281
 20
0.197808
 30
0.0
 11
1.64393
 21
0.264594
 31
0.0
  0
LINE
  8
0
 62
     160
 10
1.64393
 20
0.264594
 30
0.0
 11
1.66129
 21
0.281901
 31
0.0
  0
LINE
  8
0
 62
     160
 10
1.66129
 20
0.281901
 30
0.0
 11
1.71511
 21
0.281901
 31
0.0
  0
LINE
  8
0
 62
     160
 10
1.71511
 20
0.281901
 30
0.0
 11
1.72119
 21
0.283637
 31
0.0
  0
LINE
  8
0
 62
     160
 10
1.72119
 20
0.283637
 30
0.0
 11
1.77713
 21
0.317165
 31
0.0
  0
LINE
  8
0
 62
     160
 10
1.77713
 20
0.317165
 30
0.0
 11
1.8845
 21
0.317165
 31
0.0
  0
LINE
  8
0
 62
     160
 10
1.8845
 20
0.317165
 30
0.0
 11
1.92806
 21
0.240886
 31
0.0
  0
LINE
  8
0
 62
     160
 10
1.92806
 20
0.240886
 30
0.0
 11
1.94667
 21
0.23839
 31
0.0
  0
LINE
  8
0
 62
     160
 10
1.94667
 20
0.23839
 30
0.0
 11
2.00206
 21
0.293782
 31
0.0
  0
LINE
  8
0
 62
     160
 10
2.00206
 20
0.293782
 30
0.0
 11
2.54568
 21
0.305339
 31
0.0
  0
LINE
  8
0
 62
     160
 10
2.54568
 20
0.305339
 30
0.0
 11
2.57785
 21
0.283908
 31
0.0
  0
LINE
  8
0
 62
     160
 10
2.57785
 20
0.283908
 30
0.0
 11
2.58442
 21
0.281901
 31
0.0
  0
LINE
  8
0
 62
     160
 10
2.58442
 20
0.281901
 30
0.0
 11
2.64312
 21
0.281901
 31
0.0
  0
LINE
  8
0
 62
     160
 10
2.64312
 20
0.281901
 30
0.0
 11
2.64968
 21
0.283908
 31
0.0
  0
LINE
  8
0
 62
     160
 10
2.64968
 20
0.283908
 30
0.0
 11
2.68197
 21
0.305393
 31
0.0
  0
LINE
  8
0
 62
     160
 10
2.68197
 20
0.305393
 30
0.0
 11
2.79096
 21
0.305393
 31
0.0
  0
LINE
  8
0
 62
     160
 10
2.79096
 20
0.305393
 30
0.0
 11
2.81099
 21
0.285374
 31
0.0
  0
LINE
  8
0
 62
     160
 10
2.81099
 20
0.285374
 30
0.0
 11
2.82053
 21
0.28201
 31
0.0
  0
LINE
  8
0
 62
     160
 10
2.82053
 20
0.28201
 30
0.0
 11
2.93375
 21
0.293294
 31
0.0
  0
LINE
  8
0
 62
     160
 10
2.93375
 20
0.293294
 30
0.0
 11
2.9655
 21
0.27219
 31
0.0
  0
LINE
  8
0
 62
     160
 10
2.9655
 20
0.27219
 30
0.0
 11
2.97911
 21
0.272569
 31
0.0
  0
LINE
  8
0
 62
     160
 10
2.97911
 20
0.272569
 30
0.0
 11
3.023
 21
0.305393
 31
0.0
  0
LINE
  8
0
 62
     160
 10
3.023
 20
0.305393
 30
0.0
 11
3.32031
 21
0.305393
 31
0.0
  0
LINE
  8
0
 62
     160
 10
3.32031
 20
0.305393
 30
0.0
 11
3.37381
 21
0.262642
 31
0.0
  0
LINE
  8
0
 62
     160
 10
3.37381
 20
0.262642
 30
0.0
 11
3.39611
 21
0.21799
 31
0.0
  0
LINE
  8
0
 62
     160
 10
3.39611
 20
0.21799
 30
0.0
 11
3.40142
 21
0.212674
 31
0.0
  0
LINE
  8
0
 62
     160
 10
3.40142
 20
0.212674
 30
0.0
 11
3.44183
 21
0.192438
 31
0.0
  0
LINE
  8
0
 62
     160
 10
3.44183
 20
0.192438
 30
0.0
 11
3.44183
 21
0.0636936
 31
0.0
  0
LINE
  8
0
 62
     160
 10
3.44183
 20
0.0636936
 30
0.0
 11
3.42535
 21
0.0472006
 31
0.0
  0
LINE
  8
0
 62
     160
 10
3.42535
 20
0.0472006
 30
0.0
 11
2.58458
 21
0.058865
 31
0.0
  0
LINE
  8
0
 62
     160
 10
2.58458
 20
0.058865
 30
0.0
 11
2.57785
 21
0.0568576
 31
0.0
  0
LINE
  8
0
 62
     160
 10
2.57785
 20
0.0568576
 30
0.0
 11
2.54557
 21
0.0353733
 31
0.0
  0
LINE
  8
0
 62
     160
 10
2.54557
 20
0.0353733
 30
0.0
 11
2.29161
 21
0.035319
 31
0.0
  0
LINE
  8
0
 62
     160
 10
2.29161
 20
0.035319
 30
0.0
 11
1.99056
 21
0.0584853
 31
0.0
  0
LINE
  8
0
 62
     160
 10
1.99056
 20
0.0584853
 30
0.0
 11
1.94667
 21
0.102376
 31
0.0
  0
LINE
  8
0
 62
     160
 10
1.94667
 20
0.102376
 30
0.0
 11
1.93832
 21
0.105848
 31
0.0
  0
LINE
  8
0
 62
     160
 10
1.93832
 20
0.105848
 30
0.0
 11
1.87961
 21
0.105848
 31
0.0
  0
LINE
  8
0
 62
     160
 10
1.87961
 20
0.105848
 30
0.0
 11
1.87201
 21
0.103136
 31
0.0
  0
LINE
  8
0
 62
     160
 10
1.87201
 20
0.103136
 30
0.0
 11
1.80485
 21
0.0470919
 31
0.0
  0
LINE
  8
0
 62
     160
 10
1.80485
 20
0.0470919
 30
0.0
 11
1.68479
 21
0.0470919
 31
0.0
  0
LINE
  8
0
 62
     160
 10
1.68479
 20
0.0470919
 30
0.0
 11
1.66476
 21
0.0671658
 31
0.0
  0
LINE
  8
0
 62
     160
 10
1.66476
 20
0.0671658
 30
0.0
 11
1.64985
 21
0.0686307
 31
0.0
  0
LINE
  8
0
 62
     160
 10
1.64985
 20
0.0686307
 30
0.0
 11
1.61763
 21
0.0471463
 31
0.0
  0
LINE
  8
0
 62
     160
 10
1.61763
 20
0.0471463
 30
0.0
 11
1.01232
 21
0.0529514
 31
0.0
  0
LINE
  8
0
 62
     160
 10
1.01232
 20
0.0529514
 30
0.0
 11
1.01232
 21
0.0293511
 31
0.0
  0
LINE
  8
0
 62
     160
 10
1.01232
 20
0.0293511
 30
0.0
 11
1.62104
 21
0.0234918
 31
0.0
  0
LINE
  8
0
 62
     160
 10
1.62104
 20
0.0234918
 30
0.0
 11
1.62771
 21
0.0254992
 31
0.0
  0
LINE
  8
0
 62
     160
 10
1.62771
 20
0.0254992
 30
0.0
 11
1.65489
 21
0.0436197
 31
0.0
  0
LINE
  8
0
 62
     160
 10
1.65489
 20
0.0436197
 30
0.0
 11
1.67156
 21
0.026964
 31
0.0
  0
LINE
  8
0
 62
     160
 10
1.67156
 20
0.026964
 30
0.0
 11
1.6799
 21
0.0234918
 31
0.0
  0
LINE
  8
0
 62
     160
 10
1.6799
 20
0.0234918
 30
0.0
 11
1.80908
 21
0.0234918
 31
0.0
  0
LINE
  8
0
 62
     160
 10
1.80908
 20
0.0234918
 30
0.0
 11
1.81668
 21
0.0262044
 31
0.0
  0
LINE
  8
0
 62
     160
 10
1.81668
 20
0.0262044
 30
0.0
 11
1.88385
 21
0.0822483
 31
0.0
  0
LINE
  8
0
 62
     160
 10
1.88385
 20
0.0822483
 30
0.0
 11
1.93343
 21
0.0822483
 31
0.0
  0
LINE
  8
0
 62
     160
 10
1.93343
 20
0.0822483
 30
0.0
 11
1.97694
 21
0.0386828
 31
0.0
  0
LINE
  8
0
 62
     160
 10
1.97694
 20
0.0386828
 30
0.0
 11
1.98438
 21
0.0352647
 31
0.0
  0
LINE
  8
0
 62
     160
 10
1.98438
 20
0.0352647
 30
0.0
 11
2.29075
 21
0.0117188
 31
0.0
  0
LINE
  8
0
 62
     160
 10
2.29075
 20
0.0117188
 30
0.0
 11
2.54915
 21
0.0117188
 31
0.0
  0
LINE
  8
0
 62
     160
 10
2.54915
 20
0.0117188
 30
0.0
 11
2.55572
 21
0.0137261
 31
0.0
  0
LINE
  8
0
 62
     160
 10
2.55572
 20
0.0137261
 30
0.0
 11
2.58789
 21
0.0352106
 31
0.0
  0
LINE
  8
0
 62
     160
 10
2.58789
 20
0.0352106
 30
0.0
 11
3.43001
 21
0.0234918
 31
0.0
  0
LINE
  8
0
 62
     160
 10
3.43001
 20
0.0234918
 30
0.0
 11
3.43853
 21
0.026964
 31
0.0
  0
LINE
  8
0
 62
     160
 10
3.43853
 20
0.026964
 30
0.0
 11
3.46203
 21
0.0504557
 31
0.0
  0
LINE
  8
0
 62
     160
 10
3.46203
 20
0.0504557
 30
0.0
 11
3.4655
 21
0.0588108
 31
0.0
  0
LINE
  8
0
 62
     160
 10
3.4655
 20
0.0588108
 30
0.0
 11
3.4655
 21
0.199761
 31
0.0
  0
LINE
  8
0
 62
     160
 10
3.4655
 20
0.199761
 30
0.0
 11
3.45893
 21
0.21034
 31
0.0
  0
ENDSEC
  0
EOF
