solid OpenSCAD_Model
  facet normal -1 0 0
    outer loop
      vertex 0 11.1 1.4
      vertex 0 11.7 0
      vertex 0 0.6 1.4
    endloop
  endfacet
  facet normal -1 0 0
    outer loop
      vertex 0 0 0
      vertex 0 0 2.6
      vertex 0 0.6 1.4
    endloop
  endfacet
  facet normal -1 0 0
    outer loop
      vertex 0 0 0
      vertex 0 0.6 1.4
      vertex 0 11.7 0
    endloop
  endfacet
  facet normal -1 0 0
    outer loop
      vertex 0 11.7 0
      vertex 0 11.1 1.4
      vertex 0 11.1 2.6
    endloop
  endfacet
  facet normal -1 0 0
    outer loop
      vertex 0 11.7 0
      vertex 0 11.1 2.6
      vertex 0 11.7 2.6
    endloop
  endfacet
  facet normal -1 0 0
    outer loop
      vertex 0 0.6 1.4
      vertex 0 0 2.6
      vertex 0 0.6 2.6
    endloop
  endfacet
  facet normal 0 -1 0
    outer loop
      vertex 0 0 2.6
      vertex 0 0 0
      vertex 119.7 0 0
    endloop
  endfacet
  facet normal 0 -1 0
    outer loop
      vertex 119.7 0 2.6
      vertex 0 0 2.6
      vertex 119.7 0 0
    endloop
  endfacet
  facet normal 0 0 -1
    outer loop
      vertex 0 0 0
      vertex 0 11.7 0
      vertex 119.7 0 0
    endloop
  endfacet
  facet normal 0 0 -1
    outer loop
      vertex 119.7 6.85 0
      vertex 0 11.7 0
      vertex 119.7 11.7 0
    endloop
  endfacet
  facet normal 0 0 -1
    outer loop
      vertex 119.7 0 0
      vertex 0 11.7 0
      vertex 119.7 4.85 0
    endloop
  endfacet
  facet normal 0 0 -1
    outer loop
      vertex 120.639 4.78934 0
      vertex 120.639 6.91066 0
      vertex 121.126 7.23582 0
    endloop
  endfacet
  facet normal 0 0 -1
    outer loop
      vertex 119.7 4.85 0
      vertex 120.639 6.91066 0
      vertex 120.599 4.85 0
    endloop
  endfacet
  facet normal 0 0 -1
    outer loop
      vertex 121.126 4.46418 0
      vertex 121.7 7.35 0
      vertex 122.274 7.23582 0
    endloop
  endfacet
  facet normal 0 0 -1
    outer loop
      vertex 120.639 4.78934 0
      vertex 121.7 7.35 0
      vertex 121.126 4.46418 0
    endloop
  endfacet
  facet normal 0 0 -1
    outer loop
      vertex 121.7 4.35 0
      vertex 122.761 6.91066 0
      vertex 123.086 6.42403 0
    endloop
  endfacet
  facet normal 0 0 -1
    outer loop
      vertex 122.274 4.46418 0
      vertex 123.086 6.42403 0
      vertex 123.2 5.85 0
    endloop
  endfacet
  facet normal 0 0 -1
    outer loop
      vertex 122.761 4.78934 0
      vertex 123.2 5.85 0
      vertex 123.086 5.27597 0
    endloop
  endfacet
  facet normal 0 0 -1
    outer loop
      vertex 121.126 4.46418 0
      vertex 122.761 6.91066 0
      vertex 121.7 4.35 0
    endloop
  endfacet
  facet normal 0 0 -1
    outer loop
      vertex 121.7 4.35 0
      vertex 123.086 6.42403 0
      vertex 122.274 4.46418 0
    endloop
  endfacet
  facet normal 0 0 -1
    outer loop
      vertex 121.126 4.46418 0
      vertex 122.274 7.23582 0
      vertex 122.761 6.91066 0
    endloop
  endfacet
  facet normal 0 0 -1
    outer loop
      vertex 120.639 4.78934 0
      vertex 121.126 7.23582 0
      vertex 121.7 7.35 0
    endloop
  endfacet
  facet normal 0 0 -1
    outer loop
      vertex 120.599 4.85 0
      vertex 120.639 6.91066 0
      vertex 120.639 4.78934 0
    endloop
  endfacet
  facet normal 0 0 -1
    outer loop
      vertex 119.7 4.85 0
      vertex 120.599 6.85 0
      vertex 120.639 6.91066 0
    endloop
  endfacet
  facet normal 0 0 -1
    outer loop
      vertex 119.7 6.85 0
      vertex 120.599 6.85 0
      vertex 119.7 4.85 0
    endloop
  endfacet
  facet normal 0 0 -1
    outer loop
      vertex 119.7 6.85 0
      vertex 119.7 4.85 0
      vertex 0 11.7 0
    endloop
  endfacet
  facet normal 0 0 -1
    outer loop
      vertex 122.274 4.46418 0
      vertex 123.2 5.85 0
      vertex 122.761 4.78934 0
    endloop
  endfacet
  facet normal 0 1 0
    outer loop
      vertex 0 11.7 0
      vertex 0 11.7 2.6
      vertex 119.7 11.7 0
    endloop
  endfacet
  facet normal 0 1 0
    outer loop
      vertex 119.7 11.7 0
      vertex 0 11.7 2.6
      vertex 119.7 11.7 2.6
    endloop
  endfacet
  facet normal 0 0 1
    outer loop
      vertex 0 11.7 2.6
      vertex 0 11.1 2.6
      vertex 119.7 11.1 2.6
    endloop
  endfacet
  facet normal 0 0 1
    outer loop
      vertex 119.7 11.7 2.6
      vertex 0 11.7 2.6
      vertex 119.7 11.1 2.6
    endloop
  endfacet
  facet normal 0 -1 0
    outer loop
      vertex 0 11.1 2.6
      vertex 0 11.1 1.4
      vertex 119.7 11.1 1.4
    endloop
  endfacet
  facet normal 0 -1 0
    outer loop
      vertex 119.7 11.1 2.6
      vertex 0 11.1 2.6
      vertex 119.7 11.1 1.4
    endloop
  endfacet
  facet normal 0 0 1
    outer loop
      vertex 0 11.1 1.4
      vertex 0 0.6 1.4
      vertex 119.7 0.6 1.4
    endloop
  endfacet
  facet normal 0 0 1
    outer loop
      vertex 120.599 4.85 1.4
      vertex 0 11.1 1.4
      vertex 119.7 4.85 1.4
    endloop
  endfacet
  facet normal 0 0 1
    outer loop
      vertex 119.7 4.85 1.4
      vertex 0 11.1 1.4
      vertex 119.7 0.6 1.4
    endloop
  endfacet
  facet normal 0 0 1
    outer loop
      vertex 122.761 4.78934 1.4
      vertex 0 11.1 1.4
      vertex 120.599 4.85 1.4
    endloop
  endfacet
  facet normal 0 0 1
    outer loop
      vertex 121.126 4.46418 1.4
      vertex 120.599 4.85 1.4
      vertex 120.639 4.78934 1.4
    endloop
  endfacet
  facet normal 0 0 1
    outer loop
      vertex 121.7 4.35 1.4
      vertex 120.599 4.85 1.4
      vertex 121.126 4.46418 1.4
    endloop
  endfacet
  facet normal 0 0 1
    outer loop
      vertex 122.274 4.46418 1.4
      vertex 120.599 4.85 1.4
      vertex 121.7 4.35 1.4
    endloop
  endfacet
  facet normal 0 0 1
    outer loop
      vertex 122.761 4.78934 1.4
      vertex 120.599 4.85 1.4
      vertex 122.274 4.46418 1.4
    endloop
  endfacet
  facet normal 0 0 1
    outer loop
      vertex 123.086 5.27597 1.4
      vertex 0 11.1 1.4
      vertex 122.761 4.78934 1.4
    endloop
  endfacet
  facet normal 0 0 1
    outer loop
      vertex 123.2 5.85 1.4
      vertex 0 11.1 1.4
      vertex 123.086 5.27597 1.4
    endloop
  endfacet
  facet normal 0 0 1
    outer loop
      vertex 123.086 6.42403 1.4
      vertex 0 11.1 1.4
      vertex 123.2 5.85 1.4
    endloop
  endfacet
  facet normal 0 0 1
    outer loop
      vertex 119.7 6.85 1.4
      vertex 0 11.1 1.4
      vertex 123.086 6.42403 1.4
    endloop
  endfacet
  facet normal 0 0 1
    outer loop
      vertex 121.126 7.23582 1.4
      vertex 120.639 6.91066 1.4
      vertex 122.761 6.91066 1.4
    endloop
  endfacet
  facet normal 0 0 1
    outer loop
      vertex 122.274 7.23582 1.4
      vertex 121.126 7.23582 1.4
      vertex 122.761 6.91066 1.4
    endloop
  endfacet
  facet normal 0 0 1
    outer loop
      vertex 122.761 6.91066 1.4
      vertex 120.639 6.91066 1.4
      vertex 123.086 6.42403 1.4
    endloop
  endfacet
  facet normal 0 0 1
    outer loop
      vertex 120.639 6.91066 1.4
      vertex 120.599 6.85 1.4
      vertex 123.086 6.42403 1.4
    endloop
  endfacet
  facet normal 0 0 1
    outer loop
      vertex 120.599 6.85 1.4
      vertex 119.7 6.85 1.4
      vertex 123.086 6.42403 1.4
    endloop
  endfacet
  facet normal 0 0 1
    outer loop
      vertex 121.7 7.35 1.4
      vertex 121.126 7.23582 1.4
      vertex 122.274 7.23582 1.4
    endloop
  endfacet
  facet normal 0 0 1
    outer loop
      vertex 119.7 6.85 1.4
      vertex 119.7 11.1 1.4
      vertex 0 11.1 1.4
    endloop
  endfacet
  facet normal 0 1 0
    outer loop
      vertex 0 0.6 1.4
      vertex 0 0.6 2.6
      vertex 119.7 0.6 1.4
    endloop
  endfacet
  facet normal 0 1 0
    outer loop
      vertex 119.7 0.6 1.4
      vertex 0 0.6 2.6
      vertex 119.7 0.6 2.6
    endloop
  endfacet
  facet normal 0 0 1
    outer loop
      vertex 0 0.6 2.6
      vertex 0 0 2.6
      vertex 119.7 0 2.6
    endloop
  endfacet
  facet normal 0 0 1
    outer loop
      vertex 119.7 0.6 2.6
      vertex 0 0.6 2.6
      vertex 119.7 0 2.6
    endloop
  endfacet
  facet normal 1 0 0
    outer loop
      vertex 119.7 0.6 1.4
      vertex 119.7 0 0
      vertex 119.7 4.85 0
    endloop
  endfacet
  facet normal 1 0 0
    outer loop
      vertex 119.7 0.6 1.4
      vertex 119.7 0.6 2.6
      vertex 119.7 0 2.6
    endloop
  endfacet
  facet normal 1 0 0
    outer loop
      vertex 119.7 0 2.6
      vertex 119.7 0 0
      vertex 119.7 0.6 1.4
    endloop
  endfacet
  facet normal 1 0 0
    outer loop
      vertex 119.7 4.85 1.4
      vertex 119.7 0.6 1.4
      vertex 119.7 4.85 0
    endloop
  endfacet
  facet normal 0 -1 0
    outer loop
      vertex 119.7 4.85 1.4
      vertex 119.7 4.85 0
      vertex 120.599 4.85 0
    endloop
  endfacet
  facet normal 0 -1 0
    outer loop
      vertex 120.599 4.85 1.4
      vertex 119.7 4.85 1.4
      vertex 120.599 4.85 0
    endloop
  endfacet
  facet normal -0.83147 -0.55557 0
    outer loop
      vertex 120.599 4.85 0
      vertex 120.639 4.78934 0
      vertex 120.599 4.85 1.4
    endloop
  endfacet
  facet normal -0.83147 -0.55557 0
    outer loop
      vertex 120.599 4.85 1.4
      vertex 120.639 4.78934 0
      vertex 120.639 4.78934 1.4
    endloop
  endfacet
  facet normal -0.55557 -0.83147 0
    outer loop
      vertex 120.639 4.78934 1.4
      vertex 120.639 4.78934 0
      vertex 121.126 4.46418 0
    endloop
  endfacet
  facet normal -0.55557 -0.83147 0
    outer loop
      vertex 121.126 4.46418 1.4
      vertex 120.639 4.78934 1.4
      vertex 121.126 4.46418 0
    endloop
  endfacet
  facet normal -0.19509 -0.980785 0
    outer loop
      vertex 121.126 4.46418 1.4
      vertex 121.126 4.46418 0
      vertex 121.7 4.35 0
    endloop
  endfacet
  facet normal -0.19509 -0.980785 0
    outer loop
      vertex 121.7 4.35 1.4
      vertex 121.126 4.46418 1.4
      vertex 121.7 4.35 0
    endloop
  endfacet
  facet normal 0.19509 -0.980785 0
    outer loop
      vertex 121.7 4.35 1.4
      vertex 121.7 4.35 0
      vertex 122.274 4.46418 0
    endloop
  endfacet
  facet normal 0.19509 -0.980785 0
    outer loop
      vertex 122.274 4.46418 1.4
      vertex 121.7 4.35 1.4
      vertex 122.274 4.46418 0
    endloop
  endfacet
  facet normal 0.55557 -0.83147 0
    outer loop
      vertex 122.274 4.46418 1.4
      vertex 122.274 4.46418 0
      vertex 122.761 4.78934 0
    endloop
  endfacet
  facet normal 0.55557 -0.83147 0
    outer loop
      vertex 122.761 4.78934 1.4
      vertex 122.274 4.46418 1.4
      vertex 122.761 4.78934 0
    endloop
  endfacet
  facet normal 0.83147 -0.55557 0
    outer loop
      vertex 122.761 4.78934 1.4
      vertex 122.761 4.78934 0
      vertex 123.086 5.27597 0
    endloop
  endfacet
  facet normal 0.83147 -0.55557 0
    outer loop
      vertex 123.086 5.27597 1.4
      vertex 122.761 4.78934 1.4
      vertex 123.086 5.27597 0
    endloop
  endfacet
  facet normal 0.980785 -0.19509 0
    outer loop
      vertex 123.086 5.27597 1.4
      vertex 123.086 5.27597 0
      vertex 123.2 5.85 0
    endloop
  endfacet
  facet normal 0.980785 -0.19509 0
    outer loop
      vertex 123.2 5.85 1.4
      vertex 123.086 5.27597 1.4
      vertex 123.2 5.85 0
    endloop
  endfacet
  facet normal 0.980785 0.19509 0
    outer loop
      vertex 123.2 5.85 0
      vertex 123.086 6.42403 0
      vertex 123.086 6.42403 1.4
    endloop
  endfacet
  facet normal 0.980785 0.19509 0
    outer loop
      vertex 123.2 5.85 1.4
      vertex 123.2 5.85 0
      vertex 123.086 6.42403 1.4
    endloop
  endfacet
  facet normal 0.83147 0.55557 0
    outer loop
      vertex 123.086 6.42403 0
      vertex 122.761 6.91066 0
      vertex 122.761 6.91066 1.4
    endloop
  endfacet
  facet normal 0.83147 0.55557 0
    outer loop
      vertex 123.086 6.42403 1.4
      vertex 123.086 6.42403 0
      vertex 122.761 6.91066 1.4
    endloop
  endfacet
  facet normal 0.55557 0.83147 0
    outer loop
      vertex 122.274 7.23582 0
      vertex 122.274 7.23582 1.4
      vertex 122.761 6.91066 0
    endloop
  endfacet
  facet normal 0.55557 0.83147 0
    outer loop
      vertex 122.761 6.91066 0
      vertex 122.274 7.23582 1.4
      vertex 122.761 6.91066 1.4
    endloop
  endfacet
  facet normal 0.19509 0.980785 0
    outer loop
      vertex 121.7 7.35 0
      vertex 121.7 7.35 1.4
      vertex 122.274 7.23582 0
    endloop
  endfacet
  facet normal 0.19509 0.980785 0
    outer loop
      vertex 122.274 7.23582 0
      vertex 121.7 7.35 1.4
      vertex 122.274 7.23582 1.4
    endloop
  endfacet
  facet normal -0.19509 0.980785 0
    outer loop
      vertex 121.126 7.23582 0
      vertex 121.126 7.23582 1.4
      vertex 121.7 7.35 0
    endloop
  endfacet
  facet normal -0.19509 0.980785 0
    outer loop
      vertex 121.7 7.35 0
      vertex 121.126 7.23582 1.4
      vertex 121.7 7.35 1.4
    endloop
  endfacet
  facet normal -0.55557 0.83147 0
    outer loop
      vertex 120.639 6.91066 0
      vertex 120.639 6.91066 1.4
      vertex 121.126 7.23582 0
    endloop
  endfacet
  facet normal -0.55557 0.83147 0
    outer loop
      vertex 121.126 7.23582 0
      vertex 120.639 6.91066 1.4
      vertex 121.126 7.23582 1.4
    endloop
  endfacet
  facet normal -0.83147 0.55557 0
    outer loop
      vertex 120.599 6.85 0
      vertex 120.599 6.85 1.4
      vertex 120.639 6.91066 0
    endloop
  endfacet
  facet normal -0.83147 0.55557 0
    outer loop
      vertex 120.639 6.91066 0
      vertex 120.599 6.85 1.4
      vertex 120.639 6.91066 1.4
    endloop
  endfacet
  facet normal 0 1 0
    outer loop
      vertex 119.7 6.85 0
      vertex 119.7 6.85 1.4
      vertex 120.599 6.85 0
    endloop
  endfacet
  facet normal 0 1 0
    outer loop
      vertex 120.599 6.85 0
      vertex 119.7 6.85 1.4
      vertex 120.599 6.85 1.4
    endloop
  endfacet
  facet normal 1 0 0
    outer loop
      vertex 119.7 6.85 1.4
      vertex 119.7 6.85 0
      vertex 119.7 11.7 0
    endloop
  endfacet
  facet normal 1 0 0
    outer loop
      vertex 119.7 11.1 1.4
      vertex 119.7 6.85 1.4
      vertex 119.7 11.7 0
    endloop
  endfacet
  facet normal 1 0 0
    outer loop
      vertex 119.7 11.7 2.6
      vertex 119.7 11.1 1.4
      vertex 119.7 11.7 0
    endloop
  endfacet
  facet normal 1 0 0
    outer loop
      vertex 119.7 11.1 2.6
      vertex 119.7 11.1 1.4
      vertex 119.7 11.7 2.6
    endloop
  endfacet
endsolid OpenSCAD_Model
