  0
SECTION
  2
HEADER
  9
$ACADVER
  1
AC1009
  9
$EXTMIN
 10
0.0
 20
0.0
 30
0.0
  9
$EXTMAX
 10
1000.0
 20
1000.0
 30
0.0
  9
$FILLMODE
 70
 0
  9
$SPLFRAME
 70
 1
  0
ENDSEC
  0
SECTION
  2
TABLES
  0
TABLE
  2
LAYER
 70
1
  0
LAYER
  2
0
 70
     0
 62
     7
  6
CONTINUOUS
  0
ENDTAB
  0
ENDSEC
  0
SECTION
  2
ENTITIES
  0
LINE
  8
0
 62
     4
 10
1.13976
 20
0.419271
 30
0.0
 11
0.931099
 21
0.419271
 31
0.0
  0
LINE
  8
0
 62
     4
 10
0.931099
 20
0.419271
 30
0.0
 11
0.931099
 21
0.824815
 31
0.0
  0
LINE
  8
0
 62
     4
 10
0.931099
 20
0.824815
 30
0.0
 11
1.13976
 21
0.824815
 31
0.0
  0
LINE
  8
0
 62
     4
 10
1.13976
 20
0.824815
 30
0.0
 11
1.13976
 21
0.419271
 31
0.0
  0
LINE
  8
0
 62
     4
 10
1.28738
 20
1.31098
 30
0.0
 11
0.0236003
 21
1.31098
 31
0.0
  0
LINE
  8
0
 62
     4
 10
0.0236003
 20
1.31098
 30
0.0
 11
0
 21
1.28738
 31
0.0
  0
LINE
  8
0
 62
     4
 10
0
 20
1.28738
 30
0.0
 11
0
 21
0.0236003
 31
0.0
  0
LINE
  8
0
 62
     4
 10
0
 20
0.0236003
 30
0.0
 11
0.0236003
 21
-0
 31
0.0
  0
LINE
  8
0
 62
     4
 10
0.0236003
 20
-0
 30
0.0
 11
0.720486
 21
-0
 31
0.0
  0
LINE
  8
0
 62
     4
 10
0.720486
 20
-0
 30
0.0
 11
0.720486
 21
0.00591363
 31
0.0
  0
LINE
  8
0
 62
     4
 10
0.720486
 20
0.00591363
 30
0.0
 11
0.911404
 21
0.00591363
 31
0.0
  0
LINE
  8
0
 62
     4
 10
0.911404
 20
0.00591363
 30
0.0
 11
0.911404
 21
0.111003
 31
0.0
  0
LINE
  8
0
 62
     4
 10
0.911404
 20
0.111003
 30
0.0
 11
0.896972
 21
0.131836
 31
0.0
  0
LINE
  8
0
 62
     4
 10
0.896972
 20
0.131836
 30
0.0
 11
0.89171
 21
0.157443
 31
0.0
  0
LINE
  8
0
 62
     4
 10
0.89171
 20
0.157443
 30
0.0
 11
0.89681
 21
0.182781
 31
0.0
  0
LINE
  8
0
 62
     4
 10
0.89681
 20
0.182781
 30
0.0
 11
0.910699
 21
0.20345
 31
0.0
  0
LINE
  8
0
 62
     4
 10
0.910699
 20
0.20345
 30
0.0
 11
0.931369
 21
0.217339
 31
0.0
  0
LINE
  8
0
 62
     4
 10
0.931369
 20
0.217339
 30
0.0
 11
0.956706
 21
0.222439
 31
0.0
  0
LINE
  8
0
 62
     4
 10
0.956706
 20
0.222439
 30
0.0
 11
0.981933
 21
0.217339
 31
0.0
  0
LINE
  8
0
 62
     4
 10
0.981933
 20
0.217339
 30
0.0
 11
1.0026
 21
0.20345
 31
0.0
  0
LINE
  8
0
 62
     4
 10
1.0026
 20
0.20345
 30
0.0
 11
1.01649
 21
0.182781
 31
0.0
  0
LINE
  8
0
 62
     4
 10
1.01649
 20
0.182781
 30
0.0
 11
1.02165
 21
0.157443
 31
0.0
  0
LINE
  8
0
 62
     4
 10
1.02165
 20
0.157443
 30
0.0
 11
1.01633
 21
0.131836
 31
0.0
  0
LINE
  8
0
 62
     4
 10
1.01633
 20
0.131836
 30
0.0
 11
1.00195
 21
0.111003
 31
0.0
  0
LINE
  8
0
 62
     4
 10
1.00195
 20
0.111003
 30
0.0
 11
1.00195
 21
0.00591363
 31
0.0
  0
LINE
  8
0
 62
     4
 10
1.00195
 20
0.00591363
 30
0.0
 11
1.19293
 21
0.00591363
 31
0.0
  0
LINE
  8
0
 62
     4
 10
1.19293
 20
0.00591363
 30
0.0
 11
1.19293
 21
-0
 31
0.0
  0
LINE
  8
0
 62
     4
 10
1.19293
 20
-0
 30
0.0
 11
1.28738
 21
-0
 31
0.0
  0
LINE
  8
0
 62
     4
 10
1.28738
 20
-0
 30
0.0
 11
1.31103
 21
0.0236003
 31
0.0
  0
LINE
  8
0
 62
     4
 10
1.31103
 20
0.0236003
 30
0.0
 11
1.31103
 21
1.28738
 31
0.0
  0
LINE
  8
0
 62
     4
 10
1.31103
 20
1.28738
 30
0.0
 11
1.28738
 21
1.31098
 31
0.0
  0
ENDSEC
  0
EOF
