  0
SECTION
  2
HEADER
  9
$ACADVER
  1
AC1009
  9
$EXTMIN
 10
0.0
 20
0.0
 30
0.0
  9
$EXTMAX
 10
1000.0
 20
1000.0
 30
0.0
  9
$FILLMODE
 70
 0
  9
$SPLFRAME
 70
 1
  0
ENDSEC
  0
SECTION
  2
TABLES
  0
TABLE
  2
LAYER
 70
1
  0
LAYER
  2
0
 70
     0
 62
     7
  6
CONTINUOUS
  0
ENDTAB
  0
ENDSEC
  0
SECTION
  2
ENTITIES
  0
LINE
  8
0
 62
     160
 10
1.31103
 20
0.0347765
 30
0.0
 11
1.29199
 21
0.0157335
 31
0.0
  0
LINE
  8
0
 62
     160
 10
1.29199
 20
0.0157335
 30
0.0
 11
1.20079
 21
0.0157335
 31
0.0
  0
LINE
  8
0
 62
     160
 10
1.20079
 20
0.0157335
 30
0.0
 11
1.20079
 21
-0
 31
0.0
  0
LINE
  8
0
 62
     160
 10
1.20079
 20
-0
 30
0.0
 11
1.29525
 21
-0
 31
0.0
  0
LINE
  8
0
 62
     160
 10
1.29525
 20
-0
 30
0.0
 11
1.30084
 21
0.0023329
 31
0.0
  0
LINE
  8
0
 62
     160
 10
1.30084
 20
0.0023329
 30
0.0
 11
1.32444
 21
0.0259332
 31
0.0
  0
LINE
  8
0
 62
     160
 10
1.32444
 20
0.0259332
 30
0.0
 11
1.32677
 21
0.0315213
 31
0.0
  0
LINE
  8
0
 62
     160
 10
1.32677
 20
0.0315213
 30
0.0
 11
1.32677
 21
0.220486
 31
0.0
  0
LINE
  8
0
 62
     160
 10
1.32677
 20
0.220486
 30
0.0
 11
1.31103
 21
0.220486
 31
0.0
  0
LINE
  8
0
 62
     160
 10
1.31103
 20
0.220486
 30
0.0
 11
1.31103
 21
0.0347765
 31
0.0
  0
LINE
  8
0
 62
     160
 10
1.32444
 20
1.30084
 30
0.0
 11
1.30084
 21
1.32444
 31
0.0
  0
LINE
  8
0
 62
     160
 10
1.30084
 20
1.32444
 30
0.0
 11
1.29525
 21
1.32677
 31
0.0
  0
LINE
  8
0
 62
     160
 10
1.29525
 20
1.32677
 30
0.0
 11
0.0315213
 21
1.32677
 31
0.0
  0
LINE
  8
0
 62
     160
 10
0.0315213
 20
1.32677
 30
0.0
 11
0.0259332
 21
1.32444
 31
0.0
  0
LINE
  8
0
 62
     160
 10
0.0259332
 20
1.32444
 30
0.0
 11
0.0023329
 21
1.30084
 31
0.0
  0
LINE
  8
0
 62
     160
 10
0.0023329
 20
1.30084
 30
0.0
 11
0
 21
1.2953
 31
0.0
  0
LINE
  8
0
 62
     160
 10
0
 20
1.2953
 30
0.0
 11
0
 21
0.0315213
 31
0.0
  0
LINE
  8
0
 62
     160
 10
0
 20
0.0315213
 30
0.0
 11
0.0023329
 21
0.0259332
 31
0.0
  0
LINE
  8
0
 62
     160
 10
0.0023329
 20
0.0259332
 30
0.0
 11
0.0259332
 21
0.0023329
 31
0.0
  0
LINE
  8
0
 62
     160
 10
0.0259332
 20
0.0023329
 30
0.0
 11
0.0315213
 21
-0
 31
0.0
  0
LINE
  8
0
 62
     160
 10
0.0315213
 20
-0
 30
0.0
 11
0.728353
 21
-0
 31
0.0
  0
LINE
  8
0
 62
     160
 10
0.728353
 20
-0
 30
0.0
 11
0.728353
 21
0.0157335
 31
0.0
  0
LINE
  8
0
 62
     160
 10
0.728353
 20
0.0157335
 30
0.0
 11
0.0347765
 21
0.0157335
 31
0.0
  0
LINE
  8
0
 62
     160
 10
0.0347765
 20
0.0157335
 30
0.0
 11
0.0157335
 21
0.0347765
 31
0.0
  0
LINE
  8
0
 62
     160
 10
0.0157335
 20
0.0347765
 30
0.0
 11
0.0157335
 21
1.29199
 31
0.0
  0
LINE
  8
0
 62
     160
 10
0.0157335
 20
1.29199
 30
0.0
 11
0.0347765
 21
1.31098
 31
0.0
  0
LINE
  8
0
 62
     160
 10
0.0347765
 20
1.31098
 30
0.0
 11
1.29199
 21
1.31098
 31
0.0
  0
LINE
  8
0
 62
     160
 10
1.29199
 20
1.31098
 30
0.0
 11
1.31103
 21
1.29199
 31
0.0
  0
LINE
  8
0
 62
     160
 10
1.31103
 20
1.29199
 30
0.0
 11
1.31103
 21
0.669271
 31
0.0
  0
LINE
  8
0
 62
     160
 10
1.31103
 20
0.669271
 30
0.0
 11
1.32677
 21
0.669271
 31
0.0
  0
LINE
  8
0
 62
     160
 10
1.32677
 20
0.669271
 30
0.0
 11
1.32677
 21
1.2953
 31
0.0
  0
LINE
  8
0
 62
     160
 10
1.32677
 20
1.2953
 30
0.0
 11
1.32444
 21
1.30084
 31
0.0
  0
ENDSEC
  0
EOF
