solid OpenSCAD_Model
  facet normal -1 0 0
    outer loop
      vertex -5 1.15 -2.9
      vertex -5 1.15 -2.1
      vertex -5 5.15 -2.9
    endloop
  endfacet
  facet normal -1 0 0
    outer loop
      vertex -5 5.15 -2.9
      vertex -5 1.15 -2.1
      vertex -5 5.15 -2.1
    endloop
  endfacet
  facet normal 0 -1 0
    outer loop
      vertex -5 1.15 -2.1
      vertex -5 1.15 -2.9
      vertex -0.1 1.15 -2.9
    endloop
  endfacet
  facet normal 0 -1 0
    outer loop
      vertex -0.1 1.15 -2.1
      vertex -5 1.15 -2.1
      vertex -0.1 1.15 -2.9
    endloop
  endfacet
  facet normal 0 0 -1
    outer loop
      vertex -5 1.15 -2.9
      vertex -5 5.15 -2.9
      vertex -0.1 1.15 -2.9
    endloop
  endfacet
  facet normal 0 0 -1
    outer loop
      vertex -0.1 1.15 -2.9
      vertex -5 5.15 -2.9
      vertex -0.1 5.15 -2.9
    endloop
  endfacet
  facet normal 0 1 0
    outer loop
      vertex -5 5.15 -2.9
      vertex -5 5.15 -2.1
      vertex -0.1 5.15 -2.9
    endloop
  endfacet
  facet normal 0 1 0
    outer loop
      vertex -0.1 5.15 -2.9
      vertex -5 5.15 -2.1
      vertex -0.1 5.15 -2.1
    endloop
  endfacet
  facet normal 0 0 1
    outer loop
      vertex -5 5.15 -2.1
      vertex -5 1.15 -2.1
      vertex -0.1 1.15 -2.1
    endloop
  endfacet
  facet normal 0 0 1
    outer loop
      vertex -0.1 5.15 -2.1
      vertex -5 5.15 -2.1
      vertex -0.1 1.15 -2.1
    endloop
  endfacet
  facet normal -1 0 0
    outer loop
      vertex -0.1 5.15 -2.9
      vertex -0.1 6.3 -5.01775
      vertex -0.1 1.15 -2.9
    endloop
  endfacet
  facet normal -1 0 0
    outer loop
      vertex -0.1 5.15 -2.1
      vertex -0.1 0 -0.0177499
      vertex -0.1 6.3 -0.0177499
    endloop
  endfacet
  facet normal -1 0 0
    outer loop
      vertex -0.1 0 -5.01775
      vertex -0.1 0 -0.0177499
      vertex -0.1 1.15 -2.1
    endloop
  endfacet
  facet normal -1 0 0
    outer loop
      vertex -0.1 0 -5.01775
      vertex -0.1 1.15 -2.1
      vertex -0.1 1.15 -2.9
    endloop
  endfacet
  facet normal -1 0 0
    outer loop
      vertex -0.1 0 -5.01775
      vertex -0.1 1.15 -2.9
      vertex -0.1 6.3 -5.01775
    endloop
  endfacet
  facet normal -1 0 0
    outer loop
      vertex -0.1 6.3 -5.01775
      vertex -0.1 5.15 -2.9
      vertex -0.1 6.3 -0.0177499
    endloop
  endfacet
  facet normal -1 0 0
    outer loop
      vertex -0.1 5.15 -2.9
      vertex -0.1 5.15 -2.1
      vertex -0.1 6.3 -0.0177499
    endloop
  endfacet
  facet normal -1 0 0
    outer loop
      vertex -0.1 1.15 -2.1
      vertex -0.1 0 -0.0177499
      vertex -0.1 5.15 -2.1
    endloop
  endfacet
  facet normal 0.174768 0 -0.98461
    outer loop
      vertex -0.1 0 -5.01775
      vertex -0.1 6.3 -5.01775
      vertex 1.3 0 -4.76925
    endloop
  endfacet
  facet normal 0.174768 0 -0.98461
    outer loop
      vertex 1.3 0 -4.76925
      vertex -0.1 6.3 -5.01775
      vertex 1.3 6.3 -4.76925
    endloop
  endfacet
  facet normal 0 1 0
    outer loop
      vertex -0.1 6.3 -5.01775
      vertex -0.1 6.3 -0.0177499
      vertex 1.3 6.3 -4.76925
    endloop
  endfacet
  facet normal 0 1 0
    outer loop
      vertex 1.3 6.3 -4.76925
      vertex -0.1 6.3 -0.0177499
      vertex 1.3 6.3 0.23075
    endloop
  endfacet
  facet normal -0.174768 0 0.98461
    outer loop
      vertex -0.1 6.3 -0.0177499
      vertex -0.1 0 -0.0177499
      vertex 0 0 1e-07
    endloop
  endfacet
  facet normal -0.174768 0 0.98461
    outer loop
      vertex 0 5 1e-07
      vertex -0.1 6.3 -0.0177499
      vertex 0 1.3 1e-07
    endloop
  endfacet
  facet normal -0.174768 0 0.98461
    outer loop
      vertex 0 1.3 1e-07
      vertex -0.1 6.3 -0.0177499
      vertex 0 0 1e-07
    endloop
  endfacet
  facet normal -0.174768 0 0.98461
    outer loop
      vertex 1.3 0 0.23075
      vertex 1.2 1.3 0.213
      vertex 1.2 0 0.213
    endloop
  endfacet
  facet normal -0.174768 0 0.98461
    outer loop
      vertex 1.3 6.3 0.23075
      vertex 1.2 1.3 0.213
      vertex 1.3 0 0.23075
    endloop
  endfacet
  facet normal -0.174768 0 0.98461
    outer loop
      vertex 1.2 1.3 0.213
      vertex 0 5 1e-07
      vertex 0 1.3 1e-07
    endloop
  endfacet
  facet normal -0.174768 0 0.98461
    outer loop
      vertex 1.3 6.3 0.23075
      vertex -0.1 6.3 -0.0177499
      vertex 0 6.3 1e-07
    endloop
  endfacet
  facet normal -0.174768 0 0.98461
    outer loop
      vertex 1.3 6.3 0.23075
      vertex 0 6.3 1e-07
      vertex 1.2 6.3 0.213
    endloop
  endfacet
  facet normal -0.174768 0 0.98461
    outer loop
      vertex 1.3 6.3 0.23075
      vertex 1.2 5 0.213
      vertex 1.2 1.3 0.213
    endloop
  endfacet
  facet normal -0.174768 0 0.98461
    outer loop
      vertex 1.3 6.3 0.23075
      vertex 1.2 6.3 0.213
      vertex 1.2 5 0.213
    endloop
  endfacet
  facet normal -0.174768 0 0.98461
    outer loop
      vertex 0 5 1e-07
      vertex 0 6.3 1e-07
      vertex -0.1 6.3 -0.0177499
    endloop
  endfacet
  facet normal -0.174768 0 0.98461
    outer loop
      vertex 1.2 5 0.213
      vertex 0 5 1e-07
      vertex 1.2 1.3 0.213
    endloop
  endfacet
  facet normal 0 -1 0
    outer loop
      vertex -0.1 0 -0.0177499
      vertex -0.1 0 -5.01775
      vertex 1.3 0 -4.76925
    endloop
  endfacet
  facet normal 0 -1 0
    outer loop
      vertex 0 0 1e-07
      vertex -0.1 0 -0.0177499
      vertex 1.3 0 -4.76925
    endloop
  endfacet
  facet normal 0 -1 0
    outer loop
      vertex 1.2 0 0.213
      vertex 0 0 1e-07
      vertex 1.3 0 -4.76925
    endloop
  endfacet
  facet normal 0 -1 0
    outer loop
      vertex 1.3 0 0.23075
      vertex 1.2 0 0.213
      vertex 1.3 0 -4.76925
    endloop
  endfacet
  facet normal 0 -1 0
    outer loop
      vertex 1.2 0 2.013
      vertex 0 0 1e-07
      vertex 1.2 0 0.213
    endloop
  endfacet
  facet normal 0 -1 0
    outer loop
      vertex 0 0 1.8
      vertex 0 0 1e-07
      vertex 1.2 0 2.013
    endloop
  endfacet
  facet normal 1 0 0
    outer loop
      vertex 1.3 1.15 -2.687
      vertex 1.3 0 -4.76925
      vertex 1.3 6.3 -4.76925
    endloop
  endfacet
  facet normal 1 0 0
    outer loop
      vertex 1.3 0 0.23075
      vertex 1.3 0 -4.76925
      vertex 1.3 1.15 -2.687
    endloop
  endfacet
  facet normal 1 0 0
    outer loop
      vertex 1.3 1.15 -1.887
      vertex 1.3 5.15 -1.887
      vertex 1.3 0 0.23075
    endloop
  endfacet
  facet normal 1 0 0
    outer loop
      vertex 1.3 0 0.23075
      vertex 1.3 1.15 -2.687
      vertex 1.3 1.15 -1.887
    endloop
  endfacet
  facet normal 1 0 0
    outer loop
      vertex 1.3 6.3 0.23075
      vertex 1.3 5.15 -1.887
      vertex 1.3 6.3 -4.76925
    endloop
  endfacet
  facet normal 1 0 0
    outer loop
      vertex 1.3 6.3 0.23075
      vertex 1.3 0 0.23075
      vertex 1.3 5.15 -1.887
    endloop
  endfacet
  facet normal 1 0 0
    outer loop
      vertex 1.3 5.15 -1.887
      vertex 1.3 5.15 -2.687
      vertex 1.3 6.3 -4.76925
    endloop
  endfacet
  facet normal 1 0 0
    outer loop
      vertex 1.3 5.15 -2.687
      vertex 1.3 1.15 -2.687
      vertex 1.3 6.3 -4.76925
    endloop
  endfacet
  facet normal 1 0 0
    outer loop
      vertex 1.2 0 2.013
      vertex 1.2 0 0.213
      vertex 1.2 1.3 0.213
    endloop
  endfacet
  facet normal 1 0 0
    outer loop
      vertex 1.2 1.3 2.013
      vertex 1.2 0 2.013
      vertex 1.2 1.3 0.213
    endloop
  endfacet
  facet normal 0 1 0
    outer loop
      vertex 0 1.3 1e-07
      vertex 0 1.3 1.8
      vertex 1.2 1.3 0.213
    endloop
  endfacet
  facet normal 0 1 0
    outer loop
      vertex 1.2 1.3 0.213
      vertex 0 1.3 1.8
      vertex 1.2 1.3 2.013
    endloop
  endfacet
  facet normal -1 0 0
    outer loop
      vertex 0 0 1e-07
      vertex 0 0 1.8
      vertex 0 1.3 1e-07
    endloop
  endfacet
  facet normal -1 0 0
    outer loop
      vertex 0 1.3 1e-07
      vertex 0 0 1.8
      vertex 0 1.3 1.8
    endloop
  endfacet
  facet normal -1 0 0
    outer loop
      vertex 0 5 1e-07
      vertex 0 5 1.8
      vertex 0 6.3 1e-07
    endloop
  endfacet
  facet normal -1 0 0
    outer loop
      vertex 0 6.3 1e-07
      vertex 0 5 1.8
      vertex 0 6.3 1.8
    endloop
  endfacet
  facet normal 0 -1 0
    outer loop
      vertex 0 5 1.8
      vertex 0 5 1e-07
      vertex 1.2 5 0.213
    endloop
  endfacet
  facet normal 0 -1 0
    outer loop
      vertex 1.2 5 2.013
      vertex 0 5 1.8
      vertex 1.2 5 0.213
    endloop
  endfacet
  facet normal 1 0 0
    outer loop
      vertex 1.2 5 2.013
      vertex 1.2 5 0.213
      vertex 1.2 6.3 0.213
    endloop
  endfacet
  facet normal 1 0 0
    outer loop
      vertex 1.2 6.3 2.013
      vertex 1.2 5 2.013
      vertex 1.2 6.3 0.213
    endloop
  endfacet
  facet normal 0 1 0
    outer loop
      vertex 0 6.3 1e-07
      vertex 0 6.3 1.8
      vertex 1.2 6.3 0.213
    endloop
  endfacet
  facet normal 0 1 0
    outer loop
      vertex 1.2 6.3 0.213
      vertex 0 6.3 1.8
      vertex 1.2 6.3 2.013
    endloop
  endfacet
  facet normal -0.174768 0 0.98461
    outer loop
      vertex 0 1.3 1.8
      vertex 0 0 1.8
      vertex 1.2 0 2.013
    endloop
  endfacet
  facet normal -0.174768 0 0.98461
    outer loop
      vertex 1.2 1.3 2.013
      vertex 0 1.3 1.8
      vertex 1.2 0 2.013
    endloop
  endfacet
  facet normal 0 0 -1
    outer loop
      vertex 1.3 1.15 -2.687
      vertex 1.3 5.15 -2.687
      vertex 6.2 1.15 -2.687
    endloop
  endfacet
  facet normal 0 0 -1
    outer loop
      vertex 6.2 1.15 -2.687
      vertex 1.3 5.15 -2.687
      vertex 6.2 5.15 -2.687
    endloop
  endfacet
  facet normal 0 -1 0
    outer loop
      vertex 1.3 1.15 -1.887
      vertex 1.3 1.15 -2.687
      vertex 6.2 1.15 -2.687
    endloop
  endfacet
  facet normal 0 -1 0
    outer loop
      vertex 6.2 1.15 -1.887
      vertex 1.3 1.15 -1.887
      vertex 6.2 1.15 -2.687
    endloop
  endfacet
  facet normal 0 1 0
    outer loop
      vertex 1.3 5.15 -2.687
      vertex 1.3 5.15 -1.887
      vertex 6.2 5.15 -2.687
    endloop
  endfacet
  facet normal 0 1 0
    outer loop
      vertex 6.2 5.15 -2.687
      vertex 1.3 5.15 -1.887
      vertex 6.2 5.15 -1.887
    endloop
  endfacet
  facet normal 0 0 1
    outer loop
      vertex 1.3 5.15 -1.887
      vertex 1.3 1.15 -1.887
      vertex 6.2 1.15 -1.887
    endloop
  endfacet
  facet normal 0 0 1
    outer loop
      vertex 6.2 5.15 -1.887
      vertex 1.3 5.15 -1.887
      vertex 6.2 1.15 -1.887
    endloop
  endfacet
  facet normal -0.174768 0 0.98461
    outer loop
      vertex 0 6.3 1.8
      vertex 0 5 1.8
      vertex 1.2 5 2.013
    endloop
  endfacet
  facet normal -0.174768 0 0.98461
    outer loop
      vertex 1.2 6.3 2.013
      vertex 0 6.3 1.8
      vertex 1.2 5 2.013
    endloop
  endfacet
  facet normal 1 0 0
    outer loop
      vertex 6.2 1.15 -1.887
      vertex 6.2 1.15 -2.687
      vertex 6.2 5.15 -2.687
    endloop
  endfacet
  facet normal 1 0 0
    outer loop
      vertex 6.2 5.15 -1.887
      vertex 6.2 1.15 -1.887
      vertex 6.2 5.15 -2.687
    endloop
  endfacet
endsolid OpenSCAD_Model
