solid OpenSCAD_Model
  facet normal -1 0 0
    outer loop
      vertex -5 3 -2.9
      vertex -5 3 -2.1
      vertex -5 8.7 -2.9
    endloop
  endfacet
  facet normal -1 0 0
    outer loop
      vertex -5 8.7 -2.9
      vertex -5 3 -2.1
      vertex -5 8.7 -2.1
    endloop
  endfacet
  facet normal 0 -1 0
    outer loop
      vertex -5 3 -2.1
      vertex -5 3 -2.9
      vertex 0 3 -2.9
    endloop
  endfacet
  facet normal 0 -1 0
    outer loop
      vertex 0 3 -2.1
      vertex -5 3 -2.1
      vertex 0 3 -2.9
    endloop
  endfacet
  facet normal 0 0 -1
    outer loop
      vertex -5 3 -2.9
      vertex -5 8.7 -2.9
      vertex 0 3 -2.9
    endloop
  endfacet
  facet normal 0 0 -1
    outer loop
      vertex 0 3 -2.9
      vertex -5 8.7 -2.9
      vertex 0 8.7 -2.9
    endloop
  endfacet
  facet normal 0 1 0
    outer loop
      vertex -5 8.7 -2.9
      vertex -5 8.7 -2.1
      vertex 0 8.7 -2.9
    endloop
  endfacet
  facet normal 0 1 0
    outer loop
      vertex 0 8.7 -2.9
      vertex -5 8.7 -2.1
      vertex 0 8.7 -2.1
    endloop
  endfacet
  facet normal 0 0 1
    outer loop
      vertex -5 8.7 -2.1
      vertex -5 3 -2.1
      vertex 0 3 -2.1
    endloop
  endfacet
  facet normal 0 0 1
    outer loop
      vertex 0 8.7 -2.1
      vertex -5 8.7 -2.1
      vertex 0 3 -2.1
    endloop
  endfacet
  facet normal -1 0 0
    outer loop
      vertex 0 0 -5
      vertex 0 0 1.8
      vertex 0 1.3 1e-07
    endloop
  endfacet
  facet normal -1 0 0
    outer loop
      vertex 0 8.7 -2.9
      vertex 0 11.7 -5
      vertex 0 3 -2.9
    endloop
  endfacet
  facet normal -1 0 0
    outer loop
      vertex 0 11.7 -5
      vertex 0 10.4 1e-07
      vertex 0 10.4 1.8
    endloop
  endfacet
  facet normal -1 0 0
    outer loop
      vertex 0 11.7 1e-07
      vertex 0 10.4 1.8
      vertex 0 11.7 1.8
    endloop
  endfacet
  facet normal -1 0 0
    outer loop
      vertex 0 11.7 -5
      vertex 0 10.4 1.8
      vertex 0 11.7 1e-07
    endloop
  endfacet
  facet normal -1 0 0
    outer loop
      vertex 0 3 -2.1
      vertex 0 1.3 1e-07
      vertex 0 8.7 -2.1
    endloop
  endfacet
  facet normal -1 0 0
    outer loop
      vertex 0 0 -5
      vertex 0 1.3 1e-07
      vertex 0 3 -2.1
    endloop
  endfacet
  facet normal -1 0 0
    outer loop
      vertex 0 0 -5
      vertex 0 3 -2.1
      vertex 0 3 -2.9
    endloop
  endfacet
  facet normal -1 0 0
    outer loop
      vertex 0 0 -5
      vertex 0 3 -2.9
      vertex 0 11.7 -5
    endloop
  endfacet
  facet normal -1 0 0
    outer loop
      vertex 0 11.7 -5
      vertex 0 8.7 -2.9
      vertex 0 10.4 1e-07
    endloop
  endfacet
  facet normal -1 0 0
    outer loop
      vertex 0 8.7 -2.9
      vertex 0 8.7 -2.1
      vertex 0 10.4 1e-07
    endloop
  endfacet
  facet normal -1 0 0
    outer loop
      vertex 0 1.3 1e-07
      vertex 0 0 1.8
      vertex 0 1.3 1.8
    endloop
  endfacet
  facet normal -1 0 0
    outer loop
      vertex 0 10.4 1e-07
      vertex 0 8.7 -2.1
      vertex 0 1.3 1e-07
    endloop
  endfacet
  facet normal 0.173694 0 -0.9848
    outer loop
      vertex 0 0 -5
      vertex 0 11.7 -5
      vertex 1.3 0 -4.77071
    endloop
  endfacet
  facet normal 0.173694 0 -0.9848
    outer loop
      vertex 1.3 0 -4.77071
      vertex 0 11.7 -5
      vertex 1.3 11.7 -4.77071
    endloop
  endfacet
  facet normal 0 1 0
    outer loop
      vertex 0 11.7 -5
      vertex 0 11.7 1e-07
      vertex 1.3 11.7 -4.77071
    endloop
  endfacet
  facet normal 0 1 0
    outer loop
      vertex 1.3 11.7 0.229287
      vertex 0 11.7 1e-07
      vertex 1.3 11.7 0.229288
    endloop
  endfacet
  facet normal 0 1 0
    outer loop
      vertex 1.3 11.7 -4.77071
      vertex 0 11.7 1e-07
      vertex 1.3 11.7 -1.07071
    endloop
  endfacet
  facet normal 0 1 0
    outer loop
      vertex 22.7 11.7 2.70371
      vertex 24 11.7 4.233
      vertex 24 11.7 2.933
    endloop
  endfacet
  facet normal 0 1 0
    outer loop
      vertex 22.7 11.7 2.70371
      vertex 24 11.7 2.933
      vertex 22.7 11.7 -0.996288
    endloop
  endfacet
  facet normal 0 1 0
    outer loop
      vertex 1.3 11.7 -1.07071
      vertex 22.7 11.7 4.00371
      vertex 24 11.7 4.233
    endloop
  endfacet
  facet normal 0 1 0
    outer loop
      vertex 1.3 11.7 0.229287
      vertex 22.7 11.7 4.00371
      vertex 1.3 11.7 -1.07071
    endloop
  endfacet
  facet normal 0 1 0
    outer loop
      vertex 1.3 11.7 0.229287
      vertex 1.3 11.7 -1.07071
      vertex 0 11.7 1e-07
    endloop
  endfacet
  facet normal 0 1 0
    outer loop
      vertex 24 11.7 -0.767
      vertex 22.7 11.7 -0.996288
      vertex 24 11.7 2.933
    endloop
  endfacet
  facet normal 0 1 0
    outer loop
      vertex 1.3 11.7 -1.07071
      vertex 24 11.7 4.233
      vertex 22.7 11.7 2.70371
    endloop
  endfacet
  facet normal 0 1 0
    outer loop
      vertex 0 11.7 1e-07
      vertex 0 11.7 1.8
      vertex 1.3 11.7 0.229288
    endloop
  endfacet
  facet normal 0 1 0
    outer loop
      vertex 1.3 11.7 0.229288
      vertex 0 11.7 1.8
      vertex 24 11.7 6.033
    endloop
  endfacet
  facet normal 0 1 0
    outer loop
      vertex 1.3 11.7 0.229288
      vertex 24 11.7 6.033
      vertex 22.7 11.7 4.00371
    endloop
  endfacet
  facet normal 0 1 0
    outer loop
      vertex 24 11.7 6.033
      vertex 24 11.7 4.233
      vertex 22.7 11.7 4.00371
    endloop
  endfacet
  facet normal 0 1 0
    outer loop
      vertex 1.3 11.7 0.229288
      vertex 22.7 11.7 4.00371
      vertex 1.3 11.7 0.229287
    endloop
  endfacet
  facet normal -0.173694 0 0.9848
    outer loop
      vertex 0 11.7 1.8
      vertex 0 10.4 1.8
      vertex 24 10.4 6.033
    endloop
  endfacet
  facet normal -0.173694 0 0.9848
    outer loop
      vertex 24 11.7 6.033
      vertex 0 11.7 1.8
      vertex 24 10.4 6.033
    endloop
  endfacet
  facet normal 0 -1 0
    outer loop
      vertex 22.7 10.4 4.00371
      vertex 24 10.4 4.233
      vertex 0 10.4 1.8
    endloop
  endfacet
  facet normal 0 -1 0
    outer loop
      vertex 0 10.4 1.8
      vertex 0 10.4 1e-07
      vertex 1.3 10.4 0.229288
    endloop
  endfacet
  facet normal 0 -1 0
    outer loop
      vertex 22.7 10.4 4.00371
      vertex 0 10.4 1.8
      vertex 1.3 10.4 0.229288
    endloop
  endfacet
  facet normal 0 -1 0
    outer loop
      vertex 1.3 10.4 0.229287
      vertex 22.7 10.4 4.00371
      vertex 1.3 10.4 0.229288
    endloop
  endfacet
  facet normal 0 -1 0
    outer loop
      vertex 24 10.4 4.233
      vertex 24 10.4 6.033
      vertex 0 10.4 1.8
    endloop
  endfacet
  facet normal -0.173694 0 0.9848
    outer loop
      vertex 0 10.4 1e-07
      vertex 0 1.3 1e-07
      vertex 1.3 1.3 0.229288
    endloop
  endfacet
  facet normal -0.173694 0 0.9848
    outer loop
      vertex 1.3 10.4 0.229288
      vertex 0 10.4 1e-07
      vertex 1.3 1.3 0.229288
    endloop
  endfacet
  facet normal 0 1 0
    outer loop
      vertex 0 1.3 1e-07
      vertex 0 1.3 1.8
      vertex 1.3 1.3 0.229288
    endloop
  endfacet
  facet normal 0 1 0
    outer loop
      vertex 1.3 1.3 0.229288
      vertex 0 1.3 1.8
      vertex 24 1.3 6.033
    endloop
  endfacet
  facet normal 0 1 0
    outer loop
      vertex 1.3 1.3 0.229288
      vertex 24 1.3 6.033
      vertex 22.7 1.3 4.00371
    endloop
  endfacet
  facet normal 0 1 0
    outer loop
      vertex 24 1.3 6.033
      vertex 24 1.3 4.233
      vertex 22.7 1.3 4.00371
    endloop
  endfacet
  facet normal 0 1 0
    outer loop
      vertex 1.3 1.3 0.229288
      vertex 22.7 1.3 4.00371
      vertex 1.3 1.3 0.229287
    endloop
  endfacet
  facet normal -0.173694 0 0.9848
    outer loop
      vertex 0 1.3 1.8
      vertex 0 0 1.8
      vertex 24 0 6.033
    endloop
  endfacet
  facet normal -0.173694 0 0.9848
    outer loop
      vertex 24 1.3 6.033
      vertex 0 1.3 1.8
      vertex 24 0 6.033
    endloop
  endfacet
  facet normal 0 -1 0
    outer loop
      vertex 0 0 1.8
      vertex 0 0 -5
      vertex 1.3 0 -4.77071
    endloop
  endfacet
  facet normal 0 -1 0
    outer loop
      vertex 1.3 0 0.229287
      vertex 0 0 1.8
      vertex 1.3 0 -1.07071
    endloop
  endfacet
  facet normal 0 -1 0
    outer loop
      vertex 1.3 0 -1.07071
      vertex 0 0 1.8
      vertex 1.3 0 -4.77071
    endloop
  endfacet
  facet normal 0 -1 0
    outer loop
      vertex 24 0 -0.767
      vertex 22.7 0 2.70371
      vertex 22.7 0 -0.996288
    endloop
  endfacet
  facet normal 0 -1 0
    outer loop
      vertex 24 0 2.933
      vertex 22.7 0 2.70371
      vertex 24 0 -0.767
    endloop
  endfacet
  facet normal 0 -1 0
    outer loop
      vertex 24 0 6.033
      vertex 0 0 1.8
      vertex 24 0 4.233
    endloop
  endfacet
  facet normal 0 -1 0
    outer loop
      vertex 22.7 0 2.70371
      vertex 1.3 0 0.229287
      vertex 1.3 0 -1.07071
    endloop
  endfacet
  facet normal 0 -1 0
    outer loop
      vertex 1.3 0 0.229287
      vertex 22.7 0 4.00371
      vertex 0 0 1.8
    endloop
  endfacet
  facet normal 0 -1 0
    outer loop
      vertex 24 0 4.233
      vertex 22.7 0 4.00371
      vertex 24 0 2.933
    endloop
  endfacet
  facet normal 0 -1 0
    outer loop
      vertex 24 0 4.233
      vertex 0 0 1.8
      vertex 22.7 0 4.00371
    endloop
  endfacet
  facet normal 0 -1 0
    outer loop
      vertex 22.7 0 4.00371
      vertex 22.7 0 2.70371
      vertex 24 0 2.933
    endloop
  endfacet
  facet normal 0 -1 0
    outer loop
      vertex 22.7 0 4.00371
      vertex 1.3 0 0.229287
      vertex 22.7 0 2.70371
    endloop
  endfacet
  facet normal 1 0 0
    outer loop
      vertex 1.3 0 -1.07071
      vertex 1.3 0 -4.77071
      vertex 1.3 11.7 -4.77071
    endloop
  endfacet
  facet normal 1 0 0
    outer loop
      vertex 1.3 11.7 -1.07071
      vertex 1.3 0 -1.07071
      vertex 1.3 11.7 -4.77071
    endloop
  endfacet
  facet normal 0.173694 0 -0.9848
    outer loop
      vertex 1.3 0 -1.07071
      vertex 1.3 11.7 -1.07071
      vertex 22.7 0 2.70371
    endloop
  endfacet
  facet normal 0.173694 0 -0.9848
    outer loop
      vertex 22.7 0 2.70371
      vertex 1.3 11.7 -1.07071
      vertex 22.7 11.7 2.70371
    endloop
  endfacet
  facet normal -1 0 0
    outer loop
      vertex 22.7 0 -0.996288
      vertex 22.7 0 2.70371
      vertex 22.7 11.7 -0.996288
    endloop
  endfacet
  facet normal -1 0 0
    outer loop
      vertex 22.7 11.7 -0.996288
      vertex 22.7 0 2.70371
      vertex 22.7 11.7 2.70371
    endloop
  endfacet
  facet normal 0.173694 0 -0.9848
    outer loop
      vertex 22.7 0 -0.996288
      vertex 22.7 11.7 -0.996288
      vertex 24 0 -0.767
    endloop
  endfacet
  facet normal 0.173694 0 -0.9848
    outer loop
      vertex 24 0 -0.767
      vertex 22.7 11.7 -0.996288
      vertex 24 11.7 -0.767
    endloop
  endfacet
  facet normal 1 0 0
    outer loop
      vertex 24 0 2.933
      vertex 24 0 -0.767
      vertex 24 11.7 -0.767
    endloop
  endfacet
  facet normal 1 0 0
    outer loop
      vertex 24 11.7 2.933
      vertex 24 0 2.933
      vertex 24 11.7 -0.767
    endloop
  endfacet
  facet normal 1 0 0
    outer loop
      vertex 24 0 4.233
      vertex 24 0 2.933
      vertex 24 11.7 2.933
    endloop
  endfacet
  facet normal 1 0 0
    outer loop
      vertex 24 11.7 4.233
      vertex 24 0 4.233
      vertex 24 11.7 2.933
    endloop
  endfacet
  facet normal 1 0 0
    outer loop
      vertex 24 10.4 4.233
      vertex 24 1.3 4.233
      vertex 24 11.7 4.233
    endloop
  endfacet
  facet normal 1 0 0
    outer loop
      vertex 24 1.3 4.233
      vertex 24 0 4.233
      vertex 24 11.7 4.233
    endloop
  endfacet
  facet normal -1 0 0
    outer loop
      vertex 22.7 11.7 4.00371
      vertex 22.7 0 4.00371
      vertex 22.7 1.3 4.00371
    endloop
  endfacet
  facet normal -1 0 0
    outer loop
      vertex 22.7 11.7 4.00371
      vertex 22.7 1.3 4.00371
      vertex 22.7 10.4 4.00371
    endloop
  endfacet
  facet normal -0.173694 0 0.9848
    outer loop
      vertex 1.3 11.7 0.229287
      vertex 1.3 0 0.229287
      vertex 22.7 0 4.00371
    endloop
  endfacet
  facet normal -0.173694 0 0.9848
    outer loop
      vertex 22.7 11.7 4.00371
      vertex 1.3 11.7 0.229287
      vertex 22.7 0 4.00371
    endloop
  endfacet
  facet normal 1 0 0
    outer loop
      vertex 1.3 10.4 0.229287
      vertex 1.3 1.3 0.229287
      vertex 1.3 11.7 0.229287
    endloop
  endfacet
  facet normal 1 0 0
    outer loop
      vertex 1.3 1.3 0.229287
      vertex 1.3 0 0.229287
      vertex 1.3 11.7 0.229287
    endloop
  endfacet
  facet normal 1 0 0
    outer loop
      vertex 1.3 10.4 0.229287
      vertex 1.3 10.4 0.229288
      vertex 1.3 1.3 0.229287
    endloop
  endfacet
  facet normal 1 0 0
    outer loop
      vertex 1.3 1.3 0.229288
      vertex 1.3 1.3 0.229287
      vertex 1.3 10.4 0.229288
    endloop
  endfacet
  facet normal 0.173694 0 -0.9848
    outer loop
      vertex 1.3 10.4 0.229287
      vertex 1.3 11.7 0.229287
      vertex 22.7 10.4 4.00371
    endloop
  endfacet
  facet normal 0.173694 0 -0.9848
    outer loop
      vertex 22.7 10.4 4.00371
      vertex 1.3 11.7 0.229287
      vertex 22.7 11.7 4.00371
    endloop
  endfacet
  facet normal 1 0 0
    outer loop
      vertex 24 10.4 6.033
      vertex 24 10.4 4.233
      vertex 24 11.7 4.233
    endloop
  endfacet
  facet normal 1 0 0
    outer loop
      vertex 24 11.7 6.033
      vertex 24 10.4 6.033
      vertex 24 11.7 4.233
    endloop
  endfacet
  facet normal -0.173694 0 0.9848
    outer loop
      vertex 22.7 10.4 4.00371
      vertex 22.7 1.3 4.00371
      vertex 24 1.3 4.233
    endloop
  endfacet
  facet normal -0.173694 0 0.9848
    outer loop
      vertex 24 10.4 4.233
      vertex 22.7 10.4 4.00371
      vertex 24 1.3 4.233
    endloop
  endfacet
  facet normal 0.173694 0 -0.9848
    outer loop
      vertex 1.3 0 0.229287
      vertex 1.3 1.3 0.229287
      vertex 22.7 0 4.00371
    endloop
  endfacet
  facet normal 0.173694 0 -0.9848
    outer loop
      vertex 22.7 0 4.00371
      vertex 1.3 1.3 0.229287
      vertex 22.7 1.3 4.00371
    endloop
  endfacet
  facet normal 1 0 0
    outer loop
      vertex 24 0 6.033
      vertex 24 0 4.233
      vertex 24 1.3 4.233
    endloop
  endfacet
  facet normal 1 0 0
    outer loop
      vertex 24 1.3 6.033
      vertex 24 0 6.033
      vertex 24 1.3 4.233
    endloop
  endfacet
  facet normal -1 0 0
    outer loop
      vertex 24 3 1.333
      vertex 24 3 2.133
      vertex 24 8.7 1.333
    endloop
  endfacet
  facet normal -1 0 0
    outer loop
      vertex 24 8.7 1.333
      vertex 24 3 2.133
      vertex 24 8.7 2.133
    endloop
  endfacet
  facet normal 0 -1 0
    outer loop
      vertex 24 3 2.133
      vertex 24 3 1.333
      vertex 29 3 1.333
    endloop
  endfacet
  facet normal 0 -1 0
    outer loop
      vertex 29 3 2.133
      vertex 24 3 2.133
      vertex 29 3 1.333
    endloop
  endfacet
  facet normal 0 0 -1
    outer loop
      vertex 24 3 1.333
      vertex 24 8.7 1.333
      vertex 29 3 1.333
    endloop
  endfacet
  facet normal 0 0 -1
    outer loop
      vertex 29 3 1.333
      vertex 24 8.7 1.333
      vertex 29 8.7 1.333
    endloop
  endfacet
  facet normal 0 1 0
    outer loop
      vertex 24 8.7 1.333
      vertex 24 8.7 2.133
      vertex 29 8.7 1.333
    endloop
  endfacet
  facet normal 0 1 0
    outer loop
      vertex 29 8.7 1.333
      vertex 24 8.7 2.133
      vertex 29 8.7 2.133
    endloop
  endfacet
  facet normal 0 0 1
    outer loop
      vertex 24 8.7 2.133
      vertex 24 3 2.133
      vertex 29 3 2.133
    endloop
  endfacet
  facet normal 0 0 1
    outer loop
      vertex 29 8.7 2.133
      vertex 24 8.7 2.133
      vertex 29 3 2.133
    endloop
  endfacet
  facet normal 1 0 0
    outer loop
      vertex 29 3 2.133
      vertex 29 3 1.333
      vertex 29 8.7 1.333
    endloop
  endfacet
  facet normal 1 0 0
    outer loop
      vertex 29 8.7 2.133
      vertex 29 3 2.133
      vertex 29 8.7 1.333
    endloop
  endfacet
endsolid OpenSCAD_Model
