solid OpenSCAD_Model
  facet normal -1 0 0
    outer loop
      vertex 0 0 -1.3
      vertex 0 0 13.8
      vertex 0 1.3 12
    endloop
  endfacet
  facet normal -1 0 0
    outer loop
      vertex 0 10.4 1.8
      vertex 0 11.7 -1.3
      vertex 0 1.3 1.8
    endloop
  endfacet
  facet normal -1 0 0
    outer loop
      vertex 0 11.7 -1.3
      vertex 0 10.4 12
      vertex 0 10.4 13.8
    endloop
  endfacet
  facet normal -1 0 0
    outer loop
      vertex 0 11.7 12
      vertex 0 10.4 13.8
      vertex 0 11.7 13.8
    endloop
  endfacet
  facet normal -1 0 0
    outer loop
      vertex 0 11.7 -1.3
      vertex 0 10.4 13.8
      vertex 0 11.7 12
    endloop
  endfacet
  facet normal -1 0 0
    outer loop
      vertex 0 1.3 7
      vertex 0 1.3 12
      vertex 0 10.4 7
    endloop
  endfacet
  facet normal -1 0 0
    outer loop
      vertex 0 0 -1.3
      vertex 0 1.3 12
      vertex 0 1.3 7
    endloop
  endfacet
  facet normal -1 0 0
    outer loop
      vertex 0 0 -1.3
      vertex 0 1.3 7
      vertex 0 1.3 1.8
    endloop
  endfacet
  facet normal -1 0 0
    outer loop
      vertex 0 0 -1.3
      vertex 0 1.3 1.8
      vertex 0 11.7 -1.3
    endloop
  endfacet
  facet normal -1 0 0
    outer loop
      vertex 0 11.7 -1.3
      vertex 0 10.4 1.8
      vertex 0 10.4 12
    endloop
  endfacet
  facet normal -1 0 0
    outer loop
      vertex 0 10.4 1.8
      vertex 0 10.4 7
      vertex 0 10.4 12
    endloop
  endfacet
  facet normal -1 0 0
    outer loop
      vertex 0 1.3 12
      vertex 0 0 13.8
      vertex 0 1.3 13.8
    endloop
  endfacet
  facet normal -1 0 0
    outer loop
      vertex 0 10.4 12
      vertex 0 10.4 7
      vertex 0 1.3 12
    endloop
  endfacet
  facet normal 0 -1 0
    outer loop
      vertex 1.3 0 10.7
      vertex 3.2 0 10.7
      vertex 1.3 0 12
    endloop
  endfacet
  facet normal 0 -1 0
    outer loop
      vertex 1.3 0 1.8
      vertex 0 0 -1.3
      vertex 3.2 0 -1.3
    endloop
  endfacet
  facet normal 0 -1 0
    outer loop
      vertex 3.2 0 -5
      vertex 4.5 0 -5
      vertex 3.2 0 -1.3
    endloop
  endfacet
  facet normal 0 -1 0
    outer loop
      vertex 3.2 0 10.7
      vertex 3.2 0 1.8
      vertex 4.5 0 -1.3
    endloop
  endfacet
  facet normal 0 -1 0
    outer loop
      vertex 3.2 0 1.8
      vertex 3.2 0 -1.3
      vertex 4.5 0 -5
    endloop
  endfacet
  facet normal 0 -1 0
    outer loop
      vertex 1.3 0 10.7
      vertex 1.3 0 12
      vertex 0 0 13.8
    endloop
  endfacet
  facet normal 0 -1 0
    outer loop
      vertex 3.2 0 10.7
      vertex 4.5 0 12
      vertex 1.3 0 12
    endloop
  endfacet
  facet normal 0 -1 0
    outer loop
      vertex 4.5 0 12
      vertex 4.5 0 13.8
      vertex 0 0 13.8
    endloop
  endfacet
  facet normal 0 -1 0
    outer loop
      vertex 0 0 13.8
      vertex 0 0 -1.3
      vertex 1.3 0 1.8
    endloop
  endfacet
  facet normal 0 -1 0
    outer loop
      vertex 4.5 0 -1.3
      vertex 4.5 0 12
      vertex 3.2 0 10.7
    endloop
  endfacet
  facet normal 0 -1 0
    outer loop
      vertex 4.5 0 -5
      vertex 4.5 0 -1.3
      vertex 3.2 0 1.8
    endloop
  endfacet
  facet normal 0 -1 0
    outer loop
      vertex 1.3 0 12
      vertex 4.5 0 12
      vertex 0 0 13.8
    endloop
  endfacet
  facet normal 0 -1 0
    outer loop
      vertex 3.2 0 1.8
      vertex 1.3 0 1.8
      vertex 3.2 0 -1.3
    endloop
  endfacet
  facet normal 0 -1 0
    outer loop
      vertex 1.3 0 1.8
      vertex 1.3 0 10.7
      vertex 0 0 13.8
    endloop
  endfacet
  facet normal 0 0 -1
    outer loop
      vertex 0 0 -1.3
      vertex 0 11.7 -1.3
      vertex 3.2 0 -1.3
    endloop
  endfacet
  facet normal 0 0 -1
    outer loop
      vertex 3.2 0 -1.3
      vertex 0 11.7 -1.3
      vertex 3.2 11.7 -1.3
    endloop
  endfacet
  facet normal 0 1 0
    outer loop
      vertex 3.2 11.7 0
      vertex 3.2 11.7 -1.3
      vertex 1.3 11.7 0
    endloop
  endfacet
  facet normal 0 1 0
    outer loop
      vertex 1.3 11.7 10.7
      vertex 0 11.7 12
      vertex 1.3 11.7 12
    endloop
  endfacet
  facet normal 0 1 0
    outer loop
      vertex 1.3 11.7 10.7
      vertex 1.3 11.7 12
      vertex 3.2 11.7 10.7
    endloop
  endfacet
  facet normal 0 1 0
    outer loop
      vertex 3.2 11.7 -1.3
      vertex 4.5 11.7 12
      vertex 4.5 11.7 -1.3
    endloop
  endfacet
  facet normal 0 1 0
    outer loop
      vertex 4.5 11.7 -1.3
      vertex 4.5 11.7 -5
      vertex 3.2 11.7 -1.3
    endloop
  endfacet
  facet normal 0 1 0
    outer loop
      vertex 1.3 11.7 0
      vertex 0 11.7 12
      vertex 1.3 11.7 10.7
    endloop
  endfacet
  facet normal 0 1 0
    outer loop
      vertex 0 11.7 -1.3
      vertex 0 11.7 12
      vertex 1.3 11.7 0
    endloop
  endfacet
  facet normal 0 1 0
    outer loop
      vertex 0 11.7 -1.3
      vertex 1.3 11.7 0
      vertex 3.2 11.7 -1.3
    endloop
  endfacet
  facet normal 0 1 0
    outer loop
      vertex 3.2 11.7 -1.3
      vertex 3.2 11.7 0
      vertex 4.5 11.7 12
    endloop
  endfacet
  facet normal 0 1 0
    outer loop
      vertex 3.2 11.7 0
      vertex 3.2 11.7 10.7
      vertex 4.5 11.7 12
    endloop
  endfacet
  facet normal 0 1 0
    outer loop
      vertex 3.2 11.7 -1.3
      vertex 4.5 11.7 -5
      vertex 3.2 11.7 -5
    endloop
  endfacet
  facet normal 0 1 0
    outer loop
      vertex 4.5 11.7 12
      vertex 3.2 11.7 10.7
      vertex 1.3 11.7 12
    endloop
  endfacet
  facet normal 0 1 0
    outer loop
      vertex 0 11.7 12
      vertex 0 11.7 13.8
      vertex 1.3 11.7 12
    endloop
  endfacet
  facet normal 0 1 0
    outer loop
      vertex 1.3 11.7 12
      vertex 0 11.7 13.8
      vertex 3.2 11.7 13.8
    endloop
  endfacet
  facet normal 0 1 0
    outer loop
      vertex 1.3 11.7 12
      vertex 3.2 11.7 13.8
      vertex 3.2 11.7 12
    endloop
  endfacet
  facet normal 0 0 1
    outer loop
      vertex 0 1.3 13.8
      vertex 0 0 13.8
      vertex 4.5 0 13.8
    endloop
  endfacet
  facet normal 0 0 1
    outer loop
      vertex 3.2 1.3 13.8
      vertex 0 1.3 13.8
      vertex 4.5 0 13.8
    endloop
  endfacet
  facet normal 0 0 1
    outer loop
      vertex 4.5 1.3 13.8
      vertex 3.2 1.3 13.8
      vertex 4.5 0 13.8
    endloop
  endfacet
  facet normal 0 0 1
    outer loop
      vertex 0 10.4 13.8
      vertex 3.2 10.4 13.8
      vertex 3.2 11.7 13.8
    endloop
  endfacet
  facet normal 0 0 1
    outer loop
      vertex 4.5 11.7 13.8
      vertex 3.2 11.7 13.8
      vertex 3.2 10.4 13.8
    endloop
  endfacet
  facet normal 0 0 1
    outer loop
      vertex 4.5 10.4 13.8
      vertex 3.2 1.3 13.8
      vertex 4.5 1.3 13.8
    endloop
  endfacet
  facet normal 0 0 1
    outer loop
      vertex 3.2 11.7 13.8
      vertex 0 11.7 13.8
      vertex 0 10.4 13.8
    endloop
  endfacet
  facet normal 0 0 1
    outer loop
      vertex 3.2 10.4 13.8
      vertex 4.5 10.4 13.8
      vertex 4.5 11.7 13.8
    endloop
  endfacet
  facet normal 0 0 1
    outer loop
      vertex 3.2 10.4 13.8
      vertex 3.2 1.3 13.8
      vertex 4.5 10.4 13.8
    endloop
  endfacet
  facet normal 0 -1 0
    outer loop
      vertex 0 10.4 13.8
      vertex 0 10.4 12
      vertex 1.3 10.4 12
    endloop
  endfacet
  facet normal 0 -1 0
    outer loop
      vertex 3.2 10.4 12
      vertex 0 10.4 13.8
      vertex 1.3 10.4 12
    endloop
  endfacet
  facet normal 0 -1 0
    outer loop
      vertex 3.2 10.4 12
      vertex 3.2 10.4 13.8
      vertex 0 10.4 13.8
    endloop
  endfacet
  facet normal 0 0 1
    outer loop
      vertex 0 10.4 12
      vertex 0 1.3 12
      vertex 1.3 1.3 12
    endloop
  endfacet
  facet normal 0 0 1
    outer loop
      vertex 1.3 10.4 12
      vertex 0 10.4 12
      vertex 1.3 1.3 12
    endloop
  endfacet
  facet normal 0 1 0
    outer loop
      vertex 0 1.3 12
      vertex 0 1.3 13.8
      vertex 1.3 1.3 12
    endloop
  endfacet
  facet normal 0 1 0
    outer loop
      vertex 1.3 1.3 12
      vertex 0 1.3 13.8
      vertex 3.2 1.3 13.8
    endloop
  endfacet
  facet normal 0 1 0
    outer loop
      vertex 1.3 1.3 12
      vertex 3.2 1.3 13.8
      vertex 3.2 1.3 12
    endloop
  endfacet
  facet normal 0 1 0
    outer loop
      vertex 1.3 1.3 7
      vertex 1.3 1.3 10.7
      vertex 1.3 1.3 0
    endloop
  endfacet
  facet normal 0 1 0
    outer loop
      vertex 0 1.3 1.8
      vertex 0 1.3 7
      vertex 1.3 1.3 1.8
    endloop
  endfacet
  facet normal 0 1 0
    outer loop
      vertex 1.3 1.3 7
      vertex 1.3 1.3 0
      vertex 1.3 1.3 1.8
    endloop
  endfacet
  facet normal 0 1 0
    outer loop
      vertex 1.3 1.3 7
      vertex 1.3 1.3 1.8
      vertex 0 1.3 7
    endloop
  endfacet
  facet normal 0 0 -1
    outer loop
      vertex 0 1.3 7
      vertex 0 10.4 7
      vertex 1.3 1.3 7
    endloop
  endfacet
  facet normal 0 0 -1
    outer loop
      vertex 1.3 1.3 7
      vertex 0 10.4 7
      vertex 1.3 10.4 7
    endloop
  endfacet
  facet normal 0 -1 0
    outer loop
      vertex 1.3 10.4 7
      vertex 1.3 10.4 1.8
      vertex 1.3 10.4 10.7
    endloop
  endfacet
  facet normal 0 -1 0
    outer loop
      vertex 1.3 10.4 10.7
      vertex 1.3 10.4 1.8
      vertex 1.3 10.4 0
    endloop
  endfacet
  facet normal 0 -1 0
    outer loop
      vertex 0 10.4 7
      vertex 1.3 10.4 1.8
      vertex 1.3 10.4 7
    endloop
  endfacet
  facet normal 0 -1 0
    outer loop
      vertex 0 10.4 1.8
      vertex 1.3 10.4 1.8
      vertex 0 10.4 7
    endloop
  endfacet
  facet normal 0 0 1
    outer loop
      vertex 0 10.4 1.8
      vertex 0 1.3 1.8
      vertex 1.3 1.3 1.8
    endloop
  endfacet
  facet normal 0 0 1
    outer loop
      vertex 1.3 10.4 1.8
      vertex 0 10.4 1.8
      vertex 1.3 1.3 1.8
    endloop
  endfacet
  facet normal 1 0 0
    outer loop
      vertex 4.5 0 13.8
      vertex 4.5 0 12
      vertex 4.5 1.3 12
    endloop
  endfacet
  facet normal 1 0 0
    outer loop
      vertex 4.5 1.3 13.8
      vertex 4.5 0 13.8
      vertex 4.5 1.3 12
    endloop
  endfacet
  facet normal 0 0 -1
    outer loop
      vertex 1.3 0 12
      vertex 1.3 1.3 12
      vertex 4.5 0 12
    endloop
  endfacet
  facet normal 0 0 -1
    outer loop
      vertex 4.5 0 12
      vertex 1.3 1.3 12
      vertex 3.2 1.3 12
    endloop
  endfacet
  facet normal 0 0 -1
    outer loop
      vertex 4.5 0 12
      vertex 3.2 1.3 12
      vertex 3.2 10.4 12
    endloop
  endfacet
  facet normal 0 0 -1
    outer loop
      vertex 3.2 10.4 12
      vertex 1.3 10.4 12
      vertex 1.3 11.7 12
    endloop
  endfacet
  facet normal 0 0 -1
    outer loop
      vertex 3.2 10.4 12
      vertex 1.3 11.7 12
      vertex 3.2 11.7 12
    endloop
  endfacet
  facet normal 0 0 -1
    outer loop
      vertex 3.2 10.4 12
      vertex 3.2 11.7 12
      vertex 4.5 0 12
    endloop
  endfacet
  facet normal 0 0 -1
    outer loop
      vertex 4.5 10.4 12
      vertex 3.2 11.7 12
      vertex 4.5 11.7 12
    endloop
  endfacet
  facet normal 0 0 -1
    outer loop
      vertex 4.5 1.3 12
      vertex 3.2 11.7 12
      vertex 4.5 10.4 12
    endloop
  endfacet
  facet normal 0 0 -1
    outer loop
      vertex 4.5 0 12
      vertex 3.2 11.7 12
      vertex 4.5 1.3 12
    endloop
  endfacet
  facet normal 1 0 0
    outer loop
      vertex 1.3 10.4 12
      vertex 1.3 1.3 12
      vertex 1.3 11.7 12
    endloop
  endfacet
  facet normal 1 0 0
    outer loop
      vertex 1.3 1.3 12
      vertex 1.3 0 12
      vertex 1.3 11.7 12
    endloop
  endfacet
  facet normal 0 0 1
    outer loop
      vertex 1.3 11.7 12
      vertex 1.3 0 12
      vertex 4.5 0 12
    endloop
  endfacet
  facet normal 0 0 1
    outer loop
      vertex 4.5 11.7 12
      vertex 1.3 11.7 12
      vertex 4.5 0 12
    endloop
  endfacet
  facet normal 1 0 0
    outer loop
      vertex 4.5 1.3 0
      vertex 4.5 0 -1.3
      vertex 4.5 11.7 -1.3
    endloop
  endfacet
  facet normal 1 0 0
    outer loop
      vertex 4.5 10.4 0
      vertex 4.5 1.3 0
      vertex 4.5 11.7 -1.3
    endloop
  endfacet
  facet normal 1 0 0
    outer loop
      vertex 4.5 0 12
      vertex 4.5 0 -1.3
      vertex 4.5 1.3 0
    endloop
  endfacet
  facet normal 1 0 0
    outer loop
      vertex 4.5 11.7 12
      vertex 4.5 0 12
      vertex 4.5 1.3 10.7
    endloop
  endfacet
  facet normal 1 0 0
    outer loop
      vertex 4.5 11.7 12
      vertex 4.5 10.4 10.7
      vertex 4.5 11.7 -1.3
    endloop
  endfacet
  facet normal 1 0 0
    outer loop
      vertex 4.5 11.7 12
      vertex 4.5 1.3 10.7
      vertex 4.5 10.4 10.7
    endloop
  endfacet
  facet normal 1 0 0
    outer loop
      vertex 4.5 10.4 10.7
      vertex 4.5 10.4 0
      vertex 4.5 11.7 -1.3
    endloop
  endfacet
  facet normal 1 0 0
    outer loop
      vertex 4.5 1.3 0
      vertex 4.5 1.3 10.7
      vertex 4.5 0 12
    endloop
  endfacet
  facet normal 1 0 0
    outer loop
      vertex 4.5 0 -1.3
      vertex 4.5 0 -5
      vertex 4.5 11.7 -5
    endloop
  endfacet
  facet normal 1 0 0
    outer loop
      vertex 4.5 11.7 -1.3
      vertex 4.5 0 -1.3
      vertex 4.5 11.7 -5
    endloop
  endfacet
  facet normal 0 0 -1
    outer loop
      vertex 3.2 0 -5
      vertex 3.2 11.7 -5
      vertex 4.5 0 -5
    endloop
  endfacet
  facet normal 0 0 -1
    outer loop
      vertex 4.5 0 -5
      vertex 3.2 11.7 -5
      vertex 4.5 11.7 -5
    endloop
  endfacet
  facet normal -1 0 0
    outer loop
      vertex 3.2 0 -5
      vertex 3.2 0 -1.3
      vertex 3.2 11.7 -5
    endloop
  endfacet
  facet normal -1 0 0
    outer loop
      vertex 3.2 11.7 -5
      vertex 3.2 0 -1.3
      vertex 3.2 11.7 -1.3
    endloop
  endfacet
  facet normal 1 0 0
    outer loop
      vertex 1.3 0 10.7
      vertex 1.3 1.3 1.8
      vertex 1.3 1.3 10.7
    endloop
  endfacet
  facet normal 1 0 0
    outer loop
      vertex 1.3 1.3 10.7
      vertex 1.3 1.3 1.8
      vertex 1.3 1.3 0
    endloop
  endfacet
  facet normal 1 0 0
    outer loop
      vertex 1.3 0 1.8
      vertex 1.3 1.3 1.8
      vertex 1.3 0 10.7
    endloop
  endfacet
  facet normal 0 0 1
    outer loop
      vertex 1.3 1.3 1.8
      vertex 1.3 0 1.8
      vertex 3.2 0 1.8
    endloop
  endfacet
  facet normal 0 0 1
    outer loop
      vertex 3.2 1.3 1.8
      vertex 1.3 1.3 1.8
      vertex 3.2 0 1.8
    endloop
  endfacet
  facet normal -1 0 0
    outer loop
      vertex 3.2 0 1.8
      vertex 3.2 0 10.7
      vertex 3.2 1.3 1.8
    endloop
  endfacet
  facet normal -1 0 0
    outer loop
      vertex 3.2 1.3 10.7
      vertex 3.2 1.3 0
      vertex 3.2 1.3 1.8
    endloop
  endfacet
  facet normal -1 0 0
    outer loop
      vertex 3.2 1.3 10.7
      vertex 3.2 1.3 1.8
      vertex 3.2 0 10.7
    endloop
  endfacet
  facet normal 0 0 -1
    outer loop
      vertex 1.3 10.4 10.7
      vertex 1.3 11.7 10.7
      vertex 3.2 11.7 10.7
    endloop
  endfacet
  facet normal 0 0 -1
    outer loop
      vertex 1.3 10.4 10.7
      vertex 3.2 11.7 10.7
      vertex 3.2 10.4 10.7
    endloop
  endfacet
  facet normal 0 0 -1
    outer loop
      vertex 3.2 10.4 10.7
      vertex 4.5 10.4 10.7
      vertex 4.5 1.3 10.7
    endloop
  endfacet
  facet normal 0 0 -1
    outer loop
      vertex 3.2 10.4 10.7
      vertex 4.5 1.3 10.7
      vertex 1.3 10.4 10.7
    endloop
  endfacet
  facet normal 0 0 -1
    outer loop
      vertex 4.5 1.3 10.7
      vertex 3.2 1.3 10.7
      vertex 1.3 10.4 10.7
    endloop
  endfacet
  facet normal 0 0 -1
    outer loop
      vertex 3.2 1.3 10.7
      vertex 3.2 0 10.7
      vertex 1.3 10.4 10.7
    endloop
  endfacet
  facet normal 0 0 -1
    outer loop
      vertex 3.2 0 10.7
      vertex 1.3 0 10.7
      vertex 1.3 1.3 10.7
    endloop
  endfacet
  facet normal 0 0 -1
    outer loop
      vertex 3.2 0 10.7
      vertex 1.3 1.3 10.7
      vertex 1.3 10.4 10.7
    endloop
  endfacet
  facet normal 1 0 0
    outer loop
      vertex 1.3 11.7 10.7
      vertex 1.3 10.4 1.8
      vertex 1.3 11.7 1.8
    endloop
  endfacet
  facet normal 1 0 0
    outer loop
      vertex 1.3 10.4 0
      vertex 1.3 10.4 1.8
      vertex 1.3 10.4 10.7
    endloop
  endfacet
  facet normal 1 0 0
    outer loop
      vertex 1.3 11.7 0
      vertex 1.3 11.7 10.7
      vertex 1.3 11.7 1.8
    endloop
  endfacet
  facet normal 1 0 0
    outer loop
      vertex 1.3 11.7 10.7
      vertex 1.3 10.4 10.7
      vertex 1.3 10.4 1.8
    endloop
  endfacet
  facet normal -1 0 0
    outer loop
      vertex 3.2 10.4 1.8
      vertex 3.2 10.4 10.7
      vertex 3.2 11.7 1.8
    endloop
  endfacet
  facet normal -1 0 0
    outer loop
      vertex 3.2 11.7 10.7
      vertex 3.2 11.7 0
      vertex 3.2 11.7 1.8
    endloop
  endfacet
  facet normal -1 0 0
    outer loop
      vertex 3.2 11.7 10.7
      vertex 3.2 11.7 1.8
      vertex 3.2 10.4 10.7
    endloop
  endfacet
  facet normal -1 0 0
    outer loop
      vertex 3.2 10.4 10.7
      vertex 3.2 10.4 1.8
      vertex 3.2 10.4 0
    endloop
  endfacet
  facet normal -1 0 0
    outer loop
      vertex 3.2 1.3 12
      vertex 3.2 1.3 13.8
      vertex 3.2 10.4 12
    endloop
  endfacet
  facet normal -1 0 0
    outer loop
      vertex 3.2 10.4 12
      vertex 3.2 1.3 13.8
      vertex 3.2 10.4 13.8
    endloop
  endfacet
  facet normal 0 1 0
    outer loop
      vertex 3.2 11.7 12
      vertex 3.2 11.7 13.8
      vertex 4.5 11.7 12
    endloop
  endfacet
  facet normal 0 1 0
    outer loop
      vertex 4.5 11.7 12
      vertex 3.2 11.7 13.8
      vertex 4.5 11.7 13.8
    endloop
  endfacet
  facet normal 1 0 0
    outer loop
      vertex 4.5 10.4 13.8
      vertex 4.5 10.4 12
      vertex 4.5 11.7 12
    endloop
  endfacet
  facet normal 1 0 0
    outer loop
      vertex 4.5 11.7 13.8
      vertex 4.5 10.4 13.8
      vertex 4.5 11.7 12
    endloop
  endfacet
  facet normal 1 0 0
    outer loop
      vertex 4.5 1.3 13.8
      vertex 4.5 1.3 12
      vertex 4.5 10.4 12
    endloop
  endfacet
  facet normal 1 0 0
    outer loop
      vertex 4.5 10.4 13.8
      vertex 4.5 1.3 13.8
      vertex 4.5 10.4 12
    endloop
  endfacet
  facet normal 1 0 0
    outer loop
      vertex 1.3 1.3 1.8
      vertex 1.3 1.3 0
      vertex 1.3 10.4 0
    endloop
  endfacet
  facet normal 1 0 0
    outer loop
      vertex 1.3 10.4 1.8
      vertex 1.3 1.3 1.8
      vertex 1.3 10.4 0
    endloop
  endfacet
  facet normal 0 0 1
    outer loop
      vertex 3.2 10.4 0
      vertex 1.3 1.3 0
      vertex 3.2 1.3 0
    endloop
  endfacet
  facet normal 0 0 1
    outer loop
      vertex 1.3 10.4 0
      vertex 1.3 1.3 0
      vertex 3.2 10.4 0
    endloop
  endfacet
  facet normal 1 0 0
    outer loop
      vertex 1.3 1.3 10.7
      vertex 1.3 1.3 7
      vertex 1.3 10.4 7
    endloop
  endfacet
  facet normal 1 0 0
    outer loop
      vertex 1.3 10.4 10.7
      vertex 1.3 1.3 10.7
      vertex 1.3 10.4 7
    endloop
  endfacet
  facet normal 0 1 0
    outer loop
      vertex 4.5 1.3 10.7
      vertex 4.5 1.3 0
      vertex 3.2 1.3 10.7
    endloop
  endfacet
  facet normal 0 1 0
    outer loop
      vertex 3.2 1.3 10.7
      vertex 4.5 1.3 0
      vertex 4.5 1.3 1e-07
    endloop
  endfacet
  facet normal 0 1 0
    outer loop
      vertex 3.2 1.3 10.7
      vertex 3.2 1.3 1e-07
      vertex 3.2 1.3 0
    endloop
  endfacet
  facet normal 0 1 0
    outer loop
      vertex 3.2 1.3 1e-07
      vertex 3.2 1.3 10.7
      vertex 4.5 1.3 1e-07
    endloop
  endfacet
  facet normal 0 -1 0
    outer loop
      vertex 4.5 10.4 10.7
      vertex 3.2 10.4 1e-07
      vertex 4.5 10.4 1e-07
    endloop
  endfacet
  facet normal 0 -1 0
    outer loop
      vertex 3.2 10.4 0
      vertex 3.2 10.4 1e-07
      vertex 3.2 10.4 10.7
    endloop
  endfacet
  facet normal 0 -1 0
    outer loop
      vertex 4.5 10.4 0
      vertex 4.5 10.4 10.7
      vertex 4.5 10.4 1e-07
    endloop
  endfacet
  facet normal 0 -1 0
    outer loop
      vertex 4.5 10.4 10.7
      vertex 3.2 10.4 10.7
      vertex 3.2 10.4 1e-07
    endloop
  endfacet
  facet normal 0 1 0
    outer loop
      vertex 1.3 1.3 0
      vertex 1.3 1.3 1.8
      vertex 3.2 1.3 0
    endloop
  endfacet
  facet normal 0 1 0
    outer loop
      vertex 3.2 1.3 0
      vertex 1.3 1.3 1.8
      vertex 3.2 1.3 1.8
    endloop
  endfacet
  facet normal 0 -1 0
    outer loop
      vertex 1.3 10.4 1.8
      vertex 1.3 10.4 0
      vertex 3.2 10.4 0
    endloop
  endfacet
  facet normal 0 -1 0
    outer loop
      vertex 3.2 10.4 1.8
      vertex 1.3 10.4 1.8
      vertex 3.2 10.4 0
    endloop
  endfacet
  facet normal 0 1 0
    outer loop
      vertex 1.3 11.7 0
      vertex 1.3 11.7 1.8
      vertex 3.2 11.7 0
    endloop
  endfacet
  facet normal 0 1 0
    outer loop
      vertex 3.2 11.7 0
      vertex 1.3 11.7 1.8
      vertex 3.2 11.7 1.8
    endloop
  endfacet
  facet normal 0 0 1
    outer loop
      vertex 1.3 11.7 1.8
      vertex 1.3 10.4 1.8
      vertex 3.2 10.4 1.8
    endloop
  endfacet
  facet normal 0 0 1
    outer loop
      vertex 3.2 11.7 1.8
      vertex 1.3 11.7 1.8
      vertex 3.2 10.4 1.8
    endloop
  endfacet
  facet normal -1 0 0
    outer loop
      vertex 3.2 1.3 0
      vertex 3.2 1.3 1e-07
      vertex 3.2 10.4 0
    endloop
  endfacet
  facet normal -1 0 0
    outer loop
      vertex 3.2 10.4 0
      vertex 3.2 1.3 1e-07
      vertex 3.2 10.4 1e-07
    endloop
  endfacet
  facet normal 1 0 0
    outer loop
      vertex 4.5 1.3 1e-07
      vertex 4.5 1.3 0
      vertex 4.5 10.4 0
    endloop
  endfacet
  facet normal 1 0 0
    outer loop
      vertex 4.5 10.4 1e-07
      vertex 4.5 1.3 1e-07
      vertex 4.5 10.4 0
    endloop
  endfacet
  facet normal 0 0 1
    outer loop
      vertex 3.2 10.4 1e-07
      vertex 3.2 1.3 1e-07
      vertex 4.5 1.3 1e-07
    endloop
  endfacet
  facet normal 0 0 1
    outer loop
      vertex 4.5 10.4 1e-07
      vertex 3.2 10.4 1e-07
      vertex 4.5 1.3 1e-07
    endloop
  endfacet
  facet normal -1 0 0
    outer loop
      vertex 4.5 3 -2.9
      vertex 4.5 3 -2.1
      vertex 4.5 8.7 -2.9
    endloop
  endfacet
  facet normal -1 0 0
    outer loop
      vertex 4.5 8.7 -2.9
      vertex 4.5 3 -2.1
      vertex 4.5 8.7 -2.1
    endloop
  endfacet
  facet normal 0 -1 0
    outer loop
      vertex 4.5 3 -2.1
      vertex 4.5 3 -2.9
      vertex 14.5 3 -2.9
    endloop
  endfacet
  facet normal 0 -1 0
    outer loop
      vertex 14.5 3 -2.1
      vertex 4.5 3 -2.1
      vertex 14.5 3 -2.9
    endloop
  endfacet
  facet normal 0 0 -1
    outer loop
      vertex 4.5 3 -2.9
      vertex 4.5 8.7 -2.9
      vertex 14.5 3 -2.9
    endloop
  endfacet
  facet normal 0 0 -1
    outer loop
      vertex 14.5 3 -2.9
      vertex 4.5 8.7 -2.9
      vertex 14.5 8.7 -2.9
    endloop
  endfacet
  facet normal 0 1 0
    outer loop
      vertex 4.5 8.7 -2.9
      vertex 4.5 8.7 -2.1
      vertex 14.5 8.7 -2.9
    endloop
  endfacet
  facet normal 0 1 0
    outer loop
      vertex 14.5 8.7 -2.9
      vertex 4.5 8.7 -2.1
      vertex 14.5 8.7 -2.1
    endloop
  endfacet
  facet normal 0 0 1
    outer loop
      vertex 4.5 8.7 -2.1
      vertex 4.5 3 -2.1
      vertex 14.5 3 -2.1
    endloop
  endfacet
  facet normal 0 0 1
    outer loop
      vertex 14.5 8.7 -2.1
      vertex 4.5 8.7 -2.1
      vertex 14.5 3 -2.1
    endloop
  endfacet
  facet normal 1 0 0
    outer loop
      vertex 14.5 3 -2.1
      vertex 14.5 3 -2.9
      vertex 14.5 8.7 -2.9
    endloop
  endfacet
  facet normal 1 0 0
    outer loop
      vertex 14.5 8.7 -2.1
      vertex 14.5 3 -2.1
      vertex 14.5 8.7 -2.9
    endloop
  endfacet
  facet normal -1 0 0
    outer loop
      vertex -10 3 9.1
      vertex -10 3 9.9
      vertex -10 8.7 9.1
    endloop
  endfacet
  facet normal -1 0 0
    outer loop
      vertex -10 8.7 9.1
      vertex -10 3 9.9
      vertex -10 8.7 9.9
    endloop
  endfacet
  facet normal 0 -1 0
    outer loop
      vertex -10 3 9.9
      vertex -10 3 9.1
      vertex -1e-07 3 9.1
    endloop
  endfacet
  facet normal 0 -1 0
    outer loop
      vertex -1e-07 3 9.9
      vertex -10 3 9.9
      vertex -1e-07 3 9.1
    endloop
  endfacet
  facet normal 0 0 -1
    outer loop
      vertex -10 3 9.1
      vertex -10 8.7 9.1
      vertex -1e-07 3 9.1
    endloop
  endfacet
  facet normal 0 0 -1
    outer loop
      vertex -1e-07 3 9.1
      vertex -10 8.7 9.1
      vertex -1e-07 8.7 9.1
    endloop
  endfacet
  facet normal 0 1 0
    outer loop
      vertex -10 8.7 9.1
      vertex -10 8.7 9.9
      vertex -1e-07 8.7 9.1
    endloop
  endfacet
  facet normal 0 1 0
    outer loop
      vertex -1e-07 8.7 9.1
      vertex -10 8.7 9.9
      vertex -1e-07 8.7 9.9
    endloop
  endfacet
  facet normal 0 0 1
    outer loop
      vertex -10 8.7 9.9
      vertex -10 3 9.9
      vertex -1e-07 3 9.9
    endloop
  endfacet
  facet normal 0 0 1
    outer loop
      vertex -1e-07 8.7 9.9
      vertex -10 8.7 9.9
      vertex -1e-07 3 9.9
    endloop
  endfacet
  facet normal 1 0 0
    outer loop
      vertex -1e-07 3 9.9
      vertex -1e-07 3 9.1
      vertex -1e-07 8.7 9.1
    endloop
  endfacet
  facet normal 1 0 0
    outer loop
      vertex -1e-07 8.7 9.9
      vertex -1e-07 3 9.9
      vertex -1e-07 8.7 9.1
    endloop
  endfacet
endsolid OpenSCAD_Model
