solid OpenSCAD_Model
  facet normal -1 0 0
    outer loop
      vertex 0 5.7 21.2
      vertex 0 6.3 0
      vertex 0 5.7 1.8
    endloop
  endfacet
  facet normal -1 0 0
    outer loop
      vertex 0 0.6 24
      vertex 0 0 25.8
      vertex 0 0.6 25.8
    endloop
  endfacet
  facet normal -1 0 0
    outer loop
      vertex 0 0.6 21.2
      vertex 0 0 25.8
      vertex 0 0.6 24
    endloop
  endfacet
  facet normal -1 0 0
    outer loop
      vertex 0 6.3 0
      vertex 0 5.7 24
      vertex 0 5.7 25.8
    endloop
  endfacet
  facet normal -1 0 0
    outer loop
      vertex 0 6.3 0
      vertex 0 5.7 25.8
      vertex 0 6.3 25.8
    endloop
  endfacet
  facet normal -1 0 0
    outer loop
      vertex 0 0 0
      vertex 0 0 25.8
      vertex 0 0.6 21.2
    endloop
  endfacet
  facet normal -1 0 0
    outer loop
      vertex 0 0 0
      vertex 0 0.6 21.2
      vertex 0 0.6 1.8
    endloop
  endfacet
  facet normal -1 0 0
    outer loop
      vertex 0 0 0
      vertex 0 0.6 1.8
      vertex 0 6.3 0
    endloop
  endfacet
  facet normal -1 0 0
    outer loop
      vertex 0 0.6 1.8
      vertex 0 5.7 1.8
      vertex 0 6.3 0
    endloop
  endfacet
  facet normal -1 0 0
    outer loop
      vertex 0 0.6 21.2
      vertex 0 0.6 24
      vertex 0 5.7 21.2
    endloop
  endfacet
  facet normal -1 0 0
    outer loop
      vertex 0 6.3 0
      vertex 0 5.7 21.2
      vertex 0 5.7 24
    endloop
  endfacet
  facet normal -1 0 0
    outer loop
      vertex 0 5.7 24
      vertex 0 5.7 21.2
      vertex 0 0.6 24
    endloop
  endfacet
  facet normal 0 -1 0
    outer loop
      vertex 0 0 25.8
      vertex 0 0 0
      vertex 4.5 0 0
    endloop
  endfacet
  facet normal 0 -1 0
    outer loop
      vertex 4.5 0 25.8
      vertex 0 0 25.8
      vertex 4.5 0 0
    endloop
  endfacet
  facet normal 0 0 -1
    outer loop
      vertex 4.5 0.6 0
      vertex 4.5 0 0
      vertex 0.6 0.6 0
    endloop
  endfacet
  facet normal 0 0 -1
    outer loop
      vertex 4.5 5.7 0
      vertex 0 6.3 0
      vertex 4.5 6.3 0
    endloop
  endfacet
  facet normal 0 0 -1
    outer loop
      vertex 0.6 5.7 0
      vertex 0 6.3 0
      vertex 4.5 5.7 0
    endloop
  endfacet
  facet normal 0 0 -1
    outer loop
      vertex 0 0 0
      vertex 0 6.3 0
      vertex 0.6 0.6 0
    endloop
  endfacet
  facet normal 0 0 -1
    outer loop
      vertex 0 0 0
      vertex 0.6 0.6 0
      vertex 4.5 0 0
    endloop
  endfacet
  facet normal 0 0 -1
    outer loop
      vertex 0.6 0.6 0
      vertex 0 6.3 0
      vertex 0.6 5.7 0
    endloop
  endfacet
  facet normal 0 1 0
    outer loop
      vertex 0 6.3 0
      vertex 0 6.3 25.8
      vertex 4.5 6.3 0
    endloop
  endfacet
  facet normal 0 1 0
    outer loop
      vertex 4.5 6.3 0
      vertex 0 6.3 25.8
      vertex 4.5 6.3 25.8
    endloop
  endfacet
  facet normal 0 0 1
    outer loop
      vertex 0 0.6 25.8
      vertex 0 0 25.8
      vertex 4.5 0 25.8
    endloop
  endfacet
  facet normal 0 0 1
    outer loop
      vertex 3.9 0.6 25.8
      vertex 0 0.6 25.8
      vertex 4.5 0 25.8
    endloop
  endfacet
  facet normal 0 0 1
    outer loop
      vertex 0 6.3 25.8
      vertex 0 5.7 25.8
      vertex 4.5 6.3 25.8
    endloop
  endfacet
  facet normal 0 0 1
    outer loop
      vertex 0 5.7 25.8
      vertex 3.9 5.7 25.8
      vertex 4.5 6.3 25.8
    endloop
  endfacet
  facet normal 0 0 1
    outer loop
      vertex 4.5 6.3 25.8
      vertex 3.9 0.6 25.8
      vertex 4.5 0 25.8
    endloop
  endfacet
  facet normal 0 0 1
    outer loop
      vertex 3.9 5.7 25.8
      vertex 3.9 0.6 25.8
      vertex 4.5 6.3 25.8
    endloop
  endfacet
  facet normal 0 -1 0
    outer loop
      vertex 0 5.7 25.8
      vertex 0 5.7 24
      vertex 3.9 5.7 24
    endloop
  endfacet
  facet normal 0 -1 0
    outer loop
      vertex 3.9 5.7 25.8
      vertex 0 5.7 25.8
      vertex 3.9 5.7 24
    endloop
  endfacet
  facet normal 0 0 1
    outer loop
      vertex 0 5.7 24
      vertex 0 0.6 24
      vertex 3.9 0.6 24
    endloop
  endfacet
  facet normal 0 0 1
    outer loop
      vertex 3.9 5.7 24
      vertex 0 5.7 24
      vertex 3.9 0.6 24
    endloop
  endfacet
  facet normal 0 1 0
    outer loop
      vertex 0 0.6 24
      vertex 0 0.6 25.8
      vertex 3.9 0.6 24
    endloop
  endfacet
  facet normal 0 1 0
    outer loop
      vertex 3.9 0.6 24
      vertex 0 0.6 25.8
      vertex 3.9 0.6 25.8
    endloop
  endfacet
  facet normal 0 1 0
    outer loop
      vertex 0 0.6 1.8
      vertex 0 0.6 21.2
      vertex 0.6 0.6 1.8
    endloop
  endfacet
  facet normal 0 1 0
    outer loop
      vertex 0.6 0.6 1.8
      vertex 0 0.6 21.2
      vertex 1.3 0.6 21.2
    endloop
  endfacet
  facet normal 0 1 0
    outer loop
      vertex 1.3 0.6 21.2
      vertex 1.3 0.6 22.7
      vertex 4.5 0.6 22.7
    endloop
  endfacet
  facet normal 0 1 0
    outer loop
      vertex 1.3 0.6 21.2
      vertex 4.5 0.6 22.7
      vertex 0.6 0.6 1.8
    endloop
  endfacet
  facet normal 0 1 0
    outer loop
      vertex 0.6 0.6 1.8
      vertex 4.5 0.6 22.7
      vertex 4.5 0.6 0
    endloop
  endfacet
  facet normal 0 1 0
    outer loop
      vertex 0.6 0.6 1.8
      vertex 4.5 0.6 0
      vertex 0.6 0.6 0
    endloop
  endfacet
  facet normal 0 0 -1
    outer loop
      vertex 0 0.6 21.2
      vertex 0 5.7 21.2
      vertex 1.3 0.6 21.2
    endloop
  endfacet
  facet normal 0 0 -1
    outer loop
      vertex 1.3 0.6 21.2
      vertex 0 5.7 21.2
      vertex 1.3 5.7 21.2
    endloop
  endfacet
  facet normal 0 -1 0
    outer loop
      vertex 0 5.7 21.2
      vertex 0 5.7 1.8
      vertex 0.6 5.7 1.8
    endloop
  endfacet
  facet normal 0 -1 0
    outer loop
      vertex 4.5 5.7 0
      vertex 0 5.7 21.2
      vertex 0.6 5.7 1.8
    endloop
  endfacet
  facet normal 0 -1 0
    outer loop
      vertex 0.6 5.7 0
      vertex 4.5 5.7 0
      vertex 0.6 5.7 1.8
    endloop
  endfacet
  facet normal 0 -1 0
    outer loop
      vertex 4.5 5.7 0
      vertex 1.3 5.7 21.2
      vertex 0 5.7 21.2
    endloop
  endfacet
  facet normal 0 -1 0
    outer loop
      vertex 4.5 5.7 0
      vertex 4.5 5.7 22.7
      vertex 1.3 5.7 21.2
    endloop
  endfacet
  facet normal 0 -1 0
    outer loop
      vertex 1.3 5.7 22.7
      vertex 1.3 5.7 21.2
      vertex 4.5 5.7 22.7
    endloop
  endfacet
  facet normal 0 0 1
    outer loop
      vertex 0 5.7 1.8
      vertex 0 0.6 1.8
      vertex 0.6 0.6 1.8
    endloop
  endfacet
  facet normal 0 0 1
    outer loop
      vertex 0.6 5.7 1.8
      vertex 0 5.7 1.8
      vertex 0.6 0.6 1.8
    endloop
  endfacet
  facet normal 1 0 0
    outer loop
      vertex 4.5 0 25.8
      vertex 4.5 0 0
      vertex 4.5 0.6 0
    endloop
  endfacet
  facet normal 1 0 0
    outer loop
      vertex 4.5 5.7 22.7
      vertex 4.5 0 25.8
      vertex 4.5 0.6 22.7
    endloop
  endfacet
  facet normal 1 0 0
    outer loop
      vertex 4.5 0.6 22.7
      vertex 4.5 0 25.8
      vertex 4.5 0.6 0
    endloop
  endfacet
  facet normal 1 0 0
    outer loop
      vertex 4.5 6.3 25.8
      vertex 4.5 0 25.8
      vertex 4.5 5.7 22.7
    endloop
  endfacet
  facet normal 1 0 0
    outer loop
      vertex 4.5 6.3 0
      vertex 4.5 5.7 22.7
      vertex 4.5 5.7 0
    endloop
  endfacet
  facet normal 1 0 0
    outer loop
      vertex 4.5 6.3 25.8
      vertex 4.5 5.7 22.7
      vertex 4.5 6.3 0
    endloop
  endfacet
  facet normal 1 0 0
    outer loop
      vertex 0.6 0.6 1.8
      vertex 0.6 0.6 0
      vertex 0.6 5.7 0
    endloop
  endfacet
  facet normal 1 0 0
    outer loop
      vertex 0.6 5.7 1.8
      vertex 0.6 0.6 1.8
      vertex 0.6 5.7 0
    endloop
  endfacet
  facet normal -1 0 0
    outer loop
      vertex 3.9 0.6 24
      vertex 3.9 0.6 25.8
      vertex 3.9 5.7 24
    endloop
  endfacet
  facet normal -1 0 0
    outer loop
      vertex 3.9 5.7 24
      vertex 3.9 0.6 25.8
      vertex 3.9 5.7 25.8
    endloop
  endfacet
  facet normal 0 0 -1
    outer loop
      vertex 1.3 0.6 22.7
      vertex 1.3 5.7 22.7
      vertex 4.5 0.6 22.7
    endloop
  endfacet
  facet normal 0 0 -1
    outer loop
      vertex 4.5 0.6 22.7
      vertex 1.3 5.7 22.7
      vertex 4.5 5.7 22.7
    endloop
  endfacet
  facet normal 1 0 0
    outer loop
      vertex 1.3 0.6 22.7
      vertex 1.3 0.6 21.2
      vertex 1.3 5.7 21.2
    endloop
  endfacet
  facet normal 1 0 0
    outer loop
      vertex 1.3 5.7 22.7
      vertex 1.3 0.6 22.7
      vertex 1.3 5.7 21.2
    endloop
  endfacet
  facet normal -1 0 0
    outer loop
      vertex 0 0 -2.8
      vertex 0 0 -1e-07
      vertex 0 6.3 -2.8
    endloop
  endfacet
  facet normal -1 0 0
    outer loop
      vertex 0 6.3 -2.8
      vertex 0 0 -1e-07
      vertex 0 6.3 -1e-07
    endloop
  endfacet
  facet normal 0 -1 0
    outer loop
      vertex 0 0 -1e-07
      vertex 0 0 -2.8
      vertex 4.5 0 -2.8
    endloop
  endfacet
  facet normal 0 -1 0
    outer loop
      vertex 4.5 0 -1e-07
      vertex 0 0 -1e-07
      vertex 4.5 0 -2.8
    endloop
  endfacet
  facet normal 0 0 -1
    outer loop
      vertex 0 0 -2.8
      vertex 0 6.3 -2.8
      vertex 4.5 0 -2.8
    endloop
  endfacet
  facet normal 0 0 -1
    outer loop
      vertex 4.5 5.15 -2.8
      vertex 0 6.3 -2.8
      vertex 4.5 6.3 -2.8
    endloop
  endfacet
  facet normal 0 0 -1
    outer loop
      vertex 4.5 0 -2.8
      vertex 0 6.3 -2.8
      vertex 4.5 1.15 -2.8
    endloop
  endfacet
  facet normal 0 0 -1
    outer loop
      vertex 4.5 5.15 -2.8
      vertex 11.5 5.15 -2.8
      vertex 4.5 1.15 -2.8
    endloop
  endfacet
  facet normal 0 0 -1
    outer loop
      vertex 4.5 5.15 -2.8
      vertex 4.5 1.15 -2.8
      vertex 0 6.3 -2.8
    endloop
  endfacet
  facet normal 0 0 -1
    outer loop
      vertex 4.5 1.15 -2.8
      vertex 11.5 5.15 -2.8
      vertex 11.5 1.15 -2.8
    endloop
  endfacet
  facet normal 0 1 0
    outer loop
      vertex 0 6.3 -2.8
      vertex 0 6.3 -1e-07
      vertex 4.5 6.3 -2.8
    endloop
  endfacet
  facet normal 0 1 0
    outer loop
      vertex 4.5 6.3 -2.8
      vertex 0 6.3 -1e-07
      vertex 4.5 6.3 -1e-07
    endloop
  endfacet
  facet normal 0 0 1
    outer loop
      vertex 0 6.3 -1e-07
      vertex 0 0 -1e-07
      vertex 4.5 0 -1e-07
    endloop
  endfacet
  facet normal 0 0 1
    outer loop
      vertex 4.5 6.3 -1e-07
      vertex 0 6.3 -1e-07
      vertex 4.5 0 -1e-07
    endloop
  endfacet
  facet normal 1 0 0
    outer loop
      vertex 4.5 0 -1e-07
      vertex 4.5 0 -2.8
      vertex 4.5 1.15 -2.8
    endloop
  endfacet
  facet normal 1 0 0
    outer loop
      vertex 4.5 5.15 -1.5
      vertex 4.5 0 -1e-07
      vertex 4.5 1.15 -1.5
    endloop
  endfacet
  facet normal 1 0 0
    outer loop
      vertex 4.5 1.15 -1.5
      vertex 4.5 0 -1e-07
      vertex 4.5 1.15 -2.8
    endloop
  endfacet
  facet normal 1 0 0
    outer loop
      vertex 4.5 6.3 -1e-07
      vertex 4.5 0 -1e-07
      vertex 4.5 5.15 -1.5
    endloop
  endfacet
  facet normal 1 0 0
    outer loop
      vertex 4.5 6.3 -2.8
      vertex 4.5 5.15 -1.5
      vertex 4.5 5.15 -2.8
    endloop
  endfacet
  facet normal 1 0 0
    outer loop
      vertex 4.5 6.3 -1e-07
      vertex 4.5 5.15 -1.5
      vertex 4.5 6.3 -2.8
    endloop
  endfacet
  facet normal 0 -1 0
    outer loop
      vertex 4.5 1.15 -1.5
      vertex 4.5 1.15 -2.8
      vertex 11.5 1.15 -2.8
    endloop
  endfacet
  facet normal 0 -1 0
    outer loop
      vertex 11.5 1.15 -1.5
      vertex 4.5 1.15 -1.5
      vertex 11.5 1.15 -2.8
    endloop
  endfacet
  facet normal 1 0 0
    outer loop
      vertex 11.5 1.15 -1.5
      vertex 11.5 1.15 -2.8
      vertex 11.5 5.15 -2.8
    endloop
  endfacet
  facet normal 1 0 0
    outer loop
      vertex 11.5 5.15 -1.5
      vertex 11.5 1.15 -1.5
      vertex 11.5 5.15 -2.8
    endloop
  endfacet
  facet normal 0 1 0
    outer loop
      vertex 4.5 5.15 -2.8
      vertex 4.5 5.15 -1.5
      vertex 11.5 5.15 -2.8
    endloop
  endfacet
  facet normal 0 1 0
    outer loop
      vertex 11.5 5.15 -2.8
      vertex 4.5 5.15 -1.5
      vertex 11.5 5.15 -1.5
    endloop
  endfacet
  facet normal 0 0 1
    outer loop
      vertex 8.5 1.65 -1.5
      vertex 4.5 1.15 -1.5
      vertex 11.5 1.15 -1.5
    endloop
  endfacet
  facet normal 0 0 1
    outer loop
      vertex 8.5 1.65 -1.5
      vertex 7.92597 1.76418 -1.5
      vertex 4.5 1.15 -1.5
    endloop
  endfacet
  facet normal 0 0 1
    outer loop
      vertex 4.5 5.15 -1.5
      vertex 4.5 1.15 -1.5
      vertex 7.11418 2.57597 -1.5
    endloop
  endfacet
  facet normal 0 0 1
    outer loop
      vertex 4.5 5.15 -1.5
      vertex 7.11418 2.57597 -1.5
      vertex 7 3.15 -1.5
    endloop
  endfacet
  facet normal 0 0 1
    outer loop
      vertex 7.43934 4.21066 -1.5
      vertex 4.5 5.15 -1.5
      vertex 7.11418 3.72403 -1.5
    endloop
  endfacet
  facet normal 0 0 1
    outer loop
      vertex 7.92597 4.53582 -1.5
      vertex 4.5 5.15 -1.5
      vertex 7.43934 4.21066 -1.5
    endloop
  endfacet
  facet normal 0 0 1
    outer loop
      vertex 9.07403 4.53582 -1.5
      vertex 9.56066 4.21066 -1.5
      vertex 11.5 5.15 -1.5
    endloop
  endfacet
  facet normal 0 0 1
    outer loop
      vertex 8.5 4.65 -1.5
      vertex 4.5 5.15 -1.5
      vertex 7.92597 4.53582 -1.5
    endloop
  endfacet
  facet normal 0 0 1
    outer loop
      vertex 9.56066 2.08934 -1.5
      vertex 9.07403 1.76418 -1.5
      vertex 11.5 1.15 -1.5
    endloop
  endfacet
  facet normal 0 0 1
    outer loop
      vertex 11.5 5.15 -1.5
      vertex 4.5 5.15 -1.5
      vertex 8.5 4.65 -1.5
    endloop
  endfacet
  facet normal 0 0 1
    outer loop
      vertex 9.88582 3.72403 -1.5
      vertex 10 3.15 -1.5
      vertex 11.5 1.15 -1.5
    endloop
  endfacet
  facet normal 0 0 1
    outer loop
      vertex 9.88582 2.57597 -1.5
      vertex 9.56066 2.08934 -1.5
      vertex 11.5 1.15 -1.5
    endloop
  endfacet
  facet normal 0 0 1
    outer loop
      vertex 11.5 5.15 -1.5
      vertex 9.88582 3.72403 -1.5
      vertex 11.5 1.15 -1.5
    endloop
  endfacet
  facet normal 0 0 1
    outer loop
      vertex 11.5 5.15 -1.5
      vertex 9.56066 4.21066 -1.5
      vertex 9.88582 3.72403 -1.5
    endloop
  endfacet
  facet normal 0 0 1
    outer loop
      vertex 10 3.15 -1.5
      vertex 9.88582 2.57597 -1.5
      vertex 11.5 1.15 -1.5
    endloop
  endfacet
  facet normal 0 0 1
    outer loop
      vertex 8.5 4.65 -1.5
      vertex 9.07403 4.53582 -1.5
      vertex 11.5 5.15 -1.5
    endloop
  endfacet
  facet normal 0 0 1
    outer loop
      vertex 9.07403 1.76418 -1.5
      vertex 8.5 1.65 -1.5
      vertex 11.5 1.15 -1.5
    endloop
  endfacet
  facet normal 0 0 1
    outer loop
      vertex 7.43934 2.08934 -1.5
      vertex 4.5 1.15 -1.5
      vertex 7.92597 1.76418 -1.5
    endloop
  endfacet
  facet normal 0 0 1
    outer loop
      vertex 7.11418 2.57597 -1.5
      vertex 4.5 1.15 -1.5
      vertex 7.43934 2.08934 -1.5
    endloop
  endfacet
  facet normal 0 0 1
    outer loop
      vertex 7 3.15 -1.5
      vertex 7.11418 3.72403 -1.5
      vertex 4.5 5.15 -1.5
    endloop
  endfacet
  facet normal -0.83147 -0.55557 0
    outer loop
      vertex 7.11418 2.57597 -1.5
      vertex 7.43934 2.08934 -1.5
      vertex 7.11418 2.57597 1e-07
    endloop
  endfacet
  facet normal -0.83147 -0.55557 0
    outer loop
      vertex 7.11418 2.57597 1e-07
      vertex 7.43934 2.08934 -1.5
      vertex 7.43934 2.08934 1e-07
    endloop
  endfacet
  facet normal -0.980785 -0.19509 0
    outer loop
      vertex 7 3.15 -1.5
      vertex 7.11418 2.57597 -1.5
      vertex 7 3.15 1e-07
    endloop
  endfacet
  facet normal -0.980785 -0.19509 0
    outer loop
      vertex 7 3.15 1e-07
      vertex 7.11418 2.57597 -1.5
      vertex 7.11418 2.57597 1e-07
    endloop
  endfacet
  facet normal -0.55557 -0.83147 0
    outer loop
      vertex 7.43934 2.08934 1e-07
      vertex 7.43934 2.08934 -1.5
      vertex 7.92597 1.76418 -1.5
    endloop
  endfacet
  facet normal -0.55557 -0.83147 0
    outer loop
      vertex 7.92597 1.76418 1e-07
      vertex 7.43934 2.08934 1e-07
      vertex 7.92597 1.76418 -1.5
    endloop
  endfacet
  facet normal -0.19509 -0.980785 0
    outer loop
      vertex 7.92597 1.76418 1e-07
      vertex 7.92597 1.76418 -1.5
      vertex 8.5 1.65 -1.5
    endloop
  endfacet
  facet normal -0.19509 -0.980785 0
    outer loop
      vertex 8.5 1.65 1e-07
      vertex 7.92597 1.76418 1e-07
      vertex 8.5 1.65 -1.5
    endloop
  endfacet
  facet normal 0.19509 -0.980785 0
    outer loop
      vertex 8.5 1.65 1e-07
      vertex 8.5 1.65 -1.5
      vertex 9.07403 1.76418 -1.5
    endloop
  endfacet
  facet normal 0.19509 -0.980785 0
    outer loop
      vertex 9.07403 1.76418 1e-07
      vertex 8.5 1.65 1e-07
      vertex 9.07403 1.76418 -1.5
    endloop
  endfacet
  facet normal 0.55557 -0.83147 0
    outer loop
      vertex 9.07403 1.76418 1e-07
      vertex 9.07403 1.76418 -1.5
      vertex 9.56066 2.08934 -1.5
    endloop
  endfacet
  facet normal 0.55557 -0.83147 0
    outer loop
      vertex 9.56066 2.08934 1e-07
      vertex 9.07403 1.76418 1e-07
      vertex 9.56066 2.08934 -1.5
    endloop
  endfacet
  facet normal 0.83147 -0.55557 0
    outer loop
      vertex 9.56066 2.08934 1e-07
      vertex 9.56066 2.08934 -1.5
      vertex 9.88582 2.57597 -1.5
    endloop
  endfacet
  facet normal 0.83147 -0.55557 0
    outer loop
      vertex 9.88582 2.57597 1e-07
      vertex 9.56066 2.08934 1e-07
      vertex 9.88582 2.57597 -1.5
    endloop
  endfacet
  facet normal 0.980785 -0.19509 0
    outer loop
      vertex 9.88582 2.57597 1e-07
      vertex 9.88582 2.57597 -1.5
      vertex 10 3.15 -1.5
    endloop
  endfacet
  facet normal 0.980785 -0.19509 0
    outer loop
      vertex 10 3.15 1e-07
      vertex 9.88582 2.57597 1e-07
      vertex 10 3.15 -1.5
    endloop
  endfacet
  facet normal 0.980785 0.19509 0
    outer loop
      vertex 10 3.15 -1.5
      vertex 9.88582 3.72403 -1.5
      vertex 9.88582 3.72403 1e-07
    endloop
  endfacet
  facet normal 0.980785 0.19509 0
    outer loop
      vertex 10 3.15 1e-07
      vertex 10 3.15 -1.5
      vertex 9.88582 3.72403 1e-07
    endloop
  endfacet
  facet normal 0.83147 0.55557 0
    outer loop
      vertex 9.88582 3.72403 -1.5
      vertex 9.56066 4.21066 -1.5
      vertex 9.56066 4.21066 1e-07
    endloop
  endfacet
  facet normal 0.83147 0.55557 0
    outer loop
      vertex 9.88582 3.72403 1e-07
      vertex 9.88582 3.72403 -1.5
      vertex 9.56066 4.21066 1e-07
    endloop
  endfacet
  facet normal 0.55557 0.83147 0
    outer loop
      vertex 9.07403 4.53582 -1.5
      vertex 9.07403 4.53582 1e-07
      vertex 9.56066 4.21066 -1.5
    endloop
  endfacet
  facet normal 0.55557 0.83147 0
    outer loop
      vertex 9.56066 4.21066 -1.5
      vertex 9.07403 4.53582 1e-07
      vertex 9.56066 4.21066 1e-07
    endloop
  endfacet
  facet normal 0.19509 0.980785 0
    outer loop
      vertex 8.5 4.65 -1.5
      vertex 8.5 4.65 1e-07
      vertex 9.07403 4.53582 -1.5
    endloop
  endfacet
  facet normal 0.19509 0.980785 0
    outer loop
      vertex 9.07403 4.53582 -1.5
      vertex 8.5 4.65 1e-07
      vertex 9.07403 4.53582 1e-07
    endloop
  endfacet
  facet normal -0.19509 0.980785 0
    outer loop
      vertex 7.92597 4.53582 -1.5
      vertex 7.92597 4.53582 1e-07
      vertex 8.5 4.65 -1.5
    endloop
  endfacet
  facet normal -0.19509 0.980785 0
    outer loop
      vertex 8.5 4.65 -1.5
      vertex 7.92597 4.53582 1e-07
      vertex 8.5 4.65 1e-07
    endloop
  endfacet
  facet normal -0.55557 0.83147 0
    outer loop
      vertex 7.43934 4.21066 -1.5
      vertex 7.43934 4.21066 1e-07
      vertex 7.92597 4.53582 -1.5
    endloop
  endfacet
  facet normal -0.55557 0.83147 0
    outer loop
      vertex 7.92597 4.53582 -1.5
      vertex 7.43934 4.21066 1e-07
      vertex 7.92597 4.53582 1e-07
    endloop
  endfacet
  facet normal -0.83147 0.55557 0
    outer loop
      vertex 7.11418 3.72403 -1.5
      vertex 7.11418 3.72403 1e-07
      vertex 7.43934 4.21066 -1.5
    endloop
  endfacet
  facet normal -0.83147 0.55557 0
    outer loop
      vertex 7.43934 4.21066 -1.5
      vertex 7.11418 3.72403 1e-07
      vertex 7.43934 4.21066 1e-07
    endloop
  endfacet
  facet normal -0.980785 0.19509 0
    outer loop
      vertex 7 3.15 -1.5
      vertex 7 3.15 1e-07
      vertex 7.11418 3.72403 -1.5
    endloop
  endfacet
  facet normal -0.980785 0.19509 0
    outer loop
      vertex 7.11418 3.72403 -1.5
      vertex 7 3.15 1e-07
      vertex 7.11418 3.72403 1e-07
    endloop
  endfacet
  facet normal 0 0 1
    outer loop
      vertex 7.11418 3.72403 1e-07
      vertex 7 3.15 1e-07
      vertex 7.11418 2.57597 1e-07
    endloop
  endfacet
  facet normal 0 0 1
    outer loop
      vertex 7.92597 1.76418 1e-07
      vertex 7.11418 3.72403 1e-07
      vertex 7.43934 2.08934 1e-07
    endloop
  endfacet
  facet normal 0 0 1
    outer loop
      vertex 7.43934 2.08934 1e-07
      vertex 7.11418 3.72403 1e-07
      vertex 7.11418 2.57597 1e-07
    endloop
  endfacet
  facet normal 0 0 1
    outer loop
      vertex 8.5 1.65 1e-07
      vertex 7.11418 3.72403 1e-07
      vertex 7.92597 1.76418 1e-07
    endloop
  endfacet
  facet normal 0 0 1
    outer loop
      vertex 9.07403 1.76418 1e-07
      vertex 7.11418 3.72403 1e-07
      vertex 8.5 1.65 1e-07
    endloop
  endfacet
  facet normal 0 0 1
    outer loop
      vertex 9.56066 2.08934 1e-07
      vertex 7.11418 3.72403 1e-07
      vertex 9.07403 1.76418 1e-07
    endloop
  endfacet
  facet normal 0 0 1
    outer loop
      vertex 9.88582 2.57597 1e-07
      vertex 7.11418 3.72403 1e-07
      vertex 9.56066 2.08934 1e-07
    endloop
  endfacet
  facet normal 0 0 1
    outer loop
      vertex 10 3.15 1e-07
      vertex 7.11418 3.72403 1e-07
      vertex 9.88582 2.57597 1e-07
    endloop
  endfacet
  facet normal 0 0 1
    outer loop
      vertex 9.88582 3.72403 1e-07
      vertex 7.11418 3.72403 1e-07
      vertex 10 3.15 1e-07
    endloop
  endfacet
  facet normal 0 0 1
    outer loop
      vertex 9.56066 4.21066 1e-07
      vertex 7.11418 3.72403 1e-07
      vertex 9.88582 3.72403 1e-07
    endloop
  endfacet
  facet normal 0 0 1
    outer loop
      vertex 9.07403 4.53582 1e-07
      vertex 7.11418 3.72403 1e-07
      vertex 9.56066 4.21066 1e-07
    endloop
  endfacet
  facet normal 0 0 1
    outer loop
      vertex 8.5 4.65 1e-07
      vertex 7.11418 3.72403 1e-07
      vertex 9.07403 4.53582 1e-07
    endloop
  endfacet
  facet normal 0 0 1
    outer loop
      vertex 7.92597 4.53582 1e-07
      vertex 7.11418 3.72403 1e-07
      vertex 8.5 4.65 1e-07
    endloop
  endfacet
  facet normal 0 0 1
    outer loop
      vertex 7.43934 4.21066 1e-07
      vertex 7.11418 3.72403 1e-07
      vertex 7.92597 4.53582 1e-07
    endloop
  endfacet
  facet normal -1 0 0
    outer loop
      vertex -7 1.15 21.2
      vertex -7 1.15 22.5
      vertex -7 5.15 21.2
    endloop
  endfacet
  facet normal -1 0 0
    outer loop
      vertex -7 5.15 21.2
      vertex -7 1.15 22.5
      vertex -7 5.15 22.5
    endloop
  endfacet
  facet normal 0 -1 0
    outer loop
      vertex -7 1.15 22.5
      vertex -7 1.15 21.2
      vertex -1e-07 1.15 21.2
    endloop
  endfacet
  facet normal 0 -1 0
    outer loop
      vertex -1e-07 1.15 22.5
      vertex -7 1.15 22.5
      vertex -1e-07 1.15 21.2
    endloop
  endfacet
  facet normal 0 0 -1
    outer loop
      vertex -7 1.15 21.2
      vertex -7 5.15 21.2
      vertex -1e-07 1.15 21.2
    endloop
  endfacet
  facet normal 0 0 -1
    outer loop
      vertex -1e-07 1.15 21.2
      vertex -7 5.15 21.2
      vertex -1e-07 5.15 21.2
    endloop
  endfacet
  facet normal 0 1 0
    outer loop
      vertex -7 5.15 21.2
      vertex -7 5.15 22.5
      vertex -1e-07 5.15 21.2
    endloop
  endfacet
  facet normal 0 1 0
    outer loop
      vertex -1e-07 5.15 21.2
      vertex -7 5.15 22.5
      vertex -1e-07 5.15 22.5
    endloop
  endfacet
  facet normal 0 0 1
    outer loop
      vertex -4 1.65 22.5
      vertex -7 1.15 22.5
      vertex -1e-07 1.15 22.5
    endloop
  endfacet
  facet normal 0 0 1
    outer loop
      vertex -4 1.65 22.5
      vertex -4.57403 1.76418 22.5
      vertex -7 1.15 22.5
    endloop
  endfacet
  facet normal 0 0 1
    outer loop
      vertex -7 5.15 22.5
      vertex -7 1.15 22.5
      vertex -5.38582 2.57597 22.5
    endloop
  endfacet
  facet normal 0 0 1
    outer loop
      vertex -2.93934 2.08934 22.5
      vertex -3.42597 1.76418 22.5
      vertex -1e-07 1.15 22.5
    endloop
  endfacet
  facet normal 0 0 1
    outer loop
      vertex -7 5.15 22.5
      vertex -5.38582 2.57597 22.5
      vertex -5.5 3.15 22.5
    endloop
  endfacet
  facet normal 0 0 1
    outer loop
      vertex -7 5.15 22.5
      vertex -5.5 3.15 22.5
      vertex -5.38582 3.72403 22.5
    endloop
  endfacet
  facet normal 0 0 1
    outer loop
      vertex -4.57403 4.53582 22.5
      vertex -7 5.15 22.5
      vertex -5.06066 4.21066 22.5
    endloop
  endfacet
  facet normal 0 0 1
    outer loop
      vertex -4 4.65 22.5
      vertex -7 5.15 22.5
      vertex -4.57403 4.53582 22.5
    endloop
  endfacet
  facet normal 0 0 1
    outer loop
      vertex -3.42597 4.53582 22.5
      vertex -2.93934 4.21066 22.5
      vertex -1e-07 5.15 22.5
    endloop
  endfacet
  facet normal 0 0 1
    outer loop
      vertex -1e-07 5.15 22.5
      vertex -7 5.15 22.5
      vertex -4 4.65 22.5
    endloop
  endfacet
  facet normal 0 0 1
    outer loop
      vertex -2.5 3.15 22.5
      vertex -2.61418 2.57597 22.5
      vertex -1e-07 1.15 22.5
    endloop
  endfacet
  facet normal 0 0 1
    outer loop
      vertex -1e-07 5.15 22.5
      vertex -2.93934 4.21066 22.5
      vertex -1e-07 1.15 22.5
    endloop
  endfacet
  facet normal 0 0 1
    outer loop
      vertex -2.93934 4.21066 22.5
      vertex -2.61418 3.72403 22.5
      vertex -1e-07 1.15 22.5
    endloop
  endfacet
  facet normal 0 0 1
    outer loop
      vertex -2.61418 3.72403 22.5
      vertex -2.5 3.15 22.5
      vertex -1e-07 1.15 22.5
    endloop
  endfacet
  facet normal 0 0 1
    outer loop
      vertex -4 4.65 22.5
      vertex -3.42597 4.53582 22.5
      vertex -1e-07 5.15 22.5
    endloop
  endfacet
  facet normal 0 0 1
    outer loop
      vertex -2.61418 2.57597 22.5
      vertex -2.93934 2.08934 22.5
      vertex -1e-07 1.15 22.5
    endloop
  endfacet
  facet normal 0 0 1
    outer loop
      vertex -3.42597 1.76418 22.5
      vertex -4 1.65 22.5
      vertex -1e-07 1.15 22.5
    endloop
  endfacet
  facet normal 0 0 1
    outer loop
      vertex -5.06066 2.08934 22.5
      vertex -7 1.15 22.5
      vertex -4.57403 1.76418 22.5
    endloop
  endfacet
  facet normal 0 0 1
    outer loop
      vertex -5.38582 2.57597 22.5
      vertex -7 1.15 22.5
      vertex -5.06066 2.08934 22.5
    endloop
  endfacet
  facet normal 0 0 1
    outer loop
      vertex -5.38582 3.72403 22.5
      vertex -5.06066 4.21066 22.5
      vertex -7 5.15 22.5
    endloop
  endfacet
  facet normal 1 0 0
    outer loop
      vertex -1e-07 1.15 22.5
      vertex -1e-07 1.15 21.2
      vertex -1e-07 5.15 21.2
    endloop
  endfacet
  facet normal 1 0 0
    outer loop
      vertex -1e-07 5.15 22.5
      vertex -1e-07 1.15 22.5
      vertex -1e-07 5.15 21.2
    endloop
  endfacet
  facet normal -0.83147 -0.55557 0
    outer loop
      vertex -5.38582 2.57597 22.5
      vertex -5.06066 2.08934 22.5
      vertex -5.38582 2.57597 24
    endloop
  endfacet
  facet normal -0.83147 -0.55557 0
    outer loop
      vertex -5.38582 2.57597 24
      vertex -5.06066 2.08934 22.5
      vertex -5.06066 2.08934 24
    endloop
  endfacet
  facet normal -0.980785 -0.19509 0
    outer loop
      vertex -5.5 3.15 22.5
      vertex -5.38582 2.57597 22.5
      vertex -5.5 3.15 24
    endloop
  endfacet
  facet normal -0.980785 -0.19509 0
    outer loop
      vertex -5.5 3.15 24
      vertex -5.38582 2.57597 22.5
      vertex -5.38582 2.57597 24
    endloop
  endfacet
  facet normal -0.55557 -0.83147 0
    outer loop
      vertex -5.06066 2.08934 24
      vertex -5.06066 2.08934 22.5
      vertex -4.57403 1.76418 22.5
    endloop
  endfacet
  facet normal -0.55557 -0.83147 0
    outer loop
      vertex -4.57403 1.76418 24
      vertex -5.06066 2.08934 24
      vertex -4.57403 1.76418 22.5
    endloop
  endfacet
  facet normal -0.19509 -0.980785 0
    outer loop
      vertex -4.57403 1.76418 24
      vertex -4.57403 1.76418 22.5
      vertex -4 1.65 22.5
    endloop
  endfacet
  facet normal -0.19509 -0.980785 0
    outer loop
      vertex -4 1.65 24
      vertex -4.57403 1.76418 24
      vertex -4 1.65 22.5
    endloop
  endfacet
  facet normal 0.19509 -0.980785 0
    outer loop
      vertex -4 1.65 24
      vertex -4 1.65 22.5
      vertex -3.42597 1.76418 22.5
    endloop
  endfacet
  facet normal 0.19509 -0.980785 0
    outer loop
      vertex -3.42597 1.76418 24
      vertex -4 1.65 24
      vertex -3.42597 1.76418 22.5
    endloop
  endfacet
  facet normal 0.55557 -0.83147 0
    outer loop
      vertex -3.42597 1.76418 24
      vertex -3.42597 1.76418 22.5
      vertex -2.93934 2.08934 22.5
    endloop
  endfacet
  facet normal 0.55557 -0.83147 0
    outer loop
      vertex -2.93934 2.08934 24
      vertex -3.42597 1.76418 24
      vertex -2.93934 2.08934 22.5
    endloop
  endfacet
  facet normal 0.83147 -0.55557 0
    outer loop
      vertex -2.93934 2.08934 24
      vertex -2.93934 2.08934 22.5
      vertex -2.61418 2.57597 22.5
    endloop
  endfacet
  facet normal 0.83147 -0.55557 0
    outer loop
      vertex -2.61418 2.57597 24
      vertex -2.93934 2.08934 24
      vertex -2.61418 2.57597 22.5
    endloop
  endfacet
  facet normal 0.980785 -0.19509 0
    outer loop
      vertex -2.61418 2.57597 24
      vertex -2.61418 2.57597 22.5
      vertex -2.5 3.15 22.5
    endloop
  endfacet
  facet normal 0.980785 -0.19509 0
    outer loop
      vertex -2.5 3.15 24
      vertex -2.61418 2.57597 24
      vertex -2.5 3.15 22.5
    endloop
  endfacet
  facet normal 0.980785 0.19509 0
    outer loop
      vertex -2.5 3.15 22.5
      vertex -2.61418 3.72403 22.5
      vertex -2.61418 3.72403 24
    endloop
  endfacet
  facet normal 0.980785 0.19509 0
    outer loop
      vertex -2.5 3.15 24
      vertex -2.5 3.15 22.5
      vertex -2.61418 3.72403 24
    endloop
  endfacet
  facet normal 0.83147 0.55557 0
    outer loop
      vertex -2.61418 3.72403 22.5
      vertex -2.93934 4.21066 22.5
      vertex -2.93934 4.21066 24
    endloop
  endfacet
  facet normal 0.83147 0.55557 0
    outer loop
      vertex -2.61418 3.72403 24
      vertex -2.61418 3.72403 22.5
      vertex -2.93934 4.21066 24
    endloop
  endfacet
  facet normal 0.55557 0.83147 0
    outer loop
      vertex -3.42597 4.53582 22.5
      vertex -3.42597 4.53582 24
      vertex -2.93934 4.21066 22.5
    endloop
  endfacet
  facet normal 0.55557 0.83147 0
    outer loop
      vertex -2.93934 4.21066 22.5
      vertex -3.42597 4.53582 24
      vertex -2.93934 4.21066 24
    endloop
  endfacet
  facet normal 0.19509 0.980785 0
    outer loop
      vertex -4 4.65 22.5
      vertex -4 4.65 24
      vertex -3.42597 4.53582 22.5
    endloop
  endfacet
  facet normal 0.19509 0.980785 0
    outer loop
      vertex -3.42597 4.53582 22.5
      vertex -4 4.65 24
      vertex -3.42597 4.53582 24
    endloop
  endfacet
  facet normal -0.19509 0.980785 0
    outer loop
      vertex -4.57403 4.53582 22.5
      vertex -4.57403 4.53582 24
      vertex -4 4.65 22.5
    endloop
  endfacet
  facet normal -0.19509 0.980785 0
    outer loop
      vertex -4 4.65 22.5
      vertex -4.57403 4.53582 24
      vertex -4 4.65 24
    endloop
  endfacet
  facet normal -0.55557 0.83147 0
    outer loop
      vertex -5.06066 4.21066 22.5
      vertex -5.06066 4.21066 24
      vertex -4.57403 4.53582 22.5
    endloop
  endfacet
  facet normal -0.55557 0.83147 0
    outer loop
      vertex -4.57403 4.53582 22.5
      vertex -5.06066 4.21066 24
      vertex -4.57403 4.53582 24
    endloop
  endfacet
  facet normal -0.83147 0.55557 0
    outer loop
      vertex -5.38582 3.72403 22.5
      vertex -5.38582 3.72403 24
      vertex -5.06066 4.21066 22.5
    endloop
  endfacet
  facet normal -0.83147 0.55557 0
    outer loop
      vertex -5.06066 4.21066 22.5
      vertex -5.38582 3.72403 24
      vertex -5.06066 4.21066 24
    endloop
  endfacet
  facet normal -0.980785 0.19509 0
    outer loop
      vertex -5.5 3.15 22.5
      vertex -5.5 3.15 24
      vertex -5.38582 3.72403 22.5
    endloop
  endfacet
  facet normal -0.980785 0.19509 0
    outer loop
      vertex -5.38582 3.72403 22.5
      vertex -5.5 3.15 24
      vertex -5.38582 3.72403 24
    endloop
  endfacet
  facet normal 0 0 1
    outer loop
      vertex -5.38582 3.72403 24
      vertex -5.5 3.15 24
      vertex -5.38582 2.57597 24
    endloop
  endfacet
  facet normal 0 0 1
    outer loop
      vertex -4.57403 1.76418 24
      vertex -5.38582 3.72403 24
      vertex -5.06066 2.08934 24
    endloop
  endfacet
  facet normal 0 0 1
    outer loop
      vertex -5.06066 2.08934 24
      vertex -5.38582 3.72403 24
      vertex -5.38582 2.57597 24
    endloop
  endfacet
  facet normal 0 0 1
    outer loop
      vertex -4 1.65 24
      vertex -5.38582 3.72403 24
      vertex -4.57403 1.76418 24
    endloop
  endfacet
  facet normal 0 0 1
    outer loop
      vertex -3.42597 1.76418 24
      vertex -5.38582 3.72403 24
      vertex -4 1.65 24
    endloop
  endfacet
  facet normal 0 0 1
    outer loop
      vertex -2.93934 2.08934 24
      vertex -5.38582 3.72403 24
      vertex -3.42597 1.76418 24
    endloop
  endfacet
  facet normal 0 0 1
    outer loop
      vertex -2.61418 2.57597 24
      vertex -5.38582 3.72403 24
      vertex -2.93934 2.08934 24
    endloop
  endfacet
  facet normal 0 0 1
    outer loop
      vertex -2.5 3.15 24
      vertex -5.38582 3.72403 24
      vertex -2.61418 2.57597 24
    endloop
  endfacet
  facet normal 0 0 1
    outer loop
      vertex -2.61418 3.72403 24
      vertex -5.38582 3.72403 24
      vertex -2.5 3.15 24
    endloop
  endfacet
  facet normal 0 0 1
    outer loop
      vertex -2.93934 4.21066 24
      vertex -5.38582 3.72403 24
      vertex -2.61418 3.72403 24
    endloop
  endfacet
  facet normal 0 0 1
    outer loop
      vertex -3.42597 4.53582 24
      vertex -5.38582 3.72403 24
      vertex -2.93934 4.21066 24
    endloop
  endfacet
  facet normal 0 0 1
    outer loop
      vertex -4 4.65 24
      vertex -5.38582 3.72403 24
      vertex -3.42597 4.53582 24
    endloop
  endfacet
  facet normal 0 0 1
    outer loop
      vertex -4.57403 4.53582 24
      vertex -5.38582 3.72403 24
      vertex -4 4.65 24
    endloop
  endfacet
  facet normal 0 0 1
    outer loop
      vertex -5.06066 4.21066 24
      vertex -5.38582 3.72403 24
      vertex -4.57403 4.53582 24
    endloop
  endfacet
endsolid OpenSCAD_Model
