solid OpenSCAD_Model
  facet normal -1 0 0
    outer loop
      vertex 0 10.4 1.8
      vertex 0 11.7 -1.3
      vertex 0 1.3 1.8
    endloop
  endfacet
  facet normal -1 0 0
    outer loop
      vertex 0 10.4 9.2
      vertex 0 0 12
      vertex 0 11.7 12
    endloop
  endfacet
  facet normal -1 0 0
    outer loop
      vertex 0 0 -1.3
      vertex 0 0 12
      vertex 0 1.3 9.2
    endloop
  endfacet
  facet normal -1 0 0
    outer loop
      vertex 0 0 -1.3
      vertex 0 1.3 9.2
      vertex 0 1.3 1.8
    endloop
  endfacet
  facet normal -1 0 0
    outer loop
      vertex 0 0 -1.3
      vertex 0 1.3 1.8
      vertex 0 11.7 -1.3
    endloop
  endfacet
  facet normal -1 0 0
    outer loop
      vertex 0 11.7 -1.3
      vertex 0 10.4 1.8
      vertex 0 11.7 12
    endloop
  endfacet
  facet normal -1 0 0
    outer loop
      vertex 0 10.4 1.8
      vertex 0 10.4 9.2
      vertex 0 11.7 12
    endloop
  endfacet
  facet normal -1 0 0
    outer loop
      vertex 0 1.3 9.2
      vertex 0 0 12
      vertex 0 10.4 9.2
    endloop
  endfacet
  facet normal 0 -1 0
    outer loop
      vertex 1.3 0 10.7
      vertex 3.2 0 10.7
      vertex 1.3 0 12
    endloop
  endfacet
  facet normal 0 -1 0
    outer loop
      vertex 1.3 0 1.8
      vertex 0 0 -1.3
      vertex 3.2 0 -1.3
    endloop
  endfacet
  facet normal 0 -1 0
    outer loop
      vertex 3.2 0 -2.8
      vertex 4.5 0 -2.8
      vertex 3.2 0 -1.3
    endloop
  endfacet
  facet normal 0 -1 0
    outer loop
      vertex 3.2 0 10.7
      vertex 3.2 0 1.8
      vertex 4.5 0 -1.3
    endloop
  endfacet
  facet normal 0 -1 0
    outer loop
      vertex 3.2 0 1.8
      vertex 3.2 0 -1.3
      vertex 4.5 0 -2.8
    endloop
  endfacet
  facet normal 0 -1 0
    outer loop
      vertex 1.3 0 10.7
      vertex 1.3 0 12
      vertex 0 0 12
    endloop
  endfacet
  facet normal 0 -1 0
    outer loop
      vertex 3.2 0 10.7
      vertex 4.5 0 12
      vertex 1.3 0 12
    endloop
  endfacet
  facet normal 0 -1 0
    outer loop
      vertex 0 0 12
      vertex 0 0 -1.3
      vertex 1.3 0 1.8
    endloop
  endfacet
  facet normal 0 -1 0
    outer loop
      vertex 4.5 0 -1.3
      vertex 4.5 0 12
      vertex 3.2 0 10.7
    endloop
  endfacet
  facet normal 0 -1 0
    outer loop
      vertex 4.5 0 -2.8
      vertex 4.5 0 -1.3
      vertex 3.2 0 1.8
    endloop
  endfacet
  facet normal 0 -1 0
    outer loop
      vertex 3.2 0 1.8
      vertex 1.3 0 1.8
      vertex 3.2 0 -1.3
    endloop
  endfacet
  facet normal 0 -1 0
    outer loop
      vertex 1.3 0 1.8
      vertex 1.3 0 10.7
      vertex 0 0 12
    endloop
  endfacet
  facet normal 0 0 -1
    outer loop
      vertex 0 0 -1.3
      vertex 0 11.7 -1.3
      vertex 3.2 0 -1.3
    endloop
  endfacet
  facet normal 0 0 -1
    outer loop
      vertex 3.2 0 -1.3
      vertex 0 11.7 -1.3
      vertex 3.2 11.7 -1.3
    endloop
  endfacet
  facet normal 0 1 0
    outer loop
      vertex 3.2 11.7 1.8
      vertex 3.2 11.7 -1.3
      vertex 1.3 11.7 1.8
    endloop
  endfacet
  facet normal 0 1 0
    outer loop
      vertex 1.3 11.7 10.7
      vertex 0 11.7 12
      vertex 1.3 11.7 12
    endloop
  endfacet
  facet normal 0 1 0
    outer loop
      vertex 1.3 11.7 10.7
      vertex 1.3 11.7 12
      vertex 3.2 11.7 10.7
    endloop
  endfacet
  facet normal 0 1 0
    outer loop
      vertex 3.2 11.7 -1.3
      vertex 4.5 11.7 12
      vertex 4.5 11.7 -1.3
    endloop
  endfacet
  facet normal 0 1 0
    outer loop
      vertex 4.5 11.7 -1.3
      vertex 4.5 11.7 -2.8
      vertex 3.2 11.7 -1.3
    endloop
  endfacet
  facet normal 0 1 0
    outer loop
      vertex 1.3 11.7 1.8
      vertex 0 11.7 12
      vertex 1.3 11.7 10.7
    endloop
  endfacet
  facet normal 0 1 0
    outer loop
      vertex 0 11.7 -1.3
      vertex 0 11.7 12
      vertex 1.3 11.7 1.8
    endloop
  endfacet
  facet normal 0 1 0
    outer loop
      vertex 0 11.7 -1.3
      vertex 1.3 11.7 1.8
      vertex 3.2 11.7 -1.3
    endloop
  endfacet
  facet normal 0 1 0
    outer loop
      vertex 3.2 11.7 -1.3
      vertex 3.2 11.7 1.8
      vertex 4.5 11.7 12
    endloop
  endfacet
  facet normal 0 1 0
    outer loop
      vertex 3.2 11.7 1.8
      vertex 3.2 11.7 10.7
      vertex 4.5 11.7 12
    endloop
  endfacet
  facet normal 0 1 0
    outer loop
      vertex 3.2 11.7 -1.3
      vertex 4.5 11.7 -2.8
      vertex 3.2 11.7 -2.8
    endloop
  endfacet
  facet normal 0 1 0
    outer loop
      vertex 4.5 11.7 12
      vertex 3.2 11.7 10.7
      vertex 1.3 11.7 12
    endloop
  endfacet
  facet normal 0 0 1
    outer loop
      vertex 0 11.7 12
      vertex 0 0 12
      vertex 1.3 0 12
    endloop
  endfacet
  facet normal 0 0 1
    outer loop
      vertex 1.3 11.7 12
      vertex 0 11.7 12
      vertex 1.3 0 12
    endloop
  endfacet
  facet normal 0 1 0
    outer loop
      vertex 1.3 1.3 9.2
      vertex 1.3 1.3 10.7
      vertex 1.3 1.3 0
    endloop
  endfacet
  facet normal 0 1 0
    outer loop
      vertex 1.3 1.3 9.2
      vertex 1.3 1.3 0
      vertex 0 1.3 9.2
    endloop
  endfacet
  facet normal 0 1 0
    outer loop
      vertex 1.3 1.3 0
      vertex 0.6 1.3 0
      vertex 0.6 1.3 1.8
    endloop
  endfacet
  facet normal 0 1 0
    outer loop
      vertex 1.3 1.3 0
      vertex 0.6 1.3 1.8
      vertex 0 1.3 9.2
    endloop
  endfacet
  facet normal 0 1 0
    outer loop
      vertex 0 1.3 1.8
      vertex 0 1.3 9.2
      vertex 0.6 1.3 1.8
    endloop
  endfacet
  facet normal 0 0 -1
    outer loop
      vertex 0 1.3 9.2
      vertex 0 10.4 9.2
      vertex 1.3 1.3 9.2
    endloop
  endfacet
  facet normal 0 0 -1
    outer loop
      vertex 1.3 1.3 9.2
      vertex 0 10.4 9.2
      vertex 1.3 10.4 9.2
    endloop
  endfacet
  facet normal 0 -1 0
    outer loop
      vertex 0.6 10.4 1.8
      vertex 0.6 10.4 0
      vertex 1.3 10.4 0
    endloop
  endfacet
  facet normal 0 -1 0
    outer loop
      vertex 1.3 10.4 9.2
      vertex 0 10.4 9.2
      vertex 0.6 10.4 1.8
    endloop
  endfacet
  facet normal 0 -1 0
    outer loop
      vertex 1.3 10.4 9.2
      vertex 0.6 10.4 1.8
      vertex 1.3 10.4 0
    endloop
  endfacet
  facet normal 0 -1 0
    outer loop
      vertex 1.3 10.4 10.7
      vertex 1.3 10.4 9.2
      vertex 1.3 10.4 0
    endloop
  endfacet
  facet normal 0 -1 0
    outer loop
      vertex 0 10.4 1.8
      vertex 0.6 10.4 1.8
      vertex 0 10.4 9.2
    endloop
  endfacet
  facet normal 0 0 1
    outer loop
      vertex 0 10.4 1.8
      vertex 0 1.3 1.8
      vertex 0.6 1.3 1.8
    endloop
  endfacet
  facet normal 0 0 1
    outer loop
      vertex 0.6 10.4 1.8
      vertex 0 10.4 1.8
      vertex 0.6 1.3 1.8
    endloop
  endfacet
  facet normal 0 0 1
    outer loop
      vertex 1.3 11.7 12
      vertex 1.3 0 12
      vertex 4.5 0 12
    endloop
  endfacet
  facet normal 0 0 1
    outer loop
      vertex 4.5 11.7 12
      vertex 1.3 11.7 12
      vertex 4.5 0 12
    endloop
  endfacet
  facet normal 1 0 0
    outer loop
      vertex 4.5 1.3 0
      vertex 4.5 0 -1.3
      vertex 4.5 11.7 -1.3
    endloop
  endfacet
  facet normal 1 0 0
    outer loop
      vertex 4.5 10.4 0
      vertex 4.5 1.3 0
      vertex 4.5 11.7 -1.3
    endloop
  endfacet
  facet normal 1 0 0
    outer loop
      vertex 4.5 0 12
      vertex 4.5 0 -1.3
      vertex 4.5 1.3 0
    endloop
  endfacet
  facet normal 1 0 0
    outer loop
      vertex 4.5 11.7 12
      vertex 4.5 0 12
      vertex 4.5 1.3 10.7
    endloop
  endfacet
  facet normal 1 0 0
    outer loop
      vertex 4.5 11.7 12
      vertex 4.5 10.4 10.7
      vertex 4.5 11.7 -1.3
    endloop
  endfacet
  facet normal 1 0 0
    outer loop
      vertex 4.5 11.7 12
      vertex 4.5 1.3 10.7
      vertex 4.5 10.4 10.7
    endloop
  endfacet
  facet normal 1 0 0
    outer loop
      vertex 4.5 10.4 10.7
      vertex 4.5 10.4 0
      vertex 4.5 11.7 -1.3
    endloop
  endfacet
  facet normal 1 0 0
    outer loop
      vertex 4.5 1.3 0
      vertex 4.5 1.3 10.7
      vertex 4.5 0 12
    endloop
  endfacet
  facet normal 1 0 0
    outer loop
      vertex 4.5 0 -1.3
      vertex 4.5 0 -2.8
      vertex 4.5 11.7 -2.8
    endloop
  endfacet
  facet normal 1 0 0
    outer loop
      vertex 4.5 11.7 -1.3
      vertex 4.5 0 -1.3
      vertex 4.5 11.7 -2.8
    endloop
  endfacet
  facet normal 0 0 -1
    outer loop
      vertex 3.2 0 -2.8
      vertex 3.2 11.7 -2.8
      vertex 4.5 0 -2.8
    endloop
  endfacet
  facet normal 0 0 -1
    outer loop
      vertex 4.5 0 -2.8
      vertex 3.2 11.7 -2.8
      vertex 4.5 11.7 -2.8
    endloop
  endfacet
  facet normal -1 0 0
    outer loop
      vertex 3.2 0 -2.8
      vertex 3.2 0 -1.3
      vertex 3.2 11.7 -2.8
    endloop
  endfacet
  facet normal -1 0 0
    outer loop
      vertex 3.2 11.7 -2.8
      vertex 3.2 0 -1.3
      vertex 3.2 11.7 -1.3
    endloop
  endfacet
  facet normal 1 0 0
    outer loop
      vertex 1.3 0.6 1.8
      vertex 1.3 0.6 0
      vertex 1.3 1.3 0
    endloop
  endfacet
  facet normal 1 0 0
    outer loop
      vertex 1.3 0 10.7
      vertex 1.3 0.6 1.8
      vertex 1.3 1.3 10.7
    endloop
  endfacet
  facet normal 1 0 0
    outer loop
      vertex 1.3 1.3 10.7
      vertex 1.3 0.6 1.8
      vertex 1.3 1.3 0
    endloop
  endfacet
  facet normal 1 0 0
    outer loop
      vertex 1.3 0 1.8
      vertex 1.3 0.6 1.8
      vertex 1.3 0 10.7
    endloop
  endfacet
  facet normal 0 0 1
    outer loop
      vertex 1.3 0.6 1.8
      vertex 1.3 0 1.8
      vertex 3.2 0 1.8
    endloop
  endfacet
  facet normal 0 0 1
    outer loop
      vertex 3.2 0.6 1.8
      vertex 1.3 0.6 1.8
      vertex 3.2 0 1.8
    endloop
  endfacet
  facet normal -1 0 0
    outer loop
      vertex 3.2 1.3 10.7
      vertex 3.2 1.3 0
      vertex 3.2 0 10.7
    endloop
  endfacet
  facet normal -1 0 0
    outer loop
      vertex 3.2 0.6 1.8
      vertex 3.2 1.3 0
      vertex 3.2 0.6 0
    endloop
  endfacet
  facet normal -1 0 0
    outer loop
      vertex 3.2 0 10.7
      vertex 3.2 1.3 0
      vertex 3.2 0.6 1.8
    endloop
  endfacet
  facet normal -1 0 0
    outer loop
      vertex 3.2 0 1.8
      vertex 3.2 0 10.7
      vertex 3.2 0.6 1.8
    endloop
  endfacet
  facet normal 0 0 -1
    outer loop
      vertex 1.3 10.4 10.7
      vertex 1.3 11.7 10.7
      vertex 3.2 11.7 10.7
    endloop
  endfacet
  facet normal 0 0 -1
    outer loop
      vertex 1.3 10.4 10.7
      vertex 3.2 11.7 10.7
      vertex 3.2 10.4 10.7
    endloop
  endfacet
  facet normal 0 0 -1
    outer loop
      vertex 3.2 10.4 10.7
      vertex 4.5 10.4 10.7
      vertex 4.5 1.3 10.7
    endloop
  endfacet
  facet normal 0 0 -1
    outer loop
      vertex 3.2 10.4 10.7
      vertex 4.5 1.3 10.7
      vertex 1.3 10.4 10.7
    endloop
  endfacet
  facet normal 0 0 -1
    outer loop
      vertex 4.5 1.3 10.7
      vertex 3.2 1.3 10.7
      vertex 1.3 10.4 10.7
    endloop
  endfacet
  facet normal 0 0 -1
    outer loop
      vertex 3.2 1.3 10.7
      vertex 3.2 0 10.7
      vertex 1.3 10.4 10.7
    endloop
  endfacet
  facet normal 0 0 -1
    outer loop
      vertex 3.2 0 10.7
      vertex 1.3 0 10.7
      vertex 1.3 1.3 10.7
    endloop
  endfacet
  facet normal 0 0 -1
    outer loop
      vertex 3.2 0 10.7
      vertex 1.3 1.3 10.7
      vertex 1.3 10.4 10.7
    endloop
  endfacet
  facet normal 1 0 0
    outer loop
      vertex 1.3 11.7 10.7
      vertex 1.3 11.1 1.8
      vertex 1.3 11.7 1.8
    endloop
  endfacet
  facet normal 1 0 0
    outer loop
      vertex 1.3 10.4 10.7
      vertex 1.3 11.1 1.8
      vertex 1.3 11.7 10.7
    endloop
  endfacet
  facet normal 1 0 0
    outer loop
      vertex 1.3 11.1 0
      vertex 1.3 11.1 1.8
      vertex 1.3 10.4 10.7
    endloop
  endfacet
  facet normal 1 0 0
    outer loop
      vertex 1.3 10.4 0
      vertex 1.3 11.1 0
      vertex 1.3 10.4 10.7
    endloop
  endfacet
  facet normal -1 0 0
    outer loop
      vertex 3.2 11.7 10.7
      vertex 3.2 11.7 1.8
      vertex 3.2 10.4 10.7
    endloop
  endfacet
  facet normal -1 0 0
    outer loop
      vertex 3.2 10.4 10.7
      vertex 3.2 11.7 1.8
      vertex 3.2 11.1 1.8
    endloop
  endfacet
  facet normal -1 0 0
    outer loop
      vertex 3.2 10.4 10.7
      vertex 3.2 11.1 1.8
      vertex 3.2 11.1 0
    endloop
  endfacet
  facet normal -1 0 0
    outer loop
      vertex 3.2 10.4 10.7
      vertex 3.2 11.1 0
      vertex 3.2 10.4 0
    endloop
  endfacet
  facet normal 0 0 1
    outer loop
      vertex 1.3 11.7 1.8
      vertex 1.3 11.1 1.8
      vertex 3.2 11.1 1.8
    endloop
  endfacet
  facet normal 0 0 1
    outer loop
      vertex 3.2 11.7 1.8
      vertex 1.3 11.7 1.8
      vertex 3.2 11.1 1.8
    endloop
  endfacet
  facet normal 1 0 0
    outer loop
      vertex 0.6 1.3 1.8
      vertex 0.6 1.3 0
      vertex 0.6 10.4 0
    endloop
  endfacet
  facet normal 1 0 0
    outer loop
      vertex 0.6 10.4 1.8
      vertex 0.6 1.3 1.8
      vertex 0.6 10.4 0
    endloop
  endfacet
  facet normal 0 0 1
    outer loop
      vertex 1.3 1.3 0
      vertex 1.3 0.6 0
      vertex 3.2 0.6 0
    endloop
  endfacet
  facet normal 0 0 1
    outer loop
      vertex 4.5 10.4 0
      vertex 1.3 1.3 0
      vertex 3.2 1.3 0
    endloop
  endfacet
  facet normal 0 0 1
    outer loop
      vertex 3.2 1.3 0
      vertex 1.3 1.3 0
      vertex 3.2 0.6 0
    endloop
  endfacet
  facet normal 0 0 1
    outer loop
      vertex 4.5 10.4 0
      vertex 3.2 1.3 0
      vertex 4.5 1.3 0
    endloop
  endfacet
  facet normal 0 0 1
    outer loop
      vertex 3.2 10.4 0
      vertex 1.3 1.3 0
      vertex 4.5 10.4 0
    endloop
  endfacet
  facet normal 0 0 1
    outer loop
      vertex 3.2 11.1 0
      vertex 1.3 1.3 0
      vertex 3.2 10.4 0
    endloop
  endfacet
  facet normal 0 0 1
    outer loop
      vertex 1.3 10.4 0
      vertex 1.3 1.3 0
      vertex 3.2 11.1 0
    endloop
  endfacet
  facet normal 0 0 1
    outer loop
      vertex 0.6 10.4 0
      vertex 1.3 1.3 0
      vertex 1.3 10.4 0
    endloop
  endfacet
  facet normal 0 0 1
    outer loop
      vertex 1.3 11.1 0
      vertex 1.3 10.4 0
      vertex 3.2 11.1 0
    endloop
  endfacet
  facet normal 0 0 1
    outer loop
      vertex 0.6 1.3 0
      vertex 1.3 1.3 0
      vertex 0.6 10.4 0
    endloop
  endfacet
  facet normal 1 0 0
    outer loop
      vertex 1.3 1.3 10.7
      vertex 1.3 1.3 9.2
      vertex 1.3 10.4 9.2
    endloop
  endfacet
  facet normal 1 0 0
    outer loop
      vertex 1.3 10.4 10.7
      vertex 1.3 1.3 10.7
      vertex 1.3 10.4 9.2
    endloop
  endfacet
  facet normal 0 1 0
    outer loop
      vertex 4.5 1.3 10.7
      vertex 4.5 1.3 0
      vertex 3.2 1.3 10.7
    endloop
  endfacet
  facet normal 0 1 0
    outer loop
      vertex 3.2 1.3 10.7
      vertex 4.5 1.3 0
      vertex 3.2 1.3 0
    endloop
  endfacet
  facet normal 0 -1 0
    outer loop
      vertex 4.5 10.4 0
      vertex 4.5 10.4 10.7
      vertex 3.2 10.4 10.7
    endloop
  endfacet
  facet normal 0 -1 0
    outer loop
      vertex 3.2 10.4 0
      vertex 4.5 10.4 0
      vertex 3.2 10.4 10.7
    endloop
  endfacet
  facet normal 0 1 0
    outer loop
      vertex 1.3 0.6 0
      vertex 1.3 0.6 1.8
      vertex 3.2 0.6 0
    endloop
  endfacet
  facet normal 0 1 0
    outer loop
      vertex 3.2 0.6 0
      vertex 1.3 0.6 1.8
      vertex 3.2 0.6 1.8
    endloop
  endfacet
  facet normal 0 -1 0
    outer loop
      vertex 1.3 11.1 1.8
      vertex 1.3 11.1 0
      vertex 3.2 11.1 0
    endloop
  endfacet
  facet normal 0 -1 0
    outer loop
      vertex 3.2 11.1 1.8
      vertex 1.3 11.1 1.8
      vertex 3.2 11.1 0
    endloop
  endfacet
  facet normal -1 0 0
    outer loop
      vertex 4.5 3 -2.8
      vertex 4.5 3 -1.5
      vertex 4.5 8.7 -2.8
    endloop
  endfacet
  facet normal -1 0 0
    outer loop
      vertex 4.5 8.7 -2.8
      vertex 4.5 3 -1.5
      vertex 4.5 8.7 -1.5
    endloop
  endfacet
  facet normal 0 -1 0
    outer loop
      vertex 4.5 3 -1.5
      vertex 4.5 3 -2.8
      vertex 14.5 3 -2.8
    endloop
  endfacet
  facet normal 0 -1 0
    outer loop
      vertex 14.5 3 -1.5
      vertex 4.5 3 -1.5
      vertex 14.5 3 -2.8
    endloop
  endfacet
  facet normal 0 0 -1
    outer loop
      vertex 4.5 3 -2.8
      vertex 4.5 8.7 -2.8
      vertex 14.5 3 -2.8
    endloop
  endfacet
  facet normal 0 0 -1
    outer loop
      vertex 14.5 3 -2.8
      vertex 4.5 8.7 -2.8
      vertex 14.5 8.7 -2.8
    endloop
  endfacet
  facet normal 0 1 0
    outer loop
      vertex 4.5 8.7 -2.8
      vertex 4.5 8.7 -1.5
      vertex 14.5 8.7 -2.8
    endloop
  endfacet
  facet normal 0 1 0
    outer loop
      vertex 14.5 8.7 -2.8
      vertex 4.5 8.7 -1.5
      vertex 14.5 8.7 -1.5
    endloop
  endfacet
  facet normal 0 0 1
    outer loop
      vertex 9.07403 4.46418 -1.5
      vertex 4.5 3 -1.5
      vertex 14.5 3 -1.5
    endloop
  endfacet
  facet normal 0 0 1
    outer loop
      vertex 9.56066 6.91066 -1.5
      vertex 9.88582 6.42403 -1.5
      vertex 14.5 3 -1.5
    endloop
  endfacet
  facet normal 0 0 1
    outer loop
      vertex 4.5 8.7 -1.5
      vertex 4.5 3 -1.5
      vertex 7.11418 5.27597 -1.5
    endloop
  endfacet
  facet normal 0 0 1
    outer loop
      vertex 9.56066 4.78934 -1.5
      vertex 9.07403 4.46418 -1.5
      vertex 14.5 3 -1.5
    endloop
  endfacet
  facet normal 0 0 1
    outer loop
      vertex 4.5 8.7 -1.5
      vertex 7.11418 5.27597 -1.5
      vertex 7 5.85 -1.5
    endloop
  endfacet
  facet normal 0 0 1
    outer loop
      vertex 4.5 8.7 -1.5
      vertex 7 5.85 -1.5
      vertex 7.11418 6.42403 -1.5
    endloop
  endfacet
  facet normal 0 0 1
    outer loop
      vertex 9.88582 6.42403 -1.5
      vertex 10 5.85 -1.5
      vertex 14.5 3 -1.5
    endloop
  endfacet
  facet normal 0 0 1
    outer loop
      vertex 4.5 8.7 -1.5
      vertex 7.11418 6.42403 -1.5
      vertex 7.43934 6.91066 -1.5
    endloop
  endfacet
  facet normal 0 0 1
    outer loop
      vertex 10 5.85 -1.5
      vertex 9.88582 5.27597 -1.5
      vertex 14.5 3 -1.5
    endloop
  endfacet
  facet normal 0 0 1
    outer loop
      vertex 14.5 8.7 -1.5
      vertex 4.5 8.7 -1.5
      vertex 7.92597 7.23582 -1.5
    endloop
  endfacet
  facet normal 0 0 1
    outer loop
      vertex 9.88582 5.27597 -1.5
      vertex 9.56066 4.78934 -1.5
      vertex 14.5 3 -1.5
    endloop
  endfacet
  facet normal 0 0 1
    outer loop
      vertex 14.5 8.7 -1.5
      vertex 7.92597 7.23582 -1.5
      vertex 8.5 7.35 -1.5
    endloop
  endfacet
  facet normal 0 0 1
    outer loop
      vertex 14.5 8.7 -1.5
      vertex 8.5 7.35 -1.5
      vertex 9.07403 7.23582 -1.5
    endloop
  endfacet
  facet normal 0 0 1
    outer loop
      vertex 14.5 8.7 -1.5
      vertex 9.56066 6.91066 -1.5
      vertex 14.5 3 -1.5
    endloop
  endfacet
  facet normal 0 0 1
    outer loop
      vertex 14.5 8.7 -1.5
      vertex 9.07403 7.23582 -1.5
      vertex 9.56066 6.91066 -1.5
    endloop
  endfacet
  facet normal 0 0 1
    outer loop
      vertex 8.5 4.35 -1.5
      vertex 4.5 3 -1.5
      vertex 9.07403 4.46418 -1.5
    endloop
  endfacet
  facet normal 0 0 1
    outer loop
      vertex 7.92597 4.46418 -1.5
      vertex 4.5 3 -1.5
      vertex 8.5 4.35 -1.5
    endloop
  endfacet
  facet normal 0 0 1
    outer loop
      vertex 7.43934 4.78934 -1.5
      vertex 4.5 3 -1.5
      vertex 7.92597 4.46418 -1.5
    endloop
  endfacet
  facet normal 0 0 1
    outer loop
      vertex 7.11418 5.27597 -1.5
      vertex 4.5 3 -1.5
      vertex 7.43934 4.78934 -1.5
    endloop
  endfacet
  facet normal 0 0 1
    outer loop
      vertex 7.43934 6.91066 -1.5
      vertex 7.92597 7.23582 -1.5
      vertex 4.5 8.7 -1.5
    endloop
  endfacet
  facet normal 1 0 0
    outer loop
      vertex 14.5 3 -1.5
      vertex 14.5 3 -2.8
      vertex 14.5 8.7 -2.8
    endloop
  endfacet
  facet normal 1 0 0
    outer loop
      vertex 14.5 8.7 -1.5
      vertex 14.5 3 -1.5
      vertex 14.5 8.7 -2.8
    endloop
  endfacet
  facet normal -0.980785 -0.19509 0
    outer loop
      vertex 7 5.85 -1.5
      vertex 7.11418 5.27597 -1.5
      vertex 7 5.85 1e-07
    endloop
  endfacet
  facet normal -0.980785 -0.19509 0
    outer loop
      vertex 7 5.85 1e-07
      vertex 7.11418 5.27597 -1.5
      vertex 7.11418 5.27597 1e-07
    endloop
  endfacet
  facet normal -0.83147 -0.55557 0
    outer loop
      vertex 7.11418 5.27597 -1.5
      vertex 7.43934 4.78934 -1.5
      vertex 7.11418 5.27597 1e-07
    endloop
  endfacet
  facet normal -0.83147 -0.55557 0
    outer loop
      vertex 7.11418 5.27597 1e-07
      vertex 7.43934 4.78934 -1.5
      vertex 7.43934 4.78934 1e-07
    endloop
  endfacet
  facet normal -0.55557 -0.83147 0
    outer loop
      vertex 7.43934 4.78934 1e-07
      vertex 7.43934 4.78934 -1.5
      vertex 7.92597 4.46418 -1.5
    endloop
  endfacet
  facet normal -0.55557 -0.83147 0
    outer loop
      vertex 7.92597 4.46418 1e-07
      vertex 7.43934 4.78934 1e-07
      vertex 7.92597 4.46418 -1.5
    endloop
  endfacet
  facet normal -0.19509 -0.980785 0
    outer loop
      vertex 7.92597 4.46418 1e-07
      vertex 7.92597 4.46418 -1.5
      vertex 8.5 4.35 -1.5
    endloop
  endfacet
  facet normal -0.19509 -0.980785 0
    outer loop
      vertex 8.5 4.35 1e-07
      vertex 7.92597 4.46418 1e-07
      vertex 8.5 4.35 -1.5
    endloop
  endfacet
  facet normal 0.19509 -0.980785 0
    outer loop
      vertex 8.5 4.35 1e-07
      vertex 8.5 4.35 -1.5
      vertex 9.07403 4.46418 -1.5
    endloop
  endfacet
  facet normal 0.19509 -0.980785 0
    outer loop
      vertex 9.07403 4.46418 1e-07
      vertex 8.5 4.35 1e-07
      vertex 9.07403 4.46418 -1.5
    endloop
  endfacet
  facet normal 0.55557 -0.83147 0
    outer loop
      vertex 9.07403 4.46418 1e-07
      vertex 9.07403 4.46418 -1.5
      vertex 9.56066 4.78934 -1.5
    endloop
  endfacet
  facet normal 0.55557 -0.83147 0
    outer loop
      vertex 9.56066 4.78934 1e-07
      vertex 9.07403 4.46418 1e-07
      vertex 9.56066 4.78934 -1.5
    endloop
  endfacet
  facet normal 0.83147 -0.55557 0
    outer loop
      vertex 9.56066 4.78934 1e-07
      vertex 9.56066 4.78934 -1.5
      vertex 9.88582 5.27597 -1.5
    endloop
  endfacet
  facet normal 0.83147 -0.55557 0
    outer loop
      vertex 9.88582 5.27597 1e-07
      vertex 9.56066 4.78934 1e-07
      vertex 9.88582 5.27597 -1.5
    endloop
  endfacet
  facet normal 0.980785 -0.19509 0
    outer loop
      vertex 9.88582 5.27597 1e-07
      vertex 9.88582 5.27597 -1.5
      vertex 10 5.85 -1.5
    endloop
  endfacet
  facet normal 0.980785 -0.19509 0
    outer loop
      vertex 10 5.85 1e-07
      vertex 9.88582 5.27597 1e-07
      vertex 10 5.85 -1.5
    endloop
  endfacet
  facet normal 0.980785 0.19509 0
    outer loop
      vertex 10 5.85 -1.5
      vertex 9.88582 6.42403 -1.5
      vertex 9.88582 6.42403 1e-07
    endloop
  endfacet
  facet normal 0.980785 0.19509 0
    outer loop
      vertex 10 5.85 1e-07
      vertex 10 5.85 -1.5
      vertex 9.88582 6.42403 1e-07
    endloop
  endfacet
  facet normal 0.83147 0.55557 0
    outer loop
      vertex 9.88582 6.42403 -1.5
      vertex 9.56066 6.91066 -1.5
      vertex 9.56066 6.91066 1e-07
    endloop
  endfacet
  facet normal 0.83147 0.55557 0
    outer loop
      vertex 9.88582 6.42403 1e-07
      vertex 9.88582 6.42403 -1.5
      vertex 9.56066 6.91066 1e-07
    endloop
  endfacet
  facet normal 0.55557 0.83147 0
    outer loop
      vertex 9.07403 7.23582 -1.5
      vertex 9.07403 7.23582 1e-07
      vertex 9.56066 6.91066 -1.5
    endloop
  endfacet
  facet normal 0.55557 0.83147 0
    outer loop
      vertex 9.56066 6.91066 -1.5
      vertex 9.07403 7.23582 1e-07
      vertex 9.56066 6.91066 1e-07
    endloop
  endfacet
  facet normal 0.19509 0.980785 0
    outer loop
      vertex 8.5 7.35 -1.5
      vertex 8.5 7.35 1e-07
      vertex 9.07403 7.23582 -1.5
    endloop
  endfacet
  facet normal 0.19509 0.980785 0
    outer loop
      vertex 9.07403 7.23582 -1.5
      vertex 8.5 7.35 1e-07
      vertex 9.07403 7.23582 1e-07
    endloop
  endfacet
  facet normal -0.19509 0.980785 0
    outer loop
      vertex 7.92597 7.23582 -1.5
      vertex 7.92597 7.23582 1e-07
      vertex 8.5 7.35 -1.5
    endloop
  endfacet
  facet normal -0.19509 0.980785 0
    outer loop
      vertex 8.5 7.35 -1.5
      vertex 7.92597 7.23582 1e-07
      vertex 8.5 7.35 1e-07
    endloop
  endfacet
  facet normal -0.55557 0.83147 0
    outer loop
      vertex 7.43934 6.91066 -1.5
      vertex 7.43934 6.91066 1e-07
      vertex 7.92597 7.23582 -1.5
    endloop
  endfacet
  facet normal -0.55557 0.83147 0
    outer loop
      vertex 7.92597 7.23582 -1.5
      vertex 7.43934 6.91066 1e-07
      vertex 7.92597 7.23582 1e-07
    endloop
  endfacet
  facet normal -0.83147 0.55557 0
    outer loop
      vertex 7.11418 6.42403 -1.5
      vertex 7.11418 6.42403 1e-07
      vertex 7.43934 6.91066 -1.5
    endloop
  endfacet
  facet normal -0.83147 0.55557 0
    outer loop
      vertex 7.43934 6.91066 -1.5
      vertex 7.11418 6.42403 1e-07
      vertex 7.43934 6.91066 1e-07
    endloop
  endfacet
  facet normal -0.980785 0.19509 0
    outer loop
      vertex 7 5.85 -1.5
      vertex 7 5.85 1e-07
      vertex 7.11418 6.42403 -1.5
    endloop
  endfacet
  facet normal -0.980785 0.19509 0
    outer loop
      vertex 7.11418 6.42403 -1.5
      vertex 7 5.85 1e-07
      vertex 7.11418 6.42403 1e-07
    endloop
  endfacet
  facet normal 0 0 1
    outer loop
      vertex 7.11418 6.42403 1e-07
      vertex 7 5.85 1e-07
      vertex 7.11418 5.27597 1e-07
    endloop
  endfacet
  facet normal 0 0 1
    outer loop
      vertex 7.92597 4.46418 1e-07
      vertex 7.11418 6.42403 1e-07
      vertex 7.43934 4.78934 1e-07
    endloop
  endfacet
  facet normal 0 0 1
    outer loop
      vertex 7.43934 4.78934 1e-07
      vertex 7.11418 6.42403 1e-07
      vertex 7.11418 5.27597 1e-07
    endloop
  endfacet
  facet normal 0 0 1
    outer loop
      vertex 8.5 4.35 1e-07
      vertex 7.11418 6.42403 1e-07
      vertex 7.92597 4.46418 1e-07
    endloop
  endfacet
  facet normal 0 0 1
    outer loop
      vertex 9.07403 4.46418 1e-07
      vertex 7.11418 6.42403 1e-07
      vertex 8.5 4.35 1e-07
    endloop
  endfacet
  facet normal 0 0 1
    outer loop
      vertex 9.56066 4.78934 1e-07
      vertex 7.11418 6.42403 1e-07
      vertex 9.07403 4.46418 1e-07
    endloop
  endfacet
  facet normal 0 0 1
    outer loop
      vertex 9.88582 5.27597 1e-07
      vertex 7.11418 6.42403 1e-07
      vertex 9.56066 4.78934 1e-07
    endloop
  endfacet
  facet normal 0 0 1
    outer loop
      vertex 10 5.85 1e-07
      vertex 7.11418 6.42403 1e-07
      vertex 9.88582 5.27597 1e-07
    endloop
  endfacet
  facet normal 0 0 1
    outer loop
      vertex 9.88582 6.42403 1e-07
      vertex 7.11418 6.42403 1e-07
      vertex 10 5.85 1e-07
    endloop
  endfacet
  facet normal 0 0 1
    outer loop
      vertex 9.56066 6.91066 1e-07
      vertex 7.11418 6.42403 1e-07
      vertex 9.88582 6.42403 1e-07
    endloop
  endfacet
  facet normal 0 0 1
    outer loop
      vertex 9.07403 7.23582 1e-07
      vertex 7.11418 6.42403 1e-07
      vertex 9.56066 6.91066 1e-07
    endloop
  endfacet
  facet normal 0 0 1
    outer loop
      vertex 8.5 7.35 1e-07
      vertex 7.11418 6.42403 1e-07
      vertex 9.07403 7.23582 1e-07
    endloop
  endfacet
  facet normal 0 0 1
    outer loop
      vertex 7.92597 7.23582 1e-07
      vertex 7.11418 6.42403 1e-07
      vertex 8.5 7.35 1e-07
    endloop
  endfacet
  facet normal 0 0 1
    outer loop
      vertex 7.43934 6.91066 1e-07
      vertex 7.11418 6.42403 1e-07
      vertex 7.92597 7.23582 1e-07
    endloop
  endfacet
  facet normal -1 0 0
    outer loop
      vertex 0 0 12
      vertex 0 0 13.8
      vertex 0 0.6 12
    endloop
  endfacet
  facet normal -1 0 0
    outer loop
      vertex 0 0.6 12
      vertex 0 0 13.8
      vertex 0 0.6 13.8
    endloop
  endfacet
  facet normal 0 -1 0
    outer loop
      vertex 0 0 13.8
      vertex 0 0 12
      vertex 4.5 0 12
    endloop
  endfacet
  facet normal 0 -1 0
    outer loop
      vertex 4.5 0 13.8
      vertex 0 0 13.8
      vertex 4.5 0 12
    endloop
  endfacet
  facet normal 0 0 -1
    outer loop
      vertex 0 0 12
      vertex 0 0.6 12
      vertex 4.5 0 12
    endloop
  endfacet
  facet normal 0 0 -1
    outer loop
      vertex 4.5 0 12
      vertex 0 0.6 12
      vertex 3.9 0.6 12
    endloop
  endfacet
  facet normal 0 0 -1
    outer loop
      vertex 4.5 0 12
      vertex 3.9 0.6 12
      vertex 3.9 11.1 12
    endloop
  endfacet
  facet normal 0 0 -1
    outer loop
      vertex 3.9 11.1 12
      vertex 0 11.1 12
      vertex 0 11.7 12
    endloop
  endfacet
  facet normal 0 0 -1
    outer loop
      vertex 3.9 11.1 12
      vertex 0 11.7 12
      vertex 4.5 11.7 12
    endloop
  endfacet
  facet normal 0 0 -1
    outer loop
      vertex 3.9 11.1 12
      vertex 4.5 11.7 12
      vertex 4.5 0 12
    endloop
  endfacet
  facet normal 0 1 0
    outer loop
      vertex 0 0.6 12
      vertex 0 0.6 13.8
      vertex 3.9 0.6 12
    endloop
  endfacet
  facet normal 0 1 0
    outer loop
      vertex 3.9 0.6 12
      vertex 0 0.6 13.8
      vertex 3.9 0.6 13.8
    endloop
  endfacet
  facet normal 0 0 1
    outer loop
      vertex 0 0.6 13.8
      vertex 0 0 13.8
      vertex 4.5 0 13.8
    endloop
  endfacet
  facet normal 0 0 1
    outer loop
      vertex 3.9 0.6 13.8
      vertex 0 0.6 13.8
      vertex 4.5 0 13.8
    endloop
  endfacet
  facet normal 0 0 1
    outer loop
      vertex 0 11.7 13.8
      vertex 0 11.1 13.8
      vertex 4.5 11.7 13.8
    endloop
  endfacet
  facet normal 0 0 1
    outer loop
      vertex 0 11.1 13.8
      vertex 3.9 11.1 13.8
      vertex 4.5 11.7 13.8
    endloop
  endfacet
  facet normal 0 0 1
    outer loop
      vertex 4.5 11.7 13.8
      vertex 3.9 0.6 13.8
      vertex 4.5 0 13.8
    endloop
  endfacet
  facet normal 0 0 1
    outer loop
      vertex 3.9 11.1 13.8
      vertex 3.9 0.6 13.8
      vertex 4.5 11.7 13.8
    endloop
  endfacet
  facet normal 1 0 0
    outer loop
      vertex 4.5 0 13.8
      vertex 4.5 0 12
      vertex 4.5 11.7 12
    endloop
  endfacet
  facet normal 1 0 0
    outer loop
      vertex 4.5 11.7 13.8
      vertex 4.5 0 13.8
      vertex 4.5 11.7 12
    endloop
  endfacet
  facet normal 0 1 0
    outer loop
      vertex 0 11.7 12
      vertex 0 11.7 13.8
      vertex 4.5 11.7 12
    endloop
  endfacet
  facet normal 0 1 0
    outer loop
      vertex 4.5 11.7 12
      vertex 0 11.7 13.8
      vertex 4.5 11.7 13.8
    endloop
  endfacet
  facet normal -1 0 0
    outer loop
      vertex 0 11.1 12
      vertex 0 11.1 13.8
      vertex 0 11.7 12
    endloop
  endfacet
  facet normal -1 0 0
    outer loop
      vertex 0 11.7 12
      vertex 0 11.1 13.8
      vertex 0 11.7 13.8
    endloop
  endfacet
  facet normal 0 -1 0
    outer loop
      vertex 0 11.1 13.8
      vertex 0 11.1 12
      vertex 3.9 11.1 12
    endloop
  endfacet
  facet normal 0 -1 0
    outer loop
      vertex 3.9 11.1 13.8
      vertex 0 11.1 13.8
      vertex 3.9 11.1 12
    endloop
  endfacet
  facet normal -1 0 0
    outer loop
      vertex 3.9 0.6 12
      vertex 3.9 0.6 13.8
      vertex 3.9 11.1 12
    endloop
  endfacet
  facet normal -1 0 0
    outer loop
      vertex 3.9 11.1 12
      vertex 3.9 0.6 13.8
      vertex 3.9 11.1 13.8
    endloop
  endfacet
  facet normal -1 0 0
    outer loop
      vertex -10 3 9.2
      vertex -10 3 10.5
      vertex -10 8.7 9.2
    endloop
  endfacet
  facet normal -1 0 0
    outer loop
      vertex -10 8.7 9.2
      vertex -10 3 10.5
      vertex -10 8.7 10.5
    endloop
  endfacet
  facet normal 0 -1 0
    outer loop
      vertex -10 3 10.5
      vertex -10 3 9.2
      vertex -1e-07 3 9.2
    endloop
  endfacet
  facet normal 0 -1 0
    outer loop
      vertex -1e-07 3 10.5
      vertex -10 3 10.5
      vertex -1e-07 3 9.2
    endloop
  endfacet
  facet normal 0 0 -1
    outer loop
      vertex -10 3 9.2
      vertex -10 8.7 9.2
      vertex -1e-07 3 9.2
    endloop
  endfacet
  facet normal 0 0 -1
    outer loop
      vertex -1e-07 3 9.2
      vertex -10 8.7 9.2
      vertex -1e-07 8.7 9.2
    endloop
  endfacet
  facet normal 0 1 0
    outer loop
      vertex -10 8.7 9.2
      vertex -10 8.7 10.5
      vertex -1e-07 8.7 9.2
    endloop
  endfacet
  facet normal 0 1 0
    outer loop
      vertex -1e-07 8.7 9.2
      vertex -10 8.7 10.5
      vertex -1e-07 8.7 10.5
    endloop
  endfacet
  facet normal 0 0 1
    outer loop
      vertex -4 4.35 10.5
      vertex -10 3 10.5
      vertex -1e-07 3 10.5
    endloop
  endfacet
  facet normal 0 0 1
    outer loop
      vertex -10 8.7 10.5
      vertex -10 3 10.5
      vertex -5.38582 5.27597 10.5
    endloop
  endfacet
  facet normal 0 0 1
    outer loop
      vertex -4 7.35 10.5
      vertex -3.42597 7.23582 10.5
      vertex -1e-07 8.7 10.5
    endloop
  endfacet
  facet normal 0 0 1
    outer loop
      vertex -10 8.7 10.5
      vertex -5.38582 5.27597 10.5
      vertex -5.5 5.85 10.5
    endloop
  endfacet
  facet normal 0 0 1
    outer loop
      vertex -2.93934 4.78934 10.5
      vertex -3.42597 4.46418 10.5
      vertex -1e-07 3 10.5
    endloop
  endfacet
  facet normal 0 0 1
    outer loop
      vertex -5.06066 6.91066 10.5
      vertex -10 8.7 10.5
      vertex -5.38582 6.42403 10.5
    endloop
  endfacet
  facet normal 0 0 1
    outer loop
      vertex -2.61418 6.42403 10.5
      vertex -2.5 5.85 10.5
      vertex -1e-07 3 10.5
    endloop
  endfacet
  facet normal 0 0 1
    outer loop
      vertex -4.57403 7.23582 10.5
      vertex -10 8.7 10.5
      vertex -5.06066 6.91066 10.5
    endloop
  endfacet
  facet normal 0 0 1
    outer loop
      vertex -1e-07 8.7 10.5
      vertex -10 8.7 10.5
      vertex -4.57403 7.23582 10.5
    endloop
  endfacet
  facet normal 0 0 1
    outer loop
      vertex -1e-07 8.7 10.5
      vertex -4.57403 7.23582 10.5
      vertex -4 7.35 10.5
    endloop
  endfacet
  facet normal 0 0 1
    outer loop
      vertex -2.61418 5.27597 10.5
      vertex -2.93934 4.78934 10.5
      vertex -1e-07 3 10.5
    endloop
  endfacet
  facet normal 0 0 1
    outer loop
      vertex -1e-07 8.7 10.5
      vertex -2.93934 6.91066 10.5
      vertex -1e-07 3 10.5
    endloop
  endfacet
  facet normal 0 0 1
    outer loop
      vertex -1e-07 8.7 10.5
      vertex -3.42597 7.23582 10.5
      vertex -2.93934 6.91066 10.5
    endloop
  endfacet
  facet normal 0 0 1
    outer loop
      vertex -2.93934 6.91066 10.5
      vertex -2.61418 6.42403 10.5
      vertex -1e-07 3 10.5
    endloop
  endfacet
  facet normal 0 0 1
    outer loop
      vertex -2.5 5.85 10.5
      vertex -2.61418 5.27597 10.5
      vertex -1e-07 3 10.5
    endloop
  endfacet
  facet normal 0 0 1
    outer loop
      vertex -4.57403 4.46418 10.5
      vertex -10 3 10.5
      vertex -4 4.35 10.5
    endloop
  endfacet
  facet normal 0 0 1
    outer loop
      vertex -5.06066 4.78934 10.5
      vertex -10 3 10.5
      vertex -4.57403 4.46418 10.5
    endloop
  endfacet
  facet normal 0 0 1
    outer loop
      vertex -5.38582 5.27597 10.5
      vertex -10 3 10.5
      vertex -5.06066 4.78934 10.5
    endloop
  endfacet
  facet normal 0 0 1
    outer loop
      vertex -3.42597 4.46418 10.5
      vertex -4 4.35 10.5
      vertex -1e-07 3 10.5
    endloop
  endfacet
  facet normal 0 0 1
    outer loop
      vertex -5.5 5.85 10.5
      vertex -5.38582 6.42403 10.5
      vertex -10 8.7 10.5
    endloop
  endfacet
  facet normal 1 0 0
    outer loop
      vertex -1e-07 3 10.5
      vertex -1e-07 3 9.2
      vertex -1e-07 8.7 9.2
    endloop
  endfacet
  facet normal 1 0 0
    outer loop
      vertex -1e-07 8.7 10.5
      vertex -1e-07 3 10.5
      vertex -1e-07 8.7 9.2
    endloop
  endfacet
  facet normal -0.980785 -0.19509 0
    outer loop
      vertex -5.5 5.85 10.5
      vertex -5.38582 5.27597 10.5
      vertex -5.5 5.85 12
    endloop
  endfacet
  facet normal -0.980785 -0.19509 0
    outer loop
      vertex -5.5 5.85 12
      vertex -5.38582 5.27597 10.5
      vertex -5.38582 5.27597 12
    endloop
  endfacet
  facet normal -0.83147 -0.55557 0
    outer loop
      vertex -5.38582 5.27597 10.5
      vertex -5.06066 4.78934 10.5
      vertex -5.38582 5.27597 12
    endloop
  endfacet
  facet normal -0.83147 -0.55557 0
    outer loop
      vertex -5.38582 5.27597 12
      vertex -5.06066 4.78934 10.5
      vertex -5.06066 4.78934 12
    endloop
  endfacet
  facet normal -0.55557 -0.83147 0
    outer loop
      vertex -5.06066 4.78934 12
      vertex -5.06066 4.78934 10.5
      vertex -4.57403 4.46418 10.5
    endloop
  endfacet
  facet normal -0.55557 -0.83147 0
    outer loop
      vertex -4.57403 4.46418 12
      vertex -5.06066 4.78934 12
      vertex -4.57403 4.46418 10.5
    endloop
  endfacet
  facet normal -0.19509 -0.980785 0
    outer loop
      vertex -4.57403 4.46418 12
      vertex -4.57403 4.46418 10.5
      vertex -4 4.35 10.5
    endloop
  endfacet
  facet normal -0.19509 -0.980785 0
    outer loop
      vertex -4 4.35 12
      vertex -4.57403 4.46418 12
      vertex -4 4.35 10.5
    endloop
  endfacet
  facet normal 0.19509 -0.980785 0
    outer loop
      vertex -4 4.35 12
      vertex -4 4.35 10.5
      vertex -3.42597 4.46418 10.5
    endloop
  endfacet
  facet normal 0.19509 -0.980785 0
    outer loop
      vertex -3.42597 4.46418 12
      vertex -4 4.35 12
      vertex -3.42597 4.46418 10.5
    endloop
  endfacet
  facet normal 0.55557 -0.83147 0
    outer loop
      vertex -3.42597 4.46418 12
      vertex -3.42597 4.46418 10.5
      vertex -2.93934 4.78934 10.5
    endloop
  endfacet
  facet normal 0.55557 -0.83147 0
    outer loop
      vertex -2.93934 4.78934 12
      vertex -3.42597 4.46418 12
      vertex -2.93934 4.78934 10.5
    endloop
  endfacet
  facet normal 0.83147 -0.55557 0
    outer loop
      vertex -2.93934 4.78934 12
      vertex -2.93934 4.78934 10.5
      vertex -2.61418 5.27597 10.5
    endloop
  endfacet
  facet normal 0.83147 -0.55557 0
    outer loop
      vertex -2.61418 5.27597 12
      vertex -2.93934 4.78934 12
      vertex -2.61418 5.27597 10.5
    endloop
  endfacet
  facet normal 0.980785 -0.19509 0
    outer loop
      vertex -2.61418 5.27597 12
      vertex -2.61418 5.27597 10.5
      vertex -2.5 5.85 10.5
    endloop
  endfacet
  facet normal 0.980785 -0.19509 0
    outer loop
      vertex -2.5 5.85 12
      vertex -2.61418 5.27597 12
      vertex -2.5 5.85 10.5
    endloop
  endfacet
  facet normal 0.980785 0.19509 0
    outer loop
      vertex -2.5 5.85 10.5
      vertex -2.61418 6.42403 10.5
      vertex -2.61418 6.42403 12
    endloop
  endfacet
  facet normal 0.980785 0.19509 0
    outer loop
      vertex -2.5 5.85 12
      vertex -2.5 5.85 10.5
      vertex -2.61418 6.42403 12
    endloop
  endfacet
  facet normal 0.83147 0.55557 0
    outer loop
      vertex -2.61418 6.42403 10.5
      vertex -2.93934 6.91066 10.5
      vertex -2.93934 6.91066 12
    endloop
  endfacet
  facet normal 0.83147 0.55557 0
    outer loop
      vertex -2.61418 6.42403 12
      vertex -2.61418 6.42403 10.5
      vertex -2.93934 6.91066 12
    endloop
  endfacet
  facet normal 0.55557 0.83147 0
    outer loop
      vertex -3.42597 7.23582 10.5
      vertex -3.42597 7.23582 12
      vertex -2.93934 6.91066 10.5
    endloop
  endfacet
  facet normal 0.55557 0.83147 0
    outer loop
      vertex -2.93934 6.91066 10.5
      vertex -3.42597 7.23582 12
      vertex -2.93934 6.91066 12
    endloop
  endfacet
  facet normal 0.19509 0.980785 0
    outer loop
      vertex -4 7.35 10.5
      vertex -4 7.35 12
      vertex -3.42597 7.23582 10.5
    endloop
  endfacet
  facet normal 0.19509 0.980785 0
    outer loop
      vertex -3.42597 7.23582 10.5
      vertex -4 7.35 12
      vertex -3.42597 7.23582 12
    endloop
  endfacet
  facet normal -0.19509 0.980785 0
    outer loop
      vertex -4.57403 7.23582 10.5
      vertex -4.57403 7.23582 12
      vertex -4 7.35 10.5
    endloop
  endfacet
  facet normal -0.19509 0.980785 0
    outer loop
      vertex -4 7.35 10.5
      vertex -4.57403 7.23582 12
      vertex -4 7.35 12
    endloop
  endfacet
  facet normal -0.55557 0.83147 0
    outer loop
      vertex -5.06066 6.91066 10.5
      vertex -5.06066 6.91066 12
      vertex -4.57403 7.23582 10.5
    endloop
  endfacet
  facet normal -0.55557 0.83147 0
    outer loop
      vertex -4.57403 7.23582 10.5
      vertex -5.06066 6.91066 12
      vertex -4.57403 7.23582 12
    endloop
  endfacet
  facet normal -0.83147 0.55557 0
    outer loop
      vertex -5.38582 6.42403 10.5
      vertex -5.38582 6.42403 12
      vertex -5.06066 6.91066 10.5
    endloop
  endfacet
  facet normal -0.83147 0.55557 0
    outer loop
      vertex -5.06066 6.91066 10.5
      vertex -5.38582 6.42403 12
      vertex -5.06066 6.91066 12
    endloop
  endfacet
  facet normal -0.980785 0.19509 0
    outer loop
      vertex -5.5 5.85 10.5
      vertex -5.5 5.85 12
      vertex -5.38582 6.42403 10.5
    endloop
  endfacet
  facet normal -0.980785 0.19509 0
    outer loop
      vertex -5.38582 6.42403 10.5
      vertex -5.5 5.85 12
      vertex -5.38582 6.42403 12
    endloop
  endfacet
  facet normal 0 0 1
    outer loop
      vertex -5.38582 6.42403 12
      vertex -5.5 5.85 12
      vertex -5.38582 5.27597 12
    endloop
  endfacet
  facet normal 0 0 1
    outer loop
      vertex -4.57403 4.46418 12
      vertex -5.38582 6.42403 12
      vertex -5.06066 4.78934 12
    endloop
  endfacet
  facet normal 0 0 1
    outer loop
      vertex -5.06066 4.78934 12
      vertex -5.38582 6.42403 12
      vertex -5.38582 5.27597 12
    endloop
  endfacet
  facet normal 0 0 1
    outer loop
      vertex -4 4.35 12
      vertex -5.38582 6.42403 12
      vertex -4.57403 4.46418 12
    endloop
  endfacet
  facet normal 0 0 1
    outer loop
      vertex -3.42597 4.46418 12
      vertex -5.38582 6.42403 12
      vertex -4 4.35 12
    endloop
  endfacet
  facet normal 0 0 1
    outer loop
      vertex -2.93934 4.78934 12
      vertex -5.38582 6.42403 12
      vertex -3.42597 4.46418 12
    endloop
  endfacet
  facet normal 0 0 1
    outer loop
      vertex -2.61418 5.27597 12
      vertex -5.38582 6.42403 12
      vertex -2.93934 4.78934 12
    endloop
  endfacet
  facet normal 0 0 1
    outer loop
      vertex -2.5 5.85 12
      vertex -5.38582 6.42403 12
      vertex -2.61418 5.27597 12
    endloop
  endfacet
  facet normal 0 0 1
    outer loop
      vertex -2.61418 6.42403 12
      vertex -5.38582 6.42403 12
      vertex -2.5 5.85 12
    endloop
  endfacet
  facet normal 0 0 1
    outer loop
      vertex -2.93934 6.91066 12
      vertex -5.38582 6.42403 12
      vertex -2.61418 6.42403 12
    endloop
  endfacet
  facet normal 0 0 1
    outer loop
      vertex -3.42597 7.23582 12
      vertex -5.38582 6.42403 12
      vertex -2.93934 6.91066 12
    endloop
  endfacet
  facet normal 0 0 1
    outer loop
      vertex -4 7.35 12
      vertex -5.38582 6.42403 12
      vertex -3.42597 7.23582 12
    endloop
  endfacet
  facet normal 0 0 1
    outer loop
      vertex -4.57403 7.23582 12
      vertex -5.38582 6.42403 12
      vertex -4 7.35 12
    endloop
  endfacet
  facet normal 0 0 1
    outer loop
      vertex -5.06066 6.91066 12
      vertex -5.38582 6.42403 12
      vertex -4.57403 7.23582 12
    endloop
  endfacet
endsolid OpenSCAD_Model
