<?xml version="1.0" encoding="utf-8"?>
<!DOCTYPE svg PUBLIC "-//W3C//DTD SVG 1.1//EN" "http://www.w3.org/Graphics/SVG/1.1/DTD/svg11.dtd">
<svg version="1.1" id="Layer_1" xmlns="http://www.w3.org/2000/svg" xmlns:xlink="http://www.w3.org/1999/xlink" x="0px" y="0px"
   width="870.803149606" height="1154.834645669" viewBox="0 0 870.803149606 1154.834645669" enable-background="new 0 0 870.803149606 1154.834645669"
   xml:space="preserve">
   <rect x="0" y="0" fill="#FFFFFF" stroke="none" stroke-miterlimit="10" width="870.803149606" height="1154.834645669"/>
   <g transform="matrix(.850393701 0 0 .850393701 0 0)"><g id="Floor"><polygon fill="#1CB8E8" stroke="none" stroke-miterlimit="10" points="636,1295,636,1306,638,1308,647,1309,645,1311,645,1326,652,1331,639,1332,636,1335,636,1351,638,1353,646,1354,936,1354,938,1352,938,1340,932,1336,933,1333,968,1332,971,1328,971,1314,966,1310,852,1310,850,1312,844,1310,788,1310,784,1312,772,1310,678,1310,678,1308,708,1307,710,1304,710,1292,707,1287,641,1287"/><polygon fill="#1CB8E8" stroke="none" stroke-miterlimit="10" points="126,1295,126,1306,128,1308,149,1307,159,1310,154,1315,151,1315,147,1310,130,1310,128,1312,129,1331,127,1333,127,1351,129,1353,192,1353,199,1355,213,1355,215,1353,241,1354,243,1352,243,1343,238,1337,238,1332,236,1330,237,1328,242,1333,250,1334,250,1347,258,1353,385,1354,389,1351,392,1353,442,1354,450,1353,459,1347,459,1338,452,1332,427,1330,431,1327,431,1318,426,1314,424,1310,403,1309,400,1311,395,1309,384,1309,381,1311,353,1311,351,1309,342,1309,339,1312,335,1312,330,1308,319,1308,313,1311,298,1311,295,1314,276,1315,272,1312,262,1312,259,1310,242,1310,237,1315,233,1310,216,1310,212,1314,203,1314,200,1310,174,1312,167,1309,198,1307,200,1304,200,1292,197,1287,131,1287"/><polygon fill="#1CB8E8" stroke="none" stroke-miterlimit="10" points="521,1286,521,1356,632,1356,632,1286,630,1284,523,1284"/><polygon fill="#1CB8E8" stroke="none" stroke-miterlimit="10" points="11,1286,11,1356,122,1356,122,1286,120,1284,13,1284"/><polygon fill="#1CB8E8" stroke="none" stroke-miterlimit="10" points="636,1170,636,1181,638,1183,666,1182,673,1184,640,1185,637,1187,636,1204,639,1207,637,1209,637,1218,641,1222,642,1226,638,1229,638,1247,640,1249,671,1250,675,1245,678,1245,684,1250,790,1250,792,1248,792,1236,780,1228,787,1224,790,1224,794,1229,804,1229,808,1227,810,1229,820,1230,860,1230,862,1228,865,1230,893,1230,903,1229,909,1224,915,1224,919,1228,927,1229,987,1229,993,1224,995,1220,995,1209,985,1204,985,1195,983,1192,983,1187,981,1185,965,1185,961,1190,946,1189,942,1185,917,1186,914,1184,903,1184,900,1186,896,1186,893,1184,762,1184,760,1186,760,1201,765,1204,756,1207,756,1188,754,1186,684,1184,715,1182,717,1179,717,1167,714,1162,641,1162"/><polygon fill="#1CB8E8" stroke="none" stroke-miterlimit="10" points="126,1169,126,1180,128,1182,135,1182,141,1184,130,1185,126,1189,126,1204,128,1206,126,1213,126,1226,130,1229,320,1229,322,1227,322,1215,314,1209,316,1207,361,1207,397,1209,399,1207,452,1207,455,1203,455,1189,450,1185,430,1185,425,1194,422,1191,422,1186,420,1184,403,1184,398,1190,392,1188,372,1188,368,1185,351,1185,348,1187,344,1185,299,1185,296,1187,293,1185,268,1184,266,1186,266,1201,271,1205,266,1208,264,1206,264,1189,261,1186,251,1186,248,1188,234,1188,230,1185,220,1185,216,1188,203,1188,199,1185,184,1185,180,1188,152,1188,150,1186,151,1185,156,1185,160,1182,169,1184,209,1183,213,1179,213,1167,210,1162,156,1162,153,1164,145,1164,142,1162,130,1162"/><polygon fill="#1CB8E8" stroke="none" stroke-miterlimit="10" points="523,1159,521,1161,521,1268,523,1270,630,1270,632,1268,632,1161,630,1159"/><polygon fill="#1CB8E8" stroke="none" stroke-miterlimit="10" points="13,1159,11,1161,11,1268,13,1270,120,1270,122,1268,122,1161,120,1159"/><polygon fill="#1CB8E8" stroke="none" stroke-miterlimit="10" points="636,1044,636,1055,638,1057,645,1057,647,1059,645,1061,645,1076,650,1079,644,1080,637,1084,637,1094,642,1104,664,1104,666,1102,666,1090,660,1086,660,1082,702,1082,704,1080,708,1083,785,1082,800,1084,826,1084,829,1082,842,1084,883,1084,920,1082,970,1083,976,1080,975,1063,970,1059,959,1059,955,1062,952,1060,942,1061,940,1059,930,1059,927,1061,916,1061,913,1059,843,1059,830,1060,827,1064,824,1064,820,1059,802,1059,799,1063,799,1066,796,1067,790,1061,775,1061,772,1059,762,1059,759,1061,691,1060,691,1058,721,1057,723,1054,723,1042,720,1037,666,1037,663,1039,655,1039,652,1037,640,1037"/><polygon fill="#1CB8E8" stroke="none" stroke-miterlimit="10" points="126,1039,126,1055,129,1058,140,1059,128,1061,126,1067,126,1080,136,1085,148,1085,152,1082,263,1083,266,1081,268,1083,279,1083,285,1078,290,1078,294,1082,320,1084,342,1084,345,1082,417,1083,419,1081,419,1069,415,1067,413,1063,408,1059,382,1059,378,1062,375,1060,365,1061,363,1059,353,1059,350,1061,345,1061,342,1059,295,1060,290,1065,286,1058,276,1058,271,1061,266,1061,264,1063,263,1069,258,1066,258,1063,256,1061,250,1060,204,1062,200,1060,177,1060,174,1063,162,1063,154,1059,158,1057,163,1059,204,1057,206,1054,206,1042,203,1037,156,1037,153,1039,146,1039,143,1037,128,1037"/><polygon fill="#1CB8E8" stroke="none" stroke-miterlimit="10" points="523,1034,521,1036,521,1143,523,1145,630,1145,632,1143,632,1036,630,1034"/><polygon fill="#1CB8E8" stroke="none" stroke-miterlimit="10" points="13,1034,11,1036,11,1143,13,1145,120,1145,122,1143,122,1036,120,1034"/><polygon fill="#1CB8E8" stroke="none" stroke-miterlimit="10" points="636,914,636,930,638,932,672,932,676,924,677,930,680,933,690,933,693,935,677,935,673,938,662,935,651,935,647,938,637,939,636,955,639,958,638,977,640,979,678,979,680,977,680,965,676,963,674,959,685,957,705,958,708,960,720,960,723,958,737,957,763,958,765,956,768,958,778,958,781,956,783,958,819,958,825,953,832,953,841,958,849,959,977,958,983,952,983,942,981,940,977,940,973,935,965,934,853,934,840,935,833,940,826,938,822,935,812,935,808,937,799,935,775,934,772,936,766,936,764,938,763,944,759,941,759,938,757,936,737,936,731,934,762,932,764,929,764,917,761,912,709,912,706,914,697,914,694,912,679,912,677,914,674,912,638,912"/><polygon fill="#1CB8E8" stroke="none" stroke-miterlimit="10" points="126,914,126,930,128,932,162,932,166,924,167,930,173,934,137,934,135,936,135,951,137,953,140,953,145,958,336,958,338,956,338,944,324,934,314,934,310,937,308,935,287,934,283,937,276,934,251,934,250,933,254,929,254,917,251,912,199,912,196,914,187,914,184,912,169,912,167,914,164,912,128,912"/><polygon fill="#1CB8E8" stroke="none" stroke-miterlimit="10" points="523,909,521,911,521,1018,523,1020,630,1020,632,1018,632,911,630,909"/><polygon fill="#1CB8E8" stroke="none" stroke-miterlimit="10" points="13,909,11,911,11,1018,13,1020,120,1020,122,1018,122,911,120,909"/><polygon fill="#1CB8E8" stroke="none" stroke-miterlimit="10" points="636,789,636,805,638,807,672,807,676,799,677,805,680,808,691,809,687,810,684,813,672,813,668,810,638,811,636,817,636,830,639,833,639,851,642,854,706,854,708,852,708,840,704,838,700,834,701,833,754,832,775,834,834,834,837,832,854,833,857,831,859,833,881,832,898,834,986,834,988,832,987,812,984,809,957,809,949,811,944,809,885,809,883,811,880,809,862,809,860,811,853,809,841,809,838,811,834,809,776,809,774,811,774,817,772,818,769,812,767,811,713,812,705,809,709,807,720,809,760,808,764,804,764,792,761,787,709,787,706,789,697,789,694,787,679,787,677,789,674,787,638,787"/><polygon fill="#1CB8E8" stroke="none" stroke-miterlimit="10" points="126,789,126,805,128,807,162,807,166,799,167,805,170,808,175,809,172,811,162,811,158,809,132,809,127,812,128,834,126,840,126,851,132,854,145,854,152,849,156,849,160,854,169,854,171,852,174,854,213,855,221,853,308,854,310,852,310,840,306,838,302,834,303,833,316,832,324,835,336,835,340,832,452,833,457,831,461,827,461,817,459,815,455,815,451,810,392,812,388,810,365,810,362,813,350,813,346,810,304,810,300,813,286,813,282,810,263,810,259,813,253,813,249,810,235,810,235,808,250,808,253,806,254,792,251,787,199,787,196,789,187,789,184,787,169,787,167,789,164,787,128,787"/><polygon fill="#1CB8E8" stroke="none" stroke-miterlimit="10" points="523,784,521,786,521,893,523,895,630,895,632,893,632,786,630,784"/><polygon fill="#1CB8E8" stroke="none" stroke-miterlimit="10" points="13,784,11,786,11,893,13,895,120,895,122,893,122,786,120,784"/><polygon fill="#1CB8E8" stroke="none" stroke-miterlimit="10" points="11,755,11,763,13,765,1010,765,1012,763,1012,755,1010,753,13,753"/><polygon fill="#1CB8E8" stroke="none" stroke-miterlimit="10" points="456,700,456,733,458,735,536,735,539,733,543,735,558,735,561,734,566,727,566,716,564,712,565,702,561,698,458,698"/><polygon fill="#1CB8E8" stroke="none" stroke-miterlimit="10" points="954,600,954,615,956,617,1010,617,1012,615,1012,600,1010,598,956,598"/><polygon fill="#1CB8E8" stroke="none" stroke-miterlimit="10" points="515,581,515,591,517,594,517,602,519,604,578,605,580,603,580,571,578,569,547,569,545,571,543,569,526,569"/><polygon fill="#1CB8E8" stroke="none" stroke-miterlimit="10" points="282,570,282,593,284,595,291,595,293,597,293,603,295,605,335,605,339,603,342,605,365,604,367,606,390,606,393,604,399,606,440,606,450,602,456,605,483,605,485,603,486,598,490,606,505,606,507,604,507,581,505,579,498,579,491,568,465,569,459,575,455,569,445,569,442,574,439,569,356,568,354,570,329,570,284,568"/><polygon fill="#1CB8E8" stroke="none" stroke-miterlimit="10" points="12,576,13,601,21,606,66,606,70,599,72,599,76,605,99,605,101,603,101,598,103,596,106,596,108,598,108,602,110,604,121,604,123,602,123,590,127,586,130,588,126,591,127,602,142,603,151,599,155,595,156,603,158,605,169,605,175,602,183,592,184,599,187,603,240,604,242,602,242,596,244,594,270,594,272,592,272,582,270,580,238,580,236,578,220,578,218,576,217,570,214,568,202,568,198,572,196,570,186,570,184,572,179,572,174,568,164,568,158,575,146,576,140,572,131,572,128,569,118,569,106,578,104,577,103,571,101,569,80,568,76,572,69,572,65,568,19,568,15,570"/><polygon fill="#1CB8E8" stroke="none" stroke-miterlimit="10" points="825,577,825,589,828,592,869,591,877,592,880,594,891,594,895,591,938,591,945,592,949,595,958,595,962,592,1007,592,1011,589,1011,569,1009,567,1000,567,996,570,993,570,989,567,965,567,961,570,958,570,954,567,891,567,888,570,885,567,861,567,859,569,856,567,832,567,830,569,830,573"/><polygon fill="#1CB8E8" stroke="none" stroke-miterlimit="10" points="11,243,11,555,13,557,1010,557,1012,555,1012,243,1010,241,13,241"/><polygon fill="#1CB8E8" stroke="none" stroke-miterlimit="10" points="1,189,1,202,1022,202,1022,189"/><polygon fill="#1CB8E8" stroke="none" stroke-miterlimit="10" points="897,163,902,168,1006,168,1008,166,1008,156,1013,152,1013,142,1011,140,994,139,902,139,897,144"/><polygon fill="#1CB8E8" stroke="none" stroke-miterlimit="10" points="794,153,794,163,798,168,861,168,865,165,865,142,860,139,806,140,804,142,804,149,802,151,796,151"/><polygon fill="#1CB8E8" stroke="none" stroke-miterlimit="10" points="676,155,676,166,678,168,757,168,759,166,759,156,763,152,763,142,761,140,748,139,683,140,679,146"/><polygon fill="#1CB8E8" stroke="none" stroke-miterlimit="10" points="645,142,641,139,544,140,540,146,537,155,537,166,539,168,642,168,646,164"/><polygon fill="#1CB8E8" stroke="none" stroke-miterlimit="10" points="329,144,329,163,334,168,502,168,506,164,505,142,501,139,402,139,399,141,379,139,334,139"/><polygon fill="#1CB8E8" stroke="none" stroke-miterlimit="10" points="205,142,205,154,208,165,211,168,293,168,297,165,297,142,292,139,207,140"/><polygon fill="#1CB8E8" stroke="none" stroke-miterlimit="10" points="172,142,168,139,98,140,96,142,96,166,98,168,169,168,173,164"/><polygon fill="#1CB8E8" stroke="none" stroke-miterlimit="10" points="10,142,10,152,14,156,14,166,16,168,53,168,57,162,61,161,64,158,64,143,61,140,29,139,12,140"/><polygon fill="#1CB8E8" stroke="none" stroke-miterlimit="10" points="965,62,962,67,962,86,964,90,972,95,990,95,995,92,998,86,998,67,995,62,990,59,970,59"/><polygon fill="#1CB8E8" stroke="none" stroke-miterlimit="10" points="24,79,24,89,26,91,65,91,67,89,67,79,52,59,39,59"/><polygon fill="#1CB8E8" stroke="none" stroke-miterlimit="10" points="498,54,496,56,496,83,500,87,500,98,502,100,525,100,527,98,527,56,525,54"/></g><g id="Floor level"><text x="803.5" y="1324.5" fill="#BF5AA2" font-family="Verdana" font-size="12" text-anchor="middle">158.41</text><text x="292.5" y="1325" fill="#BF5AA2" font-family="Verdana" font-size="12" text-anchor="middle">101.23</text><text x="576.5" y="1324" fill="#BF5AA2" font-family="Verdana" font-size="12" text-anchor="middle">159.12</text><text x="66.5" y="1324" fill="#BF5AA2" font-family="Verdana" font-size="12" text-anchor="middle">100</text><text x="815.5" y="1210" fill="#BF5AA2" font-family="Verdana" font-size="12" text-anchor="middle">221.59</text><text x="290.5" y="1199.5" fill="#BF5AA2" font-family="Verdana" font-size="12" text-anchor="middle">142.47</text><text x="576.5" y="1218.5" fill="#BF5AA2" font-family="Verdana" font-size="12" text-anchor="middle">161.59</text><text x="66.5" y="1218.5" fill="#BF5AA2" font-family="Verdana" font-size="12" text-anchor="middle">102.47</text><text x="806" y="1074.5" fill="#BF5AA2" font-family="Verdana" font-size="12" text-anchor="middle">221.59</text><text x="272.5" y="1065" fill="#BF5AA2" font-family="Verdana" font-size="12" text-anchor="middle">128.36</text><text x="576.5" y="1093.5" fill="#BF5AA2" font-family="Verdana" font-size="12" text-anchor="middle">221.59</text><text x="66.5" y="1093.5" fill="#BF5AA2" font-family="Verdana" font-size="12" text-anchor="middle">208.36</text><text x="809.5" y="949.5" fill="#BF5AA2" font-family="Verdana" font-size="12" text-anchor="middle">221.59</text><text x="232" y="939" fill="#BF5AA2" font-family="Verdana" font-size="12" text-anchor="middle">211.54</text><text x="576.5" y="968.5" fill="#BF5AA2" font-family="Verdana" font-size="12" text-anchor="middle">221.59</text><text x="66.5" y="968.5" fill="#BF5AA2" font-family="Verdana" font-size="12" text-anchor="middle">210.83</text><text x="812" y="824.5" fill="#BF5AA2" font-family="Verdana" font-size="12" text-anchor="middle">221.59</text><text x="293.5" y="825" fill="#BF5AA2" font-family="Verdana" font-size="12" text-anchor="middle">221.59</text><text x="576.5" y="843.5" fill="#BF5AA2" font-family="Verdana" font-size="12" text-anchor="middle">181.59</text><text x="66.5" y="843.5" fill="#BF5AA2" font-family="Verdana" font-size="12" text-anchor="middle">221.59</text><text x="511.5" y="763" fill="#BF5AA2" font-family="Verdana" font-size="12" text-anchor="middle">221.59</text><text x="511" y="720.5" fill="#BF5AA2" font-family="Verdana" font-size="12" text-anchor="middle">301.59</text><text x="983" y="611.5" fill="#BF5AA2" font-family="Verdana" font-size="12" text-anchor="middle">182.65</text><text x="547.5" y="591" fill="#BF5AA2" font-family="Verdana" font-size="12" text-anchor="middle">221.59</text><text x="394.5" y="591" fill="#BF5AA2" font-family="Verdana" font-size="12" text-anchor="middle">301.59</text><text x="142" y="591" fill="#BF5AA2" font-family="Verdana" font-size="12" text-anchor="middle">181.59</text><text x="918" y="585" fill="#BF5AA2" font-family="Verdana" font-size="12" text-anchor="middle">181.59</text><text x="511.5" y="403" fill="#BF5AA2" font-family="Verdana" font-size="12" text-anchor="middle">181.59</text><text x="511.5" y="199.5" fill="#BF5AA2" font-family="Verdana" font-size="12" text-anchor="middle">174.71</text><text x="955" y="157.5" fill="#BF5AA2" font-family="Verdana" font-size="12" text-anchor="middle">178.41</text><text x="829.5" y="157.5" fill="#BF5AA2" font-family="Verdana" font-size="12" text-anchor="middle">172.77</text><text x="719.5" y="157.5" fill="#BF5AA2" font-family="Verdana" font-size="12" text-anchor="middle">172.77</text><text x="591.5" y="157.5" fill="#BF5AA2" font-family="Verdana" font-size="12" text-anchor="middle">178.06</text><text x="417.5" y="157.5" fill="#BF5AA2" font-family="Verdana" font-size="12" text-anchor="middle">172.59</text><text x="251" y="157.5" fill="#BF5AA2" font-family="Verdana" font-size="12" text-anchor="middle">166.95</text><text x="134.5" y="157.5" fill="#BF5AA2" font-family="Verdana" font-size="12" text-anchor="middle">172.77</text><text x="37" y="157.5" fill="#BF5AA2" font-family="Verdana" font-size="12" text-anchor="middle">172.77</text><text x="980" y="81" fill="#BF5AA2" font-family="Verdana" font-size="12" text-anchor="middle">256.88</text><text x="45.5" y="79" fill="#BF5AA2" font-family="Verdana" font-size="12" text-anchor="middle">181.23</text><text x="511.5" y="81" fill="#BF5AA2" font-family="Verdana" font-size="12" text-anchor="middle">256.88</text></g><g id="Guardrails"><polyline fill="none" stroke="#514ED1" points="639,1332,652,1331,645,1326,645,1311,647,1309,638,1308,636,1306,636,1295,641,1287,707,1287,710,1292,710,1304,708,1307,678,1308,678,1310,772,1310,784,1312,788,1310,844,1310,850,1312,852,1310,966,1310,971,1314,971,1328,968,1332,933,1333,932,1336,938,1340,938,1352,936,1354,646,1354,637,1352"/><polyline fill="none" stroke="#514ED1" points="128,1308,126,1306,126,1295,131,1287,197,1287,200,1292,200,1304,198,1307,167,1309,174,1312,200,1310,203,1314,212,1314,216,1310,233,1310,237,1315,242,1310,259,1310,262,1312,272,1312,276,1315,295,1314,298,1311,313,1311,319,1308,330,1308,335,1312,339,1312,342,1309,351,1309,353,1311,381,1311,384,1309,395,1309,400,1311,403,1309,424,1310,426,1314,431,1318,431,1327,427,1330,452,1332,459,1338,459,1347,450,1353,442,1354,392,1353,389,1351,385,1354,258,1353,250,1347,250,1334,242,1333,237,1328,236,1330,238,1332,238,1337,243,1343,243,1352,241,1354,215,1353,213,1355,199,1355,192,1353,129,1353,127,1351,127,1346"/><polyline fill="none" stroke="#514ED1" points="595,1284,630,1284,632,1286,632,1332"/><polyline fill="none" stroke="#514ED1" points="632,1352,632,1356,521,1356,521,1286,523,1284,557,1284"/><polyline fill="none" stroke="#514ED1" points="62,1284,120,1284,122,1286,122,1308"/><polyline fill="none" stroke="#514ED1" points="122,1346,122,1356,11,1356,11,1286,13,1284,24,1284"/><polyline fill="none" stroke="#514ED1" points="666,1162,714,1162,717,1167,717,1179,715,1182,684,1184,754,1186,756,1188,756,1207,765,1204,760,1201,760,1186,762,1184,893,1184,896,1186,900,1186,903,1184,914,1184,917,1186,942,1185,946,1189,961,1190,965,1185,981,1185,983,1187,983,1192,985,1195,985,1204,995,1209,995,1220,993,1224,987,1229,927,1229,919,1228,915,1224,909,1224,903,1229,893,1230,865,1230,862,1228,860,1230,820,1230,810,1229,808,1227,804,1229,794,1229,790,1224,787,1224,780,1228,792,1236,792,1248,790,1250,684,1250,678,1245,675,1245,671,1250,640,1249,638,1247,638,1229,642,1226,641,1222,637,1218,637,1211"/><polyline fill="none" stroke="#514ED1" points="636,1173,636,1170,640,1163.6"/><polyline fill="none" stroke="#514ED1" points="211,1163.7,213,1167,213,1179,209,1183,169,1184,160,1182,156,1185,150,1186,152,1188,180,1188,184,1185,199,1185,203,1188,216,1188,220,1185,230,1185,234,1188,248,1188,251,1186,261,1186,264,1189,264,1206,266,1208,271,1205,266,1201,266,1186,268,1184,293,1185,296,1187,299,1185,344,1185,348,1187,351,1185,368,1185,372,1188,392,1188,398,1190,403,1184,420,1184,422,1186,422,1191,425,1194,430,1185,450,1185,455,1189,455,1203,452,1207,399,1207,397,1209,361,1207,316,1207,314,1209,322,1215,322,1227,320,1229,132,1229"/><polyline fill="none" stroke="#514ED1" points="126,1191,126,1189,130,1185,141,1184,135,1182,128,1182,126,1180,126,1169,130,1162,142,1162,145,1164,153,1164,156,1162,173,1162"/><polyline fill="none" stroke="#514ED1" points="632,1211,632,1268,630,1270,595,1270"/><polyline fill="none" stroke="#514ED1" points="557,1270,523,1270,521,1268,521,1161,523,1159,630,1159,632,1161,632,1173"/><polyline fill="none" stroke="#514ED1" points="122,1229,122,1268,120,1270,62,1270"/><polyline fill="none" stroke="#514ED1" points="24,1270,13,1270,11,1268,11,1161,13,1159,120,1159,122,1161,122,1191"/><polyline fill="none" stroke="#514ED1" points="640.5,1082,650,1079,645,1076,645,1061,647,1059,645,1057,638,1057,636,1055,636,1044,640,1037,652,1037,655,1039,663,1039,666,1037,720,1037,723,1042,723,1054,721,1057,691,1058,691,1060,759,1061,762,1059,772,1059,775,1061,790,1061,796,1067,799,1066,799,1063,802,1059,820,1059,824,1064,827,1064,830,1060,843,1059,913,1059,916,1061,940,1059,942,1061,952,1060,955,1062,959,1059,970,1059,975,1063,976,1080,970,1083,708,1083,704,1080,702,1082,660,1082,660,1086,666,1090,666,1102"/><polyline fill="none" stroke="#514ED1" points="173,1082.2,152,1082,148,1085,136,1085,126,1080,126,1067,128,1061,140,1059,129,1058"/><polyline fill="none" stroke="#514ED1" points="127,1038,143,1037,146,1039,153,1039,156,1037,203,1037,206,1042,206,1054,204,1057,163,1059,158,1057,154,1059,162,1063,174,1063,177,1060,200,1060,204,1062,250,1060,256,1061,258,1063,258,1066,263,1069,264,1063,266,1061,271,1061,276,1058,286,1058,290,1065,295,1060,342,1059,345,1061,350,1061,353,1059,363,1059,365,1061,375,1060,378,1062,382,1059,408,1059,413,1063,415,1067,419,1069,419,1081,417,1083,345,1082,342,1084,320,1084,294,1082,290,1078,285,1078,279,1083,268,1083,266,1081,263,1083,211,1082.5"/><polyline fill="none" stroke="#514ED1" points="632,1102,632,1143,630,1145,523,1145,521,1143,521,1036,523,1034,547,1034"/><polyline fill="none" stroke="#514ED1" points="585,1034,630,1034,632,1036,632,1082"/><polyline fill="none" stroke="#514ED1" points="122,1058,122,1143,120,1145,13,1145,11,1143,11,1036,13,1034,22,1034"/><polyline fill="none" stroke="#514ED1" points="60,1034,120,1034,122,1038"/><polyline fill="none" stroke="#514ED1" points="684,912,694,912,697,914,706,914,709,912,761,912,764,917,764,929,762,932,731,934,737,936,757,936,759,938,759,941,763,944,764,938,766,936,772,936,775,934,799,935,808,937,812,935,822,935,826,938,833,940,840,935,853,934,965,934,973,935,977,940,981,940,983,942,983,952,977,958,849,959,841,958,832,953,825,953,819,958,783,958,781,956,778,958,768,958,765,956,763,958,737,957,723,958,720,960,708,960,705,958,685,957,674,959,676,963,680,965,680,977,678,979,640,979,638,977"/><polyline fill="none" stroke="#514ED1" points="637,939,647,938,651,935,662,935,673,938,677,935,693,935,690,933,680,933,677,930,676,924,672,932,638,932,636,930,636,914,638,912,646,912"/><polyline fill="none" stroke="#514ED1" points="130,912,164,912,167,914,169,912,184,912,187,914,197,913.33"/><polyline fill="none" stroke="#514ED1" points="235,912,251,912,254,917,254,929,250,933,251,934,276,934,283,937,287,934,308,935,310,937,314,934,324,934,338,944,338,956,336,958,145,958,140,953,137,953,135,951,135,936,137,934,173,934,167,930,166,924,162,932,130,932"/><polyline fill="none" stroke="#514ED1" points="632,977,632,1018,630,1020,585,1020"/><polyline fill="none" stroke="#514ED1" points="547,1020,523,1020,521,1018,521,911,523,909,630,909,632,911,632,939"/><polyline fill="none" stroke="#514ED1" points="122,932,122,1018,120,1020,60,1020"/><polyline fill="none" stroke="#514ED1" points="22,1020,13,1020,11,1018,11,911,13,909,120,909,122,912"/><polyline fill="none" stroke="#514ED1" points="646,854,642,854,640,852"/><polyline fill="none" stroke="#514ED1" points="637,814,638,811,668,810,672,813,684,813,687,810,691,809,680,808,677,805,676,799,672,807,638,807,636,805,636,789,638,787,674,787,677,789,679,787,694,787,697,789,706,789,709,787,761,787,764,792,764,804,760,808,720,809,709,807,705,809,713,812,767,811,769,812,772,818,774,817,774,811,776,809,834,809,838,811,841,809,853,809,860,811,862,809,880,809,883,811,885,809,944,809,949,811,957,809,984,809,987,812,988,832,986,834,898,834,881,832,859,833,857,831,854,833,837,832,834,834,775,834,754,832,701,833,700,834,708,840,708,852,706,854,684,854"/><polyline fill="none" stroke="#514ED1" points="197,854.59,174,854,171,852,169,854,160,854,156,849,152,849,145,854,132,854,126,850"/><polyline fill="none" stroke="#514ED1" points="127,812,132,809,158,809,162,811,172,811,175,809,170,808,167,805,166,799,162,807,128,807,126,805,126,789,128,787,164,787,167,789,169,787,184,787,187,789,196,789,199,787,251,787,254,792,253,806,250,808,235,808,235,810,249,810,253,813,259,813,263,810,282,810,286,813,300,813,304,810,346,810,350,813,362,813,365,810,388,810,392,812,451,810,455,815,459,815,461,817,461,827,457,831,452,833,340,832,336,835,324,835,316,832,303,833,302,834,310,840,310,852,308,854,235,853.16"/><polyline fill="none" stroke="#514ED1" points="632,852,632,893,630,895,523,895,521,893,521,786,523,784,537,784"/><polyline fill="none" stroke="#514ED1" points="575,784,630,784,632,786,632,814"/><polyline fill="none" stroke="#514ED1" points="122,850,122,893,120,895,13,895,11,893,11,786,13,784,74,784"/><polyline fill="none" stroke="#514ED1" points="112,784,120,784,122,786,122,812"/><polyline fill="none" stroke="#514ED1" points="513,753,1010,753,1012,755,1012,763,1010,765,575,765"/><polyline fill="none" stroke="#514ED1" points="537,765,112,765"/><polyline fill="none" stroke="#514ED1" points="74,765,13,765,11,763,11,755,13,753,475,753"/><polyline fill="none" stroke="#514ED1" points="484,698,561,698,565,702,564,712,566,716,566,727,561,734,543,735,539,733,536,735,513,735"/><polyline fill="none" stroke="#514ED1" points="475,735,458,735,456,733,456,702"/><polyline fill="none" stroke="#514ED1" points="997,598,1010,598,1012,600,1012,615,1010,617,956,617,954,615,954,600,956,598,959,598"/><polyline fill="none" stroke="#514ED1" points="571,569,578,569,580,571,580,603,578,605,519,604"/><polyline fill="none" stroke="#514ED1" points="515.92,580,526,569,533,569"/><polyline fill="none" stroke="#514ED1" points="507,604,505,606,490,606,486,598,484,604"/><polyline fill="none" stroke="#514ED1" points="456,605,450,602,440,606,399,606,393,604,390,606,367,606,365,604,342,605,339,603,335,605,295,605,293,603,293,597,291,595,284,595,282,593,282,570,284,568,329,570,354,570,356,568,439,569,442,574,445,569,455,569,459,575,465,569,491,568,498,579,506,580"/><polyline fill="none" stroke="#514ED1" points="102,570,104,577,106,578,118,569,128,569,131,572,140,572,146,576,158,575,164,568,174,568,179,572,184,572,186,570,196,570,198,572,202,568,214,568,217,570,218,576,220,578,236,578,238,580,270,580,272,582,272,592,270,594,244,594,242,596,242,602,240,604,187,603,184,599,183,592,175,602,169,605,158,605,156,603,155,595,151,599,142,603,127,602,126,591,130,588,127,586,123,590,123,602,121,604,110,604,106,596,103,596,101,598,101,603,99,605,76,605,72,599,70,599,66,606,21,606,13,601,12,576,15,570,19,568,64,568"/><polyline fill="none" stroke="#514ED1" points="920,567,954,567,958,570,961,570,965,567,989,567,993,570,996,570,1000,567,1009,567,1011,569,1011,589,1007,592,997,592"/><polyline fill="none" stroke="#514ED1" points="959,594.25,949,595,945,592,938,591,895,591,891,594,880,594,877,592,869,591,828,592,825,589,825,577,830,573,830,569,832,567,856,567,859,569,861,567,882,567"/><polyline fill="none" stroke="#514ED1" points="827,241,1010,241,1012,243,1012,555,1010,557,920,557"/><polyline fill="none" stroke="#514ED1" points="882,557,571,557"/><polyline fill="none" stroke="#514ED1" points="533,557,102,557"/><polyline fill="none" stroke="#514ED1" points="64,557,13,557,11,555,11,243,13,241,789,241"/><polyline fill="none" stroke="#514ED1" points="789,202,1,202,1,189,911,189"/><polyline fill="none" stroke="#514ED1" points="949,189,1022,189,1022,202,827,202"/><polyline fill="none" stroke="#514ED1" points="899,142,902,139,994,139,1011,140,1013,142,1013,152,1008,156,1008,166,1006,168,949,168"/><polyline fill="none" stroke="#514ED1" points="911,168,902,168,900,166"/><polyline fill="none" stroke="#514ED1" points="863.67,166,861,168,798,168,796.4,166"/><polyline fill="none" stroke="#514ED1" points="795,152,802,151,804,149,804,142,806,140,860,139,865,142"/><polyline fill="none" stroke="#514ED1" points="680.33,144,683,140,761,140,763,142,763,152"/><polyline fill="none" stroke="#514ED1" points="759,166,757,168,678,168,676,166"/><polyline fill="none" stroke="#514ED1" points="644,166,642,168,539,168,537,166"/><polyline fill="none" stroke="#514ED1" points="541.33,144,544,140,641,139,645,142,645.09,144"/><polyline fill="none" stroke="#514ED1" points="504,166,502,168,334,168,332,166"/><polyline fill="none" stroke="#514ED1" points="331,142,334,139,379,139,399,141,402,139,501,139,505,142,505.09,144"/><polyline fill="none" stroke="#514ED1" points="295.67,166,293,168,211,168,207.73,164"/><polyline fill="none" stroke="#514ED1" points="207,140,292,139,297,142"/><polyline fill="none" stroke="#514ED1" points="98,140,169.33,140"/><polyline fill="none" stroke="#514ED1" points="173,164,169,168,98,168,96,166,96,162"/><polyline fill="none" stroke="#514ED1" points="57,162,53,168,16,168,14,166,14,156,10,152,10,142,12,140,24,139.29"/><polyline fill="none" stroke="#514ED1" points="965,62,970,59,990,59,995,62,998,67,998,86,995,92,990,95,972,95,967.2,92"/><polyline fill="none" stroke="#514ED1" points="67,89,65,91,62,91"/><polyline fill="none" stroke="#514ED1" points="24,89,24,79,39,59,52,59,62.5,73"/><polyline fill="none" stroke="#514ED1" points="527,92,527,98,525,100,502,100,500,98,500,89"/><polyline fill="none" stroke="#514ED1" points="496,73,496,56,498,54,525,54,527,56,527,62"/></g><g id="Bridges"><rect x="0" y="-10.5" transform="matrix(-1 1.2246063538223773e-16 -1.2246063538223773e-16 -1 636 1342)"
  fill="#4CB73D" fill-opacity="0.5" stroke="none" width="4" height="21"/><rect x="0" y="-19.5" transform="matrix(6.123031769111886e-17 -1 1 6.123031769111886e-17 577 1284)"
  fill="#4CB73D" fill-opacity="0.5" stroke="none" width="14" height="39"/><rect x="-10" y="-19.5" transform="matrix(1 0 0 1 632 1193)"
  fill="#EF305E" fill-opacity="0.5" stroke="none" width="15" height="39"/><rect x="0" y="-13.5" transform="matrix(6.123031769111886e-17 -1 1 6.123031769111886e-17 654 1162)"
  fill="#4CB73D" fill-opacity="0.5" stroke="none" width="58" height="27"/><rect x="0" y="-10.5" transform="matrix(-1 1.2246063538223773e-16 -1.2246063538223773e-16 -1 637 1092)"
  fill="#4CB73D" fill-opacity="0.5" stroke="none" width="5" height="21"/><rect x="0" y="-19.5" transform="matrix(6.123031769111886e-17 -1 1 6.123031769111886e-17 567 1034)"
  fill="#4CB73D" fill-opacity="0.5" stroke="none" width="14" height="39"/><rect x="0" y="-19.5" transform="matrix(1 0 0 1 632 959)"
  fill="#4CB73D" fill-opacity="0.5" stroke="none" width="7" height="39"/><rect x="0" y="-19.5" transform="matrix(6.123031769111886e-17 -1 1 6.123031769111886e-17 666 912)"
  fill="#4CB73D" fill-opacity="0.5" stroke="none" width="58" height="39"/><rect x="0" y="-19.5" transform="matrix(-1 1.2246063538223773e-16 -1.2246063538223773e-16 -1 638 832)"
  fill="#EF305E" fill-opacity="0.5" stroke="none" width="15" height="39"/><rect x="0" y="-19.5" transform="matrix(6.123031769111886e-17 -1 1 6.123031769111886e-17 557 784)"
  fill="#EF305E" fill-opacity="0.5" stroke="none" width="19" height="39"/><rect x="0" y="-19.5" transform="matrix(6.123031769111886e-17 -1 1 6.123031769111886e-17 495 753)"
  fill="#EF305E" fill-opacity="0.5" stroke="none" width="18" height="39"/><rect x="0" y="-14.5" transform="matrix(6.123031769111886e-17 -1 1 6.123031769111886e-17 470 698)"
  fill="#4CB73D" fill-opacity="0.5" stroke="none" width="93" height="29"/><rect x="0" y="-12.5" transform="matrix(1 0 0 1 507 592)"
  fill="#EF305E" fill-opacity="0.5" stroke="none" width="15" height="25"/><rect x="0" y="-19.5" transform="matrix(6.123031769111886e-17 -1 1 6.123031769111886e-17 553 569)"
  fill="#EF305E" fill-opacity="0.5" stroke="none" width="15" height="39"/><rect x="0" y="-19.5" transform="matrix(6.123031769111886e-17 1 -1 6.123031769111886e-17 900 557)"
  fill="#4CB73D" fill-opacity="0.5" stroke="none" width="10" height="39"/><rect x="0" y="-19.5" transform="matrix(6.123031769111886e-17 1 -1 6.123031769111886e-17 977 592)"
  fill="#4CB73D" fill-opacity="0.5" stroke="none" width="6" height="39"/><rect x="0" y="-19.5" transform="matrix(6.123031769111886e-17 1 -1 6.123031769111886e-17 82 557)"
  fill="#4CB73D" fill-opacity="0.5" stroke="none" width="11" height="39"/><rect x="0" y="-19.5" transform="matrix(6.123031769111886e-17 -1 1 6.123031769111886e-17 809 241)"
  fill="#4CB73D" fill-opacity="0.5" stroke="none" width="39" height="39"/><rect x="0" y="-19.5" transform="matrix(6.123031769111886e-17 -1 1 6.123031769111886e-17 931 189)"
  fill="#4CB73D" fill-opacity="0.5" stroke="none" width="21" height="39"/><rect x="0" y="-12.5" transform="matrix(-1 1.2246063538223773e-16 -1.2246063538223773e-16 -1 897 154)"
  fill="#4CB73D" fill-opacity="0.5" stroke="none" width="32" height="25"/><rect x="0" y="-7.5" transform="matrix(-1 1.2246063538223773e-16 -1.2246063538223773e-16 -1 794 158)"
  fill="#4CB73D" fill-opacity="0.5" stroke="none" width="35" height="15"/><rect x="0" y="-11.5" transform="matrix(-1 1.2246063538223773e-16 -1.2246063538223773e-16 -1 676 154)"
  fill="#4CB73D" fill-opacity="0.5" stroke="none" width="30" height="23"/><rect x="0" y="-11.5" transform="matrix(-1 1.2246063538223773e-16 -1.2246063538223773e-16 -1 537 154)"
  fill="#4CB73D" fill-opacity="0.5" stroke="none" width="31" height="23"/><rect x="0" y="-12.5" transform="matrix(-1 1.2246063538223773e-16 -1.2246063538223773e-16 -1 329 154)"
  fill="#4CB73D" fill-opacity="0.5" stroke="none" width="32" height="25"/><rect x="0" y="-12.5" transform="matrix(-1 1.2246063538223773e-16 -1.2246063538223773e-16 -1 205 152)"
  fill="#4CB73D" fill-opacity="0.5" stroke="none" width="33" height="25"/><rect x="0" y="-11.5" transform="matrix(-1 1.2246063538223773e-16 -1.2246063538223773e-16 -1 96 150)"
  fill="#4CB73D" fill-opacity="0.5" stroke="none" width="32" height="23"/><rect x="0" y="-19.5" transform="matrix(6.123031769111886e-17 -1 1 6.123031769111886e-17 44 139)"
  fill="#4CB73D" fill-opacity="0.5" stroke="none" width="48" height="39"/><rect x="0" y="-8.5" transform="matrix(1 0 0 1 67 81)"
  fill="#4CB73D" fill-opacity="0.5" stroke="none" width="429" height="17"/><rect x="0" y="-15.5" transform="matrix(1 0 0 1 527 78)"
  fill="#4CB73D" fill-opacity="0.5" stroke="none" width="435" height="31"/><rect x="0" y="-19.5" transform="matrix(6.123031769111886e-17 1 -1 6.123031769111886e-17 92 765)"
  fill="#4CB73D" fill-opacity="0.5" stroke="none" width="19" height="39"/><rect x="0" y="-19.5" transform="matrix(1 0 0 1 122 832)"
  fill="#4CB73D" fill-opacity="0.5" stroke="none" width="6" height="39"/><rect x="0" y="-19.5" transform="matrix(6.123031769111886e-17 1 -1 6.123031769111886e-17 215 855)"
  fill="#4CB73D" fill-opacity="0.5" stroke="none" width="57" height="39"/><rect x="0" y="-10.5" transform="matrix(-1 1.2246063538223773e-16 -1.2246063538223773e-16 -1 126 922)"
  fill="#4CB73D" fill-opacity="0.5" stroke="none" width="4" height="21"/><rect x="0" y="-19.5" transform="matrix(6.123031769111886e-17 1 -1 6.123031769111886e-17 40 1020)"
  fill="#4CB73D" fill-opacity="0.5" stroke="none" width="14" height="39"/><rect x="0" y="-10.5" transform="matrix(1 0 0 1 122 1048)"
  fill="#EF305E" fill-opacity="0.5" stroke="none" width="15" height="21"/><rect x="0" y="-19.5" transform="matrix(6.123031769111886e-17 1 -1 6.123031769111886e-17 191 1082)"
  fill="#4CB73D" fill-opacity="0.5" stroke="none" width="80" height="39"/><rect x="0" y="-19.5" transform="matrix(-1 1.2246063538223773e-16 -1.2246063538223773e-16 -1 127 1209)"
  fill="#EF305E" fill-opacity="0.5" stroke="none" width="15" height="39"/><rect x="0" y="-19.5" transform="matrix(6.123031769111886e-17 1 -1 6.123031769111886e-17 42 1270)"
  fill="#4CB73D" fill-opacity="0.5" stroke="none" width="14" height="39"/><rect x="0" y="-19.5" transform="matrix(1 0 0 1 122 1328)"
  fill="#4CB73D" fill-opacity="0.5" stroke="none" width="7" height="39"/></g><g id="Bridge size"><text x="636" y="1342" fill="#4F4AAF" font-family="Verdana" font-size="12">W21, D4</text><text x="577" y="1284" fill="#4F4AAF" font-family="Verdana" font-size="12">W39, D14</text><text x="632" y="1193" fill="#4F4AAF" font-family="Verdana" font-size="12">W39, D15</text><text x="654" y="1162" fill="#4F4AAF" font-family="Verdana" font-size="12">W27, D58</text><text x="637" y="1092" fill="#4F4AAF" font-family="Verdana" font-size="12">W21, D5</text><text x="567" y="1034" fill="#4F4AAF" font-family="Verdana" font-size="12">W39, D14</text><text x="632" y="959" fill="#4F4AAF" font-family="Verdana" font-size="12">W39, D7</text><text x="666" y="912" fill="#4F4AAF" font-family="Verdana" font-size="12">W39, D58</text><text x="638" y="832" fill="#4F4AAF" font-family="Verdana" font-size="12">W39, D15</text><text x="557" y="784" fill="#4F4AAF" font-family="Verdana" font-size="12">W39, D19</text><text x="495" y="753" fill="#4F4AAF" font-family="Verdana" font-size="12">W39, D18</text><text x="470" y="698" fill="#4F4AAF" font-family="Verdana" font-size="12">W29, D93</text><text x="507" y="592" fill="#4F4AAF" font-family="Verdana" font-size="12">W25, D15</text><text x="553" y="569" fill="#4F4AAF" font-family="Verdana" font-size="12">W39, D15</text><text x="900" y="557" fill="#4F4AAF" font-family="Verdana" font-size="12">W39, D10</text><text x="977" y="592" fill="#4F4AAF" font-family="Verdana" font-size="12">W39, D6</text><text x="82" y="557" fill="#4F4AAF" font-family="Verdana" font-size="12">W39, D11</text><text x="809" y="241" fill="#4F4AAF" font-family="Verdana" font-size="12">W39, D39</text><text x="931" y="189" fill="#4F4AAF" font-family="Verdana" font-size="12">W39, D21</text><text x="897" y="154" fill="#4F4AAF" font-family="Verdana" font-size="12">W25, D32</text><text x="794" y="158" fill="#4F4AAF" font-family="Verdana" font-size="12">W15, D35</text><text x="676" y="154" fill="#4F4AAF" font-family="Verdana" font-size="12">W23, D30</text><text x="537" y="154" fill="#4F4AAF" font-family="Verdana" font-size="12">W23, D31</text><text x="329" y="154" fill="#4F4AAF" font-family="Verdana" font-size="12">W25, D32</text><text x="205" y="152" fill="#4F4AAF" font-family="Verdana" font-size="12">W25, D33</text><text x="96" y="150" fill="#4F4AAF" font-family="Verdana" font-size="12">W23, D32</text><text x="44" y="139" fill="#4F4AAF" font-family="Verdana" font-size="12">W39, D48</text><text x="67" y="81" fill="#4F4AAF" font-family="Verdana" font-size="12">W17, D429</text><text x="527" y="78" fill="#4F4AAF" font-family="Verdana" font-size="12">W31, D435</text><text x="92" y="765" fill="#4F4AAF" font-family="Verdana" font-size="12">W39, D19</text><text x="122" y="832" fill="#4F4AAF" font-family="Verdana" font-size="12">W39, D6</text><text x="215" y="855" fill="#4F4AAF" font-family="Verdana" font-size="12">W39, D57</text><text x="126" y="922" fill="#4F4AAF" font-family="Verdana" font-size="12">W21, D4</text><text x="40" y="1020" fill="#4F4AAF" font-family="Verdana" font-size="12">W39, D14</text><text x="122" y="1048" fill="#4F4AAF" font-family="Verdana" font-size="12">W21, D15</text><text x="191" y="1082" fill="#4F4AAF" font-family="Verdana" font-size="12">W39, D80</text><text x="127" y="1209" fill="#4F4AAF" font-family="Verdana" font-size="12">W39, D15</text><text x="42" y="1270" fill="#4F4AAF" font-family="Verdana" font-size="12">W39, D14</text><text x="122" y="1328" fill="#4F4AAF" font-family="Verdana" font-size="12">W39, D7</text></g></g></svg>