  0
SECTION
  2
HEADER
  9
$ACADVER
  1
AC1009
  9
$EXTMIN
 10
0.0
 20
0.0
 30
0.0
  9
$EXTMAX
 10
1000.0
 20
1000.0
 30
0.0
  9
$FILLMODE
 70
 0
  9
$SPLFRAME
 70
 1
  0
ENDSEC
  0
SECTION
  2
TABLES
  0
TABLE
  2
LAYER
 70
1
  0
LAYER
  2
0
 70
     0
 62
     7
  6
CONTINUOUS
  0
ENDTAB
  0
ENDSEC
  0
SECTION
  2
ENTITIES
  0
LINE
  8
0
 62
     4
 10
1.35824
 20
3.49604
 30
0.0
 11
1.35824
 21
3.30707
 31
0.0
  0
LINE
  8
0
 62
     4
 10
1.35824
 20
3.30707
 30
0.0
 11
1.38189
 21
3.28347
 31
0.0
  0
LINE
  8
0
 62
     4
 10
1.38189
 20
3.28347
 30
0.0
 11
1.78342
 21
3.28347
 31
0.0
  0
LINE
  8
0
 62
     4
 10
1.78342
 20
3.28347
 30
0.0
 11
1.83072
 21
3.37793
 31
0.0
  0
LINE
  8
0
 62
     4
 10
1.83072
 20
3.37793
 30
0.0
 11
1.8425
 21
3.30707
 31
0.0
  0
LINE
  8
0
 62
     4
 10
1.8425
 20
3.30707
 30
0.0
 11
1.87793
 21
3.27165
 31
0.0
  0
LINE
  8
0
 62
     4
 10
1.87793
 20
3.27165
 30
0.0
 11
1.93701
 21
3.25982
 31
0.0
  0
LINE
  8
0
 62
     4
 10
1.93701
 20
3.25982
 30
0.0
 11
1.90153
 21
3.23622
 31
0.0
  0
LINE
  8
0
 62
     4
 10
1.90153
 20
3.23622
 30
0.0
 11
1.78342
 21
3.23622
 31
0.0
  0
LINE
  8
0
 62
     4
 10
1.78342
 20
3.23622
 30
0.0
 11
1.73622
 21
3.25982
 31
0.0
  0
LINE
  8
0
 62
     4
 10
1.73622
 20
3.25982
 30
0.0
 11
1.4291
 21
3.25982
 31
0.0
  0
LINE
  8
0
 62
     4
 10
1.4291
 20
3.25982
 30
0.0
 11
1.37006
 21
3.22439
 31
0.0
  0
LINE
  8
0
 62
     4
 10
1.37006
 20
3.22439
 30
0.0
 11
1.38189
 21
2.96457
 31
0.0
  0
LINE
  8
0
 62
     4
 10
1.38189
 20
2.96457
 30
0.0
 11
1.35824
 21
2.89372
 31
0.0
  0
LINE
  8
0
 62
     4
 10
1.35824
 20
2.89372
 30
0.0
 11
1.35824
 21
2.76378
 31
0.0
  0
LINE
  8
0
 62
     4
 10
1.35824
 20
2.76378
 30
0.0
 11
1.4291
 21
2.72835
 31
0.0
  0
LINE
  8
0
 62
     4
 10
1.4291
 20
2.72835
 30
0.0
 11
1.58262
 21
2.72835
 31
0.0
  0
LINE
  8
0
 62
     4
 10
1.58262
 20
2.72835
 30
0.0
 11
1.66531
 21
2.78737
 31
0.0
  0
LINE
  8
0
 62
     4
 10
1.66531
 20
2.78737
 30
0.0
 11
1.71262
 21
2.78737
 31
0.0
  0
LINE
  8
0
 62
     4
 10
1.71262
 20
2.78737
 30
0.0
 11
1.75982
 21
2.72835
 31
0.0
  0
LINE
  8
0
 62
     4
 10
1.75982
 20
2.72835
 30
0.0
 11
1.8661
 21
2.72835
 31
0.0
  0
LINE
  8
0
 62
     4
 10
1.8661
 20
2.72835
 30
0.0
 11
1.88975
 21
2.75196
 31
0.0
  0
LINE
  8
0
 62
     4
 10
1.88975
 20
2.75196
 30
0.0
 11
1.92518
 21
2.72835
 31
0.0
  0
LINE
  8
0
 62
     4
 10
1.92518
 20
2.72835
 30
0.0
 11
2.38579
 21
2.71653
 31
0.0
  0
LINE
  8
0
 62
     4
 10
2.38579
 20
2.71653
 30
0.0
 11
2.48031
 21
2.74013
 31
0.0
  0
LINE
  8
0
 62
     4
 10
2.48031
 20
2.74013
 30
0.0
 11
3.50786
 21
2.72835
 31
0.0
  0
LINE
  8
0
 62
     4
 10
3.50786
 20
2.72835
 30
0.0
 11
3.53153
 21
2.75196
 31
0.0
  0
LINE
  8
0
 62
     4
 10
3.53153
 20
2.75196
 30
0.0
 11
3.53153
 21
2.89372
 31
0.0
  0
LINE
  8
0
 62
     4
 10
3.53153
 20
2.89372
 30
0.0
 11
3.48426
 21
2.91732
 31
0.0
  0
LINE
  8
0
 62
     4
 10
3.48426
 20
2.91732
 30
0.0
 11
3.43701
 21
2.96457
 31
0.0
  0
LINE
  8
0
 62
     4
 10
3.43701
 20
2.96457
 30
0.0
 11
3.44883
 21
2.9764
 31
0.0
  0
LINE
  8
0
 62
     4
 10
3.44883
 20
2.9764
 30
0.0
 11
3.60238
 21
2.98817
 31
0.0
  0
LINE
  8
0
 62
     4
 10
3.60238
 20
2.98817
 30
0.0
 11
3.69683
 21
2.95275
 31
0.0
  0
LINE
  8
0
 62
     4
 10
3.69683
 20
2.95275
 30
0.0
 11
3.8386
 21
2.95275
 31
0.0
  0
LINE
  8
0
 62
     4
 10
3.8386
 20
2.95275
 30
0.0
 11
3.88585
 21
2.98817
 31
0.0
  0
LINE
  8
0
 62
     4
 10
3.88585
 20
2.98817
 30
0.0
 11
5.20865
 21
2.9764
 31
0.0
  0
LINE
  8
0
 62
     4
 10
5.20865
 20
2.9764
 30
0.0
 11
5.26774
 21
3
 31
0.0
  0
LINE
  8
0
 62
     4
 10
5.26774
 20
3
 30
0.0
 11
5.31494
 21
3.04725
 31
0.0
  0
LINE
  8
0
 62
     4
 10
5.31494
 20
3.04725
 30
0.0
 11
5.31494
 21
3.16536
 31
0.0
  0
LINE
  8
0
 62
     4
 10
5.31494
 20
3.16536
 30
0.0
 11
5.29135
 21
3.18896
 31
0.0
  0
LINE
  8
0
 62
     4
 10
5.29135
 20
3.18896
 30
0.0
 11
5.24408
 21
3.18896
 31
0.0
  0
LINE
  8
0
 62
     4
 10
5.24408
 20
3.18896
 30
0.0
 11
5.19683
 21
3.24804
 31
0.0
  0
LINE
  8
0
 62
     4
 10
5.19683
 20
3.24804
 30
0.0
 11
4.5
 21
3.22439
 31
0.0
  0
LINE
  8
0
 62
     4
 10
4.5
 20
3.22439
 30
0.0
 11
4.45275
 21
3.24804
 31
0.0
  0
LINE
  8
0
 62
     4
 10
4.45275
 20
3.24804
 30
0.0
 11
4.1811
 21
3.24804
 31
0.0
  0
LINE
  8
0
 62
     4
 10
4.1811
 20
3.24804
 30
0.0
 11
4.14567
 21
3.21263
 31
0.0
  0
LINE
  8
0
 62
     4
 10
4.14567
 20
3.21263
 30
0.0
 11
4.00396
 21
3.21263
 31
0.0
  0
LINE
  8
0
 62
     4
 10
4.00396
 20
3.21263
 30
0.0
 11
3.95671
 21
3.24804
 31
0.0
  0
LINE
  8
0
 62
     4
 10
3.95671
 20
3.24804
 30
0.0
 11
3.46061
 21
3.24804
 31
0.0
  0
LINE
  8
0
 62
     4
 10
3.46061
 20
3.24804
 30
0.0
 11
3.41342
 21
3.21263
 31
0.0
  0
LINE
  8
0
 62
     4
 10
3.41342
 20
3.21263
 30
0.0
 11
3.24804
 21
3.21263
 31
0.0
  0
LINE
  8
0
 62
     4
 10
3.24804
 20
3.21263
 30
0.0
 11
3.20079
 21
3.24804
 31
0.0
  0
LINE
  8
0
 62
     4
 10
3.20079
 20
3.24804
 30
0.0
 11
2.9764
 21
3.24804
 31
0.0
  0
LINE
  8
0
 62
     4
 10
2.9764
 20
3.24804
 30
0.0
 11
2.92914
 21
3.21263
 31
0.0
  0
LINE
  8
0
 62
     4
 10
2.92914
 20
3.21263
 30
0.0
 11
2.85829
 21
3.21263
 31
0.0
  0
LINE
  8
0
 62
     4
 10
2.85829
 20
3.21263
 30
0.0
 11
2.81104
 21
3.24804
 31
0.0
  0
LINE
  8
0
 62
     4
 10
2.81104
 20
3.24804
 30
0.0
 11
2.64561
 21
3.24804
 31
0.0
  0
LINE
  8
0
 62
     4
 10
2.64561
 20
3.24804
 30
0.0
 11
2.64561
 21
3.27165
 31
0.0
  0
LINE
  8
0
 62
     4
 10
2.64561
 20
3.27165
 30
0.0
 11
2.82281
 21
3.27165
 31
0.0
  0
LINE
  8
0
 62
     4
 10
2.82281
 20
3.27165
 30
0.0
 11
2.85829
 21
3.29531
 31
0.0
  0
LINE
  8
0
 62
     4
 10
2.85829
 20
3.29531
 30
0.0
 11
2.87007
 21
3.46061
 31
0.0
  0
LINE
  8
0
 62
     4
 10
2.87007
 20
3.46061
 30
0.0
 11
2.83464
 21
3.51964
 31
0.0
  0
LINE
  8
0
 62
     4
 10
2.83464
 20
3.51964
 30
0.0
 11
2.22043
 21
3.51964
 31
0.0
  0
LINE
  8
0
 62
     4
 10
2.22043
 20
3.51964
 30
0.0
 11
2.185
 21
3.49604
 31
0.0
  0
LINE
  8
0
 62
     4
 10
2.185
 20
3.49604
 30
0.0
 11
2.07872
 21
3.49604
 31
0.0
  0
LINE
  8
0
 62
     4
 10
2.07872
 20
3.49604
 30
0.0
 11
2.04329
 21
3.51964
 31
0.0
  0
LINE
  8
0
 62
     4
 10
2.04329
 20
3.51964
 30
0.0
 11
1.8661
 21
3.51964
 31
0.0
  0
LINE
  8
0
 62
     4
 10
1.8661
 20
3.51964
 30
0.0
 11
1.8425
 21
3.49604
 31
0.0
  0
LINE
  8
0
 62
     4
 10
1.8425
 20
3.49604
 30
0.0
 11
1.80707
 21
3.51964
 31
0.0
  0
LINE
  8
0
 62
     4
 10
1.80707
 20
3.51964
 30
0.0
 11
1.38189
 21
3.51964
 31
0.0
  0
LINE
  8
0
 62
     4
 10
1.38189
 20
3.51964
 30
0.0
 11
1.35824
 21
3.49604
 31
0.0
  0
LINE
  8
0
 62
     4
 10
1.28738
 20
3.55512
 30
0.0
 11
0.0236003
 21
3.55512
 31
0.0
  0
LINE
  8
0
 62
     4
 10
0.0236003
 20
3.55512
 30
0.0
 11
0
 21
3.53153
 31
0.0
  0
LINE
  8
0
 62
     4
 10
0
 20
3.53153
 30
0.0
 11
0
 21
2.92914
 31
0.0
  0
LINE
  8
0
 62
     4
 10
0
 20
2.92914
 30
0.0
 11
0.00585938
 21
2.92914
 31
0.0
  0
LINE
  8
0
 62
     4
 10
0.00585938
 20
2.92914
 30
0.0
 11
0.00585938
 21
2.73817
 31
0.0
  0
LINE
  8
0
 62
     4
 10
0.00585938
 20
2.73817
 30
0.0
 11
0.110948
 21
2.73817
 31
0.0
  0
LINE
  8
0
 62
     4
 10
0.110948
 20
2.73817
 30
0.0
 11
0.131782
 21
2.75261
 31
0.0
  0
LINE
  8
0
 62
     4
 10
0.131782
 20
2.75261
 30
0.0
 11
0.157497
 21
2.75786
 31
0.0
  0
LINE
  8
0
 62
     4
 10
0.157497
 20
2.75786
 30
0.0
 11
0.182725
 21
2.75276
 31
0.0
  0
LINE
  8
0
 62
     4
 10
0.182725
 20
2.75276
 30
0.0
 11
0.203396
 21
2.73888
 31
0.0
  0
LINE
  8
0
 62
     4
 10
0.203396
 20
2.73888
 30
0.0
 11
0.217285
 21
2.71821
 31
0.0
  0
LINE
  8
0
 62
     4
 10
0.217285
 20
2.71821
 30
0.0
 11
0.222439
 21
2.69293
 31
0.0
  0
LINE
  8
0
 62
     4
 10
0.222439
 20
2.69293
 30
0.0
 11
0.217285
 21
2.66769
 31
0.0
  0
LINE
  8
0
 62
     4
 10
0.217285
 20
2.66769
 30
0.0
 11
0.203396
 21
2.64703
 31
0.0
  0
LINE
  8
0
 62
     4
 10
0.203396
 20
2.64703
 30
0.0
 11
0.182725
 21
2.63314
 31
0.0
  0
LINE
  8
0
 62
     4
 10
0.182725
 20
2.63314
 30
0.0
 11
0.157497
 21
2.62799
 31
0.0
  0
LINE
  8
0
 62
     4
 10
0.157497
 20
2.62799
 30
0.0
 11
0.131782
 21
2.63331
 31
0.0
  0
LINE
  8
0
 62
     4
 10
0.131782
 20
2.63331
 30
0.0
 11
0.111003
 21
2.64762
 31
0.0
  0
LINE
  8
0
 62
     4
 10
0.111003
 20
2.64762
 30
0.0
 11
0.00585938
 21
2.64762
 31
0.0
  0
LINE
  8
0
 62
     4
 10
0.00585938
 20
2.64762
 30
0.0
 11
0.00585938
 21
2.45671
 31
0.0
  0
LINE
  8
0
 62
     4
 10
0.00585938
 20
2.45671
 30
0.0
 11
0
 21
2.45671
 31
0.0
  0
LINE
  8
0
 62
     4
 10
0
 20
2.45671
 30
0.0
 11
0
 21
2.26768
 31
0.0
  0
LINE
  8
0
 62
     4
 10
0
 20
2.26768
 30
0.0
 11
0.0236003
 21
2.24408
 31
0.0
  0
LINE
  8
0
 62
     4
 10
0.0236003
 20
2.24408
 30
0.0
 11
1.28738
 21
2.24408
 31
0.0
  0
LINE
  8
0
 62
     4
 10
1.28738
 20
2.24408
 30
0.0
 11
1.31103
 21
2.26768
 31
0.0
  0
LINE
  8
0
 62
     4
 10
1.31103
 20
2.26768
 30
0.0
 11
1.31103
 21
3.53153
 31
0.0
  0
LINE
  8
0
 62
     4
 10
1.31103
 20
3.53153
 30
0.0
 11
1.28738
 21
3.55512
 31
0.0
  0
LINE
  8
0
 62
     4
 10
3.69878
 20
0.100369
 30
0.0
 11
3.49013
 21
0.100369
 31
0.0
  0
LINE
  8
0
 62
     4
 10
3.49013
 20
0.100369
 30
0.0
 11
3.49013
 21
0.238172
 31
0.0
  0
LINE
  8
0
 62
     4
 10
3.49013
 20
0.238172
 30
0.0
 11
3.69878
 21
0.238172
 31
0.0
  0
LINE
  8
0
 62
     4
 10
3.69878
 20
0.238172
 30
0.0
 11
3.69878
 21
0.100369
 31
0.0
  0
LINE
  8
0
 62
     4
 10
4.77165
 20
0.212619
 30
0.0
 11
4.74804
 21
0.259819
 31
0.0
  0
LINE
  8
0
 62
     4
 10
4.74804
 20
0.259819
 30
0.0
 11
4.68896
 21
0.307075
 31
0.0
  0
LINE
  8
0
 62
     4
 10
4.68896
 20
0.307075
 30
0.0
 11
4.38189
 21
0.307075
 31
0.0
  0
LINE
  8
0
 62
     4
 10
4.38189
 20
0.307075
 30
0.0
 11
4.33464
 21
0.271647
 31
0.0
  0
LINE
  8
0
 62
     4
 10
4.33464
 20
0.271647
 30
0.0
 11
4.29921
 21
0.295301
 31
0.0
  0
LINE
  8
0
 62
     4
 10
4.29921
 20
0.295301
 30
0.0
 11
4.1811
 21
0.283419
 31
0.0
  0
LINE
  8
0
 62
     4
 10
4.1811
 20
0.283419
 30
0.0
 11
4.1575
 21
0.307075
 31
0.0
  0
LINE
  8
0
 62
     4
 10
4.1575
 20
0.307075
 30
0.0
 11
4.03939
 21
0.307075
 31
0.0
  0
LINE
  8
0
 62
     4
 10
4.03939
 20
0.307075
 30
0.0
 11
4.00396
 21
0.283419
 31
0.0
  0
LINE
  8
0
 62
     4
 10
4.00396
 20
0.283419
 30
0.0
 11
3.94488
 21
0.283419
 31
0.0
  0
LINE
  8
0
 62
     4
 10
3.94488
 20
0.283419
 30
0.0
 11
3.90944
 21
0.307075
 31
0.0
  0
LINE
  8
0
 62
     4
 10
3.90944
 20
0.307075
 30
0.0
 11
3.35433
 21
0.295301
 31
0.0
  0
LINE
  8
0
 62
     4
 10
3.35433
 20
0.295301
 30
0.0
 11
3.29531
 21
0.236219
 31
0.0
  0
LINE
  8
0
 62
     4
 10
3.29531
 20
0.236219
 30
0.0
 11
3.24804
 21
0.318847
 31
0.0
  0
LINE
  8
0
 62
     4
 10
3.24804
 20
0.318847
 30
0.0
 11
3.12993
 21
0.318847
 31
0.0
  0
LINE
  8
0
 62
     4
 10
3.12993
 20
0.318847
 30
0.0
 11
3.07086
 21
0.283419
 31
0.0
  0
LINE
  8
0
 62
     4
 10
3.07086
 20
0.283419
 30
0.0
 11
3.01183
 21
0.283419
 31
0.0
  0
LINE
  8
0
 62
     4
 10
3.01183
 20
0.283419
 30
0.0
 11
2.98817
 21
0.259819
 31
0.0
  0
LINE
  8
0
 62
     4
 10
2.98817
 20
0.259819
 30
0.0
 11
2.9764
 21
0.188965
 31
0.0
  0
LINE
  8
0
 62
     4
 10
2.9764
 20
0.188965
 30
0.0
 11
2.91732
 21
0.224392
 31
0.0
  0
LINE
  8
0
 62
     4
 10
2.91732
 20
0.224392
 30
0.0
 11
2.91732
 21
0.259819
 31
0.0
  0
LINE
  8
0
 62
     4
 10
2.91732
 20
0.259819
 30
0.0
 11
2.89372
 21
0.283419
 31
0.0
  0
LINE
  8
0
 62
     4
 10
2.89372
 20
0.283419
 30
0.0
 11
2.82281
 21
0.295301
 31
0.0
  0
LINE
  8
0
 62
     4
 10
2.82281
 20
0.295301
 30
0.0
 11
2.27951
 21
0.271647
 31
0.0
  0
LINE
  8
0
 62
     4
 10
2.27951
 20
0.271647
 30
0.0
 11
2.23226
 21
0.295301
 31
0.0
  0
LINE
  8
0
 62
     4
 10
2.23226
 20
0.295301
 30
0.0
 11
1.96061
 21
0.295301
 31
0.0
  0
LINE
  8
0
 62
     4
 10
1.96061
 20
0.295301
 30
0.0
 11
1.92518
 21
0.259819
 31
0.0
  0
LINE
  8
0
 62
     4
 10
1.92518
 20
0.259819
 30
0.0
 11
1.78342
 21
0.259819
 31
0.0
  0
LINE
  8
0
 62
     4
 10
1.78342
 20
0.259819
 30
0.0
 11
1.68896
 21
0.307075
 31
0.0
  0
LINE
  8
0
 62
     4
 10
1.68896
 20
0.307075
 30
0.0
 11
1.73622
 21
0.330675
 31
0.0
  0
LINE
  8
0
 62
     4
 10
1.73622
 20
0.330675
 30
0.0
 11
1.79531
 21
0.307075
 31
0.0
  0
LINE
  8
0
 62
     4
 10
1.79531
 20
0.307075
 30
0.0
 11
2.27951
 21
0.330675
 31
0.0
  0
LINE
  8
0
 62
     4
 10
2.27951
 20
0.330675
 30
0.0
 11
2.30311
 21
0.366103
 31
0.0
  0
LINE
  8
0
 62
     4
 10
2.30311
 20
0.366103
 30
0.0
 11
2.30311
 21
0.507867
 31
0.0
  0
LINE
  8
0
 62
     4
 10
2.30311
 20
0.507867
 30
0.0
 11
2.26768
 21
0.566894
 31
0.0
  0
LINE
  8
0
 62
     4
 10
2.26768
 20
0.566894
 30
0.0
 11
1.71262
 21
0.566894
 31
0.0
  0
LINE
  8
0
 62
     4
 10
1.71262
 20
0.566894
 30
0.0
 11
1.67719
 21
0.543294
 31
0.0
  0
LINE
  8
0
 62
     4
 10
1.67719
 20
0.543294
 30
0.0
 11
1.59451
 21
0.543294
 31
0.0
  0
LINE
  8
0
 62
     4
 10
1.59451
 20
0.543294
 30
0.0
 11
1.55908
 21
0.566894
 31
0.0
  0
LINE
  8
0
 62
     4
 10
1.55908
 20
0.566894
 30
0.0
 11
1.38189
 21
0.566894
 31
0.0
  0
LINE
  8
0
 62
     4
 10
1.38189
 20
0.566894
 30
0.0
 11
1.36415
 21
0.549154
 31
0.0
  0
LINE
  8
0
 62
     4
 10
1.36415
 20
0.549154
 30
0.0
 11
1.36415
 21
0.482314
 31
0.0
  0
LINE
  8
0
 62
     4
 10
1.36415
 20
0.482314
 30
0.0
 11
1.46924
 21
0.482314
 31
0.0
  0
LINE
  8
0
 62
     4
 10
1.46924
 20
0.482314
 30
0.0
 11
1.49007
 21
0.49669
 31
0.0
  0
LINE
  8
0
 62
     4
 10
1.49007
 20
0.49669
 30
0.0
 11
1.51574
 21
0.501953
 31
0.0
  0
LINE
  8
0
 62
     4
 10
1.51574
 20
0.501953
 30
0.0
 11
1.54096
 21
0.496853
 31
0.0
  0
LINE
  8
0
 62
     4
 10
1.54096
 20
0.496853
 30
0.0
 11
1.56164
 21
0.482964
 31
0.0
  0
LINE
  8
0
 62
     4
 10
1.56164
 20
0.482964
 30
0.0
 11
1.57553
 21
0.462294
 31
0.0
  0
LINE
  8
0
 62
     4
 10
1.57553
 20
0.462294
 30
0.0
 11
1.58068
 21
0.437011
 31
0.0
  0
LINE
  8
0
 62
     4
 10
1.58068
 20
0.437011
 30
0.0
 11
1.57553
 21
0.411729
 31
0.0
  0
LINE
  8
0
 62
     4
 10
1.57553
 20
0.411729
 30
0.0
 11
1.56164
 21
0.391114
 31
0.0
  0
LINE
  8
0
 62
     4
 10
1.56164
 20
0.391114
 30
0.0
 11
1.54096
 21
0.377169
 31
0.0
  0
LINE
  8
0
 62
     4
 10
1.54096
 20
0.377169
 30
0.0
 11
1.51574
 21
0.372017
 31
0.0
  0
LINE
  8
0
 62
     4
 10
1.51574
 20
0.372017
 30
0.0
 11
1.49001
 21
0.377333
 31
0.0
  0
LINE
  8
0
 62
     4
 10
1.49001
 20
0.377333
 30
0.0
 11
1.46924
 21
0.39171
 31
0.0
  0
LINE
  8
0
 62
     4
 10
1.46924
 20
0.39171
 30
0.0
 11
1.36415
 21
0.39171
 31
0.0
  0
LINE
  8
0
 62
     4
 10
1.36415
 20
0.39171
 30
0.0
 11
1.36415
 21
0.348469
 31
0.0
  0
LINE
  8
0
 62
     4
 10
1.36415
 20
0.348469
 30
0.0
 11
1.39372
 21
0.318847
 31
0.0
  0
LINE
  8
0
 62
     4
 10
1.39372
 20
0.318847
 30
0.0
 11
1.5236
 21
0.307075
 31
0.0
  0
LINE
  8
0
 62
     4
 10
1.5236
 20
0.307075
 30
0.0
 11
1.38189
 21
0.283419
 31
0.0
  0
LINE
  8
0
 62
     4
 10
1.38189
 20
0.283419
 30
0.0
 11
1.35824
 21
0.212619
 31
0.0
  0
LINE
  8
0
 62
     4
 10
1.35824
 20
0.212619
 30
0.0
 11
1.35824
 21
0.0590821
 31
0.0
  0
LINE
  8
0
 62
     4
 10
1.35824
 20
0.0590821
 30
0.0
 11
1.4764
 21
-0
 31
0.0
  0
LINE
  8
0
 62
     4
 10
1.4764
 20
-0
 30
0.0
 11
1.61811
 21
-0
 31
0.0
  0
LINE
  8
0
 62
     4
 10
1.61811
 20
-0
 30
0.0
 11
1.66531
 21
0.0354275
 31
0.0
  0
LINE
  8
0
 62
     4
 10
1.66531
 20
0.0354275
 30
0.0
 11
2.9764
 21
0.0236003
 31
0.0
  0
LINE
  8
0
 62
     4
 10
2.9764
 20
0.0236003
 30
0.0
 11
3.01183
 21
0.0472006
 31
0.0
  0
LINE
  8
0
 62
     4
 10
3.01183
 20
0.0472006
 30
0.0
 11
3.03543
 21
0.0236003
 31
0.0
  0
LINE
  8
0
 62
     4
 10
3.03543
 20
0.0236003
 30
0.0
 11
3.16536
 21
0.0236003
 31
0.0
  0
LINE
  8
0
 62
     4
 10
3.16536
 20
0.0236003
 30
0.0
 11
3.23622
 21
0.0826281
 31
0.0
  0
LINE
  8
0
 62
     4
 10
3.23622
 20
0.0826281
 30
0.0
 11
3.29531
 21
0.0826281
 31
0.0
  0
LINE
  8
0
 62
     4
 10
3.29531
 20
0.0826281
 30
0.0
 11
3.3425
 21
0.0354275
 31
0.0
  0
LINE
  8
0
 62
     4
 10
3.3425
 20
0.0354275
 30
0.0
 11
3.64963
 21
0.0118273
 31
0.0
  0
LINE
  8
0
 62
     4
 10
3.64963
 20
0.0118273
 30
0.0
 11
3.90944
 21
0.0118273
 31
0.0
  0
LINE
  8
0
 62
     4
 10
3.90944
 20
0.0118273
 30
0.0
 11
3.94488
 21
0.0354275
 31
0.0
  0
LINE
  8
0
 62
     4
 10
3.94488
 20
0.0354275
 30
0.0
 11
4.79531
 21
0.0236003
 31
0.0
  0
LINE
  8
0
 62
     4
 10
4.79531
 20
0.0236003
 30
0.0
 11
4.8189
 21
0.0472006
 31
0.0
  0
LINE
  8
0
 62
     4
 10
4.8189
 20
0.0472006
 30
0.0
 11
4.8189
 21
0.188965
 31
0.0
  0
LINE
  8
0
 62
     4
 10
4.8189
 20
0.188965
 30
0.0
 11
4.77165
 21
0.212619
 31
0.0
  0
LINE
  8
0
 62
     4
 10
0.820856
 20
4.17914
 30
0.0
 11
0.415364
 21
4.17914
 31
0.0
  0
LINE
  8
0
 62
     4
 10
0.415364
 20
4.17914
 30
0.0
 11
0.415364
 21
4.58464
 31
0.0
  0
LINE
  8
0
 62
     4
 10
0.415364
 20
4.58464
 30
0.0
 11
0.820856
 21
4.58464
 31
0.0
  0
LINE
  8
0
 62
     4
 10
0.820856
 20
4.58464
 30
0.0
 11
0.820856
 21
4.17914
 31
0.0
  0
LINE
  8
0
 62
     4
 10
1.28738
 20
5.03153
 30
0.0
 11
0.0236003
 21
5.03153
 31
0.0
  0
LINE
  8
0
 62
     4
 10
0.0236003
 20
5.03153
 30
0.0
 11
0
 21
5.00786
 31
0.0
  0
LINE
  8
0
 62
     4
 10
0
 20
5.00786
 30
0.0
 11
0
 21
3.74408
 31
0.0
  0
LINE
  8
0
 62
     4
 10
0
 20
3.74408
 30
0.0
 11
0.0236003
 21
3.72049
 31
0.0
  0
LINE
  8
0
 62
     4
 10
0.0236003
 20
3.72049
 30
0.0
 11
1.28738
 21
3.72049
 31
0.0
  0
LINE
  8
0
 62
     4
 10
1.28738
 20
3.72049
 30
0.0
 11
1.31103
 21
3.74408
 31
0.0
  0
LINE
  8
0
 62
     4
 10
1.31103
 20
3.74408
 30
0.0
 11
1.31103
 21
5.00786
 31
0.0
  0
LINE
  8
0
 62
     4
 10
1.31103
 20
5.00786
 30
0.0
 11
1.28738
 21
5.03153
 31
0.0
  0
LINE
  8
0
 62
     4
 10
3.79725
 20
4.35628
 30
0.0
 11
3.39171
 21
4.35628
 31
0.0
  0
LINE
  8
0
 62
     4
 10
3.39171
 20
4.35628
 30
0.0
 11
3.39171
 21
4.56494
 31
0.0
  0
LINE
  8
0
 62
     4
 10
3.39171
 20
4.56494
 30
0.0
 11
3.79725
 21
4.56494
 31
0.0
  0
LINE
  8
0
 62
     4
 10
3.79725
 20
4.56494
 30
0.0
 11
3.79725
 21
4.35628
 31
0.0
  0
LINE
  8
0
 62
     4
 10
5.42128
 20
4.68896
 30
0.0
 11
5.37403
 21
4.68896
 31
0.0
  0
LINE
  8
0
 62
     4
 10
5.37403
 20
4.68896
 30
0.0
 11
5.32676
 21
4.72439
 31
0.0
  0
LINE
  8
0
 62
     4
 10
5.32676
 20
4.72439
 30
0.0
 11
4.79531
 21
4.72439
 31
0.0
  0
LINE
  8
0
 62
     4
 10
4.79531
 20
4.72439
 30
0.0
 11
4.75982
 21
4.70079
 31
0.0
  0
LINE
  8
0
 62
     4
 10
4.75982
 20
4.70079
 30
0.0
 11
4.72439
 21
4.72439
 31
0.0
  0
LINE
  8
0
 62
     4
 10
4.72439
 20
4.72439
 30
0.0
 11
4.42914
 21
4.73622
 31
0.0
  0
LINE
  8
0
 62
     4
 10
4.42914
 20
4.73622
 30
0.0
 11
4.39372
 21
4.68896
 31
0.0
  0
LINE
  8
0
 62
     4
 10
4.39372
 20
4.68896
 30
0.0
 11
4.32281
 21
4.71262
 31
0.0
  0
LINE
  8
0
 62
     4
 10
4.32281
 20
4.71262
 30
0.0
 11
3.99214
 21
4.68896
 31
0.0
  0
LINE
  8
0
 62
     4
 10
3.99214
 20
4.68896
 30
0.0
 11
3.94488
 21
4.72439
 31
0.0
  0
LINE
  8
0
 62
     4
 10
3.94488
 20
4.72439
 30
0.0
 11
3.82676
 21
4.72439
 31
0.0
  0
LINE
  8
0
 62
     4
 10
3.82676
 20
4.72439
 30
0.0
 11
3.77951
 21
4.68896
 31
0.0
  0
LINE
  8
0
 62
     4
 10
3.77951
 20
4.68896
 30
0.0
 11
3.62597
 21
4.68896
 31
0.0
  0
LINE
  8
0
 62
     4
 10
3.62597
 20
4.68896
 30
0.0
 11
3.57872
 21
4.72439
 31
0.0
  0
LINE
  8
0
 62
     4
 10
3.57872
 20
4.72439
 30
0.0
 11
3.40158
 21
4.72439
 31
0.0
  0
LINE
  8
0
 62
     4
 10
3.40158
 20
4.72439
 30
0.0
 11
3.35433
 21
4.68896
 31
0.0
  0
LINE
  8
0
 62
     4
 10
3.35433
 20
4.68896
 30
0.0
 11
3.0236
 21
4.68896
 31
0.0
  0
LINE
  8
0
 62
     4
 10
3.0236
 20
4.68896
 30
0.0
 11
2.9764
 21
4.72439
 31
0.0
  0
LINE
  8
0
 62
     4
 10
2.9764
 20
4.72439
 30
0.0
 11
2.64561
 21
4.71262
 31
0.0
  0
LINE
  8
0
 62
     4
 10
2.64561
 20
4.71262
 30
0.0
 11
2.48031
 21
4.73622
 31
0.0
  0
LINE
  8
0
 62
     4
 10
2.48031
 20
4.73622
 30
0.0
 11
2.84646
 21
4.75982
 31
0.0
  0
LINE
  8
0
 62
     4
 10
2.84646
 20
4.75982
 30
0.0
 11
2.87007
 21
4.79531
 31
0.0
  0
LINE
  8
0
 62
     4
 10
2.87007
 20
4.79531
 30
0.0
 11
2.87007
 21
4.93701
 31
0.0
  0
LINE
  8
0
 62
     4
 10
2.87007
 20
4.93701
 30
0.0
 11
2.83464
 21
4.99604
 31
0.0
  0
LINE
  8
0
 62
     4
 10
2.83464
 20
4.99604
 30
0.0
 11
2.19683
 21
4.99604
 31
0.0
  0
LINE
  8
0
 62
     4
 10
2.19683
 20
4.99604
 30
0.0
 11
2.1614
 21
4.97244
 31
0.0
  0
LINE
  8
0
 62
     4
 10
2.1614
 20
4.97244
 30
0.0
 11
2.07872
 21
4.97244
 31
0.0
  0
LINE
  8
0
 62
     4
 10
2.07872
 20
4.97244
 30
0.0
 11
2.04329
 21
4.99604
 31
0.0
  0
LINE
  8
0
 62
     4
 10
2.04329
 20
4.99604
 30
0.0
 11
1.8661
 21
4.99604
 31
0.0
  0
LINE
  8
0
 62
     4
 10
1.8661
 20
4.99604
 30
0.0
 11
1.8425
 21
4.97244
 31
0.0
  0
LINE
  8
0
 62
     4
 10
1.8425
 20
4.97244
 30
0.0
 11
1.80707
 21
4.99604
 31
0.0
  0
LINE
  8
0
 62
     4
 10
1.80707
 20
4.99604
 30
0.0
 11
1.38189
 21
4.99604
 31
0.0
  0
LINE
  8
0
 62
     4
 10
1.38189
 20
4.99604
 30
0.0
 11
1.35824
 21
4.97244
 31
0.0
  0
LINE
  8
0
 62
     4
 10
1.35824
 20
4.97244
 30
0.0
 11
1.35824
 21
4.78347
 31
0.0
  0
LINE
  8
0
 62
     4
 10
1.35824
 20
4.78347
 30
0.0
 11
1.38189
 21
4.75982
 31
0.0
  0
LINE
  8
0
 62
     4
 10
1.38189
 20
4.75982
 30
0.0
 11
1.78342
 21
4.75982
 31
0.0
  0
LINE
  8
0
 62
     4
 10
1.78342
 20
4.75982
 30
0.0
 11
1.83072
 21
4.85433
 31
0.0
  0
LINE
  8
0
 62
     4
 10
1.83072
 20
4.85433
 30
0.0
 11
1.8425
 21
4.78347
 31
0.0
  0
LINE
  8
0
 62
     4
 10
1.8425
 20
4.78347
 30
0.0
 11
1.87793
 21
4.74804
 31
0.0
  0
LINE
  8
0
 62
     4
 10
1.87793
 20
4.74804
 30
0.0
 11
2.00786
 21
4.73622
 31
0.0
  0
LINE
  8
0
 62
     4
 10
2.00786
 20
4.73622
 30
0.0
 11
1.38189
 21
4.71262
 31
0.0
  0
LINE
  8
0
 62
     4
 10
1.38189
 20
4.71262
 30
0.0
 11
1.35824
 21
4.67719
 31
0.0
  0
LINE
  8
0
 62
     4
 10
1.35824
 20
4.67719
 30
0.0
 11
1.35824
 21
4.5
 31
0.0
  0
LINE
  8
0
 62
     4
 10
1.35824
 20
4.5
 30
0.0
 11
1.38189
 21
4.4764
 31
0.0
  0
LINE
  8
0
 62
     4
 10
1.38189
 20
4.4764
 30
0.0
 11
1.37006
 21
4.24018
 31
0.0
  0
LINE
  8
0
 62
     4
 10
1.37006
 20
4.24018
 30
0.0
 11
1.39372
 21
4.21653
 31
0.0
  0
LINE
  8
0
 62
     4
 10
1.39372
 20
4.21653
 30
0.0
 11
1.93701
 21
4.19293
 31
0.0
  0
LINE
  8
0
 62
     4
 10
1.93701
 20
4.19293
 30
0.0
 11
1.97244
 21
4.21653
 31
0.0
  0
LINE
  8
0
 62
     4
 10
1.97244
 20
4.21653
 30
0.0
 11
1.99604
 21
4.19293
 31
0.0
  0
LINE
  8
0
 62
     4
 10
1.99604
 20
4.19293
 30
0.0
 11
2.32676
 21
4.19293
 31
0.0
  0
LINE
  8
0
 62
     4
 10
2.32676
 20
4.19293
 30
0.0
 11
2.44488
 21
4.20469
 31
0.0
  0
LINE
  8
0
 62
     4
 10
2.44488
 20
4.20469
 30
0.0
 11
2.51574
 21
4.26378
 31
0.0
  0
LINE
  8
0
 62
     4
 10
2.51574
 20
4.26378
 30
0.0
 11
2.58658
 21
4.26378
 31
0.0
  0
LINE
  8
0
 62
     4
 10
2.58658
 20
4.26378
 30
0.0
 11
2.63385
 21
4.21653
 31
0.0
  0
LINE
  8
0
 62
     4
 10
2.63385
 20
4.21653
 30
0.0
 11
2.72831
 21
4.20469
 31
0.0
  0
LINE
  8
0
 62
     4
 10
2.72831
 20
4.20469
 30
0.0
 11
3.8386
 21
4.20469
 31
0.0
  0
LINE
  8
0
 62
     4
 10
3.8386
 20
4.20469
 30
0.0
 11
3.88585
 21
4.26378
 31
0.0
  0
LINE
  8
0
 62
     4
 10
3.88585
 20
4.26378
 30
0.0
 11
3.92128
 21
4.26378
 31
0.0
  0
LINE
  8
0
 62
     4
 10
3.92128
 20
4.26378
 30
0.0
 11
3.99214
 21
4.20469
 31
0.0
  0
LINE
  8
0
 62
     4
 10
3.99214
 20
4.20469
 30
0.0
 11
5.24408
 21
4.20469
 31
0.0
  0
LINE
  8
0
 62
     4
 10
5.24408
 20
4.20469
 30
0.0
 11
5.26774
 21
4.22835
 31
0.0
  0
LINE
  8
0
 62
     4
 10
5.26774
 20
4.22835
 30
0.0
 11
5.26774
 21
4.37007
 31
0.0
  0
LINE
  8
0
 62
     4
 10
5.26774
 20
4.37007
 30
0.0
 11
5.17324
 21
4.44092
 31
0.0
  0
LINE
  8
0
 62
     4
 10
5.17324
 20
4.44092
 30
0.0
 11
5.40944
 21
4.45275
 31
0.0
  0
LINE
  8
0
 62
     4
 10
5.40944
 20
4.45275
 30
0.0
 11
5.45671
 21
4.5
 31
0.0
  0
LINE
  8
0
 62
     4
 10
5.45671
 20
4.5
 30
0.0
 11
5.45671
 21
4.65354
 31
0.0
  0
LINE
  8
0
 62
     4
 10
5.45671
 20
4.65354
 30
0.0
 11
5.42128
 21
4.68896
 31
0.0
  0
ENDSEC
  0
EOF
