  0
SECTION
  2
HEADER
  9
$ACADVER
  1
AC1009
  9
$EXTMIN
 10
0.0
 20
0.0
 30
0.0
  9
$EXTMAX
 10
1000.0
 20
1000.0
 30
0.0
  9
$FILLMODE
 70
 0
  9
$SPLFRAME
 70
 1
  0
ENDSEC
  0
SECTION
  2
TABLES
  0
TABLE
  2
LAYER
 70
1
  0
LAYER
  2
0
 70
     0
 62
     7
  6
CONTINUOUS
  0
ENDTAB
  0
ENDSEC
  0
SECTION
  2
ENTITIES
  0
LINE
  8
0
 62
     160
 10
1.62597
 20
-0
 30
0.0
 11
1.48426
 21
-0
 31
0.0
  0
LINE
  8
0
 62
     160
 10
1.48426
 20
-0
 30
0.0
 11
1.48074
 21
0.000868056
 31
0.0
  0
LINE
  8
0
 62
     160
 10
1.48074
 20
0.000868056
 30
0.0
 11
1.36263
 21
0.0598958
 31
0.0
  0
LINE
  8
0
 62
     160
 10
1.36263
 20
0.0598958
 30
0.0
 11
1.35824
 21
0.0669488
 31
0.0
  0
LINE
  8
0
 62
     160
 10
1.35824
 20
0.0669488
 30
0.0
 11
1.35824
 21
0.220432
 31
0.0
  0
LINE
  8
0
 62
     160
 10
1.35824
 20
0.220432
 30
0.0
 11
1.35867
 21
0.222982
 31
0.0
  0
LINE
  8
0
 62
     160
 10
1.35867
 20
0.222982
 30
0.0
 11
1.38232
 21
0.293782
 31
0.0
  0
LINE
  8
0
 62
     160
 10
1.38232
 20
0.293782
 30
0.0
 11
1.38851
 21
0.2991
 31
0.0
  0
LINE
  8
0
 62
     160
 10
1.38851
 20
0.2991
 30
0.0
 11
1.46978
 21
0.312662
 31
0.0
  0
LINE
  8
0
 62
     160
 10
1.46978
 20
0.312662
 30
0.0
 11
1.40082
 21
0.318901
 31
0.0
  0
LINE
  8
0
 62
     160
 10
1.40082
 20
0.318901
 30
0.0
 11
1.40229
 21
0.334581
 31
0.0
  0
LINE
  8
0
 62
     160
 10
1.40229
 20
0.334581
 30
0.0
 11
1.53217
 21
0.322754
 31
0.0
  0
LINE
  8
0
 62
     160
 10
1.53217
 20
0.322754
 30
0.0
 11
1.53933
 21
0.315212
 31
0.0
  0
LINE
  8
0
 62
     160
 10
1.53933
 20
0.315212
 30
0.0
 11
1.53276
 21
0.307183
 31
0.0
  0
LINE
  8
0
 62
     160
 10
1.53276
 20
0.307183
 30
0.0
 11
1.39572
 21
0.284343
 31
0.0
  0
LINE
  8
0
 62
     160
 10
1.39572
 20
0.284343
 30
0.0
 11
1.37402
 21
0.219183
 31
0.0
  0
LINE
  8
0
 62
     160
 10
1.37402
 20
0.219183
 30
0.0
 11
1.37402
 21
0.0718317
 31
0.0
  0
LINE
  8
0
 62
     160
 10
1.37402
 20
0.0718317
 30
0.0
 11
1.48611
 21
0.0157878
 31
0.0
  0
LINE
  8
0
 62
     160
 10
1.48611
 20
0.0157878
 30
0.0
 11
1.62338
 21
0.0157878
 31
0.0
  0
LINE
  8
0
 62
     160
 10
1.62338
 20
0.0157878
 30
0.0
 11
1.66851
 21
0.0495876
 31
0.0
  0
LINE
  8
0
 62
     160
 10
1.66851
 20
0.0495876
 30
0.0
 11
1.67329
 21
0.0512153
 31
0.0
  0
LINE
  8
0
 62
     160
 10
1.67329
 20
0.0512153
 30
0.0
 11
2.98188
 21
0.0393338
 31
0.0
  0
LINE
  8
0
 62
     160
 10
2.98188
 20
0.0393338
 30
0.0
 11
3.01531
 21
0.0616863
 31
0.0
  0
LINE
  8
0
 62
     160
 10
3.01531
 20
0.0616863
 30
0.0
 11
3.02522
 21
0.0606554
 31
0.0
  0
LINE
  8
0
 62
     160
 10
3.02522
 20
0.0606554
 30
0.0
 11
3.04656
 21
0.0393338
 31
0.0
  0
LINE
  8
0
 62
     160
 10
3.04656
 20
0.0393338
 30
0.0
 11
3.17036
 21
0.0393338
 31
0.0
  0
LINE
  8
0
 62
     160
 10
3.17036
 20
0.0393338
 30
0.0
 11
3.23904
 21
0.0965711
 31
0.0
  0
LINE
  8
0
 62
     160
 10
3.23904
 20
0.0965711
 30
0.0
 11
3.24408
 21
0.0984158
 31
0.0
  0
LINE
  8
0
 62
     160
 10
3.24408
 20
0.0984158
 30
0.0
 11
3.30317
 21
0.0984158
 31
0.0
  0
LINE
  8
0
 62
     160
 10
3.30317
 20
0.0984158
 30
0.0
 11
3.30871
 21
0.0961372
 31
0.0
  0
LINE
  8
0
 62
     160
 10
3.30871
 20
0.0961372
 30
0.0
 11
3.35389
 21
0.0508897
 31
0.0
  0
LINE
  8
0
 62
     160
 10
3.35389
 20
0.0508897
 30
0.0
 11
3.6581
 21
0.0275608
 31
0.0
  0
LINE
  8
0
 62
     160
 10
3.6581
 20
0.0275608
 30
0.0
 11
3.91493
 21
0.0275608
 31
0.0
  0
LINE
  8
0
 62
     160
 10
3.91493
 20
0.0275608
 30
0.0
 11
3.9484
 21
0.0498589
 31
0.0
  0
LINE
  8
0
 62
     160
 10
3.9484
 20
0.0498589
 30
0.0
 11
3.95285
 21
0.051161
 31
0.0
  0
LINE
  8
0
 62
     160
 10
3.95285
 20
0.051161
 30
0.0
 11
4.79992
 21
0.0393881
 31
0.0
  0
LINE
  8
0
 62
     160
 10
4.79992
 20
0.0393881
 30
0.0
 11
4.81885
 21
0.0583225
 31
0.0
  0
LINE
  8
0
 62
     160
 10
4.81885
 20
0.0583225
 30
0.0
 11
4.81885
 21
0.191949
 31
0.0
  0
LINE
  8
0
 62
     160
 10
4.81885
 20
0.191949
 30
0.0
 11
4.77599
 21
0.213433
 31
0.0
  0
LINE
  8
0
 62
     160
 10
4.77599
 20
0.213433
 30
0.0
 11
4.77246
 21
0.216906
 31
0.0
  0
LINE
  8
0
 62
     160
 10
4.77246
 20
0.216906
 30
0.0
 11
4.74962
 21
0.262586
 31
0.0
  0
LINE
  8
0
 62
     160
 10
4.74962
 20
0.262586
 30
0.0
 11
4.69407
 21
0.307075
 31
0.0
  0
LINE
  8
0
 62
     160
 10
4.69407
 20
0.307075
 30
0.0
 11
4.46061
 21
0.307075
 31
0.0
  0
LINE
  8
0
 62
     160
 10
4.46061
 20
0.307075
 30
0.0
 11
4.46061
 21
0.322808
 31
0.0
  0
LINE
  8
0
 62
     160
 10
4.46061
 20
0.322808
 30
0.0
 11
4.69683
 21
0.322808
 31
0.0
  0
LINE
  8
0
 62
     160
 10
4.69683
 20
0.322808
 30
0.0
 11
4.70176
 21
0.321072
 31
0.0
  0
LINE
  8
0
 62
     160
 10
4.70176
 20
0.321072
 30
0.0
 11
4.76079
 21
0.273872
 31
0.0
  0
LINE
  8
0
 62
     160
 10
4.76079
 20
0.273872
 30
0.0
 11
4.76292
 21
0.271213
 31
0.0
  0
LINE
  8
0
 62
     160
 10
4.76292
 20
0.271213
 30
0.0
 11
4.78537
 21
0.226346
 31
0.0
  0
LINE
  8
0
 62
     160
 10
4.78537
 20
0.226346
 30
0.0
 11
4.83029
 21
0.203885
 31
0.0
  0
LINE
  8
0
 62
     160
 10
4.83029
 20
0.203885
 30
0.0
 11
4.83464
 21
0.196832
 31
0.0
  0
LINE
  8
0
 62
     160
 10
4.83464
 20
0.196832
 30
0.0
 11
4.83464
 21
0.0551215
 31
0.0
  0
LINE
  8
0
 62
     160
 10
4.83464
 20
0.0551215
 30
0.0
 11
4.83231
 21
0.0495335
 31
0.0
  0
LINE
  8
0
 62
     160
 10
4.83231
 20
0.0495335
 30
0.0
 11
4.80871
 21
0.0258789
 31
0.0
  0
LINE
  8
0
 62
     160
 10
4.80871
 20
0.0258789
 30
0.0
 11
4.80317
 21
0.0236003
 31
0.0
  0
LINE
  8
0
 62
     160
 10
4.80317
 20
0.0236003
 30
0.0
 11
4.80306
 21
0.0236003
 31
0.0
  0
LINE
  8
0
 62
     160
 10
4.80306
 20
0.0236003
 30
0.0
 11
3.95508
 21
0.0354275
 31
0.0
  0
LINE
  8
0
 62
     160
 10
3.95508
 20
0.0354275
 30
0.0
 11
3.92165
 21
0.0131293
 31
0.0
  0
LINE
  8
0
 62
     160
 10
3.92165
 20
0.0131293
 30
0.0
 11
3.91732
 21
0.0118273
 31
0.0
  0
LINE
  8
0
 62
     160
 10
3.91732
 20
0.0118273
 30
0.0
 11
3.6575
 21
0.0118273
 31
0.0
  0
LINE
  8
0
 62
     160
 10
3.6575
 20
0.0118273
 30
0.0
 11
3.34978
 21
0.0354818
 31
0.0
  0
LINE
  8
0
 62
     160
 10
3.34978
 20
0.0354818
 30
0.0
 11
3.34478
 21
0.0377604
 31
0.0
  0
LINE
  8
0
 62
     160
 10
3.34478
 20
0.0377604
 30
0.0
 11
3.29992
 21
0.0826281
 31
0.0
  0
LINE
  8
0
 62
     160
 10
3.29992
 20
0.0826281
 30
0.0
 11
3.24696
 21
0.0826281
 31
0.0
  0
LINE
  8
0
 62
     160
 10
3.24696
 20
0.0826281
 30
0.0
 11
3.17828
 21
0.0253906
 31
0.0
  0
LINE
  8
0
 62
     160
 10
3.17828
 20
0.0253906
 30
0.0
 11
3.17324
 21
0.0236003
 31
0.0
  0
LINE
  8
0
 62
     160
 10
3.17324
 20
0.0236003
 30
0.0
 11
3.04329
 21
0.0236003
 31
0.0
  0
LINE
  8
0
 62
     160
 10
3.04329
 20
0.0236003
 30
0.0
 11
3.03771
 21
0.0258789
 31
0.0
  0
LINE
  8
0
 62
     160
 10
3.03771
 20
0.0258789
 30
0.0
 11
3.01867
 21
0.0449761
 31
0.0
  0
LINE
  8
0
 62
     160
 10
3.01867
 20
0.0449761
 30
0.0
 11
2.98861
 21
0.0249567
 31
0.0
  0
LINE
  8
0
 62
     160
 10
2.98861
 20
0.0249567
 30
0.0
 11
2.98415
 21
0.0236003
 31
0.0
  0
LINE
  8
0
 62
     160
 10
2.98415
 20
0.0236003
 30
0.0
 11
1.67578
 21
0.0354275
 31
0.0
  0
LINE
  8
0
 62
     160
 10
1.67578
 20
0.0354275
 30
0.0
 11
1.63069
 21
0.00157335
 31
0.0
  0
LINE
  8
0
 62
     160
 10
1.63069
 20
0.00157335
 30
0.0
 11
1.62597
 21
-0
 31
0.0
  0
LINE
  8
0
 62
     160
 10
2.98426
 20
0.188965
 30
0.0
 11
2.98019
 21
0.190104
 31
0.0
  0
LINE
  8
0
 62
     160
 10
2.98019
 20
0.190104
 30
0.0
 11
2.92111
 21
0.225478
 31
0.0
  0
LINE
  8
0
 62
     160
 10
2.92111
 20
0.225478
 30
0.0
 11
2.91732
 21
0.23226
 31
0.0
  0
LINE
  8
0
 62
     160
 10
2.91732
 20
0.23226
 30
0.0
 11
2.91732
 21
0.264432
 31
0.0
  0
LINE
  8
0
 62
     160
 10
2.91732
 20
0.264432
 30
0.0
 11
2.89779
 21
0.283962
 31
0.0
  0
LINE
  8
0
 62
     160
 10
2.89779
 20
0.283962
 30
0.0
 11
2.83018
 21
0.295247
 31
0.0
  0
LINE
  8
0
 62
     160
 10
2.83018
 20
0.295247
 30
0.0
 11
2.28776
 21
0.271647
 31
0.0
  0
LINE
  8
0
 62
     160
 10
2.28776
 20
0.271647
 30
0.0
 11
2.28386
 21
0.272461
 31
0.0
  0
LINE
  8
0
 62
     160
 10
2.28386
 20
0.272461
 30
0.0
 11
2.23828
 21
0.295301
 31
0.0
  0
LINE
  8
0
 62
     160
 10
2.23828
 20
0.295301
 30
0.0
 11
1.97179
 21
0.295301
 31
0.0
  0
LINE
  8
0
 62
     160
 10
1.97179
 20
0.295301
 30
0.0
 11
1.93864
 21
0.262099
 31
0.0
  0
LINE
  8
0
 62
     160
 10
1.93864
 20
0.262099
 30
0.0
 11
1.93306
 21
0.259819
 31
0.0
  0
LINE
  8
0
 62
     160
 10
1.93306
 20
0.259819
 30
0.0
 11
1.79135
 21
0.259819
 31
0.0
  0
LINE
  8
0
 62
     160
 10
1.79135
 20
0.259819
 30
0.0
 11
1.78782
 21
0.260688
 31
0.0
  0
LINE
  8
0
 62
     160
 10
1.78782
 20
0.260688
 30
0.0
 11
1.69331
 21
0.307943
 31
0.0
  0
LINE
  8
0
 62
     160
 10
1.69331
 20
0.307943
 30
0.0
 11
1.68896
 21
0.314942
 31
0.0
  0
LINE
  8
0
 62
     160
 10
1.68896
 20
0.314942
 30
0.0
 11
1.69331
 21
0.321994
 31
0.0
  0
LINE
  8
0
 62
     160
 10
1.69331
 20
0.321994
 30
0.0
 11
1.74056
 21
0.345649
 31
0.0
  0
LINE
  8
0
 62
     160
 10
1.74056
 20
0.345649
 30
0.0
 11
1.74701
 21
0.345865
 31
0.0
  0
LINE
  8
0
 62
     160
 10
1.74701
 20
0.345865
 30
0.0
 11
1.80447
 21
0.322862
 31
0.0
  0
LINE
  8
0
 62
     160
 10
1.80447
 20
0.322862
 30
0.0
 11
2.28304
 21
0.346246
 31
0.0
  0
LINE
  8
0
 62
     160
 10
2.28304
 20
0.346246
 30
0.0
 11
2.30311
 21
0.376411
 31
0.0
  0
LINE
  8
0
 62
     160
 10
2.30311
 20
0.376411
 30
0.0
 11
2.30311
 21
0.513564
 31
0.0
  0
LINE
  8
0
 62
     160
 10
2.30311
 20
0.513564
 30
0.0
 11
2.27111
 21
0.566949
 31
0.0
  0
LINE
  8
0
 62
     160
 10
2.27111
 20
0.566949
 30
0.0
 11
1.72287
 21
0.566949
 31
0.0
  0
LINE
  8
0
 62
     160
 10
1.72287
 20
0.566949
 30
0.0
 11
1.6894
 21
0.54465
 31
0.0
  0
LINE
  8
0
 62
     160
 10
1.6894
 20
0.54465
 30
0.0
 11
1.68506
 21
0.543294
 31
0.0
  0
LINE
  8
0
 62
     160
 10
1.68506
 20
0.543294
 30
0.0
 11
1.60238
 21
0.543294
 31
0.0
  0
LINE
  8
0
 62
     160
 10
1.60238
 20
0.543294
 30
0.0
 11
1.59799
 21
0.54465
 31
0.0
  0
LINE
  8
0
 62
     160
 10
1.59799
 20
0.54465
 30
0.0
 11
1.56478
 21
0.566786
 31
0.0
  0
LINE
  8
0
 62
     160
 10
1.56478
 20
0.566786
 30
0.0
 11
1.37842
 21
0.555122
 31
0.0
  0
LINE
  8
0
 62
     160
 10
1.37842
 20
0.555122
 30
0.0
 11
1.37744
 21
0.570856
 31
0.0
  0
LINE
  8
0
 62
     160
 10
1.37744
 20
0.570856
 30
0.0
 11
1.56646
 21
0.582628
 31
0.0
  0
LINE
  8
0
 62
     160
 10
1.56646
 20
0.582628
 30
0.0
 11
1.57129
 21
0.581381
 31
0.0
  0
LINE
  8
0
 62
     160
 10
1.57129
 20
0.581381
 30
0.0
 11
1.60476
 21
0.559082
 31
0.0
  0
LINE
  8
0
 62
     160
 10
1.60476
 20
0.559082
 30
0.0
 11
1.68267
 21
0.559082
 31
0.0
  0
LINE
  8
0
 62
     160
 10
1.68267
 20
0.559082
 30
0.0
 11
1.7161
 21
0.581381
 31
0.0
  0
LINE
  8
0
 62
     160
 10
1.7161
 20
0.581381
 30
0.0
 11
1.72049
 21
0.582682
 31
0.0
  0
LINE
  8
0
 62
     160
 10
1.72049
 20
0.582682
 30
0.0
 11
2.27561
 21
0.582682
 31
0.0
  0
LINE
  8
0
 62
     160
 10
2.27561
 20
0.582682
 30
0.0
 11
2.28233
 21
0.578885
 31
0.0
  0
LINE
  8
0
 62
     160
 10
2.28233
 20
0.578885
 30
0.0
 11
2.31776
 21
0.519803
 31
0.0
  0
LINE
  8
0
 62
     160
 10
2.31776
 20
0.519803
 30
0.0
 11
2.3189
 21
0.515733
 31
0.0
  0
LINE
  8
0
 62
     160
 10
2.3189
 20
0.515733
 30
0.0
 11
2.3189
 21
0.374024
 31
0.0
  0
LINE
  8
0
 62
     160
 10
2.3189
 20
0.374024
 30
0.0
 11
2.31754
 21
0.369629
 31
0.0
  0
LINE
  8
0
 62
     160
 10
2.31754
 20
0.369629
 30
0.0
 11
2.29394
 21
0.334201
 31
0.0
  0
LINE
  8
0
 62
     160
 10
2.29394
 20
0.334201
 30
0.0
 11
2.28776
 21
0.330729
 31
0.0
  0
LINE
  8
0
 62
     160
 10
2.28776
 20
0.330729
 30
0.0
 11
1.80354
 21
0.307075
 31
0.0
  0
LINE
  8
0
 62
     160
 10
1.80354
 20
0.307075
 30
0.0
 11
1.80024
 21
0.307671
 31
0.0
  0
LINE
  8
0
 62
     160
 10
1.80024
 20
0.307671
 30
0.0
 11
1.74447
 21
0.329969
 31
0.0
  0
LINE
  8
0
 62
     160
 10
1.74447
 20
0.329969
 30
0.0
 11
1.71446
 21
0.314942
 31
0.0
  0
LINE
  8
0
 62
     160
 10
1.71446
 20
0.314942
 30
0.0
 11
1.79318
 21
0.275608
 31
0.0
  0
LINE
  8
0
 62
     160
 10
1.79318
 20
0.275608
 30
0.0
 11
1.92979
 21
0.275608
 31
0.0
  0
LINE
  8
0
 62
     160
 10
1.92979
 20
0.275608
 30
0.0
 11
1.96289
 21
0.308703
 31
0.0
  0
LINE
  8
0
 62
     160
 10
1.96289
 20
0.308703
 30
0.0
 11
1.96847
 21
0.311035
 31
0.0
  0
LINE
  8
0
 62
     160
 10
1.96847
 20
0.311035
 30
0.0
 11
2.24013
 21
0.311035
 31
0.0
  0
LINE
  8
0
 62
     160
 10
2.24013
 20
0.311035
 30
0.0
 11
2.24365
 21
0.310167
 31
0.0
  0
LINE
  8
0
 62
     160
 10
2.24365
 20
0.310167
 30
0.0
 11
2.28906
 21
0.287489
 31
0.0
  0
LINE
  8
0
 62
     160
 10
2.28906
 20
0.287489
 30
0.0
 11
2.83035
 21
0.311035
 31
0.0
  0
LINE
  8
0
 62
     160
 10
2.83035
 20
0.311035
 30
0.0
 11
2.83197
 21
0.310926
 31
0.0
  0
LINE
  8
0
 62
     160
 10
2.83197
 20
0.310926
 30
0.0
 11
2.90289
 21
0.2991
 31
0.0
  0
LINE
  8
0
 62
     160
 10
2.90289
 20
0.2991
 30
0.0
 11
2.90711
 21
0.296875
 31
0.0
  0
LINE
  8
0
 62
     160
 10
2.90711
 20
0.296875
 30
0.0
 11
2.93078
 21
0.273275
 31
0.0
  0
LINE
  8
0
 62
     160
 10
2.93078
 20
0.273275
 30
0.0
 11
2.93306
 21
0.267686
 31
0.0
  0
LINE
  8
0
 62
     160
 10
2.93306
 20
0.267686
 30
0.0
 11
2.93306
 21
0.236762
 31
0.0
  0
LINE
  8
0
 62
     160
 10
2.93306
 20
0.236762
 30
0.0
 11
2.97835
 21
0.209526
 31
0.0
  0
LINE
  8
0
 62
     160
 10
2.97835
 20
0.209526
 30
0.0
 11
2.98828
 21
0.268989
 31
0.0
  0
LINE
  8
0
 62
     160
 10
2.98828
 20
0.268989
 30
0.0
 11
2.99044
 21
0.273275
 31
0.0
  0
LINE
  8
0
 62
     160
 10
2.99044
 20
0.273275
 30
0.0
 11
3.01411
 21
0.296875
 31
0.0
  0
LINE
  8
0
 62
     160
 10
3.01411
 20
0.296875
 30
0.0
 11
3.01969
 21
0.299208
 31
0.0
  0
LINE
  8
0
 62
     160
 10
3.01969
 20
0.299208
 30
0.0
 11
3.07656
 21
0.299208
 31
0.0
  0
LINE
  8
0
 62
     160
 10
3.07656
 20
0.299208
 30
0.0
 11
3.13374
 21
0.333496
 31
0.0
  0
LINE
  8
0
 62
     160
 10
3.13374
 20
0.333496
 30
0.0
 11
3.13781
 21
0.334636
 31
0.0
  0
LINE
  8
0
 62
     160
 10
3.13781
 20
0.334636
 30
0.0
 11
3.25592
 21
0.334636
 31
0.0
  0
LINE
  8
0
 62
     160
 10
3.25592
 20
0.334636
 30
0.0
 11
3.26275
 21
0.330675
 31
0.0
  0
LINE
  8
0
 62
     160
 10
3.26275
 20
0.330675
 30
0.0
 11
3.30485
 21
0.256944
 31
0.0
  0
LINE
  8
0
 62
     160
 10
3.30485
 20
0.256944
 30
0.0
 11
3.35667
 21
0.308757
 31
0.0
  0
LINE
  8
0
 62
     160
 10
3.35667
 20
0.308757
 30
0.0
 11
3.36203
 21
0.311035
 31
0.0
  0
LINE
  8
0
 62
     160
 10
3.36203
 20
0.311035
 30
0.0
 11
3.91715
 21
0.322808
 31
0.0
  0
LINE
  8
0
 62
     160
 10
3.91715
 20
0.322808
 30
0.0
 11
3.92165
 21
0.321506
 31
0.0
  0
LINE
  8
0
 62
     160
 10
3.92165
 20
0.321506
 30
0.0
 11
3.95514
 21
0.299208
 31
0.0
  0
LINE
  8
0
 62
     160
 10
3.95514
 20
0.299208
 30
0.0
 11
4.01183
 21
0.299208
 31
0.0
  0
LINE
  8
0
 62
     160
 10
4.01183
 20
0.299208
 30
0.0
 11
4.01183
 21
0.283419
 31
0.0
  0
LINE
  8
0
 62
     160
 10
4.01183
 20
0.283419
 30
0.0
 11
3.95275
 21
0.283419
 31
0.0
  0
LINE
  8
0
 62
     160
 10
3.95275
 20
0.283419
 30
0.0
 11
3.9484
 21
0.284776
 31
0.0
  0
LINE
  8
0
 62
     160
 10
3.9484
 20
0.284776
 30
0.0
 11
3.91499
 21
0.307021
 31
0.0
  0
LINE
  8
0
 62
     160
 10
3.91499
 20
0.307021
 30
0.0
 11
3.36556
 21
0.295356
 31
0.0
  0
LINE
  8
0
 62
     160
 10
3.36556
 20
0.295356
 30
0.0
 11
3.30871
 21
0.238553
 31
0.0
  0
LINE
  8
0
 62
     160
 10
3.30871
 20
0.238553
 30
0.0
 11
3.30208
 21
0.236328
 31
0.0
  0
LINE
  8
0
 62
     160
 10
3.30208
 20
0.236328
 30
0.0
 11
3.29633
 21
0.240181
 31
0.0
  0
LINE
  8
0
 62
     160
 10
3.29633
 20
0.240181
 30
0.0
 11
3.25131
 21
0.318847
 31
0.0
  0
LINE
  8
0
 62
     160
 10
3.25131
 20
0.318847
 30
0.0
 11
3.13997
 21
0.318847
 31
0.0
  0
LINE
  8
0
 62
     160
 10
3.13997
 20
0.318847
 30
0.0
 11
3.08279
 21
0.28456
 31
0.0
  0
LINE
  8
0
 62
     160
 10
3.08279
 20
0.28456
 30
0.0
 11
3.07872
 21
0.283419
 31
0.0
  0
LINE
  8
0
 62
     160
 10
3.07872
 20
0.283419
 30
0.0
 11
3.02294
 21
0.283419
 31
0.0
  0
LINE
  8
0
 62
     160
 10
3.02294
 20
0.283419
 30
0.0
 11
3.00342
 21
0.263943
 31
0.0
  0
LINE
  8
0
 62
     160
 10
3.00342
 20
0.263943
 30
0.0
 11
2.99203
 21
0.195529
 31
0.0
  0
LINE
  8
0
 62
     160
 10
2.99203
 20
0.195529
 30
0.0
 11
2.98753
 21
0.189669
 31
0.0
  0
LINE
  8
0
 62
     160
 10
2.98753
 20
0.189669
 30
0.0
 11
2.98426
 21
0.188965
 31
0.0
  0
LINE
  8
0
 62
     160
 10
5.21653
 20
2.97635
 30
0.0
 11
5.21647
 21
2.97635
 31
0.0
  0
LINE
  8
0
 62
     160
 10
5.21647
 20
2.97635
 30
0.0
 11
4.46056
 21
2.98307
 31
0.0
  0
LINE
  8
0
 62
     160
 10
4.46056
 20
2.98307
 30
0.0
 11
4.46067
 21
2.99886
 31
0.0
  0
LINE
  8
0
 62
     160
 10
4.46067
 20
2.99886
 30
0.0
 11
5.21506
 21
2.99214
 31
0.0
  0
LINE
  8
0
 62
     160
 10
5.21506
 20
2.99214
 30
0.0
 11
5.27115
 21
3.0146
 31
0.0
  0
LINE
  8
0
 62
     160
 10
5.27115
 20
3.0146
 30
0.0
 11
5.31494
 21
3.05838
 31
0.0
  0
LINE
  8
0
 62
     160
 10
5.31494
 20
3.05838
 30
0.0
 11
5.31494
 21
3.16997
 31
0.0
  0
LINE
  8
0
 62
     160
 10
5.31494
 20
3.16997
 30
0.0
 11
5.29596
 21
3.18896
 31
0.0
  0
LINE
  8
0
 62
     160
 10
5.29596
 20
3.18896
 30
0.0
 11
5.25196
 21
3.18896
 31
0.0
  0
LINE
  8
0
 62
     160
 10
5.25196
 20
3.18896
 30
0.0
 11
5.24582
 21
3.19189
 31
0.0
  0
LINE
  8
0
 62
     160
 10
5.24582
 20
3.19189
 30
0.0
 11
5.20101
 21
3.24789
 31
0.0
  0
LINE
  8
0
 62
     160
 10
5.20101
 20
3.24789
 30
0.0
 11
4.50814
 21
3.22439
 31
0.0
  0
LINE
  8
0
 62
     160
 10
4.50814
 20
3.22439
 30
0.0
 11
4.50433
 21
3.22521
 31
0.0
  0
LINE
  8
0
 62
     160
 10
4.50433
 20
3.22521
 30
0.0
 11
4.45876
 21
3.24799
 31
0.0
  0
LINE
  8
0
 62
     160
 10
4.45876
 20
3.24799
 30
0.0
 11
4.19222
 21
3.24799
 31
0.0
  0
LINE
  8
0
 62
     160
 10
4.19222
 20
3.24799
 30
0.0
 11
4.15907
 21
3.2149
 31
0.0
  0
LINE
  8
0
 62
     160
 10
4.15907
 20
3.2149
 30
0.0
 11
4.15354
 21
3.21257
 31
0.0
  0
LINE
  8
0
 62
     160
 10
4.15354
 20
3.21257
 30
0.0
 11
4.01183
 21
3.21257
 31
0.0
  0
LINE
  8
0
 62
     160
 10
4.01183
 20
3.21257
 30
0.0
 11
4.00711
 21
3.21419
 31
0.0
  0
LINE
  8
0
 62
     160
 10
4.00711
 20
3.21419
 30
0.0
 11
3.96192
 21
3.24799
 31
0.0
  0
LINE
  8
0
 62
     160
 10
3.96192
 20
3.24799
 30
0.0
 11
3.47114
 21
3.24799
 31
0.0
  0
LINE
  8
0
 62
     160
 10
3.47114
 20
3.24799
 30
0.0
 11
3.426
 21
3.21419
 31
0.0
  0
LINE
  8
0
 62
     160
 10
3.426
 20
3.21419
 30
0.0
 11
3.42128
 21
3.21257
 31
0.0
  0
LINE
  8
0
 62
     160
 10
3.42128
 20
3.21257
 30
0.0
 11
3.25592
 21
3.21257
 31
0.0
  0
LINE
  8
0
 62
     160
 10
3.25592
 20
3.21257
 30
0.0
 11
3.25119
 21
3.21419
 31
0.0
  0
LINE
  8
0
 62
     160
 10
3.25119
 20
3.21419
 30
0.0
 11
3.206
 21
3.24799
 31
0.0
  0
LINE
  8
0
 62
     160
 10
3.206
 20
3.24799
 30
0.0
 11
2.98687
 21
3.24799
 31
0.0
  0
LINE
  8
0
 62
     160
 10
2.98687
 20
3.24799
 30
0.0
 11
2.94174
 21
3.21419
 31
0.0
  0
LINE
  8
0
 62
     160
 10
2.94174
 20
3.21419
 30
0.0
 11
2.93701
 21
3.21257
 31
0.0
  0
LINE
  8
0
 62
     160
 10
2.93701
 20
3.21257
 30
0.0
 11
2.86615
 21
3.21257
 31
0.0
  0
LINE
  8
0
 62
     160
 10
2.86615
 20
3.21257
 30
0.0
 11
2.86143
 21
3.21419
 31
0.0
  0
LINE
  8
0
 62
     160
 10
2.86143
 20
3.21419
 30
0.0
 11
2.81625
 21
3.24799
 31
0.0
  0
LINE
  8
0
 62
     160
 10
2.81625
 20
3.24799
 30
0.0
 11
2.65354
 21
3.24799
 31
0.0
  0
LINE
  8
0
 62
     160
 10
2.65354
 20
3.24799
 30
0.0
 11
2.64561
 21
3.25592
 31
0.0
  0
LINE
  8
0
 62
     160
 10
2.64561
 20
3.25592
 30
0.0
 11
2.64561
 21
3.27951
 31
0.0
  0
LINE
  8
0
 62
     160
 10
2.64561
 20
3.27951
 30
0.0
 11
2.65354
 21
3.28737
 31
0.0
  0
LINE
  8
0
 62
     160
 10
2.65354
 20
3.28737
 30
0.0
 11
2.82829
 21
3.28737
 31
0.0
  0
LINE
  8
0
 62
     160
 10
2.82829
 20
3.28737
 30
0.0
 11
2.85856
 21
3.30757
 31
0.0
  0
LINE
  8
0
 62
     160
 10
2.85856
 20
3.30757
 30
0.0
 11
2.8699
 21
3.46658
 31
0.0
  0
LINE
  8
0
 62
     160
 10
2.8699
 20
3.46658
 30
0.0
 11
2.83806
 21
3.51964
 31
0.0
  0
LINE
  8
0
 62
     160
 10
2.83806
 20
3.51964
 30
0.0
 11
2.47635
 21
3.51964
 31
0.0
  0
LINE
  8
0
 62
     160
 10
2.47635
 20
3.51964
 30
0.0
 11
2.47635
 21
3.53543
 31
0.0
  0
LINE
  8
0
 62
     160
 10
2.47635
 20
3.53543
 30
0.0
 11
2.8425
 21
3.53543
 31
0.0
  0
LINE
  8
0
 62
     160
 10
2.8425
 20
3.53543
 30
0.0
 11
2.84928
 21
3.53157
 31
0.0
  0
LINE
  8
0
 62
     160
 10
2.84928
 20
3.53157
 30
0.0
 11
2.88471
 21
3.47254
 31
0.0
  0
LINE
  8
0
 62
     160
 10
2.88471
 20
3.47254
 30
0.0
 11
2.88579
 21
3.46793
 31
0.0
  0
LINE
  8
0
 62
     160
 10
2.88579
 20
3.46793
 30
0.0
 11
2.87397
 21
3.30257
 31
0.0
  0
LINE
  8
0
 62
     160
 10
2.87397
 20
3.30257
 30
0.0
 11
2.8705
 21
3.2966
 31
0.0
  0
LINE
  8
0
 62
     160
 10
2.8705
 20
3.2966
 30
0.0
 11
2.83507
 21
3.27294
 31
0.0
  0
LINE
  8
0
 62
     160
 10
2.83507
 20
3.27294
 30
0.0
 11
2.83068
 21
3.27165
 31
0.0
  0
LINE
  8
0
 62
     160
 10
2.83068
 20
3.27165
 30
0.0
 11
2.6614
 21
3.27165
 31
0.0
  0
LINE
  8
0
 62
     160
 10
2.6614
 20
3.27165
 30
0.0
 11
2.6614
 21
3.26378
 31
0.0
  0
LINE
  8
0
 62
     160
 10
2.6614
 20
3.26378
 30
0.0
 11
2.8189
 21
3.26378
 31
0.0
  0
LINE
  8
0
 62
     160
 10
2.8189
 20
3.26378
 30
0.0
 11
2.82362
 21
3.26221
 31
0.0
  0
LINE
  8
0
 62
     160
 10
2.82362
 20
3.26221
 30
0.0
 11
2.86876
 21
3.22835
 31
0.0
  0
LINE
  8
0
 62
     160
 10
2.86876
 20
3.22835
 30
0.0
 11
2.93435
 21
3.22835
 31
0.0
  0
LINE
  8
0
 62
     160
 10
2.93435
 20
3.22835
 30
0.0
 11
2.97954
 21
3.26221
 31
0.0
  0
LINE
  8
0
 62
     160
 10
2.97954
 20
3.26221
 30
0.0
 11
2.98426
 21
3.26378
 31
0.0
  0
LINE
  8
0
 62
     160
 10
2.98426
 20
3.26378
 30
0.0
 11
3.20865
 21
3.26378
 31
0.0
  0
LINE
  8
0
 62
     160
 10
3.20865
 20
3.26378
 30
0.0
 11
3.21338
 21
3.26221
 31
0.0
  0
LINE
  8
0
 62
     160
 10
3.21338
 20
3.26221
 30
0.0
 11
3.25851
 21
3.22835
 31
0.0
  0
LINE
  8
0
 62
     160
 10
3.25851
 20
3.22835
 30
0.0
 11
3.41863
 21
3.22835
 31
0.0
  0
LINE
  8
0
 62
     160
 10
3.41863
 20
3.22835
 30
0.0
 11
3.46376
 21
3.26221
 31
0.0
  0
LINE
  8
0
 62
     160
 10
3.46376
 20
3.26221
 30
0.0
 11
3.46847
 21
3.26378
 31
0.0
  0
LINE
  8
0
 62
     160
 10
3.46847
 20
3.26378
 30
0.0
 11
3.96457
 21
3.26378
 31
0.0
  0
LINE
  8
0
 62
     160
 10
3.96457
 20
3.26378
 30
0.0
 11
3.96929
 21
3.26221
 31
0.0
  0
LINE
  8
0
 62
     160
 10
3.96929
 20
3.26221
 30
0.0
 11
4.01443
 21
3.22835
 31
0.0
  0
LINE
  8
0
 62
     160
 10
4.01443
 20
3.22835
 30
0.0
 11
4.15028
 21
3.22835
 31
0.0
  0
LINE
  8
0
 62
     160
 10
4.15028
 20
3.22835
 30
0.0
 11
4.18343
 21
3.26144
 31
0.0
  0
LINE
  8
0
 62
     160
 10
4.18343
 20
3.26144
 30
0.0
 11
4.18896
 21
3.26378
 31
0.0
  0
LINE
  8
0
 62
     160
 10
4.18896
 20
3.26378
 30
0.0
 11
4.46061
 21
3.26378
 31
0.0
  0
LINE
  8
0
 62
     160
 10
4.46061
 20
3.26378
 30
0.0
 11
4.46414
 21
3.26292
 31
0.0
  0
LINE
  8
0
 62
     160
 10
4.46414
 20
3.26292
 30
0.0
 11
4.5096
 21
3.24024
 31
0.0
  0
LINE
  8
0
 62
     160
 10
4.5096
 20
3.24024
 30
0.0
 11
5.20443
 21
3.26378
 31
0.0
  0
LINE
  8
0
 62
     160
 10
5.20443
 20
3.26378
 30
0.0
 11
5.21083
 21
3.26079
 31
0.0
  0
LINE
  8
0
 62
     160
 10
5.21083
 20
3.26079
 30
0.0
 11
5.25575
 21
3.20469
 31
0.0
  0
LINE
  8
0
 62
     160
 10
5.25575
 20
3.20469
 30
0.0
 11
5.29921
 21
3.20469
 31
0.0
  0
LINE
  8
0
 62
     160
 10
5.29921
 20
3.20469
 30
0.0
 11
5.30474
 21
3.20242
 31
0.0
  0
LINE
  8
0
 62
     160
 10
5.30474
 20
3.20242
 30
0.0
 11
5.3284
 21
3.17876
 31
0.0
  0
LINE
  8
0
 62
     160
 10
5.3284
 20
3.17876
 30
0.0
 11
5.33068
 21
3.17324
 31
0.0
  0
LINE
  8
0
 62
     160
 10
5.33068
 20
3.17324
 30
0.0
 11
5.33068
 21
3.05512
 31
0.0
  0
LINE
  8
0
 62
     160
 10
5.33068
 20
3.05512
 30
0.0
 11
5.3284
 21
3.04953
 31
0.0
  0
LINE
  8
0
 62
     160
 10
5.3284
 20
3.04953
 30
0.0
 11
5.28114
 21
3.00233
 31
0.0
  0
LINE
  8
0
 62
     160
 10
5.28114
 20
3.00233
 30
0.0
 11
5.27854
 21
3.00054
 31
0.0
  0
LINE
  8
0
 62
     160
 10
5.27854
 20
3.00054
 30
0.0
 11
5.21946
 21
2.97694
 31
0.0
  0
LINE
  8
0
 62
     160
 10
5.21946
 20
2.97694
 30
0.0
 11
5.21653
 21
2.97635
 31
0.0
  0
LINE
  8
0
 62
     160
 10
2.39372
 20
2.71653
 30
0.0
 11
2.3935
 21
2.71653
 31
0.0
  0
LINE
  8
0
 62
     160
 10
2.3935
 20
2.71653
 30
0.0
 11
1.93283
 21
2.72835
 31
0.0
  0
LINE
  8
0
 62
     160
 10
1.93283
 20
2.72835
 30
0.0
 11
1.92871
 21
2.72965
 31
0.0
  0
LINE
  8
0
 62
     160
 10
1.92871
 20
2.72965
 30
0.0
 11
1.89865
 21
2.74968
 31
0.0
  0
LINE
  8
0
 62
     160
 10
1.89865
 20
2.74968
 30
0.0
 11
1.87956
 21
2.73062
 31
0.0
  0
LINE
  8
0
 62
     160
 10
1.87956
 20
2.73062
 30
0.0
 11
1.87403
 21
2.72831
 31
0.0
  0
LINE
  8
0
 62
     160
 10
1.87403
 20
2.72831
 30
0.0
 11
1.76768
 21
2.72831
 31
0.0
  0
LINE
  8
0
 62
     160
 10
1.76768
 20
2.72831
 30
0.0
 11
1.76156
 21
2.73128
 31
0.0
  0
LINE
  8
0
 62
     160
 10
1.76156
 20
2.73128
 30
0.0
 11
1.71669
 21
2.78737
 31
0.0
  0
LINE
  8
0
 62
     160
 10
1.71669
 20
2.78737
 30
0.0
 11
1.67572
 21
2.78737
 31
0.0
  0
LINE
  8
0
 62
     160
 10
1.67572
 20
2.78737
 30
0.0
 11
1.59511
 21
2.72982
 31
0.0
  0
LINE
  8
0
 62
     160
 10
1.59511
 20
2.72982
 30
0.0
 11
1.59056
 21
2.72831
 31
0.0
  0
LINE
  8
0
 62
     160
 10
1.59056
 20
2.72831
 30
0.0
 11
1.43701
 21
2.72831
 31
0.0
  0
LINE
  8
0
 62
     160
 10
1.43701
 20
2.72831
 30
0.0
 11
1.43349
 21
2.72917
 31
0.0
  0
LINE
  8
0
 62
     160
 10
1.43349
 20
2.72917
 30
0.0
 11
1.36263
 21
2.7646
 31
0.0
  0
LINE
  8
0
 62
     160
 10
1.36263
 20
2.7646
 30
0.0
 11
1.35824
 21
2.77165
 31
0.0
  0
LINE
  8
0
 62
     160
 10
1.35824
 20
2.77165
 30
0.0
 11
1.35824
 21
2.90158
 31
0.0
  0
LINE
  8
0
 62
     160
 10
1.35824
 20
2.90158
 30
0.0
 11
1.35867
 21
2.90408
 31
0.0
  0
LINE
  8
0
 62
     160
 10
1.35867
 20
2.90408
 30
0.0
 11
1.38184
 21
2.97353
 31
0.0
  0
LINE
  8
0
 62
     160
 10
1.38184
 20
2.97353
 30
0.0
 11
1.37006
 21
3.23193
 31
0.0
  0
LINE
  8
0
 62
     160
 10
1.37006
 20
3.23193
 30
0.0
 11
1.37386
 21
3.23904
 31
0.0
  0
LINE
  8
0
 62
     160
 10
1.37386
 20
3.23904
 30
0.0
 11
1.43294
 21
3.27447
 31
0.0
  0
LINE
  8
0
 62
     160
 10
1.43294
 20
3.27447
 30
0.0
 11
1.43701
 21
3.27556
 31
0.0
  0
LINE
  8
0
 62
     160
 10
1.43701
 20
3.27556
 30
0.0
 11
1.74408
 21
3.27556
 31
0.0
  0
LINE
  8
0
 62
     160
 10
1.74408
 20
3.27556
 30
0.0
 11
1.74761
 21
3.27474
 31
0.0
  0
LINE
  8
0
 62
     160
 10
1.74761
 20
3.27474
 30
0.0
 11
1.79318
 21
3.25196
 31
0.0
  0
LINE
  8
0
 62
     160
 10
1.79318
 20
3.25196
 30
0.0
 11
1.90707
 21
3.25196
 31
0.0
  0
LINE
  8
0
 62
     160
 10
1.90707
 20
3.25196
 30
0.0
 11
1.92469
 21
3.26372
 31
0.0
  0
LINE
  8
0
 62
     160
 10
1.92469
 20
3.26372
 30
0.0
 11
1.88428
 21
3.27181
 31
0.0
  0
LINE
  8
0
 62
     160
 10
1.88428
 20
3.27181
 30
0.0
 11
1.88026
 21
3.27399
 31
0.0
  0
LINE
  8
0
 62
     160
 10
1.88026
 20
3.27399
 30
0.0
 11
1.84478
 21
3.3094
 31
0.0
  0
LINE
  8
0
 62
     160
 10
1.84478
 20
3.3094
 30
0.0
 11
1.84261
 21
3.31364
 31
0.0
  0
LINE
  8
0
 62
     160
 10
1.84261
 20
3.31364
 30
0.0
 11
1.83479
 21
3.36062
 31
0.0
  0
LINE
  8
0
 62
     160
 10
1.83479
 20
3.36062
 30
0.0
 11
1.79833
 21
3.28782
 31
0.0
  0
LINE
  8
0
 62
     160
 10
1.79833
 20
3.28782
 30
0.0
 11
1.79135
 21
3.28342
 31
0.0
  0
LINE
  8
0
 62
     160
 10
1.79135
 20
3.28342
 30
0.0
 11
1.38975
 21
3.28342
 31
0.0
  0
LINE
  8
0
 62
     160
 10
1.38975
 20
3.28342
 30
0.0
 11
1.38417
 21
3.28575
 31
0.0
  0
LINE
  8
0
 62
     160
 10
1.38417
 20
3.28575
 30
0.0
 11
1.36057
 21
3.3094
 31
0.0
  0
LINE
  8
0
 62
     160
 10
1.36057
 20
3.3094
 30
0.0
 11
1.35824
 21
3.31494
 31
0.0
  0
LINE
  8
0
 62
     160
 10
1.35824
 20
3.31494
 30
0.0
 11
1.35824
 21
3.5039
 31
0.0
  0
LINE
  8
0
 62
     160
 10
1.35824
 20
3.5039
 30
0.0
 11
1.36057
 21
3.5095
 31
0.0
  0
LINE
  8
0
 62
     160
 10
1.36057
 20
3.5095
 30
0.0
 11
1.38417
 21
3.5331
 31
0.0
  0
LINE
  8
0
 62
     160
 10
1.38417
 20
3.5331
 30
0.0
 11
1.38975
 21
3.53543
 31
0.0
  0
LINE
  8
0
 62
     160
 10
1.38975
 20
3.53543
 30
0.0
 11
1.81494
 21
3.53543
 31
0.0
  0
LINE
  8
0
 62
     160
 10
1.81494
 20
3.53543
 30
0.0
 11
1.81933
 21
3.53407
 31
0.0
  0
LINE
  8
0
 62
     160
 10
1.81933
 20
3.53407
 30
0.0
 11
1.84939
 21
3.51406
 31
0.0
  0
LINE
  8
0
 62
     160
 10
1.84939
 20
3.51406
 30
0.0
 11
1.86843
 21
3.5331
 31
0.0
  0
LINE
  8
0
 62
     160
 10
1.86843
 20
3.5331
 30
0.0
 11
1.87403
 21
3.53543
 31
0.0
  0
LINE
  8
0
 62
     160
 10
1.87403
 20
3.53543
 30
0.0
 11
2.02756
 21
3.53543
 31
0.0
  0
LINE
  8
0
 62
     160
 10
2.02756
 20
3.53543
 30
0.0
 11
2.02756
 21
3.51964
 31
0.0
  0
LINE
  8
0
 62
     160
 10
2.02756
 20
3.51964
 30
0.0
 11
1.87728
 21
3.51964
 31
0.0
  0
LINE
  8
0
 62
     160
 10
1.87728
 20
3.51964
 30
0.0
 11
1.85596
 21
3.49837
 31
0.0
  0
LINE
  8
0
 62
     160
 10
1.85596
 20
3.49837
 30
0.0
 11
1.84603
 21
3.49735
 31
0.0
  0
LINE
  8
0
 62
     160
 10
1.84603
 20
3.49735
 30
0.0
 11
1.81256
 21
3.51964
 31
0.0
  0
LINE
  8
0
 62
     160
 10
1.81256
 20
3.51964
 30
0.0
 11
1.39301
 21
3.51964
 31
0.0
  0
LINE
  8
0
 62
     160
 10
1.39301
 20
3.51964
 30
0.0
 11
1.37402
 21
3.50065
 31
0.0
  0
LINE
  8
0
 62
     160
 10
1.37402
 20
3.50065
 30
0.0
 11
1.37402
 21
3.31819
 31
0.0
  0
LINE
  8
0
 62
     160
 10
1.37402
 20
3.31819
 30
0.0
 11
1.39301
 21
3.29921
 31
0.0
  0
LINE
  8
0
 62
     160
 10
1.39301
 20
3.29921
 30
0.0
 11
1.78646
 21
3.29921
 31
0.0
  0
LINE
  8
0
 62
     160
 10
1.78646
 20
3.29921
 30
0.0
 11
1.83154
 21
3.38932
 31
0.0
  0
LINE
  8
0
 62
     160
 10
1.83154
 20
3.38932
 30
0.0
 11
1.83974
 21
3.39361
 31
0.0
  0
LINE
  8
0
 62
     160
 10
1.83974
 20
3.39361
 30
0.0
 11
1.84636
 21
3.3871
 31
0.0
  0
LINE
  8
0
 62
     160
 10
1.84636
 20
3.3871
 30
0.0
 11
1.85775
 21
3.31874
 31
0.0
  0
LINE
  8
0
 62
     160
 10
1.85775
 20
3.31874
 30
0.0
 11
1.88971
 21
3.28678
 31
0.0
  0
LINE
  8
0
 62
     160
 10
1.88971
 20
3.28678
 30
0.0
 11
1.9464
 21
3.27539
 31
0.0
  0
LINE
  8
0
 62
     160
 10
1.9464
 20
3.27539
 30
0.0
 11
1.95258
 21
3.26921
 31
0.0
  0
LINE
  8
0
 62
     160
 10
1.95258
 20
3.26921
 30
0.0
 11
1.94922
 21
3.26112
 31
0.0
  0
LINE
  8
0
 62
     160
 10
1.94922
 20
3.26112
 30
0.0
 11
1.91379
 21
3.23753
 31
0.0
  0
LINE
  8
0
 62
     160
 10
1.91379
 20
3.23753
 30
0.0
 11
1.90944
 21
3.23622
 31
0.0
  0
LINE
  8
0
 62
     160
 10
1.90944
 20
3.23622
 30
0.0
 11
1.79135
 21
3.23622
 31
0.0
  0
LINE
  8
0
 62
     160
 10
1.79135
 20
3.23622
 30
0.0
 11
1.78782
 21
3.23703
 31
0.0
  0
LINE
  8
0
 62
     160
 10
1.78782
 20
3.23703
 30
0.0
 11
1.74224
 21
3.25982
 31
0.0
  0
LINE
  8
0
 62
     160
 10
1.74224
 20
3.25982
 30
0.0
 11
1.43918
 21
3.25982
 31
0.0
  0
LINE
  8
0
 62
     160
 10
1.43918
 20
3.25982
 30
0.0
 11
1.38601
 21
3.22792
 31
0.0
  0
LINE
  8
0
 62
     160
 10
1.38601
 20
3.22792
 30
0.0
 11
1.39762
 21
2.97276
 31
0.0
  0
LINE
  8
0
 62
     160
 10
1.39762
 20
2.97276
 30
0.0
 11
1.39725
 21
2.96994
 31
0.0
  0
LINE
  8
0
 62
     160
 10
1.39725
 20
2.96994
 30
0.0
 11
1.37402
 21
2.90028
 31
0.0
  0
LINE
  8
0
 62
     160
 10
1.37402
 20
2.90028
 30
0.0
 11
1.37402
 21
2.77647
 31
0.0
  0
LINE
  8
0
 62
     160
 10
1.37402
 20
2.77647
 30
0.0
 11
1.43886
 21
2.74408
 31
0.0
  0
LINE
  8
0
 62
     160
 10
1.43886
 20
2.74408
 30
0.0
 11
1.588
 21
2.74408
 31
0.0
  0
LINE
  8
0
 62
     160
 10
1.588
 20
2.74408
 30
0.0
 11
1.66868
 21
2.80165
 31
0.0
  0
LINE
  8
0
 62
     160
 10
1.66868
 20
2.80165
 30
0.0
 11
1.67324
 21
2.80311
 31
0.0
  0
LINE
  8
0
 62
     160
 10
1.67324
 20
2.80311
 30
0.0
 11
1.72049
 21
2.80311
 31
0.0
  0
LINE
  8
0
 62
     160
 10
1.72049
 20
2.80311
 30
0.0
 11
1.72661
 21
2.80018
 31
0.0
  0
LINE
  8
0
 62
     160
 10
1.72661
 20
2.80018
 30
0.0
 11
1.77149
 21
2.74408
 31
0.0
  0
LINE
  8
0
 62
     160
 10
1.77149
 20
2.74408
 30
0.0
 11
1.87076
 21
2.74408
 31
0.0
  0
LINE
  8
0
 62
     160
 10
1.87076
 20
2.74408
 30
0.0
 11
1.89208
 21
2.7654
 31
0.0
  0
LINE
  8
0
 62
     160
 10
1.89208
 20
2.7654
 30
0.0
 11
1.90201
 21
2.76639
 31
0.0
  0
LINE
  8
0
 62
     160
 10
1.90201
 20
2.76639
 30
0.0
 11
1.93554
 21
2.74403
 31
0.0
  0
LINE
  8
0
 62
     160
 10
1.93554
 20
2.74403
 30
0.0
 11
2.39285
 21
2.73232
 31
0.0
  0
LINE
  8
0
 62
     160
 10
2.39285
 20
2.73232
 30
0.0
 11
2.48628
 21
2.75564
 31
0.0
  0
LINE
  8
0
 62
     160
 10
2.48628
 20
2.75564
 30
0.0
 11
2.48828
 21
2.75592
 31
0.0
  0
LINE
  8
0
 62
     160
 10
2.48828
 20
2.75592
 30
0.0
 11
3.51253
 21
2.74408
 31
0.0
  0
LINE
  8
0
 62
     160
 10
3.51253
 20
2.74408
 30
0.0
 11
3.53147
 21
2.76307
 31
0.0
  0
LINE
  8
0
 62
     160
 10
3.53147
 20
2.76307
 30
0.0
 11
3.53147
 21
2.89762
 31
0.0
  0
LINE
  8
0
 62
     160
 10
3.53147
 20
2.89762
 30
0.0
 11
3.44015
 21
2.96614
 31
0.0
  0
LINE
  8
0
 62
     160
 10
3.44015
 20
2.96614
 30
0.0
 11
3.43701
 21
2.97185
 31
0.0
  0
LINE
  8
0
 62
     160
 10
3.43701
 20
2.97185
 30
0.0
 11
3.43929
 21
2.97797
 31
0.0
  0
LINE
  8
0
 62
     160
 10
3.43929
 20
2.97797
 30
0.0
 11
3.45111
 21
2.98981
 31
0.0
  0
LINE
  8
0
 62
     160
 10
3.45111
 20
2.98981
 30
0.0
 11
3.45611
 21
2.99208
 31
0.0
  0
LINE
  8
0
 62
     160
 10
3.45611
 20
2.99208
 30
0.0
 11
3.60965
 21
3.0039
 31
0.0
  0
LINE
  8
0
 62
     160
 10
3.60965
 20
3.0039
 30
0.0
 11
3.61301
 21
3.00342
 31
0.0
  0
LINE
  8
0
 62
     160
 10
3.61301
 20
3.00342
 30
0.0
 11
3.70611
 21
2.96847
 31
0.0
  0
LINE
  8
0
 62
     160
 10
3.70611
 20
2.96847
 30
0.0
 11
3.84381
 21
2.96847
 31
0.0
  0
LINE
  8
0
 62
     160
 10
3.84381
 20
2.96847
 30
0.0
 11
3.889
 21
3.00233
 31
0.0
  0
LINE
  8
0
 62
     160
 10
3.889
 20
3.00233
 30
0.0
 11
3.89378
 21
3.0039
 31
0.0
  0
LINE
  8
0
 62
     160
 10
3.89378
 20
3.0039
 30
0.0
 11
4.01188
 21
3.00288
 31
0.0
  0
LINE
  8
0
 62
     160
 10
4.01188
 20
3.00288
 30
0.0
 11
4.01172
 21
2.98708
 31
0.0
  0
LINE
  8
0
 62
     160
 10
4.01172
 20
2.98708
 30
0.0
 11
3.89626
 21
2.98817
 31
0.0
  0
LINE
  8
0
 62
     160
 10
3.89626
 20
2.98817
 30
0.0
 11
3.85118
 21
2.95432
 31
0.0
  0
LINE
  8
0
 62
     160
 10
3.85118
 20
2.95432
 30
0.0
 11
3.84646
 21
2.95275
 31
0.0
  0
LINE
  8
0
 62
     160
 10
3.84646
 20
2.95275
 30
0.0
 11
3.70469
 21
2.95275
 31
0.0
  0
LINE
  8
0
 62
     160
 10
3.70469
 20
2.95275
 30
0.0
 11
3.70193
 21
2.95324
 31
0.0
  0
LINE
  8
0
 62
     160
 10
3.70193
 20
2.95324
 30
0.0
 11
3.6091
 21
2.98807
 31
0.0
  0
LINE
  8
0
 62
     160
 10
3.6091
 20
2.98807
 30
0.0
 11
3.46018
 21
2.97661
 31
0.0
  0
LINE
  8
0
 62
     160
 10
3.46018
 20
2.97661
 30
0.0
 11
3.45688
 21
2.97325
 31
0.0
  0
LINE
  8
0
 62
     160
 10
3.45688
 20
2.97325
 30
0.0
 11
3.54411
 21
2.90788
 31
0.0
  0
LINE
  8
0
 62
     160
 10
3.54411
 20
2.90788
 30
0.0
 11
3.54725
 21
2.90158
 31
0.0
  0
LINE
  8
0
 62
     160
 10
3.54725
 20
2.90158
 30
0.0
 11
3.54725
 21
2.75982
 31
0.0
  0
LINE
  8
0
 62
     160
 10
3.54725
 20
2.75982
 30
0.0
 11
3.54492
 21
2.75424
 31
0.0
  0
LINE
  8
0
 62
     160
 10
3.54492
 20
2.75424
 30
0.0
 11
3.52132
 21
2.73062
 31
0.0
  0
LINE
  8
0
 62
     160
 10
3.52132
 20
2.73062
 30
0.0
 11
3.51574
 21
2.72831
 31
0.0
  0
LINE
  8
0
 62
     160
 10
3.51574
 20
2.72831
 30
0.0
 11
3.51563
 21
2.72835
 31
0.0
  0
LINE
  8
0
 62
     160
 10
3.51563
 20
2.72835
 30
0.0
 11
2.4891
 21
2.74013
 31
0.0
  0
LINE
  8
0
 62
     160
 10
2.4891
 20
2.74013
 30
0.0
 11
2.39561
 21
2.71674
 31
0.0
  0
LINE
  8
0
 62
     160
 10
2.39561
 20
2.71674
 30
0.0
 11
2.39372
 21
2.71653
 31
0.0
  0
LINE
  8
0
 62
     160
 10
1.94488
 20
4.19287
 30
0.0
 11
1.94456
 21
4.19293
 31
0.0
  0
LINE
  8
0
 62
     160
 10
1.94456
 20
4.19293
 30
0.0
 11
1.40126
 21
4.21653
 31
0.0
  0
LINE
  8
0
 62
     160
 10
1.40126
 20
4.21653
 30
0.0
 11
1.396
 21
4.21881
 31
0.0
  0
LINE
  8
0
 62
     160
 10
1.396
 20
4.21881
 30
0.0
 11
1.3724
 21
4.24246
 31
0.0
  0
LINE
  8
0
 62
     160
 10
1.3724
 20
4.24246
 30
0.0
 11
1.38352
 21
4.25358
 31
0.0
  0
LINE
  8
0
 62
     160
 10
1.38352
 20
4.25358
 30
0.0
 11
1.40494
 21
4.23215
 31
0.0
  0
LINE
  8
0
 62
     160
 10
1.40494
 20
4.23215
 30
0.0
 11
1.94265
 21
4.20876
 31
0.0
  0
LINE
  8
0
 62
     160
 10
1.94265
 20
4.20876
 30
0.0
 11
1.97597
 21
4.23096
 31
0.0
  0
LINE
  8
0
 62
     160
 10
1.97597
 20
4.23096
 30
0.0
 11
1.98383
 21
4.23144
 31
0.0
  0
LINE
  8
0
 62
     160
 10
1.98383
 20
4.23144
 30
0.0
 11
2.03108
 21
4.20779
 31
0.0
  0
LINE
  8
0
 62
     160
 10
2.03108
 20
4.20779
 30
0.0
 11
2.02403
 21
4.19374
 31
0.0
  0
LINE
  8
0
 62
     160
 10
2.02403
 20
4.19374
 30
0.0
 11
1.9809
 21
4.21533
 31
0.0
  0
LINE
  8
0
 62
     160
 10
1.9809
 20
4.21533
 30
0.0
 11
1.94922
 21
4.19422
 31
0.0
  0
LINE
  8
0
 62
     160
 10
1.94922
 20
4.19422
 30
0.0
 11
1.94488
 21
4.19287
 31
0.0
  0
LINE
  8
0
 62
     160
 10
5.25196
 20
4.20469
 30
0.0
 11
4
 21
4.20469
 31
0.0
  0
LINE
  8
0
 62
     160
 10
4
 20
4.20469
 30
0.0
 11
3.99496
 21
4.20654
 31
0.0
  0
LINE
  8
0
 62
     160
 10
3.99496
 20
4.20654
 30
0.0
 11
3.92626
 21
4.26372
 31
0.0
  0
LINE
  8
0
 62
     160
 10
3.92626
 20
4.26372
 30
0.0
 11
3.89746
 21
4.26372
 31
0.0
  0
LINE
  8
0
 62
     160
 10
3.89746
 20
4.26372
 30
0.0
 11
3.8526
 21
4.20763
 31
0.0
  0
LINE
  8
0
 62
     160
 10
3.8526
 20
4.20763
 30
0.0
 11
3.84646
 21
4.20469
 31
0.0
  0
LINE
  8
0
 62
     160
 10
3.84646
 20
4.20469
 30
0.0
 11
2.73622
 21
4.20469
 31
0.0
  0
LINE
  8
0
 62
     160
 10
2.73622
 20
4.20469
 30
0.0
 11
2.64074
 21
4.21658
 31
0.0
  0
LINE
  8
0
 62
     160
 10
2.64074
 20
4.21658
 30
0.0
 11
2.63618
 21
4.21881
 31
0.0
  0
LINE
  8
0
 62
     160
 10
2.63618
 20
4.21881
 30
0.0
 11
2.59119
 21
4.26372
 31
0.0
  0
LINE
  8
0
 62
     160
 10
2.59119
 20
4.26372
 30
0.0
 11
2.52647
 21
4.26372
 31
0.0
  0
LINE
  8
0
 62
     160
 10
2.52647
 20
4.26372
 30
0.0
 11
2.48139
 21
4.22629
 31
0.0
  0
LINE
  8
0
 62
     160
 10
2.48139
 20
4.22629
 30
0.0
 11
2.47136
 21
4.23839
 31
0.0
  0
LINE
  8
0
 62
     160
 10
2.47136
 20
4.23839
 30
0.0
 11
2.51861
 21
4.27767
 31
0.0
  0
LINE
  8
0
 62
     160
 10
2.51861
 20
4.27767
 30
0.0
 11
2.5236
 21
4.27951
 31
0.0
  0
LINE
  8
0
 62
     160
 10
2.5236
 20
4.27951
 30
0.0
 11
2.59446
 21
4.27951
 31
0.0
  0
LINE
  8
0
 62
     160
 10
2.59446
 20
4.27951
 30
0.0
 11
2.60004
 21
4.27718
 31
0.0
  0
LINE
  8
0
 62
     160
 10
2.60004
 20
4.27718
 30
0.0
 11
2.6454
 21
4.23188
 31
0.0
  0
LINE
  8
0
 62
     160
 10
2.6454
 20
4.23188
 30
0.0
 11
2.73719
 21
4.22038
 31
0.0
  0
LINE
  8
0
 62
     160
 10
2.73719
 20
4.22038
 30
0.0
 11
3.84267
 21
4.22043
 31
0.0
  0
LINE
  8
0
 62
     160
 10
3.84267
 20
4.22043
 30
0.0
 11
3.88753
 21
4.27653
 31
0.0
  0
LINE
  8
0
 62
     160
 10
3.88753
 20
4.27653
 30
0.0
 11
3.89372
 21
4.27951
 31
0.0
  0
LINE
  8
0
 62
     160
 10
3.89372
 20
4.27951
 30
0.0
 11
3.92914
 21
4.27951
 31
0.0
  0
LINE
  8
0
 62
     160
 10
3.92914
 20
4.27951
 30
0.0
 11
3.93419
 21
4.27767
 31
0.0
  0
LINE
  8
0
 62
     160
 10
3.93419
 20
4.27767
 30
0.0
 11
4.00282
 21
4.22043
 31
0.0
  0
LINE
  8
0
 62
     160
 10
4.00282
 20
4.22043
 30
0.0
 11
5.24869
 21
4.22043
 31
0.0
  0
LINE
  8
0
 62
     160
 10
5.24869
 20
4.22043
 30
0.0
 11
5.26768
 21
4.23947
 31
0.0
  0
LINE
  8
0
 62
     160
 10
5.26768
 20
4.23947
 30
0.0
 11
5.26768
 21
4.37403
 31
0.0
  0
LINE
  8
0
 62
     160
 10
5.26768
 20
4.37403
 30
0.0
 11
5.17638
 21
4.44249
 31
0.0
  0
LINE
  8
0
 62
     160
 10
5.17638
 20
4.44249
 30
0.0
 11
5.17356
 21
4.45111
 31
0.0
  0
LINE
  8
0
 62
     160
 10
5.17356
 20
4.45111
 30
0.0
 11
5.18067
 21
4.45665
 31
0.0
  0
LINE
  8
0
 62
     160
 10
5.18067
 20
4.45665
 30
0.0
 11
5.4139
 21
4.46832
 31
0.0
  0
LINE
  8
0
 62
     160
 10
5.4139
 20
4.46832
 30
0.0
 11
5.45665
 21
4.51112
 31
0.0
  0
LINE
  8
0
 62
     160
 10
5.45665
 20
4.51112
 30
0.0
 11
5.45665
 21
4.65815
 31
0.0
  0
LINE
  8
0
 62
     160
 10
5.45665
 20
4.65815
 30
0.0
 11
5.42589
 21
4.68896
 31
0.0
  0
LINE
  8
0
 62
     160
 10
5.42589
 20
4.68896
 30
0.0
 11
5.38189
 21
4.68896
 31
0.0
  0
LINE
  8
0
 62
     160
 10
5.38189
 20
4.68896
 30
0.0
 11
5.37717
 21
4.69054
 31
0.0
  0
LINE
  8
0
 62
     160
 10
5.37717
 20
4.69054
 30
0.0
 11
5.33203
 21
4.72439
 31
0.0
  0
LINE
  8
0
 62
     160
 10
5.33203
 20
4.72439
 30
0.0
 11
4.80556
 21
4.72439
 31
0.0
  0
LINE
  8
0
 62
     160
 10
4.80556
 20
4.72439
 30
0.0
 11
4.77208
 21
4.7021
 31
0.0
  0
LINE
  8
0
 62
     160
 10
4.77208
 20
4.7021
 30
0.0
 11
4.76335
 21
4.7021
 31
0.0
  0
LINE
  8
0
 62
     160
 10
4.76335
 20
4.7021
 30
0.0
 11
4.72976
 21
4.7245
 31
0.0
  0
LINE
  8
0
 62
     160
 10
4.72976
 20
4.7245
 30
0.0
 11
4.44081
 21
4.73606
 31
0.0
  0
LINE
  8
0
 62
     160
 10
4.44081
 20
4.73606
 30
0.0
 11
4.40788
 21
4.69211
 31
0.0
  0
LINE
  8
0
 62
     160
 10
4.40788
 20
4.69211
 30
0.0
 11
4.39908
 21
4.68935
 31
0.0
  0
LINE
  8
0
 62
     160
 10
4.39908
 20
4.68935
 30
0.0
 11
4.32969
 21
4.71251
 31
0.0
  0
LINE
  8
0
 62
     160
 10
4.32969
 20
4.71251
 30
0.0
 11
4.00054
 21
4.68896
 31
0.0
  0
LINE
  8
0
 62
     160
 10
4.00054
 20
4.68896
 30
0.0
 11
3.99528
 21
4.69054
 31
0.0
  0
LINE
  8
0
 62
     160
 10
3.99528
 20
4.69054
 30
0.0
 11
3.95014
 21
4.72439
 31
0.0
  0
LINE
  8
0
 62
     160
 10
3.95014
 20
4.72439
 30
0.0
 11
3.83724
 21
4.72439
 31
0.0
  0
LINE
  8
0
 62
     160
 10
3.83724
 20
4.72439
 30
0.0
 11
3.7921
 21
4.69054
 31
0.0
  0
LINE
  8
0
 62
     160
 10
3.7921
 20
4.69054
 30
0.0
 11
3.78738
 21
4.68896
 31
0.0
  0
LINE
  8
0
 62
     160
 10
3.78738
 20
4.68896
 30
0.0
 11
3.63385
 21
4.68896
 31
0.0
  0
LINE
  8
0
 62
     160
 10
3.63385
 20
4.68896
 30
0.0
 11
3.62912
 21
4.69054
 31
0.0
  0
LINE
  8
0
 62
     160
 10
3.62912
 20
4.69054
 30
0.0
 11
3.58399
 21
4.72439
 31
0.0
  0
LINE
  8
0
 62
     160
 10
3.58399
 20
4.72439
 30
0.0
 11
3.41206
 21
4.72439
 31
0.0
  0
LINE
  8
0
 62
     160
 10
3.41206
 20
4.72439
 30
0.0
 11
3.36692
 21
4.69054
 31
0.0
  0
LINE
  8
0
 62
     160
 10
3.36692
 20
4.69054
 30
0.0
 11
3.36219
 21
4.68896
 31
0.0
  0
LINE
  8
0
 62
     160
 10
3.36219
 20
4.68896
 30
0.0
 11
3.03147
 21
4.68896
 31
0.0
  0
LINE
  8
0
 62
     160
 10
3.03147
 20
4.68896
 30
0.0
 11
3.02675
 21
4.69054
 31
0.0
  0
LINE
  8
0
 62
     160
 10
3.02675
 20
4.69054
 30
0.0
 11
2.98178
 21
4.72428
 31
0.0
  0
LINE
  8
0
 62
     160
 10
2.98178
 20
4.72428
 30
0.0
 11
2.65381
 21
4.71262
 31
0.0
  0
LINE
  8
0
 62
     160
 10
2.65381
 20
4.71262
 30
0.0
 11
2.6524
 21
4.71267
 31
0.0
  0
LINE
  8
0
 62
     160
 10
2.6524
 20
4.71267
 30
0.0
 11
2.48708
 21
4.73628
 31
0.0
  0
LINE
  8
0
 62
     160
 10
2.48708
 20
4.73628
 30
0.0
 11
2.48031
 21
4.74442
 31
0.0
  0
LINE
  8
0
 62
     160
 10
2.48031
 20
4.74442
 30
0.0
 11
2.48768
 21
4.75196
 31
0.0
  0
LINE
  8
0
 62
     160
 10
2.48768
 20
4.75196
 30
0.0
 11
2.84993
 21
4.77528
 31
0.0
  0
LINE
  8
0
 62
     160
 10
2.84993
 20
4.77528
 30
0.0
 11
2.87007
 21
4.80556
 31
0.0
  0
LINE
  8
0
 62
     160
 10
2.87007
 20
4.80556
 30
0.0
 11
2.87007
 21
4.94265
 31
0.0
  0
LINE
  8
0
 62
     160
 10
2.87007
 20
4.94265
 30
0.0
 11
2.83806
 21
4.99604
 31
0.0
  0
LINE
  8
0
 62
     160
 10
2.83806
 20
4.99604
 30
0.0
 11
2.20708
 21
4.99604
 31
0.0
  0
LINE
  8
0
 62
     160
 10
2.20708
 20
4.99604
 30
0.0
 11
2.17367
 21
4.97374
 31
0.0
  0
LINE
  8
0
 62
     160
 10
2.17367
 20
4.97374
 30
0.0
 11
2.16928
 21
4.97244
 31
0.0
  0
LINE
  8
0
 62
     160
 10
2.16928
 20
4.97244
 30
0.0
 11
2.08658
 21
4.97244
 31
0.0
  0
LINE
  8
0
 62
     160
 10
2.08658
 20
4.97244
 30
0.0
 11
2.08225
 21
4.97374
 31
0.0
  0
LINE
  8
0
 62
     160
 10
2.08225
 20
4.97374
 30
0.0
 11
2.04878
 21
4.99604
 31
0.0
  0
LINE
  8
0
 62
     160
 10
2.04878
 20
4.99604
 30
0.0
 11
1.87728
 21
4.99604
 31
0.0
  0
LINE
  8
0
 62
     160
 10
1.87728
 20
4.99604
 30
0.0
 11
1.85596
 21
4.97472
 31
0.0
  0
LINE
  8
0
 62
     160
 10
1.85596
 20
4.97472
 30
0.0
 11
1.84603
 21
4.97374
 31
0.0
  0
LINE
  8
0
 62
     160
 10
1.84603
 20
4.97374
 30
0.0
 11
1.81256
 21
4.99604
 31
0.0
  0
LINE
  8
0
 62
     160
 10
1.81256
 20
4.99604
 30
0.0
 11
1.39301
 21
4.99604
 31
0.0
  0
LINE
  8
0
 62
     160
 10
1.39301
 20
4.99604
 30
0.0
 11
1.37402
 21
4.97706
 31
0.0
  0
LINE
  8
0
 62
     160
 10
1.37402
 20
4.97706
 30
0.0
 11
1.37402
 21
4.7946
 31
0.0
  0
LINE
  8
0
 62
     160
 10
1.37402
 20
4.7946
 30
0.0
 11
1.39301
 21
4.77556
 31
0.0
  0
LINE
  8
0
 62
     160
 10
1.39301
 20
4.77556
 30
0.0
 11
1.78646
 21
4.77556
 31
0.0
  0
LINE
  8
0
 62
     160
 10
1.78646
 20
4.77556
 30
0.0
 11
1.83154
 21
4.86572
 31
0.0
  0
LINE
  8
0
 62
     160
 10
1.83154
 20
4.86572
 30
0.0
 11
1.83974
 21
4.87001
 31
0.0
  0
LINE
  8
0
 62
     160
 10
1.83974
 20
4.87001
 30
0.0
 11
1.84636
 21
4.8635
 31
0.0
  0
LINE
  8
0
 62
     160
 10
1.84636
 20
4.8635
 30
0.0
 11
1.85775
 21
4.79508
 31
0.0
  0
LINE
  8
0
 62
     160
 10
1.85775
 20
4.79508
 30
0.0
 11
1.88938
 21
4.76346
 31
0.0
  0
LINE
  8
0
 62
     160
 10
1.88938
 20
4.76346
 30
0.0
 11
2.0165
 21
4.75196
 31
0.0
  0
LINE
  8
0
 62
     160
 10
2.0165
 20
4.75196
 30
0.0
 11
2.0236
 21
4.74387
 31
0.0
  0
LINE
  8
0
 62
     160
 10
2.0236
 20
4.74387
 30
0.0
 11
2.01606
 21
4.73622
 31
0.0
  0
LINE
  8
0
 62
     160
 10
2.01606
 20
4.73622
 30
0.0
 11
1.3941
 21
4.71272
 31
0.0
  0
LINE
  8
0
 62
     160
 10
1.3941
 20
4.71272
 30
0.0
 11
1.38059
 21
4.69249
 31
0.0
  0
LINE
  8
0
 62
     160
 10
1.38059
 20
4.69249
 30
0.0
 11
1.36751
 21
4.70122
 31
0.0
  0
LINE
  8
0
 62
     160
 10
1.36751
 20
4.70122
 30
0.0
 11
1.38325
 21
4.72483
 31
0.0
  0
LINE
  8
0
 62
     160
 10
1.38325
 20
4.72483
 30
0.0
 11
1.38949
 21
4.72835
 31
0.0
  0
LINE
  8
0
 62
     160
 10
1.38949
 20
4.72835
 30
0.0
 11
1.89296
 21
4.74735
 31
0.0
  0
LINE
  8
0
 62
     160
 10
1.89296
 20
4.74735
 30
0.0
 11
1.8851
 21
4.74804
 31
0.0
  0
LINE
  8
0
 62
     160
 10
1.8851
 20
4.74804
 30
0.0
 11
1.88026
 21
4.75032
 31
0.0
  0
LINE
  8
0
 62
     160
 10
1.88026
 20
4.75032
 30
0.0
 11
1.84478
 21
4.78575
 31
0.0
  0
LINE
  8
0
 62
     160
 10
1.84478
 20
4.78575
 30
0.0
 11
1.84261
 21
4.79004
 31
0.0
  0
LINE
  8
0
 62
     160
 10
1.84261
 20
4.79004
 30
0.0
 11
1.83479
 21
4.83703
 31
0.0
  0
LINE
  8
0
 62
     160
 10
1.83479
 20
4.83703
 30
0.0
 11
1.79833
 21
4.76417
 31
0.0
  0
LINE
  8
0
 62
     160
 10
1.79833
 20
4.76417
 30
0.0
 11
1.79135
 21
4.75982
 31
0.0
  0
LINE
  8
0
 62
     160
 10
1.79135
 20
4.75982
 30
0.0
 11
1.38975
 21
4.75982
 31
0.0
  0
LINE
  8
0
 62
     160
 10
1.38975
 20
4.75982
 30
0.0
 11
1.38417
 21
4.7621
 31
0.0
  0
LINE
  8
0
 62
     160
 10
1.38417
 20
4.7621
 30
0.0
 11
1.36057
 21
4.78575
 31
0.0
  0
LINE
  8
0
 62
     160
 10
1.36057
 20
4.78575
 30
0.0
 11
1.35824
 21
4.79135
 31
0.0
  0
LINE
  8
0
 62
     160
 10
1.35824
 20
4.79135
 30
0.0
 11
1.35824
 21
4.98031
 31
0.0
  0
LINE
  8
0
 62
     160
 10
1.35824
 20
4.98031
 30
0.0
 11
1.36057
 21
4.98589
 31
0.0
  0
LINE
  8
0
 62
     160
 10
1.36057
 20
4.98589
 30
0.0
 11
1.38422
 21
5.0095
 31
0.0
  0
LINE
  8
0
 62
     160
 10
1.38422
 20
5.0095
 30
0.0
 11
1.38975
 21
5.01178
 31
0.0
  0
LINE
  8
0
 62
     160
 10
1.38975
 20
5.01178
 30
0.0
 11
1.81494
 21
5.01178
 31
0.0
  0
LINE
  8
0
 62
     160
 10
1.81494
 20
5.01178
 30
0.0
 11
1.81933
 21
5.01047
 31
0.0
  0
LINE
  8
0
 62
     160
 10
1.81933
 20
5.01047
 30
0.0
 11
1.84939
 21
4.99044
 31
0.0
  0
LINE
  8
0
 62
     160
 10
1.84939
 20
4.99044
 30
0.0
 11
1.86843
 21
5.0095
 31
0.0
  0
LINE
  8
0
 62
     160
 10
1.86843
 20
5.0095
 30
0.0
 11
1.87403
 21
5.01178
 31
0.0
  0
LINE
  8
0
 62
     160
 10
1.87403
 20
5.01178
 30
0.0
 11
2.05117
 21
5.01178
 31
0.0
  0
LINE
  8
0
 62
     160
 10
2.05117
 20
5.01178
 30
0.0
 11
2.05556
 21
5.01047
 31
0.0
  0
LINE
  8
0
 62
     160
 10
2.05556
 20
5.01047
 30
0.0
 11
2.08897
 21
4.98817
 31
0.0
  0
LINE
  8
0
 62
     160
 10
2.08897
 20
4.98817
 30
0.0
 11
2.16689
 21
4.98817
 31
0.0
  0
LINE
  8
0
 62
     160
 10
2.16689
 20
4.98817
 30
0.0
 11
2.20036
 21
5.01047
 31
0.0
  0
LINE
  8
0
 62
     160
 10
2.20036
 20
5.01047
 30
0.0
 11
2.20469
 21
5.01178
 31
0.0
  0
LINE
  8
0
 62
     160
 10
2.20469
 20
5.01178
 30
0.0
 11
2.8425
 21
5.01178
 31
0.0
  0
LINE
  8
0
 62
     160
 10
2.8425
 20
5.01178
 30
0.0
 11
2.84928
 21
5.00797
 31
0.0
  0
LINE
  8
0
 62
     160
 10
2.84928
 20
5.00797
 30
0.0
 11
2.88471
 21
4.94889
 31
0.0
  0
LINE
  8
0
 62
     160
 10
2.88471
 20
4.94889
 30
0.0
 11
2.88579
 21
4.94488
 31
0.0
  0
LINE
  8
0
 62
     160
 10
2.88579
 20
4.94488
 30
0.0
 11
2.88579
 21
4.80317
 31
0.0
  0
LINE
  8
0
 62
     160
 10
2.88579
 20
4.80317
 30
0.0
 11
2.8845
 21
4.79878
 31
0.0
  0
LINE
  8
0
 62
     160
 10
2.8845
 20
4.79878
 30
0.0
 11
2.86083
 21
4.76335
 31
0.0
  0
LINE
  8
0
 62
     160
 10
2.86083
 20
4.76335
 30
0.0
 11
2.85482
 21
4.75982
 31
0.0
  0
LINE
  8
0
 62
     160
 10
2.85482
 20
4.75982
 30
0.0
 11
2.56456
 21
4.7411
 31
0.0
  0
LINE
  8
0
 62
     160
 10
2.56456
 20
4.7411
 30
0.0
 11
2.65397
 21
4.72835
 31
0.0
  0
LINE
  8
0
 62
     160
 10
2.65397
 20
4.72835
 30
0.0
 11
2.98394
 21
4.74013
 31
0.0
  0
LINE
  8
0
 62
     160
 10
2.98394
 20
4.74013
 30
0.0
 11
2.98899
 21
4.73856
 31
0.0
  0
LINE
  8
0
 62
     160
 10
2.98899
 20
4.73856
 30
0.0
 11
3.03413
 21
4.70469
 31
0.0
  0
LINE
  8
0
 62
     160
 10
3.03413
 20
4.70469
 30
0.0
 11
3.3596
 21
4.70469
 31
0.0
  0
LINE
  8
0
 62
     160
 10
3.3596
 20
4.70469
 30
0.0
 11
3.40474
 21
4.73856
 31
0.0
  0
LINE
  8
0
 62
     160
 10
3.40474
 20
4.73856
 30
0.0
 11
3.40944
 21
4.74013
 31
0.0
  0
LINE
  8
0
 62
     160
 10
3.40944
 20
4.74013
 30
0.0
 11
3.58658
 21
4.74013
 31
0.0
  0
LINE
  8
0
 62
     160
 10
3.58658
 20
4.74013
 30
0.0
 11
3.59131
 21
4.73856
 31
0.0
  0
LINE
  8
0
 62
     160
 10
3.59131
 20
4.73856
 30
0.0
 11
3.63644
 21
4.70469
 31
0.0
  0
LINE
  8
0
 62
     160
 10
3.63644
 20
4.70469
 30
0.0
 11
3.78478
 21
4.70469
 31
0.0
  0
LINE
  8
0
 62
     160
 10
3.78478
 20
4.70469
 30
0.0
 11
3.82992
 21
4.73856
 31
0.0
  0
LINE
  8
0
 62
     160
 10
3.82992
 20
4.73856
 30
0.0
 11
3.83464
 21
4.74013
 31
0.0
  0
LINE
  8
0
 62
     160
 10
3.83464
 20
4.74013
 30
0.0
 11
3.95275
 21
4.74013
 31
0.0
  0
LINE
  8
0
 62
     160
 10
3.95275
 20
4.74013
 30
0.0
 11
3.95747
 21
4.73856
 31
0.0
  0
LINE
  8
0
 62
     160
 10
3.95747
 20
4.73856
 30
0.0
 11
4.00233
 21
4.70492
 31
0.0
  0
LINE
  8
0
 62
     160
 10
4.00233
 20
4.70492
 30
0.0
 11
4.33014
 21
4.72831
 31
0.0
  0
LINE
  8
0
 62
     160
 10
4.33014
 20
4.72831
 30
0.0
 11
4.33317
 21
4.72792
 31
0.0
  0
LINE
  8
0
 62
     160
 10
4.33317
 20
4.72792
 30
0.0
 11
4.39865
 21
4.70611
 31
0.0
  0
LINE
  8
0
 62
     160
 10
4.39865
 20
4.70611
 30
0.0
 11
4.43072
 21
4.74881
 31
0.0
  0
LINE
  8
0
 62
     160
 10
4.43072
 20
4.74881
 30
0.0
 11
4.43728
 21
4.75196
 31
0.0
  0
LINE
  8
0
 62
     160
 10
4.43728
 20
4.75196
 30
0.0
 11
4.73258
 21
4.74013
 31
0.0
  0
LINE
  8
0
 62
     160
 10
4.73258
 20
4.74013
 30
0.0
 11
4.73665
 21
4.73882
 31
0.0
  0
LINE
  8
0
 62
     160
 10
4.73665
 20
4.73882
 30
0.0
 11
4.76768
 21
4.7181
 31
0.0
  0
LINE
  8
0
 62
     160
 10
4.76768
 20
4.7181
 30
0.0
 11
4.79878
 21
4.73882
 31
0.0
  0
LINE
  8
0
 62
     160
 10
4.79878
 20
4.73882
 30
0.0
 11
4.80317
 21
4.74013
 31
0.0
  0
LINE
  8
0
 62
     160
 10
4.80317
 20
4.74013
 30
0.0
 11
5.33464
 21
4.74013
 31
0.0
  0
LINE
  8
0
 62
     160
 10
5.33464
 20
4.74013
 30
0.0
 11
5.33936
 21
4.73856
 31
0.0
  0
LINE
  8
0
 62
     160
 10
5.33936
 20
4.73856
 30
0.0
 11
5.3845
 21
4.70469
 31
0.0
  0
LINE
  8
0
 62
     160
 10
5.3845
 20
4.70469
 30
0.0
 11
5.42914
 21
4.70469
 31
0.0
  0
LINE
  8
0
 62
     160
 10
5.42914
 20
4.70469
 30
0.0
 11
5.43468
 21
4.70242
 31
0.0
  0
LINE
  8
0
 62
     160
 10
5.43468
 20
4.70242
 30
0.0
 11
5.47011
 21
4.66699
 31
0.0
  0
LINE
  8
0
 62
     160
 10
5.47011
 20
4.66699
 30
0.0
 11
5.47244
 21
4.6614
 31
0.0
  0
LINE
  8
0
 62
     160
 10
5.47244
 20
4.6614
 30
0.0
 11
5.47244
 21
4.50786
 31
0.0
  0
LINE
  8
0
 62
     160
 10
5.47244
 20
4.50786
 30
0.0
 11
5.47011
 21
4.50228
 31
0.0
  0
LINE
  8
0
 62
     160
 10
5.47011
 20
4.50228
 30
0.0
 11
5.42285
 21
4.45503
 31
0.0
  0
LINE
  8
0
 62
     160
 10
5.42285
 20
4.45503
 30
0.0
 11
5.41769
 21
4.45275
 31
0.0
  0
LINE
  8
0
 62
     160
 10
5.41769
 20
4.45275
 30
0.0
 11
5.20324
 21
4.442
 31
0.0
  0
LINE
  8
0
 62
     160
 10
5.20324
 20
4.442
 30
0.0
 11
5.28033
 21
4.38422
 31
0.0
  0
LINE
  8
0
 62
     160
 10
5.28033
 20
4.38422
 30
0.0
 11
5.28347
 21
4.37793
 31
0.0
  0
LINE
  8
0
 62
     160
 10
5.28347
 20
4.37793
 30
0.0
 11
5.28347
 21
4.23622
 31
0.0
  0
LINE
  8
0
 62
     160
 10
5.28347
 20
4.23622
 30
0.0
 11
5.28114
 21
4.23063
 31
0.0
  0
LINE
  8
0
 62
     160
 10
5.28114
 20
4.23063
 30
0.0
 11
5.25754
 21
4.20703
 31
0.0
  0
LINE
  8
0
 62
     160
 10
5.25754
 20
4.20703
 30
0.0
 11
5.25196
 21
4.20469
 31
0.0
  0
LINE
  8
0
 62
     160
 10
1.29525
 20
3.72043
 30
0.0
 11
1.22439
 21
3.72043
 31
0.0
  0
LINE
  8
0
 62
     160
 10
1.22439
 20
3.72043
 30
0.0
 11
1.22439
 21
3.73622
 31
0.0
  0
LINE
  8
0
 62
     160
 10
1.22439
 20
3.73622
 30
0.0
 11
1.29199
 21
3.73622
 31
0.0
  0
LINE
  8
0
 62
     160
 10
1.29199
 20
3.73622
 30
0.0
 11
1.31103
 21
3.75521
 31
0.0
  0
LINE
  8
0
 62
     160
 10
1.31103
 20
3.75521
 30
0.0
 11
1.31103
 21
4.24804
 31
0.0
  0
LINE
  8
0
 62
     160
 10
1.31103
 20
4.24804
 30
0.0
 11
1.32677
 21
4.24804
 31
0.0
  0
LINE
  8
0
 62
     160
 10
1.32677
 20
4.24804
 30
0.0
 11
1.32677
 21
3.75196
 31
0.0
  0
LINE
  8
0
 62
     160
 10
1.32677
 20
3.75196
 30
0.0
 11
1.32444
 21
3.74642
 31
0.0
  0
LINE
  8
0
 62
     160
 10
1.32444
 20
3.74642
 30
0.0
 11
1.30084
 21
3.72276
 31
0.0
  0
LINE
  8
0
 62
     160
 10
1.30084
 20
3.72276
 30
0.0
 11
1.29525
 21
3.72043
 31
0.0
  0
LINE
  8
0
 62
     160
 10
0.775608
 20
3.72043
 30
0.0
 11
0.0314669
 21
3.72043
 31
0.0
  0
LINE
  8
0
 62
     160
 10
0.0314669
 20
3.72043
 30
0.0
 11
0.0258789
 21
3.72276
 31
0.0
  0
LINE
  8
0
 62
     160
 10
0.0258789
 20
3.72276
 30
0.0
 11
0.0023329
 21
3.74642
 31
0.0
  0
LINE
  8
0
 62
     160
 10
0.0023329
 20
3.74642
 30
0.0
 11
0
 21
3.75196
 31
0.0
  0
LINE
  8
0
 62
     160
 10
0
 20
3.75196
 30
0.0
 11
0
 21
5.01574
 31
0.0
  0
LINE
  8
0
 62
     160
 10
0
 20
5.01574
 30
0.0
 11
0.0023329
 21
5.02132
 31
0.0
  0
LINE
  8
0
 62
     160
 10
0.0023329
 20
5.02132
 30
0.0
 11
0.0258789
 21
5.04492
 31
0.0
  0
LINE
  8
0
 62
     160
 10
0.0258789
 20
5.04492
 30
0.0
 11
0.0314669
 21
5.04725
 31
0.0
  0
LINE
  8
0
 62
     160
 10
0.0314669
 20
5.04725
 30
0.0
 11
1.29525
 21
5.04725
 31
0.0
  0
LINE
  8
0
 62
     160
 10
1.29525
 20
5.04725
 30
0.0
 11
1.30084
 21
5.04492
 31
0.0
  0
LINE
  8
0
 62
     160
 10
1.30084
 20
5.04492
 30
0.0
 11
1.32444
 21
5.02132
 31
0.0
  0
LINE
  8
0
 62
     160
 10
1.32444
 20
5.02132
 30
0.0
 11
1.32677
 21
5.01574
 31
0.0
  0
LINE
  8
0
 62
     160
 10
1.32677
 20
5.01574
 30
0.0
 11
1.32677
 21
4.69683
 31
0.0
  0
LINE
  8
0
 62
     160
 10
1.32677
 20
4.69683
 30
0.0
 11
1.31103
 21
4.69683
 31
0.0
  0
LINE
  8
0
 62
     160
 10
1.31103
 20
4.69683
 30
0.0
 11
1.31103
 21
5.01247
 31
0.0
  0
LINE
  8
0
 62
     160
 10
1.31103
 20
5.01247
 30
0.0
 11
1.29199
 21
5.03147
 31
0.0
  0
LINE
  8
0
 62
     160
 10
1.29199
 20
5.03147
 30
0.0
 11
0.0347222
 21
5.03147
 31
0.0
  0
LINE
  8
0
 62
     160
 10
0.0347222
 20
5.03147
 30
0.0
 11
0.0157878
 21
5.01247
 31
0.0
  0
LINE
  8
0
 62
     160
 10
0.0157878
 20
5.01247
 30
0.0
 11
0.0157878
 21
3.75521
 31
0.0
  0
LINE
  8
0
 62
     160
 10
0.0157878
 20
3.75521
 30
0.0
 11
0.0347222
 21
3.73622
 31
0.0
  0
LINE
  8
0
 62
     160
 10
0.0347222
 20
3.73622
 30
0.0
 11
0.775608
 21
3.73622
 31
0.0
  0
LINE
  8
0
 62
     160
 10
0.775608
 20
3.73622
 30
0.0
 11
0.775608
 21
3.72043
 31
0.0
  0
LINE
  8
0
 62
     160
 10
0.0157878
 20
2.93701
 30
0.0
 11
0.0157878
 21
3.53614
 31
0.0
  0
LINE
  8
0
 62
     160
 10
0.0157878
 20
3.53614
 30
0.0
 11
0.0347222
 21
3.55507
 31
0.0
  0
LINE
  8
0
 62
     160
 10
0.0347222
 20
3.55507
 30
0.0
 11
0.775608
 21
3.55507
 31
0.0
  0
LINE
  8
0
 62
     160
 10
0.775608
 20
3.55507
 30
0.0
 11
0.775608
 21
3.57086
 31
0.0
  0
LINE
  8
0
 62
     160
 10
0.775608
 20
3.57086
 30
0.0
 11
0.0314669
 21
3.57086
 31
0.0
  0
LINE
  8
0
 62
     160
 10
0.0314669
 20
3.57086
 30
0.0
 11
0.0258789
 21
3.56853
 31
0.0
  0
LINE
  8
0
 62
     160
 10
0.0258789
 20
3.56853
 30
0.0
 11
0.0023329
 21
3.54492
 31
0.0
  0
LINE
  8
0
 62
     160
 10
0.0023329
 20
3.54492
 30
0.0
 11
0
 21
3.53939
 31
0.0
  0
LINE
  8
0
 62
     160
 10
0
 20
3.53939
 30
0.0
 11
0
 21
2.93701
 31
0.0
  0
LINE
  8
0
 62
     160
 10
0
 20
2.93701
 30
0.0
 11
0.0157878
 21
2.93701
 31
0.0
  0
LINE
  8
0
 62
     160
 10
1.32444
 20
3.54492
 30
0.0
 11
1.30084
 21
3.56853
 31
0.0
  0
LINE
  8
0
 62
     160
 10
1.30084
 20
3.56853
 30
0.0
 11
1.29525
 21
3.57086
 31
0.0
  0
LINE
  8
0
 62
     160
 10
1.29525
 20
3.57086
 30
0.0
 11
1.22439
 21
3.57086
 31
0.0
  0
LINE
  8
0
 62
     160
 10
1.22439
 20
3.57086
 30
0.0
 11
1.22439
 21
3.55507
 31
0.0
  0
LINE
  8
0
 62
     160
 10
1.22439
 20
3.55507
 30
0.0
 11
1.29199
 21
3.55507
 31
0.0
  0
LINE
  8
0
 62
     160
 10
1.29199
 20
3.55507
 30
0.0
 11
1.31103
 21
3.53608
 31
0.0
  0
LINE
  8
0
 62
     160
 10
1.31103
 20
3.53608
 30
0.0
 11
1.31103
 21
2.27881
 31
0.0
  0
LINE
  8
0
 62
     160
 10
1.31103
 20
2.27881
 30
0.0
 11
1.29199
 21
2.25982
 31
0.0
  0
LINE
  8
0
 62
     160
 10
1.29199
 20
2.25982
 30
0.0
 11
0.0347222
 21
2.25982
 31
0.0
  0
LINE
  8
0
 62
     160
 10
0.0347222
 20
2.25982
 30
0.0
 11
0.0157878
 21
2.27881
 31
0.0
  0
LINE
  8
0
 62
     160
 10
0.0157878
 20
2.27881
 30
0.0
 11
0.0157878
 21
2.46451
 31
0.0
  0
LINE
  8
0
 62
     160
 10
0.0157878
 20
2.46451
 30
0.0
 11
0
 21
2.46451
 31
0.0
  0
LINE
  8
0
 62
     160
 10
0
 20
2.46451
 30
0.0
 11
0
 21
2.27561
 31
0.0
  0
LINE
  8
0
 62
     160
 10
0
 20
2.27561
 30
0.0
 11
0.0023329
 21
2.27001
 31
0.0
  0
LINE
  8
0
 62
     160
 10
0.0023329
 20
2.27001
 30
0.0
 11
0.0258789
 21
2.24636
 31
0.0
  0
LINE
  8
0
 62
     160
 10
0.0258789
 20
2.24636
 30
0.0
 11
0.0314669
 21
2.24408
 31
0.0
  0
LINE
  8
0
 62
     160
 10
0.0314669
 20
2.24408
 30
0.0
 11
1.29525
 21
2.24408
 31
0.0
  0
LINE
  8
0
 62
     160
 10
1.29525
 20
2.24408
 30
0.0
 11
1.30084
 21
2.24636
 31
0.0
  0
LINE
  8
0
 62
     160
 10
1.30084
 20
2.24636
 30
0.0
 11
1.32444
 21
2.27001
 31
0.0
  0
LINE
  8
0
 62
     160
 10
1.32444
 20
2.27001
 30
0.0
 11
1.32677
 21
2.27561
 31
0.0
  0
LINE
  8
0
 62
     160
 10
1.32677
 20
2.27561
 30
0.0
 11
1.32677
 21
3.53939
 31
0.0
  0
LINE
  8
0
 62
     160
 10
1.32677
 20
3.53939
 30
0.0
 11
1.32444
 21
3.54492
 31
0.0
  0
ENDSEC
  0
EOF
