solid OpenSCAD_Model
  facet normal -1 0 0
    outer loop
      vertex -15 -20 -5
      vertex -15 -20 5
      vertex -15 20 -5
    endloop
  endfacet
  facet normal -1 0 0
    outer loop
      vertex -15 20 -5
      vertex -15 -20 5
      vertex -15 20 5
    endloop
  endfacet
  facet normal 0 -1 0
    outer loop
      vertex -15 -20 5
      vertex -15 -20 -5
      vertex 15 -20 -5
    endloop
  endfacet
  facet normal 0 -1 0
    outer loop
      vertex 15 -20 5
      vertex -15 -20 5
      vertex 15 -20 -5
    endloop
  endfacet
  facet normal 0 0 -1
    outer loop
      vertex -15 -20 -5
      vertex -15 20 -5
      vertex 15 -20 -5
    endloop
  endfacet
  facet normal 0 0 -1
    outer loop
      vertex 15 -20 -5
      vertex -15 20 -5
      vertex 15 20 -5
    endloop
  endfacet
  facet normal 0 1 0
    outer loop
      vertex -15 20 -5
      vertex -15 20 5
      vertex 15 20 -5
    endloop
  endfacet
  facet normal 0 1 0
    outer loop
      vertex 15 20 -5
      vertex -15 20 5
      vertex 15 20 5
    endloop
  endfacet
  facet normal 0 0 1
    outer loop
      vertex -5 -12.5 5
      vertex -15 -20 5
      vertex 15 -20 5
    endloop
  endfacet
  facet normal 0 0 1
    outer loop
      vertex -5 -7.5 5
      vertex 5 -7.5 5
      vertex -7.5 3 5
    endloop
  endfacet
  facet normal 0 0 1
    outer loop
      vertex -15 20 5
      vertex -15 -20 5
      vertex -7.5 3 5
    endloop
  endfacet
  facet normal 0 0 1
    outer loop
      vertex 15 20 5
      vertex -15 20 5
      vertex -7.5 13 5
    endloop
  endfacet
  facet normal 0 0 1
    outer loop
      vertex 15 20 5
      vertex 7.5 13 5
      vertex 15 -20 5
    endloop
  endfacet
  facet normal 0 0 1
    outer loop
      vertex 15 20 5
      vertex -7.5 13 5
      vertex 7.5 13 5
    endloop
  endfacet
  facet normal 0 0 1
    outer loop
      vertex 7.5 13 5
      vertex 7.5 3 5
      vertex 15 -20 5
    endloop
  endfacet
  facet normal 0 0 1
    outer loop
      vertex 5 -7.5 5
      vertex 5 -12.5 5
      vertex 15 -20 5
    endloop
  endfacet
  facet normal 0 0 1
    outer loop
      vertex -7.5 3 5
      vertex -15 -20 5
      vertex -5 -12.5 5
    endloop
  endfacet
  facet normal 0 0 1
    outer loop
      vertex -7.5 3 5
      vertex -5 -12.5 5
      vertex -5 -7.5 5
    endloop
  endfacet
  facet normal 0 0 1
    outer loop
      vertex 5 -12.5 5
      vertex -5 -12.5 5
      vertex 15 -20 5
    endloop
  endfacet
  facet normal 0 0 1
    outer loop
      vertex -7.5 3 5
      vertex -7.5 13 5
      vertex -15 20 5
    endloop
  endfacet
  facet normal 0 0 1
    outer loop
      vertex 7.5 3 5
      vertex 5 -7.5 5
      vertex 15 -20 5
    endloop
  endfacet
  facet normal 0 0 1
    outer loop
      vertex 7.5 3 5
      vertex -7.5 3 5
      vertex 5 -7.5 5
    endloop
  endfacet
  facet normal 1 0 0
    outer loop
      vertex 15 -20 5
      vertex 15 -20 -5
      vertex 15 20 -5
    endloop
  endfacet
  facet normal 1 0 0
    outer loop
      vertex 15 20 5
      vertex 15 -20 5
      vertex 15 20 -5
    endloop
  endfacet
  facet normal -1 0 0
    outer loop
      vertex -7.5 3 5
      vertex -7.5 3 6.3
      vertex -7.5 13 5
    endloop
  endfacet
  facet normal -1 0 0
    outer loop
      vertex -7.5 13 5
      vertex -7.5 3 6.3
      vertex -7.5 13 6.3
    endloop
  endfacet
  facet normal 0 -1 0
    outer loop
      vertex -7.5 3 6.3
      vertex -7.5 3 5
      vertex 7.5 3 5
    endloop
  endfacet
  facet normal 0 -1 0
    outer loop
      vertex 7.5 3 6.3
      vertex -7.5 3 6.3
      vertex 7.5 3 5
    endloop
  endfacet
  facet normal 1 0 0
    outer loop
      vertex 7.5 3 6.3
      vertex 7.5 3 5
      vertex 7.5 13 5
    endloop
  endfacet
  facet normal 1 0 0
    outer loop
      vertex 7.5 13 6.3
      vertex 7.5 3 6.3
      vertex 7.5 13 5
    endloop
  endfacet
  facet normal 0 1 0
    outer loop
      vertex -7.5 13 5
      vertex -7.5 13 6.3
      vertex 7.5 13 5
    endloop
  endfacet
  facet normal 0 1 0
    outer loop
      vertex 7.5 13 5
      vertex -7.5 13 6.3
      vertex 7.5 13 6.3
    endloop
  endfacet
  facet normal -1 0 0
    outer loop
      vertex -5 -12.5 5
      vertex -5 -12.5 6.3
      vertex -5 -7.5 5
    endloop
  endfacet
  facet normal -1 0 0
    outer loop
      vertex -5 -7.5 5
      vertex -5 -12.5 6.3
      vertex -5 -7.5 6.3
    endloop
  endfacet
  facet normal 0 -1 0
    outer loop
      vertex -5 -12.5 6.3
      vertex -5 -12.5 5
      vertex 5 -12.5 5
    endloop
  endfacet
  facet normal 0 -1 0
    outer loop
      vertex 5 -12.5 6.3
      vertex -5 -12.5 6.3
      vertex 5 -12.5 5
    endloop
  endfacet
  facet normal 1 0 0
    outer loop
      vertex 5 -12.5 6.3
      vertex 5 -12.5 5
      vertex 5 -7.5 5
    endloop
  endfacet
  facet normal 1 0 0
    outer loop
      vertex 5 -7.5 6.3
      vertex 5 -12.5 6.3
      vertex 5 -7.5 5
    endloop
  endfacet
  facet normal 0 1 0
    outer loop
      vertex -5 -7.5 5
      vertex -5 -7.5 6.3
      vertex 5 -7.5 5
    endloop
  endfacet
  facet normal 0 1 0
    outer loop
      vertex 5 -7.5 5
      vertex -5 -7.5 6.3
      vertex 5 -7.5 6.3
    endloop
  endfacet
  facet normal 0 0 1
    outer loop
      vertex -7.5 13 6.3
      vertex -7.5 3 6.3
      vertex 7.5 3 6.3
    endloop
  endfacet
  facet normal 0 0 1
    outer loop
      vertex 7.5 13 6.3
      vertex -7.5 13 6.3
      vertex 7.5 3 6.3
    endloop
  endfacet
  facet normal 0 0 1
    outer loop
      vertex -5 -7.5 6.3
      vertex -5 -12.5 6.3
      vertex 5 -12.5 6.3
    endloop
  endfacet
  facet normal 0 0 1
    outer loop
      vertex 5 -7.5 6.3
      vertex -5 -7.5 6.3
      vertex 5 -12.5 6.3
    endloop
  endfacet
endsolid OpenSCAD_Model
