<?xml version="1.0" encoding="utf-8"?>
<!DOCTYPE svg PUBLIC "-//W3C//DTD SVG 1.1//EN" "http://www.w3.org/Graphics/SVG/1.1/DTD/svg11.dtd">
<svg version="1.1" id="Layer_1" xmlns="http://www.w3.org/2000/svg" xmlns:xlink="http://www.w3.org/1999/xlink" x="0px" y="0px"
   width="870.803149606" height="1154.834645669" viewBox="0 0 870.803149606 1154.834645669" enable-background="new 0 0 870.803149606 1154.834645669"
   xml:space="preserve">
   <rect x="0" y="0" fill="#FFFFFF" stroke="none" width="870.803149606" height="1154.834645669"/>
   <g transform="matrix(0.850393701 0 0 0.850393701 0 0)"><g id="Floor"><polygon fill="#1CB8E8" stroke="none" stroke-miterlimit="10" points="636,1235,636,1246,638,1248,645,1248,651,1250,640,1251,636,1255,636,1270,638,1272,636,1279,636,1292,640,1295,830,1295,832,1293,832,1281,824,1275,826,1273,871,1273,907,1275,909,1273,962,1273,965,1269,965,1255,960,1251,940,1251,935,1260,932,1257,932,1252,930,1250,913,1250,908,1256,902,1254,882,1254,878,1251,861,1251,858,1253,854,1251,809,1251,806,1253,803,1251,778,1250,776,1252,776,1267,781,1271,776,1274,774,1272,774,1255,771,1252,761,1252,758,1254,744,1254,740,1251,730,1251,726,1254,713,1254,709,1251,694,1251,690,1254,662,1254,660,1252,661,1251,666,1251,670,1248,679,1250,719,1249,723,1245,723,1233,720,1228,666,1228,663,1230,655,1230,652,1228,640,1228"/><polygon fill="#1CB8E8" stroke="none" stroke-miterlimit="10" points="126,1235,126,1246,128,1248,135,1248,137,1250,135,1252,135,1267,140,1270,134,1271,127,1275,127,1285,132,1295,154,1295,156,1293,156,1281,150,1277,150,1273,192,1273,194,1271,198,1274,275,1273,290,1275,316,1275,319,1273,332,1275,373,1275,410,1273,460,1274,466,1271,465,1254,460,1250,449,1250,445,1253,442,1251,432,1252,430,1250,420,1250,417,1252,406,1252,403,1250,333,1250,320,1251,317,1255,314,1255,310,1250,292,1250,289,1254,289,1257,286,1258,280,1252,265,1252,262,1250,252,1250,249,1252,181,1251,181,1249,211,1248,213,1245,213,1233,210,1228,156,1228,153,1230,145,1230,142,1228,130,1228"/><polygon fill="#1CB8E8" stroke="none" stroke-miterlimit="10" points="523,1225,521,1227,521,1334,523,1336,630,1336,632,1334,632,1227,630,1225"/><polygon fill="#1CB8E8" stroke="none" stroke-miterlimit="10" points="13,1225,11,1227,11,1334,13,1336,120,1336,122,1334,122,1227,120,1225"/><polygon fill="#1CB8E8" stroke="none" stroke-miterlimit="10" points="636,1105,636,1121,639,1124,650,1125,638,1127,636,1133,636,1146,646,1151,658,1151,662,1148,773,1149,776,1147,778,1149,789,1149,795,1144,800,1144,804,1148,830,1150,852,1150,855,1148,927,1149,929,1147,929,1135,925,1133,923,1129,918,1125,892,1125,888,1128,885,1126,875,1127,873,1125,863,1125,860,1127,855,1127,852,1125,805,1126,800,1131,796,1124,786,1124,781,1127,776,1127,774,1129,773,1135,768,1132,768,1129,766,1127,760,1126,714,1128,710,1126,687,1126,684,1129,672,1129,664,1125,668,1123,673,1125,714,1123,716,1120,716,1108,713,1103,666,1103,663,1105,656,1105,653,1103,638,1103"/><polygon fill="#1CB8E8" stroke="none" stroke-miterlimit="10" points="126,1105,126,1121,129,1124,139,1124,141,1126,137,1129,129,1129,126,1132,126,1146,129,1149,128,1168,130,1170,168,1170,170,1168,170,1156,166,1154,164,1150,175,1148,195,1149,198,1151,210,1151,213,1149,227,1148,253,1149,255,1147,258,1149,268,1149,271,1147,273,1149,309,1149,315,1144,322,1144,331,1149,339,1150,467,1149,473,1143,473,1133,471,1131,467,1131,463,1126,455,1125,343,1125,330,1126,323,1131,316,1129,312,1126,302,1126,298,1128,289,1126,265,1125,262,1127,256,1127,254,1129,253,1135,249,1132,249,1129,247,1127,215,1126,211,1129,205,1129,201,1126,178,1127,177,1126,181,1124,211,1123,213,1120,213,1108,210,1103,158,1103,155,1105,146,1105,143,1103,128,1103"/><polygon fill="#1CB8E8" stroke="none" stroke-miterlimit="10" points="523,1100,521,1102,521,1209,523,1211,630,1211,632,1209,632,1102,630,1100"/><polygon fill="#1CB8E8" stroke="none" stroke-miterlimit="10" points="13,1100,11,1102,11,1209,13,1211,120,1211,122,1209,122,1102,120,1100"/><polygon fill="#1CB8E8" stroke="none" stroke-miterlimit="10" points="636,980,636,996,639,999,647,1000,645,1002,645,1017,647,1019,650,1019,655,1024,846,1024,848,1022,848,1010,834,1000,824,1000,820,1003,818,1001,797,1000,793,1003,786,1000,754,1000,749,1005,746,1005,739,1000,719,999,723,995,723,983,720,978,668,978,665,980,656,980,653,978,638,978"/><polygon fill="#1CB8E8" stroke="none" stroke-miterlimit="10" points="126,980,126,996,128,998,162,998,166,990,167,996,170,999,181,1000,177,1001,174,1004,162,1004,158,1001,128,1002,126,1008,126,1021,129,1024,129,1042,132,1045,196,1045,198,1043,198,1031,194,1029,190,1025,191,1024,244,1023,265,1025,324,1025,327,1023,344,1024,347,1022,349,1024,371,1023,388,1025,476,1025,478,1023,477,1003,474,1000,447,1000,439,1002,434,1000,375,1000,373,1002,370,1000,352,1000,350,1002,343,1000,331,1000,328,1002,324,1000,266,1000,264,1002,264,1008,262,1009,259,1003,257,1002,203,1003,195,1000,199,998,210,1000,250,999,254,995,254,983,251,978,199,978,196,980,187,980,184,978,169,978,167,980,164,978,128,978"/><polygon fill="#1CB8E8" stroke="none" stroke-miterlimit="10" points="523,975,521,977,521,1084,523,1086,630,1086,632,1084,632,977,630,975"/><polygon fill="#1CB8E8" stroke="none" stroke-miterlimit="10" points="13,975,11,977,11,1084,13,1086,120,1086,122,1084,122,977,120,975"/><polygon fill="#1CB8E8" stroke="none" stroke-miterlimit="10" points="636,855,636,871,638,873,672,873,676,865,677,871,680,874,685,875,682,877,672,877,668,875,642,875,637,878,638,900,636,906,636,917,642,920,655,920,662,915,666,915,670,920,679,920,681,918,684,920,723,921,731,919,818,920,820,918,820,906,816,904,812,900,813,899,826,898,834,901,846,901,850,898,962,899,967,897,971,893,971,883,969,881,965,881,961,876,902,878,898,876,875,876,872,879,860,879,856,876,814,876,810,879,796,879,792,876,773,876,769,879,763,879,759,876,745,876,745,874,760,874,763,872,764,858,761,853,709,853,706,855,697,855,694,853,679,853,677,855,674,853,638,853"/><polygon fill="#1CB8E8" stroke="none" stroke-miterlimit="10" points="126,855,126,871,128,873,162,873,166,865,167,871,170,874,180,874,183,876,190,877,187,879,182,879,178,876,157,877,151,875,136,875,134,877,134,893,143,899,213,898,267,900,269,898,318,900,364,899,366,897,366,885,362,883,360,879,355,875,329,875,325,878,318,875,270,876,267,880,265,880,261,875,251,875,250,874,254,870,254,858,251,853,197,853,194,855,187,855,184,853,169,853,167,855,164,853,128,853"/><polygon fill="#1CB8E8" stroke="none" stroke-miterlimit="10" points="523,850,521,852,521,959,523,961,630,961,632,959,632,852,630,850"/><polygon fill="#1CB8E8" stroke="none" stroke-miterlimit="10" points="13,850,11,852,11,959,13,961,120,961,122,959,122,852,120,850"/><polygon fill="#1CB8E8" stroke="none" stroke-miterlimit="10" points="636,730,636,746,638,748,672,748,676,740,677,746,680,749,691,750,638,752,636,755,636,770,638,772,637,792,639,794,685,796,688,794,690,796,718,796,728,795,734,790,740,790,744,794,752,795,846,795,850,790,853,790,859,795,965,795,967,793,967,781,959,775,979,774,983,770,983,757,980,754,976,754,972,751,927,751,924,753,921,751,896,750,893,754,887,752,859,754,855,751,845,751,841,754,828,754,824,751,809,751,805,754,777,754,773,751,745,752,731,750,762,748,764,745,764,733,761,728,707,728,704,730,697,730,694,728,679,728,677,730,674,728,638,728"/><polygon fill="#1CB8E8" stroke="none" stroke-miterlimit="10" points="126,730,126,746,128,748,162,748,166,740,167,746,170,749,169,751,132,750,126,753,126,772,128,774,127,792,129,794,137,795,159,795,163,790,170,790,174,795,183,795,185,793,187,795,223,794,226,796,350,795,352,793,352,781,342,774,346,769,350,769,354,775,373,775,380,774,382,772,384,774,407,774,411,771,415,774,425,774,429,769,435,769,439,774,462,775,465,772,470,774,480,774,484,772,486,769,486,755,481,751,469,751,466,752,463,756,459,755,452,750,441,750,435,756,432,756,428,752,413,752,410,750,399,750,395,753,391,753,387,749,377,749,372,752,368,750,358,750,353,755,346,756,343,754,333,754,325,750,315,750,307,756,300,756,295,750,277,750,275,752,275,756,273,757,267,750,250,749,254,745,254,733,251,728,197,728,194,730,187,730,184,728,169,728,167,730,164,728,128,728"/><polygon fill="#1CB8E8" stroke="none" stroke-miterlimit="10" points="523,725,521,727,521,834,523,836,630,836,632,834,632,727,630,725"/><polygon fill="#1CB8E8" stroke="none" stroke-miterlimit="10" points="13,725,11,727,11,834,13,836,120,836,122,834,122,727,120,725"/><polygon fill="#1CB8E8" stroke="none" stroke-miterlimit="10" points="11,696,11,704,13,706,1010,706,1012,704,1012,696,1010,694,13,694"/><polygon fill="#1CB8E8" stroke="none" stroke-miterlimit="10" points="481,658,481,678,483,680,539,680,542,677,542,662,539,656,483,656"/><polygon fill="#1CB8E8" stroke="none" stroke-miterlimit="10" points="941,600,941,615,943,617,1010,617,1012,615,1012,600,1010,598,943,598"/><polygon fill="#1CB8E8" stroke="none" stroke-miterlimit="10" points="875,568,875,584,878,587,888,587,891,589,902,589,907,586,916,586,919,588,961,587,964,589,975,589,978,587,1008,587,1011,584,1011,568,1009,566,905,566,902,568,895,568,892,566,877,566"/><polygon fill="#1CB8E8" stroke="none" stroke-miterlimit="10" points="11,570,12,588,16,592,66,592,92,589,96,591,107,591,110,589,125,591,146,591,150,585,163,585,165,583,171,586,176,591,333,590,372,592,375,589,377,591,404,592,414,591,416,589,416,568,414,566,380,566,374,573,372,571,367,570,345,570,341,567,322,567,318,570,314,567,264,567,260,570,256,567,234,567,230,570,199,570,195,567,184,567,181,565,168,565,166,567,165,574,163,572,136,571,132,565,99,565,94,569,84,566,72,566,69,568,67,566,62,565,16,565"/><polygon fill="#1CB8E8" stroke="none" stroke-miterlimit="10" points="11,243,11,555,13,557,1010,557,1012,555,1012,243,1010,241,13,241"/><polygon fill="#1CB8E8" stroke="none" stroke-miterlimit="10" points="1,189,1,202,1022,202,1022,189"/><polygon fill="#1CB8E8" stroke="none" stroke-miterlimit="10" points="828,158,828,173,831,176,893,176,895,174,895,170,897,167,897,157,895,155,831,155"/><polygon fill="#1CB8E8" stroke="none" stroke-miterlimit="10" points="742,164,742,174,744,176,784,176,787,173,787,161,784,155,748,155,746,157,746,160"/><polygon fill="#1CB8E8" stroke="none" stroke-miterlimit="10" points="646,163,646,174,648,176,697,176,699,174,699,170,701,167,701,157,699,155,651,155,649,156"/><polygon fill="#1CB8E8" stroke="none" stroke-miterlimit="10" points="538,163,538,174,540,176,603,176,605,174,605,157,603,155,543,155,541,156"/><polygon fill="#1CB8E8" stroke="none" stroke-miterlimit="10" points="394,158,394,173,397,176,495,176,497,174,497,157,495,155,397,155"/><polygon fill="#1CB8E8" stroke="none" stroke-miterlimit="10" points="294,157,294,167,296,174,298,176,350,176,353,173,353,161,350,155,296,155"/><polygon fill="#1CB8E8" stroke="none" stroke-miterlimit="10" points="204,157,204,174,206,176,251,176,253,174,253,157,251,155,206,155"/><polygon fill="#1CB8E8" stroke="none" stroke-miterlimit="10" points="126,157,126,166,131,176,156,176,163,170,163,157,161,155,128,155"/><polygon fill="#1CB8E8" stroke="none" stroke-miterlimit="10" points="965,62,962,67,962,86,964,90,972,95,990,95,995,92,998,86,998,67,995,62,990,59,970,59"/><polygon fill="#1CB8E8" stroke="none" stroke-miterlimit="10" points="24,79,24,89,26,91,65,91,67,89,67,79,52,59,39,59"/><polygon fill="#1CB8E8" stroke="none" stroke-miterlimit="10" points="498,54,496,56,496,83,500,87,500,98,502,100,525,100,527,98,527,56,525,54"/></g><g id="Floor level"><text x="800.5" y="1265.5" fill="#BF5AA2" font-family="Verdana" font-size="12" text-anchor="middle">139.57</text><text x="296" y="1265.5" fill="#BF5AA2" font-family="Verdana" font-size="12" text-anchor="middle">209.27</text><text x="576.5" y="1284.5" fill="#BF5AA2" font-family="Verdana" font-size="12" text-anchor="middle">138.69</text><text x="66.5" y="1284.5" fill="#BF5AA2" font-family="Verdana" font-size="12" text-anchor="middle">138.69</text><text x="782.5" y="1131" fill="#BF5AA2" font-family="Verdana" font-size="12" text-anchor="middle">250.23</text><text x="299.5" y="1140.5" fill="#BF5AA2" font-family="Verdana" font-size="12" text-anchor="middle">198.69</text><text x="576.5" y="1159.5" fill="#BF5AA2" font-family="Verdana" font-size="12" text-anchor="middle">190.23</text><text x="66.5" y="1159.5" fill="#BF5AA2" font-family="Verdana" font-size="12" text-anchor="middle">138.69</text><text x="742" y="1005" fill="#BF5AA2" font-family="Verdana" font-size="12" text-anchor="middle">100</text><text x="302" y="1015.5" fill="#BF5AA2" font-family="Verdana" font-size="12" text-anchor="middle">187.76</text><text x="576.5" y="1034.5" fill="#BF5AA2" font-family="Verdana" font-size="12" text-anchor="middle">180</text><text x="66.5" y="1034.5" fill="#BF5AA2" font-family="Verdana" font-size="12" text-anchor="middle">247.76</text><text x="803.5" y="891" fill="#BF5AA2" font-family="Verdana" font-size="12" text-anchor="middle">250.23</text><text x="246" y="880.5" fill="#BF5AA2" font-family="Verdana" font-size="12" text-anchor="middle">237.66</text><text x="576.5" y="909.5" fill="#BF5AA2" font-family="Verdana" font-size="12" text-anchor="middle">250.23</text><text x="66.5" y="909.5" fill="#BF5AA2" font-family="Verdana" font-size="12" text-anchor="middle">250.23</text><text x="809.5" y="766" fill="#BF5AA2" font-family="Verdana" font-size="12" text-anchor="middle">250.23</text><text x="306" y="766" fill="#BF5AA2" font-family="Verdana" font-size="12" text-anchor="middle">227.61</text><text x="576.5" y="784.5" fill="#BF5AA2" font-family="Verdana" font-size="12" text-anchor="middle">250.23</text><text x="66.5" y="784.5" fill="#BF5AA2" font-family="Verdana" font-size="12" text-anchor="middle">167.61</text><text x="511.5" y="704" fill="#BF5AA2" font-family="Verdana" font-size="12" text-anchor="middle">167.61</text><text x="511.5" y="672" fill="#BF5AA2" font-family="Verdana" font-size="12" text-anchor="middle">191.76</text><text x="976.5" y="611.5" fill="#BF5AA2" font-family="Verdana" font-size="12" text-anchor="middle">150.83</text><text x="943" y="581.5" fill="#BF5AA2" font-family="Verdana" font-size="12" text-anchor="middle">150.83</text><text x="213.5" y="582.5" fill="#BF5AA2" font-family="Verdana" font-size="12" text-anchor="middle">231.76</text><text x="511.5" y="403" fill="#BF5AA2" font-family="Verdana" font-size="12" text-anchor="middle">191.76</text><text x="511.5" y="199.5" fill="#BF5AA2" font-family="Verdana" font-size="12" text-anchor="middle">184.89</text><text x="862.5" y="169.5" fill="#BF5AA2" font-family="Verdana" font-size="12" text-anchor="middle">192.12</text><text x="764.5" y="169.5" fill="#BF5AA2" font-family="Verdana" font-size="12" text-anchor="middle">184.89</text><text x="673.5" y="169.5" fill="#BF5AA2" font-family="Verdana" font-size="12" text-anchor="middle">184.89</text><text x="571.5" y="169.5" fill="#BF5AA2" font-family="Verdana" font-size="12" text-anchor="middle">177.66</text><text x="445.5" y="169.5" fill="#BF5AA2" font-family="Verdana" font-size="12" text-anchor="middle">170.43</text><text x="323.5" y="169.5" fill="#BF5AA2" font-family="Verdana" font-size="12" text-anchor="middle">163.2</text><text x="228.5" y="169.5" fill="#BF5AA2" font-family="Verdana" font-size="12" text-anchor="middle">155.97</text><text x="144.5" y="169.5" fill="#BF5AA2" font-family="Verdana" font-size="12" text-anchor="middle">163.2</text><text x="980" y="81" fill="#BF5AA2" font-family="Verdana" font-size="12" text-anchor="middle">168.31</text><text x="45.5" y="79" fill="#BF5AA2" font-family="Verdana" font-size="12" text-anchor="middle">245.02</text><text x="511.5" y="81" fill="#BF5AA2" font-family="Verdana" font-size="12" text-anchor="middle">245.02</text></g><g id="Guardrails"><polyline fill="none" stroke="#514ED1" stroke-width="0.4mm" stroke-linejoin="round" points="638,1253,640,1251,651,1250,645,1248,638,1248,636,1246,636,1235,640,1228,652,1228,655,1230,663,1230,666,1228,720,1228,723,1233,723,1245,719,1249,679,1250,670,1248,666,1251,660,1252,662,1254,690,1254,694,1251,709,1251,713,1254,726,1254,730,1251,740,1251,744,1254,758,1254,761,1252,771,1252,774,1255,774,1272,776,1274,781,1271,776,1267,776,1252,778,1250,803,1251,806,1253,809,1251,854,1251,858,1253,861,1251,878,1251,882,1254,902,1254,908,1256,913,1250,930,1250,932,1252,932,1257,935,1260,940,1251,960,1251,965,1255,965,1269,962,1273,909,1273,907,1275,871,1273,826,1273,824,1275,832,1281,832,1293,830,1295,640,1295,636,1291"/><polyline fill="none" stroke="#514ED1" stroke-width="0.4mm" stroke-linejoin="round" points="169,1228,210,1228,213,1233,213,1245,211,1248,181,1249,181,1251,249,1252,252,1250,262,1250,265,1252,280,1252,286,1258,289,1257,289,1254,292,1250,310,1250,314,1255,317,1255,320,1251,333,1250,403,1250,406,1252,430,1250,432,1252,442,1251,445,1253,449,1250,460,1250,465,1254,466,1271,460,1274,410,1273,373,1275,332,1275,319,1273,316,1275,290,1275,275,1273,198,1274,194,1271,192,1273,150,1273,150,1277,156,1281,156,1293,154,1295,132,1295,127,1285,127,1275,134,1271,140,1270,135,1267,135,1252,137,1250,135,1248,128,1248,126,1246,126,1235,131,1228"/><polyline fill="none" stroke="#514ED1" stroke-width="0.4mm" stroke-linejoin="round" points="632,1291,632,1334,630,1336,525,1336"/><polyline fill="none" stroke="#514ED1" stroke-width="0.4mm" stroke-linejoin="round" points="521,1298,521,1227,523,1225,630,1225,632,1227,632,1253"/><polyline fill="none" stroke="#514ED1" stroke-width="0.4mm" stroke-linejoin="round" points="120,1336,13,1336,11,1334,11,1227,13,1225,57,1225"/><polyline fill="none" stroke="#514ED1" stroke-width="0.4mm" stroke-linejoin="round" points="95,1225,120,1225,122,1227,122,1298"/><polyline fill="none" stroke="#514ED1" stroke-width="0.4mm" stroke-linejoin="round" points="898,1125,918,1125,923,1129,925,1133,929,1135,929,1147,927,1149,855,1148,852,1150,830,1150,804,1148,800,1144,795,1144,789,1149,778,1149,776,1147,773,1149,662,1148,658,1151,646,1151,636,1146,636,1133,638,1127,650,1125,639,1124"/><polyline fill="none" stroke="#514ED1" stroke-width="0.4mm" stroke-linejoin="round" points="637,1104,653,1103,656,1105,663,1105,666,1103,713,1103,716,1108,716,1120,714,1123,673,1125,668,1123,664,1125,672,1129,684,1129,687,1126,710,1126,714,1128,760,1126,766,1127,768,1129,768,1132,773,1135,774,1129,776,1127,781,1127,786,1124,796,1124,800,1131,805,1126,852,1125,855,1127,860,1127"/><polyline fill="none" stroke="#514ED1" stroke-width="0.4mm" stroke-linejoin="round" points="469,1147,467,1149,339,1150,331,1149,322,1144,315,1144,309,1149,273,1149,271,1147,268,1149,258,1149,255,1147,253,1149,227,1148,213,1149,210,1151,198,1151,195,1149,175,1148,164,1150,166,1154,170,1156,169,1169"/><polyline fill="none" stroke="#514ED1" stroke-width="0.4mm" stroke-linejoin="round" points="131,1170,128,1168"/><polyline fill="none" stroke="#514ED1" stroke-width="0.4mm" stroke-linejoin="round" points="128,1130,137,1129,141,1126,139,1124,129,1124,126,1121,126,1105,128,1103,143,1103,146,1105,155,1105,158,1103,210,1103,213,1108,213,1120,211,1123,181,1124,177,1126,201,1126,205,1129,211,1129,215,1126,247,1127,249,1129,249,1132,253,1135,254,1129,256,1127,262,1127,265,1125,289,1126,298,1128,302,1126,312,1126,316,1129,323,1131,330,1126,343,1125,455,1125,463,1126,467,1131,469,1131"/><polyline fill="none" stroke="#514ED1" stroke-width="0.4mm" stroke-linejoin="round" points="632,1124,632,1209,630,1211,523,1211,521,1209,521,1147"/><polyline fill="none" stroke="#514ED1" stroke-width="0.4mm" stroke-linejoin="round" points="521,1131,521,1102,523,1100,630,1100,632,1104"/><polyline fill="none" stroke="#514ED1" stroke-width="0.4mm" stroke-linejoin="round" points="122,1168,122,1209,120,1211,95,1211"/><polyline fill="none" stroke="#514ED1" stroke-width="0.4mm" stroke-linejoin="round" points="57,1211,13,1211,11,1209,11,1102,13,1100,120,1100,122,1102,122,1130"/><polyline fill="none" stroke="#514ED1" stroke-width="0.4mm" stroke-linejoin="round" points="637,979,653,978,656,980,665,980,668,978,720,978,723,983,723,995,719,999,739,1000,746,1005,749,1005,754,1000,786,1000,793,1003,797,1000,818,1001,820,1003,824,1000,834,1000,848,1010,848,1022,846,1024,655,1024,650,1019,647,1019,645,1017,645,1002,647,1000,639,999"/><polyline fill="none" stroke="#514ED1" stroke-width="0.4mm" stroke-linejoin="round" points="412,1000,434,1000,439,1002,447,1000,472,1000"/><polyline fill="none" stroke="#514ED1" stroke-width="0.4mm" stroke-linejoin="round" points="477,1024,388,1025,371,1023,349,1024,347,1022,344,1024,327,1023,324,1025,265,1025,244,1023,191,1024,190,1025,198,1031,198,1043,196,1045,132,1045,129,1041"/><polyline fill="none" stroke="#514ED1" stroke-width="0.4mm" stroke-linejoin="round" points="127.67,1003,158,1001,162,1004,174,1004,177,1001,181,1000,170,999,167,996,166,990,162,998,128,998,126,996,126,980,128,978,164,978,167,980,169,978,184,978,187,980,196,980,199,978,251,978,254,983,254,995,250,999,210,1000,199,998,195,1000,203,1003,257,1002,259,1003,262,1009,264,1008,264,1002,266,1000,324,1000,328,1002,331,1000,343,1000,350,1002,352,1000,370,1000,373,1002,374,1001"/><polyline fill="none" stroke="#514ED1" stroke-width="0.4mm" stroke-linejoin="round" points="632,999,632,1084,630,1086,523,1086,521,1084,521,1024"/><polyline fill="none" stroke="#514ED1" stroke-width="0.4mm" stroke-linejoin="round" points="521,1000,521,977,523,975,630,975,632,979"/><polyline fill="none" stroke="#514ED1" stroke-width="0.4mm" stroke-linejoin="round" points="122,1041,122,1084,120,1086,13,1086,11,1084,11,977,13,975,74,975"/><polyline fill="none" stroke="#514ED1" stroke-width="0.4mm" stroke-linejoin="round" points="112,975,120,975,122,977,122,1003"/><polyline fill="none" stroke="#514ED1" stroke-width="0.4mm" stroke-linejoin="round" points="730,853,761,853,764,858,763,872,760,874,745,874,745,876,759,876,763,879,769,879,773,876,792,876,796,879,810,879,814,876,856,876,860,879,872,879,875,876,898,876,902,878,961,876,965,881,969,881,971,883,971,893,967,897,962,899,898,898.43"/><polyline fill="none" stroke="#514ED1" stroke-width="0.4mm" stroke-linejoin="round" points="860,898.09,850,898,846,901,834,901,826,898,813,899,812,900,820,906,820,918,818,920,731,919,723,921,684,920,681,918,679,920,670,920,666,915,662,915,655,920,642,920,636,917,636,906,638,900,637,878,642,875,668,875,672,877,682,877,685,875,680,874,677,871,676,865,672,873,638,873,636,871,636,855,638,853,674,853,677,855,679,853,692,853"/><polyline fill="none" stroke="#514ED1" stroke-width="0.4mm" stroke-linejoin="round" points="250,853,254,858,254,870,250,874,251,875,261,875,265,880,267,880,270,876,318,875,325,878,329,875,355,875,360,879,362,883,366,885,366,897,364,899,318,900,269,898,267,900,213,898,143,899,134,893,134,877,136,875,151,875,157,877,178,876,182,879,187,879,190,877,183,876,180,874,170,874,167,871,166,865,162,873,128,873,126,871,126,855,128,853,164,853,167,855,169,853,184,853,187,855,194,855,197,853,212,853"/><polyline fill="none" stroke="#514ED1" stroke-width="0.4mm" stroke-linejoin="round" points="521,905,521,852,523,850,586,850"/><polyline fill="none" stroke="#514ED1" stroke-width="0.4mm" stroke-linejoin="round" points="624,850,630,850,632,852,632,959,630,961,523,961,521,959,521,943"/><polyline fill="none" stroke="#514ED1" stroke-width="0.4mm" stroke-linejoin="round" points="122,943,122,959,120,961,112,961"/><polyline fill="none" stroke="#514ED1" stroke-width="0.4mm" stroke-linejoin="round" points="74,961,13,961,11,959,11,852,13,850,120,850,122,852,122,905"/><polyline fill="none" stroke="#514ED1" stroke-width="0.4mm" stroke-linejoin="round" points="692,796,688,794,685,796,639,794,637,792"/><polyline fill="none" stroke="#514ED1" stroke-width="0.4mm" stroke-linejoin="round" points="636.67,754,638,752,691,750,680,749,677,746,676,740,672,748,638,748,636,746,636,730,638,728,674,728,677,730,679,728,694,728,697,730,704,730,707,728,761,728,764,733,764,745,762,748,731,750,745,752,773,751,777,754,805,754,809,751,824,751,828,754,841,754,845,751,855,751,859,754,887,752,893,754,896,750,921,751,924,753,927,751,972,751,976,754,980,754,983,757,983,770,979,774,959,775,967,781,967,793,965,795,859,795,853,790,850,790,846,795,752,795,744,794,740,790,734,790,730,793.33"/><polyline fill="none" stroke="#514ED1" stroke-width="0.4mm" stroke-linejoin="round" points="374,774.86,354,775,350,769,346,769,342,774,352,781,352,793,350,795,250,795.81"/><polyline fill="none" stroke="#514ED1" stroke-width="0.4mm" stroke-linejoin="round" points="212,794.31,187,795,185,793,183,795,174,795,170,790,163,790,159,795,129,794"/><polyline fill="none" stroke="#514ED1" stroke-width="0.4mm" stroke-linejoin="round" points="126,756,126,753,132,750,169,751,170,749,167,746,166,740,162,748,128,748,126,746,126,730,128,728,164,728,167,730,169,728,184,728,187,730,194,730,197,728,251,728,254,733,254,745,250,749,267,750,273,757,275,756,275,752,277,750,295,750,300,756,307,756,315,750,325,750,333,754,343,754,346,756,353,755,358,750,368,750,372,752,377,749,387,749,391,753,395,753,399,750,410,750,413,752,428,752,432,756,435,756,441,750,452,750,459,755,463,756,466,752,469,751,481,751,486,755,486,769,484,772,480,774,470,774,465,772,462,775,439,774,435,769,429,769,425,774,415,774,412,771.75"/><polyline fill="none" stroke="#514ED1" stroke-width="0.4mm" stroke-linejoin="round" points="632,792,632,834,630,836,624,836"/><polyline fill="none" stroke="#514ED1" stroke-width="0.4mm" stroke-linejoin="round" points="586,836,523,836,521,834,521,727,523,725,630,725,632,727,632,754"/><polyline fill="none" stroke="#514ED1" stroke-width="0.4mm" stroke-linejoin="round" points="122,794,122,834,120,836,13,836,11,834,11,727,13,725,69,725"/><polyline fill="none" stroke="#514ED1" stroke-width="0.4mm" stroke-linejoin="round" points="107,725,120,725,122,727,122,756"/><polyline fill="none" stroke="#514ED1" stroke-width="0.4mm" stroke-linejoin="round" points="865,694,1010,694,1012,696,1012,704,1010,706,107,706"/><polyline fill="none" stroke="#514ED1" stroke-width="0.4mm" stroke-linejoin="round" points="69,706,13,706,11,704,11,696,13,694,827,694"/><polyline fill="none" stroke="#514ED1" stroke-width="0.4mm" stroke-linejoin="round" points="534,656,539,656,542,662,542,677,539,680,483,680,481,678,481,658,483,656,496,656"/><polyline fill="none" stroke="#514ED1" stroke-width="0.4mm" stroke-linejoin="round" points="999,598,1010,598,1012,600,1012,615,1010,617,943,617,941,615,941,600,943,598,961,598"/><polyline fill="none" stroke="#514ED1" stroke-width="0.4mm" stroke-linejoin="round" points="961,587,919,588,916,586,907,586,902,589,878,587"/><polyline fill="none" stroke="#514ED1" stroke-width="0.4mm" stroke-linejoin="round" points="876,567,892,566,895,568,902,568,905,566,1009,566,1011,568,1011,584,1008,587,999,587"/><polyline fill="none" stroke="#514ED1" stroke-width="0.4mm" stroke-linejoin="round" points="352,570,367,570,372,571,374,573,380,566,415,567"/><polyline fill="none" stroke="#514ED1" stroke-width="0.4mm" stroke-linejoin="round" points="416,587,414,591,404,592,377,591,375,589,372,592,333,590,176,591,171,586,165,583,163,585,150,585,146,591,125,591,110,589,107,591,96,591,92,589,66,592,16,592,12,588,11,570,16,565,62,565,67,566,69,568,72,566,84,566,94,569,99,565,132,565,136,571,163,572,165,574,166,567,168,565,195,567,199,570,230,570,234,567,256,567,260,570,264,567,314,567"/><polyline fill="none" stroke="#514ED1" stroke-width="0.4mm" stroke-linejoin="round" points="817,241,1010,241,1012,243,1012,555,1010,557,865,557"/><polyline fill="none" stroke="#514ED1" stroke-width="0.4mm" stroke-linejoin="round" points="827,557,534,557"/><polyline fill="none" stroke="#514ED1" stroke-width="0.4mm" stroke-linejoin="round" points="496,557,352,557"/><polyline fill="none" stroke="#514ED1" stroke-width="0.4mm" stroke-linejoin="round" points="314,557,13,557,11,555,11,243,13,241,779,241"/><polyline fill="none" stroke="#514ED1" stroke-width="0.4mm" stroke-linejoin="round" points="779,202,1,202,1,189,743,189"/><polyline fill="none" stroke="#514ED1" stroke-width="0.4mm" stroke-linejoin="round" points="781,189,965,189"/><polyline fill="none" stroke="#514ED1" stroke-width="0.4mm" stroke-linejoin="round" points="995,189,1022,189,1022,202,817,202"/><polyline fill="none" stroke="#514ED1" stroke-width="0.4mm" stroke-linejoin="round" points="829,157,831,155,895,155,897,157,897,167,895,170,895,174,893,176,830,175"/><polyline fill="none" stroke="#514ED1" stroke-width="0.4mm" stroke-linejoin="round" points="746,158,748,155,784,155,785,157"/><polyline fill="none" stroke="#514ED1" stroke-width="0.4mm" stroke-linejoin="round" points="785,175,781,176"/><polyline fill="none" stroke="#514ED1" stroke-width="0.4mm" stroke-linejoin="round" points="743,175,742,174"/><polyline fill="none" stroke="#514ED1" stroke-width="0.4mm" stroke-linejoin="round" points="699,174,697,176,650,176"/><polyline fill="none" stroke="#514ED1" stroke-width="0.4mm" stroke-linejoin="round" points="649,156,699,155,701,158"/><polyline fill="none" stroke="#514ED1" stroke-width="0.4mm" stroke-linejoin="round" points="603,176,542,176"/><polyline fill="none" stroke="#514ED1" stroke-width="0.4mm" stroke-linejoin="round" points="541,156,604,156"/><polyline fill="none" stroke="#514ED1" stroke-width="0.4mm" stroke-linejoin="round" points="495,176,397,176,395,174"/><polyline fill="none" stroke="#514ED1" stroke-width="0.4mm" stroke-linejoin="round" points="396,156,496,156"/><polyline fill="none" stroke="#514ED1" stroke-width="0.4mm" stroke-linejoin="round" points="352,174,350,176,298,176,296,174"/><polyline fill="none" stroke="#514ED1" stroke-width="0.4mm" stroke-linejoin="round" points="295,156,350.5,156"/><polyline fill="none" stroke="#514ED1" stroke-width="0.4mm" stroke-linejoin="round" points="253,174,251,176,206,176,204,174"/><polyline fill="none" stroke="#514ED1" stroke-width="0.4mm" stroke-linejoin="round" points="205,156,252,156"/><polyline fill="none" stroke="#514ED1" stroke-width="0.4mm" stroke-linejoin="round" points="158.33,174,156,176,131,176,126,166,126,157,128,155,162,156"/><polyline fill="none" stroke="#514ED1" stroke-width="0.4mm" stroke-linejoin="round" points="966.67,61,970,59,990,59,995,62,998,67,998,86,995,92"/><polyline fill="none" stroke="#514ED1" stroke-width="0.4mm" stroke-linejoin="round" points="66,90,26,91,24,89,24,79,39,59,52,59,61.75,72"/><polyline fill="none" stroke="#514ED1" stroke-width="0.4mm" stroke-linejoin="round" points="527,91,527,98,525,100,502,100,500,98,500,90"/><polyline fill="none" stroke="#514ED1" stroke-width="0.4mm" stroke-linejoin="round" points="496,72,496,56,498,54,525,54,527,56,527,61"/></g><g id="Bridges"><g transform="matrix(-1 1.2246063538223773e-16 -1.2246063538223773e-16 -1 637 1271)">
  <circle fill="#4CB73D" opacity="0.5" cx="-13.33333333" cy="" r="5.499999998624999"/>
  <circle fill="#4CB73D" opacity="0.5" cx="18.333333330000002" cy="" r="5.499999998624999"/>
  <rect x="-0.499999999875" y="-19.999999999875" fill="#4CB73D" opacity="0.5" stroke="none" width="5.99999999975" height="39.99999999975"/>
  <rect x="5" y="-3.8333333323749996" width="13.33333333" height="7.666666664749999" fill="#4CB73D" opacity="0.5" stroke="none"/>
  <rect x="-13.33333333" y="-3.8333333323749996" width="13.33333333" height="7.666666664749999" fill="#4CB73D" opacity="0.5" stroke="none"/>
  <rect x="0" y="-19.5" fill="#FFC90A" opacity="0.5" stroke="none" width="5" height="39"/>

  <!--
  <circle fill="#ff0000" opacity="0.3" cx="-13.33333333" cy="" r="4.99999999875"/>
  <circle fill="#ff0000" opacity="0.3" cx="18.333333330000002" cy="" r="4.99999999875"/>
  <rect x="0" y="-19.5" fill="#4CB73D" opacity="0.5" stroke="none" width="5" height="39"/>
  <rect x="5" y="-3.3333333325" width="13.33333333" height="6.666666665" fill="#4CB73D" opacity="0.5" stroke="none"/>
  <rect x="-13.33333333" y="-3.3333333325" width="13.33333333" height="6.666666665" fill="#4CB73D" opacity="0.5" stroke="none"/>
  -->
</g><g transform="matrix(-1 1.2246063538223773e-16 -1.2246063538223773e-16 -1 521 1316)">
  <circle fill="#4CB73D" opacity="0.5" cx="-13.33333333" cy="" r="5.499999998624999"/>
  <circle fill="#4CB73D" opacity="0.5" cx="412.33333333" cy="" r="5.499999998624999"/>
  <rect x="-0.499999999875" y="-19.999999999875" fill="#4CB73D" opacity="0.5" stroke="none" width="399.99999999975" height="39.99999999975"/>
  <rect x="399" y="-3.8333333323749996" width="13.33333333" height="7.666666664749999" fill="#4CB73D" opacity="0.5" stroke="none"/>
  <rect x="-13.33333333" y="-3.8333333323749996" width="13.33333333" height="7.666666664749999" fill="#4CB73D" opacity="0.5" stroke="none"/>
  <rect x="0" y="-19.5" fill="#FFC90A" opacity="0.5" stroke="none" width="399" height="39"/>

  <!--
  <circle fill="#ff0000" opacity="0.3" cx="-13.33333333" cy="" r="4.99999999875"/>
  <circle fill="#ff0000" opacity="0.3" cx="412.33333333" cy="" r="4.99999999875"/>
  <rect x="0" y="-19.5" fill="#4CB73D" opacity="0.5" stroke="none" width="399" height="39"/>
  <rect x="399" y="-3.3333333325" width="13.33333333" height="6.666666665" fill="#4CB73D" opacity="0.5" stroke="none"/>
  <rect x="-13.33333333" y="-3.3333333325" width="13.33333333" height="6.666666665" fill="#4CB73D" opacity="0.5" stroke="none"/>
  -->
</g><g transform="matrix(6.123031769111886e-17 -1 1 6.123031769111886e-17 77 1225)">
  <circle fill="#4CB73D" opacity="0.5" cx="-13.33333333" cy="" r="5.499999998624999"/>
  <circle fill="#4CB73D" opacity="0.5" cx="27.333333330000002" cy="" r="5.499999998624999"/>
  <rect x="-0.499999999875" y="-19.999999999875" fill="#4CB73D" opacity="0.5" stroke="none" width="14.999999999749999" height="39.99999999975"/>
  <rect x="14" y="-3.8333333323749996" width="13.33333333" height="7.666666664749999" fill="#4CB73D" opacity="0.5" stroke="none"/>
  <rect x="-13.33333333" y="-3.8333333323749996" width="13.33333333" height="7.666666664749999" fill="#4CB73D" opacity="0.5" stroke="none"/>
  <rect x="0" y="-19.5" fill="#FFC90A" opacity="0.5" stroke="none" width="14" height="39"/>

  <!--
  <circle fill="#ff0000" opacity="0.3" cx="-13.33333333" cy="" r="4.99999999875"/>
  <circle fill="#ff0000" opacity="0.3" cx="27.333333330000002" cy="" r="4.99999999875"/>
  <rect x="0" y="-19.5" fill="#4CB73D" opacity="0.5" stroke="none" width="14" height="39"/>
  <rect x="14" y="-3.3333333325" width="13.33333333" height="6.666666665" fill="#4CB73D" opacity="0.5" stroke="none"/>
  <rect x="-13.33333333" y="-3.3333333325" width="13.33333333" height="6.666666665" fill="#4CB73D" opacity="0.5" stroke="none"/>
  -->
</g><g transform="matrix(1 0 0 1 122 1150)">
  <circle fill="#EF305E" opacity="0.5" cx="-21.333333330000002" cy="" r="5.499999998624999"/>
  <circle fill="#EF305E" opacity="0.5" cx="20.333333330000002" cy="" r="5.499999998624999"/>
  <rect x="-8.499999999875" y="-19.999999999875" fill="#EF305E" opacity="0.5" stroke="none" width="15.999999999749999" height="39.99999999975"/>
  <rect x="7" y="-3.8333333323749996" width="13.33333333" height="7.666666664749999" fill="#EF305E" opacity="0.5" stroke="none"/>
  <rect x="-21.333333330000002" y="-3.8333333323749996" width="13.33333333" height="7.666666664749999" fill="#EF305E" opacity="0.5" stroke="none"/>
  <rect x="-8" y="-19.5" fill="#FFC90A" opacity="0.5" stroke="none" width="15" height="39"/>

  <!--
  <circle fill="#ff0000" opacity="0.3" cx="-21.333333330000002" cy="" r="4.99999999875"/>
  <circle fill="#ff0000" opacity="0.3" cx="28.333333330000002" cy="" r="4.99999999875"/>
  <rect x="-8" y="-19.5" fill="#EF305E" opacity="0.5" stroke="none" width="15" height="39"/>
  <rect x="7" y="-3.3333333325" width="13.33333333" height="6.666666665" fill="#EF305E" opacity="0.5" stroke="none"/>
  <rect x="-21.333333330000002" y="-3.3333333325" width="13.33333333" height="6.666666665" fill="#EF305E" opacity="0.5" stroke="none"/>
  -->
</g><g transform="matrix(6.123031769111886e-17 1 -1 6.123031769111886e-17 149 1170)">
  <circle fill="#4CB73D" opacity="0.5" cx="-13.33333333" cy="" r="5.499999998624999"/>
  <circle fill="#4CB73D" opacity="0.5" cx="73.33333333" cy="" r="5.499999998624999"/>
  <rect x="-0.499999999875" y="-19.999999999875" fill="#4CB73D" opacity="0.5" stroke="none" width="60.99999999975" height="39.99999999975"/>
  <rect x="60" y="-3.8333333323749996" width="13.33333333" height="7.666666664749999" fill="#4CB73D" opacity="0.5" stroke="none"/>
  <rect x="-13.33333333" y="-3.8333333323749996" width="13.33333333" height="7.666666664749999" fill="#4CB73D" opacity="0.5" stroke="none"/>
  <rect x="0" y="-19.5" fill="#FFC90A" opacity="0.5" stroke="none" width="60" height="39"/>

  <!--
  <circle fill="#ff0000" opacity="0.3" cx="-13.33333333" cy="" r="4.99999999875"/>
  <circle fill="#ff0000" opacity="0.3" cx="73.33333333" cy="" r="4.99999999875"/>
  <rect x="0" y="-19.5" fill="#4CB73D" opacity="0.5" stroke="none" width="60" height="39"/>
  <rect x="60" y="-3.3333333325" width="13.33333333" height="6.666666665" fill="#4CB73D" opacity="0.5" stroke="none"/>
  <rect x="-13.33333333" y="-3.3333333325" width="13.33333333" height="6.666666665" fill="#4CB73D" opacity="0.5" stroke="none"/>
  -->
</g><g transform="matrix(1 0 0 1 473 1139)">
  <circle fill="#4CB73D" opacity="0.5" cx="-13.33333333" cy="" r="5.499999998624999"/>
  <circle fill="#4CB73D" opacity="0.5" cx="61.33333333" cy="" r="5.499999998624999"/>
  <rect x="-0.499999999875" y="-8.999999999875" fill="#4CB73D" opacity="0.5" stroke="none" width="48.99999999975" height="17.99999999975"/>
  <rect x="48" y="-3.8333333323749996" width="13.33333333" height="7.666666664749999" fill="#4CB73D" opacity="0.5" stroke="none"/>
  <rect x="-13.33333333" y="-3.8333333323749996" width="13.33333333" height="7.666666664749999" fill="#4CB73D" opacity="0.5" stroke="none"/>
  <rect x="0" y="-8.5" fill="#FFC90A" opacity="0.5" stroke="none" width="48" height="17"/>

  <!--
  <circle fill="#ff0000" opacity="0.3" cx="-13.33333333" cy="" r="4.99999999875"/>
  <circle fill="#ff0000" opacity="0.3" cx="61.33333333" cy="" r="4.99999999875"/>
  <rect x="0" y="-8.5" fill="#4CB73D" opacity="0.5" stroke="none" width="48" height="17"/>
  <rect x="48" y="-3.3333333325" width="13.33333333" height="6.666666665" fill="#4CB73D" opacity="0.5" stroke="none"/>
  <rect x="-13.33333333" y="-3.3333333325" width="13.33333333" height="6.666666665" fill="#4CB73D" opacity="0.5" stroke="none"/>
  -->
</g><g transform="matrix(1 0 0 1 632 1114)">
  <circle fill="#EF305E" opacity="0.5" cx="-24.333333330000002" cy="" r="5.499999998624999"/>
  <circle fill="#EF305E" opacity="0.5" cx="17.333333330000002" cy="" r="5.499999998624999"/>
  <rect x="-11.499999999875" y="-10.999999999875" fill="#EF305E" opacity="0.5" stroke="none" width="15.999999999749999" height="21.99999999975"/>
  <rect x="4" y="-3.8333333323749996" width="13.33333333" height="7.666666664749999" fill="#EF305E" opacity="0.5" stroke="none"/>
  <rect x="-24.333333330000002" y="-3.8333333323749996" width="13.33333333" height="7.666666664749999" fill="#EF305E" opacity="0.5" stroke="none"/>
  <rect x="-11" y="-10.5" fill="#FFC90A" opacity="0.5" stroke="none" width="15" height="21"/>

  <!--
  <circle fill="#ff0000" opacity="0.3" cx="-24.333333330000002" cy="" r="4.99999999875"/>
  <circle fill="#ff0000" opacity="0.3" cx="28.333333330000002" cy="" r="4.99999999875"/>
  <rect x="-11" y="-10.5" fill="#EF305E" opacity="0.5" stroke="none" width="15" height="21"/>
  <rect x="4" y="-3.3333333325" width="13.33333333" height="6.666666665" fill="#EF305E" opacity="0.5" stroke="none"/>
  <rect x="-24.333333330000002" y="-3.3333333325" width="13.33333333" height="6.666666665" fill="#EF305E" opacity="0.5" stroke="none"/>
  -->
</g><g transform="matrix(6.123031769111886e-17 -1 1 6.123031769111886e-17 880 1127)">
  <circle fill="#4CB73D" opacity="0.5" cx="-13.33333333" cy="" r="5.499999998624999"/>
  <circle fill="#4CB73D" opacity="0.5" cx="242.33333333" cy="" r="5.499999998624999"/>
  <rect x="-0.499999999875" y="-19.999999999875" fill="#4CB73D" opacity="0.5" stroke="none" width="229.99999999975" height="39.99999999975"/>
  <rect x="229" y="-3.8333333323749996" width="13.33333333" height="7.666666664749999" fill="#4CB73D" opacity="0.5" stroke="none"/>
  <rect x="-13.33333333" y="-3.8333333323749996" width="13.33333333" height="7.666666664749999" fill="#4CB73D" opacity="0.5" stroke="none"/>
  <rect x="0" y="-19.5" fill="#FFC90A" opacity="0.5" stroke="none" width="229" height="39"/>

  <!--
  <circle fill="#ff0000" opacity="0.3" cx="-13.33333333" cy="" r="4.99999999875"/>
  <circle fill="#ff0000" opacity="0.3" cx="242.33333333" cy="" r="4.99999999875"/>
  <rect x="0" y="-19.5" fill="#4CB73D" opacity="0.5" stroke="none" width="229" height="39"/>
  <rect x="229" y="-3.3333333325" width="13.33333333" height="6.666666665" fill="#4CB73D" opacity="0.5" stroke="none"/>
  <rect x="-13.33333333" y="-3.3333333325" width="13.33333333" height="6.666666665" fill="#4CB73D" opacity="0.5" stroke="none"/>
  -->
</g><g transform="matrix(6.123031769111886e-17 -1 1 6.123031769111886e-17 712 853)">
  <circle fill="#4CB73D" opacity="0.5" cx="-13.33333333" cy="" r="5.499999998624999"/>
  <circle fill="#4CB73D" opacity="0.5" cx="70.33333333" cy="" r="5.499999998624999"/>
  <rect x="-0.499999999875" y="-19.999999999875" fill="#4CB73D" opacity="0.5" stroke="none" width="57.99999999975" height="39.99999999975"/>
  <rect x="57" y="-3.8333333323749996" width="13.33333333" height="7.666666664749999" fill="#4CB73D" opacity="0.5" stroke="none"/>
  <rect x="-13.33333333" y="-3.8333333323749996" width="13.33333333" height="7.666666664749999" fill="#4CB73D" opacity="0.5" stroke="none"/>
  <rect x="0" y="-19.5" fill="#FFC90A" opacity="0.5" stroke="none" width="57" height="39"/>

  <!--
  <circle fill="#ff0000" opacity="0.3" cx="-13.33333333" cy="" r="4.99999999875"/>
  <circle fill="#ff0000" opacity="0.3" cx="70.33333333" cy="" r="4.99999999875"/>
  <rect x="0" y="-19.5" fill="#4CB73D" opacity="0.5" stroke="none" width="57" height="39"/>
  <rect x="57" y="-3.3333333325" width="13.33333333" height="6.666666665" fill="#4CB73D" opacity="0.5" stroke="none"/>
  <rect x="-13.33333333" y="-3.3333333325" width="13.33333333" height="6.666666665" fill="#4CB73D" opacity="0.5" stroke="none"/>
  -->
</g><g transform="matrix(-1 1.2246063538223773e-16 -1.2246063538223773e-16 -1 638 772)">
  <circle fill="#4CB73D" opacity="0.5" cx="-13.33333333" cy="" r="5.499999998624999"/>
  <circle fill="#4CB73D" opacity="0.5" cx="19.333333330000002" cy="" r="5.499999998624999"/>
  <rect x="-0.499999999875" y="-19.999999999875" fill="#4CB73D" opacity="0.5" stroke="none" width="6.99999999975" height="39.99999999975"/>
  <rect x="6" y="-3.8333333323749996" width="13.33333333" height="7.666666664749999" fill="#4CB73D" opacity="0.5" stroke="none"/>
  <rect x="-13.33333333" y="-3.8333333323749996" width="13.33333333" height="7.666666664749999" fill="#4CB73D" opacity="0.5" stroke="none"/>
  <rect x="0" y="-19.5" fill="#FFC90A" opacity="0.5" stroke="none" width="6" height="39"/>

  <!--
  <circle fill="#ff0000" opacity="0.3" cx="-13.33333333" cy="" r="4.99999999875"/>
  <circle fill="#ff0000" opacity="0.3" cx="19.333333330000002" cy="" r="4.99999999875"/>
  <rect x="0" y="-19.5" fill="#4CB73D" opacity="0.5" stroke="none" width="6" height="39"/>
  <rect x="6" y="-3.3333333325" width="13.33333333" height="6.666666665" fill="#4CB73D" opacity="0.5" stroke="none"/>
  <rect x="-13.33333333" y="-3.3333333325" width="13.33333333" height="6.666666665" fill="#4CB73D" opacity="0.5" stroke="none"/>
  -->
</g><g transform="matrix(6.123031769111886e-17 1 -1 6.123031769111886e-17 604 836)">
  <circle fill="#4CB73D" opacity="0.5" cx="-13.33333333" cy="" r="5.499999998624999"/>
  <circle fill="#4CB73D" opacity="0.5" cx="27.333333330000002" cy="" r="5.499999998624999"/>
  <rect x="-0.499999999875" y="-19.999999999875" fill="#4CB73D" opacity="0.5" stroke="none" width="14.999999999749999" height="39.99999999975"/>
  <rect x="14" y="-3.8333333323749996" width="13.33333333" height="7.666666664749999" fill="#4CB73D" opacity="0.5" stroke="none"/>
  <rect x="-13.33333333" y="-3.8333333323749996" width="13.33333333" height="7.666666664749999" fill="#4CB73D" opacity="0.5" stroke="none"/>
  <rect x="0" y="-19.5" fill="#FFC90A" opacity="0.5" stroke="none" width="14" height="39"/>

  <!--
  <circle fill="#ff0000" opacity="0.3" cx="-13.33333333" cy="" r="4.99999999875"/>
  <circle fill="#ff0000" opacity="0.3" cx="27.333333330000002" cy="" r="4.99999999875"/>
  <rect x="0" y="-19.5" fill="#4CB73D" opacity="0.5" stroke="none" width="14" height="39"/>
  <rect x="14" y="-3.3333333325" width="13.33333333" height="6.666666665" fill="#4CB73D" opacity="0.5" stroke="none"/>
  <rect x="-13.33333333" y="-3.3333333325" width="13.33333333" height="6.666666665" fill="#4CB73D" opacity="0.5" stroke="none"/>
  -->
</g><g transform="matrix(-1 1.2246063538223773e-16 -1.2246063538223773e-16 -1 521 923)">
  <circle fill="#4CB73D" opacity="0.5" cx="-13.33333333" cy="" r="5.499999998624999"/>
  <circle fill="#4CB73D" opacity="0.5" cx="412.33333333" cy="" r="5.499999998624999"/>
  <rect x="-0.499999999875" y="-19.999999999875" fill="#4CB73D" opacity="0.5" stroke="none" width="399.99999999975" height="39.99999999975"/>
  <rect x="399" y="-3.8333333323749996" width="13.33333333" height="7.666666664749999" fill="#4CB73D" opacity="0.5" stroke="none"/>
  <rect x="-13.33333333" y="-3.8333333323749996" width="13.33333333" height="7.666666664749999" fill="#4CB73D" opacity="0.5" stroke="none"/>
  <rect x="0" y="-19.5" fill="#FFC90A" opacity="0.5" stroke="none" width="399" height="39"/>

  <!--
  <circle fill="#ff0000" opacity="0.3" cx="-13.33333333" cy="" r="4.99999999875"/>
  <circle fill="#ff0000" opacity="0.3" cx="412.33333333" cy="" r="4.99999999875"/>
  <rect x="0" y="-19.5" fill="#4CB73D" opacity="0.5" stroke="none" width="399" height="39"/>
  <rect x="399" y="-3.3333333325" width="13.33333333" height="6.666666665" fill="#4CB73D" opacity="0.5" stroke="none"/>
  <rect x="-13.33333333" y="-3.3333333325" width="13.33333333" height="6.666666665" fill="#4CB73D" opacity="0.5" stroke="none"/>
  -->
</g><g transform="matrix(6.123031769111886e-17 1 -1 6.123031769111886e-17 92 961)">
  <circle fill="#4CB73D" opacity="0.5" cx="-13.33333333" cy="" r="5.499999998624999"/>
  <circle fill="#4CB73D" opacity="0.5" cx="27.333333330000002" cy="" r="5.499999998624999"/>
  <rect x="-0.499999999875" y="-19.999999999875" fill="#4CB73D" opacity="0.5" stroke="none" width="14.999999999749999" height="39.99999999975"/>
  <rect x="14" y="-3.8333333323749996" width="13.33333333" height="7.666666664749999" fill="#4CB73D" opacity="0.5" stroke="none"/>
  <rect x="-13.33333333" y="-3.8333333323749996" width="13.33333333" height="7.666666664749999" fill="#4CB73D" opacity="0.5" stroke="none"/>
  <rect x="0" y="-19.5" fill="#FFC90A" opacity="0.5" stroke="none" width="14" height="39"/>

  <!--
  <circle fill="#ff0000" opacity="0.3" cx="-13.33333333" cy="" r="4.99999999875"/>
  <circle fill="#ff0000" opacity="0.3" cx="27.333333330000002" cy="" r="4.99999999875"/>
  <rect x="0" y="-19.5" fill="#4CB73D" opacity="0.5" stroke="none" width="14" height="39"/>
  <rect x="14" y="-3.3333333325" width="13.33333333" height="6.666666665" fill="#4CB73D" opacity="0.5" stroke="none"/>
  <rect x="-13.33333333" y="-3.3333333325" width="13.33333333" height="6.666666665" fill="#4CB73D" opacity="0.5" stroke="none"/>
  -->
</g><g transform="matrix(1 0 0 1 122 1023)">
  <circle fill="#EF305E" opacity="0.5" cx="-13.33333333" cy="" r="5.499999998624999"/>
  <circle fill="#EF305E" opacity="0.5" cx="28.333333330000002" cy="" r="5.499999998624999"/>
  <rect x="-0.499999999875" y="-19.999999999875" fill="#EF305E" opacity="0.5" stroke="none" width="15.999999999749999" height="39.99999999975"/>
  <rect x="15" y="-3.8333333323749996" width="13.33333333" height="7.666666664749999" fill="#EF305E" opacity="0.5" stroke="none"/>
  <rect x="-13.33333333" y="-3.8333333323749996" width="13.33333333" height="7.666666664749999" fill="#EF305E" opacity="0.5" stroke="none"/>
  <rect x="0" y="-19.5" fill="#FFC90A" opacity="0.5" stroke="none" width="15" height="39"/>

  <!--
  <circle fill="#ff0000" opacity="0.3" cx="-13.33333333" cy="" r="4.99999999875"/>
  <circle fill="#ff0000" opacity="0.3" cx="28.333333330000002" cy="" r="4.99999999875"/>
  <rect x="0" y="-19.5" fill="#EF305E" opacity="0.5" stroke="none" width="15" height="39"/>
  <rect x="15" y="-3.3333333325" width="13.33333333" height="6.666666665" fill="#EF305E" opacity="0.5" stroke="none"/>
  <rect x="-13.33333333" y="-3.3333333325" width="13.33333333" height="6.666666665" fill="#EF305E" opacity="0.5" stroke="none"/>
  -->
</g><g transform="matrix(6.123031769111886e-17 -1 1 6.123031769111886e-17 394 1000)">
  <circle fill="#4CB73D" opacity="0.5" cx="-13.33333333" cy="" r="5.499999998624999"/>
  <circle fill="#4CB73D" opacity="0.5" cx="239.33333333" cy="" r="5.499999998624999"/>
  <rect x="-0.499999999875" y="-19.999999999875" fill="#4CB73D" opacity="0.5" stroke="none" width="226.99999999975" height="39.99999999975"/>
  <rect x="226" y="-3.8333333323749996" width="13.33333333" height="7.666666664749999" fill="#4CB73D" opacity="0.5" stroke="none"/>
  <rect x="-13.33333333" y="-3.8333333323749996" width="13.33333333" height="7.666666664749999" fill="#4CB73D" opacity="0.5" stroke="none"/>
  <rect x="0" y="-19.5" fill="#FFC90A" opacity="0.5" stroke="none" width="226" height="39"/>

  <!--
  <circle fill="#ff0000" opacity="0.3" cx="-13.33333333" cy="" r="4.99999999875"/>
  <circle fill="#ff0000" opacity="0.3" cx="239.33333333" cy="" r="4.99999999875"/>
  <rect x="0" y="-19.5" fill="#4CB73D" opacity="0.5" stroke="none" width="226" height="39"/>
  <rect x="226" y="-3.3333333325" width="13.33333333" height="6.666666665" fill="#4CB73D" opacity="0.5" stroke="none"/>
  <rect x="-13.33333333" y="-3.3333333325" width="13.33333333" height="6.666666665" fill="#4CB73D" opacity="0.5" stroke="none"/>
  -->
</g><g transform="matrix(-1 1.2246063538223773e-16 -1.2246063538223773e-16 -1 128 774)">
  <circle fill="#EF305E" opacity="0.5" cx="-13.33333333" cy="" r="5.499999998624999"/>
  <circle fill="#EF305E" opacity="0.5" cx="28.333333330000002" cy="" r="5.499999998624999"/>
  <rect x="-0.499999999875" y="-19.999999999875" fill="#EF305E" opacity="0.5" stroke="none" width="15.999999999749999" height="39.99999999975"/>
  <rect x="15" y="-3.8333333323749996" width="13.33333333" height="7.666666664749999" fill="#EF305E" opacity="0.5" stroke="none"/>
  <rect x="-13.33333333" y="-3.8333333323749996" width="13.33333333" height="7.666666664749999" fill="#EF305E" opacity="0.5" stroke="none"/>
  <rect x="0" y="-19.5" fill="#FFC90A" opacity="0.5" stroke="none" width="15" height="39"/>

  <!--
  <circle fill="#ff0000" opacity="0.3" cx="-13.33333333" cy="" r="4.99999999875"/>
  <circle fill="#ff0000" opacity="0.3" cx="28.333333330000002" cy="" r="4.99999999875"/>
  <rect x="0" y="-19.5" fill="#EF305E" opacity="0.5" stroke="none" width="15" height="39"/>
  <rect x="15" y="-3.3333333325" width="13.33333333" height="6.666666665" fill="#EF305E" opacity="0.5" stroke="none"/>
  <rect x="-13.33333333" y="-3.3333333325" width="13.33333333" height="6.666666665" fill="#EF305E" opacity="0.5" stroke="none"/>
  -->
</g><g transform="matrix(6.123031769111886e-17 -1 1 6.123031769111886e-17 89 725)">
  <circle fill="#4CB73D" opacity="0.5" cx="-13.33333333" cy="" r="5.499999998624999"/>
  <circle fill="#4CB73D" opacity="0.5" cx="32.33333333" cy="" r="5.499999998624999"/>
  <rect x="-0.499999999875" y="-19.999999999875" fill="#4CB73D" opacity="0.5" stroke="none" width="19.99999999975" height="39.99999999975"/>
  <rect x="19" y="-3.8333333323749996" width="13.33333333" height="7.666666664749999" fill="#4CB73D" opacity="0.5" stroke="none"/>
  <rect x="-13.33333333" y="-3.8333333323749996" width="13.33333333" height="7.666666664749999" fill="#4CB73D" opacity="0.5" stroke="none"/>
  <rect x="0" y="-19.5" fill="#FFC90A" opacity="0.5" stroke="none" width="19" height="39"/>

  <!--
  <circle fill="#ff0000" opacity="0.3" cx="-13.33333333" cy="" r="4.99999999875"/>
  <circle fill="#ff0000" opacity="0.3" cx="32.33333333" cy="" r="4.99999999875"/>
  <rect x="0" y="-19.5" fill="#4CB73D" opacity="0.5" stroke="none" width="19" height="39"/>
  <rect x="19" y="-3.3333333325" width="13.33333333" height="6.666666665" fill="#4CB73D" opacity="0.5" stroke="none"/>
  <rect x="-13.33333333" y="-3.3333333325" width="13.33333333" height="6.666666665" fill="#4CB73D" opacity="0.5" stroke="none"/>
  -->
</g><g transform="matrix(6.123031769111886e-17 -1 1 6.123031769111886e-17 847 694)">
  <circle fill="#4CB73D" opacity="0.5" cx="-13.33333333" cy="" r="5.499999998624999"/>
  <circle fill="#4CB73D" opacity="0.5" cx="150.33333333" cy="" r="5.499999998624999"/>
  <rect x="-0.499999999875" y="-19.999999999875" fill="#4CB73D" opacity="0.5" stroke="none" width="137.99999999975" height="39.99999999975"/>
  <rect x="137" y="-3.8333333323749996" width="13.33333333" height="7.666666664749999" fill="#4CB73D" opacity="0.5" stroke="none"/>
  <rect x="-13.33333333" y="-3.8333333323749996" width="13.33333333" height="7.666666664749999" fill="#4CB73D" opacity="0.5" stroke="none"/>
  <rect x="0" y="-19.5" fill="#FFC90A" opacity="0.5" stroke="none" width="137" height="39"/>

  <!--
  <circle fill="#ff0000" opacity="0.3" cx="-13.33333333" cy="" r="4.99999999875"/>
  <circle fill="#ff0000" opacity="0.3" cx="150.33333333" cy="" r="4.99999999875"/>
  <rect x="0" y="-19.5" fill="#4CB73D" opacity="0.5" stroke="none" width="137" height="39"/>
  <rect x="137" y="-3.3333333325" width="13.33333333" height="6.666666665" fill="#4CB73D" opacity="0.5" stroke="none"/>
  <rect x="-13.33333333" y="-3.3333333325" width="13.33333333" height="6.666666665" fill="#4CB73D" opacity="0.5" stroke="none"/>
  -->
</g><g transform="matrix(6.123031769111886e-17 1 -1 6.123031769111886e-17 332 557)">
  <circle fill="#EF305E" opacity="0.5" cx="-18.333333330000002" cy="" r="5.499999998624999"/>
  <circle fill="#EF305E" opacity="0.5" cx="23.333333330000002" cy="" r="5.499999998624999"/>
  <rect x="-5.4999999998749995" y="-19.999999999875" fill="#EF305E" opacity="0.5" stroke="none" width="15.999999999749999" height="39.99999999975"/>
  <rect x="10" y="-3.8333333323749996" width="13.33333333" height="7.666666664749999" fill="#EF305E" opacity="0.5" stroke="none"/>
  <rect x="-18.333333330000002" y="-3.8333333323749996" width="13.33333333" height="7.666666664749999" fill="#EF305E" opacity="0.5" stroke="none"/>
  <rect x="-5" y="-19.5" fill="#FFC90A" opacity="0.5" stroke="none" width="15" height="39"/>

  <!--
  <circle fill="#ff0000" opacity="0.3" cx="-18.333333330000002" cy="" r="4.99999999875"/>
  <circle fill="#ff0000" opacity="0.3" cx="28.333333330000002" cy="" r="4.99999999875"/>
  <rect x="-5" y="-19.5" fill="#EF305E" opacity="0.5" stroke="none" width="15" height="39"/>
  <rect x="10" y="-3.3333333325" width="13.33333333" height="6.666666665" fill="#EF305E" opacity="0.5" stroke="none"/>
  <rect x="-18.333333330000002" y="-3.3333333325" width="13.33333333" height="6.666666665" fill="#EF305E" opacity="0.5" stroke="none"/>
  -->
</g><g transform="matrix(1 0 0 1 416 577)">
  <circle fill="#4CB73D" opacity="0.5" cx="-13.33333333" cy="" r="5.499999998624999"/>
  <circle fill="#4CB73D" opacity="0.5" cx="472.33333333" cy="" r="5.499999998624999"/>
  <rect x="-0.499999999875" y="-10.999999999875" fill="#4CB73D" opacity="0.5" stroke="none" width="459.99999999975" height="21.99999999975"/>
  <rect x="459" y="-3.8333333323749996" width="13.33333333" height="7.666666664749999" fill="#4CB73D" opacity="0.5" stroke="none"/>
  <rect x="-13.33333333" y="-3.8333333323749996" width="13.33333333" height="7.666666664749999" fill="#4CB73D" opacity="0.5" stroke="none"/>
  <rect x="0" y="-10.5" fill="#FFC90A" opacity="0.5" stroke="none" width="459" height="21"/>

  <!--
  <circle fill="#ff0000" opacity="0.3" cx="-13.33333333" cy="" r="4.99999999875"/>
  <circle fill="#ff0000" opacity="0.3" cx="472.33333333" cy="" r="4.99999999875"/>
  <rect x="0" y="-10.5" fill="#4CB73D" opacity="0.5" stroke="none" width="459" height="21"/>
  <rect x="459" y="-3.3333333325" width="13.33333333" height="6.666666665" fill="#4CB73D" opacity="0.5" stroke="none"/>
  <rect x="-13.33333333" y="-3.3333333325" width="13.33333333" height="6.666666665" fill="#4CB73D" opacity="0.5" stroke="none"/>
  -->
</g><g transform="matrix(6.123031769111886e-17 1 -1 6.123031769111886e-17 979 587)">
  <circle fill="#4CB73D" opacity="0.5" cx="-13.33333333" cy="" r="5.499999998624999"/>
  <circle fill="#4CB73D" opacity="0.5" cx="24.333333330000002" cy="" r="5.499999998624999"/>
  <rect x="-0.499999999875" y="-19.999999999875" fill="#4CB73D" opacity="0.5" stroke="none" width="11.999999999749999" height="39.99999999975"/>
  <rect x="11" y="-3.8333333323749996" width="13.33333333" height="7.666666664749999" fill="#4CB73D" opacity="0.5" stroke="none"/>
  <rect x="-13.33333333" y="-3.8333333323749996" width="13.33333333" height="7.666666664749999" fill="#4CB73D" opacity="0.5" stroke="none"/>
  <rect x="0" y="-19.5" fill="#FFC90A" opacity="0.5" stroke="none" width="11" height="39"/>

  <!--
  <circle fill="#ff0000" opacity="0.3" cx="-13.33333333" cy="" r="4.99999999875"/>
  <circle fill="#ff0000" opacity="0.3" cx="24.333333330000002" cy="" r="4.99999999875"/>
  <rect x="0" y="-19.5" fill="#4CB73D" opacity="0.5" stroke="none" width="11" height="39"/>
  <rect x="11" y="-3.3333333325" width="13.33333333" height="6.666666665" fill="#4CB73D" opacity="0.5" stroke="none"/>
  <rect x="-13.33333333" y="-3.3333333325" width="13.33333333" height="6.666666665" fill="#4CB73D" opacity="0.5" stroke="none"/>
  -->
</g><g transform="matrix(6.123031769111886e-17 1 -1 6.123031769111886e-17 514 557)">
  <circle fill="#4CB73D" opacity="0.5" cx="-13.33333333" cy="" r="5.499999998624999"/>
  <circle fill="#4CB73D" opacity="0.5" cx="112.33333333" cy="" r="5.499999998624999"/>
  <rect x="-0.499999999875" y="-19.999999999875" fill="#4CB73D" opacity="0.5" stroke="none" width="99.99999999975" height="39.99999999975"/>
  <rect x="99" y="-3.8333333323749996" width="13.33333333" height="7.666666664749999" fill="#4CB73D" opacity="0.5" stroke="none"/>
  <rect x="-13.33333333" y="-3.8333333323749996" width="13.33333333" height="7.666666664749999" fill="#4CB73D" opacity="0.5" stroke="none"/>
  <rect x="0" y="-19.5" fill="#FFC90A" opacity="0.5" stroke="none" width="99" height="39"/>

  <!--
  <circle fill="#ff0000" opacity="0.3" cx="-13.33333333" cy="" r="4.99999999875"/>
  <circle fill="#ff0000" opacity="0.3" cx="112.33333333" cy="" r="4.99999999875"/>
  <rect x="0" y="-19.5" fill="#4CB73D" opacity="0.5" stroke="none" width="99" height="39"/>
  <rect x="99" y="-3.3333333325" width="13.33333333" height="6.666666665" fill="#4CB73D" opacity="0.5" stroke="none"/>
  <rect x="-13.33333333" y="-3.3333333325" width="13.33333333" height="6.666666665" fill="#4CB73D" opacity="0.5" stroke="none"/>
  -->
</g><g transform="matrix(6.123031769111886e-17 -1 1 6.123031769111886e-17 799 241)">
  <circle fill="#4CB73D" opacity="0.5" cx="-13.33333333" cy="" r="5.499999998624999"/>
  <circle fill="#4CB73D" opacity="0.5" cx="52.33333333" cy="" r="5.499999998624999"/>
  <rect x="-0.499999999875" y="-19.999999999875" fill="#4CB73D" opacity="0.5" stroke="none" width="39.99999999975" height="39.99999999975"/>
  <rect x="39" y="-3.8333333323749996" width="13.33333333" height="7.666666664749999" fill="#4CB73D" opacity="0.5" stroke="none"/>
  <rect x="-13.33333333" y="-3.8333333323749996" width="13.33333333" height="7.666666664749999" fill="#4CB73D" opacity="0.5" stroke="none"/>
  <rect x="0" y="-19.5" fill="#FFC90A" opacity="0.5" stroke="none" width="39" height="39"/>

  <!--
  <circle fill="#ff0000" opacity="0.3" cx="-13.33333333" cy="" r="4.99999999875"/>
  <circle fill="#ff0000" opacity="0.3" cx="52.33333333" cy="" r="4.99999999875"/>
  <rect x="0" y="-19.5" fill="#4CB73D" opacity="0.5" stroke="none" width="39" height="39"/>
  <rect x="39" y="-3.3333333325" width="13.33333333" height="6.666666665" fill="#4CB73D" opacity="0.5" stroke="none"/>
  <rect x="-13.33333333" y="-3.3333333325" width="13.33333333" height="6.666666665" fill="#4CB73D" opacity="0.5" stroke="none"/>
  -->
</g><g transform="matrix(6.123031769111886e-17 -1 1 6.123031769111886e-17 981 189)">
  <circle fill="#4CB73D" opacity="0.5" cx="-13.33333333" cy="" r="5.499999998624999"/>
  <circle fill="#4CB73D" opacity="0.5" cx="107.33333333" cy="" r="5.499999998624999"/>
  <rect x="-0.499999999875" y="-15.999999999875" fill="#4CB73D" opacity="0.5" stroke="none" width="94.99999999975" height="31.99999999975"/>
  <rect x="94" y="-3.8333333323749996" width="13.33333333" height="7.666666664749999" fill="#4CB73D" opacity="0.5" stroke="none"/>
  <rect x="-13.33333333" y="-3.8333333323749996" width="13.33333333" height="7.666666664749999" fill="#4CB73D" opacity="0.5" stroke="none"/>
  <rect x="0" y="-15.5" fill="#FFC90A" opacity="0.5" stroke="none" width="94" height="31"/>

  <!--
  <circle fill="#ff0000" opacity="0.3" cx="-13.33333333" cy="" r="4.99999999875"/>
  <circle fill="#ff0000" opacity="0.3" cx="107.33333333" cy="" r="4.99999999875"/>
  <rect x="0" y="-15.5" fill="#4CB73D" opacity="0.5" stroke="none" width="94" height="31"/>
  <rect x="94" y="-3.3333333325" width="13.33333333" height="6.666666665" fill="#4CB73D" opacity="0.5" stroke="none"/>
  <rect x="-13.33333333" y="-3.3333333325" width="13.33333333" height="6.666666665" fill="#4CB73D" opacity="0.5" stroke="none"/>
  -->
</g><g transform="matrix(-1 1.2246063538223773e-16 -1.2246063538223773e-16 -1 962 75)">
  <circle fill="#4CB73D" opacity="0.5" cx="-13.33333333" cy="" r="5.499999998624999"/>
  <circle fill="#4CB73D" opacity="0.5" cx="448.33333333" cy="" r="5.499999998624999"/>
  <rect x="-0.499999999875" y="-15.999999999875" fill="#4CB73D" opacity="0.5" stroke="none" width="435.99999999975" height="31.99999999975"/>
  <rect x="435" y="-3.8333333323749996" width="13.33333333" height="7.666666664749999" fill="#4CB73D" opacity="0.5" stroke="none"/>
  <rect x="-13.33333333" y="-3.8333333323749996" width="13.33333333" height="7.666666664749999" fill="#4CB73D" opacity="0.5" stroke="none"/>
  <rect x="0" y="-15.5" fill="#FFC90A" opacity="0.5" stroke="none" width="435" height="31"/>

  <!--
  <circle fill="#ff0000" opacity="0.3" cx="-13.33333333" cy="" r="4.99999999875"/>
  <circle fill="#ff0000" opacity="0.3" cx="448.33333333" cy="" r="4.99999999875"/>
  <rect x="0" y="-15.5" fill="#4CB73D" opacity="0.5" stroke="none" width="435" height="31"/>
  <rect x="435" y="-3.3333333325" width="13.33333333" height="6.666666665" fill="#4CB73D" opacity="0.5" stroke="none"/>
  <rect x="-13.33333333" y="-3.3333333325" width="13.33333333" height="6.666666665" fill="#4CB73D" opacity="0.5" stroke="none"/>
  -->
</g><g transform="matrix(-1 1.2246063538223773e-16 -1.2246063538223773e-16 -1 496 80)">
  <circle fill="#4CB73D" opacity="0.5" cx="-13.33333333" cy="" r="5.499999998624999"/>
  <circle fill="#4CB73D" opacity="0.5" cx="442.33333333" cy="" r="5.499999998624999"/>
  <rect x="-0.499999999875" y="-9.999999999875" fill="#4CB73D" opacity="0.5" stroke="none" width="429.99999999975" height="19.99999999975"/>
  <rect x="429" y="-3.8333333323749996" width="13.33333333" height="7.666666664749999" fill="#4CB73D" opacity="0.5" stroke="none"/>
  <rect x="-13.33333333" y="-3.8333333323749996" width="13.33333333" height="7.666666664749999" fill="#4CB73D" opacity="0.5" stroke="none"/>
  <rect x="0" y="-9.5" fill="#FFC90A" opacity="0.5" stroke="none" width="429" height="19"/>

  <!--
  <circle fill="#ff0000" opacity="0.3" cx="-13.33333333" cy="" r="4.99999999875"/>
  <circle fill="#ff0000" opacity="0.3" cx="442.33333333" cy="" r="4.99999999875"/>
  <rect x="0" y="-9.5" fill="#4CB73D" opacity="0.5" stroke="none" width="429" height="19"/>
  <rect x="429" y="-3.3333333325" width="13.33333333" height="6.666666665" fill="#4CB73D" opacity="0.5" stroke="none"/>
  <rect x="-13.33333333" y="-3.3333333325" width="13.33333333" height="6.666666665" fill="#4CB73D" opacity="0.5" stroke="none"/>
  -->
</g><g transform="matrix(6.123031769111886e-17 -1 1 6.123031769111886e-17 763 189)">
  <circle fill="#4CB73D" opacity="0.5" cx="-13.33333333" cy="" r="5.499999998624999"/>
  <circle fill="#4CB73D" opacity="0.5" cx="26.333333330000002" cy="" r="5.499999998624999"/>
  <rect x="-0.499999999875" y="-19.999999999875" fill="#4CB73D" opacity="0.5" stroke="none" width="13.999999999749999" height="39.99999999975"/>
  <rect x="13" y="-3.8333333323749996" width="13.33333333" height="7.666666664749999" fill="#4CB73D" opacity="0.5" stroke="none"/>
  <rect x="-13.33333333" y="-3.8333333323749996" width="13.33333333" height="7.666666664749999" fill="#4CB73D" opacity="0.5" stroke="none"/>
  <rect x="0" y="-19.5" fill="#FFC90A" opacity="0.5" stroke="none" width="13" height="39"/>

  <!--
  <circle fill="#ff0000" opacity="0.3" cx="-13.33333333" cy="" r="4.99999999875"/>
  <circle fill="#ff0000" opacity="0.3" cx="26.333333330000002" cy="" r="4.99999999875"/>
  <rect x="0" y="-19.5" fill="#4CB73D" opacity="0.5" stroke="none" width="13" height="39"/>
  <rect x="13" y="-3.3333333325" width="13.33333333" height="6.666666665" fill="#4CB73D" opacity="0.5" stroke="none"/>
  <rect x="-13.33333333" y="-3.3333333325" width="13.33333333" height="6.666666665" fill="#4CB73D" opacity="0.5" stroke="none"/>
  -->
</g><g transform="matrix(-1 1.2246063538223773e-16 -1.2246063538223773e-16 -1 742 166)">
  <circle fill="#4CB73D" opacity="0.5" cx="-13.33333333" cy="" r="5.499999998624999"/>
  <circle fill="#4CB73D" opacity="0.5" cx="54.33333333" cy="" r="5.499999998624999"/>
  <rect x="-0.499999999875" y="-8.999999999875" fill="#4CB73D" opacity="0.5" stroke="none" width="41.99999999975" height="17.99999999975"/>
  <rect x="41" y="-3.8333333323749996" width="13.33333333" height="7.666666664749999" fill="#4CB73D" opacity="0.5" stroke="none"/>
  <rect x="-13.33333333" y="-3.8333333323749996" width="13.33333333" height="7.666666664749999" fill="#4CB73D" opacity="0.5" stroke="none"/>
  <rect x="0" y="-8.5" fill="#FFC90A" opacity="0.5" stroke="none" width="41" height="17"/>

  <!--
  <circle fill="#ff0000" opacity="0.3" cx="-13.33333333" cy="" r="4.99999999875"/>
  <circle fill="#ff0000" opacity="0.3" cx="54.33333333" cy="" r="4.99999999875"/>
  <rect x="0" y="-8.5" fill="#4CB73D" opacity="0.5" stroke="none" width="41" height="17"/>
  <rect x="41" y="-3.3333333325" width="13.33333333" height="6.666666665" fill="#4CB73D" opacity="0.5" stroke="none"/>
  <rect x="-13.33333333" y="-3.3333333325" width="13.33333333" height="6.666666665" fill="#4CB73D" opacity="0.5" stroke="none"/>
  -->
</g><g transform="matrix(-1 1.2246063538223773e-16 -1.2246063538223773e-16 -1 646 166)">
  <circle fill="#4CB73D" opacity="0.5" cx="-13.33333333" cy="" r="5.499999998624999"/>
  <circle fill="#4CB73D" opacity="0.5" cx="54.33333333" cy="" r="5.499999998624999"/>
  <rect x="-0.499999999875" y="-10.999999999875" fill="#4CB73D" opacity="0.5" stroke="none" width="41.99999999975" height="21.99999999975"/>
  <rect x="41" y="-3.8333333323749996" width="13.33333333" height="7.666666664749999" fill="#4CB73D" opacity="0.5" stroke="none"/>
  <rect x="-13.33333333" y="-3.8333333323749996" width="13.33333333" height="7.666666664749999" fill="#4CB73D" opacity="0.5" stroke="none"/>
  <rect x="0" y="-10.5" fill="#FFC90A" opacity="0.5" stroke="none" width="41" height="21"/>

  <!--
  <circle fill="#ff0000" opacity="0.3" cx="-13.33333333" cy="" r="4.99999999875"/>
  <circle fill="#ff0000" opacity="0.3" cx="54.33333333" cy="" r="4.99999999875"/>
  <rect x="0" y="-10.5" fill="#4CB73D" opacity="0.5" stroke="none" width="41" height="21"/>
  <rect x="41" y="-3.3333333325" width="13.33333333" height="6.666666665" fill="#4CB73D" opacity="0.5" stroke="none"/>
  <rect x="-13.33333333" y="-3.3333333325" width="13.33333333" height="6.666666665" fill="#4CB73D" opacity="0.5" stroke="none"/>
  -->
</g><g transform="matrix(-1 1.2246063538223773e-16 -1.2246063538223773e-16 -1 538 166)">
  <circle fill="#4CB73D" opacity="0.5" cx="-13.33333333" cy="" r="5.499999998624999"/>
  <circle fill="#4CB73D" opacity="0.5" cx="54.33333333" cy="" r="5.499999998624999"/>
  <rect x="-0.499999999875" y="-10.999999999875" fill="#4CB73D" opacity="0.5" stroke="none" width="41.99999999975" height="21.99999999975"/>
  <rect x="41" y="-3.8333333323749996" width="13.33333333" height="7.666666664749999" fill="#4CB73D" opacity="0.5" stroke="none"/>
  <rect x="-13.33333333" y="-3.8333333323749996" width="13.33333333" height="7.666666664749999" fill="#4CB73D" opacity="0.5" stroke="none"/>
  <rect x="0" y="-10.5" fill="#FFC90A" opacity="0.5" stroke="none" width="41" height="21"/>

  <!--
  <circle fill="#ff0000" opacity="0.3" cx="-13.33333333" cy="" r="4.99999999875"/>
  <circle fill="#ff0000" opacity="0.3" cx="54.33333333" cy="" r="4.99999999875"/>
  <rect x="0" y="-10.5" fill="#4CB73D" opacity="0.5" stroke="none" width="41" height="21"/>
  <rect x="41" y="-3.3333333325" width="13.33333333" height="6.666666665" fill="#4CB73D" opacity="0.5" stroke="none"/>
  <rect x="-13.33333333" y="-3.3333333325" width="13.33333333" height="6.666666665" fill="#4CB73D" opacity="0.5" stroke="none"/>
  -->
</g><g transform="matrix(-1 1.2246063538223773e-16 -1.2246063538223773e-16 -1 394 164)">
  <circle fill="#4CB73D" opacity="0.5" cx="-13.33333333" cy="" r="5.499999998624999"/>
  <circle fill="#4CB73D" opacity="0.5" cx="54.33333333" cy="" r="5.499999998624999"/>
  <rect x="-0.499999999875" y="-9.999999999875" fill="#4CB73D" opacity="0.5" stroke="none" width="41.99999999975" height="19.99999999975"/>
  <rect x="41" y="-3.8333333323749996" width="13.33333333" height="7.666666664749999" fill="#4CB73D" opacity="0.5" stroke="none"/>
  <rect x="-13.33333333" y="-3.8333333323749996" width="13.33333333" height="7.666666664749999" fill="#4CB73D" opacity="0.5" stroke="none"/>
  <rect x="0" y="-9.5" fill="#FFC90A" opacity="0.5" stroke="none" width="41" height="19"/>

  <!--
  <circle fill="#ff0000" opacity="0.3" cx="-13.33333333" cy="" r="4.99999999875"/>
  <circle fill="#ff0000" opacity="0.3" cx="54.33333333" cy="" r="4.99999999875"/>
  <rect x="0" y="-9.5" fill="#4CB73D" opacity="0.5" stroke="none" width="41" height="19"/>
  <rect x="41" y="-3.3333333325" width="13.33333333" height="6.666666665" fill="#4CB73D" opacity="0.5" stroke="none"/>
  <rect x="-13.33333333" y="-3.3333333325" width="13.33333333" height="6.666666665" fill="#4CB73D" opacity="0.5" stroke="none"/>
  -->
</g><g transform="matrix(-1 1.2246063538223773e-16 -1.2246063538223773e-16 -1 294 164)">
  <circle fill="#4CB73D" opacity="0.5" cx="-13.33333333" cy="" r="5.499999998624999"/>
  <circle fill="#4CB73D" opacity="0.5" cx="54.33333333" cy="" r="5.499999998624999"/>
  <rect x="-0.499999999875" y="-9.999999999875" fill="#4CB73D" opacity="0.5" stroke="none" width="41.99999999975" height="19.99999999975"/>
  <rect x="41" y="-3.8333333323749996" width="13.33333333" height="7.666666664749999" fill="#4CB73D" opacity="0.5" stroke="none"/>
  <rect x="-13.33333333" y="-3.8333333323749996" width="13.33333333" height="7.666666664749999" fill="#4CB73D" opacity="0.5" stroke="none"/>
  <rect x="0" y="-9.5" fill="#FFC90A" opacity="0.5" stroke="none" width="41" height="19"/>

  <!--
  <circle fill="#ff0000" opacity="0.3" cx="-13.33333333" cy="" r="4.99999999875"/>
  <circle fill="#ff0000" opacity="0.3" cx="54.33333333" cy="" r="4.99999999875"/>
  <rect x="0" y="-9.5" fill="#4CB73D" opacity="0.5" stroke="none" width="41" height="19"/>
  <rect x="41" y="-3.3333333325" width="13.33333333" height="6.666666665" fill="#4CB73D" opacity="0.5" stroke="none"/>
  <rect x="-13.33333333" y="-3.3333333325" width="13.33333333" height="6.666666665" fill="#4CB73D" opacity="0.5" stroke="none"/>
  -->
</g><g transform="matrix(-1 1.2246063538223773e-16 -1.2246063538223773e-16 -1 204 164)">
  <circle fill="#4CB73D" opacity="0.5" cx="-13.33333333" cy="" r="5.499999998624999"/>
  <circle fill="#4CB73D" opacity="0.5" cx="54.33333333" cy="" r="5.499999998624999"/>
  <rect x="-0.499999999875" y="-9.999999999875" fill="#4CB73D" opacity="0.5" stroke="none" width="41.99999999975" height="19.99999999975"/>
  <rect x="41" y="-3.8333333323749996" width="13.33333333" height="7.666666664749999" fill="#4CB73D" opacity="0.5" stroke="none"/>
  <rect x="-13.33333333" y="-3.8333333323749996" width="13.33333333" height="7.666666664749999" fill="#4CB73D" opacity="0.5" stroke="none"/>
  <rect x="0" y="-9.5" fill="#FFC90A" opacity="0.5" stroke="none" width="41" height="19"/>

  <!--
  <circle fill="#ff0000" opacity="0.3" cx="-13.33333333" cy="" r="4.99999999875"/>
  <circle fill="#ff0000" opacity="0.3" cx="54.33333333" cy="" r="4.99999999875"/>
  <rect x="0" y="-9.5" fill="#4CB73D" opacity="0.5" stroke="none" width="41" height="19"/>
  <rect x="41" y="-3.3333333325" width="13.33333333" height="6.666666665" fill="#4CB73D" opacity="0.5" stroke="none"/>
  <rect x="-13.33333333" y="-3.3333333325" width="13.33333333" height="6.666666665" fill="#4CB73D" opacity="0.5" stroke="none"/>
  -->
</g><g transform="matrix(1 0 0 1 787 167)">
  <circle fill="#4CB73D" opacity="0.5" cx="-13.33333333" cy="" r="5.499999998624999"/>
  <circle fill="#4CB73D" opacity="0.5" cx="54.33333333" cy="" r="5.499999998624999"/>
  <rect x="-0.499999999875" y="-9.999999999875" fill="#4CB73D" opacity="0.5" stroke="none" width="41.99999999975" height="19.99999999975"/>
  <rect x="41" y="-3.8333333323749996" width="13.33333333" height="7.666666664749999" fill="#4CB73D" opacity="0.5" stroke="none"/>
  <rect x="-13.33333333" y="-3.8333333323749996" width="13.33333333" height="7.666666664749999" fill="#4CB73D" opacity="0.5" stroke="none"/>
  <rect x="0" y="-9.5" fill="#FFC90A" opacity="0.5" stroke="none" width="41" height="19"/>

  <!--
  <circle fill="#ff0000" opacity="0.3" cx="-13.33333333" cy="" r="4.99999999875"/>
  <circle fill="#ff0000" opacity="0.3" cx="54.33333333" cy="" r="4.99999999875"/>
  <rect x="0" y="-9.5" fill="#4CB73D" opacity="0.5" stroke="none" width="41" height="19"/>
  <rect x="41" y="-3.3333333325" width="13.33333333" height="6.666666665" fill="#4CB73D" opacity="0.5" stroke="none"/>
  <rect x="-13.33333333" y="-3.3333333325" width="13.33333333" height="6.666666665" fill="#4CB73D" opacity="0.5" stroke="none"/>
  -->
</g><g transform="matrix(6.123031769111886e-17 1 -1 6.123031769111886e-17 230 796)">
  <circle fill="#4CB73D" opacity="0.5" cx="-13.33333333" cy="" r="5.499999998624999"/>
  <circle fill="#4CB73D" opacity="0.5" cx="70.33333333" cy="" r="5.499999998624999"/>
  <rect x="-0.499999999875" y="-19.999999999875" fill="#4CB73D" opacity="0.5" stroke="none" width="57.99999999975" height="39.99999999975"/>
  <rect x="57" y="-3.8333333323749996" width="13.33333333" height="7.666666664749999" fill="#4CB73D" opacity="0.5" stroke="none"/>
  <rect x="-13.33333333" y="-3.8333333323749996" width="13.33333333" height="7.666666664749999" fill="#4CB73D" opacity="0.5" stroke="none"/>
  <rect x="0" y="-19.5" fill="#FFC90A" opacity="0.5" stroke="none" width="57" height="39"/>

  <!--
  <circle fill="#ff0000" opacity="0.3" cx="-13.33333333" cy="" r="4.99999999875"/>
  <circle fill="#ff0000" opacity="0.3" cx="70.33333333" cy="" r="4.99999999875"/>
  <rect x="0" y="-19.5" fill="#4CB73D" opacity="0.5" stroke="none" width="57" height="39"/>
  <rect x="57" y="-3.3333333325" width="13.33333333" height="6.666666665" fill="#4CB73D" opacity="0.5" stroke="none"/>
  <rect x="-13.33333333" y="-3.3333333325" width="13.33333333" height="6.666666665" fill="#4CB73D" opacity="0.5" stroke="none"/>
  -->
</g><g transform="matrix(1 0 0 1 477 1012)">
  <circle fill="#4CB73D" opacity="0.5" cx="-13.33333333" cy="" r="5.499999998624999"/>
  <circle fill="#4CB73D" opacity="0.5" cx="57.33333333" cy="" r="5.499999998624999"/>
  <rect x="-0.499999999875" y="-12.999999999875" fill="#4CB73D" opacity="0.5" stroke="none" width="44.99999999975" height="25.99999999975"/>
  <rect x="44" y="-3.8333333323749996" width="13.33333333" height="7.666666664749999" fill="#4CB73D" opacity="0.5" stroke="none"/>
  <rect x="-13.33333333" y="-3.8333333323749996" width="13.33333333" height="7.666666664749999" fill="#4CB73D" opacity="0.5" stroke="none"/>
  <rect x="0" y="-12.5" fill="#FFC90A" opacity="0.5" stroke="none" width="44" height="25"/>

  <!--
  <circle fill="#ff0000" opacity="0.3" cx="-13.33333333" cy="" r="4.99999999875"/>
  <circle fill="#ff0000" opacity="0.3" cx="57.33333333" cy="" r="4.99999999875"/>
  <rect x="0" y="-12.5" fill="#4CB73D" opacity="0.5" stroke="none" width="44" height="25"/>
  <rect x="44" y="-3.3333333325" width="13.33333333" height="6.666666665" fill="#4CB73D" opacity="0.5" stroke="none"/>
  <rect x="-13.33333333" y="-3.3333333325" width="13.33333333" height="6.666666665" fill="#4CB73D" opacity="0.5" stroke="none"/>
  -->
</g><g transform="matrix(1 0 0 1 632 989)">
  <circle fill="#EF305E" opacity="0.5" cx="-13.33333333" cy="" r="5.499999998624999"/>
  <circle fill="#EF305E" opacity="0.5" cx="28.333333330000002" cy="" r="5.499999998624999"/>
  <rect x="-0.499999999875" y="-10.999999999875" fill="#EF305E" opacity="0.5" stroke="none" width="15.999999999749999" height="21.99999999975"/>
  <rect x="15" y="-3.8333333323749996" width="13.33333333" height="7.666666664749999" fill="#EF305E" opacity="0.5" stroke="none"/>
  <rect x="-13.33333333" y="-3.8333333323749996" width="13.33333333" height="7.666666664749999" fill="#EF305E" opacity="0.5" stroke="none"/>
  <rect x="0" y="-10.5" fill="#FFC90A" opacity="0.5" stroke="none" width="15" height="21"/>

  <!--
  <circle fill="#ff0000" opacity="0.3" cx="-13.33333333" cy="" r="4.99999999875"/>
  <circle fill="#ff0000" opacity="0.3" cx="28.333333330000002" cy="" r="4.99999999875"/>
  <rect x="0" y="-10.5" fill="#EF305E" opacity="0.5" stroke="none" width="15" height="21"/>
  <rect x="15" y="-3.3333333325" width="13.33333333" height="6.666666665" fill="#EF305E" opacity="0.5" stroke="none"/>
  <rect x="-13.33333333" y="-3.3333333325" width="13.33333333" height="6.666666665" fill="#EF305E" opacity="0.5" stroke="none"/>
  -->
</g></g><g id="Bridge size"><text x="637" y="1271" fill="#4F4AAF" font-family="Verdana" font-size="12">W39, D5</text><text x="521" y="1316" fill="#4F4AAF" font-family="Verdana" font-size="12">W39, D399</text><text x="77" y="1225" fill="#4F4AAF" font-family="Verdana" font-size="12">W39, D14</text><text x="122" y="1150" fill="#4F4AAF" font-family="Verdana" font-size="12">W39, D15</text><text x="149" y="1170" fill="#4F4AAF" font-family="Verdana" font-size="12">W39, D60</text><text x="473" y="1139" fill="#4F4AAF" font-family="Verdana" font-size="12">W17, D48</text><text x="632" y="1114" fill="#4F4AAF" font-family="Verdana" font-size="12">W21, D15</text><text x="880" y="1127" fill="#4F4AAF" font-family="Verdana" font-size="12">W39, D229</text><text x="712" y="853" fill="#4F4AAF" font-family="Verdana" font-size="12">W39, D57</text><text x="638" y="772" fill="#4F4AAF" font-family="Verdana" font-size="12">W39, D6</text><text x="604" y="836" fill="#4F4AAF" font-family="Verdana" font-size="12">W39, D14</text><text x="521" y="923" fill="#4F4AAF" font-family="Verdana" font-size="12">W39, D399</text><text x="92" y="961" fill="#4F4AAF" font-family="Verdana" font-size="12">W39, D14</text><text x="122" y="1023" fill="#4F4AAF" font-family="Verdana" font-size="12">W39, D15</text><text x="394" y="1000" fill="#4F4AAF" font-family="Verdana" font-size="12">W39, D226</text><text x="128" y="774" fill="#4F4AAF" font-family="Verdana" font-size="12">W39, D15</text><text x="89" y="725" fill="#4F4AAF" font-family="Verdana" font-size="12">W39, D19</text><text x="847" y="694" fill="#4F4AAF" font-family="Verdana" font-size="12">W39, D137</text><text x="332" y="557" fill="#4F4AAF" font-family="Verdana" font-size="12">W39, D15</text><text x="416" y="577" fill="#4F4AAF" font-family="Verdana" font-size="12">W21, D459</text><text x="979" y="587" fill="#4F4AAF" font-family="Verdana" font-size="12">W39, D11</text><text x="514" y="557" fill="#4F4AAF" font-family="Verdana" font-size="12">W39, D99</text><text x="799" y="241" fill="#4F4AAF" font-family="Verdana" font-size="12">W39, D39</text><text x="981" y="189" fill="#4F4AAF" font-family="Verdana" font-size="12">W31, D94</text><text x="962" y="75" fill="#4F4AAF" font-family="Verdana" font-size="12">W31, D435</text><text x="496" y="80" fill="#4F4AAF" font-family="Verdana" font-size="12">W19, D429</text><text x="763" y="189" fill="#4F4AAF" font-family="Verdana" font-size="12">W39, D13</text><text x="742" y="166" fill="#4F4AAF" font-family="Verdana" font-size="12">W17, D41</text><text x="646" y="166" fill="#4F4AAF" font-family="Verdana" font-size="12">W21, D41</text><text x="538" y="166" fill="#4F4AAF" font-family="Verdana" font-size="12">W21, D41</text><text x="394" y="164" fill="#4F4AAF" font-family="Verdana" font-size="12">W19, D41</text><text x="294" y="164" fill="#4F4AAF" font-family="Verdana" font-size="12">W19, D41</text><text x="204" y="164" fill="#4F4AAF" font-family="Verdana" font-size="12">W19, D41</text><text x="787" y="167" fill="#4F4AAF" font-family="Verdana" font-size="12">W19, D41</text><text x="230" y="796" fill="#4F4AAF" font-family="Verdana" font-size="12">W39, D57</text><text x="477" y="1012" fill="#4F4AAF" font-family="Verdana" font-size="12">W25, D44</text><text x="632" y="989" fill="#4F4AAF" font-family="Verdana" font-size="12">W21, D15</text></g></g></svg>