solid OpenSCAD_Model
  facet normal -1 0 0
    outer loop
      vertex 0 5.7 1.4
      vertex 0 6.3 0
      vertex 0 0.6 1.4
    endloop
  endfacet
  facet normal -1 0 0
    outer loop
      vertex 0 0 0
      vertex 0 0 2.6
      vertex 0 0.6 1.4
    endloop
  endfacet
  facet normal -1 0 0
    outer loop
      vertex 0 0 0
      vertex 0 0.6 1.4
      vertex 0 6.3 0
    endloop
  endfacet
  facet normal -1 0 0
    outer loop
      vertex 0 6.3 0
      vertex 0 5.7 1.4
      vertex 0 5.7 2.6
    endloop
  endfacet
  facet normal -1 0 0
    outer loop
      vertex 0 6.3 0
      vertex 0 5.7 2.6
      vertex 0 6.3 2.6
    endloop
  endfacet
  facet normal -1 0 0
    outer loop
      vertex 0 0.6 1.4
      vertex 0 0 2.6
      vertex 0 0.6 2.6
    endloop
  endfacet
  facet normal 0 -1 0
    outer loop
      vertex 0 0 2.6
      vertex 0 0 0
      vertex 12.3 0 2.169
    endloop
  endfacet
  facet normal 0 -1 0
    outer loop
      vertex 12.3 0 4.769
      vertex 0 0 2.6
      vertex 12.3 0 2.169
    endloop
  endfacet
  facet normal 0.173662 0 -0.984805
    outer loop
      vertex 0 0 0
      vertex 0 6.3 0
      vertex 12.3 0 2.169
    endloop
  endfacet
  facet normal 0.173662 0 -0.984805
    outer loop
      vertex 12.3 0 2.169
      vertex 0 6.3 0
      vertex 12.3 6.3 2.169
    endloop
  endfacet
  facet normal 0 1 0
    outer loop
      vertex 0 6.3 0
      vertex 0 6.3 2.6
      vertex 12.3 6.3 2.169
    endloop
  endfacet
  facet normal 0 1 0
    outer loop
      vertex 12.3 6.3 2.169
      vertex 0 6.3 2.6
      vertex 12.3 6.3 4.769
    endloop
  endfacet
  facet normal -0.173662 0 0.984805
    outer loop
      vertex 0 6.3 2.6
      vertex 0 5.7 2.6
      vertex 12.3 5.7 4.769
    endloop
  endfacet
  facet normal -0.173662 0 0.984805
    outer loop
      vertex 12.3 6.3 4.769
      vertex 0 6.3 2.6
      vertex 12.3 5.7 4.769
    endloop
  endfacet
  facet normal 0 -1 0
    outer loop
      vertex 0 5.7 2.6
      vertex 0 5.7 1.4
      vertex 12.3 5.7 3.569
    endloop
  endfacet
  facet normal 0 -1 0
    outer loop
      vertex 12.3 5.7 4.769
      vertex 0 5.7 2.6
      vertex 12.3 5.7 3.569
    endloop
  endfacet
  facet normal -0.173662 0 0.984805
    outer loop
      vertex 0 5.7 1.4
      vertex 0 0.6 1.4
      vertex 12.3 0.6 3.569
    endloop
  endfacet
  facet normal -0.173662 0 0.984805
    outer loop
      vertex 12.3 4.15 3.569
      vertex 0 5.7 1.4
      vertex 12.3 2.15 3.569
    endloop
  endfacet
  facet normal -0.173662 0 0.984805
    outer loop
      vertex 12.3 2.15 3.569
      vertex 0 5.7 1.4
      vertex 12.3 0.6 3.569
    endloop
  endfacet
  facet normal -0.173662 0 0.984805
    outer loop
      vertex 12.3 5.7 3.569
      vertex 0 5.7 1.4
      vertex 12.3 4.15 3.569
    endloop
  endfacet
  facet normal 0 1 0
    outer loop
      vertex 0 0.6 1.4
      vertex 0 0.6 2.6
      vertex 12.3 0.6 3.569
    endloop
  endfacet
  facet normal 0 1 0
    outer loop
      vertex 12.3 0.6 3.569
      vertex 0 0.6 2.6
      vertex 12.3 0.6 4.769
    endloop
  endfacet
  facet normal -0.173662 0 0.984805
    outer loop
      vertex 0 0.6 2.6
      vertex 0 0 2.6
      vertex 12.3 0 4.769
    endloop
  endfacet
  facet normal -0.173662 0 0.984805
    outer loop
      vertex 12.3 0.6 4.769
      vertex 0 0.6 2.6
      vertex 12.3 0 4.769
    endloop
  endfacet
  facet normal 1 0 0
    outer loop
      vertex 12.3 4.15 2.169
      vertex 12.3 0 2.169
      vertex 12.3 6.3 2.169
    endloop
  endfacet
  facet normal 1 0 0
    outer loop
      vertex 12.3 6.3 4.769
      vertex 12.3 5.7 4.769
      vertex 12.3 6.3 2.169
    endloop
  endfacet
  facet normal 1 0 0
    outer loop
      vertex 12.3 5.7 4.769
      vertex 12.3 5.7 3.569
      vertex 12.3 6.3 2.169
    endloop
  endfacet
  facet normal 1 0 0
    outer loop
      vertex 12.3 5.7 3.569
      vertex 12.3 4.15 3.569
      vertex 12.3 6.3 2.169
    endloop
  endfacet
  facet normal 1 0 0
    outer loop
      vertex 12.3 2.15 2.169
      vertex 12.3 0 2.169
      vertex 12.3 4.15 2.169
    endloop
  endfacet
  facet normal 1 0 0
    outer loop
      vertex 12.3 2.15 3.569
      vertex 12.3 0.6 3.569
      vertex 12.3 2.15 2.169
    endloop
  endfacet
  facet normal 1 0 0
    outer loop
      vertex 12.3 0.6 3.569
      vertex 12.3 0 2.169
      vertex 12.3 2.15 2.169
    endloop
  endfacet
  facet normal 1 0 0
    outer loop
      vertex 12.3 0 4.769
      vertex 12.3 0 2.169
      vertex 12.3 0.6 3.569
    endloop
  endfacet
  facet normal 1 0 0
    outer loop
      vertex 12.3 4.15 3.569
      vertex 12.3 4.15 2.169
      vertex 12.3 6.3 2.169
    endloop
  endfacet
  facet normal 1 0 0
    outer loop
      vertex 12.3 0.6 3.569
      vertex 12.3 0.6 4.769
      vertex 12.3 0 4.769
    endloop
  endfacet
  facet normal 0 1 0
    outer loop
      vertex 12.3 4.15 2.169
      vertex 12.3 4.15 3.569
      vertex 15.1988 4.15 2.169
    endloop
  endfacet
  facet normal 0 1 0
    outer loop
      vertex 15.1988 4.15 2.169
      vertex 12.3 4.15 3.569
      vertex 15.1988 4.15 3.569
    endloop
  endfacet
  facet normal 0 -1 0
    outer loop
      vertex 12.3 2.15 3.569
      vertex 12.3 2.15 2.169
      vertex 15.1988 2.15 2.169
    endloop
  endfacet
  facet normal 0 -1 0
    outer loop
      vertex 15.1988 2.15 3.569
      vertex 12.3 2.15 3.569
      vertex 15.1988 2.15 2.169
    endloop
  endfacet
  facet normal 0 0 -1
    outer loop
      vertex 12.3 2.15 2.169
      vertex 12.3 4.15 2.169
      vertex 15.1988 2.15 2.169
    endloop
  endfacet
  facet normal 0 0 -1
    outer loop
      vertex 15.1988 2.15 2.169
      vertex 12.3 4.15 2.169
      vertex 15.1988 4.15 2.169
    endloop
  endfacet
  facet normal 0 0 -1
    outer loop
      vertex 15.1988 2.15 2.169
      vertex 15.1988 4.15 2.169
      vertex 15.2393 4.21066 2.169
    endloop
  endfacet
  facet normal 0 0 -1
    outer loop
      vertex 15.1988 2.15 2.169
      vertex 15.2393 4.21066 2.169
      vertex 15.726 4.53582 2.169
    endloop
  endfacet
  facet normal 0 0 -1
    outer loop
      vertex 15.1988 2.15 2.169
      vertex 15.726 4.53582 2.169
      vertex 16.3 4.65 2.169
    endloop
  endfacet
  facet normal 0 0 -1
    outer loop
      vertex 15.1988 2.15 2.169
      vertex 16.3 4.65 2.169
      vertex 16.874 4.53582 2.169
    endloop
  endfacet
  facet normal 0 0 -1
    outer loop
      vertex 15.1988 2.15 2.169
      vertex 16.874 4.53582 2.169
      vertex 17.3607 4.21066 2.169
    endloop
  endfacet
  facet normal 0 0 -1
    outer loop
      vertex 15.1988 2.15 2.169
      vertex 17.3607 4.21066 2.169
      vertex 17.6858 3.72403 2.169
    endloop
  endfacet
  facet normal 0 0 -1
    outer loop
      vertex 15.1988 2.15 2.169
      vertex 17.6858 3.72403 2.169
      vertex 17.8 3.15 2.169
    endloop
  endfacet
  facet normal 0 0 -1
    outer loop
      vertex 15.1988 2.15 2.169
      vertex 17.8 3.15 2.169
      vertex 17.6858 2.57597 2.169
    endloop
  endfacet
  facet normal 0 0 -1
    outer loop
      vertex 15.1988 2.15 2.169
      vertex 17.6858 2.57597 2.169
      vertex 17.3607 2.08934 2.169
    endloop
  endfacet
  facet normal 0 0 -1
    outer loop
      vertex 15.2393 2.08934 2.169
      vertex 16.874 1.76418 2.169
      vertex 15.726 1.76418 2.169
    endloop
  endfacet
  facet normal 0 0 -1
    outer loop
      vertex 16.874 1.76418 2.169
      vertex 16.3 1.65 2.169
      vertex 15.726 1.76418 2.169
    endloop
  endfacet
  facet normal 0 0 -1
    outer loop
      vertex 17.3607 2.08934 2.169
      vertex 16.874 1.76418 2.169
      vertex 15.2393 2.08934 2.169
    endloop
  endfacet
  facet normal 0 0 -1
    outer loop
      vertex 15.1988 2.15 2.169
      vertex 17.3607 2.08934 2.169
      vertex 15.2393 2.08934 2.169
    endloop
  endfacet
  facet normal 0 0 1
    outer loop
      vertex 15.2393 2.08934 3.569
      vertex 15.726 1.76418 3.569
      vertex 15.1988 2.15 3.569
    endloop
  endfacet
  facet normal 0 0 1
    outer loop
      vertex 12.3 4.15 3.569
      vertex 12.3 2.15 3.569
      vertex 15.1988 2.15 3.569
    endloop
  endfacet
  facet normal 0 0 1
    outer loop
      vertex 16.3 1.65 3.569
      vertex 12.3 4.15 3.569
      vertex 15.1988 2.15 3.569
    endloop
  endfacet
  facet normal 0 0 1
    outer loop
      vertex 15.726 1.76418 3.569
      vertex 16.3 1.65 3.569
      vertex 15.1988 2.15 3.569
    endloop
  endfacet
  facet normal 0 0 1
    outer loop
      vertex 16.3 1.65 3.569
      vertex 16.874 1.76418 3.569
      vertex 12.3 4.15 3.569
    endloop
  endfacet
  facet normal 0 0 1
    outer loop
      vertex 16.874 1.76418 3.569
      vertex 17.3607 2.08934 3.569
      vertex 12.3 4.15 3.569
    endloop
  endfacet
  facet normal 0 0 1
    outer loop
      vertex 17.3607 2.08934 3.569
      vertex 17.6858 2.57597 3.569
      vertex 12.3 4.15 3.569
    endloop
  endfacet
  facet normal 0 0 1
    outer loop
      vertex 17.6858 2.57597 3.569
      vertex 17.8 3.15 3.569
      vertex 12.3 4.15 3.569
    endloop
  endfacet
  facet normal 0 0 1
    outer loop
      vertex 17.8 3.15 3.569
      vertex 17.6858 3.72403 3.569
      vertex 12.3 4.15 3.569
    endloop
  endfacet
  facet normal 0 0 1
    outer loop
      vertex 15.2393 4.21066 3.569
      vertex 15.1988 4.15 3.569
      vertex 17.3607 4.21066 3.569
    endloop
  endfacet
  facet normal 0 0 1
    outer loop
      vertex 16.874 4.53582 3.569
      vertex 16.3 4.65 3.569
      vertex 15.726 4.53582 3.569
    endloop
  endfacet
  facet normal 0 0 1
    outer loop
      vertex 17.3607 4.21066 3.569
      vertex 16.874 4.53582 3.569
      vertex 15.2393 4.21066 3.569
    endloop
  endfacet
  facet normal 0 0 1
    outer loop
      vertex 17.6858 3.72403 3.569
      vertex 15.1988 4.15 3.569
      vertex 12.3 4.15 3.569
    endloop
  endfacet
  facet normal 0 0 1
    outer loop
      vertex 17.6858 3.72403 3.569
      vertex 17.3607 4.21066 3.569
      vertex 15.1988 4.15 3.569
    endloop
  endfacet
  facet normal 0 0 1
    outer loop
      vertex 15.726 4.53582 3.569
      vertex 15.2393 4.21066 3.569
      vertex 16.874 4.53582 3.569
    endloop
  endfacet
  facet normal -0.83147 0.55557 0
    outer loop
      vertex 15.1988 4.15 2.169
      vertex 15.1988 4.15 3.569
      vertex 15.2393 4.21066 2.169
    endloop
  endfacet
  facet normal -0.83147 0.55557 0
    outer loop
      vertex 15.2393 4.21066 2.169
      vertex 15.1988 4.15 3.569
      vertex 15.2393 4.21066 3.569
    endloop
  endfacet
  facet normal -0.83147 -0.55557 0
    outer loop
      vertex 15.1988 2.15 2.169
      vertex 15.2393 2.08934 2.169
      vertex 15.1988 2.15 3.569
    endloop
  endfacet
  facet normal -0.83147 -0.55557 0
    outer loop
      vertex 15.1988 2.15 3.569
      vertex 15.2393 2.08934 2.169
      vertex 15.2393 2.08934 3.569
    endloop
  endfacet
  facet normal -0.55557 -0.83147 0
    outer loop
      vertex 15.2393 2.08934 3.569
      vertex 15.2393 2.08934 2.169
      vertex 15.726 1.76418 2.169
    endloop
  endfacet
  facet normal -0.55557 -0.83147 0
    outer loop
      vertex 15.726 1.76418 3.569
      vertex 15.2393 2.08934 3.569
      vertex 15.726 1.76418 2.169
    endloop
  endfacet
  facet normal -0.19509 -0.980785 0
    outer loop
      vertex 15.726 1.76418 3.569
      vertex 15.726 1.76418 2.169
      vertex 16.3 1.65 2.169
    endloop
  endfacet
  facet normal -0.19509 -0.980785 0
    outer loop
      vertex 16.3 1.65 3.569
      vertex 15.726 1.76418 3.569
      vertex 16.3 1.65 2.169
    endloop
  endfacet
  facet normal 0.19509 -0.980785 0
    outer loop
      vertex 16.3 1.65 3.569
      vertex 16.3 1.65 2.169
      vertex 16.874 1.76418 2.169
    endloop
  endfacet
  facet normal 0.19509 -0.980785 0
    outer loop
      vertex 16.874 1.76418 3.569
      vertex 16.3 1.65 3.569
      vertex 16.874 1.76418 2.169
    endloop
  endfacet
  facet normal 0.55557 -0.83147 0
    outer loop
      vertex 16.874 1.76418 3.569
      vertex 16.874 1.76418 2.169
      vertex 17.3607 2.08934 2.169
    endloop
  endfacet
  facet normal 0.55557 -0.83147 0
    outer loop
      vertex 17.3607 2.08934 3.569
      vertex 16.874 1.76418 3.569
      vertex 17.3607 2.08934 2.169
    endloop
  endfacet
  facet normal 0.83147 -0.55557 0
    outer loop
      vertex 17.3607 2.08934 3.569
      vertex 17.3607 2.08934 2.169
      vertex 17.6858 2.57597 2.169
    endloop
  endfacet
  facet normal 0.83147 -0.55557 0
    outer loop
      vertex 17.6858 2.57597 3.569
      vertex 17.3607 2.08934 3.569
      vertex 17.6858 2.57597 2.169
    endloop
  endfacet
  facet normal 0.980785 -0.19509 0
    outer loop
      vertex 17.6858 2.57597 3.569
      vertex 17.6858 2.57597 2.169
      vertex 17.8 3.15 2.169
    endloop
  endfacet
  facet normal 0.980785 -0.19509 0
    outer loop
      vertex 17.8 3.15 3.569
      vertex 17.6858 2.57597 3.569
      vertex 17.8 3.15 2.169
    endloop
  endfacet
  facet normal 0.980785 0.19509 0
    outer loop
      vertex 17.8 3.15 2.169
      vertex 17.6858 3.72403 2.169
      vertex 17.6858 3.72403 3.569
    endloop
  endfacet
  facet normal 0.980785 0.19509 0
    outer loop
      vertex 17.8 3.15 3.569
      vertex 17.8 3.15 2.169
      vertex 17.6858 3.72403 3.569
    endloop
  endfacet
  facet normal 0.83147 0.55557 0
    outer loop
      vertex 17.6858 3.72403 2.169
      vertex 17.3607 4.21066 2.169
      vertex 17.3607 4.21066 3.569
    endloop
  endfacet
  facet normal 0.83147 0.55557 0
    outer loop
      vertex 17.6858 3.72403 3.569
      vertex 17.6858 3.72403 2.169
      vertex 17.3607 4.21066 3.569
    endloop
  endfacet
  facet normal 0.55557 0.83147 0
    outer loop
      vertex 16.874 4.53582 2.169
      vertex 16.874 4.53582 3.569
      vertex 17.3607 4.21066 2.169
    endloop
  endfacet
  facet normal 0.55557 0.83147 0
    outer loop
      vertex 17.3607 4.21066 2.169
      vertex 16.874 4.53582 3.569
      vertex 17.3607 4.21066 3.569
    endloop
  endfacet
  facet normal 0.19509 0.980785 0
    outer loop
      vertex 16.3 4.65 2.169
      vertex 16.3 4.65 3.569
      vertex 16.874 4.53582 2.169
    endloop
  endfacet
  facet normal 0.19509 0.980785 0
    outer loop
      vertex 16.874 4.53582 2.169
      vertex 16.3 4.65 3.569
      vertex 16.874 4.53582 3.569
    endloop
  endfacet
  facet normal -0.19509 0.980785 0
    outer loop
      vertex 15.726 4.53582 2.169
      vertex 15.726 4.53582 3.569
      vertex 16.3 4.65 2.169
    endloop
  endfacet
  facet normal -0.19509 0.980785 0
    outer loop
      vertex 16.3 4.65 2.169
      vertex 15.726 4.53582 3.569
      vertex 16.3 4.65 3.569
    endloop
  endfacet
  facet normal -0.55557 0.83147 0
    outer loop
      vertex 15.2393 4.21066 2.169
      vertex 15.2393 4.21066 3.569
      vertex 15.726 4.53582 2.169
    endloop
  endfacet
  facet normal -0.55557 0.83147 0
    outer loop
      vertex 15.726 4.53582 2.169
      vertex 15.2393 4.21066 3.569
      vertex 15.726 4.53582 3.569
    endloop
  endfacet
endsolid OpenSCAD_Model
