  0
SECTION
  2
HEADER
  9
$ACADVER
  1
AC1009
  9
$EXTMIN
 10
0.0
 20
0.0
 30
0.0
  9
$EXTMAX
 10
1000.0
 20
1000.0
 30
0.0
  9
$FILLMODE
 70
 0
  9
$SPLFRAME
 70
 1
  0
ENDSEC
  0
SECTION
  2
TABLES
  0
TABLE
  2
LAYER
 70
1
  0
LAYER
  2
0
 70
     0
 62
     7
  6
CONTINUOUS
  0
ENDTAB
  0
ENDSEC
  0
SECTION
  2
ENTITIES
  0
LINE
  8
0
 62
     4
 10
4.86615
 20
0.153537
 30
0.0
 11
4.86615
 21
0.0236003
 31
0.0
  0
LINE
  8
0
 62
     4
 10
4.86615
 20
0.0236003
 30
0.0
 11
4.88975
 21
-0
 31
0.0
  0
LINE
  8
0
 62
     4
 10
4.88975
 20
-0
 30
0.0
 11
5.63385
 21
-0
 31
0.0
  0
LINE
  8
0
 62
     4
 10
5.63385
 20
-0
 30
0.0
 11
5.6575
 21
0.0236003
 31
0.0
  0
LINE
  8
0
 62
     4
 10
5.6575
 20
0.0236003
 30
0.0
 11
5.6575
 21
0.224392
 31
0.0
  0
LINE
  8
0
 62
     4
 10
5.6575
 20
0.224392
 30
0.0
 11
5.63385
 21
0.248047
 31
0.0
  0
LINE
  8
0
 62
     4
 10
5.63385
 20
0.248047
 30
0.0
 11
4.92518
 21
0.248047
 31
0.0
  0
LINE
  8
0
 62
     4
 10
4.92518
 20
0.248047
 30
0.0
 11
4.90158
 21
0.236219
 31
0.0
  0
LINE
  8
0
 62
     4
 10
4.90158
 20
0.236219
 30
0.0
 11
4.86615
 21
0.153537
 31
0.0
  0
LINE
  8
0
 62
     4
 10
3.16536
 20
0.212619
 30
0.0
 11
3.16536
 21
0.0354275
 31
0.0
  0
LINE
  8
0
 62
     4
 10
3.16536
 20
0.0354275
 30
0.0
 11
3.20079
 21
-0
 31
0.0
  0
LINE
  8
0
 62
     4
 10
3.20079
 20
-0
 30
0.0
 11
4.35829
 21
-0
 31
0.0
  0
LINE
  8
0
 62
     4
 10
4.35829
 20
-0
 30
0.0
 11
4.38189
 21
0.0236003
 31
0.0
  0
LINE
  8
0
 62
     4
 10
4.38189
 20
0.0236003
 30
0.0
 11
4.38189
 21
0.224392
 31
0.0
  0
LINE
  8
0
 62
     4
 10
4.38189
 20
0.224392
 30
0.0
 11
4.35829
 21
0.248047
 31
0.0
  0
LINE
  8
0
 62
     4
 10
4.35829
 20
0.248047
 30
0.0
 11
3.20079
 21
0.248047
 31
0.0
  0
LINE
  8
0
 62
     4
 10
3.20079
 20
0.248047
 30
0.0
 11
3.16536
 21
0.212619
 31
0.0
  0
LINE
  8
0
 62
     4
 10
1.98426
 20
0.224392
 30
0.0
 11
1.98426
 21
0.106282
 31
0.0
  0
LINE
  8
0
 62
     4
 10
1.98426
 20
0.106282
 30
0.0
 11
2.00786
 21
0.0236003
 31
0.0
  0
LINE
  8
0
 62
     4
 10
2.00786
 20
0.0236003
 30
0.0
 11
2.03153
 21
-0
 31
0.0
  0
LINE
  8
0
 62
     4
 10
2.03153
 20
-0
 30
0.0
 11
2.64567
 21
-0
 31
0.0
  0
LINE
  8
0
 62
     4
 10
2.64567
 20
-0
 30
0.0
 11
2.6811
 21
0.0354275
 31
0.0
  0
LINE
  8
0
 62
     4
 10
2.6811
 20
0.0354275
 30
0.0
 11
2.6811
 21
0.177192
 31
0.0
  0
LINE
  8
0
 62
     4
 10
2.6811
 20
0.177192
 30
0.0
 11
2.64567
 21
0.248047
 31
0.0
  0
LINE
  8
0
 62
     4
 10
2.64567
 20
0.248047
 30
0.0
 11
2.00786
 21
0.248047
 31
0.0
  0
LINE
  8
0
 62
     4
 10
2.00786
 20
0.248047
 30
0.0
 11
1.98426
 21
0.224392
 31
0.0
  0
LINE
  8
0
 62
     4
 10
0.921278
 20
0.224392
 30
0.0
 11
0.921278
 21
0.0236003
 31
0.0
  0
LINE
  8
0
 62
     4
 10
0.921278
 20
0.0236003
 30
0.0
 11
0.944878
 21
-0
 31
0.0
  0
LINE
  8
0
 62
     4
 10
0.944878
 20
-0
 30
0.0
 11
1.4764
 21
-0
 31
0.0
  0
LINE
  8
0
 62
     4
 10
1.4764
 20
-0
 30
0.0
 11
1.5
 21
0.0236003
 31
0.0
  0
LINE
  8
0
 62
     4
 10
1.5
 20
0.0236003
 30
0.0
 11
1.5
 21
0.224392
 31
0.0
  0
LINE
  8
0
 62
     4
 10
1.5
 20
0.224392
 30
0.0
 11
1.4764
 21
0.248047
 31
0.0
  0
LINE
  8
0
 62
     4
 10
1.4764
 20
0.248047
 30
0.0
 11
0.944878
 21
0.248047
 31
0.0
  0
LINE
  8
0
 62
     4
 10
0.944878
 20
0.248047
 30
0.0
 11
0.921278
 21
0.224392
 31
0.0
  0
LINE
  8
0
 62
     4
 10
0.228353
 20
0.0413411
 30
0.0
 11
0.201497
 21
0.0467665
 31
0.0
  0
LINE
  8
0
 62
     4
 10
0.201497
 20
0.0467665
 30
0.0
 11
0.179579
 21
0.0615776
 31
0.0
  0
LINE
  8
0
 62
     4
 10
0.179579
 20
0.0615776
 30
0.0
 11
0.164822
 21
0.0834418
 31
0.0
  0
LINE
  8
0
 62
     4
 10
0.164822
 20
0.0834418
 30
0.0
 11
0.159451
 21
0.110243
 31
0.0
  0
LINE
  8
0
 62
     4
 10
0.159451
 20
0.110243
 30
0.0
 11
0.164822
 21
0.137098
 31
0.0
  0
LINE
  8
0
 62
     4
 10
0.164822
 20
0.137098
 30
0.0
 11
0.179579
 21
0.158963
 31
0.0
  0
LINE
  8
0
 62
     4
 10
0.179579
 20
0.158963
 30
0.0
 11
0.201497
 21
0.173774
 31
0.0
  0
LINE
  8
0
 62
     4
 10
0.201497
 20
0.173774
 30
0.0
 11
0.228353
 21
0.179144
 31
0.0
  0
LINE
  8
0
 62
     4
 10
0.228353
 20
0.179144
 30
0.0
 11
0.255154
 21
0.173774
 31
0.0
  0
LINE
  8
0
 62
     4
 10
0.255154
 20
0.173774
 30
0.0
 11
0.277018
 21
0.158963
 31
0.0
  0
LINE
  8
0
 62
     4
 10
0.277018
 20
0.158963
 30
0.0
 11
0.291829
 21
0.137098
 31
0.0
  0
LINE
  8
0
 62
     4
 10
0.291829
 20
0.137098
 30
0.0
 11
0.297254
 21
0.110243
 31
0.0
  0
LINE
  8
0
 62
     4
 10
0.297254
 20
0.110243
 30
0.0
 11
0.291829
 21
0.0834418
 31
0.0
  0
LINE
  8
0
 62
     4
 10
0.291829
 20
0.0834418
 30
0.0
 11
0.277018
 21
0.0615776
 31
0.0
  0
LINE
  8
0
 62
     4
 10
0.277018
 20
0.0615776
 30
0.0
 11
0.255154
 21
0.0467665
 31
0.0
  0
LINE
  8
0
 62
     4
 10
0.255154
 20
0.0467665
 30
0.0
 11
0.228353
 21
0.0413411
 31
0.0
  0
LINE
  8
0
 62
     4
 10
0.413411
 20
0.248047
 30
0.0
 11
0.0236003
 21
0.248047
 31
0.0
  0
LINE
  8
0
 62
     4
 10
0.0236003
 20
0.248047
 30
0.0
 11
0
 21
0.224392
 31
0.0
  0
LINE
  8
0
 62
     4
 10
0
 20
0.224392
 30
0.0
 11
0
 21
0.11811
 31
0.0
  0
LINE
  8
0
 62
     4
 10
0
 20
0.11811
 30
0.0
 11
0.0590278
 21
-0
 31
0.0
  0
LINE
  8
0
 62
     4
 10
0.0590278
 20
-0
 30
0.0
 11
0.354329
 21
-0
 31
0.0
  0
LINE
  8
0
 62
     4
 10
0.354329
 20
-0
 30
0.0
 11
0.437011
 21
0.070855
 31
0.0
  0
LINE
  8
0
 62
     4
 10
0.437011
 20
0.070855
 30
0.0
 11
0.437011
 21
0.224392
 31
0.0
  0
LINE
  8
0
 62
     4
 10
0.437011
 20
0.224392
 30
0.0
 11
0.413411
 21
0.248047
 31
0.0
  0
ENDSEC
  0
EOF
