solid OpenSCAD_Model
  facet normal -0.970705 -0.240274 0
    outer loop
      vertex -0.2 3 0
      vertex -0.175 2.899 0
      vertex -0.2 3 2.6
    endloop
  endfacet
  facet normal -0.970705 -0.240274 0
    outer loop
      vertex -0.2 3 2.6
      vertex -0.175 2.899 0
      vertex -0.175 2.899 2.6
    endloop
  endfacet
  facet normal 0 0 -1
    outer loop
      vertex -0.2 3 0
      vertex -0.2 5.693 0
      vertex -0.175 2.899 0
    endloop
  endfacet
  facet normal 0 0 -1
    outer loop
      vertex -0.175 2.899 0
      vertex -0.2 5.693 0
      vertex -0.149 5.845 0
    endloop
  endfacet
  facet normal 0 0 -1
    outer loop
      vertex -0.175 2.899 0
      vertex -0.149 5.845 0
      vertex 0.46 6.429 0
    endloop
  endfacet
  facet normal 0 0 -1
    outer loop
      vertex -0.175 2.899 0
      vertex 0.46 6.429 0
      vertex 0.613 6.506 0
    endloop
  endfacet
  facet normal 0 0 -1
    outer loop
      vertex -0.175 2.899 0
      vertex 0.613 6.506 0
      vertex 10.824 6.506 0
    endloop
  endfacet
  facet normal 0 0 -1
    outer loop
      vertex 10.6903 6.099 0
      vertex 10.824 6.506 0
      vertex 10.798 6.099 0
    endloop
  endfacet
  facet normal 0 0 -1
    outer loop
      vertex -0.175 2.899 0
      vertex 10.824 6.506 0
      vertex 10.6903 6.099 0
    endloop
  endfacet
  facet normal 0 0 -1
    outer loop
      vertex 4.191 2.108 0
      vertex -0.175 2.899 0
      vertex 4.039 2.794 0
    endloop
  endfacet
  facet normal 0 0 -1
    outer loop
      vertex 7.544 2.794 0
      vertex 11.1 5.69 0
      vertex 11.1 1.803 0
    endloop
  endfacet
  facet normal 0 0 -1
    outer loop
      vertex 7.036 1.575 0
      vertex 11.1 1.803 0
      vertex 9.69472 0.601045 0
    endloop
  endfacet
  facet normal 0 0 -1
    outer loop
      vertex 7.036 1.575 0
      vertex 9.833 0.435 0
      vertex 6.477 1.194 0
    endloop
  endfacet
  facet normal 0 0 -1
    outer loop
      vertex -0.175 2.899 0
      vertex 9.122 -0.149 0
      vertex 8.995 -0.2 0
    endloop
  endfacet
  facet normal 0 0 -1
    outer loop
      vertex -0.175 2.899 0
      vertex 8.995 -0.2 0
      vertex 1.502 -0.2 0
    endloop
  endfacet
  facet normal 0 0 -1
    outer loop
      vertex -0.175 2.899 0
      vertex 1.502 -0.2 0
      vertex 1.324 -0.098 0
    endloop
  endfacet
  facet normal 0 0 -1
    outer loop
      vertex 5.791 4.547 0
      vertex 11.1 5.69 0
      vertex 6.477 4.42 0
    endloop
  endfacet
  facet normal 0 0 -1
    outer loop
      vertex 7.544 2.794 0
      vertex 11.1 1.803 0
      vertex 7.417 2.108 0
    endloop
  endfacet
  facet normal 0 0 -1
    outer loop
      vertex 7.036 1.575 0
      vertex 9.69472 0.601045 0
      vertex 9.833 0.435 0
    endloop
  endfacet
  facet normal 0 0 -1
    outer loop
      vertex -0.175 2.899 0
      vertex 4.572 1.575 0
      vertex 5.105 1.194 0
    endloop
  endfacet
  facet normal 0 0 -1
    outer loop
      vertex -0.175 2.899 0
      vertex 5.105 1.194 0
      vertex 9.122 -0.149 0
    endloop
  endfacet
  facet normal 0 0 -1
    outer loop
      vertex 5.105 1.194 0
      vertex 5.791 1.041 0
      vertex 9.122 -0.149 0
    endloop
  endfacet
  facet normal 0 0 -1
    outer loop
      vertex 6.477 1.194 0
      vertex 9.122 -0.149 0
      vertex 5.791 1.041 0
    endloop
  endfacet
  facet normal 0 0 -1
    outer loop
      vertex 6.477 1.194 0
      vertex 9.833 0.435 0
      vertex 9.122 -0.149 0
    endloop
  endfacet
  facet normal 0 0 -1
    outer loop
      vertex 7.417 2.108 0
      vertex 11.1 1.803 0
      vertex 7.036 1.575 0
    endloop
  endfacet
  facet normal 0 0 -1
    outer loop
      vertex 4.572 1.575 0
      vertex -0.175 2.899 0
      vertex 4.191 2.108 0
    endloop
  endfacet
  facet normal 0 0 -1
    outer loop
      vertex 7.417 3.48 0
      vertex 11.1 5.69 0
      vertex 7.544 2.794 0
    endloop
  endfacet
  facet normal 0 0 -1
    outer loop
      vertex 7.036 4.039 0
      vertex 11.1 5.69 0
      vertex 7.417 3.48 0
    endloop
  endfacet
  facet normal 0 0 -1
    outer loop
      vertex 4.191 3.48 0
      vertex -0.175 2.899 0
      vertex 4.572 4.039 0
    endloop
  endfacet
  facet normal 0 0 -1
    outer loop
      vertex 6.477 4.42 0
      vertex 11.1 5.69 0
      vertex 7.036 4.039 0
    endloop
  endfacet
  facet normal 0 0 -1
    outer loop
      vertex 4.572 4.039 0
      vertex -0.175 2.899 0
      vertex 5.105 4.42 0
    endloop
  endfacet
  facet normal 0 0 -1
    outer loop
      vertex -0.175 2.899 0
      vertex 4.191 3.48 0
      vertex 4.039 2.794 0
    endloop
  endfacet
  facet normal 0 0 -1
    outer loop
      vertex 11.1 5.69 0
      vertex 5.791 4.547 0
      vertex 5.105 4.42 0
    endloop
  endfacet
  facet normal 0 0 -1
    outer loop
      vertex 5.105 4.42 0
      vertex -0.175 2.899 0
      vertex 10.6903 6.099 0
    endloop
  endfacet
  facet normal 0 0 -1
    outer loop
      vertex 11.1 5.69 0
      vertex 5.105 4.42 0
      vertex 10.6903 6.099 0
    endloop
  endfacet
  facet normal -1 0 0
    outer loop
      vertex -0.2 3 0
      vertex -0.2 3 2.6
      vertex -0.2 5.693 0
    endloop
  endfacet
  facet normal -1 0 0
    outer loop
      vertex -0.2 5.693 0
      vertex -0.2 3 2.6
      vertex -0.2 5.693 2.6
    endloop
  endfacet
  facet normal 0 0 1
    outer loop
      vertex -0.2 5.693 2.6
      vertex -0.2 3 2.6
      vertex -0.175 2.899 2.6
    endloop
  endfacet
  facet normal 0 0 1
    outer loop
      vertex 0.206 3.051 2.6
      vertex -0.2 5.693 2.6
      vertex -0.175 2.899 2.6
    endloop
  endfacet
  facet normal 0 0 1
    outer loop
      vertex 1.629 0.206 2.6
      vertex 1.324 -0.098 2.6
      vertex 1.502 -0.2 2.6
    endloop
  endfacet
  facet normal 0 0 1
    outer loop
      vertex 1.629 0.206 2.6
      vertex 0.206 3.051 2.6
      vertex 1.324 -0.098 2.6
    endloop
  endfacet
  facet normal 0 0 1
    outer loop
      vertex 8.919 0.206 2.6
      vertex 8.995 -0.2 2.6
      vertex 9.122 -0.149 2.6
    endloop
  endfacet
  facet normal 0 0 1
    outer loop
      vertex 9.833 0.435 2.6
      vertex 8.919 0.206 2.6
      vertex 9.122 -0.149 2.6
    endloop
  endfacet
  facet normal 0 0 1
    outer loop
      vertex 8.995 -0.2 2.6
      vertex 1.629 0.206 2.6
      vertex 1.502 -0.2 2.6
    endloop
  endfacet
  facet normal 0 0 1
    outer loop
      vertex 1.324 -0.098 2.6
      vertex 0.206 3.051 2.6
      vertex -0.175 2.899 2.6
    endloop
  endfacet
  facet normal 0 0 1
    outer loop
      vertex 0.689 6.099 2.6
      vertex -0.2 5.693 2.6
      vertex 0.206 5.617 2.6
    endloop
  endfacet
  facet normal 0 0 1
    outer loop
      vertex 0.613 6.506 2.6
      vertex -0.2 5.693 2.6
      vertex 0.689 6.099 2.6
    endloop
  endfacet
  facet normal 0 0 1
    outer loop
      vertex 10.824 6.506 2.6
      vertex 0.689 6.099 2.6
      vertex 10.798 6.099 2.6
    endloop
  endfacet
  facet normal 0 0 1
    outer loop
      vertex 0.613 6.506 2.6
      vertex 0.689 6.099 2.6
      vertex 10.824 6.506 2.6
    endloop
  endfacet
  facet normal 0 0 1
    outer loop
      vertex 0.46 6.429 2.6
      vertex -0.2 5.693 2.6
      vertex 0.613 6.506 2.6
    endloop
  endfacet
  facet normal 0 0 1
    outer loop
      vertex -0.149 5.845 2.6
      vertex -0.2 5.693 2.6
      vertex 0.46 6.429 2.6
    endloop
  endfacet
  facet normal 0 0 1
    outer loop
      vertex 9.579 0.74 2.6
      vertex 8.919 0.206 2.6
      vertex 9.833 0.435 2.6
    endloop
  endfacet
  facet normal 0 0 1
    outer loop
      vertex 8.919 0.206 2.6
      vertex 1.629 0.206 2.6
      vertex 8.995 -0.2 2.6
    endloop
  endfacet
  facet normal 0 0 1
    outer loop
      vertex 0.206 3.051 2.6
      vertex 0.206 5.617 2.6
      vertex -0.2 5.693 2.6
    endloop
  endfacet
  facet normal -0.894367 -0.447333 0
    outer loop
      vertex -0.175 2.899 0
      vertex 1.324 -0.098 0
      vertex -0.175 2.899 2.6
    endloop
  endfacet
  facet normal -0.894367 -0.447333 0
    outer loop
      vertex -0.175 2.899 2.6
      vertex 1.324 -0.098 0
      vertex 1.324 -0.098 2.6
    endloop
  endfacet
  facet normal -0.497188 -0.867643 0
    outer loop
      vertex 1.324 -0.098 2.6
      vertex 1.324 -0.098 0
      vertex 1.502 -0.2 0
    endloop
  endfacet
  facet normal -0.497188 -0.867643 0
    outer loop
      vertex 1.502 -0.2 2.6
      vertex 1.324 -0.098 2.6
      vertex 1.502 -0.2 0
    endloop
  endfacet
  facet normal 0 -1 0
    outer loop
      vertex 1.502 -0.2 2.6
      vertex 1.502 -0.2 0
      vertex 8.995 -0.2 0
    endloop
  endfacet
  facet normal 0 -1 0
    outer loop
      vertex 8.995 -0.2 2.6
      vertex 1.502 -0.2 2.6
      vertex 8.995 -0.2 0
    endloop
  endfacet
  facet normal 0.37265 -0.927972 0
    outer loop
      vertex 8.995 -0.2 2.6
      vertex 8.995 -0.2 0
      vertex 9.122 -0.149 0
    endloop
  endfacet
  facet normal 0.37265 -0.927972 0
    outer loop
      vertex 9.122 -0.149 2.6
      vertex 8.995 -0.2 2.6
      vertex 9.122 -0.149 0
    endloop
  endfacet
  facet normal 0.634716 -0.772745 0
    outer loop
      vertex 9.122 -0.149 2.6
      vertex 9.122 -0.149 0
      vertex 9.833 0.435 0
    endloop
  endfacet
  facet normal 0.634716 -0.772745 0
    outer loop
      vertex 9.833 0.435 2.6
      vertex 9.122 -0.149 2.6
      vertex 9.833 0.435 0
    endloop
  endfacet
  facet normal 0.768428 0.639937 0
    outer loop
      vertex 9.69472 0.601045 1.4
      vertex 9.579 0.74 1.4
      vertex 9.579 0.74 2.6
    endloop
  endfacet
  facet normal 0.768428 0.639937 0
    outer loop
      vertex 9.833 0.435 0
      vertex 9.69472 0.601045 1.4
      vertex 9.833 0.435 2.6
    endloop
  endfacet
  facet normal 0.768428 0.639937 0
    outer loop
      vertex 9.833 0.435 2.6
      vertex 9.69472 0.601045 1.4
      vertex 9.579 0.74 2.6
    endloop
  endfacet
  facet normal 0.768428 0.639937 0
    outer loop
      vertex 9.69472 0.601045 0
      vertex 9.69472 0.601045 1.4
      vertex 9.833 0.435 0
    endloop
  endfacet
  facet normal 0.649989 -0.759943 0
    outer loop
      vertex 9.69472 0.601045 1.4
      vertex 9.69472 0.601045 0
      vertex 11.1 1.803 0
    endloop
  endfacet
  facet normal 0.649989 -0.759943 0
    outer loop
      vertex 11.1 1.803 1.4
      vertex 9.69472 0.601045 1.4
      vertex 11.1 1.803 0
    endloop
  endfacet
  facet normal 1 0 0
    outer loop
      vertex 11.1 1.803 1.4
      vertex 11.1 1.803 0
      vertex 11.1 5.69 0
    endloop
  endfacet
  facet normal 1 0 0
    outer loop
      vertex 11.1 5.69 1.4
      vertex 11.1 1.803 1.4
      vertex 11.1 5.69 0
    endloop
  endfacet
  facet normal 0.706526 0.707687 0
    outer loop
      vertex 10.6903 6.099 0
      vertex 10.6903 6.099 1.4
      vertex 11.1 5.69 0
    endloop
  endfacet
  facet normal 0.706526 0.707687 0
    outer loop
      vertex 11.1 5.69 0
      vertex 10.6903 6.099 1.4
      vertex 11.1 5.69 1.4
    endloop
  endfacet
  facet normal 0 -1 0
    outer loop
      vertex 0.689 6.099 2.6
      vertex 0.689 6.099 1.4
      vertex 10.6903 6.099 1.4
    endloop
  endfacet
  facet normal 0 -1 0
    outer loop
      vertex 10.798 6.099 2.6
      vertex 0.689 6.099 2.6
      vertex 10.6903 6.099 1.4
    endloop
  endfacet
  facet normal 0 -1 0
    outer loop
      vertex 10.6903 6.099 0
      vertex 10.798 6.099 0
      vertex 10.6903 6.099 1.4
    endloop
  endfacet
  facet normal 0 -1 0
    outer loop
      vertex 10.798 6.099 0
      vertex 10.798 6.099 2.6
      vertex 10.6903 6.099 1.4
    endloop
  endfacet
  facet normal 0.997966 -0.0637521 0
    outer loop
      vertex 10.798 6.099 2.6
      vertex 10.798 6.099 0
      vertex 10.824 6.506 0
    endloop
  endfacet
  facet normal 0.997966 -0.0637521 0
    outer loop
      vertex 10.824 6.506 2.6
      vertex 10.798 6.099 2.6
      vertex 10.824 6.506 0
    endloop
  endfacet
  facet normal 0 1 0
    outer loop
      vertex 0.613 6.506 0
      vertex 0.613 6.506 2.6
      vertex 10.824 6.506 0
    endloop
  endfacet
  facet normal 0 1 0
    outer loop
      vertex 10.824 6.506 0
      vertex 0.613 6.506 2.6
      vertex 10.824 6.506 2.6
    endloop
  endfacet
  facet normal -0.449547 0.893256 0
    outer loop
      vertex 0.46 6.429 0
      vertex 0.46 6.429 2.6
      vertex 0.613 6.506 0
    endloop
  endfacet
  facet normal -0.449547 0.893256 0
    outer loop
      vertex 0.613 6.506 0
      vertex 0.46 6.429 2.6
      vertex 0.613 6.506 2.6
    endloop
  endfacet
  facet normal -0.692137 0.721766 0
    outer loop
      vertex -0.149 5.845 0
      vertex -0.149 5.845 2.6
      vertex 0.46 6.429 0
    endloop
  endfacet
  facet normal -0.692137 0.721766 0
    outer loop
      vertex 0.46 6.429 0
      vertex -0.149 5.845 2.6
      vertex 0.46 6.429 2.6
    endloop
  endfacet
  facet normal -0.948058 0.318098 0
    outer loop
      vertex -0.2 5.693 0
      vertex -0.2 5.693 2.6
      vertex -0.149 5.845 0
    endloop
  endfacet
  facet normal -0.948058 0.318098 0
    outer loop
      vertex -0.149 5.845 0
      vertex -0.2 5.693 2.6
      vertex -0.149 5.845 2.6
    endloop
  endfacet
  facet normal 0.976321 0.216328 0
    outer loop
      vertex 4.191 2.108 0
      vertex 4.039 2.794 0
      vertex 4.039 2.794 1.4
    endloop
  endfacet
  facet normal 0.976321 0.216328 0
    outer loop
      vertex 4.191 2.108 1.4
      vertex 4.191 2.108 0
      vertex 4.039 2.794 1.4
    endloop
  endfacet
  facet normal 0.976321 -0.216328 0
    outer loop
      vertex 4.039 2.794 1.4
      vertex 4.039 2.794 0
      vertex 4.191 3.48 0
    endloop
  endfacet
  facet normal 0.976321 -0.216328 0
    outer loop
      vertex 4.191 3.48 1.4
      vertex 4.039 2.794 1.4
      vertex 4.191 3.48 0
    endloop
  endfacet
  facet normal 0.826321 -0.563199 0
    outer loop
      vertex 4.191 3.48 1.4
      vertex 4.191 3.48 0
      vertex 4.572 4.039 0
    endloop
  endfacet
  facet normal 0.826321 -0.563199 0
    outer loop
      vertex 4.572 4.039 1.4
      vertex 4.191 3.48 1.4
      vertex 4.572 4.039 0
    endloop
  endfacet
  facet normal 0.581527 -0.813527 0
    outer loop
      vertex 4.572 4.039 1.4
      vertex 4.572 4.039 0
      vertex 5.105 4.42 0
    endloop
  endfacet
  facet normal 0.581527 -0.813527 0
    outer loop
      vertex 5.105 4.42 1.4
      vertex 4.572 4.039 1.4
      vertex 5.105 4.42 0
    endloop
  endfacet
  facet normal 0.182038 -0.983292 0
    outer loop
      vertex 5.105 4.42 1.4
      vertex 5.105 4.42 0
      vertex 5.791 4.547 0
    endloop
  endfacet
  facet normal 0.182038 -0.983292 0
    outer loop
      vertex 5.791 4.547 1.4
      vertex 5.105 4.42 1.4
      vertex 5.791 4.547 0
    endloop
  endfacet
  facet normal -0.182038 -0.983292 0
    outer loop
      vertex 5.791 4.547 1.4
      vertex 5.791 4.547 0
      vertex 6.477 4.42 0
    endloop
  endfacet
  facet normal -0.182038 -0.983292 0
    outer loop
      vertex 6.477 4.42 1.4
      vertex 5.791 4.547 1.4
      vertex 6.477 4.42 0
    endloop
  endfacet
  facet normal -0.563199 -0.826321 0
    outer loop
      vertex 6.477 4.42 1.4
      vertex 6.477 4.42 0
      vertex 7.036 4.039 0
    endloop
  endfacet
  facet normal -0.563199 -0.826321 0
    outer loop
      vertex 7.036 4.039 1.4
      vertex 6.477 4.42 1.4
      vertex 7.036 4.039 0
    endloop
  endfacet
  facet normal -0.826321 -0.563199 0
    outer loop
      vertex 7.036 4.039 0
      vertex 7.417 3.48 0
      vertex 7.036 4.039 1.4
    endloop
  endfacet
  facet normal -0.826321 -0.563199 0
    outer loop
      vertex 7.036 4.039 1.4
      vertex 7.417 3.48 0
      vertex 7.417 3.48 1.4
    endloop
  endfacet
  facet normal -0.983292 -0.182038 0
    outer loop
      vertex 7.417 3.48 0
      vertex 7.544 2.794 0
      vertex 7.417 3.48 1.4
    endloop
  endfacet
  facet normal -0.983292 -0.182038 0
    outer loop
      vertex 7.417 3.48 1.4
      vertex 7.544 2.794 0
      vertex 7.544 2.794 1.4
    endloop
  endfacet
  facet normal -0.983292 0.182038 0
    outer loop
      vertex 7.417 2.108 0
      vertex 7.417 2.108 1.4
      vertex 7.544 2.794 0
    endloop
  endfacet
  facet normal -0.983292 0.182038 0
    outer loop
      vertex 7.544 2.794 0
      vertex 7.417 2.108 1.4
      vertex 7.544 2.794 1.4
    endloop
  endfacet
  facet normal -0.813527 0.581527 0
    outer loop
      vertex 7.036 1.575 0
      vertex 7.036 1.575 1.4
      vertex 7.417 2.108 0
    endloop
  endfacet
  facet normal -0.813527 0.581527 0
    outer loop
      vertex 7.417 2.108 0
      vertex 7.036 1.575 1.4
      vertex 7.417 2.108 1.4
    endloop
  endfacet
  facet normal -0.563199 0.826321 0
    outer loop
      vertex 6.477 1.194 0
      vertex 6.477 1.194 1.4
      vertex 7.036 1.575 0
    endloop
  endfacet
  facet normal -0.563199 0.826321 0
    outer loop
      vertex 7.036 1.575 0
      vertex 6.477 1.194 1.4
      vertex 7.036 1.575 1.4
    endloop
  endfacet
  facet normal -0.217684 0.976019 0
    outer loop
      vertex 5.791 1.041 0
      vertex 5.791 1.041 1.4
      vertex 6.477 1.194 0
    endloop
  endfacet
  facet normal -0.217684 0.976019 0
    outer loop
      vertex 6.477 1.194 0
      vertex 5.791 1.041 1.4
      vertex 6.477 1.194 1.4
    endloop
  endfacet
  facet normal 0.217684 0.976019 0
    outer loop
      vertex 5.105 1.194 0
      vertex 5.105 1.194 1.4
      vertex 5.791 1.041 0
    endloop
  endfacet
  facet normal 0.217684 0.976019 0
    outer loop
      vertex 5.791 1.041 0
      vertex 5.105 1.194 1.4
      vertex 5.791 1.041 1.4
    endloop
  endfacet
  facet normal 0.581527 0.813527 0
    outer loop
      vertex 4.572 1.575 0
      vertex 4.572 1.575 1.4
      vertex 5.105 1.194 0
    endloop
  endfacet
  facet normal 0.581527 0.813527 0
    outer loop
      vertex 5.105 1.194 0
      vertex 4.572 1.575 1.4
      vertex 5.105 1.194 1.4
    endloop
  endfacet
  facet normal 0.813527 0.581527 0
    outer loop
      vertex 4.572 1.575 0
      vertex 4.191 2.108 0
      vertex 4.191 2.108 1.4
    endloop
  endfacet
  facet normal 0.813527 0.581527 0
    outer loop
      vertex 4.572 1.575 1.4
      vertex 4.572 1.575 0
      vertex 4.191 2.108 1.4
    endloop
  endfacet
  facet normal 0.706374 -0.707839 0
    outer loop
      vertex 0.206 5.617 2.6
      vertex 0.206 5.617 1.4
      vertex 0.689 6.099 1.4
    endloop
  endfacet
  facet normal 0.706374 -0.707839 0
    outer loop
      vertex 0.689 6.099 2.6
      vertex 0.206 5.617 2.6
      vertex 0.689 6.099 1.4
    endloop
  endfacet
  facet normal 1 0 0
    outer loop
      vertex 0.206 3.051 2.6
      vertex 0.206 3.051 1.4
      vertex 0.206 5.617 1.4
    endloop
  endfacet
  facet normal 1 0 0
    outer loop
      vertex 0.206 5.617 2.6
      vertex 0.206 3.051 2.6
      vertex 0.206 5.617 1.4
    endloop
  endfacet
  facet normal 0.894364 0.447339 0
    outer loop
      vertex 1.629 0.206 1.4
      vertex 0.206 3.051 1.4
      vertex 0.206 3.051 2.6
    endloop
  endfacet
  facet normal 0.894364 0.447339 0
    outer loop
      vertex 1.629 0.206 2.6
      vertex 1.629 0.206 1.4
      vertex 0.206 3.051 2.6
    endloop
  endfacet
  facet normal 0 1 0
    outer loop
      vertex 1.629 0.206 1.4
      vertex 1.629 0.206 2.6
      vertex 8.919 0.206 1.4
    endloop
  endfacet
  facet normal 0 1 0
    outer loop
      vertex 8.919 0.206 1.4
      vertex 1.629 0.206 2.6
      vertex 8.919 0.206 2.6
    endloop
  endfacet
  facet normal -0.628995 0.777409 0
    outer loop
      vertex 8.919 0.206 1.4
      vertex 8.919 0.206 2.6
      vertex 9.579 0.74 1.4
    endloop
  endfacet
  facet normal -0.628995 0.777409 0
    outer loop
      vertex 9.579 0.74 1.4
      vertex 8.919 0.206 2.6
      vertex 9.579 0.74 2.6
    endloop
  endfacet
  facet normal 0 0 1
    outer loop
      vertex 0.206 5.617 1.4
      vertex 0.206 3.051 1.4
      vertex 1.629 0.206 1.4
    endloop
  endfacet
  facet normal 0 0 1
    outer loop
      vertex 4.191 2.108 1.4
      vertex 0.206 5.617 1.4
      vertex 1.629 0.206 1.4
    endloop
  endfacet
  facet normal 0 0 1
    outer loop
      vertex 4.572 4.039 1.4
      vertex 5.105 4.42 1.4
      vertex 0.206 5.617 1.4
    endloop
  endfacet
  facet normal 0 0 1
    outer loop
      vertex 11.1 1.803 1.4
      vertex 9.579 0.74 1.4
      vertex 9.69472 0.601045 1.4
    endloop
  endfacet
  facet normal 0 0 1
    outer loop
      vertex 10.6903 6.099 1.4
      vertex 0.206 5.617 1.4
      vertex 11.1 5.69 1.4
    endloop
  endfacet
  facet normal 0 0 1
    outer loop
      vertex 0.689 6.099 1.4
      vertex 0.206 5.617 1.4
      vertex 10.6903 6.099 1.4
    endloop
  endfacet
  facet normal 0 0 1
    outer loop
      vertex 4.572 1.575 1.4
      vertex 4.191 2.108 1.4
      vertex 1.629 0.206 1.4
    endloop
  endfacet
  facet normal 0 0 1
    outer loop
      vertex 4.039 2.794 1.4
      vertex 0.206 5.617 1.4
      vertex 4.191 2.108 1.4
    endloop
  endfacet
  facet normal 0 0 1
    outer loop
      vertex 7.417 3.48 1.4
      vertex 7.544 2.794 1.4
      vertex 11.1 1.803 1.4
    endloop
  endfacet
  facet normal 0 0 1
    outer loop
      vertex 7.417 2.108 1.4
      vertex 7.036 1.575 1.4
      vertex 9.579 0.74 1.4
    endloop
  endfacet
  facet normal 0 0 1
    outer loop
      vertex 7.036 4.039 1.4
      vertex 7.417 3.48 1.4
      vertex 11.1 1.803 1.4
    endloop
  endfacet
  facet normal 0 0 1
    outer loop
      vertex 7.036 1.575 1.4
      vertex 6.477 1.194 1.4
      vertex 8.919 0.206 1.4
    endloop
  endfacet
  facet normal 0 0 1
    outer loop
      vertex 11.1 5.69 1.4
      vertex 0.206 5.617 1.4
      vertex 5.105 4.42 1.4
    endloop
  endfacet
  facet normal 0 0 1
    outer loop
      vertex 11.1 5.69 1.4
      vertex 5.105 4.42 1.4
      vertex 5.791 4.547 1.4
    endloop
  endfacet
  facet normal 0 0 1
    outer loop
      vertex 11.1 5.69 1.4
      vertex 6.477 4.42 1.4
      vertex 11.1 1.803 1.4
    endloop
  endfacet
  facet normal 0 0 1
    outer loop
      vertex 11.1 5.69 1.4
      vertex 5.791 4.547 1.4
      vertex 6.477 4.42 1.4
    endloop
  endfacet
  facet normal 0 0 1
    outer loop
      vertex 6.477 4.42 1.4
      vertex 7.036 4.039 1.4
      vertex 11.1 1.803 1.4
    endloop
  endfacet
  facet normal 0 0 1
    outer loop
      vertex 11.1 1.803 1.4
      vertex 7.544 2.794 1.4
      vertex 9.579 0.74 1.4
    endloop
  endfacet
  facet normal 0 0 1
    outer loop
      vertex 7.544 2.794 1.4
      vertex 7.417 2.108 1.4
      vertex 9.579 0.74 1.4
    endloop
  endfacet
  facet normal 0 0 1
    outer loop
      vertex 9.579 0.74 1.4
      vertex 7.036 1.575 1.4
      vertex 8.919 0.206 1.4
    endloop
  endfacet
  facet normal 0 0 1
    outer loop
      vertex 8.919 0.206 1.4
      vertex 5.791 1.041 1.4
      vertex 1.629 0.206 1.4
    endloop
  endfacet
  facet normal 0 0 1
    outer loop
      vertex 5.791 1.041 1.4
      vertex 5.105 1.194 1.4
      vertex 1.629 0.206 1.4
    endloop
  endfacet
  facet normal 0 0 1
    outer loop
      vertex 5.105 1.194 1.4
      vertex 4.572 1.575 1.4
      vertex 1.629 0.206 1.4
    endloop
  endfacet
  facet normal 0 0 1
    outer loop
      vertex 6.477 1.194 1.4
      vertex 5.791 1.041 1.4
      vertex 8.919 0.206 1.4
    endloop
  endfacet
  facet normal 0 0 1
    outer loop
      vertex 4.039 2.794 1.4
      vertex 4.191 3.48 1.4
      vertex 0.206 5.617 1.4
    endloop
  endfacet
  facet normal 0 0 1
    outer loop
      vertex 4.191 3.48 1.4
      vertex 4.572 4.039 1.4
      vertex 0.206 5.617 1.4
    endloop
  endfacet
  facet normal -0.721766 -0.692137 0
    outer loop
      vertex 23.27 0.46 0
      vertex 23.854 -0.149 0
      vertex 23.27 0.46 2.6
    endloop
  endfacet
  facet normal -0.721766 -0.692137 0
    outer loop
      vertex 23.27 0.46 2.6
      vertex 23.854 -0.149 0
      vertex 23.854 -0.149 2.6
    endloop
  endfacet
  facet normal 0 0 -1
    outer loop
      vertex 23.27 0.46 0
      vertex 23.4063 0.596744 0
      vertex 23.854 -0.149 0
    endloop
  endfacet
  facet normal 0 0 -1
    outer loop
      vertex 23.854 -0.149 0
      vertex 23.4063 0.596744 0
      vertex 23.393 5.69 0
    endloop
  endfacet
  facet normal 0 0 -1
    outer loop
      vertex 23.4063 0.596744 0
      vertex 23.393 0.61 0
      vertex 23.393 5.69 0
    endloop
  endfacet
  facet normal 0 0 -1
    outer loop
      vertex 23.854 -0.149 0
      vertex 23.393 5.69 0
      vertex 23.701 5.9975 0
    endloop
  endfacet
  facet normal 0 0 -1
    outer loop
      vertex 23.854 -0.149 0
      vertex 23.701 5.9975 0
      vertex 23.701 6.201 0
    endloop
  endfacet
  facet normal 0 0 -1
    outer loop
      vertex 23.854 -0.149 0
      vertex 23.701 6.201 0
      vertex 23.9048 6.201 0
    endloop
  endfacet
  facet normal 0 0 -1
    outer loop
      vertex 23.854 -0.149 0
      vertex 23.9048 6.201 0
      vertex 24.003 6.299 0
    endloop
  endfacet
  facet normal 0 0 -1
    outer loop
      vertex 23.854 -0.149 0
      vertex 24.003 6.299 0
      vertex 37.49 6.299 0
    endloop
  endfacet
  facet normal 0 0 -1
    outer loop
      vertex 23.854 -0.149 0
      vertex 37.49 6.299 0
      vertex 37.5882 6.201 0
    endloop
  endfacet
  facet normal 0 0 -1
    outer loop
      vertex 23.854 -0.149 0
      vertex 37.5882 6.201 0
      vertex 37.798 6.201 0
    endloop
  endfacet
  facet normal 0 0 -1
    outer loop
      vertex 23.854 -0.149 0
      vertex 37.798 6.201 0
      vertex 37.798 5.9915 0
    endloop
  endfacet
  facet normal 0 0 -1
    outer loop
      vertex 23.854 -0.149 0
      vertex 37.798 5.9915 0
      vertex 38.1 5.69 0
    endloop
  endfacet
  facet normal 0 0 -1
    outer loop
      vertex 23.854 -0.149 0
      vertex 38.1 5.69 0
      vertex 38.1 0.61 0
    endloop
  endfacet
  facet normal 0 0 -1
    outer loop
      vertex 23.854 -0.149 0
      vertex 38.1 0.61 0
      vertex 38.0903 0.60025 0
    endloop
  endfacet
  facet normal 0 0 -1
    outer loop
      vertex 23.854 -0.149 0
      vertex 38.0903 0.60025 0
      vertex 38.23 0.46 0
    endloop
  endfacet
  facet normal 0 0 -1
    outer loop
      vertex 23.854 -0.149 0
      vertex 38.23 0.46 0
      vertex 37.646 -0.149 0
    endloop
  endfacet
  facet normal 0 0 -1
    outer loop
      vertex 23.854 -0.149 0
      vertex 37.646 -0.149 0
      vertex 37.494 -0.2 0
    endloop
  endfacet
  facet normal 0 0 -1
    outer loop
      vertex 23.854 -0.149 0
      vertex 37.494 -0.2 0
      vertex 24.006 -0.2 0
    endloop
  endfacet
  facet normal -0.708371 0.705841 0
    outer loop
      vertex 23.27 0.46 0
      vertex 23.27 0.46 2.6
      vertex 23.4063 0.596744 0
    endloop
  endfacet
  facet normal -0.708371 0.705841 0
    outer loop
      vertex 23.4063 0.596744 1.4
      vertex 23.27 0.46 2.6
      vertex 23.549 0.74 2.6
    endloop
  endfacet
  facet normal -0.708371 0.705841 0
    outer loop
      vertex 23.4063 0.596744 0
      vertex 23.27 0.46 2.6
      vertex 23.4063 0.596744 1.4
    endloop
  endfacet
  facet normal -0.708371 0.705841 0
    outer loop
      vertex 23.4063 0.596744 1.4
      vertex 23.549 0.74 2.6
      vertex 23.549 0.74 1.4
    endloop
  endfacet
  facet normal 0 0 1
    outer loop
      vertex 23.549 0.74 2.6
      vertex 23.27 0.46 2.6
      vertex 23.854 -0.149 2.6
    endloop
  endfacet
  facet normal 0 0 1
    outer loop
      vertex 24.082 0.206 2.6
      vertex 23.549 0.74 2.6
      vertex 24.006 -0.2 2.6
    endloop
  endfacet
  facet normal 0 0 1
    outer loop
      vertex 24.006 -0.2 2.6
      vertex 23.549 0.74 2.6
      vertex 23.854 -0.149 2.6
    endloop
  endfacet
  facet normal 0 0 1
    outer loop
      vertex 37.417 0.206 2.6
      vertex 37.494 -0.2 2.6
      vertex 37.646 -0.149 2.6
    endloop
  endfacet
  facet normal 0 0 1
    outer loop
      vertex 38.23 0.46 2.6
      vertex 37.417 0.206 2.6
      vertex 37.646 -0.149 2.6
    endloop
  endfacet
  facet normal 0 0 1
    outer loop
      vertex 37.494 -0.2 2.6
      vertex 24.082 0.206 2.6
      vertex 24.006 -0.2 2.6
    endloop
  endfacet
  facet normal 0 0 1
    outer loop
      vertex 37.951 0.74 2.6
      vertex 37.417 0.206 2.6
      vertex 38.23 0.46 2.6
    endloop
  endfacet
  facet normal 0 0 1
    outer loop
      vertex 37.417 0.206 2.6
      vertex 24.082 0.206 2.6
      vertex 37.494 -0.2 2.6
    endloop
  endfacet
  facet normal -0.318098 -0.948058 0
    outer loop
      vertex 23.854 -0.149 2.6
      vertex 23.854 -0.149 0
      vertex 24.006 -0.2 0
    endloop
  endfacet
  facet normal -0.318098 -0.948058 0
    outer loop
      vertex 24.006 -0.2 2.6
      vertex 23.854 -0.149 2.6
      vertex 24.006 -0.2 0
    endloop
  endfacet
  facet normal 0 -1 0
    outer loop
      vertex 24.006 -0.2 2.6
      vertex 24.006 -0.2 0
      vertex 37.494 -0.2 0
    endloop
  endfacet
  facet normal 0 -1 0
    outer loop
      vertex 37.494 -0.2 2.6
      vertex 24.006 -0.2 2.6
      vertex 37.494 -0.2 0
    endloop
  endfacet
  facet normal 0.318098 -0.948058 0
    outer loop
      vertex 37.494 -0.2 2.6
      vertex 37.494 -0.2 0
      vertex 37.646 -0.149 0
    endloop
  endfacet
  facet normal 0.318098 -0.948058 0
    outer loop
      vertex 37.646 -0.149 2.6
      vertex 37.494 -0.2 2.6
      vertex 37.646 -0.149 0
    endloop
  endfacet
  facet normal 0.721766 -0.692137 0
    outer loop
      vertex 37.646 -0.149 2.6
      vertex 37.646 -0.149 0
      vertex 38.23 0.46 0
    endloop
  endfacet
  facet normal 0.721766 -0.692137 0
    outer loop
      vertex 38.23 0.46 2.6
      vertex 37.646 -0.149 2.6
      vertex 38.23 0.46 0
    endloop
  endfacet
  facet normal 0.708371 0.705841 0
    outer loop
      vertex 38.0903 0.60025 1.4
      vertex 37.951 0.74 1.4
      vertex 37.951 0.74 2.6
    endloop
  endfacet
  facet normal 0.708371 0.705841 0
    outer loop
      vertex 38.23 0.46 0
      vertex 38.0903 0.60025 1.4
      vertex 38.23 0.46 2.6
    endloop
  endfacet
  facet normal 0.708371 0.705841 0
    outer loop
      vertex 38.23 0.46 2.6
      vertex 38.0903 0.60025 1.4
      vertex 37.951 0.74 2.6
    endloop
  endfacet
  facet normal 0.708371 0.705841 0
    outer loop
      vertex 38.0903 0.60025 0
      vertex 38.0903 0.60025 1.4
      vertex 38.23 0.46 0
    endloop
  endfacet
  facet normal 0.707107 -0.707107 0
    outer loop
      vertex 38.0903 0.60025 1.4
      vertex 38.0903 0.60025 0
      vertex 38.1 0.61 0
    endloop
  endfacet
  facet normal 0.707107 -0.707107 0
    outer loop
      vertex 38.1 0.61 1.4
      vertex 38.0903 0.60025 1.4
      vertex 38.1 0.61 0
    endloop
  endfacet
  facet normal 1 0 0
    outer loop
      vertex 38.1 0.61 1.4
      vertex 38.1 0.61 0
      vertex 38.1 5.69 0
    endloop
  endfacet
  facet normal 1 0 0
    outer loop
      vertex 38.1 5.69 1.4
      vertex 38.1 0.61 1.4
      vertex 38.1 5.69 0
    endloop
  endfacet
  facet normal 0.706526 0.707687 0
    outer loop
      vertex 37.798 5.9915 0
      vertex 37.798 5.9915 1.4
      vertex 38.1 5.69 0
    endloop
  endfacet
  facet normal 0.706526 0.707687 0
    outer loop
      vertex 38.1 5.69 0
      vertex 37.798 5.9915 1.4
      vertex 38.1 5.69 1.4
    endloop
  endfacet
  facet normal 1 0 0
    outer loop
      vertex 37.798 5.794 2.6
      vertex 37.798 5.794 1.4
      vertex 37.798 5.9915 1.4
    endloop
  endfacet
  facet normal 1 0 0
    outer loop
      vertex 37.798 6.201 2.6
      vertex 37.798 5.794 2.6
      vertex 37.798 5.9915 1.4
    endloop
  endfacet
  facet normal 1 0 0
    outer loop
      vertex 37.798 5.9915 0
      vertex 37.798 6.201 0
      vertex 37.798 5.9915 1.4
    endloop
  endfacet
  facet normal 1 0 0
    outer loop
      vertex 37.798 6.201 0
      vertex 37.798 6.201 2.6
      vertex 37.798 5.9915 1.4
    endloop
  endfacet
  facet normal 0 1 0
    outer loop
      vertex 23.701 6.201 0
      vertex 23.701 6.201 2.6
      vertex 23.9048 6.201 0
    endloop
  endfacet
  facet normal 0 1 0
    outer loop
      vertex 23.9048 6.201 1.4
      vertex 23.701 6.201 2.6
      vertex 37.798 6.201 2.6
    endloop
  endfacet
  facet normal 0 1 0
    outer loop
      vertex 37.5882 6.201 0
      vertex 37.798 6.201 2.6
      vertex 37.798 6.201 0
    endloop
  endfacet
  facet normal 0 1 0
    outer loop
      vertex 37.5882 6.201 1.4
      vertex 37.798 6.201 2.6
      vertex 37.5882 6.201 0
    endloop
  endfacet
  facet normal 0 1 0
    outer loop
      vertex 23.9048 6.201 0
      vertex 23.701 6.201 2.6
      vertex 23.9048 6.201 1.4
    endloop
  endfacet
  facet normal 0 1 0
    outer loop
      vertex 23.9048 6.201 1.4
      vertex 37.798 6.201 2.6
      vertex 37.5882 6.201 1.4
    endloop
  endfacet
  facet normal 0.706526 0.707687 0
    outer loop
      vertex 37.49 6.299 0
      vertex 37.49 6.299 1.4
      vertex 37.5882 6.201 0
    endloop
  endfacet
  facet normal 0.706526 0.707687 0
    outer loop
      vertex 37.5882 6.201 0
      vertex 37.49 6.299 1.4
      vertex 37.5882 6.201 1.4
    endloop
  endfacet
  facet normal 0 1 0
    outer loop
      vertex 24.003 6.299 0
      vertex 24.003 6.299 1.4
      vertex 37.49 6.299 0
    endloop
  endfacet
  facet normal 0 1 0
    outer loop
      vertex 37.49 6.299 0
      vertex 24.003 6.299 1.4
      vertex 37.49 6.299 1.4
    endloop
  endfacet
  facet normal -0.706526 0.707687 0
    outer loop
      vertex 23.9048 6.201 0
      vertex 23.9048 6.201 1.4
      vertex 24.003 6.299 0
    endloop
  endfacet
  facet normal -0.706526 0.707687 0
    outer loop
      vertex 24.003 6.299 0
      vertex 23.9048 6.201 1.4
      vertex 24.003 6.299 1.4
    endloop
  endfacet
  facet normal -1 0 0
    outer loop
      vertex 23.701 5.794 1.4
      vertex 23.701 5.794 2.6
      vertex 23.701 5.9975 1.4
    endloop
  endfacet
  facet normal -1 0 0
    outer loop
      vertex 23.701 5.9975 1.4
      vertex 23.701 5.794 2.6
      vertex 23.701 6.201 2.6
    endloop
  endfacet
  facet normal -1 0 0
    outer loop
      vertex 23.701 5.9975 1.4
      vertex 23.701 6.201 2.6
      vertex 23.701 6.201 0
    endloop
  endfacet
  facet normal -1 0 0
    outer loop
      vertex 23.701 5.9975 1.4
      vertex 23.701 6.201 0
      vertex 23.701 5.9975 0
    endloop
  endfacet
  facet normal -0.706526 0.707687 0
    outer loop
      vertex 23.393 5.69 0
      vertex 23.393 5.69 1.4
      vertex 23.701 5.9975 0
    endloop
  endfacet
  facet normal -0.706526 0.707687 0
    outer loop
      vertex 23.701 5.9975 0
      vertex 23.393 5.69 1.4
      vertex 23.701 5.9975 1.4
    endloop
  endfacet
  facet normal -1 0 0
    outer loop
      vertex 23.393 0.61 0
      vertex 23.393 0.61 1.4
      vertex 23.393 5.69 0
    endloop
  endfacet
  facet normal -1 0 0
    outer loop
      vertex 23.393 5.69 0
      vertex 23.393 0.61 1.4
      vertex 23.393 5.69 1.4
    endloop
  endfacet
  facet normal -0.707107 -0.707107 0
    outer loop
      vertex 23.393 0.61 0
      vertex 23.4063 0.596744 0
      vertex 23.393 0.61 1.4
    endloop
  endfacet
  facet normal -0.707107 -0.707107 0
    outer loop
      vertex 23.393 0.61 1.4
      vertex 23.4063 0.596744 0
      vertex 23.4063 0.596744 1.4
    endloop
  endfacet
  facet normal 0 0 1
    outer loop
      vertex 23.393 5.69 1.4
      vertex 23.393 0.61 1.4
      vertex 23.4063 0.596744 1.4
    endloop
  endfacet
  facet normal 0 0 1
    outer loop
      vertex 24.082 0.206 1.4
      vertex 23.393 5.69 1.4
      vertex 23.549 0.74 1.4
    endloop
  endfacet
  facet normal 0 0 1
    outer loop
      vertex 23.549 0.74 1.4
      vertex 23.393 5.69 1.4
      vertex 23.4063 0.596744 1.4
    endloop
  endfacet
  facet normal 0 0 1
    outer loop
      vertex 37.417 0.206 1.4
      vertex 23.393 5.69 1.4
      vertex 24.082 0.206 1.4
    endloop
  endfacet
  facet normal 0 0 1
    outer loop
      vertex 37.951 0.74 1.4
      vertex 23.393 5.69 1.4
      vertex 37.417 0.206 1.4
    endloop
  endfacet
  facet normal 0 0 1
    outer loop
      vertex 38.1 5.69 1.4
      vertex 23.393 5.69 1.4
      vertex 37.951 0.74 1.4
    endloop
  endfacet
  facet normal 0 0 1
    outer loop
      vertex 38.1 0.61 1.4
      vertex 37.951 0.74 1.4
      vertex 38.0903 0.60025 1.4
    endloop
  endfacet
  facet normal 0 0 1
    outer loop
      vertex 38.1 5.69 1.4
      vertex 37.951 0.74 1.4
      vertex 38.1 0.61 1.4
    endloop
  endfacet
  facet normal 0 0 1
    outer loop
      vertex 37.798 5.794 1.4
      vertex 23.393 5.69 1.4
      vertex 38.1 5.69 1.4
    endloop
  endfacet
  facet normal 0 0 1
    outer loop
      vertex 37.798 5.9915 1.4
      vertex 37.798 5.794 1.4
      vertex 38.1 5.69 1.4
    endloop
  endfacet
  facet normal 0 0 1
    outer loop
      vertex 23.701 5.9975 1.4
      vertex 23.393 5.69 1.4
      vertex 23.701 5.794 1.4
    endloop
  endfacet
  facet normal 0 0 1
    outer loop
      vertex 37.798 5.794 1.4
      vertex 23.701 5.794 1.4
      vertex 23.393 5.69 1.4
    endloop
  endfacet
  facet normal 0.707769 0.706444 0
    outer loop
      vertex 24.082 0.206 1.4
      vertex 23.549 0.74 1.4
      vertex 23.549 0.74 2.6
    endloop
  endfacet
  facet normal 0.707769 0.706444 0
    outer loop
      vertex 24.082 0.206 2.6
      vertex 24.082 0.206 1.4
      vertex 23.549 0.74 2.6
    endloop
  endfacet
  facet normal 0 1 0
    outer loop
      vertex 24.082 0.206 1.4
      vertex 24.082 0.206 2.6
      vertex 37.417 0.206 1.4
    endloop
  endfacet
  facet normal 0 1 0
    outer loop
      vertex 37.417 0.206 1.4
      vertex 24.082 0.206 2.6
      vertex 37.417 0.206 2.6
    endloop
  endfacet
  facet normal -0.707107 0.707107 0
    outer loop
      vertex 37.417 0.206 1.4
      vertex 37.417 0.206 2.6
      vertex 37.951 0.74 1.4
    endloop
  endfacet
  facet normal -0.707107 0.707107 0
    outer loop
      vertex 37.951 0.74 1.4
      vertex 37.417 0.206 2.6
      vertex 37.951 0.74 2.6
    endloop
  endfacet
  facet normal 0 -1 0
    outer loop
      vertex 23.701 5.794 2.6
      vertex 23.701 5.794 1.4
      vertex 37.798 5.794 1.4
    endloop
  endfacet
  facet normal 0 -1 0
    outer loop
      vertex 37.798 5.794 2.6
      vertex 23.701 5.794 2.6
      vertex 37.798 5.794 1.4
    endloop
  endfacet
  facet normal 0 0 1
    outer loop
      vertex 23.701 6.201 2.6
      vertex 23.701 5.794 2.6
      vertex 37.798 5.794 2.6
    endloop
  endfacet
  facet normal 0 0 1
    outer loop
      vertex 37.798 6.201 2.6
      vertex 23.701 6.201 2.6
      vertex 37.798 5.794 2.6
    endloop
  endfacet
  facet normal 0 0 1
    outer loop
      vertex 24.003 6.299 1.4
      vertex 23.9048 6.201 1.4
      vertex 37.5882 6.201 1.4
    endloop
  endfacet
  facet normal 0 0 1
    outer loop
      vertex 37.49 6.299 1.4
      vertex 24.003 6.299 1.4
      vertex 37.5882 6.201 1.4
    endloop
  endfacet
  facet normal -0.959783 -0.280743 0
    outer loop
      vertex 50.394 2.692 0
      vertex 51.003 0.61 0
      vertex 50.394 2.692 1.4
    endloop
  endfacet
  facet normal -0.959783 -0.280743 0
    outer loop
      vertex 50.394 2.692 1.4
      vertex 51.003 0.61 0
      vertex 51.003 0.61 1.4
    endloop
  endfacet
  facet normal 0 0 -1
    outer loop
      vertex 50.394 2.692 0
      vertex 50.394 5.69 0
      vertex 51.003 0.61 0
    endloop
  endfacet
  facet normal 0 0 -1
    outer loop
      vertex 51.003 0.61 0
      vertex 50.394 5.69 0
      vertex 50.702 5.998 0
    endloop
  endfacet
  facet normal 0 0 -1
    outer loop
      vertex 51.003 0.61 0
      vertex 50.702 5.998 0
      vertex 50.702 6.201 0
    endloop
  endfacet
  facet normal 0 0 -1
    outer loop
      vertex 51.003 0.61 0
      vertex 50.702 6.201 0
      vertex 50.905 6.201 0
    endloop
  endfacet
  facet normal 0 0 -1
    outer loop
      vertex 51.003 0.61 0
      vertex 50.905 6.201 0
      vertex 51.003 6.299 0
    endloop
  endfacet
  facet normal 0 0 -1
    outer loop
      vertex 51.003 0.61 0
      vertex 51.003 6.299 0
      vertex 67.208 6.299 0
    endloop
  endfacet
  facet normal 0 0 -1
    outer loop
      vertex 51.003 0.61 0
      vertex 67.208 6.299 0
      vertex 67.2563 6.201 0
    endloop
  endfacet
  facet normal 0 0 -1
    outer loop
      vertex 51.003 0.61 0
      vertex 67.2563 6.201 0
      vertex 67.339 6.201 0
    endloop
  endfacet
  facet normal 0 0 -1
    outer loop
      vertex 51.003 0.61 0
      vertex 67.339 6.201 0
      vertex 67.339 6.03332 0
    endloop
  endfacet
  facet normal 0 0 -1
    outer loop
      vertex 51.003 0.61 0
      vertex 67.339 6.03332 0
      vertex 68.097 4.496 0
    endloop
  endfacet
  facet normal 0 0 -1
    outer loop
      vertex 51.003 0.61 0
      vertex 68.097 4.496 0
      vertex 68.097 0.889 0
    endloop
  endfacet
  facet normal 0 0 -1
    outer loop
      vertex 51.003 0.61 0
      vertex 68.097 0.889 0
      vertex 67.8083 0.60025 0
    endloop
  endfacet
  facet normal 0 0 -1
    outer loop
      vertex 51.003 0.61 0
      vertex 67.8083 0.60025 0
      vertex 67.948 0.46 0
    endloop
  endfacet
  facet normal 0 0 -1
    outer loop
      vertex 51.003 0.61 0
      vertex 67.948 0.46 0
      vertex 67.339 -0.149 0
    endloop
  endfacet
  facet normal 0 0 -1
    outer loop
      vertex 51.003 0.61 0
      vertex 67.339 -0.149 0
      vertex 67.212 -0.2 0
    endloop
  endfacet
  facet normal 0 0 -1
    outer loop
      vertex 51.0032 0.609767 0
      vertex 67.212 -0.2 0
      vertex 51.591 -0.2 0
    endloop
  endfacet
  facet normal 0 0 -1
    outer loop
      vertex 51.003 0.61 0
      vertex 67.212 -0.2 0
      vertex 51.0032 0.609767 0
    endloop
  endfacet
  facet normal 0 0 -1
    outer loop
      vertex 51.0032 0.609767 0
      vertex 51.591 -0.2 0
      vertex 51.464 -0.149 0
    endloop
  endfacet
  facet normal 0 0 -1
    outer loop
      vertex 51.0032 0.609767 0
      vertex 51.464 -0.149 0
      vertex 50.854 0.46 0
    endloop
  endfacet
  facet normal -1 0 0
    outer loop
      vertex 50.394 2.692 0
      vertex 50.394 2.692 1.4
      vertex 50.394 5.69 0
    endloop
  endfacet
  facet normal -1 0 0
    outer loop
      vertex 50.394 5.69 0
      vertex 50.394 2.692 1.4
      vertex 50.394 5.69 1.4
    endloop
  endfacet
  facet normal 0 0 1
    outer loop
      vertex 50.394 5.69 1.4
      vertex 50.394 2.692 1.4
      vertex 51.003 0.61 1.4
    endloop
  endfacet
  facet normal 0 0 1
    outer loop
      vertex 51.133 0.74 1.4
      vertex 50.394 5.69 1.4
      vertex 51.0032 0.609767 1.4
    endloop
  endfacet
  facet normal 0 0 1
    outer loop
      vertex 51.0032 0.609767 1.4
      vertex 50.394 5.69 1.4
      vertex 51.003 0.61 1.4
    endloop
  endfacet
  facet normal 0 0 1
    outer loop
      vertex 51.692 0.206 1.4
      vertex 50.394 5.69 1.4
      vertex 51.133 0.74 1.4
    endloop
  endfacet
  facet normal 0 0 1
    outer loop
      vertex 67.11 0.206 1.4
      vertex 50.394 5.69 1.4
      vertex 51.692 0.206 1.4
    endloop
  endfacet
  facet normal 0 0 1
    outer loop
      vertex 67.669 0.74 1.4
      vertex 50.394 5.69 1.4
      vertex 67.11 0.206 1.4
    endloop
  endfacet
  facet normal 0 0 1
    outer loop
      vertex 68.097 0.889 1.4
      vertex 50.394 5.69 1.4
      vertex 67.669 0.74 1.4
    endloop
  endfacet
  facet normal 0 0 1
    outer loop
      vertex 68.097 0.889 1.4
      vertex 67.669 0.74 1.4
      vertex 67.8083 0.60025 1.4
    endloop
  endfacet
  facet normal 0 0 1
    outer loop
      vertex 68.097 4.496 1.4
      vertex 50.394 5.69 1.4
      vertex 68.097 0.889 1.4
    endloop
  endfacet
  facet normal 0 0 1
    outer loop
      vertex 67.339 5.794 1.4
      vertex 50.394 5.69 1.4
      vertex 68.097 4.496 1.4
    endloop
  endfacet
  facet normal 0 0 1
    outer loop
      vertex 67.339 6.03332 1.4
      vertex 67.339 5.794 1.4
      vertex 68.097 4.496 1.4
    endloop
  endfacet
  facet normal 0 0 1
    outer loop
      vertex 50.702 5.998 1.4
      vertex 50.394 5.69 1.4
      vertex 50.702 5.794 1.4
    endloop
  endfacet
  facet normal 0 0 1
    outer loop
      vertex 67.339 5.794 1.4
      vertex 50.702 5.794 1.4
      vertex 50.394 5.69 1.4
    endloop
  endfacet
  facet normal -0.707107 -0.707107 0
    outer loop
      vertex 51.003 0.61 0
      vertex 51.0032 0.609767 0
      vertex 51.003 0.61 1.4
    endloop
  endfacet
  facet normal -0.707107 -0.707107 0
    outer loop
      vertex 51.003 0.61 1.4
      vertex 51.0032 0.609767 0
      vertex 51.0032 0.609767 1.4
    endloop
  endfacet
  facet normal -0.708371 0.705841 0
    outer loop
      vertex 50.854 0.46 0
      vertex 50.854 0.46 2.6
      vertex 51.0032 0.609767 0
    endloop
  endfacet
  facet normal -0.708371 0.705841 0
    outer loop
      vertex 51.0032 0.609767 1.4
      vertex 50.854 0.46 2.6
      vertex 51.133 0.74 2.6
    endloop
  endfacet
  facet normal -0.708371 0.705841 0
    outer loop
      vertex 51.0032 0.609767 0
      vertex 50.854 0.46 2.6
      vertex 51.0032 0.609767 1.4
    endloop
  endfacet
  facet normal -0.708371 0.705841 0
    outer loop
      vertex 51.0032 0.609767 1.4
      vertex 51.133 0.74 2.6
      vertex 51.133 0.74 1.4
    endloop
  endfacet
  facet normal -0.706526 -0.707687 0
    outer loop
      vertex 50.854 0.46 2.6
      vertex 50.854 0.46 0
      vertex 51.464 -0.149 0
    endloop
  endfacet
  facet normal -0.706526 -0.707687 0
    outer loop
      vertex 51.464 -0.149 2.6
      vertex 50.854 0.46 2.6
      vertex 51.464 -0.149 0
    endloop
  endfacet
  facet normal -0.37265 -0.927972 0
    outer loop
      vertex 51.464 -0.149 2.6
      vertex 51.464 -0.149 0
      vertex 51.591 -0.2 0
    endloop
  endfacet
  facet normal -0.37265 -0.927972 0
    outer loop
      vertex 51.591 -0.2 2.6
      vertex 51.464 -0.149 2.6
      vertex 51.591 -0.2 0
    endloop
  endfacet
  facet normal 0 -1 0
    outer loop
      vertex 51.591 -0.2 2.6
      vertex 51.591 -0.2 0
      vertex 67.212 -0.2 0
    endloop
  endfacet
  facet normal 0 -1 0
    outer loop
      vertex 67.212 -0.2 2.6
      vertex 51.591 -0.2 2.6
      vertex 67.212 -0.2 0
    endloop
  endfacet
  facet normal 0.37265 -0.927972 0
    outer loop
      vertex 67.212 -0.2 2.6
      vertex 67.212 -0.2 0
      vertex 67.339 -0.149 0
    endloop
  endfacet
  facet normal 0.37265 -0.927972 0
    outer loop
      vertex 67.339 -0.149 2.6
      vertex 67.212 -0.2 2.6
      vertex 67.339 -0.149 0
    endloop
  endfacet
  facet normal 0.707107 -0.707107 0
    outer loop
      vertex 67.339 -0.149 2.6
      vertex 67.339 -0.149 0
      vertex 67.948 0.46 0
    endloop
  endfacet
  facet normal 0.707107 -0.707107 0
    outer loop
      vertex 67.948 0.46 2.6
      vertex 67.339 -0.149 2.6
      vertex 67.948 0.46 0
    endloop
  endfacet
  facet normal 0.708371 0.705841 0
    outer loop
      vertex 67.8083 0.60025 1.4
      vertex 67.669 0.74 1.4
      vertex 67.669 0.74 2.6
    endloop
  endfacet
  facet normal 0.708371 0.705841 0
    outer loop
      vertex 67.948 0.46 0
      vertex 67.8083 0.60025 1.4
      vertex 67.948 0.46 2.6
    endloop
  endfacet
  facet normal 0.708371 0.705841 0
    outer loop
      vertex 67.948 0.46 2.6
      vertex 67.8083 0.60025 1.4
      vertex 67.669 0.74 2.6
    endloop
  endfacet
  facet normal 0.708371 0.705841 0
    outer loop
      vertex 67.8083 0.60025 0
      vertex 67.8083 0.60025 1.4
      vertex 67.948 0.46 0
    endloop
  endfacet
  facet normal 0.707107 -0.707107 0
    outer loop
      vertex 67.8083 0.60025 1.4
      vertex 67.8083 0.60025 0
      vertex 68.097 0.889 0
    endloop
  endfacet
  facet normal 0.707107 -0.707107 0
    outer loop
      vertex 68.097 0.889 1.4
      vertex 67.8083 0.60025 1.4
      vertex 68.097 0.889 0
    endloop
  endfacet
  facet normal 1 0 0
    outer loop
      vertex 68.097 0.889 1.4
      vertex 68.097 0.889 0
      vertex 68.097 4.496 0
    endloop
  endfacet
  facet normal 1 0 0
    outer loop
      vertex 68.097 4.496 1.4
      vertex 68.097 0.889 1.4
      vertex 68.097 4.496 0
    endloop
  endfacet
  facet normal 0.896901 0.442232 0
    outer loop
      vertex 68.097 4.496 0
      vertex 67.339 6.03332 0
      vertex 67.339 6.03332 1.4
    endloop
  endfacet
  facet normal 0.896901 0.442232 0
    outer loop
      vertex 68.097 4.496 1.4
      vertex 68.097 4.496 0
      vertex 67.339 6.03332 1.4
    endloop
  endfacet
  facet normal 1 0 0
    outer loop
      vertex 67.339 5.794 2.6
      vertex 67.339 5.794 1.4
      vertex 67.339 6.03332 1.4
    endloop
  endfacet
  facet normal 1 0 0
    outer loop
      vertex 67.339 6.201 2.6
      vertex 67.339 5.794 2.6
      vertex 67.339 6.03332 1.4
    endloop
  endfacet
  facet normal 1 0 0
    outer loop
      vertex 67.339 6.03332 0
      vertex 67.339 6.201 0
      vertex 67.339 6.03332 1.4
    endloop
  endfacet
  facet normal 1 0 0
    outer loop
      vertex 67.339 6.201 0
      vertex 67.339 6.201 2.6
      vertex 67.339 6.03332 1.4
    endloop
  endfacet
  facet normal 0 1 0
    outer loop
      vertex 50.702 6.201 0
      vertex 50.702 6.201 2.6
      vertex 50.905 6.201 0
    endloop
  endfacet
  facet normal 0 1 0
    outer loop
      vertex 50.905 6.201 1.4
      vertex 50.702 6.201 2.6
      vertex 67.339 6.201 2.6
    endloop
  endfacet
  facet normal 0 1 0
    outer loop
      vertex 67.2563 6.201 0
      vertex 67.339 6.201 2.6
      vertex 67.339 6.201 0
    endloop
  endfacet
  facet normal 0 1 0
    outer loop
      vertex 67.2563 6.201 1.4
      vertex 67.339 6.201 2.6
      vertex 67.2563 6.201 0
    endloop
  endfacet
  facet normal 0 1 0
    outer loop
      vertex 50.905 6.201 0
      vertex 50.702 6.201 2.6
      vertex 50.905 6.201 1.4
    endloop
  endfacet
  facet normal 0 1 0
    outer loop
      vertex 50.905 6.201 1.4
      vertex 67.339 6.201 2.6
      vertex 67.2563 6.201 1.4
    endloop
  endfacet
  facet normal 0.896901 0.442232 0
    outer loop
      vertex 67.2563 6.201 0
      vertex 67.208 6.299 0
      vertex 67.208 6.299 1.4
    endloop
  endfacet
  facet normal 0.896901 0.442232 0
    outer loop
      vertex 67.2563 6.201 1.4
      vertex 67.2563 6.201 0
      vertex 67.208 6.299 1.4
    endloop
  endfacet
  facet normal 0 1 0
    outer loop
      vertex 51.003 6.299 0
      vertex 51.003 6.299 1.4
      vertex 67.208 6.299 0
    endloop
  endfacet
  facet normal 0 1 0
    outer loop
      vertex 67.208 6.299 0
      vertex 51.003 6.299 1.4
      vertex 67.208 6.299 1.4
    endloop
  endfacet
  facet normal -0.707107 0.707107 0
    outer loop
      vertex 50.905 6.201 0
      vertex 50.905 6.201 1.4
      vertex 51.003 6.299 0
    endloop
  endfacet
  facet normal -0.707107 0.707107 0
    outer loop
      vertex 51.003 6.299 0
      vertex 50.905 6.201 1.4
      vertex 51.003 6.299 1.4
    endloop
  endfacet
  facet normal -1 0 0
    outer loop
      vertex 50.702 5.794 1.4
      vertex 50.702 5.794 2.6
      vertex 50.702 5.998 1.4
    endloop
  endfacet
  facet normal -1 0 0
    outer loop
      vertex 50.702 5.998 1.4
      vertex 50.702 5.794 2.6
      vertex 50.702 6.201 2.6
    endloop
  endfacet
  facet normal -1 0 0
    outer loop
      vertex 50.702 5.998 1.4
      vertex 50.702 6.201 2.6
      vertex 50.702 6.201 0
    endloop
  endfacet
  facet normal -1 0 0
    outer loop
      vertex 50.702 5.998 1.4
      vertex 50.702 6.201 0
      vertex 50.702 5.998 0
    endloop
  endfacet
  facet normal -0.707107 0.707107 0
    outer loop
      vertex 50.394 5.69 0
      vertex 50.394 5.69 1.4
      vertex 50.702 5.998 0
    endloop
  endfacet
  facet normal -0.707107 0.707107 0
    outer loop
      vertex 50.702 5.998 0
      vertex 50.394 5.69 1.4
      vertex 50.702 5.998 1.4
    endloop
  endfacet
  facet normal 0 -1 0
    outer loop
      vertex 50.702 5.794 2.6
      vertex 50.702 5.794 1.4
      vertex 67.339 5.794 1.4
    endloop
  endfacet
  facet normal 0 -1 0
    outer loop
      vertex 67.339 5.794 2.6
      vertex 50.702 5.794 2.6
      vertex 67.339 5.794 1.4
    endloop
  endfacet
  facet normal -0.690753 0.723091 0
    outer loop
      vertex 67.11 0.206 1.4
      vertex 67.11 0.206 2.6
      vertex 67.669 0.74 1.4
    endloop
  endfacet
  facet normal -0.690753 0.723091 0
    outer loop
      vertex 67.669 0.74 1.4
      vertex 67.11 0.206 2.6
      vertex 67.669 0.74 2.6
    endloop
  endfacet
  facet normal 0 1 0
    outer loop
      vertex 51.692 0.206 1.4
      vertex 51.692 0.206 2.6
      vertex 67.11 0.206 1.4
    endloop
  endfacet
  facet normal 0 1 0
    outer loop
      vertex 67.11 0.206 1.4
      vertex 51.692 0.206 2.6
      vertex 67.11 0.206 2.6
    endloop
  endfacet
  facet normal 0.690753 0.723091 0
    outer loop
      vertex 51.133 0.74 1.4
      vertex 51.133 0.74 2.6
      vertex 51.692 0.206 1.4
    endloop
  endfacet
  facet normal 0.690753 0.723091 0
    outer loop
      vertex 51.692 0.206 1.4
      vertex 51.133 0.74 2.6
      vertex 51.692 0.206 2.6
    endloop
  endfacet
  facet normal 0 0 1
    outer loop
      vertex 51.133 0.74 2.6
      vertex 50.854 0.46 2.6
      vertex 51.464 -0.149 2.6
    endloop
  endfacet
  facet normal 0 0 1
    outer loop
      vertex 51.692 0.206 2.6
      vertex 51.133 0.74 2.6
      vertex 51.591 -0.2 2.6
    endloop
  endfacet
  facet normal 0 0 1
    outer loop
      vertex 51.591 -0.2 2.6
      vertex 51.133 0.74 2.6
      vertex 51.464 -0.149 2.6
    endloop
  endfacet
  facet normal 0 0 1
    outer loop
      vertex 67.11 0.206 2.6
      vertex 67.212 -0.2 2.6
      vertex 67.339 -0.149 2.6
    endloop
  endfacet
  facet normal 0 0 1
    outer loop
      vertex 67.948 0.46 2.6
      vertex 67.11 0.206 2.6
      vertex 67.339 -0.149 2.6
    endloop
  endfacet
  facet normal 0 0 1
    outer loop
      vertex 67.212 -0.2 2.6
      vertex 51.692 0.206 2.6
      vertex 51.591 -0.2 2.6
    endloop
  endfacet
  facet normal 0 0 1
    outer loop
      vertex 67.669 0.74 2.6
      vertex 67.11 0.206 2.6
      vertex 67.948 0.46 2.6
    endloop
  endfacet
  facet normal 0 0 1
    outer loop
      vertex 67.11 0.206 2.6
      vertex 51.692 0.206 2.6
      vertex 67.212 -0.2 2.6
    endloop
  endfacet
  facet normal 0 0 1
    outer loop
      vertex 50.702 6.201 2.6
      vertex 50.702 5.794 2.6
      vertex 67.339 5.794 2.6
    endloop
  endfacet
  facet normal 0 0 1
    outer loop
      vertex 67.339 6.201 2.6
      vertex 50.702 6.201 2.6
      vertex 67.339 5.794 2.6
    endloop
  endfacet
  facet normal 0 0 1
    outer loop
      vertex 51.003 6.299 1.4
      vertex 50.905 6.201 1.4
      vertex 67.2563 6.201 1.4
    endloop
  endfacet
  facet normal 0 0 1
    outer loop
      vertex 67.208 6.299 1.4
      vertex 51.003 6.299 1.4
      vertex 67.2563 6.201 1.4
    endloop
  endfacet
  facet normal -0.697235 -0.716842 0
    outer loop
      vertex 80.391 0.889 1.4
      vertex 80.391 0.889 0
      vertex 80.6934 0.594856 0
    endloop
  endfacet
  facet normal -0.697235 -0.716842 0
    outer loop
      vertex 80.6934 0.594856 1.4
      vertex 80.391 0.889 1.4
      vertex 80.6934 0.594856 0
    endloop
  endfacet
  facet normal 0 0 -1
    outer loop
      vertex 80.391 0.889 0
      vertex 80.391 5.41 0
      vertex 80.6934 0.594856 0
    endloop
  endfacet
  facet normal 0 0 -1
    outer loop
      vertex 80.6934 0.594856 0
      vertex 80.391 5.41 0
      vertex 81.004 6.00623 0
    endloop
  endfacet
  facet normal 0 0 -1
    outer loop
      vertex 81.004 6.00623 0
      vertex 81.004 6.201 0
      vertex 81.2042 6.201 0
    endloop
  endfacet
  facet normal 0 0 -1
    outer loop
      vertex 81.004 6.00623 0
      vertex 81.2042 6.201 0
      vertex 80.6934 0.594856 0
    endloop
  endfacet
  facet normal 0 0 -1
    outer loop
      vertex 81.2042 6.201 0
      vertex 81.305 6.299 0
      vertex 80.6934 0.594856 0
    endloop
  endfacet
  facet normal 0 0 -1
    outer loop
      vertex 80.6934 0.594856 0
      vertex 81.305 6.299 0
      vertex 110.693 6.299 0
    endloop
  endfacet
  facet normal 0 0 -1
    outer loop
      vertex 80.6934 0.594856 0
      vertex 110.693 6.299 0
      vertex 110.791 6.201 0
    endloop
  endfacet
  facet normal 0 0 -1
    outer loop
      vertex 80.6934 0.594856 0
      vertex 110.791 6.201 0
      vertex 111.001 6.201 0
    endloop
  endfacet
  facet normal 0 0 -1
    outer loop
      vertex 80.6934 0.594856 0
      vertex 111.001 6.201 0
      vertex 111.001 5.9915 0
    endloop
  endfacet
  facet normal 0 0 -1
    outer loop
      vertex 80.6934 0.594856 0
      vertex 111.001 5.9915 0
      vertex 111.303 5.69 0
    endloop
  endfacet
  facet normal 0 0 -1
    outer loop
      vertex 80.6934 0.594856 0
      vertex 111.303 5.69 0
      vertex 111.303 0.61 0
    endloop
  endfacet
  facet normal 0 0 -1
    outer loop
      vertex 80.6934 0.594856 0
      vertex 111.303 0.61 0
      vertex 110.696 0.003 0
    endloop
  endfacet
  facet normal 0 0 -1
    outer loop
      vertex 80.6934 0.594856 0
      vertex 110.696 0.003 0
      vertex 110.696 -0.2 0
    endloop
  endfacet
  facet normal 0 0 -1
    outer loop
      vertex 80.6934 0.594856 0
      vertex 110.696 -0.2 0
      vertex 81.309 -0.2 0
    endloop
  endfacet
  facet normal 0 0 -1
    outer loop
      vertex 80.6934 0.594856 0
      vertex 81.309 -0.2 0
      vertex 81.156 -0.149 0
    endloop
  endfacet
  facet normal 0 0 -1
    outer loop
      vertex 80.6934 0.594856 0
      vertex 81.156 -0.149 0
      vertex 80.547 0.46 0
    endloop
  endfacet
  facet normal -1 0 0
    outer loop
      vertex 80.391 0.889 0
      vertex 80.391 0.889 1.4
      vertex 80.391 5.41 0
    endloop
  endfacet
  facet normal -1 0 0
    outer loop
      vertex 80.391 5.41 0
      vertex 80.391 0.889 1.4
      vertex 80.391 5.41 1.4
    endloop
  endfacet
  facet normal 0 0 1
    outer loop
      vertex 80.391 5.41 1.4
      vertex 80.391 0.889 1.4
      vertex 80.6934 0.594856 1.4
    endloop
  endfacet
  facet normal 0 0 1
    outer loop
      vertex 81.385 0.206 1.4
      vertex 80.391 5.41 1.4
      vertex 80.851 0.74 1.4
    endloop
  endfacet
  facet normal 0 0 1
    outer loop
      vertex 80.851 0.74 1.4
      vertex 80.391 5.41 1.4
      vertex 80.6934 0.594856 1.4
    endloop
  endfacet
  facet normal 0 0 1
    outer loop
      vertex 110.696 0.206 1.4
      vertex 80.391 5.41 1.4
      vertex 81.385 0.206 1.4
    endloop
  endfacet
  facet normal 0 0 1
    outer loop
      vertex 111.303 0.61 1.4
      vertex 80.391 5.41 1.4
      vertex 110.696 0.206 1.4
    endloop
  endfacet
  facet normal 0 0 1
    outer loop
      vertex 111.303 0.61 1.4
      vertex 110.696 0.206 1.4
      vertex 110.696 0.003 1.4
    endloop
  endfacet
  facet normal 0 0 1
    outer loop
      vertex 111.303 5.69 1.4
      vertex 80.391 5.41 1.4
      vertex 111.303 0.61 1.4
    endloop
  endfacet
  facet normal 0 0 1
    outer loop
      vertex 111.001 5.794 1.4
      vertex 80.391 5.41 1.4
      vertex 111.303 5.69 1.4
    endloop
  endfacet
  facet normal 0 0 1
    outer loop
      vertex 111.001 5.9915 1.4
      vertex 111.001 5.794 1.4
      vertex 111.303 5.69 1.4
    endloop
  endfacet
  facet normal 0 0 1
    outer loop
      vertex 81.004 6.00623 1.4
      vertex 80.391 5.41 1.4
      vertex 81.004 5.794 1.4
    endloop
  endfacet
  facet normal 0 0 1
    outer loop
      vertex 111.001 5.794 1.4
      vertex 81.004 5.794 1.4
      vertex 80.391 5.41 1.4
    endloop
  endfacet
  facet normal -0.677476 0.735545 0
    outer loop
      vertex 80.547 0.46 0
      vertex 80.547 0.46 2.6
      vertex 80.6934 0.594856 0
    endloop
  endfacet
  facet normal -0.677476 0.735545 0
    outer loop
      vertex 80.6934 0.594856 1.4
      vertex 80.547 0.46 2.6
      vertex 80.851 0.74 2.6
    endloop
  endfacet
  facet normal -0.677476 0.735545 0
    outer loop
      vertex 80.6934 0.594856 0
      vertex 80.547 0.46 2.6
      vertex 80.6934 0.594856 1.4
    endloop
  endfacet
  facet normal -0.677476 0.735545 0
    outer loop
      vertex 80.6934 0.594856 1.4
      vertex 80.851 0.74 2.6
      vertex 80.851 0.74 1.4
    endloop
  endfacet
  facet normal -0.707107 -0.707107 0
    outer loop
      vertex 80.547 0.46 0
      vertex 81.156 -0.149 0
      vertex 80.547 0.46 2.6
    endloop
  endfacet
  facet normal -0.707107 -0.707107 0
    outer loop
      vertex 80.547 0.46 2.6
      vertex 81.156 -0.149 0
      vertex 81.156 -0.149 2.6
    endloop
  endfacet
  facet normal -0.316228 -0.948683 0
    outer loop
      vertex 81.156 -0.149 2.6
      vertex 81.156 -0.149 0
      vertex 81.309 -0.2 0
    endloop
  endfacet
  facet normal -0.316228 -0.948683 0
    outer loop
      vertex 81.309 -0.2 2.6
      vertex 81.156 -0.149 2.6
      vertex 81.309 -0.2 0
    endloop
  endfacet
  facet normal 0 -1 0
    outer loop
      vertex 81.309 -0.2 2.6
      vertex 81.309 -0.2 0
      vertex 110.696 -0.2 0
    endloop
  endfacet
  facet normal 0 -1 0
    outer loop
      vertex 110.696 -0.2 2.6
      vertex 81.309 -0.2 2.6
      vertex 110.696 -0.2 0
    endloop
  endfacet
  facet normal 1 0 0
    outer loop
      vertex 110.696 -0.2 2.6
      vertex 110.696 -0.2 0
      vertex 110.696 0.003 0
    endloop
  endfacet
  facet normal 1 0 0
    outer loop
      vertex 110.696 0.206 1.4
      vertex 110.696 -0.2 2.6
      vertex 110.696 0.003 1.4
    endloop
  endfacet
  facet normal 1 0 0
    outer loop
      vertex 110.696 0.003 1.4
      vertex 110.696 -0.2 2.6
      vertex 110.696 0.003 0
    endloop
  endfacet
  facet normal 1 0 0
    outer loop
      vertex 110.696 0.206 2.6
      vertex 110.696 -0.2 2.6
      vertex 110.696 0.206 1.4
    endloop
  endfacet
  facet normal 0.707107 -0.707107 0
    outer loop
      vertex 110.696 0.003 1.4
      vertex 110.696 0.003 0
      vertex 111.303 0.61 0
    endloop
  endfacet
  facet normal 0.707107 -0.707107 0
    outer loop
      vertex 111.303 0.61 1.4
      vertex 110.696 0.003 1.4
      vertex 111.303 0.61 0
    endloop
  endfacet
  facet normal 1 0 0
    outer loop
      vertex 111.303 0.61 1.4
      vertex 111.303 0.61 0
      vertex 111.303 5.69 0
    endloop
  endfacet
  facet normal 1 0 0
    outer loop
      vertex 111.303 5.69 1.4
      vertex 111.303 0.61 1.4
      vertex 111.303 5.69 0
    endloop
  endfacet
  facet normal 0.706526 0.707687 0
    outer loop
      vertex 111.001 5.9915 0
      vertex 111.001 5.9915 1.4
      vertex 111.303 5.69 0
    endloop
  endfacet
  facet normal 0.706526 0.707687 0
    outer loop
      vertex 111.303 5.69 0
      vertex 111.001 5.9915 1.4
      vertex 111.303 5.69 1.4
    endloop
  endfacet
  facet normal 1 0 0
    outer loop
      vertex 111.001 5.794 2.6
      vertex 111.001 5.794 1.4
      vertex 111.001 5.9915 1.4
    endloop
  endfacet
  facet normal 1 0 0
    outer loop
      vertex 111.001 6.201 2.6
      vertex 111.001 5.794 2.6
      vertex 111.001 5.9915 1.4
    endloop
  endfacet
  facet normal 1 0 0
    outer loop
      vertex 111.001 5.9915 0
      vertex 111.001 6.201 0
      vertex 111.001 5.9915 1.4
    endloop
  endfacet
  facet normal 1 0 0
    outer loop
      vertex 111.001 6.201 0
      vertex 111.001 6.201 2.6
      vertex 111.001 5.9915 1.4
    endloop
  endfacet
  facet normal 0 1 0
    outer loop
      vertex 81.004 6.201 0
      vertex 81.004 6.201 2.6
      vertex 81.2042 6.201 0
    endloop
  endfacet
  facet normal 0 1 0
    outer loop
      vertex 81.2042 6.201 1.4
      vertex 81.004 6.201 2.6
      vertex 111.001 6.201 2.6
    endloop
  endfacet
  facet normal 0 1 0
    outer loop
      vertex 110.791 6.201 0
      vertex 111.001 6.201 2.6
      vertex 111.001 6.201 0
    endloop
  endfacet
  facet normal 0 1 0
    outer loop
      vertex 110.791 6.201 1.4
      vertex 111.001 6.201 2.6
      vertex 110.791 6.201 0
    endloop
  endfacet
  facet normal 0 1 0
    outer loop
      vertex 81.2042 6.201 0
      vertex 81.004 6.201 2.6
      vertex 81.2042 6.201 1.4
    endloop
  endfacet
  facet normal 0 1 0
    outer loop
      vertex 81.2042 6.201 1.4
      vertex 111.001 6.201 2.6
      vertex 110.791 6.201 1.4
    endloop
  endfacet
  facet normal 0.706526 0.707687 0
    outer loop
      vertex 110.693 6.299 0
      vertex 110.693 6.299 1.4
      vertex 110.791 6.201 0
    endloop
  endfacet
  facet normal 0.706526 0.707687 0
    outer loop
      vertex 110.791 6.201 0
      vertex 110.693 6.299 1.4
      vertex 110.791 6.201 1.4
    endloop
  endfacet
  facet normal 0 1 0
    outer loop
      vertex 81.305 6.299 0
      vertex 81.305 6.299 1.4
      vertex 110.693 6.299 0
    endloop
  endfacet
  facet normal 0 1 0
    outer loop
      vertex 110.693 6.299 0
      vertex 81.305 6.299 1.4
      vertex 110.693 6.299 1.4
    endloop
  endfacet
  facet normal -0.697235 0.716842 0
    outer loop
      vertex 81.2042 6.201 0
      vertex 81.2042 6.201 1.4
      vertex 81.305 6.299 0
    endloop
  endfacet
  facet normal -0.697235 0.716842 0
    outer loop
      vertex 81.305 6.299 0
      vertex 81.2042 6.201 1.4
      vertex 81.305 6.299 1.4
    endloop
  endfacet
  facet normal -1 0 0
    outer loop
      vertex 81.004 5.794 1.4
      vertex 81.004 5.794 2.6
      vertex 81.004 6.00623 1.4
    endloop
  endfacet
  facet normal -1 0 0
    outer loop
      vertex 81.004 6.00623 1.4
      vertex 81.004 5.794 2.6
      vertex 81.004 6.201 2.6
    endloop
  endfacet
  facet normal -1 0 0
    outer loop
      vertex 81.004 6.00623 1.4
      vertex 81.004 6.201 2.6
      vertex 81.004 6.201 0
    endloop
  endfacet
  facet normal -1 0 0
    outer loop
      vertex 81.004 6.00623 1.4
      vertex 81.004 6.201 0
      vertex 81.004 6.00623 0
    endloop
  endfacet
  facet normal -0.697235 0.716842 0
    outer loop
      vertex 80.391 5.41 0
      vertex 80.391 5.41 1.4
      vertex 81.004 6.00623 0
    endloop
  endfacet
  facet normal -0.697235 0.716842 0
    outer loop
      vertex 81.004 6.00623 0
      vertex 80.391 5.41 1.4
      vertex 81.004 6.00623 1.4
    endloop
  endfacet
  facet normal 0 -1 0
    outer loop
      vertex 81.004 5.794 2.6
      vertex 81.004 5.794 1.4
      vertex 111.001 5.794 1.4
    endloop
  endfacet
  facet normal 0 -1 0
    outer loop
      vertex 111.001 5.794 2.6
      vertex 81.004 5.794 2.6
      vertex 111.001 5.794 1.4
    endloop
  endfacet
  facet normal 0 1 0
    outer loop
      vertex 81.385 0.206 1.4
      vertex 81.385 0.206 2.6
      vertex 110.696 0.206 1.4
    endloop
  endfacet
  facet normal 0 1 0
    outer loop
      vertex 110.696 0.206 1.4
      vertex 81.385 0.206 2.6
      vertex 110.696 0.206 2.6
    endloop
  endfacet
  facet normal 0.707107 0.707107 0
    outer loop
      vertex 81.385 0.206 1.4
      vertex 80.851 0.74 1.4
      vertex 80.851 0.74 2.6
    endloop
  endfacet
  facet normal 0.707107 0.707107 0
    outer loop
      vertex 81.385 0.206 2.6
      vertex 81.385 0.206 1.4
      vertex 80.851 0.74 2.6
    endloop
  endfacet
  facet normal 0 0 1
    outer loop
      vertex 80.851 0.74 2.6
      vertex 80.547 0.46 2.6
      vertex 81.156 -0.149 2.6
    endloop
  endfacet
  facet normal 0 0 1
    outer loop
      vertex 81.385 0.206 2.6
      vertex 80.851 0.74 2.6
      vertex 81.309 -0.2 2.6
    endloop
  endfacet
  facet normal 0 0 1
    outer loop
      vertex 81.309 -0.2 2.6
      vertex 80.851 0.74 2.6
      vertex 81.156 -0.149 2.6
    endloop
  endfacet
  facet normal 0 0 1
    outer loop
      vertex 110.696 -0.2 2.6
      vertex 81.385 0.206 2.6
      vertex 81.309 -0.2 2.6
    endloop
  endfacet
  facet normal 0 0 1
    outer loop
      vertex 110.696 0.206 2.6
      vertex 81.385 0.206 2.6
      vertex 110.696 -0.2 2.6
    endloop
  endfacet
  facet normal 0 0 1
    outer loop
      vertex 81.004 6.201 2.6
      vertex 81.004 5.794 2.6
      vertex 111.001 5.794 2.6
    endloop
  endfacet
  facet normal 0 0 1
    outer loop
      vertex 111.001 6.201 2.6
      vertex 81.004 6.201 2.6
      vertex 111.001 5.794 2.6
    endloop
  endfacet
  facet normal 0 0 1
    outer loop
      vertex 81.305 6.299 1.4
      vertex 81.2042 6.201 1.4
      vertex 110.791 6.201 1.4
    endloop
  endfacet
  facet normal 0 0 1
    outer loop
      vertex 110.693 6.299 1.4
      vertex 81.305 6.299 1.4
      vertex 110.791 6.201 1.4
    endloop
  endfacet
  facet normal -0.707107 -0.707107 0
    outer loop
      vertex 123.596 0.61 0
      vertex 124.206 0 0
      vertex 123.596 0.61 1.4
    endloop
  endfacet
  facet normal -0.707107 -0.707107 0
    outer loop
      vertex 123.596 0.61 1.4
      vertex 124.206 0 0
      vertex 124.206 0 1.4
    endloop
  endfacet
  facet normal 0 0 -1
    outer loop
      vertex 123.596 0.61 0
      vertex 123.596 3.912 0
      vertex 124.206 0 0
    endloop
  endfacet
  facet normal 0 0 -1
    outer loop
      vertex 124.206 0 0
      vertex 123.596 3.912 0
      vertex 124.489 5.94394 0
    endloop
  endfacet
  facet normal 0 0 -1
    outer loop
      vertex 124.489 5.94394 0
      vertex 124.489 6.201 0
      vertex 124.907 6.201 0
    endloop
  endfacet
  facet normal 0 0 -1
    outer loop
      vertex 124.489 5.94394 0
      vertex 124.907 6.201 0
      vertex 124.206 0 0
    endloop
  endfacet
  facet normal 0 0 -1
    outer loop
      vertex 124.206 0 0
      vertex 124.907 6.201 0
      vertex 125.095 6.299 0
    endloop
  endfacet
  facet normal 0 0 -1
    outer loop
      vertex 124.206 0 0
      vertex 125.095 6.299 0
      vertex 143.104 6.299 0
    endloop
  endfacet
  facet normal 0 0 -1
    outer loop
      vertex 124.206 0 0
      vertex 143.104 6.299 0
      vertex 143.202 6.201 0
    endloop
  endfacet
  facet normal 0 0 -1
    outer loop
      vertex 124.206 0 0
      vertex 143.202 6.201 0
      vertex 143.412 6.201 0
    endloop
  endfacet
  facet normal 0 0 -1
    outer loop
      vertex 124.206 0 0
      vertex 143.412 6.201 0
      vertex 143.412 5.991 0
    endloop
  endfacet
  facet normal 0 0 -1
    outer loop
      vertex 124.206 0 0
      vertex 143.412 5.991 0
      vertex 143.713 5.69 0
    endloop
  endfacet
  facet normal 0 0 -1
    outer loop
      vertex 124.206 0 0
      vertex 143.713 5.69 0
      vertex 143.713 0.61 0
    endloop
  endfacet
  facet normal 0 0 -1
    outer loop
      vertex 124.206 0 0
      vertex 143.713 0.61 0
      vertex 143.107 0.00300493 0
    endloop
  endfacet
  facet normal 0 0 -1
    outer loop
      vertex 124.793 0 0
      vertex 143.107 0.00300493 0
      vertex 143.107 -0.2 0
    endloop
  endfacet
  facet normal 0 0 -1
    outer loop
      vertex 124.206 0 0
      vertex 143.107 0.00300493 0
      vertex 124.793 0 0
    endloop
  endfacet
  facet normal 0 0 -1
    outer loop
      vertex 124.793 0 0
      vertex 143.107 -0.2 0
      vertex 124.793 -0.2 0
    endloop
  endfacet
  facet normal -1 0 0
    outer loop
      vertex 123.596 0.61 0
      vertex 123.596 0.61 1.4
      vertex 123.596 3.912 0
    endloop
  endfacet
  facet normal -1 0 0
    outer loop
      vertex 123.596 3.912 0
      vertex 123.596 0.61 1.4
      vertex 123.596 3.912 1.4
    endloop
  endfacet
  facet normal 0 0 1
    outer loop
      vertex 123.596 3.912 1.4
      vertex 123.596 0.61 1.4
      vertex 124.206 0 1.4
    endloop
  endfacet
  facet normal 0 0 1
    outer loop
      vertex 124.793 0.206 1.4
      vertex 123.596 3.912 1.4
      vertex 124.793 0 1.4
    endloop
  endfacet
  facet normal 0 0 1
    outer loop
      vertex 124.793 0 1.4
      vertex 123.596 3.912 1.4
      vertex 124.206 0 1.4
    endloop
  endfacet
  facet normal 0 0 1
    outer loop
      vertex 143.107 0.206 1.4
      vertex 123.596 3.912 1.4
      vertex 124.793 0.206 1.4
    endloop
  endfacet
  facet normal 0 0 1
    outer loop
      vertex 143.713 0.61 1.4
      vertex 123.596 3.912 1.4
      vertex 143.107 0.206 1.4
    endloop
  endfacet
  facet normal 0 0 1
    outer loop
      vertex 143.713 0.61 1.4
      vertex 143.107 0.206 1.4
      vertex 143.107 0.00300493 1.4
    endloop
  endfacet
  facet normal 0 0 1
    outer loop
      vertex 143.713 5.69 1.4
      vertex 123.596 3.912 1.4
      vertex 143.713 0.61 1.4
    endloop
  endfacet
  facet normal 0 0 1
    outer loop
      vertex 143.412 5.794 1.4
      vertex 123.596 3.912 1.4
      vertex 143.713 5.69 1.4
    endloop
  endfacet
  facet normal 0 0 1
    outer loop
      vertex 143.412 5.991 1.4
      vertex 143.412 5.794 1.4
      vertex 143.713 5.69 1.4
    endloop
  endfacet
  facet normal 0 0 1
    outer loop
      vertex 124.489 5.94394 1.4
      vertex 123.596 3.912 1.4
      vertex 124.489 5.794 1.4
    endloop
  endfacet
  facet normal 0 0 1
    outer loop
      vertex 143.412 5.794 1.4
      vertex 124.489 5.794 1.4
      vertex 123.596 3.912 1.4
    endloop
  endfacet
  facet normal 0 -1 0
    outer loop
      vertex 124.206 0 1.4
      vertex 124.206 0 0
      vertex 124.793 0 0
    endloop
  endfacet
  facet normal 0 -1 0
    outer loop
      vertex 124.793 0 1.4
      vertex 124.206 0 1.4
      vertex 124.793 0 0
    endloop
  endfacet
  facet normal -1 0 0
    outer loop
      vertex 124.793 -0.2 0
      vertex 124.793 -0.2 2.6
      vertex 124.793 0 0
    endloop
  endfacet
  facet normal -1 0 0
    outer loop
      vertex 124.793 0 1.4
      vertex 124.793 -0.2 2.6
      vertex 124.793 0.206 2.6
    endloop
  endfacet
  facet normal -1 0 0
    outer loop
      vertex 124.793 0 0
      vertex 124.793 -0.2 2.6
      vertex 124.793 0 1.4
    endloop
  endfacet
  facet normal -1 0 0
    outer loop
      vertex 124.793 0 1.4
      vertex 124.793 0.206 2.6
      vertex 124.793 0.206 1.4
    endloop
  endfacet
  facet normal 0 -1 0
    outer loop
      vertex 124.793 -0.2 2.6
      vertex 124.793 -0.2 0
      vertex 143.107 -0.2 0
    endloop
  endfacet
  facet normal 0 -1 0
    outer loop
      vertex 143.107 -0.2 2.6
      vertex 124.793 -0.2 2.6
      vertex 143.107 -0.2 0
    endloop
  endfacet
  facet normal 1 0 0
    outer loop
      vertex 143.107 -0.2 2.6
      vertex 143.107 -0.2 0
      vertex 143.107 0.00300493 0
    endloop
  endfacet
  facet normal 1 0 0
    outer loop
      vertex 143.107 0.206 1.4
      vertex 143.107 -0.2 2.6
      vertex 143.107 0.00300493 1.4
    endloop
  endfacet
  facet normal 1 0 0
    outer loop
      vertex 143.107 0.00300493 1.4
      vertex 143.107 -0.2 2.6
      vertex 143.107 0.00300493 0
    endloop
  endfacet
  facet normal 1 0 0
    outer loop
      vertex 143.107 0.206 2.6
      vertex 143.107 -0.2 2.6
      vertex 143.107 0.206 1.4
    endloop
  endfacet
  facet normal 0.707687 -0.706526 0
    outer loop
      vertex 143.107 0.00300493 1.4
      vertex 143.107 0.00300493 0
      vertex 143.713 0.61 0
    endloop
  endfacet
  facet normal 0.707687 -0.706526 0
    outer loop
      vertex 143.713 0.61 1.4
      vertex 143.107 0.00300493 1.4
      vertex 143.713 0.61 0
    endloop
  endfacet
  facet normal 1 0 0
    outer loop
      vertex 143.713 0.61 1.4
      vertex 143.713 0.61 0
      vertex 143.713 5.69 0
    endloop
  endfacet
  facet normal 1 0 0
    outer loop
      vertex 143.713 5.69 1.4
      vertex 143.713 0.61 1.4
      vertex 143.713 5.69 0
    endloop
  endfacet
  facet normal 0.707107 0.707107 0
    outer loop
      vertex 143.412 5.991 0
      vertex 143.412 5.991 1.4
      vertex 143.713 5.69 0
    endloop
  endfacet
  facet normal 0.707107 0.707107 0
    outer loop
      vertex 143.713 5.69 0
      vertex 143.412 5.991 1.4
      vertex 143.713 5.69 1.4
    endloop
  endfacet
  facet normal 1 0 0
    outer loop
      vertex 143.412 5.794 2.6
      vertex 143.412 5.794 1.4
      vertex 143.412 5.991 1.4
    endloop
  endfacet
  facet normal 1 0 0
    outer loop
      vertex 143.412 6.201 2.6
      vertex 143.412 5.794 2.6
      vertex 143.412 5.991 1.4
    endloop
  endfacet
  facet normal 1 0 0
    outer loop
      vertex 143.412 5.991 0
      vertex 143.412 6.201 0
      vertex 143.412 5.991 1.4
    endloop
  endfacet
  facet normal 1 0 0
    outer loop
      vertex 143.412 6.201 0
      vertex 143.412 6.201 2.6
      vertex 143.412 5.991 1.4
    endloop
  endfacet
  facet normal 0 1 0
    outer loop
      vertex 124.489 6.201 0
      vertex 124.489 6.201 2.6
      vertex 124.907 6.201 0
    endloop
  endfacet
  facet normal 0 1 0
    outer loop
      vertex 124.907 6.201 1.4
      vertex 124.489 6.201 2.6
      vertex 143.412 6.201 2.6
    endloop
  endfacet
  facet normal 0 1 0
    outer loop
      vertex 143.202 6.201 0
      vertex 143.412 6.201 2.6
      vertex 143.412 6.201 0
    endloop
  endfacet
  facet normal 0 1 0
    outer loop
      vertex 143.202 6.201 1.4
      vertex 143.412 6.201 2.6
      vertex 143.202 6.201 0
    endloop
  endfacet
  facet normal 0 1 0
    outer loop
      vertex 124.907 6.201 0
      vertex 124.489 6.201 2.6
      vertex 124.907 6.201 1.4
    endloop
  endfacet
  facet normal 0 1 0
    outer loop
      vertex 124.907 6.201 1.4
      vertex 143.412 6.201 2.6
      vertex 143.202 6.201 1.4
    endloop
  endfacet
  facet normal 0.707107 0.707107 0
    outer loop
      vertex 143.104 6.299 0
      vertex 143.104 6.299 1.4
      vertex 143.202 6.201 0
    endloop
  endfacet
  facet normal 0.707107 0.707107 0
    outer loop
      vertex 143.202 6.201 0
      vertex 143.104 6.299 1.4
      vertex 143.202 6.201 1.4
    endloop
  endfacet
  facet normal 0 1 0
    outer loop
      vertex 125.095 6.299 0
      vertex 125.095 6.299 1.4
      vertex 143.104 6.299 0
    endloop
  endfacet
  facet normal 0 1 0
    outer loop
      vertex 143.104 6.299 0
      vertex 125.095 6.299 1.4
      vertex 143.104 6.299 1.4
    endloop
  endfacet
  facet normal -0.462929 0.886395 0
    outer loop
      vertex 124.907 6.201 0
      vertex 124.907 6.201 1.4
      vertex 125.095 6.299 0
    endloop
  endfacet
  facet normal -0.462929 0.886395 0
    outer loop
      vertex 125.095 6.299 0
      vertex 124.907 6.201 1.4
      vertex 125.095 6.299 1.4
    endloop
  endfacet
  facet normal -1 0 0
    outer loop
      vertex 124.489 5.794 1.4
      vertex 124.489 5.794 2.6
      vertex 124.489 5.94394 1.4
    endloop
  endfacet
  facet normal -1 0 0
    outer loop
      vertex 124.489 5.94394 1.4
      vertex 124.489 5.794 2.6
      vertex 124.489 6.201 2.6
    endloop
  endfacet
  facet normal -1 0 0
    outer loop
      vertex 124.489 5.94394 1.4
      vertex 124.489 6.201 2.6
      vertex 124.489 6.201 0
    endloop
  endfacet
  facet normal -1 0 0
    outer loop
      vertex 124.489 5.94394 1.4
      vertex 124.489 6.201 0
      vertex 124.489 5.94394 0
    endloop
  endfacet
  facet normal -0.91549 0.402341 0
    outer loop
      vertex 123.596 3.912 0
      vertex 123.596 3.912 1.4
      vertex 124.489 5.94394 0
    endloop
  endfacet
  facet normal -0.91549 0.402341 0
    outer loop
      vertex 124.489 5.94394 0
      vertex 123.596 3.912 1.4
      vertex 124.489 5.94394 1.4
    endloop
  endfacet
  facet normal 0 -1 0
    outer loop
      vertex 124.489 5.794 2.6
      vertex 124.489 5.794 1.4
      vertex 143.412 5.794 1.4
    endloop
  endfacet
  facet normal 0 -1 0
    outer loop
      vertex 143.412 5.794 2.6
      vertex 124.489 5.794 2.6
      vertex 143.412 5.794 1.4
    endloop
  endfacet
  facet normal 0 1 0
    outer loop
      vertex 124.793 0.206 1.4
      vertex 124.793 0.206 2.6
      vertex 143.107 0.206 1.4
    endloop
  endfacet
  facet normal 0 1 0
    outer loop
      vertex 143.107 0.206 1.4
      vertex 124.793 0.206 2.6
      vertex 143.107 0.206 2.6
    endloop
  endfacet
  facet normal 0 0 1
    outer loop
      vertex 124.793 0.206 2.6
      vertex 124.793 -0.2 2.6
      vertex 143.107 -0.2 2.6
    endloop
  endfacet
  facet normal 0 0 1
    outer loop
      vertex 143.107 0.206 2.6
      vertex 124.793 0.206 2.6
      vertex 143.107 -0.2 2.6
    endloop
  endfacet
  facet normal 0 0 1
    outer loop
      vertex 124.489 6.201 2.6
      vertex 124.489 5.794 2.6
      vertex 143.412 5.794 2.6
    endloop
  endfacet
  facet normal 0 0 1
    outer loop
      vertex 143.412 6.201 2.6
      vertex 124.489 6.201 2.6
      vertex 143.412 5.794 2.6
    endloop
  endfacet
  facet normal 0 0 1
    outer loop
      vertex 125.095 6.299 1.4
      vertex 124.907 6.201 1.4
      vertex 143.202 6.201 1.4
    endloop
  endfacet
  facet normal 0 0 1
    outer loop
      vertex 143.104 6.299 1.4
      vertex 125.095 6.299 1.4
      vertex 143.202 6.201 1.4
    endloop
  endfacet
endsolid OpenSCAD_Model
