  0
SECTION
  2
HEADER
  9
$ACADVER
  1
AC1009
  9
$EXTMIN
 10
0.0
 20
0.0
 30
0.0
  9
$EXTMAX
 10
1000.0
 20
1000.0
 30
0.0
  9
$FILLMODE
 70
 0
  9
$SPLFRAME
 70
 1
  0
ENDSEC
  0
SECTION
  2
TABLES
  0
TABLE
  2
LAYER
 70
1
  0
LAYER
  2
0
 70
     0
 62
     7
  6
CONTINUOUS
  0
ENDTAB
  0
ENDSEC
  0
SECTION
  2
ENTITIES
  0
LINE
  8
0
 62
     160
 10
5.64171
 20
-0
 30
0.0
 11
4.92128
 21
-0
 31
0.0
  0
LINE
  8
0
 62
     160
 10
4.92128
 20
-0
 30
0.0
 11
4.92128
 21
0.0157335
 31
0.0
  0
LINE
  8
0
 62
     160
 10
4.92128
 20
0.0157335
 30
0.0
 11
5.64171
 21
0.0157335
 31
0.0
  0
LINE
  8
0
 62
     160
 10
5.64171
 20
0.0157335
 30
0.0
 11
5.64171
 21
-0
 31
0.0
  0
LINE
  8
0
 62
     160
 10
5.65354
 20
0.236219
 30
0.0
 11
4.90944
 21
0.236219
 31
0.0
  0
LINE
  8
0
 62
     160
 10
4.90944
 20
0.236219
 30
0.0
 11
4.90944
 21
0.251953
 31
0.0
  0
LINE
  8
0
 62
     160
 10
4.90944
 20
0.251953
 30
0.0
 11
5.65354
 21
0.251953
 31
0.0
  0
LINE
  8
0
 62
     160
 10
5.65354
 20
0.251953
 30
0.0
 11
5.65354
 21
0.236219
 31
0.0
  0
LINE
  8
0
 62
     160
 10
4.36615
 20
-0
 30
0.0
 11
3.20865
 21
-0
 31
0.0
  0
LINE
  8
0
 62
     160
 10
3.20865
 20
-0
 30
0.0
 11
3.20307
 21
0.00227864
 31
0.0
  0
LINE
  8
0
 62
     160
 10
3.20307
 20
0.00227864
 30
0.0
 11
3.17947
 21
0.0259332
 31
0.0
  0
LINE
  8
0
 62
     160
 10
3.17947
 20
0.0259332
 30
0.0
 11
3.1906
 21
0.0370551
 31
0.0
  0
LINE
  8
0
 62
     160
 10
3.1906
 20
0.0370551
 30
0.0
 11
3.21192
 21
0.0157335
 31
0.0
  0
LINE
  8
0
 62
     160
 10
3.21192
 20
0.0157335
 30
0.0
 11
4.36615
 21
0.0157335
 31
0.0
  0
LINE
  8
0
 62
     160
 10
4.36615
 20
0.0157335
 30
0.0
 11
4.36615
 21
-0
 31
0.0
  0
LINE
  8
0
 62
     160
 10
4.37793
 20
0.236219
 30
0.0
 11
3.19683
 21
0.236219
 31
0.0
  0
LINE
  8
0
 62
     160
 10
3.19683
 20
0.236219
 30
0.0
 11
3.19683
 21
0.251953
 31
0.0
  0
LINE
  8
0
 62
     160
 10
3.19683
 20
0.251953
 30
0.0
 11
4.37793
 21
0.251953
 31
0.0
  0
LINE
  8
0
 62
     160
 10
4.37793
 20
0.251953
 30
0.0
 11
4.37793
 21
0.236219
 31
0.0
  0
LINE
  8
0
 62
     160
 10
2.65354
 20
-0
 30
0.0
 11
2.03939
 21
-0
 31
0.0
  0
LINE
  8
0
 62
     160
 10
2.03939
 20
-0
 30
0.0
 11
2.03381
 21
0.00227864
 31
0.0
  0
LINE
  8
0
 62
     160
 10
2.03381
 20
0.00227864
 30
0.0
 11
2.01019
 21
0.0259332
 31
0.0
  0
LINE
  8
0
 62
     160
 10
2.01019
 20
0.0259332
 30
0.0
 11
2.02132
 21
0.0370551
 31
0.0
  0
LINE
  8
0
 62
     160
 10
2.02132
 20
0.0370551
 30
0.0
 11
2.04264
 21
0.0157335
 31
0.0
  0
LINE
  8
0
 62
     160
 10
2.04264
 20
0.0157335
 30
0.0
 11
2.65028
 21
0.0157335
 31
0.0
  0
LINE
  8
0
 62
     160
 10
2.65028
 20
0.0157335
 30
0.0
 11
2.6716
 21
0.0370551
 31
0.0
  0
LINE
  8
0
 62
     160
 10
2.6716
 20
0.0370551
 30
0.0
 11
2.68272
 21
0.0259332
 31
0.0
  0
LINE
  8
0
 62
     160
 10
2.68272
 20
0.0259332
 30
0.0
 11
2.65913
 21
0.00227864
 31
0.0
  0
LINE
  8
0
 62
     160
 10
2.65913
 20
0.00227864
 30
0.0
 11
2.65354
 21
-0
 31
0.0
  0
LINE
  8
0
 62
     160
 10
2.65944
 20
0.236219
 30
0.0
 11
2.00396
 21
0.236219
 31
0.0
  0
LINE
  8
0
 62
     160
 10
2.00396
 20
0.236219
 30
0.0
 11
2.00396
 21
0.251953
 31
0.0
  0
LINE
  8
0
 62
     160
 10
2.00396
 20
0.251953
 30
0.0
 11
2.65944
 21
0.251953
 31
0.0
  0
LINE
  8
0
 62
     160
 10
2.65944
 20
0.251953
 30
0.0
 11
2.65944
 21
0.236219
 31
0.0
  0
LINE
  8
0
 62
     160
 10
1.48426
 20
-0
 30
0.0
 11
0.952746
 21
-0
 31
0.0
  0
LINE
  8
0
 62
     160
 10
0.952746
 20
-0
 30
0.0
 11
0.947211
 21
0.00227864
 31
0.0
  0
LINE
  8
0
 62
     160
 10
0.947211
 20
0.00227864
 30
0.0
 11
0.923557
 21
0.0259332
 31
0.0
  0
LINE
  8
0
 62
     160
 10
0.923557
 20
0.0259332
 30
0.0
 11
0.934679
 21
0.0370551
 31
0.0
  0
LINE
  8
0
 62
     160
 10
0.934679
 20
0.0370551
 30
0.0
 11
0.956
 21
0.0157335
 31
0.0
  0
LINE
  8
0
 62
     160
 10
0.956
 20
0.0157335
 30
0.0
 11
1.48101
 21
0.0157335
 31
0.0
  0
LINE
  8
0
 62
     160
 10
1.48101
 20
0.0157335
 30
0.0
 11
1.50228
 21
0.0370551
 31
0.0
  0
LINE
  8
0
 62
     160
 10
1.50228
 20
0.0370551
 30
0.0
 11
1.51346
 21
0.0259332
 31
0.0
  0
LINE
  8
0
 62
     160
 10
1.51346
 20
0.0259332
 30
0.0
 11
1.48981
 21
0.00227864
 31
0.0
  0
LINE
  8
0
 62
     160
 10
1.48981
 20
0.00227864
 30
0.0
 11
1.48426
 21
-0
 31
0.0
  0
LINE
  8
0
 62
     160
 10
1.4961
 20
0.236219
 30
0.0
 11
0.940918
 21
0.236219
 31
0.0
  0
LINE
  8
0
 62
     160
 10
0.940918
 20
0.236219
 30
0.0
 11
0.940918
 21
0.251953
 31
0.0
  0
LINE
  8
0
 62
     160
 10
0.940918
 20
0.251953
 30
0.0
 11
1.4961
 21
0.251953
 31
0.0
  0
LINE
  8
0
 62
     160
 10
1.4961
 20
0.251953
 30
0.0
 11
1.4961
 21
0.236219
 31
0.0
  0
LINE
  8
0
 62
     160
 10
0.362196
 20
-0
 30
0.0
 11
0.0669488
 21
-0
 31
0.0
  0
LINE
  8
0
 62
     160
 10
0.0669488
 20
-0
 30
0.0
 11
0.0598958
 21
0.00434028
 31
0.0
  0
LINE
  8
0
 62
     160
 10
0.0598958
 20
0.00434028
 30
0.0
 11
0.000813803
 21
0.12245
 31
0.0
  0
LINE
  8
0
 62
     160
 10
0.000813803
 20
0.12245
 30
0.0
 11
0
 21
0.125977
 31
0.0
  0
LINE
  8
0
 62
     160
 10
0
 20
0.125977
 30
0.0
 11
0
 21
0.23226
 31
0.0
  0
LINE
  8
0
 62
     160
 10
0
 20
0.23226
 30
0.0
 11
0.0023329
 21
0.237847
 31
0.0
  0
LINE
  8
0
 62
     160
 10
0.0023329
 20
0.237847
 30
0.0
 11
0.0259332
 21
0.261447
 31
0.0
  0
LINE
  8
0
 62
     160
 10
0.0259332
 20
0.261447
 30
0.0
 11
0.0317383
 21
0.263781
 31
0.0
  0
LINE
  8
0
 62
     160
 10
0.0317383
 20
0.263781
 30
0.0
 11
0.433539
 21
0.263781
 31
0.0
  0
LINE
  8
0
 62
     160
 10
0.433539
 20
0.263781
 30
0.0
 11
0.433051
 21
0.248047
 31
0.0
  0
LINE
  8
0
 62
     160
 10
0.433051
 20
0.248047
 30
0.0
 11
0.0346679
 21
0.247939
 31
0.0
  0
LINE
  8
0
 62
     160
 10
0.0346679
 20
0.247939
 30
0.0
 11
0.0157335
 21
0.229004
 31
0.0
  0
LINE
  8
0
 62
     160
 10
0.0157335
 20
0.229004
 30
0.0
 11
0.0157335
 21
0.127821
 31
0.0
  0
LINE
  8
0
 62
     160
 10
0.0157335
 20
0.127821
 30
0.0
 11
0.0717774
 21
0.0157335
 31
0.0
  0
LINE
  8
0
 62
     160
 10
0.0717774
 20
0.0157335
 30
0.0
 11
0.359267
 21
0.0157335
 31
0.0
  0
LINE
  8
0
 62
     160
 10
0.359267
 20
0.0157335
 30
0.0
 11
0.384603
 21
0.0374892
 31
0.0
  0
LINE
  8
0
 62
     160
 10
0.384603
 20
0.0374892
 30
0.0
 11
0.394857
 21
0.0254992
 31
0.0
  0
LINE
  8
0
 62
     160
 10
0.394857
 20
0.0254992
 30
0.0
 11
0.36735
 21
0.00189888
 31
0.0
  0
LINE
  8
0
 62
     160
 10
0.36735
 20
0.00189888
 30
0.0
 11
0.362196
 21
-0
 31
0.0
  0
ENDSEC
  0
EOF
